<svg width="421" height="187" viewBox="0 0 421 187" fill="none" xmlns="http://www.w3.org/2000/svg">
<path d="M210.041 1.27815C267.989 1.27815 320.428 11.6747 358.36 28.4632C377.327 36.8578 392.645 46.8406 403.215 57.9004C413.782 68.9578 419.582 81.068 419.582 93.7399C419.582 106.412 413.782 118.522 403.215 129.579C392.645 140.639 377.327 150.622 358.36 159.017C320.428 175.805 267.989 186.202 210.041 186.202C152.093 186.202 99.6545 175.805 61.722 159.017C42.7551 150.622 27.437 140.639 16.8676 129.579C6.30049 118.522 0.499996 106.412 0.499996 93.7399C0.499995 81.068 6.30049 68.9578 16.8675 57.9005C27.437 46.8406 42.7551 36.8578 61.722 28.4632C99.6545 11.6747 152.093 1.27816 210.041 1.27815Z" stroke="url(#paint0_linear_2138_135046)"/>
<defs>
<linearGradient id="paint0_linear_2138_135046" x1="-4.06349e-06" y1="93.7399" x2="420.082" y2="93.7399" gradientUnits="userSpaceOnUse">
<stop stop-color="#FFCD75"/>
<stop offset="1" stop-color="#E69405"/>
</linearGradient>
</defs>
</svg>
