<svg width="532" height="73" viewBox="0 0 532 73" fill="none" xmlns="http://www.w3.org/2000/svg">
<g clip-path="url(#clip0_2039_133436)">
<path d="M15.6062 34.558V39.8C17.3816 40.5996 18.8032 42.0211 19.6027 43.7965H20.3556V30.5708H19.6027C18.7999 32.3417 17.379 33.7593 15.6062 34.558Z" fill="url(#paint0_linear_2039_133436)"/>
<path d="M10.4851 30.2736V44.0663C12.149 44.0663 13.7447 44.7272 14.9212 45.9038C16.0978 47.0803 16.7587 48.676 16.7587 50.3399H25.4674V24H16.7587C16.7587 25.6639 16.0978 27.2596 14.9212 28.4361C13.7447 29.6126 12.149 30.2736 10.4851 30.2736ZM21.9356 27.4853V46.8174H19.6306L19.5284 46.5757C18.5294 44.1916 16.6334 42.2956 14.2493 41.2966L14.0076 41.1943V33.1455L14.2493 33.0433C16.6334 32.0443 18.5294 30.1483 19.5284 27.7642L19.6306 27.5225L21.9356 27.4853Z" fill="url(#paint1_linear_2039_133436)"/>
<path d="M27.5591 50.3399H56.4735C56.4735 48.6776 57.1332 47.0833 58.3077 45.907C59.4822 44.7308 61.0755 44.0687 62.7378 44.0663V30.2736C61.0755 30.2711 59.4822 29.6091 58.3077 28.4328C57.1332 27.2566 56.4735 25.6623 56.4735 24L27.5591 24V50.3399ZM53.583 27.5225L53.6852 27.7642C54.6842 30.1483 56.5802 32.0443 58.9643 33.0433L59.206 33.1455V41.1943L58.9643 41.2966C56.5802 42.2956 54.6842 44.1916 53.6852 46.5757L53.583 46.8174H31.0816V27.5225H53.583Z" fill="url(#paint2_linear_2039_133436)"/>
<path d="M57.0952 40.3298V34.0097C54.9686 33.0386 53.2675 31.3275 52.3087 29.1953H33.1904V45.1442H52.3087C53.2675 43.012 54.9686 41.301 57.0952 40.3298Z" fill="url(#paint3_linear_2039_133436)"/>
</g>
<rect x="1" y="1.5" width="71" height="71" rx="15.5" stroke="url(#paint4_linear_2039_133436)"/>
<path d="M97.268 1.352H105.06V3.144H102.052V13H100.196V3.144H97.268V1.352ZM106.857 6.232H108.649V13H106.857V6.232ZM106.777 3.816C106.777 3.53867 106.884 3.30933 107.097 3.128C107.321 2.94667 107.561 2.856 107.817 2.856C108.073 2.856 108.302 2.94667 108.505 3.128C108.718 3.30933 108.825 3.53867 108.825 3.816C108.825 4.09333 108.718 4.32267 108.505 4.504C108.302 4.67467 108.073 4.76 107.817 4.76C107.561 4.76 107.321 4.66933 107.097 4.488C106.884 4.30667 106.777 4.08267 106.777 3.816ZM116.707 12.376C116.408 12.6213 116.04 12.8187 115.603 12.968C115.176 13.1067 114.744 13.176 114.307 13.176C113.56 13.176 112.904 13.032 112.339 12.744C111.774 12.4453 111.331 12.0347 111.011 11.512C110.702 10.9787 110.547 10.344 110.547 9.608C110.547 8.872 110.712 8.23733 111.043 7.704C111.384 7.17067 111.827 6.76533 112.371 6.488C112.926 6.2 113.512 6.056 114.131 6.056C114.696 6.056 115.198 6.136 115.635 6.296C116.072 6.44533 116.451 6.65333 116.771 6.92L115.875 8.088C115.704 7.94933 115.48 7.82133 115.203 7.704C114.936 7.576 114.632 7.512 114.291 7.512C113.928 7.512 113.598 7.60267 113.299 7.784C113.011 7.96533 112.776 8.216 112.595 8.536C112.424 8.84533 112.339 9.20267 112.339 9.608C112.339 9.992 112.43 10.344 112.611 10.664C112.792 10.984 113.043 11.24 113.363 11.432C113.683 11.6133 114.051 11.704 114.467 11.704C114.734 11.704 114.979 11.6667 115.203 11.592C115.438 11.5067 115.64 11.3947 115.811 11.256L116.707 12.376ZM118.545 13V0.52H120.337V13H118.545ZM122.016 8.456L125.105 13H123.025L120.833 9.48L122.016 8.456ZM119.793 10.968L119.617 9.24L123.729 6.072L124.817 7.032L119.793 10.968ZM129.839 13.176C129.039 13.176 128.356 13.0213 127.791 12.712C127.226 12.4027 126.794 11.976 126.495 11.432C126.196 10.8773 126.047 10.2533 126.047 9.56C126.047 8.87733 126.218 8.264 126.559 7.72C126.9 7.176 127.359 6.744 127.935 6.424C128.522 6.09333 129.167 5.928 129.871 5.928C130.799 5.928 131.562 6.2 132.159 6.744C132.767 7.27733 133.172 8.03467 133.375 9.016L127.919 10.856L127.503 9.848L131.759 8.328L131.391 8.536C131.274 8.216 131.082 7.93867 130.815 7.704C130.559 7.46933 130.196 7.352 129.727 7.352C129.354 7.352 129.023 7.44267 128.735 7.624C128.447 7.79467 128.218 8.04 128.047 8.36C127.887 8.66933 127.807 9.03733 127.807 9.464C127.807 9.90133 127.898 10.2853 128.079 10.616C128.26 10.9467 128.506 11.2027 128.815 11.384C129.124 11.5547 129.476 11.64 129.871 11.64C130.148 11.64 130.415 11.592 130.671 11.496C130.927 11.4 131.167 11.272 131.391 11.112L132.207 12.44C131.855 12.664 131.466 12.8453 131.039 12.984C130.623 13.112 130.223 13.176 129.839 13.176ZM135.778 3.256H137.586V6.232H139.346V7.64H137.586V13H135.778V7.64H134.626V6.232H135.778V3.256Z" fill="url(#paint5_linear_2039_133436)"/>
<path d="M98.164 25.432H105.684V26.92H99.716V30.44H105.044V31.928H99.716V35.512H105.908V37H98.164V25.432ZM110.922 37.192L107.242 30.376H109.002L111.498 35.64L110.586 35.608L112.874 30.376H114.538L111.002 37.192H110.922ZM119.056 37.16C118.298 37.16 117.648 37.0107 117.104 36.712C116.56 36.4027 116.138 35.9867 115.84 35.464C115.552 34.9307 115.408 34.3227 115.408 33.64C115.408 32.9893 115.573 32.3973 115.904 31.864C116.234 31.3307 116.677 30.904 117.232 30.584C117.786 30.264 118.405 30.104 119.088 30.104C119.962 30.104 120.688 30.36 121.264 30.872C121.84 31.384 122.229 32.088 122.432 32.984L116.976 34.904L116.624 34.024L121.104 32.392L120.784 32.6C120.656 32.248 120.442 31.944 120.144 31.688C119.845 31.4213 119.456 31.288 118.976 31.288C118.57 31.288 118.208 31.3893 117.888 31.592C117.568 31.784 117.317 32.0507 117.136 32.392C116.954 32.7333 116.864 33.1227 116.864 33.56C116.864 34.0187 116.96 34.424 117.152 34.776C117.344 35.1173 117.605 35.3893 117.936 35.592C118.277 35.784 118.661 35.88 119.088 35.88C119.376 35.88 119.653 35.8267 119.92 35.72C120.197 35.6133 120.453 35.4747 120.688 35.304L121.376 36.408C121.045 36.632 120.672 36.8133 120.256 36.952C119.85 37.0907 119.45 37.16 119.056 37.16ZM125.624 30.376L125.768 32.296L125.688 32.04C125.859 31.6347 126.104 31.2933 126.424 31.016C126.755 30.728 127.096 30.5093 127.448 30.36C127.811 30.2 128.125 30.12 128.392 30.12L128.312 31.592C127.811 31.56 127.368 31.656 126.984 31.88C126.611 32.104 126.312 32.4027 126.088 32.776C125.875 33.1493 125.768 33.5493 125.768 33.976V37H124.296V30.376H125.624ZM134.216 37.16C133.714 37.16 133.229 37.0427 132.76 36.808C132.301 36.5733 131.944 36.2587 131.688 35.864L131.784 35.4V40.184H130.312V30.28H131.592L131.8 31.976L131.64 31.512C131.96 31.1067 132.365 30.7707 132.856 30.504C133.346 30.2373 133.896 30.104 134.504 30.104C135.122 30.104 135.677 30.2533 136.168 30.552C136.669 30.8507 137.064 31.2667 137.352 31.8C137.64 32.3333 137.784 32.9573 137.784 33.672C137.784 34.3867 137.629 35.0053 137.32 35.528C137.01 36.0507 136.584 36.456 136.04 36.744C135.506 37.0213 134.898 37.16 134.216 37.16ZM133.928 35.976C134.354 35.976 134.744 35.88 135.096 35.688C135.458 35.4853 135.746 35.2133 135.96 34.872C136.173 34.52 136.28 34.1253 136.28 33.688C136.28 33.24 136.178 32.8453 135.976 32.504C135.773 32.152 135.501 31.8747 135.16 31.672C134.829 31.4693 134.456 31.368 134.04 31.368C133.656 31.368 133.309 31.4427 133 31.592C132.69 31.7413 132.434 31.9493 132.232 32.216C132.029 32.472 131.885 32.7707 131.8 33.112V34.216C131.853 34.5573 131.981 34.8613 132.184 35.128C132.386 35.3947 132.637 35.6027 132.936 35.752C133.245 35.9013 133.576 35.976 133.928 35.976ZM142.548 37.16C141.929 37.16 141.364 37.0267 140.852 36.76C140.351 36.4933 139.951 36.104 139.652 35.592C139.364 35.0693 139.22 34.4347 139.22 33.688C139.22 32.952 139.375 32.3173 139.684 31.784C139.993 31.24 140.404 30.824 140.916 30.536C141.439 30.248 142.009 30.104 142.628 30.104C143.247 30.104 143.769 30.248 144.196 30.536C144.623 30.8133 144.948 31.144 145.172 31.528L145.076 31.784L145.22 30.376H146.596V37H145.108V35.272L145.268 35.656C145.225 35.7627 145.129 35.9013 144.98 36.072C144.841 36.232 144.649 36.3973 144.404 36.568C144.169 36.7387 143.897 36.8827 143.588 37C143.279 37.1067 142.932 37.16 142.548 37.16ZM142.948 35.928C143.321 35.928 143.657 35.8587 143.956 35.72C144.255 35.5813 144.5 35.3893 144.692 35.144C144.895 34.888 145.033 34.584 145.108 34.232V32.936C145.023 32.616 144.873 32.3387 144.66 32.104C144.447 31.8587 144.191 31.672 143.892 31.544C143.593 31.4053 143.263 31.336 142.9 31.336C142.505 31.336 142.143 31.432 141.812 31.624C141.481 31.816 141.215 32.0827 141.012 32.424C140.82 32.7653 140.724 33.1653 140.724 33.624C140.724 34.0507 140.825 34.44 141.028 34.792C141.231 35.144 141.503 35.4213 141.844 35.624C142.185 35.8267 142.553 35.928 142.948 35.928ZM151.027 37.128C150.558 37.128 150.099 37.048 149.651 36.888C149.214 36.7173 148.851 36.4667 148.563 36.136L149.187 35.272C149.464 35.5387 149.747 35.7413 150.035 35.88C150.334 36.008 150.627 36.072 150.915 36.072C151.128 36.072 151.326 36.0453 151.507 35.992C151.688 35.9387 151.832 35.8533 151.939 35.736C152.056 35.608 152.115 35.4373 152.115 35.224C152.115 34.9893 152.035 34.8027 151.875 34.664C151.726 34.5253 151.528 34.4133 151.283 34.328C151.048 34.2427 150.798 34.1627 150.531 34.088C149.987 33.9067 149.571 33.656 149.283 33.336C148.995 33.016 148.851 32.6267 148.851 32.168C148.851 31.816 148.936 31.4907 149.107 31.192C149.288 30.8827 149.55 30.632 149.891 30.44C150.243 30.248 150.675 30.152 151.187 30.152C151.646 30.152 152.056 30.2107 152.419 30.328C152.782 30.4347 153.123 30.616 153.443 30.872L152.851 31.8C152.659 31.5973 152.43 31.448 152.163 31.352C151.896 31.256 151.656 31.2027 151.443 31.192C151.262 31.1813 151.086 31.208 150.915 31.272C150.755 31.336 150.622 31.4267 150.515 31.544C150.408 31.6613 150.355 31.8 150.355 31.96C150.355 32.184 150.43 32.3653 150.579 32.504C150.728 32.6427 150.92 32.7547 151.155 32.84C151.4 32.9147 151.64 32.9947 151.875 33.08C152.206 33.176 152.499 33.304 152.755 33.464C153.011 33.624 153.214 33.8213 153.363 34.056C153.523 34.2907 153.603 34.584 153.603 34.936C153.603 35.3307 153.507 35.6987 153.315 36.04C153.134 36.3707 152.851 36.6373 152.467 36.84C152.094 37.032 151.614 37.128 151.027 37.128ZM157.543 37.128C157.073 37.128 156.615 37.048 156.167 36.888C155.729 36.7173 155.367 36.4667 155.079 36.136L155.703 35.272C155.98 35.5387 156.263 35.7413 156.551 35.88C156.849 36.008 157.143 36.072 157.431 36.072C157.644 36.072 157.841 36.0453 158.023 35.992C158.204 35.9387 158.348 35.8533 158.455 35.736C158.572 35.608 158.631 35.4373 158.631 35.224C158.631 34.9893 158.551 34.8027 158.391 34.664C158.241 34.5253 158.044 34.4133 157.799 34.328C157.564 34.2427 157.313 34.1627 157.047 34.088C156.503 33.9067 156.087 33.656 155.799 33.336C155.511 33.016 155.367 32.6267 155.367 32.168C155.367 31.816 155.452 31.4907 155.623 31.192C155.804 30.8827 156.065 30.632 156.407 30.44C156.759 30.248 157.191 30.152 157.703 30.152C158.161 30.152 158.572 30.2107 158.935 30.328C159.297 30.4347 159.639 30.616 159.959 30.872L159.367 31.8C159.175 31.5973 158.945 31.448 158.679 31.352C158.412 31.256 158.172 31.2027 157.959 31.192C157.777 31.1813 157.601 31.208 157.431 31.272C157.271 31.336 157.137 31.4267 157.031 31.544C156.924 31.6613 156.871 31.8 156.871 31.96C156.871 32.184 156.945 32.3653 157.095 32.504C157.244 32.6427 157.436 32.7547 157.671 32.84C157.916 32.9147 158.156 32.9947 158.391 33.08C158.721 33.176 159.015 33.304 159.271 33.464C159.527 33.624 159.729 33.8213 159.879 34.056C160.039 34.2907 160.119 34.584 160.119 34.936C160.119 35.3307 160.023 35.6987 159.831 36.04C159.649 36.3707 159.367 36.6373 158.983 36.84C158.609 37.032 158.129 37.128 157.543 37.128ZM167.265 30.376H168.753V37H167.265V30.376ZM167.153 27.976C167.153 27.7413 167.243 27.544 167.425 27.384C167.617 27.224 167.825 27.144 168.049 27.144C168.273 27.144 168.47 27.224 168.641 27.384C168.822 27.544 168.913 27.7413 168.913 27.976C168.913 28.2213 168.822 28.424 168.641 28.584C168.47 28.7333 168.273 28.808 168.049 28.808C167.825 28.808 167.617 28.728 167.425 28.568C167.243 28.408 167.153 28.2107 167.153 27.976ZM173.183 37.128C172.714 37.128 172.255 37.048 171.807 36.888C171.37 36.7173 171.007 36.4667 170.719 36.136L171.343 35.272C171.621 35.5387 171.903 35.7413 172.191 35.88C172.49 36.008 172.783 36.072 173.071 36.072C173.285 36.072 173.482 36.0453 173.663 35.992C173.845 35.9387 173.989 35.8533 174.095 35.736C174.213 35.608 174.271 35.4373 174.271 35.224C174.271 34.9893 174.191 34.8027 174.031 34.664C173.882 34.5253 173.685 34.4133 173.439 34.328C173.205 34.2427 172.954 34.1627 172.687 34.088C172.143 33.9067 171.727 33.656 171.439 33.336C171.151 33.016 171.007 32.6267 171.007 32.168C171.007 31.816 171.093 31.4907 171.263 31.192C171.445 30.8827 171.706 30.632 172.047 30.44C172.399 30.248 172.831 30.152 173.343 30.152C173.802 30.152 174.213 30.2107 174.575 30.328C174.938 30.4347 175.279 30.616 175.599 30.872L175.007 31.8C174.815 31.5973 174.586 31.448 174.319 31.352C174.053 31.256 173.813 31.2027 173.599 31.192C173.418 31.1813 173.242 31.208 173.071 31.272C172.911 31.336 172.778 31.4267 172.671 31.544C172.565 31.6613 172.511 31.8 172.511 31.96C172.511 32.184 172.586 32.3653 172.735 32.504C172.885 32.6427 173.077 32.7547 173.311 32.84C173.557 32.9147 173.797 32.9947 174.031 33.08C174.362 33.176 174.655 33.304 174.911 33.464C175.167 33.624 175.37 33.8213 175.519 34.056C175.679 34.2907 175.759 34.584 175.759 34.936C175.759 35.3307 175.663 35.6987 175.471 36.04C175.29 36.3707 175.007 36.6373 174.623 36.84C174.25 37.032 173.77 37.128 173.183 37.128ZM183.545 27.464H185.033V30.408H186.857V31.576H185.033V37H183.545V31.576H182.329V30.408H183.545V27.464ZM188.655 37V24.616H190.111V31.912L190.079 31.64C190.303 31.2027 190.645 30.84 191.103 30.552C191.573 30.264 192.122 30.12 192.751 30.12C193.381 30.12 193.893 30.3067 194.287 30.68C194.693 31.0427 194.901 31.5173 194.911 32.104V37H193.407V32.632C193.397 32.2693 193.29 31.976 193.087 31.752C192.895 31.5173 192.591 31.4 192.175 31.4C191.791 31.4 191.445 31.512 191.135 31.736C190.826 31.9493 190.581 32.2427 190.399 32.616C190.229 32.9893 190.143 33.416 190.143 33.896V37H188.655ZM200.571 37.16C199.814 37.16 199.163 37.0107 198.619 36.712C198.075 36.4027 197.654 35.9867 197.355 35.464C197.067 34.9307 196.923 34.3227 196.923 33.64C196.923 32.9893 197.088 32.3973 197.419 31.864C197.75 31.3307 198.192 30.904 198.747 30.584C199.302 30.264 199.92 30.104 200.603 30.104C201.478 30.104 202.203 30.36 202.779 30.872C203.355 31.384 203.744 32.088 203.947 32.984L198.491 34.904L198.139 34.024L202.619 32.392L202.299 32.6C202.171 32.248 201.958 31.944 201.659 31.688C201.36 31.4213 200.971 31.288 200.491 31.288C200.086 31.288 199.723 31.3893 199.403 31.592C199.083 31.784 198.832 32.0507 198.651 32.392C198.47 32.7333 198.379 33.1227 198.379 33.56C198.379 34.0187 198.475 34.424 198.667 34.776C198.859 35.1173 199.12 35.3893 199.451 35.592C199.792 35.784 200.176 35.88 200.603 35.88C200.891 35.88 201.168 35.8267 201.435 35.72C201.712 35.6133 201.968 35.4747 202.203 35.304L202.891 36.408C202.56 36.632 202.187 36.8133 201.771 36.952C201.366 37.0907 200.966 37.16 200.571 37.16ZM210.874 24.616H212.362V37H210.874V24.616ZM218.009 37.16C217.251 37.16 216.601 37.0107 216.057 36.712C215.513 36.4027 215.091 35.9867 214.793 35.464C214.505 34.9307 214.361 34.3227 214.361 33.64C214.361 32.9893 214.526 32.3973 214.857 31.864C215.187 31.3307 215.63 30.904 216.185 30.584C216.739 30.264 217.358 30.104 218.041 30.104C218.915 30.104 219.641 30.36 220.217 30.872C220.793 31.384 221.182 32.088 221.385 32.984L215.929 34.904L215.577 34.024L220.057 32.392L219.737 32.6C219.609 32.248 219.395 31.944 219.097 31.688C218.798 31.4213 218.409 31.288 217.929 31.288C217.523 31.288 217.161 31.3893 216.841 31.592C216.521 31.784 216.27 32.0507 216.089 32.392C215.907 32.7333 215.817 33.1227 215.817 33.56C215.817 34.0187 215.913 34.424 216.105 34.776C216.297 35.1173 216.558 35.3893 216.889 35.592C217.23 35.784 217.614 35.88 218.041 35.88C218.329 35.88 218.606 35.8267 218.873 35.72C219.15 35.6133 219.406 35.4747 219.641 35.304L220.329 36.408C219.998 36.632 219.625 36.8133 219.209 36.952C218.803 37.0907 218.403 37.16 218.009 37.16ZM225.703 37.192L222.023 30.376H223.783L226.279 35.64L225.367 35.608L227.655 30.376H229.319L225.783 37.192H225.703ZM233.837 37.16C233.079 37.16 232.429 37.0107 231.885 36.712C231.341 36.4027 230.919 35.9867 230.621 35.464C230.333 34.9307 230.189 34.3227 230.189 33.64C230.189 32.9893 230.354 32.3973 230.685 31.864C231.015 31.3307 231.458 30.904 232.013 30.584C232.567 30.264 233.186 30.104 233.869 30.104C234.743 30.104 235.469 30.36 236.045 30.872C236.621 31.384 237.01 32.088 237.213 32.984L231.757 34.904L231.405 34.024L235.885 32.392L235.565 32.6C235.437 32.248 235.223 31.944 234.925 31.688C234.626 31.4213 234.237 31.288 233.757 31.288C233.351 31.288 232.989 31.3893 232.669 31.592C232.349 31.784 232.098 32.0507 231.917 32.392C231.735 32.7333 231.645 33.1227 231.645 33.56C231.645 34.0187 231.741 34.424 231.933 34.776C232.125 35.1173 232.386 35.3893 232.717 35.592C233.058 35.784 233.442 35.88 233.869 35.88C234.157 35.88 234.434 35.8267 234.701 35.72C234.978 35.6133 235.234 35.4747 235.469 35.304L236.157 36.408C235.826 36.632 235.453 36.8133 235.037 36.952C234.631 37.0907 234.231 37.16 233.837 37.16ZM239.077 24.616H240.565V37H239.077V24.616ZM252.234 37.16C251.626 37.16 251.088 37.0267 250.618 36.76C250.16 36.4933 249.792 36.1573 249.514 35.752L249.69 35.288V37H248.202V24.616H249.674V31.896L249.626 31.336C249.893 30.9733 250.272 30.68 250.762 30.456C251.264 30.2213 251.818 30.104 252.426 30.104C253.024 30.104 253.568 30.248 254.058 30.536C254.549 30.824 254.938 31.2293 255.226 31.752C255.525 32.264 255.674 32.8773 255.674 33.592C255.674 34.3387 255.514 34.9787 255.194 35.512C254.885 36.0453 254.469 36.456 253.946 36.744C253.424 37.0213 252.853 37.16 252.234 37.16ZM251.93 35.896C252.357 35.896 252.741 35.7947 253.082 35.592C253.424 35.3893 253.69 35.1173 253.882 34.776C254.074 34.424 254.17 34.024 254.17 33.576C254.17 33.1493 254.069 32.7653 253.866 32.424C253.674 32.072 253.408 31.7947 253.066 31.592C252.736 31.3893 252.357 31.288 251.93 31.288C251.568 31.288 251.232 31.3573 250.922 31.496C250.613 31.6347 250.352 31.8267 250.138 32.072C249.925 32.3067 249.776 32.584 249.69 32.904V34.232C249.776 34.552 249.92 34.84 250.122 35.096C250.325 35.3413 250.581 35.5387 250.89 35.688C251.2 35.8267 251.546 35.896 251.93 35.896ZM257.111 33.624C257.111 32.9627 257.265 32.3653 257.575 31.832C257.895 31.2987 258.332 30.8773 258.887 30.568C259.441 30.2587 260.071 30.104 260.775 30.104C261.5 30.104 262.135 30.2587 262.679 30.568C263.223 30.8773 263.644 31.2987 263.943 31.832C264.241 32.3653 264.391 32.9627 264.391 33.624C264.391 34.2853 264.241 34.888 263.943 35.432C263.644 35.9653 263.217 36.3867 262.663 36.696C262.119 37.0053 261.484 37.16 260.759 37.16C260.055 37.16 259.425 37.016 258.871 36.728C258.327 36.4293 257.895 36.0187 257.575 35.496C257.265 34.9627 257.111 34.3387 257.111 33.624ZM258.599 33.64C258.599 34.0667 258.695 34.456 258.887 34.808C259.079 35.1493 259.335 35.4213 259.655 35.624C259.985 35.8267 260.348 35.928 260.743 35.928C261.159 35.928 261.527 35.8267 261.847 35.624C262.177 35.4213 262.433 35.1493 262.615 34.808C262.796 34.456 262.887 34.0667 262.887 33.64C262.887 33.2133 262.796 32.8293 262.615 32.488C262.433 32.136 262.177 31.8587 261.847 31.656C261.527 31.4427 261.159 31.336 260.743 31.336C260.337 31.336 259.969 31.4427 259.639 31.656C259.319 31.8693 259.063 32.152 258.871 32.504C258.689 32.8453 258.599 33.224 258.599 33.64ZM265.829 33.624C265.829 32.9627 265.984 32.3653 266.293 31.832C266.613 31.2987 267.051 30.8773 267.605 30.568C268.16 30.2587 268.789 30.104 269.493 30.104C270.219 30.104 270.853 30.2587 271.397 30.568C271.941 30.8773 272.363 31.2987 272.661 31.832C272.96 32.3653 273.109 32.9627 273.109 33.624C273.109 34.2853 272.96 34.888 272.661 35.432C272.363 35.9653 271.936 36.3867 271.381 36.696C270.837 37.0053 270.203 37.16 269.477 37.16C268.773 37.16 268.144 37.016 267.589 36.728C267.045 36.4293 266.613 36.0187 266.293 35.496C265.984 34.9627 265.829 34.3387 265.829 33.624ZM267.317 33.64C267.317 34.0667 267.413 34.456 267.605 34.808C267.797 35.1493 268.053 35.4213 268.373 35.624C268.704 35.8267 269.067 35.928 269.461 35.928C269.877 35.928 270.245 35.8267 270.565 35.624C270.896 35.4213 271.152 35.1493 271.333 34.808C271.515 34.456 271.605 34.0667 271.605 33.64C271.605 33.2133 271.515 32.8293 271.333 32.488C271.152 32.136 270.896 31.8587 270.565 31.656C270.245 31.4427 269.877 31.336 269.461 31.336C269.056 31.336 268.688 31.4427 268.357 31.656C268.037 31.8693 267.781 32.152 267.589 32.504C267.408 32.8453 267.317 33.224 267.317 33.64ZM275.124 37V24.616H276.612V37H275.124ZM278.212 32.6L281.252 37H279.508L277.22 33.432L278.212 32.6ZM276.148 34.888L276.004 33.464L280.02 30.232L280.932 31.016L276.148 34.888ZM288.795 27.464H290.283V30.408H292.107V31.576H290.283V37H288.795V31.576H287.579V30.408H288.795V27.464ZM293.905 37V24.616H295.361V31.912L295.329 31.64C295.553 31.2027 295.895 30.84 296.353 30.552C296.823 30.264 297.372 30.12 298.001 30.12C298.631 30.12 299.143 30.3067 299.537 30.68C299.943 31.0427 300.151 31.5173 300.161 32.104V37H298.657V32.632C298.647 32.2693 298.54 31.976 298.337 31.752C298.145 31.5173 297.841 31.4 297.425 31.4C297.041 31.4 296.695 31.512 296.385 31.736C296.076 31.9493 295.831 32.2427 295.649 32.616C295.479 32.9893 295.393 33.416 295.393 33.896V37H293.905ZM305.501 37.16C304.882 37.16 304.317 37.0267 303.805 36.76C303.304 36.4933 302.904 36.104 302.605 35.592C302.317 35.0693 302.173 34.4347 302.173 33.688C302.173 32.952 302.328 32.3173 302.637 31.784C302.946 31.24 303.357 30.824 303.869 30.536C304.392 30.248 304.962 30.104 305.581 30.104C306.2 30.104 306.722 30.248 307.149 30.536C307.576 30.8133 307.901 31.144 308.125 31.528L308.029 31.784L308.173 30.376H309.549V37H308.061V35.272L308.221 35.656C308.178 35.7627 308.082 35.9013 307.933 36.072C307.794 36.232 307.602 36.3973 307.357 36.568C307.122 36.7387 306.85 36.8827 306.541 37C306.232 37.1067 305.885 37.16 305.501 37.16ZM305.901 35.928C306.274 35.928 306.61 35.8587 306.909 35.72C307.208 35.5813 307.453 35.3893 307.645 35.144C307.848 34.888 307.986 34.584 308.061 34.232V32.936C307.976 32.616 307.826 32.3387 307.613 32.104C307.4 31.8587 307.144 31.672 306.845 31.544C306.546 31.4053 306.216 31.336 305.853 31.336C305.458 31.336 305.096 31.432 304.765 31.624C304.434 31.816 304.168 32.0827 303.965 32.424C303.773 32.7653 303.677 33.1653 303.677 33.624C303.677 34.0507 303.778 34.44 303.981 34.792C304.184 35.144 304.456 35.4213 304.797 35.624C305.138 35.8267 305.506 35.928 305.901 35.928ZM312.764 27.464H314.252V30.408H316.076V31.576H314.252V37H312.764V31.576H311.548V30.408H312.764V27.464ZM325.689 37.16C325.07 37.16 324.505 37.0267 323.993 36.76C323.491 36.4933 323.091 36.104 322.793 35.592C322.505 35.0693 322.361 34.4347 322.361 33.688C322.361 32.952 322.515 32.3173 322.825 31.784C323.134 31.24 323.545 30.824 324.057 30.536C324.579 30.248 325.15 30.104 325.769 30.104C326.387 30.104 326.91 30.248 327.337 30.536C327.763 30.8133 328.089 31.144 328.313 31.528L328.217 31.784L328.361 30.376H329.737V37H328.249V35.272L328.409 35.656C328.366 35.7627 328.27 35.9013 328.121 36.072C327.982 36.232 327.79 36.3973 327.545 36.568C327.31 36.7387 327.038 36.8827 326.729 37C326.419 37.1067 326.073 37.16 325.689 37.16ZM326.089 35.928C326.462 35.928 326.798 35.8587 327.097 35.72C327.395 35.5813 327.641 35.3893 327.833 35.144C328.035 34.888 328.174 34.584 328.249 34.232V32.936C328.163 32.616 328.014 32.3387 327.801 32.104C327.587 31.8587 327.331 31.672 327.033 31.544C326.734 31.4053 326.403 31.336 326.041 31.336C325.646 31.336 325.283 31.432 324.953 31.624C324.622 31.816 324.355 32.0827 324.153 32.424C323.961 32.7653 323.865 33.1653 323.865 33.624C323.865 34.0507 323.966 34.44 324.169 34.792C324.371 35.144 324.643 35.4213 324.985 35.624C325.326 35.8267 325.694 35.928 326.089 35.928ZM334.168 37.128C333.698 37.128 333.24 37.048 332.792 36.888C332.354 36.7173 331.992 36.4667 331.704 36.136L332.328 35.272C332.605 35.5387 332.888 35.7413 333.176 35.88C333.474 36.008 333.768 36.072 334.056 36.072C334.269 36.072 334.466 36.0453 334.648 35.992C334.829 35.9387 334.973 35.8533 335.08 35.736C335.197 35.608 335.256 35.4373 335.256 35.224C335.256 34.9893 335.176 34.8027 335.016 34.664C334.866 34.5253 334.669 34.4133 334.424 34.328C334.189 34.2427 333.938 34.1627 333.672 34.088C333.128 33.9067 332.712 33.656 332.424 33.336C332.136 33.016 331.992 32.6267 331.992 32.168C331.992 31.816 332.077 31.4907 332.248 31.192C332.429 30.8827 332.69 30.632 333.032 30.44C333.384 30.248 333.816 30.152 334.328 30.152C334.786 30.152 335.197 30.2107 335.56 30.328C335.922 30.4347 336.264 30.616 336.584 30.872L335.992 31.8C335.8 31.5973 335.57 31.448 335.304 31.352C335.037 31.256 334.797 31.2027 334.584 31.192C334.402 31.1813 334.226 31.208 334.056 31.272C333.896 31.336 333.762 31.4267 333.656 31.544C333.549 31.6613 333.496 31.8 333.496 31.96C333.496 32.184 333.57 32.3653 333.72 32.504C333.869 32.6427 334.061 32.7547 334.296 32.84C334.541 32.9147 334.781 32.9947 335.016 33.08C335.346 33.176 335.64 33.304 335.896 33.464C336.152 33.624 336.354 33.8213 336.504 34.056C336.664 34.2907 336.744 34.584 336.744 34.936C336.744 35.3307 336.648 35.6987 336.456 36.04C336.274 36.3707 335.992 36.6373 335.608 36.84C335.234 37.032 334.754 37.128 334.168 37.128ZM340.683 37.128C340.214 37.128 339.755 37.048 339.307 36.888C338.87 36.7173 338.507 36.4667 338.219 36.136L338.843 35.272C339.121 35.5387 339.403 35.7413 339.691 35.88C339.99 36.008 340.283 36.072 340.571 36.072C340.785 36.072 340.982 36.0453 341.163 35.992C341.345 35.9387 341.489 35.8533 341.595 35.736C341.713 35.608 341.771 35.4373 341.771 35.224C341.771 34.9893 341.691 34.8027 341.531 34.664C341.382 34.5253 341.185 34.4133 340.939 34.328C340.705 34.2427 340.454 34.1627 340.187 34.088C339.643 33.9067 339.227 33.656 338.939 33.336C338.651 33.016 338.507 32.6267 338.507 32.168C338.507 31.816 338.593 31.4907 338.763 31.192C338.945 30.8827 339.206 30.632 339.547 30.44C339.899 30.248 340.331 30.152 340.843 30.152C341.302 30.152 341.713 30.2107 342.075 30.328C342.438 30.4347 342.779 30.616 343.099 30.872L342.507 31.8C342.315 31.5973 342.086 31.448 341.819 31.352C341.553 31.256 341.313 31.2027 341.099 31.192C340.918 31.1813 340.742 31.208 340.571 31.272C340.411 31.336 340.278 31.4267 340.171 31.544C340.065 31.6613 340.011 31.8 340.011 31.96C340.011 32.184 340.086 32.3653 340.235 32.504C340.385 32.6427 340.577 32.7547 340.811 32.84C341.057 32.9147 341.297 32.9947 341.531 33.08C341.862 33.176 342.155 33.304 342.411 33.464C342.667 33.624 342.87 33.8213 343.019 34.056C343.179 34.2907 343.259 34.584 343.259 34.936C343.259 35.3307 343.163 35.6987 342.971 36.04C342.79 36.3707 342.507 36.6373 342.123 36.84C341.75 37.032 341.27 37.128 340.683 37.128ZM345.343 30.376H346.831V37H345.343V30.376ZM345.231 27.976C345.231 27.7413 345.322 27.544 345.503 27.384C345.695 27.224 345.903 27.144 346.127 27.144C346.351 27.144 346.548 27.224 346.719 27.384C346.9 27.544 346.991 27.7413 346.991 27.976C346.991 28.2213 346.9 28.424 346.719 28.584C346.548 28.7333 346.351 28.808 346.127 28.808C345.903 28.808 345.695 28.728 345.503 28.568C345.322 28.408 345.231 28.2107 345.231 27.976ZM352.589 40.28C352.099 40.28 351.667 40.2213 351.293 40.104C350.92 39.9973 350.579 39.8427 350.269 39.64C349.971 39.4373 349.683 39.208 349.405 38.952L350.269 37.944C350.621 38.2747 350.979 38.5307 351.341 38.712C351.704 38.8933 352.109 38.984 352.557 38.984C353.059 38.984 353.48 38.8987 353.821 38.728C354.173 38.568 354.44 38.3387 354.621 38.04C354.803 37.752 354.893 37.416 354.893 37.032L354.909 35.24L355.037 35.528C354.845 35.9867 354.499 36.376 353.997 36.696C353.496 37.0053 352.888 37.16 352.173 37.16C351.565 37.16 351.005 37.0053 350.493 36.696C349.992 36.3867 349.587 35.9707 349.277 35.448C348.979 34.9147 348.829 34.3173 348.829 33.656C348.829 32.9627 348.989 32.3547 349.309 31.832C349.629 31.2987 350.051 30.8773 350.573 30.568C351.096 30.2587 351.667 30.104 352.285 30.104C352.872 30.104 353.405 30.2267 353.885 30.472C354.376 30.7067 354.733 31.0107 354.957 31.384L354.877 31.656L355.037 30.376H356.397V37.048C356.397 37.6453 356.243 38.1893 355.933 38.68C355.624 39.1707 355.187 39.56 354.621 39.848C354.056 40.136 353.379 40.28 352.589 40.28ZM350.317 33.624C350.317 34.0507 350.419 34.44 350.621 34.792C350.824 35.144 351.096 35.4213 351.437 35.624C351.789 35.8267 352.179 35.928 352.605 35.928C353 35.928 353.352 35.8587 353.661 35.72C353.981 35.5707 354.248 35.3733 354.461 35.128C354.675 34.872 354.824 34.5787 354.909 34.248V32.936C354.813 32.616 354.653 32.3387 354.429 32.104C354.205 31.8587 353.939 31.672 353.629 31.544C353.32 31.4053 352.979 31.336 352.605 31.336C352.179 31.336 351.789 31.432 351.437 31.624C351.096 31.816 350.824 32.088 350.621 32.44C350.419 32.7813 350.317 33.176 350.317 33.624ZM360.296 30.376L360.424 31.992L360.36 31.736C360.573 31.2453 360.92 30.856 361.4 30.568C361.88 30.2693 362.435 30.12 363.064 30.12C363.693 30.12 364.205 30.3067 364.6 30.68C365.005 31.0427 365.213 31.5173 365.224 32.104V37H363.72V32.632C363.709 32.2693 363.603 31.976 363.4 31.752C363.208 31.5173 362.904 31.4 362.488 31.4C362.104 31.4 361.757 31.5067 361.448 31.72C361.139 31.9333 360.893 32.2267 360.712 32.6C360.541 32.9733 360.456 33.4053 360.456 33.896V37H358.968V30.376H360.296ZM369.668 37.128C369.198 37.128 368.74 37.048 368.292 36.888C367.854 36.7173 367.492 36.4667 367.204 36.136L367.828 35.272C368.105 35.5387 368.388 35.7413 368.676 35.88C368.974 36.008 369.268 36.072 369.556 36.072C369.769 36.072 369.966 36.0453 370.148 35.992C370.329 35.9387 370.473 35.8533 370.58 35.736C370.697 35.608 370.756 35.4373 370.756 35.224C370.756 34.9893 370.676 34.8027 370.516 34.664C370.366 34.5253 370.169 34.4133 369.924 34.328C369.689 34.2427 369.438 34.1627 369.172 34.088C368.628 33.9067 368.212 33.656 367.924 33.336C367.636 33.016 367.492 32.6267 367.492 32.168C367.492 31.816 367.577 31.4907 367.748 31.192C367.929 30.8827 368.19 30.632 368.532 30.44C368.884 30.248 369.316 30.152 369.828 30.152C370.286 30.152 370.697 30.2107 371.06 30.328C371.422 30.4347 371.764 30.616 372.084 30.872L371.492 31.8C371.3 31.5973 371.07 31.448 370.804 31.352C370.537 31.256 370.297 31.2027 370.084 31.192C369.902 31.1813 369.726 31.208 369.556 31.272C369.396 31.336 369.262 31.4267 369.156 31.544C369.049 31.6613 368.996 31.8 368.996 31.96C368.996 32.184 369.07 32.3653 369.22 32.504C369.369 32.6427 369.561 32.7547 369.796 32.84C370.041 32.9147 370.281 32.9947 370.516 33.08C370.846 33.176 371.14 33.304 371.396 33.464C371.652 33.624 371.854 33.8213 372.004 34.056C372.164 34.2907 372.244 34.584 372.244 34.936C372.244 35.3307 372.148 35.6987 371.956 36.04C371.774 36.3707 371.492 36.6373 371.108 36.84C370.734 37.032 370.254 37.128 369.668 37.128ZM380.03 27.464H381.518V30.408H383.342V31.576H381.518V37H380.03V31.576H378.814V30.408H380.03V27.464ZM385.14 37V24.616H386.596V31.912L386.564 31.64C386.788 31.2027 387.129 30.84 387.588 30.552C388.057 30.264 388.606 30.12 389.236 30.12C389.865 30.12 390.377 30.3067 390.772 30.68C391.177 31.0427 391.385 31.5173 391.396 32.104V37H389.892V32.632C389.881 32.2693 389.774 31.976 389.572 31.752C389.38 31.5173 389.076 31.4 388.66 31.4C388.276 31.4 387.929 31.512 387.62 31.736C387.31 31.9493 387.065 32.2427 386.884 32.616C386.713 32.9893 386.628 33.416 386.628 33.896V37H385.14ZM397.056 37.16C396.298 37.16 395.648 37.0107 395.104 36.712C394.56 36.4027 394.138 35.9867 393.84 35.464C393.552 34.9307 393.408 34.3227 393.408 33.64C393.408 32.9893 393.573 32.3973 393.904 31.864C394.234 31.3307 394.677 30.904 395.232 30.584C395.786 30.264 396.405 30.104 397.088 30.104C397.962 30.104 398.688 30.36 399.264 30.872C399.84 31.384 400.229 32.088 400.432 32.984L394.976 34.904L394.624 34.024L399.104 32.392L398.784 32.6C398.656 32.248 398.442 31.944 398.144 31.688C397.845 31.4213 397.456 31.288 396.976 31.288C396.57 31.288 396.208 31.3893 395.888 31.592C395.568 31.784 395.317 32.0507 395.136 32.392C394.954 32.7333 394.864 33.1227 394.864 33.56C394.864 34.0187 394.96 34.424 395.152 34.776C395.344 35.1173 395.605 35.3893 395.936 35.592C396.277 35.784 396.661 35.88 397.088 35.88C397.376 35.88 397.653 35.8267 397.92 35.72C398.197 35.6133 398.453 35.4747 398.688 35.304L399.376 36.408C399.045 36.632 398.672 36.8133 398.256 36.952C397.85 37.0907 397.45 37.16 397.056 37.16ZM409.215 37.128C408.745 37.128 408.287 37.048 407.839 36.888C407.401 36.7173 407.039 36.4667 406.751 36.136L407.375 35.272C407.652 35.5387 407.935 35.7413 408.223 35.88C408.521 36.008 408.815 36.072 409.103 36.072C409.316 36.072 409.513 36.0453 409.695 35.992C409.876 35.9387 410.02 35.8533 410.127 35.736C410.244 35.608 410.303 35.4373 410.303 35.224C410.303 34.9893 410.223 34.8027 410.062 34.664C409.913 34.5253 409.716 34.4133 409.471 34.328C409.236 34.2427 408.985 34.1627 408.719 34.088C408.175 33.9067 407.759 33.656 407.471 33.336C407.183 33.016 407.039 32.6267 407.039 32.168C407.039 31.816 407.124 31.4907 407.295 31.192C407.476 30.8827 407.737 30.632 408.079 30.44C408.431 30.248 408.863 30.152 409.375 30.152C409.833 30.152 410.244 30.2107 410.607 30.328C410.969 30.4347 411.311 30.616 411.631 30.872L411.039 31.8C410.847 31.5973 410.617 31.448 410.351 31.352C410.084 31.256 409.844 31.2027 409.631 31.192C409.449 31.1813 409.273 31.208 409.103 31.272C408.943 31.336 408.809 31.4267 408.703 31.544C408.596 31.6613 408.543 31.8 408.543 31.96C408.543 32.184 408.617 32.3653 408.767 32.504C408.916 32.6427 409.108 32.7547 409.343 32.84C409.588 32.9147 409.828 32.9947 410.062 33.08C410.393 33.176 410.687 33.304 410.943 33.464C411.199 33.624 411.401 33.8213 411.551 34.056C411.711 34.2907 411.791 34.584 411.791 34.936C411.791 35.3307 411.695 35.6987 411.503 36.04C411.321 36.3707 411.039 36.6373 410.655 36.84C410.281 37.032 409.801 37.128 409.215 37.128ZM417.778 37.16C417.277 37.16 416.791 37.0427 416.322 36.808C415.863 36.5733 415.506 36.2587 415.25 35.864L415.346 35.4V40.184H413.874V30.28H415.154L415.362 31.976L415.202 31.512C415.522 31.1067 415.927 30.7707 416.418 30.504C416.909 30.2373 417.458 30.104 418.066 30.104C418.685 30.104 419.239 30.2533 419.73 30.552C420.231 30.8507 420.626 31.2667 420.914 31.8C421.202 32.3333 421.346 32.9573 421.346 33.672C421.346 34.3867 421.191 35.0053 420.882 35.528C420.573 36.0507 420.146 36.456 419.602 36.744C419.069 37.0213 418.461 37.16 417.778 37.16ZM417.49 35.976C417.917 35.976 418.306 35.88 418.658 35.688C419.021 35.4853 419.309 35.2133 419.522 34.872C419.735 34.52 419.842 34.1253 419.842 33.688C419.842 33.24 419.741 32.8453 419.538 32.504C419.335 32.152 419.063 31.8747 418.722 31.672C418.391 31.4693 418.018 31.368 417.602 31.368C417.218 31.368 416.871 31.4427 416.562 31.592C416.253 31.7413 415.997 31.9493 415.794 32.216C415.591 32.472 415.447 32.7707 415.362 33.112V34.216C415.415 34.5573 415.543 34.8613 415.746 35.128C415.949 35.3947 416.199 35.6027 416.498 35.752C416.807 35.9013 417.138 35.976 417.49 35.976ZM426.431 37.16C425.673 37.16 425.023 37.0107 424.479 36.712C423.935 36.4027 423.513 35.9867 423.215 35.464C422.927 34.9307 422.783 34.3227 422.783 33.64C422.783 32.9893 422.948 32.3973 423.279 31.864C423.609 31.3307 424.052 30.904 424.607 30.584C425.161 30.264 425.78 30.104 426.463 30.104C427.337 30.104 428.063 30.36 428.639 30.872C429.215 31.384 429.604 32.088 429.807 32.984L424.351 34.904L423.999 34.024L428.479 32.392L428.159 32.6C428.031 32.248 427.817 31.944 427.519 31.688C427.22 31.4213 426.831 31.288 426.351 31.288C425.945 31.288 425.583 31.3893 425.263 31.592C424.943 31.784 424.692 32.0507 424.511 32.392C424.329 32.7333 424.239 33.1227 424.239 33.56C424.239 34.0187 424.335 34.424 424.527 34.776C424.719 35.1173 424.98 35.3893 425.311 35.592C425.652 35.784 426.036 35.88 426.463 35.88C426.751 35.88 427.028 35.8267 427.295 35.72C427.572 35.6133 427.828 35.4747 428.063 35.304L428.751 36.408C428.42 36.632 428.047 36.8133 427.631 36.952C427.225 37.0907 426.825 37.16 426.431 37.16ZM437.047 36.392C436.748 36.6267 436.391 36.8133 435.975 36.952C435.559 37.0907 435.143 37.16 434.727 37.16C434.002 37.16 433.367 37.016 432.823 36.728C432.279 36.44 431.852 36.04 431.543 35.528C431.244 35.0053 431.095 34.392 431.095 33.688C431.095 32.984 431.255 32.3707 431.575 31.848C431.906 31.3253 432.332 30.9253 432.855 30.648C433.388 30.36 433.959 30.216 434.567 30.216C435.1 30.216 435.575 30.2907 435.991 30.44C436.418 30.5893 436.78 30.792 437.079 31.048L436.343 32.008C436.151 31.8587 435.916 31.7253 435.639 31.608C435.362 31.4907 435.047 31.432 434.695 31.432C434.311 31.432 433.954 31.5333 433.623 31.736C433.303 31.928 433.047 32.1947 432.855 32.536C432.674 32.8773 432.583 33.2613 432.583 33.688C432.583 34.0933 432.679 34.472 432.871 34.824C433.063 35.1653 433.33 35.4373 433.671 35.64C434.012 35.832 434.402 35.928 434.839 35.928C435.127 35.928 435.388 35.8853 435.623 35.8C435.868 35.7147 436.087 35.5973 436.279 35.448L437.047 36.392ZM438.968 30.376H440.456V37H438.968V30.376ZM438.856 27.976C438.856 27.7413 438.947 27.544 439.128 27.384C439.32 27.224 439.528 27.144 439.752 27.144C439.976 27.144 440.173 27.224 440.344 27.384C440.525 27.544 440.616 27.7413 440.616 27.976C440.616 28.2213 440.525 28.424 440.344 28.584C440.173 28.7333 439.976 28.808 439.752 28.808C439.528 28.808 439.32 28.728 439.128 28.568C438.947 28.408 438.856 28.2107 438.856 27.976ZM445.782 37.16C445.164 37.16 444.598 37.0267 444.086 36.76C443.585 36.4933 443.185 36.104 442.886 35.592C442.598 35.0693 442.454 34.4347 442.454 33.688C442.454 32.952 442.609 32.3173 442.918 31.784C443.228 31.24 443.638 30.824 444.15 30.536C444.673 30.248 445.244 30.104 445.862 30.104C446.481 30.104 447.004 30.248 447.43 30.536C447.857 30.8133 448.182 31.144 448.406 31.528L448.31 31.784L448.454 30.376H449.83V37H448.342V35.272L448.502 35.656C448.46 35.7627 448.364 35.9013 448.214 36.072C448.076 36.232 447.884 36.3973 447.638 36.568C447.404 36.7387 447.132 36.8827 446.822 37C446.513 37.1067 446.166 37.16 445.782 37.16ZM446.182 35.928C446.556 35.928 446.892 35.8587 447.19 35.72C447.489 35.5813 447.734 35.3893 447.926 35.144C448.129 34.888 448.268 34.584 448.342 34.232V32.936C448.257 32.616 448.108 32.3387 447.894 32.104C447.681 31.8587 447.425 31.672 447.126 31.544C446.828 31.4053 446.497 31.336 446.134 31.336C445.74 31.336 445.377 31.432 445.046 31.624C444.716 31.816 444.449 32.0827 444.246 32.424C444.054 32.7653 443.958 33.1653 443.958 33.624C443.958 34.0507 444.06 34.44 444.262 34.792C444.465 35.144 444.737 35.4213 445.078 35.624C445.42 35.8267 445.788 35.928 446.182 35.928ZM452.405 24.616H453.893V37H452.405V24.616ZM464.186 37.16C463.6 37.16 463.061 37.016 462.57 36.728C462.08 36.44 461.685 36.04 461.386 35.528C461.098 35.0053 460.954 34.392 460.954 33.688C460.954 32.9627 461.109 32.3333 461.418 31.8C461.738 31.2667 462.16 30.8507 462.682 30.552C463.216 30.2533 463.797 30.104 464.426 30.104C465.024 30.104 465.552 30.2373 466.01 30.504C466.469 30.76 466.837 31.096 467.114 31.512L466.938 31.976V30.28H468.426V40.184H466.954V35.304L467.018 35.928C466.762 36.2907 466.384 36.5893 465.882 36.824C465.381 37.048 464.816 37.16 464.186 37.16ZM464.682 35.976C465.066 35.976 465.418 35.9013 465.738 35.752C466.058 35.6027 466.32 35.4 466.522 35.144C466.736 34.8773 466.874 34.5733 466.938 34.232V33.112C466.853 32.7707 466.709 32.472 466.506 32.216C466.304 31.9493 466.048 31.7413 465.738 31.592C465.429 31.4427 465.077 31.368 464.682 31.368C464.288 31.368 463.92 31.4693 463.578 31.672C463.237 31.8747 462.965 32.152 462.762 32.504C462.56 32.856 462.458 33.2507 462.458 33.688C462.458 34.1253 462.56 34.5147 462.762 34.856C462.965 35.1973 463.237 35.4693 463.578 35.672C463.92 35.8747 464.288 35.976 464.682 35.976ZM473.111 37.256C472.513 37.256 472.017 37.0747 471.623 36.712C471.239 36.3387 471.036 35.8587 471.015 35.272V30.376H472.503V34.744C472.524 35.1067 472.625 35.4 472.807 35.624C472.999 35.848 473.297 35.9653 473.703 35.976C474.076 35.976 474.407 35.8693 474.695 35.656C474.993 35.432 475.233 35.1333 475.415 34.76C475.596 34.376 475.687 33.944 475.687 33.464V30.376H477.175V37H475.815L475.687 35.368L475.767 35.656C475.639 35.9653 475.441 36.2427 475.175 36.488C474.919 36.7227 474.615 36.9093 474.263 37.048C473.911 37.1867 473.527 37.256 473.111 37.256ZM482.821 37.16C482.064 37.16 481.413 37.0107 480.869 36.712C480.325 36.4027 479.904 35.9867 479.605 35.464C479.317 34.9307 479.173 34.3227 479.173 33.64C479.173 32.9893 479.338 32.3973 479.669 31.864C480 31.3307 480.442 30.904 480.997 30.584C481.552 30.264 482.17 30.104 482.853 30.104C483.728 30.104 484.453 30.36 485.029 30.872C485.605 31.384 485.994 32.088 486.197 32.984L480.741 34.904L480.389 34.024L484.869 32.392L484.549 32.6C484.421 32.248 484.208 31.944 483.909 31.688C483.61 31.4213 483.221 31.288 482.741 31.288C482.336 31.288 481.973 31.3893 481.653 31.592C481.333 31.784 481.082 32.0507 480.901 32.392C480.72 32.7333 480.629 33.1227 480.629 33.56C480.629 34.0187 480.725 34.424 480.917 34.776C481.109 35.1173 481.37 35.3893 481.701 35.592C482.042 35.784 482.426 35.88 482.853 35.88C483.141 35.88 483.418 35.8267 483.685 35.72C483.962 35.6133 484.218 35.4747 484.453 35.304L485.141 36.408C484.81 36.632 484.437 36.8133 484.021 36.952C483.616 37.0907 483.216 37.16 482.821 37.16ZM489.918 37.128C489.448 37.128 488.99 37.048 488.542 36.888C488.104 36.7173 487.742 36.4667 487.454 36.136L488.078 35.272C488.355 35.5387 488.638 35.7413 488.926 35.88C489.224 36.008 489.518 36.072 489.806 36.072C490.019 36.072 490.216 36.0453 490.398 35.992C490.579 35.9387 490.723 35.8533 490.83 35.736C490.947 35.608 491.006 35.4373 491.006 35.224C491.006 34.9893 490.926 34.8027 490.766 34.664C490.616 34.5253 490.419 34.4133 490.174 34.328C489.939 34.2427 489.688 34.1627 489.422 34.088C488.878 33.9067 488.462 33.656 488.174 33.336C487.886 33.016 487.742 32.6267 487.742 32.168C487.742 31.816 487.827 31.4907 487.998 31.192C488.179 30.8827 488.44 30.632 488.782 30.44C489.134 30.248 489.566 30.152 490.078 30.152C490.536 30.152 490.947 30.2107 491.31 30.328C491.672 30.4347 492.014 30.616 492.334 30.872L491.742 31.8C491.55 31.5973 491.32 31.448 491.054 31.352C490.787 31.256 490.547 31.2027 490.334 31.192C490.152 31.1813 489.976 31.208 489.806 31.272C489.646 31.336 489.512 31.4267 489.406 31.544C489.299 31.6613 489.246 31.8 489.246 31.96C489.246 32.184 489.32 32.3653 489.47 32.504C489.619 32.6427 489.811 32.7547 490.046 32.84C490.291 32.9147 490.531 32.9947 490.766 33.08C491.096 33.176 491.39 33.304 491.646 33.464C491.902 33.624 492.104 33.8213 492.254 34.056C492.414 34.2907 492.494 34.584 492.494 34.936C492.494 35.3307 492.398 35.6987 492.206 36.04C492.024 36.3707 491.742 36.6373 491.358 36.84C490.984 37.032 490.504 37.128 489.918 37.128ZM495.217 27.464H496.705V30.408H498.529V31.576H496.705V37H495.217V31.576H494.001V30.408H495.217V27.464ZM506.03 27.464H507.518V30.408H509.342V31.576H507.518V37H506.03V31.576H504.814V30.408H506.03V27.464ZM510.564 33.624C510.564 32.9627 510.718 32.3653 511.028 31.832C511.348 31.2987 511.785 30.8773 512.34 30.568C512.894 30.2587 513.524 30.104 514.228 30.104C514.953 30.104 515.588 30.2587 516.132 30.568C516.676 30.8773 517.097 31.2987 517.396 31.832C517.694 32.3653 517.844 32.9627 517.844 33.624C517.844 34.2853 517.694 34.888 517.396 35.432C517.097 35.9653 516.67 36.3867 516.116 36.696C515.572 37.0053 514.937 37.16 514.212 37.16C513.508 37.16 512.878 37.016 512.324 36.728C511.78 36.4293 511.348 36.0187 511.028 35.496C510.718 34.9627 510.564 34.3387 510.564 33.624ZM512.052 33.64C512.052 34.0667 512.148 34.456 512.34 34.808C512.532 35.1493 512.788 35.4213 513.108 35.624C513.438 35.8267 513.801 35.928 514.196 35.928C514.612 35.928 514.98 35.8267 515.3 35.624C515.63 35.4213 515.886 35.1493 516.068 34.808C516.249 34.456 516.34 34.0667 516.34 33.64C516.34 33.2133 516.249 32.8293 516.068 32.488C515.886 32.136 515.63 31.8587 515.3 31.656C514.98 31.4427 514.612 31.336 514.196 31.336C513.79 31.336 513.422 31.4427 513.092 31.656C512.772 31.8693 512.516 32.152 512.324 32.504C512.142 32.8453 512.052 33.224 512.052 33.64ZM101.7 53.16C101.199 53.16 100.713 53.0427 100.244 52.808C99.7853 52.5733 99.428 52.2587 99.172 51.864L99.268 51.4V56.184H97.796V46.28H99.076L99.284 47.976L99.124 47.512C99.444 47.1067 99.8493 46.7707 100.34 46.504C100.831 46.2373 101.38 46.104 101.988 46.104C102.607 46.104 103.161 46.2533 103.652 46.552C104.153 46.8507 104.548 47.2667 104.836 47.8C105.124 48.3333 105.268 48.9573 105.268 49.672C105.268 50.3867 105.113 51.0053 104.804 51.528C104.495 52.0507 104.068 52.456 103.524 52.744C102.991 53.0213 102.383 53.16 101.7 53.16ZM101.412 51.976C101.839 51.976 102.228 51.88 102.58 51.688C102.943 51.4853 103.231 51.2133 103.444 50.872C103.657 50.52 103.764 50.1253 103.764 49.688C103.764 49.24 103.663 48.8453 103.46 48.504C103.257 48.152 102.985 47.8747 102.644 47.672C102.313 47.4693 101.94 47.368 101.524 47.368C101.14 47.368 100.793 47.4427 100.484 47.592C100.175 47.7413 99.9187 47.9493 99.716 48.216C99.5133 48.472 99.3693 48.7707 99.284 49.112V50.216C99.3373 50.5573 99.4653 50.8613 99.668 51.128C99.8707 51.3947 100.121 51.6027 100.42 51.752C100.729 51.9013 101.06 51.976 101.412 51.976ZM107.28 40.616H108.768V53H107.28V40.616ZM114.095 53.16C113.476 53.16 112.911 53.0267 112.399 52.76C111.898 52.4933 111.498 52.104 111.199 51.592C110.911 51.0693 110.767 50.4347 110.767 49.688C110.767 48.952 110.922 48.3173 111.231 47.784C111.54 47.24 111.951 46.824 112.463 46.536C112.986 46.248 113.556 46.104 114.175 46.104C114.794 46.104 115.316 46.248 115.743 46.536C116.17 46.8133 116.495 47.144 116.719 47.528L116.623 47.784L116.767 46.376H118.143V53H116.655V51.272L116.815 51.656C116.772 51.7627 116.676 51.9013 116.527 52.072C116.388 52.232 116.196 52.3973 115.951 52.568C115.716 52.7387 115.444 52.8827 115.135 53C114.826 53.1067 114.479 53.16 114.095 53.16ZM114.495 51.928C114.868 51.928 115.204 51.8587 115.503 51.72C115.802 51.5813 116.047 51.3893 116.239 51.144C116.442 50.888 116.58 50.584 116.655 50.232V48.936C116.57 48.616 116.42 48.3387 116.207 48.104C115.994 47.8587 115.738 47.672 115.439 47.544C115.14 47.4053 114.81 47.336 114.447 47.336C114.052 47.336 113.69 47.432 113.359 47.624C113.028 47.816 112.762 48.0827 112.559 48.424C112.367 48.7653 112.271 49.1653 112.271 49.624C112.271 50.0507 112.372 50.44 112.575 50.792C112.778 51.144 113.05 51.4213 113.391 51.624C113.732 51.8267 114.1 51.928 114.495 51.928ZM121.278 56.184L125.646 46.376H127.022L122.75 56.184H121.278ZM122.91 53.048L119.726 46.376H121.406L124.078 52.296L122.91 53.048ZM131.54 53.16C130.783 53.16 130.132 53.0107 129.588 52.712C129.044 52.4027 128.623 51.9867 128.324 51.464C128.036 50.9307 127.892 50.3227 127.892 49.64C127.892 48.9893 128.057 48.3973 128.388 47.864C128.719 47.3307 129.161 46.904 129.716 46.584C130.271 46.264 130.889 46.104 131.572 46.104C132.447 46.104 133.172 46.36 133.748 46.872C134.324 47.384 134.713 48.088 134.916 48.984L129.46 50.904L129.108 50.024L133.588 48.392L133.268 48.6C133.14 48.248 132.927 47.944 132.628 47.688C132.329 47.4213 131.94 47.288 131.46 47.288C131.055 47.288 130.692 47.3893 130.372 47.592C130.052 47.784 129.801 48.0507 129.62 48.392C129.439 48.7333 129.348 49.1227 129.348 49.56C129.348 50.0187 129.444 50.424 129.636 50.776C129.828 51.1173 130.089 51.3893 130.42 51.592C130.761 51.784 131.145 51.88 131.572 51.88C131.86 51.88 132.137 51.8267 132.404 51.72C132.681 51.6133 132.937 51.4747 133.172 51.304L133.86 52.408C133.529 52.632 133.156 52.8133 132.74 52.952C132.335 53.0907 131.935 53.16 131.54 53.16ZM138.108 46.376L138.252 48.296L138.172 48.04C138.343 47.6347 138.588 47.2933 138.908 47.016C139.239 46.728 139.58 46.5093 139.932 46.36C140.295 46.2 140.61 46.12 140.876 46.12L140.796 47.592C140.295 47.56 139.852 47.656 139.468 47.88C139.095 48.104 138.796 48.4027 138.572 48.776C138.359 49.1493 138.252 49.5493 138.252 49.976V53H136.78V46.376H138.108ZM144.652 53.128C144.183 53.128 143.724 53.048 143.276 52.888C142.839 52.7173 142.476 52.4667 142.188 52.136L142.812 51.272C143.089 51.5387 143.372 51.7413 143.66 51.88C143.959 52.008 144.252 52.072 144.54 52.072C144.753 52.072 144.951 52.0453 145.132 51.992C145.313 51.9387 145.457 51.8533 145.564 51.736C145.681 51.608 145.74 51.4373 145.74 51.224C145.74 50.9893 145.66 50.8027 145.5 50.664C145.351 50.5253 145.153 50.4133 144.908 50.328C144.673 50.2427 144.423 50.1627 144.156 50.088C143.612 49.9067 143.196 49.656 142.908 49.336C142.62 49.016 142.476 48.6267 142.476 48.168C142.476 47.816 142.561 47.4907 142.732 47.192C142.913 46.8827 143.175 46.632 143.516 46.44C143.868 46.248 144.3 46.152 144.812 46.152C145.271 46.152 145.681 46.2107 146.044 46.328C146.407 46.4347 146.748 46.616 147.068 46.872L146.476 47.8C146.284 47.5973 146.055 47.448 145.788 47.352C145.521 47.256 145.281 47.2027 145.068 47.192C144.887 47.1813 144.711 47.208 144.54 47.272C144.38 47.336 144.247 47.4267 144.14 47.544C144.033 47.6613 143.98 47.8 143.98 47.96C143.98 48.184 144.055 48.3653 144.204 48.504C144.353 48.6427 144.545 48.7547 144.78 48.84C145.025 48.9147 145.265 48.9947 145.5 49.08C145.831 49.176 146.124 49.304 146.38 49.464C146.636 49.624 146.839 49.8213 146.988 50.056C147.148 50.2907 147.228 50.584 147.228 50.936C147.228 51.3307 147.132 51.6987 146.94 52.04C146.759 52.3707 146.476 52.6373 146.092 52.84C145.719 53.032 145.239 53.128 144.652 53.128ZM148.56 52.152C148.56 51.9173 148.645 51.72 148.816 51.56C148.997 51.3893 149.194 51.304 149.408 51.304C149.6 51.304 149.781 51.3893 149.952 51.56C150.133 51.72 150.224 51.9173 150.224 52.152C150.224 52.408 150.133 52.616 149.952 52.776C149.781 52.9253 149.6 53 149.408 53C149.194 53 148.997 52.9253 148.816 52.776C148.645 52.616 148.56 52.408 148.56 52.152ZM160.518 41.432C161.36 41.432 162.08 41.576 162.678 41.864C163.275 42.1413 163.734 42.5467 164.054 43.08C164.384 43.6133 164.55 44.2587 164.55 45.016C164.55 45.4747 164.48 45.928 164.342 46.376C164.203 46.8133 163.979 47.2133 163.67 47.576C163.371 47.928 162.976 48.2107 162.486 48.424C161.995 48.6373 161.398 48.744 160.694 48.744H158.982V53H157.43V41.432H160.518ZM160.678 47.256C161.136 47.256 161.515 47.1813 161.814 47.032C162.112 46.8827 162.347 46.696 162.518 46.472C162.688 46.2373 162.811 45.992 162.886 45.736C162.96 45.48 162.998 45.2507 162.998 45.048C162.998 44.8133 162.96 44.5733 162.886 44.328C162.811 44.072 162.683 43.8427 162.502 43.64C162.331 43.4267 162.102 43.256 161.814 43.128C161.536 42.9893 161.19 42.92 160.774 42.92H158.982V47.256H160.678ZM166.577 40.616H168.065V53H166.577V40.616ZM173.392 53.16C172.773 53.16 172.208 53.0267 171.696 52.76C171.194 52.4933 170.794 52.104 170.496 51.592C170.208 51.0693 170.064 50.4347 170.064 49.688C170.064 48.952 170.218 48.3173 170.528 47.784C170.837 47.24 171.248 46.824 171.76 46.536C172.282 46.248 172.853 46.104 173.472 46.104C174.09 46.104 174.613 46.248 175.04 46.536C175.466 46.8133 175.792 47.144 176.016 47.528L175.92 47.784L176.064 46.376H177.44V53H175.952V51.272L176.112 51.656C176.069 51.7627 175.973 51.9013 175.824 52.072C175.685 52.232 175.493 52.3973 175.248 52.568C175.013 52.7387 174.741 52.8827 174.432 53C174.122 53.1067 173.776 53.16 173.392 53.16ZM173.792 51.928C174.165 51.928 174.501 51.8587 174.8 51.72C175.098 51.5813 175.344 51.3893 175.536 51.144C175.738 50.888 175.877 50.584 175.952 50.232V48.936C175.866 48.616 175.717 48.3387 175.504 48.104C175.29 47.8587 175.034 47.672 174.736 47.544C174.437 47.4053 174.106 47.336 173.744 47.336C173.349 47.336 172.986 47.432 172.656 47.624C172.325 47.816 172.058 48.0827 171.856 48.424C171.664 48.7653 171.568 49.1653 171.568 49.624C171.568 50.0507 171.669 50.44 171.872 50.792C172.074 51.144 172.346 51.4213 172.688 51.624C173.029 51.8267 173.397 51.928 173.792 51.928ZM180.575 56.184L184.943 46.376H186.319L182.047 56.184H180.575ZM182.207 53.048L179.023 46.376H180.703L183.375 52.296L182.207 53.048ZM190.837 53.16C190.079 53.16 189.429 53.0107 188.885 52.712C188.341 52.4027 187.919 51.9867 187.621 51.464C187.333 50.9307 187.189 50.3227 187.189 49.64C187.189 48.9893 187.354 48.3973 187.685 47.864C188.015 47.3307 188.458 46.904 189.013 46.584C189.567 46.264 190.186 46.104 190.869 46.104C191.743 46.104 192.469 46.36 193.045 46.872C193.621 47.384 194.01 48.088 194.213 48.984L188.757 50.904L188.405 50.024L192.885 48.392L192.565 48.6C192.437 48.248 192.223 47.944 191.925 47.688C191.626 47.4213 191.237 47.288 190.757 47.288C190.351 47.288 189.989 47.3893 189.669 47.592C189.349 47.784 189.098 48.0507 188.917 48.392C188.735 48.7333 188.645 49.1227 188.645 49.56C188.645 50.0187 188.741 50.424 188.933 50.776C189.125 51.1173 189.386 51.3893 189.717 51.592C190.058 51.784 190.442 51.88 190.869 51.88C191.157 51.88 191.434 51.8267 191.701 51.72C191.978 51.6133 192.234 51.4747 192.469 51.304L193.157 52.408C192.826 52.632 192.453 52.8133 192.037 52.952C191.631 53.0907 191.231 53.16 190.837 53.16ZM197.405 46.376L197.549 48.296L197.469 48.04C197.64 47.6347 197.885 47.2933 198.205 47.016C198.536 46.728 198.877 46.5093 199.229 46.36C199.592 46.2 199.907 46.12 200.173 46.12L200.093 47.592C199.592 47.56 199.149 47.656 198.765 47.88C198.392 48.104 198.093 48.4027 197.869 48.776C197.656 49.1493 197.549 49.5493 197.549 49.976V53H196.077V46.376H197.405ZM203.949 53.128C203.48 53.128 203.021 53.048 202.573 52.888C202.136 52.7173 201.773 52.4667 201.485 52.136L202.109 51.272C202.386 51.5387 202.669 51.7413 202.957 51.88C203.256 52.008 203.549 52.072 203.837 52.072C204.05 52.072 204.248 52.0453 204.429 51.992C204.61 51.9387 204.754 51.8533 204.861 51.736C204.978 51.608 205.037 51.4373 205.037 51.224C205.037 50.9893 204.957 50.8027 204.797 50.664C204.648 50.5253 204.45 50.4133 204.205 50.328C203.97 50.2427 203.72 50.1627 203.453 50.088C202.909 49.9067 202.493 49.656 202.205 49.336C201.917 49.016 201.773 48.6267 201.773 48.168C201.773 47.816 201.858 47.4907 202.029 47.192C202.21 46.8827 202.472 46.632 202.813 46.44C203.165 46.248 203.597 46.152 204.109 46.152C204.568 46.152 204.978 46.2107 205.341 46.328C205.704 46.4347 206.045 46.616 206.365 46.872L205.773 47.8C205.581 47.5973 205.352 47.448 205.085 47.352C204.818 47.256 204.578 47.2027 204.365 47.192C204.184 47.1813 204.008 47.208 203.837 47.272C203.677 47.336 203.544 47.4267 203.437 47.544C203.33 47.6613 203.277 47.8 203.277 47.96C203.277 48.184 203.352 48.3653 203.501 48.504C203.65 48.6427 203.842 48.7547 204.077 48.84C204.322 48.9147 204.562 48.9947 204.797 49.08C205.128 49.176 205.421 49.304 205.677 49.464C205.933 49.624 206.136 49.8213 206.285 50.056C206.445 50.2907 206.525 50.584 206.525 50.936C206.525 51.3307 206.429 51.6987 206.237 52.04C206.056 52.3707 205.773 52.6373 205.389 52.84C205.016 53.032 204.536 53.128 203.949 53.128ZM219.047 52.392C218.748 52.6267 218.391 52.8133 217.975 52.952C217.559 53.0907 217.143 53.16 216.727 53.16C216.002 53.16 215.367 53.016 214.823 52.728C214.279 52.44 213.852 52.04 213.543 51.528C213.244 51.0053 213.095 50.392 213.095 49.688C213.095 48.984 213.255 48.3707 213.575 47.848C213.906 47.3253 214.332 46.9253 214.855 46.648C215.388 46.36 215.959 46.216 216.567 46.216C217.1 46.216 217.575 46.2907 217.991 46.44C218.418 46.5893 218.78 46.792 219.079 47.048L218.343 48.008C218.151 47.8587 217.916 47.7253 217.639 47.608C217.362 47.4907 217.047 47.432 216.695 47.432C216.311 47.432 215.954 47.5333 215.623 47.736C215.303 47.928 215.047 48.1947 214.855 48.536C214.674 48.8773 214.583 49.2613 214.583 49.688C214.583 50.0933 214.679 50.472 214.871 50.824C215.063 51.1653 215.33 51.4373 215.671 51.64C216.012 51.832 216.402 51.928 216.839 51.928C217.127 51.928 217.388 51.8853 217.623 51.8C217.868 51.7147 218.087 51.5973 218.279 51.448L219.047 52.392ZM223.72 53.16C223.101 53.16 222.536 53.0267 222.024 52.76C221.523 52.4933 221.123 52.104 220.824 51.592C220.536 51.0693 220.392 50.4347 220.392 49.688C220.392 48.952 220.547 48.3173 220.856 47.784C221.165 47.24 221.576 46.824 222.088 46.536C222.611 46.248 223.181 46.104 223.8 46.104C224.419 46.104 224.941 46.248 225.368 46.536C225.795 46.8133 226.12 47.144 226.344 47.528L226.248 47.784L226.392 46.376H227.768V53H226.28V51.272L226.44 51.656C226.397 51.7627 226.301 51.9013 226.152 52.072C226.013 52.232 225.821 52.3973 225.576 52.568C225.341 52.7387 225.069 52.8827 224.76 53C224.451 53.1067 224.104 53.16 223.72 53.16ZM224.12 51.928C224.493 51.928 224.829 51.8587 225.128 51.72C225.427 51.5813 225.672 51.3893 225.864 51.144C226.067 50.888 226.205 50.584 226.28 50.232V48.936C226.195 48.616 226.045 48.3387 225.832 48.104C225.619 47.8587 225.363 47.672 225.064 47.544C224.765 47.4053 224.435 47.336 224.072 47.336C223.677 47.336 223.315 47.432 222.984 47.624C222.653 47.816 222.387 48.0827 222.184 48.424C221.992 48.7653 221.896 49.1653 221.896 49.624C221.896 50.0507 221.997 50.44 222.2 50.792C222.403 51.144 222.675 51.4213 223.016 51.624C223.357 51.8267 223.725 51.928 224.12 51.928ZM231.671 46.376L231.799 47.992L231.735 47.736C231.948 47.2453 232.295 46.856 232.775 46.568C233.255 46.2693 233.81 46.12 234.439 46.12C235.068 46.12 235.58 46.3067 235.975 46.68C236.38 47.0427 236.588 47.5173 236.599 48.104V53H235.095V48.632C235.084 48.2693 234.978 47.976 234.775 47.752C234.583 47.5173 234.279 47.4 233.863 47.4C233.479 47.4 233.132 47.5067 232.823 47.72C232.514 47.9333 232.268 48.2267 232.087 48.6C231.916 48.9733 231.831 49.4053 231.831 49.896V53H230.343V46.376H231.671ZM247.001 53.16C246.382 53.16 245.817 53.0267 245.305 52.76C244.804 52.4933 244.404 52.104 244.105 51.592C243.817 51.0693 243.673 50.4347 243.673 49.688C243.673 48.952 243.828 48.3173 244.137 47.784C244.446 47.24 244.857 46.824 245.369 46.536C245.892 46.248 246.462 46.104 247.081 46.104C247.7 46.104 248.222 46.248 248.649 46.536C249.076 46.8133 249.401 47.144 249.625 47.528L249.529 47.784L249.673 46.376H251.049V53H249.561V51.272L249.721 51.656C249.678 51.7627 249.582 51.9013 249.433 52.072C249.294 52.232 249.102 52.3973 248.857 52.568C248.622 52.7387 248.35 52.8827 248.041 53C247.732 53.1067 247.385 53.16 247.001 53.16ZM247.401 51.928C247.774 51.928 248.11 51.8587 248.409 51.72C248.708 51.5813 248.953 51.3893 249.145 51.144C249.348 50.888 249.486 50.584 249.561 50.232V48.936C249.476 48.616 249.326 48.3387 249.113 48.104C248.9 47.8587 248.644 47.672 248.345 47.544C248.046 47.4053 247.716 47.336 247.353 47.336C246.958 47.336 246.596 47.432 246.265 47.624C245.934 47.816 245.668 48.0827 245.465 48.424C245.273 48.7653 245.177 49.1653 245.177 49.624C245.177 50.0507 245.278 50.44 245.481 50.792C245.684 51.144 245.956 51.4213 246.297 51.624C246.638 51.8267 247.006 51.928 247.401 51.928ZM259 52.392C258.701 52.6267 258.344 52.8133 257.928 52.952C257.512 53.0907 257.096 53.16 256.68 53.16C255.955 53.16 255.32 53.016 254.776 52.728C254.232 52.44 253.805 52.04 253.496 51.528C253.197 51.0053 253.048 50.392 253.048 49.688C253.048 48.984 253.208 48.3707 253.528 47.848C253.859 47.3253 254.285 46.9253 254.808 46.648C255.341 46.36 255.912 46.216 256.52 46.216C257.053 46.216 257.528 46.2907 257.944 46.44C258.371 46.5893 258.733 46.792 259.032 47.048L258.296 48.008C258.104 47.8587 257.869 47.7253 257.592 47.608C257.315 47.4907 257 47.432 256.648 47.432C256.264 47.432 255.907 47.5333 255.576 47.736C255.256 47.928 255 48.1947 254.808 48.536C254.627 48.8773 254.536 49.2613 254.536 49.688C254.536 50.0933 254.632 50.472 254.824 50.824C255.016 51.1653 255.283 51.4373 255.624 51.64C255.965 51.832 256.355 51.928 256.792 51.928C257.08 51.928 257.341 51.8853 257.576 51.8C257.821 51.7147 258.04 51.5973 258.232 51.448L259 52.392ZM263.577 53.16C262.99 53.16 262.452 53.016 261.961 52.728C261.47 52.44 261.076 52.04 260.777 51.528C260.489 51.0053 260.345 50.392 260.345 49.688C260.345 48.9627 260.5 48.3333 260.809 47.8C261.129 47.2667 261.55 46.8507 262.073 46.552C262.606 46.2533 263.188 46.104 263.817 46.104C264.414 46.104 264.942 46.2373 265.401 46.504C265.86 46.76 266.228 47.096 266.505 47.512L266.329 47.976V46.28H267.817V56.184H266.345V51.304L266.409 51.928C266.153 52.2907 265.774 52.5893 265.273 52.824C264.772 53.048 264.206 53.16 263.577 53.16ZM264.073 51.976C264.457 51.976 264.809 51.9013 265.129 51.752C265.449 51.6027 265.71 51.4 265.913 51.144C266.126 50.8773 266.265 50.5733 266.329 50.232V49.112C266.244 48.7707 266.1 48.472 265.897 48.216C265.694 47.9493 265.438 47.7413 265.129 47.592C264.82 47.4427 264.468 47.368 264.073 47.368C263.678 47.368 263.31 47.4693 262.969 47.672C262.628 47.8747 262.356 48.152 262.153 48.504C261.95 48.856 261.849 49.2507 261.849 49.688C261.849 50.1253 261.95 50.5147 262.153 50.856C262.356 51.1973 262.628 51.4693 262.969 51.672C263.31 51.8747 263.678 51.976 264.073 51.976ZM272.501 53.256C271.904 53.256 271.408 53.0747 271.013 52.712C270.629 52.3387 270.427 51.8587 270.405 51.272V46.376H271.893V50.744C271.915 51.1067 272.016 51.4 272.197 51.624C272.389 51.848 272.688 51.9653 273.093 51.976C273.467 51.976 273.797 51.8693 274.085 51.656C274.384 51.432 274.624 51.1333 274.805 50.76C274.987 50.376 275.077 49.944 275.077 49.464V46.376H276.565V53H275.205L275.077 51.368L275.157 51.656C275.029 51.9653 274.832 52.2427 274.565 52.488C274.309 52.7227 274.005 52.9093 273.653 53.048C273.301 53.1867 272.917 53.256 272.501 53.256ZM279.14 46.376H280.628V53H279.14V46.376ZM279.028 43.976C279.028 43.7413 279.118 43.544 279.3 43.384C279.492 43.224 279.7 43.144 279.924 43.144C280.148 43.144 280.345 43.224 280.516 43.384C280.697 43.544 280.788 43.7413 280.788 43.976C280.788 44.2213 280.697 44.424 280.516 44.584C280.345 44.7333 280.148 44.808 279.924 44.808C279.7 44.808 279.492 44.728 279.3 44.568C279.118 44.408 279.028 44.2107 279.028 43.976ZM284.53 46.376L284.674 48.296L284.594 48.04C284.765 47.6347 285.01 47.2933 285.33 47.016C285.661 46.728 286.002 46.5093 286.354 46.36C286.717 46.2 287.032 46.12 287.298 46.12L287.218 47.592C286.717 47.56 286.274 47.656 285.89 47.88C285.517 48.104 285.218 48.4027 284.994 48.776C284.781 49.1493 284.674 49.5493 284.674 49.976V53H283.202V46.376H284.53ZM292.009 53.16C291.251 53.16 290.601 53.0107 290.057 52.712C289.513 52.4027 289.091 51.9867 288.793 51.464C288.505 50.9307 288.361 50.3227 288.361 49.64C288.361 48.9893 288.526 48.3973 288.857 47.864C289.187 47.3307 289.63 46.904 290.185 46.584C290.739 46.264 291.358 46.104 292.041 46.104C292.915 46.104 293.641 46.36 294.217 46.872C294.793 47.384 295.182 48.088 295.385 48.984L289.929 50.904L289.577 50.024L294.057 48.392L293.737 48.6C293.609 48.248 293.395 47.944 293.097 47.688C292.798 47.4213 292.409 47.288 291.929 47.288C291.523 47.288 291.161 47.3893 290.841 47.592C290.521 47.784 290.27 48.0507 290.089 48.392C289.907 48.7333 289.817 49.1227 289.817 49.56C289.817 50.0187 289.913 50.424 290.105 50.776C290.297 51.1173 290.558 51.3893 290.889 51.592C291.23 51.784 291.614 51.88 292.041 51.88C292.329 51.88 292.606 51.8267 292.873 51.72C293.15 51.6133 293.406 51.4747 293.641 51.304L294.329 52.408C293.998 52.632 293.625 52.8133 293.209 52.952C292.803 53.0907 292.403 53.16 292.009 53.16ZM302.68 41.432H310.2V42.92H304.232V46.44H309.56V47.928H304.232V51.512H310.424V53H302.68V41.432ZM315.437 53.192L311.757 46.376H313.517L316.013 51.64L315.101 51.608L317.389 46.376H319.053L315.517 53.192H315.437ZM323.571 53.16C322.814 53.16 322.163 53.0107 321.619 52.712C321.075 52.4027 320.654 51.9867 320.355 51.464C320.067 50.9307 319.923 50.3227 319.923 49.64C319.923 48.9893 320.088 48.3973 320.419 47.864C320.75 47.3307 321.192 46.904 321.747 46.584C322.302 46.264 322.92 46.104 323.603 46.104C324.478 46.104 325.203 46.36 325.779 46.872C326.355 47.384 326.744 48.088 326.947 48.984L321.491 50.904L321.139 50.024L325.619 48.392L325.299 48.6C325.171 48.248 324.958 47.944 324.659 47.688C324.36 47.4213 323.971 47.288 323.491 47.288C323.086 47.288 322.723 47.3893 322.403 47.592C322.083 47.784 321.832 48.0507 321.651 48.392C321.47 48.7333 321.379 49.1227 321.379 49.56C321.379 50.0187 321.475 50.424 321.667 50.776C321.859 51.1173 322.12 51.3893 322.451 51.592C322.792 51.784 323.176 51.88 323.603 51.88C323.891 51.88 324.168 51.8267 324.435 51.72C324.712 51.6133 324.968 51.4747 325.203 51.304L325.891 52.408C325.56 52.632 325.187 52.8133 324.771 52.952C324.366 53.0907 323.966 53.16 323.571 53.16ZM330.14 46.376L330.284 48.296L330.204 48.04C330.374 47.6347 330.62 47.2933 330.94 47.016C331.27 46.728 331.612 46.5093 331.964 46.36C332.326 46.2 332.641 46.12 332.908 46.12L332.828 47.592C332.326 47.56 331.884 47.656 331.5 47.88C331.126 48.104 330.828 48.4027 330.604 48.776C330.39 49.1493 330.284 49.5493 330.284 49.976V53H328.812V46.376H330.14ZM338.731 53.16C338.23 53.16 337.745 53.0427 337.275 52.808C336.817 52.5733 336.459 52.2587 336.203 51.864L336.299 51.4V56.184H334.827V46.28H336.107L336.315 47.976L336.155 47.512C336.475 47.1067 336.881 46.7707 337.371 46.504C337.862 46.2373 338.411 46.104 339.019 46.104C339.638 46.104 340.193 46.2533 340.683 46.552C341.185 46.8507 341.579 47.2667 341.867 47.8C342.155 48.3333 342.299 48.9573 342.299 49.672C342.299 50.3867 342.145 51.0053 341.835 51.528C341.526 52.0507 341.099 52.456 340.555 52.744C340.022 53.0213 339.414 53.16 338.731 53.16ZM338.443 51.976C338.87 51.976 339.259 51.88 339.611 51.688C339.974 51.4853 340.262 51.2133 340.475 50.872C340.689 50.52 340.795 50.1253 340.795 49.688C340.795 49.24 340.694 48.8453 340.491 48.504C340.289 48.152 340.017 47.8747 339.675 47.672C339.345 47.4693 338.971 47.368 338.555 47.368C338.171 47.368 337.825 47.4427 337.515 47.592C337.206 47.7413 336.95 47.9493 336.747 48.216C336.545 48.472 336.401 48.7707 336.315 49.112V50.216C336.369 50.5573 336.497 50.8613 336.699 51.128C336.902 51.3947 337.153 51.6027 337.451 51.752C337.761 51.9013 338.091 51.976 338.443 51.976ZM347.064 53.16C346.445 53.16 345.88 53.0267 345.368 52.76C344.866 52.4933 344.466 52.104 344.168 51.592C343.88 51.0693 343.736 50.4347 343.736 49.688C343.736 48.952 343.89 48.3173 344.2 47.784C344.509 47.24 344.92 46.824 345.432 46.536C345.954 46.248 346.525 46.104 347.144 46.104C347.762 46.104 348.285 46.248 348.712 46.536C349.138 46.8133 349.464 47.144 349.688 47.528L349.592 47.784L349.736 46.376H351.112V53H349.624V51.272L349.784 51.656C349.741 51.7627 349.645 51.9013 349.496 52.072C349.357 52.232 349.165 52.3973 348.92 52.568C348.685 52.7387 348.413 52.8827 348.104 53C347.794 53.1067 347.448 53.16 347.064 53.16ZM347.464 51.928C347.837 51.928 348.173 51.8587 348.472 51.72C348.77 51.5813 349.016 51.3893 349.208 51.144C349.41 50.888 349.549 50.584 349.624 50.232V48.936C349.538 48.616 349.389 48.3387 349.176 48.104C348.962 47.8587 348.706 47.672 348.408 47.544C348.109 47.4053 347.778 47.336 347.416 47.336C347.021 47.336 346.658 47.432 346.328 47.624C345.997 47.816 345.73 48.0827 345.528 48.424C345.336 48.7653 345.24 49.1653 345.24 49.624C345.24 50.0507 345.341 50.44 345.544 50.792C345.746 51.144 346.018 51.4213 346.36 51.624C346.701 51.8267 347.069 51.928 347.464 51.928ZM355.543 53.128C355.073 53.128 354.615 53.048 354.167 52.888C353.729 52.7173 353.367 52.4667 353.079 52.136L353.703 51.272C353.98 51.5387 354.263 51.7413 354.551 51.88C354.849 52.008 355.143 52.072 355.431 52.072C355.644 52.072 355.841 52.0453 356.023 51.992C356.204 51.9387 356.348 51.8533 356.455 51.736C356.572 51.608 356.631 51.4373 356.631 51.224C356.631 50.9893 356.551 50.8027 356.391 50.664C356.241 50.5253 356.044 50.4133 355.799 50.328C355.564 50.2427 355.313 50.1627 355.047 50.088C354.503 49.9067 354.087 49.656 353.799 49.336C353.511 49.016 353.367 48.6267 353.367 48.168C353.367 47.816 353.452 47.4907 353.623 47.192C353.804 46.8827 354.065 46.632 354.407 46.44C354.759 46.248 355.191 46.152 355.703 46.152C356.161 46.152 356.572 46.2107 356.935 46.328C357.297 46.4347 357.639 46.616 357.959 46.872L357.367 47.8C357.175 47.5973 356.945 47.448 356.679 47.352C356.412 47.256 356.172 47.2027 355.959 47.192C355.777 47.1813 355.601 47.208 355.431 47.272C355.271 47.336 355.137 47.4267 355.031 47.544C354.924 47.6613 354.871 47.8 354.871 47.96C354.871 48.184 354.945 48.3653 355.095 48.504C355.244 48.6427 355.436 48.7547 355.671 48.84C355.916 48.9147 356.156 48.9947 356.391 49.08C356.721 49.176 357.015 49.304 357.271 49.464C357.527 49.624 357.729 49.8213 357.879 50.056C358.039 50.2907 358.119 50.584 358.119 50.936C358.119 51.3307 358.023 51.6987 357.831 52.04C357.649 52.3707 357.367 52.6373 356.983 52.84C356.609 53.032 356.129 53.128 355.543 53.128ZM362.058 53.128C361.589 53.128 361.13 53.048 360.682 52.888C360.245 52.7173 359.882 52.4667 359.594 52.136L360.218 51.272C360.496 51.5387 360.778 51.7413 361.066 51.88C361.365 52.008 361.658 52.072 361.946 52.072C362.16 52.072 362.357 52.0453 362.538 51.992C362.72 51.9387 362.864 51.8533 362.97 51.736C363.088 51.608 363.146 51.4373 363.146 51.224C363.146 50.9893 363.066 50.8027 362.906 50.664C362.757 50.5253 362.56 50.4133 362.314 50.328C362.08 50.2427 361.829 50.1627 361.562 50.088C361.018 49.9067 360.602 49.656 360.314 49.336C360.026 49.016 359.882 48.6267 359.882 48.168C359.882 47.816 359.968 47.4907 360.138 47.192C360.32 46.8827 360.581 46.632 360.922 46.44C361.274 46.248 361.706 46.152 362.218 46.152C362.677 46.152 363.088 46.2107 363.45 46.328C363.813 46.4347 364.154 46.616 364.474 46.872L363.882 47.8C363.69 47.5973 363.461 47.448 363.194 47.352C362.928 47.256 362.688 47.2027 362.474 47.192C362.293 47.1813 362.117 47.208 361.946 47.272C361.786 47.336 361.653 47.4267 361.546 47.544C361.44 47.6613 361.386 47.8 361.386 47.96C361.386 48.184 361.461 48.3653 361.61 48.504C361.76 48.6427 361.952 48.7547 362.186 48.84C362.432 48.9147 362.672 48.9947 362.906 49.08C363.237 49.176 363.53 49.304 363.786 49.464C364.042 49.624 364.245 49.8213 364.394 50.056C364.554 50.2907 364.634 50.584 364.634 50.936C364.634 51.3307 364.538 51.6987 364.346 52.04C364.165 52.3707 363.882 52.6373 363.498 52.84C363.125 53.032 362.645 53.128 362.058 53.128ZM375.812 53.16C375.204 53.16 374.666 53.0267 374.196 52.76C373.738 52.4933 373.37 52.1573 373.092 51.752L373.268 51.288V53H371.78V40.616H373.252V47.896L373.204 47.336C373.471 46.9733 373.85 46.68 374.34 46.456C374.842 46.2213 375.396 46.104 376.004 46.104C376.602 46.104 377.146 46.248 377.636 46.536C378.127 46.824 378.516 47.2293 378.804 47.752C379.103 48.264 379.252 48.8773 379.252 49.592C379.252 50.3387 379.092 50.9787 378.772 51.512C378.463 52.0453 378.047 52.456 377.524 52.744C377.002 53.0213 376.431 53.16 375.812 53.16ZM375.508 51.896C375.935 51.896 376.319 51.7947 376.66 51.592C377.002 51.3893 377.268 51.1173 377.46 50.776C377.652 50.424 377.748 50.024 377.748 49.576C377.748 49.1493 377.647 48.7653 377.444 48.424C377.252 48.072 376.986 47.7947 376.644 47.592C376.314 47.3893 375.935 47.288 375.508 47.288C375.146 47.288 374.81 47.3573 374.5 47.496C374.191 47.6347 373.93 47.8267 373.716 48.072C373.503 48.3067 373.354 48.584 373.268 48.904V50.232C373.354 50.552 373.498 50.84 373.7 51.096C373.903 51.3413 374.159 51.5387 374.468 51.688C374.778 51.8267 375.124 51.896 375.508 51.896ZM381.825 56.184L386.193 46.376H387.569L383.297 56.184H381.825ZM383.457 53.048L380.273 46.376H381.953L384.625 52.296L383.457 53.048ZM398.266 53.16C397.658 53.16 397.119 53.0267 396.65 52.76C396.191 52.4933 395.823 52.1573 395.546 51.752L395.722 51.288V53H394.234V40.616H395.706V47.896L395.658 47.336C395.924 46.9733 396.303 46.68 396.794 46.456C397.295 46.2213 397.85 46.104 398.458 46.104C399.055 46.104 399.599 46.248 400.09 46.536C400.58 46.824 400.97 47.2293 401.258 47.752C401.556 48.264 401.706 48.8773 401.706 49.592C401.706 50.3387 401.546 50.9787 401.226 51.512C400.916 52.0453 400.5 52.456 399.978 52.744C399.455 53.0213 398.884 53.16 398.266 53.16ZM397.962 51.896C398.388 51.896 398.772 51.7947 399.114 51.592C399.455 51.3893 399.722 51.1173 399.914 50.776C400.106 50.424 400.202 50.024 400.202 49.576C400.202 49.1493 400.1 48.7653 399.898 48.424C399.706 48.072 399.439 47.7947 399.098 47.592C398.767 47.3893 398.388 47.288 397.962 47.288C397.599 47.288 397.263 47.3573 396.954 47.496C396.644 47.6347 396.383 47.8267 396.17 48.072C395.956 48.3067 395.807 48.584 395.722 48.904V50.232C395.807 50.552 395.951 50.84 396.154 51.096C396.356 51.3413 396.612 51.5387 396.922 51.688C397.231 51.8267 397.578 51.896 397.962 51.896ZM405.814 53.256C405.217 53.256 404.721 53.0747 404.326 52.712C403.942 52.3387 403.739 51.8587 403.718 51.272V46.376H405.206V50.744C405.227 51.1067 405.329 51.4 405.51 51.624C405.702 51.848 406.001 51.9653 406.406 51.976C406.779 51.976 407.11 51.8693 407.398 51.656C407.697 51.432 407.937 51.1333 408.118 50.76C408.299 50.376 408.39 49.944 408.39 49.464V46.376H409.878V53H408.518L408.39 51.368L408.47 51.656C408.342 51.9653 408.145 52.2427 407.878 52.488C407.622 52.7227 407.318 52.9093 406.966 53.048C406.614 53.1867 406.23 53.256 405.814 53.256ZM413.012 56.184L417.38 46.376H418.756L414.484 56.184H413.012ZM414.644 53.048L411.46 46.376H413.14L415.812 52.296L414.644 53.048ZM420.359 46.376H421.847V53H420.359V46.376ZM420.247 43.976C420.247 43.7413 420.337 43.544 420.519 43.384C420.711 43.224 420.919 43.144 421.143 43.144C421.367 43.144 421.564 43.224 421.735 43.384C421.916 43.544 422.007 43.7413 422.007 43.976C422.007 44.2213 421.916 44.424 421.735 44.584C421.564 44.7333 421.367 44.808 421.143 44.808C420.919 44.808 420.711 44.728 420.519 44.568C420.337 44.408 420.247 44.2107 420.247 43.976ZM425.749 46.376L425.877 47.992L425.813 47.736C426.026 47.2453 426.373 46.856 426.853 46.568C427.333 46.2693 427.888 46.12 428.517 46.12C429.146 46.12 429.658 46.3067 430.053 46.68C430.458 47.0427 430.666 47.5173 430.677 48.104V53H429.173V48.632C429.162 48.2693 429.056 47.976 428.853 47.752C428.661 47.5173 428.357 47.4 427.941 47.4C427.557 47.4 427.21 47.5067 426.901 47.72C426.592 47.9333 426.346 48.2267 426.165 48.6C425.994 48.9733 425.909 49.4053 425.909 49.896V53H424.421V46.376H425.749ZM436.449 56.28C435.958 56.28 435.526 56.2213 435.153 56.104C434.779 55.9973 434.438 55.8427 434.129 55.64C433.83 55.4373 433.542 55.208 433.265 54.952L434.129 53.944C434.481 54.2747 434.838 54.5307 435.201 54.712C435.563 54.8933 435.969 54.984 436.417 54.984C436.918 54.984 437.339 54.8987 437.681 54.728C438.033 54.568 438.299 54.3387 438.481 54.04C438.662 53.752 438.753 53.416 438.753 53.032L438.769 51.24L438.897 51.528C438.705 51.9867 438.358 52.376 437.857 52.696C437.355 53.0053 436.747 53.16 436.033 53.16C435.425 53.16 434.865 53.0053 434.353 52.696C433.851 52.3867 433.446 51.9707 433.137 51.448C432.838 50.9147 432.689 50.3173 432.689 49.656C432.689 48.9627 432.849 48.3547 433.169 47.832C433.489 47.2987 433.91 46.8773 434.433 46.568C434.955 46.2587 435.526 46.104 436.145 46.104C436.731 46.104 437.265 46.2267 437.745 46.472C438.235 46.7067 438.593 47.0107 438.817 47.384L438.737 47.656L438.897 46.376H440.257V53.048C440.257 53.6453 440.102 54.1893 439.793 54.68C439.483 55.1707 439.046 55.56 438.481 55.848C437.915 56.136 437.238 56.28 436.449 56.28ZM434.177 49.624C434.177 50.0507 434.278 50.44 434.481 50.792C434.683 51.144 434.955 51.4213 435.297 51.624C435.649 51.8267 436.038 51.928 436.465 51.928C436.859 51.928 437.211 51.8587 437.521 51.72C437.841 51.5707 438.107 51.3733 438.321 51.128C438.534 50.872 438.683 50.5787 438.769 50.248V48.936C438.673 48.616 438.513 48.3387 438.289 48.104C438.065 47.8587 437.798 47.672 437.489 47.544C437.179 47.4053 436.838 47.336 436.465 47.336C436.038 47.336 435.649 47.432 435.297 47.624C434.955 47.816 434.683 48.088 434.481 48.44C434.278 48.7813 434.177 49.176 434.177 49.624ZM450.642 53.16C450.023 53.16 449.458 53.0267 448.946 52.76C448.444 52.4933 448.044 52.104 447.746 51.592C447.458 51.0693 447.314 50.4347 447.314 49.688C447.314 48.952 447.468 48.3173 447.778 47.784C448.087 47.24 448.498 46.824 449.01 46.536C449.532 46.248 450.103 46.104 450.722 46.104C451.34 46.104 451.863 46.248 452.29 46.536C452.716 46.8133 453.042 47.144 453.266 47.528L453.17 47.784L453.314 46.376H454.69V53H453.202V51.272L453.362 51.656C453.319 51.7627 453.223 51.9013 453.074 52.072C452.935 52.232 452.743 52.3973 452.498 52.568C452.263 52.7387 451.991 52.8827 451.682 53C451.372 53.1067 451.026 53.16 450.642 53.16ZM451.042 51.928C451.415 51.928 451.751 51.8587 452.05 51.72C452.348 51.5813 452.594 51.3893 452.786 51.144C452.988 50.888 453.127 50.584 453.202 50.232V48.936C453.116 48.616 452.967 48.3387 452.754 48.104C452.54 47.8587 452.284 47.672 451.986 47.544C451.687 47.4053 451.356 47.336 450.994 47.336C450.599 47.336 450.236 47.432 449.906 47.624C449.575 47.816 449.308 48.0827 449.106 48.424C448.914 48.7653 448.818 49.1653 448.818 49.624C448.818 50.0507 448.919 50.44 449.122 50.792C449.324 51.144 449.596 51.4213 449.938 51.624C450.279 51.8267 450.647 51.928 451.042 51.928ZM458.593 46.376L458.721 47.992L458.657 47.736C458.87 47.2453 459.217 46.856 459.697 46.568C460.177 46.2693 460.731 46.12 461.361 46.12C461.99 46.12 462.502 46.3067 462.897 46.68C463.302 47.0427 463.51 47.5173 463.521 48.104V53H462.017V48.632C462.006 48.2693 461.899 47.976 461.697 47.752C461.505 47.5173 461.201 47.4 460.785 47.4C460.401 47.4 460.054 47.5067 459.745 47.72C459.435 47.9333 459.19 48.2267 459.009 48.6C458.838 48.9733 458.753 49.4053 458.753 49.896V53H457.265V46.376H458.593ZM98.164 57.432H105.684V58.92H99.716V62.44H105.044V63.928H99.716V67.512H105.908V69H98.164V57.432ZM110.922 69.192L107.242 62.376H109.002L111.498 67.64L110.586 67.608L112.874 62.376H114.538L111.002 69.192H110.922ZM119.056 69.16C118.298 69.16 117.648 69.0107 117.104 68.712C116.56 68.4027 116.138 67.9867 115.84 67.464C115.552 66.9307 115.408 66.3227 115.408 65.64C115.408 64.9893 115.573 64.3973 115.904 63.864C116.234 63.3307 116.677 62.904 117.232 62.584C117.786 62.264 118.405 62.104 119.088 62.104C119.962 62.104 120.688 62.36 121.264 62.872C121.84 63.384 122.229 64.088 122.432 64.984L116.976 66.904L116.624 66.024L121.104 64.392L120.784 64.6C120.656 64.248 120.442 63.944 120.144 63.688C119.845 63.4213 119.456 63.288 118.976 63.288C118.57 63.288 118.208 63.3893 117.888 63.592C117.568 63.784 117.317 64.0507 117.136 64.392C116.954 64.7333 116.864 65.1227 116.864 65.56C116.864 66.0187 116.96 66.424 117.152 66.776C117.344 67.1173 117.605 67.3893 117.936 67.592C118.277 67.784 118.661 67.88 119.088 67.88C119.376 67.88 119.653 67.8267 119.92 67.72C120.197 67.6133 120.453 67.4747 120.688 67.304L121.376 68.408C121.045 68.632 120.672 68.8133 120.256 68.952C119.85 69.0907 119.45 69.16 119.056 69.16ZM125.624 62.376L125.768 64.296L125.688 64.04C125.859 63.6347 126.104 63.2933 126.424 63.016C126.755 62.728 127.096 62.5093 127.448 62.36C127.811 62.2 128.125 62.12 128.392 62.12L128.312 63.592C127.811 63.56 127.368 63.656 126.984 63.88C126.611 64.104 126.312 64.4027 126.088 64.776C125.875 65.1493 125.768 65.5493 125.768 65.976V69H124.296V62.376H125.624ZM134.216 69.16C133.714 69.16 133.229 69.0427 132.76 68.808C132.301 68.5733 131.944 68.2587 131.688 67.864L131.784 67.4V72.184H130.312V62.28H131.592L131.8 63.976L131.64 63.512C131.96 63.1067 132.365 62.7707 132.856 62.504C133.346 62.2373 133.896 62.104 134.504 62.104C135.122 62.104 135.677 62.2533 136.168 62.552C136.669 62.8507 137.064 63.2667 137.352 63.8C137.64 64.3333 137.784 64.9573 137.784 65.672C137.784 66.3867 137.629 67.0053 137.32 67.528C137.01 68.0507 136.584 68.456 136.04 68.744C135.506 69.0213 134.898 69.16 134.216 69.16ZM133.928 67.976C134.354 67.976 134.744 67.88 135.096 67.688C135.458 67.4853 135.746 67.2133 135.96 66.872C136.173 66.52 136.28 66.1253 136.28 65.688C136.28 65.24 136.178 64.8453 135.976 64.504C135.773 64.152 135.501 63.8747 135.16 63.672C134.829 63.4693 134.456 63.368 134.04 63.368C133.656 63.368 133.309 63.4427 133 63.592C132.69 63.7413 132.434 63.9493 132.232 64.216C132.029 64.472 131.885 64.7707 131.8 65.112V66.216C131.853 66.5573 131.981 66.8613 132.184 67.128C132.386 67.3947 132.637 67.6027 132.936 67.752C133.245 67.9013 133.576 67.976 133.928 67.976ZM142.548 69.16C141.929 69.16 141.364 69.0267 140.852 68.76C140.351 68.4933 139.951 68.104 139.652 67.592C139.364 67.0693 139.22 66.4347 139.22 65.688C139.22 64.952 139.375 64.3173 139.684 63.784C139.993 63.24 140.404 62.824 140.916 62.536C141.439 62.248 142.009 62.104 142.628 62.104C143.247 62.104 143.769 62.248 144.196 62.536C144.623 62.8133 144.948 63.144 145.172 63.528L145.076 63.784L145.22 62.376H146.596V69H145.108V67.272L145.268 67.656C145.225 67.7627 145.129 67.9013 144.98 68.072C144.841 68.232 144.649 68.3973 144.404 68.568C144.169 68.7387 143.897 68.8827 143.588 69C143.279 69.1067 142.932 69.16 142.548 69.16ZM142.948 67.928C143.321 67.928 143.657 67.8587 143.956 67.72C144.255 67.5813 144.5 67.3893 144.692 67.144C144.895 66.888 145.033 66.584 145.108 66.232V64.936C145.023 64.616 144.873 64.3387 144.66 64.104C144.447 63.8587 144.191 63.672 143.892 63.544C143.593 63.4053 143.263 63.336 142.9 63.336C142.505 63.336 142.143 63.432 141.812 63.624C141.481 63.816 141.215 64.0827 141.012 64.424C140.82 64.7653 140.724 65.1653 140.724 65.624C140.724 66.0507 140.825 66.44 141.028 66.792C141.231 67.144 141.503 67.4213 141.844 67.624C142.185 67.8267 142.553 67.928 142.948 67.928ZM151.027 69.128C150.558 69.128 150.099 69.048 149.651 68.888C149.214 68.7173 148.851 68.4667 148.563 68.136L149.187 67.272C149.464 67.5387 149.747 67.7413 150.035 67.88C150.334 68.008 150.627 68.072 150.915 68.072C151.128 68.072 151.326 68.0453 151.507 67.992C151.688 67.9387 151.832 67.8533 151.939 67.736C152.056 67.608 152.115 67.4373 152.115 67.224C152.115 66.9893 152.035 66.8027 151.875 66.664C151.726 66.5253 151.528 66.4133 151.283 66.328C151.048 66.2427 150.798 66.1627 150.531 66.088C149.987 65.9067 149.571 65.656 149.283 65.336C148.995 65.016 148.851 64.6267 148.851 64.168C148.851 63.816 148.936 63.4907 149.107 63.192C149.288 62.8827 149.55 62.632 149.891 62.44C150.243 62.248 150.675 62.152 151.187 62.152C151.646 62.152 152.056 62.2107 152.419 62.328C152.782 62.4347 153.123 62.616 153.443 62.872L152.851 63.8C152.659 63.5973 152.43 63.448 152.163 63.352C151.896 63.256 151.656 63.2027 151.443 63.192C151.262 63.1813 151.086 63.208 150.915 63.272C150.755 63.336 150.622 63.4267 150.515 63.544C150.408 63.6613 150.355 63.8 150.355 63.96C150.355 64.184 150.43 64.3653 150.579 64.504C150.728 64.6427 150.92 64.7547 151.155 64.84C151.4 64.9147 151.64 64.9947 151.875 65.08C152.206 65.176 152.499 65.304 152.755 65.464C153.011 65.624 153.214 65.8213 153.363 66.056C153.523 66.2907 153.603 66.584 153.603 66.936C153.603 67.3307 153.507 67.6987 153.315 68.04C153.134 68.3707 152.851 68.6373 152.467 68.84C152.094 69.032 151.614 69.128 151.027 69.128ZM157.543 69.128C157.073 69.128 156.615 69.048 156.167 68.888C155.729 68.7173 155.367 68.4667 155.079 68.136L155.703 67.272C155.98 67.5387 156.263 67.7413 156.551 67.88C156.849 68.008 157.143 68.072 157.431 68.072C157.644 68.072 157.841 68.0453 158.023 67.992C158.204 67.9387 158.348 67.8533 158.455 67.736C158.572 67.608 158.631 67.4373 158.631 67.224C158.631 66.9893 158.551 66.8027 158.391 66.664C158.241 66.5253 158.044 66.4133 157.799 66.328C157.564 66.2427 157.313 66.1627 157.047 66.088C156.503 65.9067 156.087 65.656 155.799 65.336C155.511 65.016 155.367 64.6267 155.367 64.168C155.367 63.816 155.452 63.4907 155.623 63.192C155.804 62.8827 156.065 62.632 156.407 62.44C156.759 62.248 157.191 62.152 157.703 62.152C158.161 62.152 158.572 62.2107 158.935 62.328C159.297 62.4347 159.639 62.616 159.959 62.872L159.367 63.8C159.175 63.5973 158.945 63.448 158.679 63.352C158.412 63.256 158.172 63.2027 157.959 63.192C157.777 63.1813 157.601 63.208 157.431 63.272C157.271 63.336 157.137 63.4267 157.031 63.544C156.924 63.6613 156.871 63.8 156.871 63.96C156.871 64.184 156.945 64.3653 157.095 64.504C157.244 64.6427 157.436 64.7547 157.671 64.84C157.916 64.9147 158.156 64.9947 158.391 65.08C158.721 65.176 159.015 65.304 159.271 65.464C159.527 65.624 159.729 65.8213 159.879 66.056C160.039 66.2907 160.119 66.584 160.119 66.936C160.119 67.3307 160.023 67.6987 159.831 68.04C159.649 68.3707 159.367 68.6373 158.983 68.84C158.609 69.032 158.129 69.128 157.543 69.128ZM166.785 57.432H174.465V58.92H171.361V69H169.809V58.92H166.785V57.432ZM176.234 62.376H177.722V69H176.234V62.376ZM176.122 59.976C176.122 59.7413 176.212 59.544 176.394 59.384C176.586 59.224 176.794 59.144 177.018 59.144C177.242 59.144 177.439 59.224 177.61 59.384C177.791 59.544 177.882 59.7413 177.882 59.976C177.882 60.2213 177.791 60.424 177.61 60.584C177.439 60.7333 177.242 60.808 177.018 60.808C176.794 60.808 176.586 60.728 176.394 60.568C176.212 60.408 176.122 60.2107 176.122 59.976ZM185.672 68.392C185.373 68.6267 185.016 68.8133 184.6 68.952C184.184 69.0907 183.768 69.16 183.352 69.16C182.627 69.16 181.992 69.016 181.448 68.728C180.904 68.44 180.477 68.04 180.168 67.528C179.869 67.0053 179.72 66.392 179.72 65.688C179.72 64.984 179.88 64.3707 180.2 63.848C180.531 63.3253 180.957 62.9253 181.48 62.648C182.013 62.36 182.584 62.216 183.192 62.216C183.725 62.216 184.2 62.2907 184.616 62.44C185.043 62.5893 185.405 62.792 185.704 63.048L184.968 64.008C184.776 63.8587 184.541 63.7253 184.264 63.608C183.987 63.4907 183.672 63.432 183.32 63.432C182.936 63.432 182.579 63.5333 182.248 63.736C181.928 63.928 181.672 64.1947 181.48 64.536C181.299 64.8773 181.208 65.2613 181.208 65.688C181.208 66.0933 181.304 66.472 181.496 66.824C181.688 67.1653 181.955 67.4373 182.296 67.64C182.637 67.832 183.027 67.928 183.464 67.928C183.752 67.928 184.013 67.8853 184.248 67.8C184.493 67.7147 184.712 67.5973 184.904 67.448L185.672 68.392ZM187.593 69V56.616H189.081V69H187.593ZM190.681 64.6L193.721 69H191.977L189.689 65.432L190.681 64.6ZM188.617 66.888L188.473 65.464L192.489 62.232L193.401 63.016L188.617 66.888ZM198.384 69.16C197.626 69.16 196.976 69.0107 196.432 68.712C195.888 68.4027 195.466 67.9867 195.168 67.464C194.88 66.9307 194.736 66.3227 194.736 65.64C194.736 64.9893 194.901 64.3973 195.232 63.864C195.562 63.3307 196.005 62.904 196.56 62.584C197.114 62.264 197.733 62.104 198.416 62.104C199.29 62.104 200.016 62.36 200.592 62.872C201.168 63.384 201.557 64.088 201.76 64.984L196.304 66.904L195.952 66.024L200.432 64.392L200.112 64.6C199.984 64.248 199.77 63.944 199.472 63.688C199.173 63.4213 198.784 63.288 198.304 63.288C197.898 63.288 197.536 63.3893 197.216 63.592C196.896 63.784 196.645 64.0507 196.464 64.392C196.282 64.7333 196.192 65.1227 196.192 65.56C196.192 66.0187 196.288 66.424 196.48 66.776C196.672 67.1173 196.933 67.3893 197.264 67.592C197.605 67.784 197.989 67.88 198.416 67.88C198.704 67.88 198.981 67.8267 199.248 67.72C199.525 67.6133 199.781 67.4747 200.016 67.304L200.704 68.408C200.373 68.632 200 68.8133 199.584 68.952C199.178 69.0907 198.778 69.16 198.384 69.16ZM204.264 59.464H205.752V62.408H207.576V63.576H205.752V69H204.264V63.576H203.048V62.408H204.264V59.464ZM208.622 68.152C208.622 67.9173 208.707 67.72 208.878 67.56C209.059 67.3893 209.257 67.304 209.47 67.304C209.662 67.304 209.843 67.3893 210.014 67.56C210.195 67.72 210.286 67.9173 210.286 68.152C210.286 68.408 210.195 68.616 210.014 68.776C209.843 68.9253 209.662 69 209.47 69C209.257 69 209.059 68.9253 208.878 68.776C208.707 68.616 208.622 68.408 208.622 68.152Z" fill="white"/>
<defs>
<linearGradient id="paint0_linear_2039_133436" x1="17.9762" y1="-185.901" x2="17.9762" y2="127.37" gradientUnits="userSpaceOnUse">
<stop stop-color="#CBA05F"/>
<stop offset="0.25" stop-color="#804E03"/>
<stop offset="0.37" stop-color="#986D05"/>
<stop offset="0.47" stop-color="#CBA05F"/>
<stop offset="0.62" stop-color="#E3D5A7"/>
<stop offset="0.73" stop-color="#E2D4A5"/>
<stop offset="0.77" stop-color="#E0CF9E"/>
<stop offset="0.8" stop-color="#DCC693"/>
<stop offset="0.82" stop-color="#D7B982"/>
<stop offset="0.84" stop-color="#CFAA6C"/>
<stop offset="0.85" stop-color="#CBA05F"/>
<stop offset="1" stop-color="#804E03"/>
</linearGradient>
<linearGradient id="paint1_linear_2039_133436" x1="17.9763" y1="-185.901" x2="17.9763" y2="127.371" gradientUnits="userSpaceOnUse">
<stop stop-color="#CBA05F"/>
<stop offset="0.25" stop-color="#804E03"/>
<stop offset="0.37" stop-color="#986D05"/>
<stop offset="0.47" stop-color="#CBA05F"/>
<stop offset="0.62" stop-color="#E3D5A7"/>
<stop offset="0.73" stop-color="#E2D4A5"/>
<stop offset="0.77" stop-color="#E0CF9E"/>
<stop offset="0.8" stop-color="#DCC693"/>
<stop offset="0.82" stop-color="#D7B982"/>
<stop offset="0.84" stop-color="#CFAA6C"/>
<stop offset="0.85" stop-color="#CBA05F"/>
<stop offset="1" stop-color="#804E03"/>
</linearGradient>
<linearGradient id="paint2_linear_2039_133436" x1="45.1438" y1="-185.901" x2="45.1438" y2="127.371" gradientUnits="userSpaceOnUse">
<stop stop-color="#CBA05F"/>
<stop offset="0.25" stop-color="#804E03"/>
<stop offset="0.37" stop-color="#986D05"/>
<stop offset="0.47" stop-color="#CBA05F"/>
<stop offset="0.62" stop-color="#E3D5A7"/>
<stop offset="0.73" stop-color="#E2D4A5"/>
<stop offset="0.77" stop-color="#E0CF9E"/>
<stop offset="0.8" stop-color="#DCC693"/>
<stop offset="0.82" stop-color="#D7B982"/>
<stop offset="0.84" stop-color="#CFAA6C"/>
<stop offset="0.85" stop-color="#CBA05F"/>
<stop offset="1" stop-color="#804E03"/>
</linearGradient>
<linearGradient id="paint3_linear_2039_133436" x1="45.1428" y1="-185.901" x2="45.1428" y2="127.37" gradientUnits="userSpaceOnUse">
<stop stop-color="#CBA05F"/>
<stop offset="0.25" stop-color="#804E03"/>
<stop offset="0.37" stop-color="#986D05"/>
<stop offset="0.47" stop-color="#CBA05F"/>
<stop offset="0.62" stop-color="#E3D5A7"/>
<stop offset="0.73" stop-color="#E2D4A5"/>
<stop offset="0.77" stop-color="#E0CF9E"/>
<stop offset="0.8" stop-color="#DCC693"/>
<stop offset="0.82" stop-color="#D7B982"/>
<stop offset="0.84" stop-color="#CFAA6C"/>
<stop offset="0.85" stop-color="#CBA05F"/>
<stop offset="1" stop-color="#804E03"/>
</linearGradient>
<linearGradient id="paint4_linear_2039_133436" x1="36.5" y1="1" x2="36.5" y2="73" gradientUnits="userSpaceOnUse">
<stop stop-color="#F9D390"/>
<stop offset="1" stop-color="#E2B15B"/>
</linearGradient>
<linearGradient id="paint5_linear_2039_133436" x1="314" y1="1" x2="314" y2="17" gradientUnits="userSpaceOnUse">
<stop stop-color="#FFE0AB"/>
<stop offset="1" stop-color="#E9CA94"/>
</linearGradient>
<clipPath id="clip0_2039_133436">
<rect width="52.2522" height="26.3399" fill="white" transform="translate(10.4836 24)"/>
</clipPath>
</defs>
</svg>
