<svg width="532" height="73" viewBox="0 0 532 73" fill="none" xmlns="http://www.w3.org/2000/svg">
<g clip-path="url(#clip0_2039_133436)">
<path d="M15.6062 34.558V39.8C17.3816 40.5996 18.8032 42.0211 19.6027 43.7965H20.3556V30.5708H19.6027C18.7999 32.3417 17.379 33.7593 15.6062 34.558Z" fill="url(#paint0_linear_2039_133436)"/>
<path d="M10.4851 30.2736V44.0663C12.149 44.0663 13.7447 44.7272 14.9212 45.9038C16.0978 47.0803 16.7587 48.676 16.7587 50.3399H25.4674V24H16.7587C16.7587 25.6639 16.0978 27.2596 14.9212 28.4361C13.7447 29.6126 12.149 30.2736 10.4851 30.2736ZM21.9356 27.4853V46.8174H19.6306L19.5284 46.5757C18.5294 44.1916 16.6334 42.2956 14.2493 41.2966L14.0076 41.1943V33.1455L14.2493 33.0433C16.6334 32.0443 18.5294 30.1483 19.5284 27.7642L19.6306 27.5225L21.9356 27.4853Z" fill="url(#paint1_linear_2039_133436)"/>
<path d="M27.5591 50.3399H56.4735C56.4735 48.6776 57.1332 47.0833 58.3077 45.907C59.4822 44.7308 61.0755 44.0687 62.7378 44.0663V30.2736C61.0755 30.2711 59.4822 29.6091 58.3077 28.4328C57.1332 27.2566 56.4735 25.6623 56.4735 24L27.5591 24V50.3399ZM53.583 27.5225L53.6852 27.7642C54.6842 30.1483 56.5802 32.0443 58.9643 33.0433L59.206 33.1455V41.1943L58.9643 41.2966C56.5802 42.2956 54.6842 44.1916 53.6852 46.5757L53.583 46.8174H31.0816V27.5225H53.583Z" fill="url(#paint2_linear_2039_133436)"/>
<path d="M57.0952 40.3298V34.0097C54.9686 33.0386 53.2675 31.3275 52.3087 29.1953H33.1904V45.1442H52.3087C53.2675 43.012 54.9686 41.301 57.0952 40.3298Z" fill="url(#paint3_linear_2039_133436)"/>
</g>
<rect x="1" y="1.5" width="71" height="71" rx="15.5" stroke="url(#paint4_linear_2039_133436)"/>
<path d="M97.268 1.352H105.06V3.144H102.052V13H100.196V3.144H97.268V1.352ZM106.857 6.232H108.649V13H106.857V6.232ZM106.777 3.816C106.777 3.53867 106.884 3.30933 107.097 3.128C107.321 2.94667 107.561 2.856 107.817 2.856C108.073 2.856 108.302 2.94667 108.505 3.128C108.718 3.30933 108.825 3.53867 108.825 3.816C108.825 4.09333 108.718 4.32267 108.505 4.504C108.302 4.67467 108.073 4.76 107.817 4.76C107.561 4.76 107.321 4.66933 107.097 4.488C106.884 4.30667 106.777 4.08267 106.777 3.816ZM116.707 12.376C116.408 12.6213 116.04 12.8187 115.603 12.968C115.176 13.1067 114.744 13.176 114.307 13.176C113.56 13.176 112.904 13.032 112.339 12.744C111.774 12.4453 111.331 12.0347 111.011 11.512C110.702 10.9787 110.547 10.344 110.547 9.608C110.547 8.872 110.712 8.23733 111.043 7.704C111.384 7.17067 111.827 6.76533 112.371 6.488C112.926 6.2 113.512 6.056 114.131 6.056C114.696 6.056 115.198 6.136 115.635 6.296C116.072 6.44533 116.451 6.65333 116.771 6.92L115.875 8.088C115.704 7.94933 115.48 7.82133 115.203 7.704C114.936 7.576 114.632 7.512 114.291 7.512C113.928 7.512 113.598 7.60267 113.299 7.784C113.011 7.96533 112.776 8.216 112.595 8.536C112.424 8.84533 112.339 9.20267 112.339 9.608C112.339 9.992 112.43 10.344 112.611 10.664C112.792 10.984 113.043 11.24 113.363 11.432C113.683 11.6133 114.051 11.704 114.467 11.704C114.734 11.704 114.979 11.6667 115.203 11.592C115.438 11.5067 115.64 11.3947 115.811 11.256L116.707 12.376ZM118.545 13V0.52H120.337V13H118.545ZM122.016 8.456L125.105 13H123.025L120.833 9.48L122.016 8.456ZM119.793 10.968L119.617 9.24L123.729 6.072L124.817 7.032L119.793 10.968ZM129.839 13.176C129.039 13.176 128.356 13.0213 127.791 12.712C127.226 12.4027 126.794 11.976 126.495 11.432C126.196 10.8773 126.047 10.2533 126.047 9.56C126.047 8.87733 126.218 8.264 126.559 7.72C126.9 7.176 127.359 6.744 127.935 6.424C128.522 6.09333 129.167 5.928 129.871 5.928C130.799 5.928 131.562 6.2 132.159 6.744C132.767 7.27733 133.172 8.03467 133.375 9.016L127.919 10.856L127.503 9.848L131.759 8.328L131.391 8.536C131.274 8.216 131.082 7.93867 130.815 7.704C130.559 7.46933 130.196 7.352 129.727 7.352C129.354 7.352 129.023 7.44267 128.735 7.624C128.447 7.79467 128.218 8.04 128.047 8.36C127.887 8.66933 127.807 9.03733 127.807 9.464C127.807 9.90133 127.898 10.2853 128.079 10.616C128.26 10.9467 128.506 11.2027 128.815 11.384C129.124 11.5547 129.476 11.64 129.871 11.64C130.148 11.64 130.415 11.592 130.671 11.496C130.927 11.4 131.167 11.272 131.391 11.112L132.207 12.44C131.855 12.664 131.466 12.8453 131.039 12.984C130.623 13.112 130.223 13.176 129.839 13.176ZM135.778 3.256H137.586V6.232H139.346V7.64H137.586V13H135.778V7.64H134.626V6.232H135.778V3.256Z" fill="url(#paint5_linear_2039_133436)"/>
<path d="M98.164 25.432H99.716V35.512H105.588V37H98.164V25.432ZM107.173 33.624C107.173 32.9627 107.328 32.3653 107.637 31.832C107.957 31.2987 108.394 30.8773 108.949 30.568C109.504 30.2587 110.133 30.104 110.837 30.104C111.562 30.104 112.197 30.2587 112.741 30.568C113.285 30.8773 113.706 31.2987 114.005 31.832C114.304 32.3653 114.453 32.9627 114.453 33.624C114.453 34.2853 114.304 34.888 114.005 35.432C113.706 35.9653 113.28 36.3867 112.725 36.696C112.181 37.0053 111.546 37.16 110.821 37.16C110.117 37.16 109.488 37.016 108.933 36.728C108.389 36.4293 107.957 36.0187 107.637 35.496C107.328 34.9627 107.173 34.3387 107.173 33.624ZM108.661 33.64C108.661 34.0667 108.757 34.456 108.949 34.808C109.141 35.1493 109.397 35.4213 109.717 35.624C110.048 35.8267 110.41 35.928 110.805 35.928C111.221 35.928 111.589 35.8267 111.909 35.624C112.24 35.4213 112.496 35.1493 112.677 34.808C112.858 34.456 112.949 34.0667 112.949 33.64C112.949 33.2133 112.858 32.8293 112.677 32.488C112.496 32.136 112.24 31.8587 111.909 31.656C111.589 31.4427 111.221 31.336 110.805 31.336C110.4 31.336 110.032 31.4427 109.701 31.656C109.381 31.8693 109.125 32.152 108.933 32.504C108.752 32.8453 108.661 33.224 108.661 33.64ZM117.796 30.376L117.94 32.296L117.86 32.04C118.031 31.6347 118.276 31.2933 118.596 31.016C118.927 30.728 119.268 30.5093 119.62 30.36C119.983 30.2 120.297 30.12 120.564 30.12L120.484 31.592C119.983 31.56 119.54 31.656 119.156 31.88C118.783 32.104 118.484 32.4027 118.26 32.776C118.047 33.1493 117.94 33.5493 117.94 33.976V37H116.468V30.376H117.796ZM125.274 37.16C124.517 37.16 123.866 37.0107 123.322 36.712C122.778 36.4027 122.357 35.9867 122.058 35.464C121.77 34.9307 121.626 34.3227 121.626 33.64C121.626 32.9893 121.792 32.3973 122.122 31.864C122.453 31.3307 122.896 30.904 123.45 30.584C124.005 30.264 124.624 30.104 125.306 30.104C126.181 30.104 126.906 30.36 127.482 30.872C128.058 31.384 128.448 32.088 128.65 32.984L123.194 34.904L122.842 34.024L127.322 32.392L127.002 32.6C126.874 32.248 126.661 31.944 126.362 31.688C126.064 31.4213 125.674 31.288 125.194 31.288C124.789 31.288 124.426 31.3893 124.106 31.592C123.786 31.784 123.536 32.0507 123.354 32.392C123.173 32.7333 123.082 33.1227 123.082 33.56C123.082 34.0187 123.178 34.424 123.37 34.776C123.562 35.1173 123.824 35.3893 124.154 35.592C124.496 35.784 124.88 35.88 125.306 35.88C125.594 35.88 125.872 35.8267 126.138 35.72C126.416 35.6133 126.672 35.4747 126.906 35.304L127.594 36.408C127.264 36.632 126.89 36.8133 126.474 36.952C126.069 37.0907 125.669 37.16 125.274 37.16ZM131.843 30.376L131.971 31.864L131.907 31.736C132.152 31.2347 132.499 30.84 132.947 30.552C133.405 30.264 133.928 30.12 134.515 30.12C134.888 30.12 135.219 30.1787 135.507 30.296C135.795 30.4133 136.029 30.584 136.211 30.808C136.403 31.0213 136.525 31.288 136.579 31.608L136.499 31.656C136.755 31.176 137.107 30.8027 137.555 30.536C138.013 30.2587 138.493 30.12 138.995 30.12C139.645 30.12 140.157 30.3067 140.531 30.68C140.915 31.0427 141.112 31.5173 141.123 32.104V37H139.635V32.632C139.624 32.2907 139.539 32.008 139.379 31.784C139.229 31.5493 138.963 31.4213 138.579 31.4C138.195 31.4 137.848 31.5173 137.539 31.752C137.24 31.9867 137.005 32.2907 136.835 32.664C136.664 33.0267 136.573 33.4213 136.563 33.848V37H135.075V32.632C135.064 32.2907 134.973 32.008 134.803 31.784C134.643 31.5493 134.371 31.4213 133.987 31.4C133.592 31.4 133.245 31.5173 132.947 31.752C132.648 31.9867 132.413 32.2907 132.243 32.664C132.083 33.0373 132.003 33.4373 132.003 33.864V37H130.515V30.376H131.843Z" fill="white"/>
<defs>
<linearGradient id="paint0_linear_2039_133436" x1="17.9762" y1="-185.901" x2="17.9762" y2="127.37" gradientUnits="userSpaceOnUse">
<stop stop-color="#CBA05F"/>
<stop offset="0.25" stop-color="#804E03"/>
<stop offset="0.37" stop-color="#986D05"/>
<stop offset="0.47" stop-color="#CBA05F"/>
<stop offset="0.62" stop-color="#E3D5A7"/>
<stop offset="0.73" stop-color="#E2D4A5"/>
<stop offset="0.77" stop-color="#E0CF9E"/>
<stop offset="0.8" stop-color="#DCC693"/>
<stop offset="0.82" stop-color="#D7B982"/>
<stop offset="0.84" stop-color="#CFAA6C"/>
<stop offset="0.85" stop-color="#CBA05F"/>
<stop offset="1" stop-color="#804E03"/>
</linearGradient>
<linearGradient id="paint1_linear_2039_133436" x1="17.9763" y1="-185.901" x2="17.9763" y2="127.371" gradientUnits="userSpaceOnUse">
<stop stop-color="#CBA05F"/>
<stop offset="0.25" stop-color="#804E03"/>
<stop offset="0.37" stop-color="#986D05"/>
<stop offset="0.47" stop-color="#CBA05F"/>
<stop offset="0.62" stop-color="#E3D5A7"/>
<stop offset="0.73" stop-color="#E2D4A5"/>
<stop offset="0.77" stop-color="#E0CF9E"/>
<stop offset="0.8" stop-color="#DCC693"/>
<stop offset="0.82" stop-color="#D7B982"/>
<stop offset="0.84" stop-color="#CFAA6C"/>
<stop offset="0.85" stop-color="#CBA05F"/>
<stop offset="1" stop-color="#804E03"/>
</linearGradient>
<linearGradient id="paint2_linear_2039_133436" x1="45.1438" y1="-185.901" x2="45.1438" y2="127.371" gradientUnits="userSpaceOnUse">
<stop stop-color="#CBA05F"/>
<stop offset="0.25" stop-color="#804E03"/>
<stop offset="0.37" stop-color="#986D05"/>
<stop offset="0.47" stop-color="#CBA05F"/>
<stop offset="0.62" stop-color="#E3D5A7"/>
<stop offset="0.73" stop-color="#E2D4A5"/>
<stop offset="0.77" stop-color="#E0CF9E"/>
<stop offset="0.8" stop-color="#DCC693"/>
<stop offset="0.82" stop-color="#D7B982"/>
<stop offset="0.84" stop-color="#CFAA6C"/>
<stop offset="0.85" stop-color="#CBA05F"/>
<stop offset="1" stop-color="#804E03"/>
</linearGradient>
<linearGradient id="paint3_linear_2039_133436" x1="45.1428" y1="-185.901" x2="45.1428" y2="127.37" gradientUnits="userSpaceOnUse">
<stop stop-color="#CBA05F"/>
<stop offset="0.25" stop-color="#804E03"/>
<stop offset="0.37" stop-color="#986D05"/>
<stop offset="0.47" stop-color="#CBA05F"/>
<stop offset="0.62" stop-color="#E3D5A7"/>
<stop offset="0.73" stop-color="#E2D4A5"/>
<stop offset="0.77" stop-color="#E0CF9E"/>
<stop offset="0.8" stop-color="#DCC693"/>
<stop offset="0.82" stop-color="#D7B982"/>
<stop offset="0.84" stop-color="#CFAA6C"/>
<stop offset="0.85" stop-color="#CBA05F"/>
<stop offset="1" stop-color="#804E03"/>
</linearGradient>
<linearGradient id="paint4_linear_2039_133436" x1="36.5" y1="1" x2="36.5" y2="73" gradientUnits="userSpaceOnUse">
<stop stop-color="#F9D390"/>
<stop offset="1" stop-color="#E2B15B"/>
</linearGradient>
<linearGradient id="paint5_linear_2039_133436" x1="314" y1="1" x2="314" y2="17" gradientUnits="userSpaceOnUse">
<stop stop-color="#FFE0AB"/>
<stop offset="1" stop-color="#E9CA94"/>
</linearGradient>
<clipPath id="clip0_2039_133436">
<rect width="52.2522" height="26.3399" fill="white" transform="translate(10.4836 24)"/>
</clipPath>
</defs>
</svg>
