<svg width="532" height="73" viewBox="0 0 532 73" fill="none" xmlns="http://www.w3.org/2000/svg">
<g clip-path="url(#clip0_2039_133428)">
<path fill-rule="evenodd" clip-rule="evenodd" d="M44.7469 53.634H44.0606C44.0606 55.0482 44.0606 56.2753 44.0606 57.2112C44.0635 57.9367 43.8911 58.6522 43.5579 59.2968C43.2248 59.9413 42.7408 60.4959 42.1472 60.9131C41.9393 61.0483 41.7313 61.1834 41.5337 61.2874C40.9826 61.5786 40.5874 61.6514 37.0519 61.6514C33.7971 61.6514 33.2772 61.589 32.5701 61.2874C31.8175 60.9271 31.1843 60.3583 30.7455 59.6486C30.3068 58.9389 30.0811 58.1182 30.0952 57.284C30.0952 56.3377 30.0952 55.1002 30.0952 53.6756H28.733C27.0209 53.6323 25.339 53.2152 23.805 52.4536C22.271 51.692 20.922 50.6043 19.8525 49.2666V52.1678C19.8525 53.6126 20.1371 55.0432 20.69 56.378C21.2429 57.7128 22.0533 58.9256 23.0749 59.9472C24.0965 60.9689 25.3093 61.7792 26.6441 62.3321C27.9789 62.885 29.4095 63.1696 30.8543 63.1696H42.6256C45.5434 63.1696 48.3418 62.0105 50.405 59.9472C52.4682 57.884 53.6273 55.0857 53.6273 52.1678V49.2666C52.5538 50.5966 51.2031 51.6765 49.6693 52.4308C48.1355 53.1851 46.4557 53.5957 44.7469 53.634Z" fill="url(#paint0_linear_2039_133428)"/>
<path fill-rule="evenodd" clip-rule="evenodd" d="M47.7937 17.8319V15.2738C47.7937 12.9134 42.8439 11 36.7399 11C30.6359 11 25.6862 12.9134 25.6862 15.2738V17.8319C23.9236 18.7685 22.4493 20.1675 21.4216 21.8785C20.3938 23.5896 19.8514 25.5482 19.8525 27.5442V45.4819C21.8283 49.0902 25.0519 51.4611 28.733 51.4611H30.0328C30.0328 41.9152 29.9288 26.7747 30.0848 24.1439C30.1437 23.0003 30.4079 21.8767 30.8647 20.8267C31.0995 20.2615 31.4543 19.7542 31.9046 19.3397L32.9444 21.617H41.0034L42.0433 19.3397C42.4967 19.7514 42.852 20.2596 43.0831 20.8267C43.5389 21.8776 43.8064 23.0004 43.8734 24.1439C44.019 26.7747 43.967 41.9152 43.8734 51.4611H44.5493C48.2096 51.4611 51.454 49.0902 53.4298 45.4819V27.5442C53.4502 25.5682 52.9375 23.6232 51.9456 21.914C50.9538 20.2048 49.5195 18.7946 47.7937 17.8319ZM40.4419 20.5979H33.6619L32.7885 18.7574C33.3589 18.4538 33.9933 18.2899 34.6394 18.2791H37.0831H39.4644C40.1083 18.2779 40.743 18.4312 41.3153 18.7262L40.4419 20.5979Z" fill="url(#paint1_linear_2039_133428)"/>
<path fill-rule="evenodd" clip-rule="evenodd" d="M42.1268 55.8391V23.4785C40.5023 23.8711 38.8378 24.0735 37.1666 24.0816C35.4155 24.0921 33.6695 23.8896 31.9673 23.4785V55.8391C33.6231 56.2785 35.3287 56.5022 37.0418 56.5046C38.7587 56.5076 40.4685 56.2838 42.1268 55.8391Z" fill="url(#paint2_linear_2039_133428)"/>
</g>
<rect x="1" y="1.5" width="71" height="71" rx="15.5" stroke="url(#paint3_linear_2039_133428)"/>
<path d="M106.74 12.088C106.58 12.2053 106.329 12.3493 105.988 12.52C105.647 12.6907 105.241 12.84 104.772 12.968C104.313 13.0853 103.801 13.1387 103.236 13.128C102.329 13.1173 101.513 12.9573 100.788 12.648C100.063 12.328 99.4493 11.9013 98.948 11.368C98.4467 10.824 98.0573 10.2053 97.78 9.512C97.5133 8.808 97.38 8.06133 97.38 7.272C97.38 6.38667 97.5187 5.576 97.796 4.84C98.0733 4.104 98.468 3.46933 98.98 2.936C99.492 2.392 100.1 1.97067 100.804 1.672C101.508 1.37333 102.276 1.224 103.108 1.224C103.844 1.224 104.5 1.32533 105.076 1.528C105.663 1.72 106.153 1.93867 106.548 2.184L105.812 3.944C105.513 3.73067 105.14 3.52267 104.692 3.32C104.244 3.11733 103.737 3.016 103.172 3.016C102.66 3.016 102.169 3.12267 101.7 3.336C101.231 3.53867 100.82 3.832 100.468 4.216C100.116 4.58933 99.8333 5.02667 99.62 5.528C99.4173 6.02933 99.316 6.57333 99.316 7.16C99.316 7.768 99.4067 8.328 99.588 8.84C99.78 9.34133 100.047 9.77867 100.388 10.152C100.74 10.5253 101.156 10.8187 101.636 11.032C102.127 11.2347 102.671 11.336 103.268 11.336C103.876 11.336 104.404 11.2453 104.852 11.064C105.311 10.872 105.679 10.6587 105.956 10.424L106.74 12.088ZM111.705 13.176C111.065 13.176 110.484 13.0427 109.961 12.776C109.449 12.5093 109.044 12.1147 108.745 11.592C108.446 11.0587 108.297 10.4027 108.297 9.624C108.297 8.856 108.452 8.2 108.761 7.656C109.081 7.10133 109.497 6.67467 110.009 6.376C110.532 6.07733 111.097 5.928 111.705 5.928C112.356 5.928 112.878 6.056 113.273 6.312C113.678 6.568 113.993 6.872 114.217 7.224L114.121 7.48L114.297 6.232H115.945V13H114.153V11.352L114.329 11.784C114.286 11.848 114.201 11.9547 114.073 12.104C113.945 12.2427 113.769 12.3973 113.545 12.568C113.321 12.7387 113.054 12.8827 112.745 13C112.446 13.1173 112.1 13.176 111.705 13.176ZM112.201 11.704C112.521 11.704 112.809 11.6453 113.065 11.528C113.332 11.4107 113.556 11.2453 113.737 11.032C113.929 10.8187 114.068 10.5627 114.153 10.264V8.792C114.068 8.51467 113.929 8.27467 113.737 8.072C113.545 7.85867 113.31 7.69333 113.033 7.576C112.766 7.45867 112.468 7.4 112.137 7.4C111.774 7.4 111.438 7.49067 111.129 7.672C110.82 7.85333 110.569 8.104 110.377 8.424C110.196 8.744 110.105 9.112 110.105 9.528C110.105 9.93333 110.201 10.3013 110.393 10.632C110.585 10.9627 110.841 11.224 111.161 11.416C111.481 11.608 111.828 11.704 112.201 11.704ZM122.532 13.176C122.062 13.176 121.609 13.0747 121.172 12.872C120.734 12.6693 120.382 12.392 120.116 12.04L120.212 11.496V16.248H118.42V6.104H119.972L120.212 7.672L120.052 7.192C120.382 6.82933 120.782 6.53067 121.252 6.296C121.732 6.05067 122.27 5.928 122.868 5.928C123.508 5.928 124.078 6.07733 124.58 6.376C125.081 6.67467 125.476 7.10133 125.764 7.656C126.062 8.2 126.212 8.84533 126.212 9.592C126.212 10.3387 126.052 10.9787 125.732 11.512C125.412 12.0453 124.974 12.456 124.42 12.744C123.865 13.032 123.236 13.176 122.532 13.176ZM122.18 11.752C122.574 11.752 122.937 11.6613 123.268 11.48C123.609 11.2987 123.881 11.048 124.084 10.728C124.286 10.3973 124.388 10.0293 124.388 9.624C124.388 9.19733 124.292 8.824 124.1 8.504C123.918 8.17333 123.668 7.91733 123.348 7.736C123.038 7.544 122.692 7.448 122.308 7.448C121.956 7.448 121.641 7.50667 121.364 7.624C121.086 7.74133 120.852 7.912 120.66 8.136C120.468 8.34933 120.318 8.60533 120.212 8.904V10.264C120.286 10.552 120.414 10.808 120.596 11.032C120.777 11.256 121.006 11.432 121.284 11.56C121.561 11.688 121.86 11.752 122.18 11.752ZM130.139 13.144C129.627 13.144 129.136 13.0533 128.667 12.872C128.208 12.6907 127.819 12.424 127.499 12.072L128.267 11.064C128.566 11.352 128.859 11.5653 129.147 11.704C129.446 11.832 129.728 11.896 129.995 11.896C130.198 11.896 130.379 11.8747 130.539 11.832C130.71 11.7787 130.843 11.6987 130.939 11.592C131.046 11.4853 131.099 11.3413 131.099 11.16C131.099 10.9467 131.024 10.7813 130.875 10.664C130.726 10.536 130.534 10.4347 130.299 10.36C130.064 10.2747 129.819 10.1947 129.563 10.12C128.976 9.93867 128.539 9.672 128.251 9.32C127.963 8.968 127.819 8.56267 127.819 8.104C127.819 7.752 127.91 7.416 128.091 7.096C128.272 6.76533 128.55 6.49333 128.923 6.28C129.296 6.06667 129.766 5.96 130.331 5.96C130.843 5.96 131.286 6.01867 131.659 6.136C132.043 6.24267 132.4 6.42933 132.731 6.696L132.043 7.768C131.851 7.58667 131.622 7.448 131.355 7.352C131.099 7.24533 130.864 7.18667 130.651 7.176C130.459 7.16533 130.288 7.192 130.139 7.256C129.99 7.30933 129.867 7.38933 129.771 7.496C129.686 7.60267 129.643 7.72533 129.643 7.864C129.632 8.07733 129.702 8.248 129.851 8.376C130.011 8.504 130.214 8.60533 130.459 8.68C130.704 8.75467 130.95 8.83467 131.195 8.92C131.526 9.016 131.819 9.14933 132.075 9.32C132.331 9.49067 132.528 9.69867 132.667 9.944C132.816 10.1787 132.891 10.472 132.891 10.824C132.891 11.2293 132.79 11.6133 132.587 11.976C132.384 12.328 132.08 12.6107 131.675 12.824C131.27 13.0373 130.758 13.144 130.139 13.144ZM137.049 13.288C136.43 13.288 135.918 13.1013 135.513 12.728C135.107 12.344 134.894 11.8533 134.873 11.256V6.232H136.665V10.616C136.686 10.9467 136.782 11.2187 136.953 11.432C137.123 11.6453 137.395 11.752 137.769 11.752C138.121 11.752 138.435 11.6453 138.713 11.432C138.99 11.208 139.203 10.904 139.353 10.52C139.513 10.136 139.593 9.704 139.593 9.224V6.232H141.385V13H139.769L139.625 11.512L139.673 11.752C139.534 12.04 139.337 12.3067 139.081 12.552C138.825 12.7867 138.521 12.968 138.169 13.096C137.827 13.224 137.454 13.288 137.049 13.288ZM143.857 0.52H145.649V13H143.857V0.52ZM151.339 13.176C150.539 13.176 149.856 13.0213 149.291 12.712C148.726 12.4027 148.294 11.976 147.995 11.432C147.696 10.8773 147.547 10.2533 147.547 9.56C147.547 8.87733 147.718 8.264 148.059 7.72C148.4 7.176 148.859 6.744 149.435 6.424C150.022 6.09333 150.667 5.928 151.371 5.928C152.299 5.928 153.062 6.2 153.659 6.744C154.267 7.27733 154.672 8.03467 154.875 9.016L149.419 10.856L149.003 9.848L153.259 8.328L152.891 8.536C152.774 8.216 152.582 7.93867 152.315 7.704C152.059 7.46933 151.696 7.352 151.227 7.352C150.854 7.352 150.523 7.44267 150.235 7.624C149.947 7.79467 149.718 8.04 149.547 8.36C149.387 8.66933 149.307 9.03733 149.307 9.464C149.307 9.90133 149.398 10.2853 149.579 10.616C149.76 10.9467 150.006 11.2027 150.315 11.384C150.624 11.5547 150.976 11.64 151.371 11.64C151.648 11.64 151.915 11.592 152.171 11.496C152.427 11.4 152.667 11.272 152.891 11.112L153.707 12.44C153.355 12.664 152.966 12.8453 152.539 12.984C152.123 13.112 151.723 13.176 151.339 13.176Z" fill="url(#paint4_linear_2039_133428)"/>
<path d="M97.316 25.432H104.996V26.92H101.892V37H100.34V26.92H97.316V25.432ZM107.093 37V24.616H108.549V31.912L108.517 31.64C108.741 31.2027 109.082 30.84 109.541 30.552C110.01 30.264 110.56 30.12 111.189 30.12C111.818 30.12 112.33 30.3067 112.725 30.68C113.13 31.0427 113.338 31.5173 113.349 32.104V37H111.845V32.632C111.834 32.2693 111.728 31.976 111.525 31.752C111.333 31.5173 111.029 31.4 110.613 31.4C110.229 31.4 109.882 31.512 109.573 31.736C109.264 31.9493 109.018 32.2427 108.837 32.616C108.666 32.9893 108.581 33.416 108.581 33.896V37H107.093ZM119.009 37.16C118.251 37.16 117.601 37.0107 117.057 36.712C116.513 36.4027 116.091 35.9867 115.793 35.464C115.505 34.9307 115.361 34.3227 115.361 33.64C115.361 32.9893 115.526 32.3973 115.857 31.864C116.187 31.3307 116.63 30.904 117.185 30.584C117.739 30.264 118.358 30.104 119.041 30.104C119.915 30.104 120.641 30.36 121.217 30.872C121.793 31.384 122.182 32.088 122.385 32.984L116.929 34.904L116.577 34.024L121.057 32.392L120.737 32.6C120.609 32.248 120.395 31.944 120.097 31.688C119.798 31.4213 119.409 31.288 118.929 31.288C118.523 31.288 118.161 31.3893 117.841 31.592C117.521 31.784 117.27 32.0507 117.089 32.392C116.907 32.7333 116.817 33.1227 116.817 33.56C116.817 34.0187 116.913 34.424 117.105 34.776C117.297 35.1173 117.558 35.3893 117.889 35.592C118.23 35.784 118.614 35.88 119.041 35.88C119.329 35.88 119.606 35.8267 119.873 35.72C120.15 35.6133 120.406 35.4747 120.641 35.304L121.329 36.408C120.998 36.632 120.625 36.8133 120.209 36.952C119.803 37.0907 119.403 37.16 119.009 37.16ZM138.176 36.136C137.984 36.264 137.722 36.408 137.392 36.568C137.061 36.728 136.672 36.8613 136.224 36.968C135.786 37.0747 135.306 37.128 134.784 37.128C133.888 37.1173 133.077 36.9573 132.352 36.648C131.637 36.3387 131.029 35.9173 130.528 35.384C130.026 34.8507 129.637 34.2373 129.36 33.544C129.093 32.84 128.96 32.0933 128.96 31.304C128.96 30.44 129.098 29.6453 129.376 28.92C129.664 28.184 130.064 27.5493 130.576 27.016C131.088 26.472 131.69 26.0507 132.384 25.752C133.088 25.4533 133.856 25.304 134.688 25.304C135.381 25.304 136.01 25.4 136.576 25.592C137.141 25.7733 137.626 25.992 138.032 26.248L137.408 27.688C137.088 27.4747 136.698 27.272 136.24 27.08C135.792 26.888 135.29 26.792 134.736 26.792C134.17 26.792 133.637 26.904 133.136 27.128C132.634 27.352 132.192 27.6667 131.808 28.072C131.424 28.4773 131.12 28.952 130.896 29.496C130.682 30.0293 130.576 30.6053 130.576 31.224C130.576 31.8533 130.672 32.44 130.864 32.984C131.066 33.5173 131.349 33.9813 131.712 34.376C132.085 34.7707 132.533 35.08 133.056 35.304C133.578 35.528 134.165 35.64 134.816 35.64C135.402 35.64 135.925 35.5493 136.384 35.368C136.842 35.1867 137.221 34.984 137.52 34.76L138.176 36.136ZM143.173 37.16C142.554 37.16 141.989 37.0267 141.477 36.76C140.976 36.4933 140.576 36.104 140.277 35.592C139.989 35.0693 139.845 34.4347 139.845 33.688C139.845 32.952 140 32.3173 140.309 31.784C140.618 31.24 141.029 30.824 141.541 30.536C142.064 30.248 142.634 30.104 143.253 30.104C143.872 30.104 144.394 30.248 144.821 30.536C145.248 30.8133 145.573 31.144 145.797 31.528L145.701 31.784L145.845 30.376H147.221V37H145.733V35.272L145.893 35.656C145.85 35.7627 145.754 35.9013 145.605 36.072C145.466 36.232 145.274 36.3973 145.029 36.568C144.794 36.7387 144.522 36.8827 144.213 37C143.904 37.1067 143.557 37.16 143.173 37.16ZM143.573 35.928C143.946 35.928 144.282 35.8587 144.581 35.72C144.88 35.5813 145.125 35.3893 145.317 35.144C145.52 34.888 145.658 34.584 145.733 34.232V32.936C145.648 32.616 145.498 32.3387 145.285 32.104C145.072 31.8587 144.816 31.672 144.517 31.544C144.218 31.4053 143.888 31.336 143.525 31.336C143.13 31.336 142.768 31.432 142.437 31.624C142.106 31.816 141.84 32.0827 141.637 32.424C141.445 32.7653 141.349 33.1653 141.349 33.624C141.349 34.0507 141.45 34.44 141.653 34.792C141.856 35.144 142.128 35.4213 142.469 35.624C142.81 35.8267 143.178 35.928 143.573 35.928ZM153.7 37.16C153.199 37.16 152.713 37.0427 152.244 36.808C151.785 36.5733 151.428 36.2587 151.172 35.864L151.268 35.4V40.184H149.796V30.28H151.076L151.284 31.976L151.124 31.512C151.444 31.1067 151.849 30.7707 152.34 30.504C152.831 30.2373 153.38 30.104 153.988 30.104C154.607 30.104 155.161 30.2533 155.652 30.552C156.153 30.8507 156.548 31.2667 156.836 31.8C157.124 32.3333 157.268 32.9573 157.268 33.672C157.268 34.3867 157.113 35.0053 156.804 35.528C156.495 36.0507 156.068 36.456 155.524 36.744C154.991 37.0213 154.383 37.16 153.7 37.16ZM153.412 35.976C153.839 35.976 154.228 35.88 154.58 35.688C154.943 35.4853 155.231 35.2133 155.444 34.872C155.657 34.52 155.764 34.1253 155.764 33.688C155.764 33.24 155.663 32.8453 155.46 32.504C155.257 32.152 154.985 31.8747 154.644 31.672C154.313 31.4693 153.94 31.368 153.524 31.368C153.14 31.368 152.793 31.4427 152.484 31.592C152.175 31.7413 151.919 31.9493 151.716 32.216C151.513 32.472 151.369 32.7707 151.284 33.112V34.216C151.337 34.5573 151.465 34.8613 151.668 35.128C151.871 35.3947 152.121 35.6027 152.42 35.752C152.729 35.9013 153.06 35.976 153.412 35.976ZM161.136 37.128C160.667 37.128 160.208 37.048 159.76 36.888C159.323 36.7173 158.96 36.4667 158.672 36.136L159.296 35.272C159.574 35.5387 159.856 35.7413 160.144 35.88C160.443 36.008 160.736 36.072 161.024 36.072C161.238 36.072 161.435 36.0453 161.616 35.992C161.798 35.9387 161.942 35.8533 162.048 35.736C162.166 35.608 162.224 35.4373 162.224 35.224C162.224 34.9893 162.144 34.8027 161.984 34.664C161.835 34.5253 161.638 34.4133 161.392 34.328C161.158 34.2427 160.907 34.1627 160.64 34.088C160.096 33.9067 159.68 33.656 159.392 33.336C159.104 33.016 158.96 32.6267 158.96 32.168C158.96 31.816 159.046 31.4907 159.216 31.192C159.398 30.8827 159.659 30.632 160 30.44C160.352 30.248 160.784 30.152 161.296 30.152C161.755 30.152 162.166 30.2107 162.528 30.328C162.891 30.4347 163.232 30.616 163.552 30.872L162.96 31.8C162.768 31.5973 162.539 31.448 162.272 31.352C162.006 31.256 161.766 31.2027 161.552 31.192C161.371 31.1813 161.195 31.208 161.024 31.272C160.864 31.336 160.731 31.4267 160.624 31.544C160.518 31.6613 160.464 31.8 160.464 31.96C160.464 32.184 160.539 32.3653 160.688 32.504C160.838 32.6427 161.03 32.7547 161.264 32.84C161.51 32.9147 161.75 32.9947 161.984 33.08C162.315 33.176 162.608 33.304 162.864 33.464C163.12 33.624 163.323 33.8213 163.472 34.056C163.632 34.2907 163.712 34.584 163.712 34.936C163.712 35.3307 163.616 35.6987 163.424 36.04C163.243 36.3707 162.96 36.6373 162.576 36.84C162.203 37.032 161.723 37.128 161.136 37.128ZM167.892 37.256C167.295 37.256 166.799 37.0747 166.404 36.712C166.02 36.3387 165.817 35.8587 165.796 35.272V30.376H167.284V34.744C167.305 35.1067 167.407 35.4 167.588 35.624C167.78 35.848 168.079 35.9653 168.484 35.976C168.857 35.976 169.188 35.8693 169.476 35.656C169.775 35.432 170.015 35.1333 170.196 34.76C170.377 34.376 170.468 33.944 170.468 33.464V30.376H171.956V37H170.596L170.468 35.368L170.548 35.656C170.42 35.9653 170.223 36.2427 169.956 36.488C169.7 36.7227 169.396 36.9093 169.044 37.048C168.692 37.1867 168.308 37.256 167.892 37.256ZM174.53 24.616H176.018V37H174.53V24.616ZM181.665 37.16C180.908 37.16 180.257 37.0107 179.713 36.712C179.169 36.4027 178.748 35.9867 178.449 35.464C178.161 34.9307 178.017 34.3227 178.017 33.64C178.017 32.9893 178.182 32.3973 178.513 31.864C178.844 31.3307 179.286 30.904 179.841 30.584C180.396 30.264 181.014 30.104 181.697 30.104C182.572 30.104 183.297 30.36 183.873 30.872C184.449 31.384 184.838 32.088 185.041 32.984L179.585 34.904L179.233 34.024L183.713 32.392L183.393 32.6C183.265 32.248 183.052 31.944 182.753 31.688C182.454 31.4213 182.065 31.288 181.585 31.288C181.18 31.288 180.817 31.3893 180.497 31.592C180.177 31.784 179.926 32.0507 179.745 32.392C179.564 32.7333 179.473 33.1227 179.473 33.56C179.473 34.0187 179.569 34.424 179.761 34.776C179.953 35.1173 180.214 35.3893 180.545 35.592C180.886 35.784 181.27 35.88 181.697 35.88C181.985 35.88 182.262 35.8267 182.529 35.72C182.806 35.6133 183.062 35.4747 183.297 35.304L183.985 36.408C183.654 36.632 183.281 36.8133 182.865 36.952C182.46 37.0907 182.06 37.16 181.665 37.16ZM191.968 30.376H193.456V37H191.968V30.376ZM191.856 27.976C191.856 27.7413 191.947 27.544 192.128 27.384C192.32 27.224 192.528 27.144 192.752 27.144C192.976 27.144 193.173 27.224 193.344 27.384C193.525 27.544 193.616 27.7413 193.616 27.976C193.616 28.2213 193.525 28.424 193.344 28.584C193.173 28.7333 192.976 28.808 192.752 28.808C192.528 28.808 192.32 28.728 192.128 28.568C191.947 28.408 191.856 28.2107 191.856 27.976ZM197.886 37.128C197.417 37.128 196.958 37.048 196.51 36.888C196.073 36.7173 195.71 36.4667 195.422 36.136L196.046 35.272C196.324 35.5387 196.606 35.7413 196.894 35.88C197.193 36.008 197.486 36.072 197.774 36.072C197.988 36.072 198.185 36.0453 198.366 35.992C198.548 35.9387 198.692 35.8533 198.798 35.736C198.916 35.608 198.974 35.4373 198.974 35.224C198.974 34.9893 198.894 34.8027 198.734 34.664C198.585 34.5253 198.388 34.4133 198.142 34.328C197.908 34.2427 197.657 34.1627 197.39 34.088C196.846 33.9067 196.43 33.656 196.142 33.336C195.854 33.016 195.71 32.6267 195.71 32.168C195.71 31.816 195.796 31.4907 195.966 31.192C196.148 30.8827 196.409 30.632 196.75 30.44C197.102 30.248 197.534 30.152 198.046 30.152C198.505 30.152 198.916 30.2107 199.278 30.328C199.641 30.4347 199.982 30.616 200.302 30.872L199.71 31.8C199.518 31.5973 199.289 31.448 199.022 31.352C198.756 31.256 198.516 31.2027 198.302 31.192C198.121 31.1813 197.945 31.208 197.774 31.272C197.614 31.336 197.481 31.4267 197.374 31.544C197.268 31.6613 197.214 31.8 197.214 31.96C197.214 32.184 197.289 32.3653 197.438 32.504C197.588 32.6427 197.78 32.7547 198.014 32.84C198.26 32.9147 198.5 32.9947 198.734 33.08C199.065 33.176 199.358 33.304 199.614 33.464C199.87 33.624 200.073 33.8213 200.222 34.056C200.382 34.2907 200.462 34.584 200.462 34.936C200.462 35.3307 200.366 35.6987 200.174 36.04C199.993 36.3707 199.71 36.6373 199.326 36.84C198.953 37.032 198.473 37.128 197.886 37.128ZM208.249 27.464H209.737V30.408H211.561V31.576H209.737V37H208.249V31.576H207.033V30.408H208.249V27.464ZM213.359 37V24.616H214.815V31.912L214.783 31.64C215.007 31.2027 215.348 30.84 215.807 30.552C216.276 30.264 216.825 30.12 217.455 30.12C218.084 30.12 218.596 30.3067 218.991 30.68C219.396 31.0427 219.604 31.5173 219.615 32.104V37H218.111V32.632C218.1 32.2693 217.993 31.976 217.791 31.752C217.599 31.5173 217.295 31.4 216.879 31.4C216.495 31.4 216.148 31.512 215.839 31.736C215.529 31.9493 215.284 32.2427 215.103 32.616C214.932 32.9893 214.847 33.416 214.847 33.896V37H213.359ZM225.274 37.16C224.517 37.16 223.866 37.0107 223.322 36.712C222.778 36.4027 222.357 35.9867 222.058 35.464C221.77 34.9307 221.626 34.3227 221.626 33.64C221.626 32.9893 221.792 32.3973 222.122 31.864C222.453 31.3307 222.896 30.904 223.45 30.584C224.005 30.264 224.624 30.104 225.306 30.104C226.181 30.104 226.906 30.36 227.482 30.872C228.058 31.384 228.448 32.088 228.65 32.984L223.194 34.904L222.842 34.024L227.322 32.392L227.002 32.6C226.874 32.248 226.661 31.944 226.362 31.688C226.064 31.4213 225.674 31.288 225.194 31.288C224.789 31.288 224.426 31.3893 224.106 31.592C223.786 31.784 223.536 32.0507 223.354 32.392C223.173 32.7333 223.082 33.1227 223.082 33.56C223.082 34.0187 223.178 34.424 223.37 34.776C223.562 35.1173 223.824 35.3893 224.154 35.592C224.496 35.784 224.88 35.88 225.306 35.88C225.594 35.88 225.872 35.8267 226.138 35.72C226.416 35.6133 226.672 35.4747 226.906 35.304L227.594 36.408C227.264 36.632 226.89 36.8133 226.474 36.952C226.069 37.0907 225.669 37.16 225.274 37.16ZM238.649 37.16C237.892 37.16 237.241 37.0107 236.697 36.712C236.153 36.4027 235.732 35.9867 235.433 35.464C235.145 34.9307 235.001 34.3227 235.001 33.64C235.001 32.9893 235.167 32.3973 235.497 31.864C235.828 31.3307 236.271 30.904 236.825 30.584C237.38 30.264 237.999 30.104 238.681 30.104C239.556 30.104 240.281 30.36 240.857 30.872C241.433 31.384 241.823 32.088 242.025 32.984L236.569 34.904L236.217 34.024L240.697 32.392L240.377 32.6C240.249 32.248 240.036 31.944 239.737 31.688C239.439 31.4213 239.049 31.288 238.569 31.288C238.164 31.288 237.801 31.3893 237.481 31.592C237.161 31.784 236.911 32.0507 236.729 32.392C236.548 32.7333 236.457 33.1227 236.457 33.56C236.457 34.0187 236.553 34.424 236.745 34.776C236.937 35.1173 237.199 35.3893 237.529 35.592C237.871 35.784 238.255 35.88 238.681 35.88C238.969 35.88 239.247 35.8267 239.513 35.72C239.791 35.6133 240.047 35.4747 240.281 35.304L240.969 36.408C240.639 36.632 240.265 36.8133 239.849 36.952C239.444 37.0907 239.044 37.16 238.649 37.16ZM246.198 32.84L247.782 30.376H249.286L246.742 33.928L246.198 32.84ZM249.542 37H247.75L242.71 30.376H244.55L249.542 37ZM246.038 34.536L244.294 37H242.79L245.318 33.544L246.038 34.536ZM256.406 36.392C256.108 36.6267 255.75 36.8133 255.334 36.952C254.918 37.0907 254.502 37.16 254.086 37.16C253.361 37.16 252.726 37.016 252.182 36.728C251.638 36.44 251.212 36.04 250.902 35.528C250.604 35.0053 250.454 34.392 250.454 33.688C250.454 32.984 250.614 32.3707 250.934 31.848C251.265 31.3253 251.692 30.9253 252.214 30.648C252.748 30.36 253.318 30.216 253.926 30.216C254.46 30.216 254.934 30.2907 255.35 30.44C255.777 30.5893 256.14 30.792 256.438 31.048L255.702 32.008C255.51 31.8587 255.276 31.7253 254.998 31.608C254.721 31.4907 254.406 31.432 254.054 31.432C253.67 31.432 253.313 31.5333 252.982 31.736C252.662 31.928 252.406 32.1947 252.214 32.536C252.033 32.8773 251.942 33.2613 251.942 33.688C251.942 34.0933 252.038 34.472 252.23 34.824C252.422 35.1653 252.689 35.4373 253.03 35.64C253.372 35.832 253.761 35.928 254.198 35.928C254.486 35.928 254.748 35.8853 254.982 35.8C255.228 35.7147 255.446 35.5973 255.638 35.448L256.406 36.392ZM258.327 24.616H259.815V37H258.327V24.616ZM264.486 37.256C263.888 37.256 263.392 37.0747 262.998 36.712C262.614 36.3387 262.411 35.8587 262.39 35.272V30.376H263.878V34.744C263.899 35.1067 264 35.4 264.182 35.624C264.374 35.848 264.672 35.9653 265.078 35.976C265.451 35.976 265.782 35.8693 266.07 35.656C266.368 35.432 266.608 35.1333 266.79 34.76C266.971 34.376 267.062 33.944 267.062 33.464V30.376H268.55V37H267.19L267.062 35.368L267.142 35.656C267.014 35.9653 266.816 36.2427 266.55 36.488C266.294 36.7227 265.99 36.9093 265.638 37.048C265.286 37.1867 264.902 37.256 264.486 37.256ZM272.98 37.128C272.511 37.128 272.052 37.048 271.604 36.888C271.167 36.7173 270.804 36.4667 270.516 36.136L271.14 35.272C271.417 35.5387 271.7 35.7413 271.988 35.88C272.287 36.008 272.58 36.072 272.868 36.072C273.081 36.072 273.279 36.0453 273.46 35.992C273.641 35.9387 273.785 35.8533 273.892 35.736C274.009 35.608 274.068 35.4373 274.068 35.224C274.068 34.9893 273.988 34.8027 273.828 34.664C273.679 34.5253 273.481 34.4133 273.236 34.328C273.001 34.2427 272.751 34.1627 272.484 34.088C271.94 33.9067 271.524 33.656 271.236 33.336C270.948 33.016 270.804 32.6267 270.804 32.168C270.804 31.816 270.889 31.4907 271.06 31.192C271.241 30.8827 271.503 30.632 271.844 30.44C272.196 30.248 272.628 30.152 273.14 30.152C273.599 30.152 274.009 30.2107 274.372 30.328C274.735 30.4347 275.076 30.616 275.396 30.872L274.804 31.8C274.612 31.5973 274.383 31.448 274.116 31.352C273.849 31.256 273.609 31.2027 273.396 31.192C273.215 31.1813 273.039 31.208 272.868 31.272C272.708 31.336 272.575 31.4267 272.468 31.544C272.361 31.6613 272.308 31.8 272.308 31.96C272.308 32.184 272.383 32.3653 272.532 32.504C272.681 32.6427 272.873 32.7547 273.108 32.84C273.353 32.9147 273.593 32.9947 273.828 33.08C274.159 33.176 274.452 33.304 274.708 33.464C274.964 33.624 275.167 33.8213 275.316 34.056C275.476 34.2907 275.556 34.584 275.556 34.936C275.556 35.3307 275.46 35.6987 275.268 36.04C275.087 36.3707 274.804 36.6373 274.42 36.84C274.047 37.032 273.567 37.128 272.98 37.128ZM277.64 30.376H279.128V37H277.64V30.376ZM277.528 27.976C277.528 27.7413 277.618 27.544 277.8 27.384C277.992 27.224 278.2 27.144 278.424 27.144C278.648 27.144 278.845 27.224 279.016 27.384C279.197 27.544 279.288 27.7413 279.288 27.976C279.288 28.2213 279.197 28.424 279.016 28.584C278.845 28.7333 278.648 28.808 278.424 28.808C278.2 28.808 277.992 28.728 277.8 28.568C277.618 28.408 277.528 28.2107 277.528 27.976ZM284.39 37.192L280.71 30.376H282.47L284.966 35.64L284.054 35.608L286.342 30.376H288.006L284.47 37.192H284.39ZM292.524 37.16C291.767 37.16 291.116 37.0107 290.572 36.712C290.028 36.4027 289.607 35.9867 289.308 35.464C289.02 34.9307 288.876 34.3227 288.876 33.64C288.876 32.9893 289.042 32.3973 289.372 31.864C289.703 31.3307 290.146 30.904 290.7 30.584C291.255 30.264 291.874 30.104 292.556 30.104C293.431 30.104 294.156 30.36 294.732 30.872C295.308 31.384 295.698 32.088 295.9 32.984L290.444 34.904L290.092 34.024L294.572 32.392L294.252 32.6C294.124 32.248 293.911 31.944 293.612 31.688C293.314 31.4213 292.924 31.288 292.444 31.288C292.039 31.288 291.676 31.3893 291.356 31.592C291.036 31.784 290.786 32.0507 290.604 32.392C290.423 32.7333 290.332 33.1227 290.332 33.56C290.332 34.0187 290.428 34.424 290.62 34.776C290.812 35.1173 291.074 35.3893 291.404 35.592C291.746 35.784 292.13 35.88 292.556 35.88C292.844 35.88 293.122 35.8267 293.388 35.72C293.666 35.6133 293.922 35.4747 294.156 35.304L294.844 36.408C294.514 36.632 294.14 36.8133 293.724 36.952C293.319 37.0907 292.919 37.16 292.524 37.16ZM306.859 37.16C306.251 37.16 305.713 37.0267 305.243 36.76C304.785 36.4933 304.417 36.1573 304.139 35.752L304.315 35.288V37H302.827V24.616H304.299V31.896L304.251 31.336C304.518 30.9733 304.897 30.68 305.387 30.456C305.889 30.2213 306.443 30.104 307.051 30.104C307.649 30.104 308.193 30.248 308.683 30.536C309.174 30.824 309.563 31.2293 309.851 31.752C310.15 32.264 310.299 32.8773 310.299 33.592C310.299 34.3387 310.139 34.9787 309.819 35.512C309.51 36.0453 309.094 36.456 308.571 36.744C308.049 37.0213 307.478 37.16 306.859 37.16ZM306.555 35.896C306.982 35.896 307.366 35.7947 307.707 35.592C308.049 35.3893 308.315 35.1173 308.507 34.776C308.699 34.424 308.795 34.024 308.795 33.576C308.795 33.1493 308.694 32.7653 308.491 32.424C308.299 32.072 308.033 31.7947 307.691 31.592C307.361 31.3893 306.982 31.288 306.555 31.288C306.193 31.288 305.857 31.3573 305.547 31.496C305.238 31.6347 304.977 31.8267 304.763 32.072C304.55 32.3067 304.401 32.584 304.315 32.904V34.232C304.401 34.552 304.545 34.84 304.747 35.096C304.95 35.3413 305.206 35.5387 305.515 35.688C305.825 35.8267 306.171 35.896 306.555 35.896ZM311.736 33.624C311.736 32.9627 311.89 32.3653 312.2 31.832C312.52 31.2987 312.957 30.8773 313.512 30.568C314.066 30.2587 314.696 30.104 315.4 30.104C316.125 30.104 316.76 30.2587 317.304 30.568C317.848 30.8773 318.269 31.2987 318.568 31.832C318.866 32.3653 319.016 32.9627 319.016 33.624C319.016 34.2853 318.866 34.888 318.568 35.432C318.269 35.9653 317.842 36.3867 317.288 36.696C316.744 37.0053 316.109 37.16 315.384 37.16C314.68 37.16 314.05 37.016 313.496 36.728C312.952 36.4293 312.52 36.0187 312.2 35.496C311.89 34.9627 311.736 34.3387 311.736 33.624ZM313.224 33.64C313.224 34.0667 313.32 34.456 313.512 34.808C313.704 35.1493 313.96 35.4213 314.28 35.624C314.61 35.8267 314.973 35.928 315.368 35.928C315.784 35.928 316.152 35.8267 316.472 35.624C316.802 35.4213 317.058 35.1493 317.24 34.808C317.421 34.456 317.512 34.0667 317.512 33.64C317.512 33.2133 317.421 32.8293 317.24 32.488C317.058 32.136 316.802 31.8587 316.472 31.656C316.152 31.4427 315.784 31.336 315.368 31.336C314.962 31.336 314.594 31.4427 314.264 31.656C313.944 31.8693 313.688 32.152 313.496 32.504C313.314 32.8453 313.224 33.224 313.224 33.64ZM323.37 32.84L324.954 30.376H326.458L323.914 33.928L323.37 32.84ZM326.714 37H324.922L319.882 30.376H321.722L326.714 37ZM323.21 34.536L321.466 37H319.962L322.49 33.544L323.21 34.536ZM333.374 30.376H334.862V37H333.374V30.376ZM333.262 27.976C333.262 27.7413 333.353 27.544 333.534 27.384C333.726 27.224 333.934 27.144 334.158 27.144C334.382 27.144 334.579 27.224 334.75 27.384C334.931 27.544 335.022 27.7413 335.022 27.976C335.022 28.2213 334.931 28.424 334.75 28.584C334.579 28.7333 334.382 28.808 334.158 28.808C333.934 28.808 333.726 28.728 333.534 28.568C333.353 28.408 333.262 28.2107 333.262 27.976ZM338.765 30.376L338.893 31.992L338.829 31.736C339.042 31.2453 339.389 30.856 339.869 30.568C340.349 30.2693 340.903 30.12 341.533 30.12C342.162 30.12 342.674 30.3067 343.069 30.68C343.474 31.0427 343.682 31.5173 343.693 32.104V37H342.189V32.632C342.178 32.2693 342.071 31.976 341.869 31.752C341.677 31.5173 341.373 31.4 340.957 31.4C340.573 31.4 340.226 31.5067 339.917 31.72C339.607 31.9333 339.362 32.2267 339.181 32.6C339.01 32.9733 338.925 33.4053 338.925 33.896V37H337.437V30.376H338.765ZM351.983 27.464H353.471V30.408H355.295V31.576H353.471V37H351.983V31.576H350.767V30.408H351.983V27.464ZM357.093 37V24.616H358.549V31.912L358.517 31.64C358.741 31.2027 359.082 30.84 359.541 30.552C360.01 30.264 360.56 30.12 361.189 30.12C361.818 30.12 362.33 30.3067 362.725 30.68C363.13 31.0427 363.338 31.5173 363.349 32.104V37H361.845V32.632C361.834 32.2693 361.728 31.976 361.525 31.752C361.333 31.5173 361.029 31.4 360.613 31.4C360.229 31.4 359.882 31.512 359.573 31.736C359.264 31.9493 359.018 32.2427 358.837 32.616C358.666 32.9893 358.581 33.416 358.581 33.896V37H357.093ZM369.009 37.16C368.251 37.16 367.601 37.0107 367.057 36.712C366.513 36.4027 366.091 35.9867 365.793 35.464C365.505 34.9307 365.361 34.3227 365.361 33.64C365.361 32.9893 365.526 32.3973 365.857 31.864C366.187 31.3307 366.63 30.904 367.185 30.584C367.739 30.264 368.358 30.104 369.041 30.104C369.915 30.104 370.641 30.36 371.217 30.872C371.793 31.384 372.182 32.088 372.385 32.984L366.929 34.904L366.577 34.024L371.057 32.392L370.737 32.6C370.609 32.248 370.395 31.944 370.097 31.688C369.798 31.4213 369.409 31.288 368.929 31.288C368.523 31.288 368.161 31.3893 367.841 31.592C367.521 31.784 367.27 32.0507 367.089 32.392C366.907 32.7333 366.817 33.1227 366.817 33.56C366.817 34.0187 366.913 34.424 367.105 34.776C367.297 35.1173 367.558 35.3893 367.889 35.592C368.23 35.784 368.614 35.88 369.041 35.88C369.329 35.88 369.606 35.8267 369.873 35.72C370.15 35.6133 370.406 35.4747 370.641 35.304L371.329 36.408C370.998 36.632 370.625 36.8133 370.209 36.952C369.803 37.0907 369.403 37.16 369.009 37.16ZM379.68 25.432H387.2V26.92H381.232V30.44H386.56V31.928H381.232V35.512H387.424V37H379.68V25.432ZM392.437 37.192L388.757 30.376H390.517L393.013 35.64L392.101 35.608L394.389 30.376H396.053L392.517 37.192H392.437ZM400.571 37.16C399.814 37.16 399.163 37.0107 398.619 36.712C398.075 36.4027 397.654 35.9867 397.355 35.464C397.067 34.9307 396.923 34.3227 396.923 33.64C396.923 32.9893 397.088 32.3973 397.419 31.864C397.75 31.3307 398.192 30.904 398.747 30.584C399.302 30.264 399.92 30.104 400.603 30.104C401.478 30.104 402.203 30.36 402.779 30.872C403.355 31.384 403.744 32.088 403.947 32.984L398.491 34.904L398.139 34.024L402.619 32.392L402.299 32.6C402.171 32.248 401.958 31.944 401.659 31.688C401.36 31.4213 400.971 31.288 400.491 31.288C400.086 31.288 399.723 31.3893 399.403 31.592C399.083 31.784 398.832 32.0507 398.651 32.392C398.47 32.7333 398.379 33.1227 398.379 33.56C398.379 34.0187 398.475 34.424 398.667 34.776C398.859 35.1173 399.12 35.3893 399.451 35.592C399.792 35.784 400.176 35.88 400.603 35.88C400.891 35.88 401.168 35.8267 401.435 35.72C401.712 35.6133 401.968 35.4747 402.203 35.304L402.891 36.408C402.56 36.632 402.187 36.8133 401.771 36.952C401.366 37.0907 400.966 37.16 400.571 37.16ZM407.14 30.376L407.284 32.296L407.204 32.04C407.374 31.6347 407.62 31.2933 407.94 31.016C408.27 30.728 408.612 30.5093 408.964 30.36C409.326 30.2 409.641 30.12 409.908 30.12L409.828 31.592C409.326 31.56 408.884 31.656 408.5 31.88C408.126 32.104 407.828 32.4027 407.604 32.776C407.39 33.1493 407.284 33.5493 407.284 33.976V37H405.812V30.376H407.14ZM413.155 30.376L413.283 31.864L413.219 31.736C413.465 31.2347 413.811 30.84 414.259 30.552C414.718 30.264 415.241 30.12 415.827 30.12C416.201 30.12 416.531 30.1787 416.819 30.296C417.107 30.4133 417.342 30.584 417.523 30.808C417.715 31.0213 417.838 31.288 417.891 31.608L417.811 31.656C418.067 31.176 418.419 30.8027 418.867 30.536C419.326 30.2587 419.806 30.12 420.307 30.12C420.958 30.12 421.47 30.3067 421.843 30.68C422.227 31.0427 422.425 31.5173 422.435 32.104V37H420.947V32.632C420.937 32.2907 420.851 32.008 420.691 31.784C420.542 31.5493 420.275 31.4213 419.891 31.4C419.507 31.4 419.161 31.5173 418.851 31.752C418.553 31.9867 418.318 32.2907 418.147 32.664C417.977 33.0267 417.886 33.4213 417.875 33.848V37H416.387V32.632C416.377 32.2907 416.286 32.008 416.115 31.784C415.955 31.5493 415.683 31.4213 415.299 31.4C414.905 31.4 414.558 31.5173 414.259 31.752C413.961 31.9867 413.726 32.2907 413.555 32.664C413.395 33.0373 413.315 33.4373 413.315 33.864V37H411.827V30.376H413.155ZM424.454 33.624C424.454 32.9627 424.609 32.3653 424.918 31.832C425.238 31.2987 425.676 30.8773 426.23 30.568C426.785 30.2587 427.414 30.104 428.118 30.104C428.844 30.104 429.478 30.2587 430.022 30.568C430.566 30.8773 430.988 31.2987 431.286 31.832C431.585 32.3653 431.734 32.9627 431.734 33.624C431.734 34.2853 431.585 34.888 431.286 35.432C430.988 35.9653 430.561 36.3867 430.006 36.696C429.462 37.0053 428.828 37.16 428.102 37.16C427.398 37.16 426.769 37.016 426.214 36.728C425.67 36.4293 425.238 36.0187 424.918 35.496C424.609 34.9627 424.454 34.3387 424.454 33.624ZM425.942 33.64C425.942 34.0667 426.038 34.456 426.23 34.808C426.422 35.1493 426.678 35.4213 426.998 35.624C427.329 35.8267 427.692 35.928 428.086 35.928C428.502 35.928 428.87 35.8267 429.19 35.624C429.521 35.4213 429.777 35.1493 429.958 34.808C430.14 34.456 430.23 34.0667 430.23 33.64C430.23 33.2133 430.14 32.8293 429.958 32.488C429.777 32.136 429.521 31.8587 429.19 31.656C428.87 31.4427 428.502 31.336 428.086 31.336C427.681 31.336 427.313 31.4427 426.982 31.656C426.662 31.8693 426.406 32.152 426.214 32.504C426.033 32.8453 425.942 33.224 425.942 33.64ZM433.173 33.624C433.173 32.9627 433.328 32.3653 433.637 31.832C433.957 31.2987 434.394 30.8773 434.949 30.568C435.504 30.2587 436.133 30.104 436.837 30.104C437.562 30.104 438.197 30.2587 438.741 30.568C439.285 30.8773 439.706 31.2987 440.005 31.832C440.304 32.3653 440.453 32.9627 440.453 33.624C440.453 34.2853 440.304 34.888 440.005 35.432C439.706 35.9653 439.28 36.3867 438.725 36.696C438.181 37.0053 437.546 37.16 436.821 37.16C436.117 37.16 435.488 37.016 434.933 36.728C434.389 36.4293 433.957 36.0187 433.637 35.496C433.328 34.9627 433.173 34.3387 433.173 33.624ZM434.661 33.64C434.661 34.0667 434.757 34.456 434.949 34.808C435.141 35.1493 435.397 35.4213 435.717 35.624C436.048 35.8267 436.41 35.928 436.805 35.928C437.221 35.928 437.589 35.8267 437.909 35.624C438.24 35.4213 438.496 35.1493 438.677 34.808C438.858 34.456 438.949 34.0667 438.949 33.64C438.949 33.2133 438.858 32.8293 438.677 32.488C438.496 32.136 438.24 31.8587 437.909 31.656C437.589 31.4427 437.221 31.336 436.805 31.336C436.4 31.336 436.032 31.4427 435.701 31.656C435.381 31.8693 435.125 32.152 434.933 32.504C434.752 32.8453 434.661 33.224 434.661 33.64ZM443.796 30.376L443.924 31.992L443.86 31.736C444.073 31.2453 444.42 30.856 444.9 30.568C445.38 30.2693 445.935 30.12 446.564 30.12C447.193 30.12 447.705 30.3067 448.1 30.68C448.505 31.0427 448.713 31.5173 448.724 32.104V37H447.22V32.632C447.209 32.2693 447.103 31.976 446.9 31.752C446.708 31.5173 446.404 31.4 445.988 31.4C445.604 31.4 445.257 31.5067 444.948 31.72C444.639 31.9333 444.393 32.2267 444.212 32.6C444.041 32.9733 443.956 33.4053 443.956 33.896V37H442.468V30.376H443.796ZM459.558 40.28C459.067 40.28 458.635 40.2213 458.262 40.104C457.889 39.9973 457.547 39.8427 457.238 39.64C456.939 39.4373 456.651 39.208 456.374 38.952L457.238 37.944C457.59 38.2747 457.947 38.5307 458.31 38.712C458.673 38.8933 459.078 38.984 459.526 38.984C460.027 38.984 460.449 38.8987 460.79 38.728C461.142 38.568 461.409 38.3387 461.59 38.04C461.771 37.752 461.862 37.416 461.862 37.032L461.878 35.24L462.006 35.528C461.814 35.9867 461.467 36.376 460.966 36.696C460.465 37.0053 459.857 37.16 459.142 37.16C458.534 37.16 457.974 37.0053 457.462 36.696C456.961 36.3867 456.555 35.9707 456.246 35.448C455.947 34.9147 455.798 34.3173 455.798 33.656C455.798 32.9627 455.958 32.3547 456.278 31.832C456.598 31.2987 457.019 30.8773 457.542 30.568C458.065 30.2587 458.635 30.104 459.254 30.104C459.841 30.104 460.374 30.2267 460.854 30.472C461.345 30.7067 461.702 31.0107 461.926 31.384L461.846 31.656L462.006 30.376H463.366V37.048C463.366 37.6453 463.211 38.1893 462.902 38.68C462.593 39.1707 462.155 39.56 461.59 39.848C461.025 40.136 460.347 40.28 459.558 40.28ZM457.286 33.624C457.286 34.0507 457.387 34.44 457.59 34.792C457.793 35.144 458.065 35.4213 458.406 35.624C458.758 35.8267 459.147 35.928 459.574 35.928C459.969 35.928 460.321 35.8587 460.63 35.72C460.95 35.5707 461.217 35.3733 461.43 35.128C461.643 34.872 461.793 34.5787 461.878 34.248V32.936C461.782 32.616 461.622 32.3387 461.398 32.104C461.174 31.8587 460.907 31.672 460.598 31.544C460.289 31.4053 459.947 31.336 459.574 31.336C459.147 31.336 458.758 31.432 458.406 31.624C458.065 31.816 457.793 32.088 457.59 32.44C457.387 32.7813 457.286 33.176 457.286 33.624ZM468.689 37.16C468.07 37.16 467.505 37.0267 466.993 36.76C466.491 36.4933 466.091 36.104 465.793 35.592C465.505 35.0693 465.361 34.4347 465.361 33.688C465.361 32.952 465.515 32.3173 465.825 31.784C466.134 31.24 466.545 30.824 467.057 30.536C467.579 30.248 468.15 30.104 468.769 30.104C469.387 30.104 469.91 30.248 470.337 30.536C470.763 30.8133 471.089 31.144 471.313 31.528L471.217 31.784L471.361 30.376H472.737V37H471.249V35.272L471.409 35.656C471.366 35.7627 471.27 35.9013 471.121 36.072C470.982 36.232 470.79 36.3973 470.545 36.568C470.31 36.7387 470.038 36.8827 469.729 37C469.419 37.1067 469.073 37.16 468.689 37.16ZM469.089 35.928C469.462 35.928 469.798 35.8587 470.097 35.72C470.395 35.5813 470.641 35.3893 470.833 35.144C471.035 34.888 471.174 34.584 471.249 34.232V32.936C471.163 32.616 471.014 32.3387 470.801 32.104C470.587 31.8587 470.331 31.672 470.033 31.544C469.734 31.4053 469.403 31.336 469.041 31.336C468.646 31.336 468.283 31.432 467.953 31.624C467.622 31.816 467.355 32.0827 467.153 32.424C466.961 32.7653 466.865 33.1653 466.865 33.624C466.865 34.0507 466.966 34.44 467.169 34.792C467.371 35.144 467.643 35.4213 467.985 35.624C468.326 35.8267 468.694 35.928 469.089 35.928ZM476.64 30.376L476.768 31.864L476.704 31.736C476.949 31.2347 477.296 30.84 477.744 30.552C478.202 30.264 478.725 30.12 479.312 30.12C479.685 30.12 480.016 30.1787 480.304 30.296C480.592 30.4133 480.826 30.584 481.008 30.808C481.2 31.0213 481.322 31.288 481.376 31.608L481.296 31.656C481.552 31.176 481.904 30.8027 482.352 30.536C482.81 30.2587 483.29 30.12 483.792 30.12C484.442 30.12 484.954 30.3067 485.328 30.68C485.712 31.0427 485.909 31.5173 485.92 32.104V37H484.432V32.632C484.421 32.2907 484.336 32.008 484.176 31.784C484.026 31.5493 483.76 31.4213 483.376 31.4C482.992 31.4 482.645 31.5173 482.336 31.752C482.037 31.9867 481.802 32.2907 481.632 32.664C481.461 33.0267 481.37 33.4213 481.36 33.848V37H479.872V32.632C479.861 32.2907 479.77 32.008 479.6 31.784C479.44 31.5493 479.168 31.4213 478.784 31.4C478.389 31.4 478.042 31.5173 477.744 31.752C477.445 31.9867 477.21 32.2907 477.04 32.664C476.88 33.0373 476.8 33.4373 476.8 33.864V37H475.312V30.376H476.64ZM491.587 37.16C490.829 37.16 490.179 37.0107 489.635 36.712C489.091 36.4027 488.669 35.9867 488.371 35.464C488.083 34.9307 487.939 34.3227 487.939 33.64C487.939 32.9893 488.104 32.3973 488.435 31.864C488.765 31.3307 489.208 30.904 489.763 30.584C490.317 30.264 490.936 30.104 491.619 30.104C492.493 30.104 493.219 30.36 493.795 30.872C494.371 31.384 494.76 32.088 494.963 32.984L489.507 34.904L489.155 34.024L493.635 32.392L493.315 32.6C493.187 32.248 492.973 31.944 492.675 31.688C492.376 31.4213 491.987 31.288 491.507 31.288C491.101 31.288 490.739 31.3893 490.419 31.592C490.099 31.784 489.848 32.0507 489.667 32.392C489.485 32.7333 489.395 33.1227 489.395 33.56C489.395 34.0187 489.491 34.424 489.683 34.776C489.875 35.1173 490.136 35.3893 490.467 35.592C490.808 35.784 491.192 35.88 491.619 35.88C491.907 35.88 492.184 35.8267 492.451 35.72C492.728 35.6133 492.984 35.4747 493.219 35.304L493.907 36.408C493.576 36.632 493.203 36.8133 492.787 36.952C492.381 37.0907 491.981 37.16 491.587 37.16ZM102.036 46.376L103.988 50.84L103.7 50.872L105.524 46.376H106.98L103.94 53.4L101.812 48.856L99.876 53.4L96.804 46.376H98.26L100.324 51.048L99.812 50.952L101.284 47.528L100.756 46.376H102.036ZM108.577 53V40.616H110.033V47.912L110.001 47.64C110.225 47.2027 110.567 46.84 111.025 46.552C111.495 46.264 112.044 46.12 112.673 46.12C113.303 46.12 113.815 46.3067 114.209 46.68C114.615 47.0427 114.823 47.5173 114.833 48.104V53H113.329V48.632C113.319 48.2693 113.212 47.976 113.009 47.752C112.817 47.5173 112.513 47.4 112.097 47.4C111.713 47.4 111.367 47.512 111.057 47.736C110.748 47.9493 110.503 48.2427 110.321 48.616C110.151 48.9893 110.065 49.416 110.065 49.896V53H108.577ZM117.421 46.376H118.909V53H117.421V46.376ZM117.309 43.976C117.309 43.7413 117.4 43.544 117.581 43.384C117.773 43.224 117.981 43.144 118.205 43.144C118.429 43.144 118.626 43.224 118.797 43.384C118.978 43.544 119.069 43.7413 119.069 43.976C119.069 44.2213 118.978 44.424 118.797 44.584C118.626 44.7333 118.429 44.808 118.205 44.808C117.981 44.808 117.773 44.728 117.581 44.568C117.4 44.408 117.309 44.2107 117.309 43.976ZM126.86 52.392C126.561 52.6267 126.204 52.8133 125.788 52.952C125.372 53.0907 124.956 53.16 124.54 53.16C123.814 53.16 123.18 53.016 122.636 52.728C122.092 52.44 121.665 52.04 121.356 51.528C121.057 51.0053 120.908 50.392 120.908 49.688C120.908 48.984 121.068 48.3707 121.388 47.848C121.718 47.3253 122.145 46.9253 122.668 46.648C123.201 46.36 123.772 46.216 124.38 46.216C124.913 46.216 125.388 46.2907 125.804 46.44C126.23 46.5893 126.593 46.792 126.892 47.048L126.156 48.008C125.964 47.8587 125.729 47.7253 125.452 47.608C125.174 47.4907 124.86 47.432 124.508 47.432C124.124 47.432 123.766 47.5333 123.436 47.736C123.116 47.928 122.86 48.1947 122.668 48.536C122.486 48.8773 122.396 49.2613 122.396 49.688C122.396 50.0933 122.492 50.472 122.684 50.824C122.876 51.1653 123.142 51.4373 123.484 51.64C123.825 51.832 124.214 51.928 124.652 51.928C124.94 51.928 125.201 51.8853 125.436 51.8C125.681 51.7147 125.9 51.5973 126.092 51.448L126.86 52.392ZM128.78 53V40.616H130.236V47.912L130.204 47.64C130.428 47.2027 130.77 46.84 131.228 46.552C131.698 46.264 132.247 46.12 132.876 46.12C133.506 46.12 134.018 46.3067 134.412 46.68C134.818 47.0427 135.026 47.5173 135.036 48.104V53H133.532V48.632C133.522 48.2693 133.415 47.976 133.212 47.752C133.02 47.5173 132.716 47.4 132.3 47.4C131.916 47.4 131.57 47.512 131.26 47.736C130.951 47.9493 130.706 48.2427 130.524 48.616C130.354 48.9893 130.268 49.416 130.268 49.896V53H128.78ZM148.063 52.392C147.764 52.6267 147.407 52.8133 146.991 52.952C146.575 53.0907 146.159 53.16 145.743 53.16C145.017 53.16 144.383 53.016 143.839 52.728C143.295 52.44 142.868 52.04 142.559 51.528C142.26 51.0053 142.111 50.392 142.111 49.688C142.111 48.984 142.271 48.3707 142.591 47.848C142.921 47.3253 143.348 46.9253 143.871 46.648C144.404 46.36 144.975 46.216 145.583 46.216C146.116 46.216 146.591 46.2907 147.007 46.44C147.433 46.5893 147.796 46.792 148.095 47.048L147.359 48.008C147.167 47.8587 146.932 47.7253 146.655 47.608C146.377 47.4907 146.063 47.432 145.711 47.432C145.327 47.432 144.969 47.5333 144.639 47.736C144.319 47.928 144.063 48.1947 143.871 48.536C143.689 48.8773 143.599 49.2613 143.599 49.688C143.599 50.0933 143.695 50.472 143.887 50.824C144.079 51.1653 144.345 51.4373 144.687 51.64C145.028 51.832 145.417 51.928 145.855 51.928C146.143 51.928 146.404 51.8853 146.639 51.8C146.884 51.7147 147.103 51.5973 147.295 51.448L148.063 52.392ZM152.736 53.16C152.117 53.16 151.552 53.0267 151.039 52.76C150.538 52.4933 150.138 52.104 149.84 51.592C149.552 51.0693 149.408 50.4347 149.408 49.688C149.408 48.952 149.562 48.3173 149.872 47.784C150.181 47.24 150.592 46.824 151.104 46.536C151.626 46.248 152.197 46.104 152.816 46.104C153.434 46.104 153.957 46.248 154.384 46.536C154.81 46.8133 155.136 47.144 155.36 47.528L155.264 47.784L155.408 46.376H156.784V53H155.296V51.272L155.456 51.656C155.413 51.7627 155.317 51.9013 155.168 52.072C155.029 52.232 154.837 52.3973 154.592 52.568C154.357 52.7387 154.085 52.8827 153.776 53C153.466 53.1067 153.12 53.16 152.736 53.16ZM153.136 51.928C153.509 51.928 153.845 51.8587 154.144 51.72C154.442 51.5813 154.688 51.3893 154.88 51.144C155.082 50.888 155.221 50.584 155.296 50.232V48.936C155.21 48.616 155.061 48.3387 154.848 48.104C154.634 47.8587 154.378 47.672 154.08 47.544C153.781 47.4053 153.45 47.336 153.088 47.336C152.693 47.336 152.33 47.432 152 47.624C151.669 47.816 151.402 48.0827 151.2 48.424C151.008 48.7653 150.912 49.1653 150.912 49.624C150.912 50.0507 151.013 50.44 151.216 50.792C151.418 51.144 151.69 51.4213 152.032 51.624C152.373 51.8267 152.741 51.928 153.136 51.928ZM160.687 46.376L160.815 47.992L160.751 47.736C160.964 47.2453 161.311 46.856 161.791 46.568C162.271 46.2693 162.825 46.12 163.455 46.12C164.084 46.12 164.596 46.3067 164.991 46.68C165.396 47.0427 165.604 47.5173 165.615 48.104V53H164.111V48.632C164.1 48.2693 163.993 47.976 163.791 47.752C163.599 47.5173 163.295 47.4 162.879 47.4C162.495 47.4 162.148 47.5067 161.839 47.72C161.529 47.9333 161.284 48.2267 161.103 48.6C160.932 48.9733 160.847 49.4053 160.847 49.896V53H159.359V46.376H160.687ZM177.297 53.16C176.689 53.16 176.15 53.0267 175.681 52.76C175.222 52.4933 174.854 52.1573 174.577 51.752L174.753 51.288V53H173.265V40.616H174.737V47.896L174.689 47.336C174.955 46.9733 175.334 46.68 175.825 46.456C176.326 46.2213 176.881 46.104 177.489 46.104C178.086 46.104 178.63 46.248 179.121 46.536C179.611 46.824 180.001 47.2293 180.289 47.752C180.587 48.264 180.737 48.8773 180.737 49.592C180.737 50.3387 180.577 50.9787 180.257 51.512C179.947 52.0453 179.531 52.456 179.009 52.744C178.486 53.0213 177.915 53.16 177.297 53.16ZM176.993 51.896C177.419 51.896 177.803 51.7947 178.145 51.592C178.486 51.3893 178.753 51.1173 178.945 50.776C179.137 50.424 179.233 50.024 179.233 49.576C179.233 49.1493 179.131 48.7653 178.929 48.424C178.737 48.072 178.47 47.7947 178.129 47.592C177.798 47.3893 177.419 47.288 176.993 47.288C176.63 47.288 176.294 47.3573 175.985 47.496C175.675 47.6347 175.414 47.8267 175.201 48.072C174.987 48.3067 174.838 48.584 174.753 48.904V50.232C174.838 50.552 174.982 50.84 175.185 51.096C175.387 51.3413 175.643 51.5387 175.953 51.688C176.262 51.8267 176.609 51.896 176.993 51.896ZM185.821 53.16C185.064 53.16 184.413 53.0107 183.869 52.712C183.325 52.4027 182.904 51.9867 182.605 51.464C182.317 50.9307 182.173 50.3227 182.173 49.64C182.173 48.9893 182.338 48.3973 182.669 47.864C183 47.3307 183.442 46.904 183.997 46.584C184.552 46.264 185.17 46.104 185.853 46.104C186.728 46.104 187.453 46.36 188.029 46.872C188.605 47.384 188.994 48.088 189.197 48.984L183.741 50.904L183.389 50.024L187.869 48.392L187.549 48.6C187.421 48.248 187.208 47.944 186.909 47.688C186.61 47.4213 186.221 47.288 185.741 47.288C185.336 47.288 184.973 47.3893 184.653 47.592C184.333 47.784 184.082 48.0507 183.901 48.392C183.72 48.7333 183.629 49.1227 183.629 49.56C183.629 50.0187 183.725 50.424 183.917 50.776C184.109 51.1173 184.37 51.3893 184.701 51.592C185.042 51.784 185.426 51.88 185.853 51.88C186.141 51.88 186.418 51.8267 186.685 51.72C186.962 51.6133 187.218 51.4747 187.453 51.304L188.141 52.408C187.81 52.632 187.437 52.8133 187.021 52.952C186.616 53.0907 186.216 53.16 185.821 53.16ZM200.156 53.16C199.548 53.16 199.009 53.0267 198.54 52.76C198.081 52.4933 197.713 52.1573 197.436 51.752L197.612 51.288V53H196.124V40.616H197.596V47.896L197.548 47.336C197.815 46.9733 198.193 46.68 198.684 46.456C199.185 46.2213 199.74 46.104 200.348 46.104C200.945 46.104 201.489 46.248 201.98 46.536C202.471 46.824 202.86 47.2293 203.148 47.752C203.447 48.264 203.596 48.8773 203.596 49.592C203.596 50.3387 203.436 50.9787 203.116 51.512C202.807 52.0453 202.391 52.456 201.868 52.744C201.345 53.0213 200.775 53.16 200.156 53.16ZM199.852 51.896C200.279 51.896 200.663 51.7947 201.004 51.592C201.345 51.3893 201.612 51.1173 201.804 50.776C201.996 50.424 202.092 50.024 202.092 49.576C202.092 49.1493 201.991 48.7653 201.788 48.424C201.596 48.072 201.329 47.7947 200.988 47.592C200.657 47.3893 200.279 47.288 199.852 47.288C199.489 47.288 199.153 47.3573 198.844 47.496C198.535 47.6347 198.273 47.8267 198.06 48.072C197.847 48.3067 197.697 48.584 197.612 48.904V50.232C197.697 50.552 197.841 50.84 198.044 51.096C198.247 51.3413 198.503 51.5387 198.812 51.688C199.121 51.8267 199.468 51.896 199.852 51.896ZM205.033 49.624C205.033 48.9627 205.187 48.3653 205.497 47.832C205.817 47.2987 206.254 46.8773 206.809 46.568C207.363 46.2587 207.993 46.104 208.697 46.104C209.422 46.104 210.057 46.2587 210.601 46.568C211.145 46.8773 211.566 47.2987 211.865 47.832C212.163 48.3653 212.312 48.9627 212.312 49.624C212.312 50.2853 212.163 50.888 211.865 51.432C211.566 51.9653 211.139 52.3867 210.585 52.696C210.041 53.0053 209.406 53.16 208.681 53.16C207.977 53.16 207.347 53.016 206.793 52.728C206.249 52.4293 205.817 52.0187 205.497 51.496C205.187 50.9627 205.033 50.3387 205.033 49.624ZM206.521 49.64C206.521 50.0667 206.617 50.456 206.809 50.808C207.001 51.1493 207.257 51.4213 207.577 51.624C207.907 51.8267 208.27 51.928 208.665 51.928C209.081 51.928 209.449 51.8267 209.769 51.624C210.099 51.4213 210.355 51.1493 210.537 50.808C210.718 50.456 210.809 50.0667 210.809 49.64C210.809 49.2133 210.718 48.8293 210.537 48.488C210.355 48.136 210.099 47.8587 209.769 47.656C209.449 47.4427 209.081 47.336 208.665 47.336C208.259 47.336 207.891 47.4427 207.561 47.656C207.241 47.8693 206.985 48.152 206.793 48.504C206.611 48.8453 206.521 49.224 206.521 49.64ZM216.423 53.256C215.826 53.256 215.33 53.0747 214.935 52.712C214.551 52.3387 214.349 51.8587 214.327 51.272V46.376H215.815V50.744C215.837 51.1067 215.938 51.4 216.119 51.624C216.311 51.848 216.61 51.9653 217.015 51.976C217.389 51.976 217.719 51.8693 218.007 51.656C218.306 51.432 218.546 51.1333 218.727 50.76C218.909 50.376 218.999 49.944 218.999 49.464V46.376H220.487V53H219.127L218.999 51.368L219.079 51.656C218.951 51.9653 218.754 52.2427 218.487 52.488C218.231 52.7227 217.927 52.9093 217.575 53.048C217.223 53.1867 216.839 53.256 216.423 53.256ZM226.246 56.28C225.755 56.28 225.323 56.2213 224.95 56.104C224.576 55.9973 224.235 55.8427 223.926 55.64C223.627 55.4373 223.339 55.208 223.062 54.952L223.926 53.944C224.278 54.2747 224.635 54.5307 224.998 54.712C225.36 54.8933 225.766 54.984 226.214 54.984C226.715 54.984 227.136 54.8987 227.478 54.728C227.83 54.568 228.096 54.3387 228.278 54.04C228.459 53.752 228.55 53.416 228.55 53.032L228.566 51.24L228.694 51.528C228.502 51.9867 228.155 52.376 227.654 52.696C227.152 53.0053 226.544 53.16 225.83 53.16C225.222 53.16 224.662 53.0053 224.15 52.696C223.648 52.3867 223.243 51.9707 222.934 51.448C222.635 50.9147 222.486 50.3173 222.486 49.656C222.486 48.9627 222.646 48.3547 222.966 47.832C223.286 47.2987 223.707 46.8773 224.23 46.568C224.752 46.2587 225.323 46.104 225.942 46.104C226.528 46.104 227.062 46.2267 227.542 46.472C228.032 46.7067 228.39 47.0107 228.614 47.384L228.534 47.656L228.694 46.376H230.054V53.048C230.054 53.6453 229.899 54.1893 229.59 54.68C229.28 55.1707 228.843 55.56 228.278 55.848C227.712 56.136 227.035 56.28 226.246 56.28ZM223.974 49.624C223.974 50.0507 224.075 50.44 224.278 50.792C224.48 51.144 224.752 51.4213 225.094 51.624C225.446 51.8267 225.835 51.928 226.262 51.928C226.656 51.928 227.008 51.8587 227.318 51.72C227.638 51.5707 227.904 51.3733 228.118 51.128C228.331 50.872 228.48 50.5787 228.566 50.248V48.936C228.47 48.616 228.31 48.3387 228.086 48.104C227.862 47.8587 227.595 47.672 227.286 47.544C226.976 47.4053 226.635 47.336 226.262 47.336C225.835 47.336 225.446 47.432 225.094 47.624C224.752 47.816 224.48 48.088 224.278 48.44C224.075 48.7813 223.974 49.176 223.974 49.624ZM232.624 53V40.616H234.08V47.912L234.048 47.64C234.272 47.2027 234.613 46.84 235.072 46.552C235.541 46.264 236.091 46.12 236.72 46.12C237.349 46.12 237.861 46.3067 238.256 46.68C238.661 47.0427 238.869 47.5173 238.88 48.104V53H237.376V48.632C237.365 48.2693 237.259 47.976 237.056 47.752C236.864 47.5173 236.56 47.4 236.144 47.4C235.76 47.4 235.413 47.512 235.104 47.736C234.795 47.9493 234.549 48.2427 234.368 48.616C234.197 48.9893 234.112 49.416 234.112 49.896V53H232.624ZM242.108 43.464H243.596V46.408H245.42V47.576H243.596V53H242.108V47.576H240.892V46.408H242.108V43.464ZM252.28 46.376H253.768V53H252.28V46.376ZM252.168 43.976C252.168 43.7413 252.259 43.544 252.44 43.384C252.632 43.224 252.84 43.144 253.064 43.144C253.288 43.144 253.486 43.224 253.656 43.384C253.838 43.544 253.928 43.7413 253.928 43.976C253.928 44.2213 253.838 44.424 253.656 44.584C253.486 44.7333 253.288 44.808 253.064 44.808C252.84 44.808 252.632 44.728 252.44 44.568C252.259 44.408 252.168 44.2107 252.168 43.976ZM257.671 46.376L257.799 47.992L257.735 47.736C257.948 47.2453 258.295 46.856 258.775 46.568C259.255 46.2693 259.81 46.12 260.439 46.12C261.068 46.12 261.58 46.3067 261.975 46.68C262.38 47.0427 262.588 47.5173 262.599 48.104V53H261.095V48.632C261.084 48.2693 260.978 47.976 260.775 47.752C260.583 47.5173 260.279 47.4 259.863 47.4C259.479 47.4 259.132 47.5067 258.823 47.72C258.514 47.9333 258.268 48.2267 258.087 48.6C257.916 48.9733 257.831 49.4053 257.831 49.896V53H256.343V46.376H257.671ZM270.889 43.464H272.377V46.408H274.201V47.576H272.377V53H270.889V47.576H269.673V46.408H270.889V43.464ZM275.999 53V40.616H277.455V47.912L277.423 47.64C277.647 47.2027 277.988 46.84 278.447 46.552C278.916 46.264 279.466 46.12 280.095 46.12C280.724 46.12 281.236 46.3067 281.631 46.68C282.036 47.0427 282.244 47.5173 282.255 48.104V53H280.751V48.632C280.74 48.2693 280.634 47.976 280.431 47.752C280.239 47.5173 279.935 47.4 279.519 47.4C279.135 47.4 278.788 47.512 278.479 47.736C278.17 47.9493 277.924 48.2427 277.743 48.616C277.572 48.9893 277.487 49.416 277.487 49.896V53H275.999ZM287.915 53.16C287.158 53.16 286.507 53.0107 285.963 52.712C285.419 52.4027 284.998 51.9867 284.699 51.464C284.411 50.9307 284.267 50.3227 284.267 49.64C284.267 48.9893 284.432 48.3973 284.763 47.864C285.094 47.3307 285.536 46.904 286.091 46.584C286.646 46.264 287.264 46.104 287.947 46.104C288.822 46.104 289.547 46.36 290.123 46.872C290.699 47.384 291.088 48.088 291.291 48.984L285.835 50.904L285.483 50.024L289.963 48.392L289.643 48.6C289.515 48.248 289.302 47.944 289.003 47.688C288.704 47.4213 288.315 47.288 287.835 47.288C287.43 47.288 287.067 47.3893 286.747 47.592C286.427 47.784 286.176 48.0507 285.995 48.392C285.814 48.7333 285.723 49.1227 285.723 49.56C285.723 50.0187 285.819 50.424 286.011 50.776C286.203 51.1173 286.464 51.3893 286.795 51.592C287.136 51.784 287.52 51.88 287.947 51.88C288.235 51.88 288.512 51.8267 288.779 51.72C289.056 51.6133 289.312 51.4747 289.547 51.304L290.235 52.408C289.904 52.632 289.531 52.8133 289.115 52.952C288.71 53.0907 288.31 53.16 287.915 53.16ZM299.546 46.376L299.674 47.864L299.61 47.736C299.855 47.2347 300.202 46.84 300.65 46.552C301.109 46.264 301.631 46.12 302.218 46.12C302.591 46.12 302.922 46.1787 303.21 46.296C303.498 46.4133 303.733 46.584 303.914 46.808C304.106 47.0213 304.229 47.288 304.282 47.608L304.202 47.656C304.458 47.176 304.81 46.8027 305.258 46.536C305.717 46.2587 306.197 46.12 306.698 46.12C307.349 46.12 307.861 46.3067 308.234 46.68C308.618 47.0427 308.815 47.5173 308.826 48.104V53H307.338V48.632C307.327 48.2907 307.242 48.008 307.082 47.784C306.933 47.5493 306.666 47.4213 306.282 47.4C305.898 47.4 305.551 47.5173 305.242 47.752C304.943 47.9867 304.709 48.2907 304.538 48.664C304.367 49.0267 304.277 49.4213 304.266 49.848V53H302.778V48.632C302.767 48.2907 302.677 48.008 302.506 47.784C302.346 47.5493 302.074 47.4213 301.69 47.4C301.295 47.4 300.949 47.5173 300.65 47.752C300.351 47.9867 300.117 48.2907 299.946 48.664C299.786 49.0373 299.706 49.4373 299.706 49.864V53H298.218V46.376H299.546ZM314.173 53.16C313.554 53.16 312.989 53.0267 312.477 52.76C311.976 52.4933 311.576 52.104 311.277 51.592C310.989 51.0693 310.845 50.4347 310.845 49.688C310.845 48.952 311 48.3173 311.309 47.784C311.618 47.24 312.029 46.824 312.541 46.536C313.064 46.248 313.634 46.104 314.253 46.104C314.872 46.104 315.394 46.248 315.821 46.536C316.248 46.8133 316.573 47.144 316.797 47.528L316.701 47.784L316.845 46.376H318.221V53H316.733V51.272L316.893 51.656C316.85 51.7627 316.754 51.9013 316.605 52.072C316.466 52.232 316.274 52.3973 316.029 52.568C315.794 52.7387 315.522 52.8827 315.213 53C314.904 53.1067 314.557 53.16 314.173 53.16ZM314.573 51.928C314.946 51.928 315.282 51.8587 315.581 51.72C315.88 51.5813 316.125 51.3893 316.317 51.144C316.52 50.888 316.658 50.584 316.733 50.232V48.936C316.648 48.616 316.498 48.3387 316.285 48.104C316.072 47.8587 315.816 47.672 315.517 47.544C315.218 47.4053 314.888 47.336 314.525 47.336C314.13 47.336 313.768 47.432 313.437 47.624C313.106 47.816 312.84 48.0827 312.637 48.424C312.445 48.7653 312.349 49.1653 312.349 49.624C312.349 50.0507 312.45 50.44 312.653 50.792C312.856 51.144 313.128 51.4213 313.469 51.624C313.81 51.8267 314.178 51.928 314.573 51.928ZM320.796 46.376H322.284V53H320.796V46.376ZM320.684 43.976C320.684 43.7413 320.775 43.544 320.956 43.384C321.148 43.224 321.356 43.144 321.58 43.144C321.804 43.144 322.001 43.224 322.172 43.384C322.353 43.544 322.444 43.7413 322.444 43.976C322.444 44.2213 322.353 44.424 322.172 44.584C322.001 44.7333 321.804 44.808 321.58 44.808C321.356 44.808 321.148 44.728 320.956 44.568C320.775 44.408 320.684 44.2107 320.684 43.976ZM326.187 46.376L326.315 47.992L326.251 47.736C326.464 47.2453 326.811 46.856 327.291 46.568C327.771 46.2693 328.325 46.12 328.955 46.12C329.584 46.12 330.096 46.3067 330.491 46.68C330.896 47.0427 331.104 47.5173 331.115 48.104V53H329.611V48.632C329.6 48.2693 329.493 47.976 329.291 47.752C329.099 47.5173 328.795 47.4 328.379 47.4C327.995 47.4 327.648 47.5067 327.339 47.72C327.029 47.9333 326.784 48.2267 326.603 48.6C326.432 48.9733 326.347 49.4053 326.347 49.896V53H324.859V46.376H326.187ZM340.621 53.128C340.151 53.128 339.693 53.048 339.245 52.888C338.807 52.7173 338.445 52.4667 338.157 52.136L338.781 51.272C339.058 51.5387 339.341 51.7413 339.629 51.88C339.927 52.008 340.221 52.072 340.509 52.072C340.722 52.072 340.919 52.0453 341.101 51.992C341.282 51.9387 341.426 51.8533 341.533 51.736C341.65 51.608 341.709 51.4373 341.709 51.224C341.709 50.9893 341.629 50.8027 341.469 50.664C341.319 50.5253 341.122 50.4133 340.877 50.328C340.642 50.2427 340.391 50.1627 340.125 50.088C339.581 49.9067 339.165 49.656 338.877 49.336C338.589 49.016 338.445 48.6267 338.445 48.168C338.445 47.816 338.53 47.4907 338.701 47.192C338.882 46.8827 339.143 46.632 339.485 46.44C339.837 46.248 340.269 46.152 340.781 46.152C341.239 46.152 341.65 46.2107 342.013 46.328C342.375 46.4347 342.717 46.616 343.037 46.872L342.445 47.8C342.253 47.5973 342.023 47.448 341.757 47.352C341.49 47.256 341.25 47.2027 341.037 47.192C340.855 47.1813 340.679 47.208 340.509 47.272C340.349 47.336 340.215 47.4267 340.109 47.544C340.002 47.6613 339.949 47.8 339.949 47.96C339.949 48.184 340.023 48.3653 340.173 48.504C340.322 48.6427 340.514 48.7547 340.749 48.84C340.994 48.9147 341.234 48.9947 341.469 49.08C341.799 49.176 342.093 49.304 342.349 49.464C342.605 49.624 342.807 49.8213 342.957 50.056C343.117 50.2907 343.197 50.584 343.197 50.936C343.197 51.3307 343.101 51.6987 342.909 52.04C342.727 52.3707 342.445 52.6373 342.061 52.84C341.687 53.032 341.207 53.128 340.621 53.128ZM345.92 43.464H347.408V46.408H349.232V47.576H347.408V53H345.92V47.576H344.704V46.408H345.92V43.464ZM350.454 49.624C350.454 48.9627 350.609 48.3653 350.918 47.832C351.238 47.2987 351.676 46.8773 352.23 46.568C352.785 46.2587 353.414 46.104 354.118 46.104C354.844 46.104 355.478 46.2587 356.022 46.568C356.566 46.8773 356.988 47.2987 357.286 47.832C357.585 48.3653 357.734 48.9627 357.734 49.624C357.734 50.2853 357.585 50.888 357.286 51.432C356.988 51.9653 356.561 52.3867 356.006 52.696C355.462 53.0053 354.828 53.16 354.102 53.16C353.398 53.16 352.769 53.016 352.214 52.728C351.67 52.4293 351.238 52.0187 350.918 51.496C350.609 50.9627 350.454 50.3387 350.454 49.624ZM351.942 49.64C351.942 50.0667 352.038 50.456 352.23 50.808C352.422 51.1493 352.678 51.4213 352.998 51.624C353.329 51.8267 353.692 51.928 354.086 51.928C354.502 51.928 354.87 51.8267 355.19 51.624C355.521 51.4213 355.777 51.1493 355.958 50.808C356.14 50.456 356.23 50.0667 356.23 49.64C356.23 49.2133 356.14 48.8293 355.958 48.488C355.777 48.136 355.521 47.8587 355.19 47.656C354.87 47.4427 354.502 47.336 354.086 47.336C353.681 47.336 353.313 47.4427 352.982 47.656C352.662 47.8693 352.406 48.152 352.214 48.504C352.033 48.8453 351.942 49.224 351.942 49.64ZM361.077 46.376L361.221 48.296L361.141 48.04C361.312 47.6347 361.557 47.2933 361.877 47.016C362.208 46.728 362.549 46.5093 362.901 46.36C363.264 46.2 363.578 46.12 363.845 46.12L363.765 47.592C363.264 47.56 362.821 47.656 362.437 47.88C362.064 48.104 361.765 48.4027 361.541 48.776C361.328 49.1493 361.221 49.5493 361.221 49.976V53H359.749V46.376H361.077ZM368.556 53.16C367.798 53.16 367.148 53.0107 366.604 52.712C366.06 52.4027 365.638 51.9867 365.34 51.464C365.052 50.9307 364.908 50.3227 364.908 49.64C364.908 48.9893 365.073 48.3973 365.404 47.864C365.734 47.3307 366.177 46.904 366.732 46.584C367.286 46.264 367.905 46.104 368.588 46.104C369.462 46.104 370.188 46.36 370.764 46.872C371.34 47.384 371.729 48.088 371.932 48.984L366.476 50.904L366.124 50.024L370.604 48.392L370.284 48.6C370.156 48.248 369.942 47.944 369.644 47.688C369.345 47.4213 368.956 47.288 368.476 47.288C368.07 47.288 367.708 47.3893 367.388 47.592C367.068 47.784 366.817 48.0507 366.636 48.392C366.454 48.7333 366.364 49.1227 366.364 49.56C366.364 50.0187 366.46 50.424 366.652 50.776C366.844 51.1173 367.105 51.3893 367.436 51.592C367.777 51.784 368.161 51.88 368.588 51.88C368.876 51.88 369.153 51.8267 369.42 51.72C369.697 51.6133 369.953 51.4747 370.188 51.304L370.876 52.408C370.545 52.632 370.172 52.8133 369.756 52.952C369.35 53.0907 368.95 53.16 368.556 53.16ZM378.283 49.624C378.283 48.9627 378.437 48.3653 378.747 47.832C379.067 47.2987 379.504 46.8773 380.059 46.568C380.613 46.2587 381.243 46.104 381.947 46.104C382.672 46.104 383.307 46.2587 383.851 46.568C384.395 46.8773 384.816 47.2987 385.115 47.832C385.413 48.3653 385.562 48.9627 385.562 49.624C385.562 50.2853 385.413 50.888 385.115 51.432C384.816 51.9653 384.389 52.3867 383.835 52.696C383.291 53.0053 382.656 53.16 381.931 53.16C381.227 53.16 380.597 53.016 380.043 52.728C379.499 52.4293 379.067 52.0187 378.747 51.496C378.437 50.9627 378.283 50.3387 378.283 49.624ZM379.771 49.64C379.771 50.0667 379.867 50.456 380.059 50.808C380.251 51.1493 380.507 51.4213 380.827 51.624C381.157 51.8267 381.52 51.928 381.915 51.928C382.331 51.928 382.699 51.8267 383.019 51.624C383.349 51.4213 383.605 51.1493 383.787 50.808C383.968 50.456 384.059 50.0667 384.059 49.64C384.059 49.2133 383.968 48.8293 383.787 48.488C383.605 48.136 383.349 47.8587 383.019 47.656C382.699 47.4427 382.331 47.336 381.915 47.336C381.509 47.336 381.141 47.4427 380.811 47.656C380.491 47.8693 380.235 48.152 380.043 48.504C379.861 48.8453 379.771 49.224 379.771 49.64ZM388.121 53V47.704H386.985V46.376H388.121V43.576C388.121 42.616 388.335 41.88 388.761 41.368C389.199 40.856 389.839 40.6 390.681 40.6C390.905 40.6 391.151 40.632 391.417 40.696C391.695 40.76 391.935 40.8667 392.137 41.016L391.513 42.088C391.417 41.992 391.311 41.928 391.193 41.896C391.076 41.8533 390.959 41.832 390.841 41.832C390.447 41.832 390.143 41.9653 389.929 42.232C389.716 42.4987 389.609 42.952 389.609 43.592V46.376H391.705V47.704H389.609V53H388.121ZM399.342 43.464H400.83V46.408H402.654V47.576H400.83V53H399.342V47.576H398.126V46.408H399.342V43.464ZM404.452 53V40.616H405.908V47.912L405.876 47.64C406.1 47.2027 406.442 46.84 406.9 46.552C407.37 46.264 407.919 46.12 408.548 46.12C409.178 46.12 409.69 46.3067 410.084 46.68C410.49 47.0427 410.698 47.5173 410.708 48.104V53H409.204V48.632C409.194 48.2693 409.087 47.976 408.884 47.752C408.692 47.5173 408.388 47.4 407.972 47.4C407.588 47.4 407.242 47.512 406.932 47.736C406.623 47.9493 406.378 48.2427 406.196 48.616C406.026 48.9893 405.94 49.416 405.94 49.896V53H404.452ZM416.368 53.16C415.611 53.16 414.96 53.0107 414.416 52.712C413.872 52.4027 413.451 51.9867 413.152 51.464C412.864 50.9307 412.72 50.3227 412.72 49.64C412.72 48.9893 412.885 48.3973 413.216 47.864C413.547 47.3307 413.989 46.904 414.544 46.584C415.099 46.264 415.717 46.104 416.4 46.104C417.275 46.104 418 46.36 418.576 46.872C419.152 47.384 419.541 48.088 419.744 48.984L414.288 50.904L413.936 50.024L418.416 48.392L418.096 48.6C417.968 48.248 417.755 47.944 417.456 47.688C417.157 47.4213 416.768 47.288 416.288 47.288C415.883 47.288 415.52 47.3893 415.2 47.592C414.88 47.784 414.629 48.0507 414.448 48.392C414.267 48.7333 414.176 49.1227 414.176 49.56C414.176 50.0187 414.272 50.424 414.464 50.776C414.656 51.1173 414.917 51.3893 415.248 51.592C415.589 51.784 415.973 51.88 416.4 51.88C416.688 51.88 416.965 51.8267 417.232 51.72C417.509 51.6133 417.765 51.4747 418 51.304L418.688 52.408C418.357 52.632 417.984 52.8133 417.568 52.952C417.163 53.0907 416.763 53.16 416.368 53.16ZM429.855 56.28C429.364 56.28 428.932 56.2213 428.559 56.104C428.186 55.9973 427.844 55.8427 427.535 55.64C427.236 55.4373 426.948 55.208 426.671 54.952L427.535 53.944C427.887 54.2747 428.244 54.5307 428.607 54.712C428.97 54.8933 429.375 54.984 429.823 54.984C430.324 54.984 430.746 54.8987 431.087 54.728C431.439 54.568 431.706 54.3387 431.887 54.04C432.068 53.752 432.159 53.416 432.159 53.032L432.175 51.24L432.303 51.528C432.111 51.9867 431.764 52.376 431.263 52.696C430.762 53.0053 430.154 53.16 429.439 53.16C428.831 53.16 428.271 53.0053 427.759 52.696C427.258 52.3867 426.852 51.9707 426.543 51.448C426.244 50.9147 426.095 50.3173 426.095 49.656C426.095 48.9627 426.255 48.3547 426.575 47.832C426.895 47.2987 427.316 46.8773 427.839 46.568C428.362 46.2587 428.932 46.104 429.551 46.104C430.138 46.104 430.671 46.2267 431.151 46.472C431.642 46.7067 431.999 47.0107 432.223 47.384L432.143 47.656L432.303 46.376H433.663V53.048C433.663 53.6453 433.508 54.1893 433.199 54.68C432.89 55.1707 432.452 55.56 431.887 55.848C431.322 56.136 430.644 56.28 429.855 56.28ZM427.583 49.624C427.583 50.0507 427.684 50.44 427.887 50.792C428.09 51.144 428.362 51.4213 428.703 51.624C429.055 51.8267 429.444 51.928 429.871 51.928C430.266 51.928 430.618 51.8587 430.927 51.72C431.247 51.5707 431.514 51.3733 431.727 51.128C431.94 50.872 432.09 50.5787 432.175 50.248V48.936C432.079 48.616 431.919 48.3387 431.695 48.104C431.471 47.8587 431.204 47.672 430.895 47.544C430.586 47.4053 430.244 47.336 429.871 47.336C429.444 47.336 429.055 47.432 428.703 47.624C428.362 47.816 428.09 48.088 427.887 48.44C427.684 48.7813 427.583 49.176 427.583 49.624ZM438.986 53.16C438.367 53.16 437.802 53.0267 437.289 52.76C436.788 52.4933 436.388 52.104 436.09 51.592C435.802 51.0693 435.658 50.4347 435.658 49.688C435.658 48.952 435.812 48.3173 436.122 47.784C436.431 47.24 436.842 46.824 437.354 46.536C437.876 46.248 438.447 46.104 439.066 46.104C439.684 46.104 440.207 46.248 440.634 46.536C441.06 46.8133 441.386 47.144 441.61 47.528L441.514 47.784L441.658 46.376H443.034V53H441.546V51.272L441.706 51.656C441.663 51.7627 441.567 51.9013 441.418 52.072C441.279 52.232 441.087 52.3973 440.842 52.568C440.607 52.7387 440.335 52.8827 440.026 53C439.716 53.1067 439.37 53.16 438.986 53.16ZM439.386 51.928C439.759 51.928 440.095 51.8587 440.394 51.72C440.692 51.5813 440.938 51.3893 441.13 51.144C441.332 50.888 441.471 50.584 441.546 50.232V48.936C441.46 48.616 441.311 48.3387 441.098 48.104C440.884 47.8587 440.628 47.672 440.33 47.544C440.031 47.4053 439.7 47.336 439.338 47.336C438.943 47.336 438.58 47.432 438.25 47.624C437.919 47.816 437.652 48.0827 437.45 48.424C437.258 48.7653 437.162 49.1653 437.162 49.624C437.162 50.0507 437.263 50.44 437.466 50.792C437.668 51.144 437.94 51.4213 438.282 51.624C438.623 51.8267 438.991 51.928 439.386 51.928ZM446.937 46.376L447.065 47.864L447.001 47.736C447.246 47.2347 447.593 46.84 448.041 46.552C448.499 46.264 449.022 46.12 449.609 46.12C449.982 46.12 450.313 46.1787 450.601 46.296C450.889 46.4133 451.123 46.584 451.305 46.808C451.497 47.0213 451.619 47.288 451.673 47.608L451.593 47.656C451.849 47.176 452.201 46.8027 452.649 46.536C453.107 46.2587 453.587 46.12 454.089 46.12C454.739 46.12 455.251 46.3067 455.625 46.68C456.009 47.0427 456.206 47.5173 456.217 48.104V53H454.729V48.632C454.718 48.2907 454.633 48.008 454.473 47.784C454.323 47.5493 454.057 47.4213 453.673 47.4C453.289 47.4 452.942 47.5173 452.633 47.752C452.334 47.9867 452.099 48.2907 451.929 48.664C451.758 49.0267 451.667 49.4213 451.657 49.848V53H450.169V48.632C450.158 48.2907 450.067 48.008 449.897 47.784C449.737 47.5493 449.465 47.4213 449.081 47.4C448.686 47.4 448.339 47.5173 448.041 47.752C447.742 47.9867 447.507 48.2907 447.337 48.664C447.177 49.0373 447.097 49.4373 447.097 49.864V53H445.609V46.376H446.937ZM461.884 53.16C461.126 53.16 460.476 53.0107 459.932 52.712C459.388 52.4027 458.966 51.9867 458.668 51.464C458.38 50.9307 458.236 50.3227 458.236 49.64C458.236 48.9893 458.401 48.3973 458.732 47.864C459.062 47.3307 459.505 46.904 460.06 46.584C460.614 46.264 461.233 46.104 461.916 46.104C462.79 46.104 463.516 46.36 464.092 46.872C464.668 47.384 465.057 48.088 465.26 48.984L459.804 50.904L459.452 50.024L463.932 48.392L463.612 48.6C463.484 48.248 463.27 47.944 462.972 47.688C462.673 47.4213 462.284 47.288 461.804 47.288C461.398 47.288 461.036 47.3893 460.716 47.592C460.396 47.784 460.145 48.0507 459.964 48.392C459.782 48.7333 459.692 49.1227 459.692 49.56C459.692 50.0187 459.788 50.424 459.98 50.776C460.172 51.1173 460.433 51.3893 460.764 51.592C461.105 51.784 461.489 51.88 461.916 51.88C462.204 51.88 462.481 51.8267 462.748 51.72C463.025 51.6133 463.281 51.4747 463.516 51.304L464.204 52.408C463.873 52.632 463.5 52.8133 463.084 52.952C462.678 53.0907 462.278 53.16 461.884 53.16ZM471.611 49.624C471.611 48.9627 471.765 48.3653 472.075 47.832C472.395 47.2987 472.832 46.8773 473.387 46.568C473.941 46.2587 474.571 46.104 475.275 46.104C476 46.104 476.635 46.2587 477.179 46.568C477.723 46.8773 478.144 47.2987 478.443 47.832C478.741 48.3653 478.891 48.9627 478.891 49.624C478.891 50.2853 478.741 50.888 478.443 51.432C478.144 51.9653 477.717 52.3867 477.163 52.696C476.619 53.0053 475.984 53.16 475.259 53.16C474.555 53.16 473.925 53.016 473.371 52.728C472.827 52.4293 472.395 52.0187 472.075 51.496C471.765 50.9627 471.611 50.3387 471.611 49.624ZM473.099 49.64C473.099 50.0667 473.195 50.456 473.387 50.808C473.579 51.1493 473.835 51.4213 474.155 51.624C474.485 51.8267 474.848 51.928 475.243 51.928C475.659 51.928 476.027 51.8267 476.347 51.624C476.677 51.4213 476.933 51.1493 477.115 50.808C477.296 50.456 477.387 50.0667 477.387 49.64C477.387 49.2133 477.296 48.8293 477.115 48.488C476.933 48.136 476.677 47.8587 476.347 47.656C476.027 47.4427 475.659 47.336 475.243 47.336C474.837 47.336 474.469 47.4427 474.139 47.656C473.819 47.8693 473.563 48.152 473.371 48.504C473.189 48.8453 473.099 49.224 473.099 49.64ZM482.233 46.376L482.361 47.992L482.297 47.736C482.511 47.2453 482.857 46.856 483.337 46.568C483.817 46.2693 484.372 46.12 485.001 46.12C485.631 46.12 486.143 46.3067 486.537 46.68C486.943 47.0427 487.151 47.5173 487.161 48.104V53H485.657V48.632C485.647 48.2693 485.54 47.976 485.337 47.752C485.145 47.5173 484.841 47.4 484.425 47.4C484.041 47.4 483.695 47.5067 483.385 47.72C483.076 47.9333 482.831 48.2267 482.649 48.6C482.479 48.9733 482.393 49.4053 482.393 49.896V53H480.905V46.376H482.233ZM495.452 43.464H496.94V46.408H498.764V47.576H496.94V53H495.452V47.576H494.236V46.408H495.452V43.464ZM500.562 53V40.616H502.018V47.912L501.986 47.64C502.21 47.2027 502.551 46.84 503.01 46.552C503.479 46.264 504.028 46.12 504.658 46.12C505.287 46.12 505.799 46.3067 506.194 46.68C506.599 47.0427 506.807 47.5173 506.818 48.104V53H505.314V48.632C505.303 48.2693 505.196 47.976 504.994 47.752C504.802 47.5173 504.498 47.4 504.082 47.4C503.698 47.4 503.351 47.512 503.042 47.736C502.732 47.9493 502.487 48.2427 502.306 48.616C502.135 48.9893 502.05 49.416 502.05 49.896V53H500.562ZM512.477 53.16C511.72 53.16 511.069 53.0107 510.525 52.712C509.981 52.4027 509.56 51.9867 509.261 51.464C508.973 50.9307 508.829 50.3227 508.829 49.64C508.829 48.9893 508.995 48.3973 509.325 47.864C509.656 47.3307 510.099 46.904 510.653 46.584C511.208 46.264 511.827 46.104 512.509 46.104C513.384 46.104 514.109 46.36 514.685 46.872C515.261 47.384 515.651 48.088 515.853 48.984L510.397 50.904L510.045 50.024L514.525 48.392L514.205 48.6C514.077 48.248 513.864 47.944 513.565 47.688C513.267 47.4213 512.877 47.288 512.397 47.288C511.992 47.288 511.629 47.3893 511.309 47.592C510.989 47.784 510.739 48.0507 510.557 48.392C510.376 48.7333 510.285 49.1227 510.285 49.56C510.285 50.0187 510.381 50.424 510.573 50.776C510.765 51.1173 511.027 51.3893 511.357 51.592C511.699 51.784 512.083 51.88 512.509 51.88C512.797 51.88 513.075 51.8267 513.341 51.72C513.619 51.6133 513.875 51.4747 514.109 51.304L514.797 52.408C514.467 52.632 514.093 52.8133 513.677 52.952C513.272 53.0907 512.872 53.16 512.477 53.16ZM101.828 69.16C101.22 69.16 100.681 69.0267 100.212 68.76C99.7533 68.4933 99.3853 68.1573 99.108 67.752L99.284 67.288V69H97.796V56.616H99.268V63.896L99.22 63.336C99.4867 62.9733 99.8653 62.68 100.356 62.456C100.857 62.2213 101.412 62.104 102.02 62.104C102.617 62.104 103.161 62.248 103.652 62.536C104.143 62.824 104.532 63.2293 104.82 63.752C105.119 64.264 105.268 64.8773 105.268 65.592C105.268 66.3387 105.108 66.9787 104.788 67.512C104.479 68.0453 104.063 68.456 103.54 68.744C103.017 69.0213 102.447 69.16 101.828 69.16ZM101.524 67.896C101.951 67.896 102.335 67.7947 102.676 67.592C103.017 67.3893 103.284 67.1173 103.476 66.776C103.668 66.424 103.764 66.024 103.764 65.576C103.764 65.1493 103.663 64.7653 103.46 64.424C103.268 64.072 103.001 63.7947 102.66 63.592C102.329 63.3893 101.951 63.288 101.524 63.288C101.161 63.288 100.825 63.3573 100.516 63.496C100.207 63.6347 99.9453 63.8267 99.732 64.072C99.5187 64.3067 99.3693 64.584 99.284 64.904V66.232C99.3693 66.552 99.5133 66.84 99.716 67.096C99.9187 67.3413 100.175 67.5387 100.484 67.688C100.793 67.8267 101.14 67.896 101.524 67.896ZM107.28 56.616H108.768V69H107.28V56.616ZM110.767 65.624C110.767 64.9627 110.922 64.3653 111.231 63.832C111.551 63.2987 111.988 62.8773 112.543 62.568C113.098 62.2587 113.727 62.104 114.431 62.104C115.156 62.104 115.791 62.2587 116.335 62.568C116.879 62.8773 117.3 63.2987 117.599 63.832C117.898 64.3653 118.047 64.9627 118.047 65.624C118.047 66.2853 117.898 66.888 117.599 67.432C117.3 67.9653 116.874 68.3867 116.319 68.696C115.775 69.0053 115.14 69.16 114.415 69.16C113.711 69.16 113.082 69.016 112.527 68.728C111.983 68.4293 111.551 68.0187 111.231 67.496C110.922 66.9627 110.767 66.3387 110.767 65.624ZM112.255 65.64C112.255 66.0667 112.351 66.456 112.543 66.808C112.735 67.1493 112.991 67.4213 113.311 67.624C113.642 67.8267 114.004 67.928 114.399 67.928C114.815 67.928 115.183 67.8267 115.503 67.624C115.834 67.4213 116.09 67.1493 116.271 66.808C116.452 66.456 116.543 66.0667 116.543 65.64C116.543 65.2133 116.452 64.8293 116.271 64.488C116.09 64.136 115.834 63.8587 115.503 63.656C115.183 63.4427 114.815 63.336 114.399 63.336C113.994 63.336 113.626 63.4427 113.295 63.656C112.975 63.8693 112.719 64.152 112.527 64.504C112.346 64.8453 112.255 65.224 112.255 65.64ZM125.438 68.392C125.139 68.6267 124.782 68.8133 124.366 68.952C123.95 69.0907 123.534 69.16 123.118 69.16C122.392 69.16 121.758 69.016 121.214 68.728C120.67 68.44 120.243 68.04 119.934 67.528C119.635 67.0053 119.486 66.392 119.486 65.688C119.486 64.984 119.646 64.3707 119.966 63.848C120.296 63.3253 120.723 62.9253 121.246 62.648C121.779 62.36 122.35 62.216 122.958 62.216C123.491 62.216 123.966 62.2907 124.382 62.44C124.808 62.5893 125.171 62.792 125.47 63.048L124.734 64.008C124.542 63.8587 124.307 63.7253 124.03 63.608C123.752 63.4907 123.438 63.432 123.086 63.432C122.702 63.432 122.344 63.5333 122.014 63.736C121.694 63.928 121.438 64.1947 121.246 64.536C121.064 64.8773 120.974 65.2613 120.974 65.688C120.974 66.0933 121.07 66.472 121.262 66.824C121.454 67.1653 121.72 67.4373 122.062 67.64C122.403 67.832 122.792 67.928 123.23 67.928C123.518 67.928 123.779 67.8853 124.014 67.8C124.259 67.7147 124.478 67.5973 124.67 67.448L125.438 68.392ZM127.359 69V56.616H128.847V69H127.359ZM130.447 64.6L133.487 69H131.743L129.455 65.432L130.447 64.6ZM128.383 66.888L128.239 65.464L132.255 62.232L133.167 63.016L128.383 66.888ZM140.453 68.392C140.155 68.6267 139.797 68.8133 139.381 68.952C138.965 69.0907 138.549 69.16 138.133 69.16C137.408 69.16 136.773 69.016 136.229 68.728C135.685 68.44 135.259 68.04 134.949 67.528C134.651 67.0053 134.501 66.392 134.501 65.688C134.501 64.984 134.661 64.3707 134.981 63.848C135.312 63.3253 135.739 62.9253 136.261 62.648C136.795 62.36 137.365 62.216 137.973 62.216C138.507 62.216 138.981 62.2907 139.397 62.44C139.824 62.5893 140.187 62.792 140.485 63.048L139.749 64.008C139.557 63.8587 139.323 63.7253 139.045 63.608C138.768 63.4907 138.453 63.432 138.101 63.432C137.717 63.432 137.36 63.5333 137.029 63.736C136.709 63.928 136.453 64.1947 136.261 64.536C136.08 64.8773 135.989 65.2613 135.989 65.688C135.989 66.0933 136.085 66.472 136.277 66.824C136.469 67.1653 136.736 67.4373 137.077 67.64C137.419 67.832 137.808 67.928 138.245 67.928C138.533 67.928 138.795 67.8853 139.029 67.8C139.275 67.7147 139.493 67.5973 139.685 67.448L140.453 68.392ZM142.374 69V56.616H143.83V63.912L143.798 63.64C144.022 63.2027 144.363 62.84 144.822 62.552C145.291 62.264 145.841 62.12 146.47 62.12C147.099 62.12 147.611 62.3067 148.006 62.68C148.411 63.0427 148.619 63.5173 148.63 64.104V69H147.126V64.632C147.115 64.2693 147.009 63.976 146.806 63.752C146.614 63.5173 146.31 63.4 145.894 63.4C145.51 63.4 145.163 63.512 144.854 63.736C144.545 63.9493 144.299 64.2427 144.118 64.616C143.947 64.9893 143.862 65.416 143.862 65.896V69H142.374ZM153.97 69.16C153.351 69.16 152.786 69.0267 152.274 68.76C151.773 68.4933 151.373 68.104 151.074 67.592C150.786 67.0693 150.642 66.4347 150.642 65.688C150.642 64.952 150.797 64.3173 151.106 63.784C151.415 63.24 151.826 62.824 152.338 62.536C152.861 62.248 153.431 62.104 154.05 62.104C154.669 62.104 155.191 62.248 155.618 62.536C156.045 62.8133 156.37 63.144 156.594 63.528L156.498 63.784L156.642 62.376H158.018V69H156.53V67.272L156.69 67.656C156.647 67.7627 156.551 67.9013 156.402 68.072C156.263 68.232 156.071 68.3973 155.826 68.568C155.591 68.7387 155.319 68.8827 155.01 69C154.701 69.1067 154.354 69.16 153.97 69.16ZM154.37 67.928C154.743 67.928 155.079 67.8587 155.378 67.72C155.677 67.5813 155.922 67.3893 156.114 67.144C156.317 66.888 156.455 66.584 156.53 66.232V64.936C156.445 64.616 156.295 64.3387 156.082 64.104C155.869 63.8587 155.613 63.672 155.314 63.544C155.015 63.4053 154.685 63.336 154.322 63.336C153.927 63.336 153.565 63.432 153.234 63.624C152.903 63.816 152.637 64.0827 152.434 64.424C152.242 64.7653 152.146 65.1653 152.146 65.624C152.146 66.0507 152.247 66.44 152.45 66.792C152.653 67.144 152.925 67.4213 153.266 67.624C153.607 67.8267 153.975 67.928 154.37 67.928ZM160.593 62.376H162.081V69H160.593V62.376ZM160.481 59.976C160.481 59.7413 160.572 59.544 160.753 59.384C160.945 59.224 161.153 59.144 161.377 59.144C161.601 59.144 161.798 59.224 161.969 59.384C162.15 59.544 162.241 59.7413 162.241 59.976C162.241 60.2213 162.15 60.424 161.969 60.584C161.798 60.7333 161.601 60.808 161.377 60.808C161.153 60.808 160.945 60.728 160.753 60.568C160.572 60.408 160.481 60.2107 160.481 59.976ZM165.983 62.376L166.111 63.992L166.047 63.736C166.261 63.2453 166.607 62.856 167.087 62.568C167.567 62.2693 168.122 62.12 168.751 62.12C169.381 62.12 169.893 62.3067 170.287 62.68C170.693 63.0427 170.901 63.5173 170.911 64.104V69H169.407V64.632C169.397 64.2693 169.29 63.976 169.087 63.752C168.895 63.5173 168.591 63.4 168.175 63.4C167.791 63.4 167.445 63.5067 167.135 63.72C166.826 63.9333 166.581 64.2267 166.399 64.6C166.229 64.9733 166.143 65.4053 166.143 65.896V69H164.655V62.376H165.983ZM180.658 69.256C180.06 69.256 179.564 69.0747 179.17 68.712C178.786 68.3387 178.583 67.8587 178.562 67.272V62.376H180.05V66.744C180.071 67.1067 180.172 67.4 180.354 67.624C180.546 67.848 180.844 67.9653 181.25 67.976C181.623 67.976 181.954 67.8693 182.242 67.656C182.54 67.432 182.78 67.1333 182.962 66.76C183.143 66.376 183.234 65.944 183.234 65.464V62.376H184.722V69H183.362L183.234 67.368L183.314 67.656C183.186 67.9653 182.988 68.2427 182.722 68.488C182.466 68.7227 182.162 68.9093 181.81 69.048C181.458 69.1867 181.074 69.256 180.658 69.256ZM189.152 69.128C188.683 69.128 188.224 69.048 187.776 68.888C187.339 68.7173 186.976 68.4667 186.688 68.136L187.312 67.272C187.589 67.5387 187.872 67.7413 188.16 67.88C188.459 68.008 188.752 68.072 189.04 68.072C189.253 68.072 189.451 68.0453 189.632 67.992C189.813 67.9387 189.957 67.8533 190.064 67.736C190.181 67.608 190.24 67.4373 190.24 67.224C190.24 66.9893 190.16 66.8027 190 66.664C189.851 66.5253 189.653 66.4133 189.408 66.328C189.173 66.2427 188.923 66.1627 188.656 66.088C188.112 65.9067 187.696 65.656 187.408 65.336C187.12 65.016 186.976 64.6267 186.976 64.168C186.976 63.816 187.061 63.4907 187.232 63.192C187.413 62.8827 187.675 62.632 188.016 62.44C188.368 62.248 188.8 62.152 189.312 62.152C189.771 62.152 190.181 62.2107 190.544 62.328C190.907 62.4347 191.248 62.616 191.568 62.872L190.976 63.8C190.784 63.5973 190.555 63.448 190.288 63.352C190.021 63.256 189.781 63.2027 189.568 63.192C189.387 63.1813 189.211 63.208 189.04 63.272C188.88 63.336 188.747 63.4267 188.64 63.544C188.533 63.6613 188.48 63.8 188.48 63.96C188.48 64.184 188.555 64.3653 188.704 64.504C188.853 64.6427 189.045 64.7547 189.28 64.84C189.525 64.9147 189.765 64.9947 190 65.08C190.331 65.176 190.624 65.304 190.88 65.464C191.136 65.624 191.339 65.8213 191.488 66.056C191.648 66.2907 191.728 66.584 191.728 66.936C191.728 67.3307 191.632 67.6987 191.44 68.04C191.259 68.3707 190.976 68.6373 190.592 68.84C190.219 69.032 189.739 69.128 189.152 69.128ZM193.812 62.376H195.3V69H193.812V62.376ZM193.7 59.976C193.7 59.7413 193.79 59.544 193.972 59.384C194.164 59.224 194.372 59.144 194.596 59.144C194.82 59.144 195.017 59.224 195.188 59.384C195.369 59.544 195.46 59.7413 195.46 59.976C195.46 60.2213 195.369 60.424 195.188 60.584C195.017 60.7333 194.82 60.808 194.596 60.808C194.372 60.808 194.164 60.728 193.972 60.568C193.79 60.408 193.7 60.2107 193.7 59.976ZM199.202 62.376L199.33 63.992L199.266 63.736C199.479 63.2453 199.826 62.856 200.306 62.568C200.786 62.2693 201.341 62.12 201.97 62.12C202.599 62.12 203.111 62.3067 203.506 62.68C203.911 63.0427 204.119 63.5173 204.13 64.104V69H202.626V64.632C202.615 64.2693 202.509 63.976 202.306 63.752C202.114 63.5173 201.81 63.4 201.394 63.4C201.01 63.4 200.663 63.5067 200.354 63.72C200.045 63.9333 199.799 64.2267 199.618 64.6C199.447 64.9733 199.362 65.4053 199.362 65.896V69H197.874V62.376H199.202ZM209.902 72.28C209.411 72.28 208.979 72.2213 208.606 72.104C208.233 71.9973 207.891 71.8427 207.582 71.64C207.283 71.4373 206.995 71.208 206.718 70.952L207.582 69.944C207.934 70.2747 208.291 70.5307 208.654 70.712C209.017 70.8933 209.422 70.984 209.87 70.984C210.371 70.984 210.793 70.8987 211.134 70.728C211.486 70.568 211.753 70.3387 211.934 70.04C212.115 69.752 212.206 69.416 212.206 69.032L212.222 67.24L212.35 67.528C212.158 67.9867 211.811 68.376 211.31 68.696C210.809 69.0053 210.201 69.16 209.486 69.16C208.878 69.16 208.318 69.0053 207.806 68.696C207.305 68.3867 206.899 67.9707 206.59 67.448C206.291 66.9147 206.142 66.3173 206.142 65.656C206.142 64.9627 206.302 64.3547 206.622 63.832C206.942 63.2987 207.363 62.8773 207.886 62.568C208.409 62.2587 208.979 62.104 209.598 62.104C210.185 62.104 210.718 62.2267 211.198 62.472C211.689 62.7067 212.046 63.0107 212.27 63.384L212.19 63.656L212.35 62.376H213.71V69.048C213.71 69.6453 213.555 70.1893 213.246 70.68C212.937 71.1707 212.499 71.56 211.934 71.848C211.369 72.136 210.691 72.28 209.902 72.28ZM207.63 65.624C207.63 66.0507 207.731 66.44 207.934 66.792C208.137 67.144 208.409 67.4213 208.75 67.624C209.102 67.8267 209.491 67.928 209.918 67.928C210.313 67.928 210.665 67.8587 210.974 67.72C211.294 67.5707 211.561 67.3733 211.774 67.128C211.987 66.872 212.137 66.5787 212.222 66.248V64.936C212.126 64.616 211.966 64.3387 211.742 64.104C211.518 63.8587 211.251 63.672 210.942 63.544C210.633 63.4053 210.291 63.336 209.918 63.336C209.491 63.336 209.102 63.432 208.75 63.624C208.409 63.816 208.137 64.088 207.934 64.44C207.731 64.7813 207.63 65.176 207.63 65.624ZM221.983 59.464H223.471V62.408H225.295V63.576H223.471V69H221.983V63.576H220.767V62.408H221.983V59.464ZM227.093 69V56.616H228.549V63.912L228.517 63.64C228.741 63.2027 229.082 62.84 229.541 62.552C230.01 62.264 230.56 62.12 231.189 62.12C231.818 62.12 232.33 62.3067 232.725 62.68C233.13 63.0427 233.338 63.5173 233.349 64.104V69H231.845V64.632C231.834 64.2693 231.728 63.976 231.525 63.752C231.333 63.5173 231.029 63.4 230.613 63.4C230.229 63.4 229.882 63.512 229.573 63.736C229.264 63.9493 229.018 64.2427 228.837 64.616C228.666 64.9893 228.581 65.416 228.581 65.896V69H227.093ZM239.009 69.16C238.251 69.16 237.601 69.0107 237.057 68.712C236.513 68.4027 236.091 67.9867 235.793 67.464C235.505 66.9307 235.361 66.3227 235.361 65.64C235.361 64.9893 235.526 64.3973 235.857 63.864C236.187 63.3307 236.63 62.904 237.185 62.584C237.739 62.264 238.358 62.104 239.041 62.104C239.915 62.104 240.641 62.36 241.217 62.872C241.793 63.384 242.182 64.088 242.385 64.984L236.929 66.904L236.577 66.024L241.057 64.392L240.737 64.6C240.609 64.248 240.395 63.944 240.097 63.688C239.798 63.4213 239.409 63.288 238.929 63.288C238.523 63.288 238.161 63.3893 237.841 63.592C237.521 63.784 237.27 64.0507 237.089 64.392C236.907 64.7333 236.817 65.1227 236.817 65.56C236.817 66.0187 236.913 66.424 237.105 66.776C237.297 67.1173 237.558 67.3893 237.889 67.592C238.23 67.784 238.614 67.88 239.041 67.88C239.329 67.88 239.606 67.8267 239.873 67.72C240.15 67.6133 240.406 67.4747 240.641 67.304L241.329 68.408C240.998 68.632 240.625 68.8133 240.209 68.952C239.803 69.0907 239.403 69.16 239.009 69.16ZM252.176 70.088V63.08L252.496 62.568V56.376H253.424V62.776L253.12 63.448V70.088H252.176ZM255.664 59.496C255.269 59.2933 254.837 59.1173 254.368 58.968C253.898 58.8187 253.44 58.744 252.992 58.744C252.373 58.744 251.877 58.888 251.504 59.176C251.141 59.464 250.96 59.848 250.96 60.328C250.96 60.6907 251.077 61 251.312 61.256C251.546 61.5013 251.856 61.7147 252.24 61.896C252.624 62.0773 253.024 62.248 253.44 62.408C253.802 62.5467 254.16 62.7013 254.512 62.872C254.864 63.0427 255.178 63.256 255.456 63.512C255.744 63.768 255.968 64.0827 256.128 64.456C256.298 64.8293 256.384 65.2933 256.384 65.848C256.384 66.456 256.229 67.0107 255.92 67.512C255.621 68.0133 255.189 68.408 254.624 68.696C254.058 68.984 253.386 69.128 252.608 69.128C252.096 69.128 251.605 69.0693 251.136 68.952C250.677 68.8347 250.25 68.6853 249.856 68.504C249.461 68.312 249.109 68.1147 248.8 67.912L249.488 66.696C249.744 66.8773 250.037 67.0533 250.368 67.224C250.698 67.384 251.045 67.5173 251.408 67.624C251.77 67.72 252.122 67.768 252.464 67.768C252.826 67.768 253.184 67.704 253.536 67.576C253.898 67.4373 254.197 67.2293 254.432 66.952C254.666 66.6747 254.784 66.3067 254.784 65.848C254.784 65.4533 254.677 65.128 254.464 64.872C254.261 64.6053 253.989 64.3813 253.648 64.2C253.306 64.008 252.944 63.8373 252.56 63.688C252.197 63.5493 251.829 63.4 251.456 63.24C251.082 63.0693 250.736 62.8667 250.416 62.632C250.096 62.3867 249.84 62.088 249.648 61.736C249.456 61.384 249.36 60.9573 249.36 60.456C249.36 59.848 249.504 59.32 249.792 58.872C250.09 58.4133 250.496 58.056 251.008 57.8C251.52 57.5333 252.106 57.3893 252.768 57.368C253.514 57.368 254.17 57.4587 254.736 57.64C255.312 57.8213 255.818 58.0453 256.256 58.312L255.664 59.496ZM258.758 57.432H266.278V58.92H260.31V62.44H265.638V63.928H260.31V67.512H266.502V69H258.758V57.432ZM270.027 57.432L273.835 67L272.955 66.824L276.571 57.432H278.379L273.275 69.528L268.187 57.432H270.027ZM280.695 69V57.064H280.711L286.775 65.672L286.119 65.544L292.167 57.064H292.199V69H290.663V60.584L290.759 61.368L286.391 67.544H286.359L281.927 61.368L282.199 60.648V69H280.695ZM294.403 68.152C294.403 67.9173 294.489 67.72 294.659 67.56C294.841 67.3893 295.038 67.304 295.251 67.304C295.443 67.304 295.625 67.3893 295.795 67.56C295.977 67.72 296.067 67.9173 296.067 68.152C296.067 68.408 295.977 68.616 295.795 68.776C295.625 68.9253 295.443 69 295.251 69C295.038 69 294.841 68.9253 294.659 68.776C294.489 68.616 294.403 68.408 294.403 68.152Z" fill="white"/>
<defs>
<linearGradient id="paint0_linear_2039_133428" x1="36.7399" y1="-209.701" x2="36.7399" y2="136.875" gradientUnits="userSpaceOnUse">
<stop stop-color="#CBA05F"/>
<stop offset="0.25" stop-color="#804E03"/>
<stop offset="0.37" stop-color="#986D05"/>
<stop offset="0.47" stop-color="#CBA05F"/>
<stop offset="0.62" stop-color="#E3D5A7"/>
<stop offset="0.73" stop-color="#E2D4A5"/>
<stop offset="0.77" stop-color="#E0CF9E"/>
<stop offset="0.8" stop-color="#DCC693"/>
<stop offset="0.82" stop-color="#D7B982"/>
<stop offset="0.84" stop-color="#CFAA6C"/>
<stop offset="0.85" stop-color="#CBA05F"/>
<stop offset="1" stop-color="#804E03"/>
</linearGradient>
<linearGradient id="paint1_linear_2039_133428" x1="36.7399" y1="-209.701" x2="36.7399" y2="136.876" gradientUnits="userSpaceOnUse">
<stop stop-color="#CBA05F"/>
<stop offset="0.25" stop-color="#804E03"/>
<stop offset="0.37" stop-color="#986D05"/>
<stop offset="0.47" stop-color="#CBA05F"/>
<stop offset="0.62" stop-color="#E3D5A7"/>
<stop offset="0.73" stop-color="#E2D4A5"/>
<stop offset="0.77" stop-color="#E0CF9E"/>
<stop offset="0.8" stop-color="#DCC693"/>
<stop offset="0.82" stop-color="#D7B982"/>
<stop offset="0.84" stop-color="#CFAA6C"/>
<stop offset="0.85" stop-color="#CBA05F"/>
<stop offset="1" stop-color="#804E03"/>
</linearGradient>
<linearGradient id="paint2_linear_2039_133428" x1="37.0522" y1="-209.701" x2="37.0522" y2="136.876" gradientUnits="userSpaceOnUse">
<stop stop-color="#CBA05F"/>
<stop offset="0.25" stop-color="#804E03"/>
<stop offset="0.37" stop-color="#986D05"/>
<stop offset="0.47" stop-color="#CBA05F"/>
<stop offset="0.62" stop-color="#E3D5A7"/>
<stop offset="0.73" stop-color="#E2D4A5"/>
<stop offset="0.77" stop-color="#E0CF9E"/>
<stop offset="0.8" stop-color="#DCC693"/>
<stop offset="0.82" stop-color="#D7B982"/>
<stop offset="0.84" stop-color="#CFAA6C"/>
<stop offset="0.85" stop-color="#CBA05F"/>
<stop offset="1" stop-color="#804E03"/>
</linearGradient>
<linearGradient id="paint3_linear_2039_133428" x1="36.5" y1="1" x2="36.5" y2="73" gradientUnits="userSpaceOnUse">
<stop stop-color="#F9D390"/>
<stop offset="1" stop-color="#E2B15B"/>
</linearGradient>
<linearGradient id="paint4_linear_2039_133428" x1="314" y1="1" x2="314" y2="17" gradientUnits="userSpaceOnUse">
<stop stop-color="#FFE0AB"/>
<stop offset="1" stop-color="#E9CA94"/>
</linearGradient>
<clipPath id="clip0_2039_133428">
<rect width="33.7748" height="52.17" fill="white" transform="translate(19.8525 11)"/>
</clipPath>
</defs>
</svg>
