<svg width="532" height="73" viewBox="0 0 532 73" fill="none" xmlns="http://www.w3.org/2000/svg">
<g clip-path="url(#clip0_2039_133428)">
<path fill-rule="evenodd" clip-rule="evenodd" d="M44.7469 53.634H44.0606C44.0606 55.0482 44.0606 56.2753 44.0606 57.2112C44.0635 57.9367 43.8911 58.6522 43.5579 59.2968C43.2248 59.9413 42.7408 60.4959 42.1472 60.9131C41.9393 61.0483 41.7313 61.1834 41.5337 61.2874C40.9826 61.5786 40.5874 61.6514 37.0519 61.6514C33.7971 61.6514 33.2772 61.589 32.5701 61.2874C31.8175 60.9271 31.1843 60.3583 30.7455 59.6486C30.3068 58.9389 30.0811 58.1182 30.0952 57.284C30.0952 56.3377 30.0952 55.1002 30.0952 53.6756H28.733C27.0209 53.6323 25.339 53.2152 23.805 52.4536C22.271 51.692 20.922 50.6043 19.8525 49.2666V52.1678C19.8525 53.6126 20.1371 55.0432 20.69 56.378C21.2429 57.7128 22.0533 58.9256 23.0749 59.9472C24.0965 60.9689 25.3093 61.7792 26.6441 62.3321C27.9789 62.885 29.4095 63.1696 30.8543 63.1696H42.6256C45.5434 63.1696 48.3418 62.0105 50.405 59.9472C52.4682 57.884 53.6273 55.0857 53.6273 52.1678V49.2666C52.5538 50.5966 51.2031 51.6765 49.6693 52.4308C48.1355 53.1851 46.4557 53.5957 44.7469 53.634Z" fill="url(#paint0_linear_2039_133428)"/>
<path fill-rule="evenodd" clip-rule="evenodd" d="M47.7937 17.8319V15.2738C47.7937 12.9134 42.8439 11 36.7399 11C30.6359 11 25.6862 12.9134 25.6862 15.2738V17.8319C23.9236 18.7685 22.4493 20.1675 21.4216 21.8785C20.3938 23.5896 19.8514 25.5482 19.8525 27.5442V45.4819C21.8283 49.0902 25.0519 51.4611 28.733 51.4611H30.0328C30.0328 41.9152 29.9288 26.7747 30.0848 24.1439C30.1437 23.0003 30.4079 21.8767 30.8647 20.8267C31.0995 20.2615 31.4543 19.7542 31.9046 19.3397L32.9444 21.617H41.0034L42.0433 19.3397C42.4967 19.7514 42.852 20.2596 43.0831 20.8267C43.5389 21.8776 43.8064 23.0004 43.8734 24.1439C44.019 26.7747 43.967 41.9152 43.8734 51.4611H44.5493C48.2096 51.4611 51.454 49.0902 53.4298 45.4819V27.5442C53.4502 25.5682 52.9375 23.6232 51.9456 21.914C50.9538 20.2048 49.5195 18.7946 47.7937 17.8319ZM40.4419 20.5979H33.6619L32.7885 18.7574C33.3589 18.4538 33.9933 18.2899 34.6394 18.2791H37.0831H39.4644C40.1083 18.2779 40.743 18.4312 41.3153 18.7262L40.4419 20.5979Z" fill="url(#paint1_linear_2039_133428)"/>
<path fill-rule="evenodd" clip-rule="evenodd" d="M42.1268 55.8391V23.4785C40.5023 23.8711 38.8378 24.0735 37.1666 24.0816C35.4155 24.0921 33.6695 23.8896 31.9673 23.4785V55.8391C33.6231 56.2785 35.3287 56.5022 37.0418 56.5046C38.7587 56.5076 40.4685 56.2838 42.1268 55.8391Z" fill="url(#paint2_linear_2039_133428)"/>
</g>
<rect x="1" y="1.5" width="71" height="71" rx="15.5" stroke="url(#paint3_linear_2039_133428)"/>
<path d="M106.74 12.088C106.58 12.2053 106.329 12.3493 105.988 12.52C105.647 12.6907 105.241 12.84 104.772 12.968C104.313 13.0853 103.801 13.1387 103.236 13.128C102.329 13.1173 101.513 12.9573 100.788 12.648C100.063 12.328 99.4493 11.9013 98.948 11.368C98.4467 10.824 98.0573 10.2053 97.78 9.512C97.5133 8.808 97.38 8.06133 97.38 7.272C97.38 6.38667 97.5187 5.576 97.796 4.84C98.0733 4.104 98.468 3.46933 98.98 2.936C99.492 2.392 100.1 1.97067 100.804 1.672C101.508 1.37333 102.276 1.224 103.108 1.224C103.844 1.224 104.5 1.32533 105.076 1.528C105.663 1.72 106.153 1.93867 106.548 2.184L105.812 3.944C105.513 3.73067 105.14 3.52267 104.692 3.32C104.244 3.11733 103.737 3.016 103.172 3.016C102.66 3.016 102.169 3.12267 101.7 3.336C101.231 3.53867 100.82 3.832 100.468 4.216C100.116 4.58933 99.8333 5.02667 99.62 5.528C99.4173 6.02933 99.316 6.57333 99.316 7.16C99.316 7.768 99.4067 8.328 99.588 8.84C99.78 9.34133 100.047 9.77867 100.388 10.152C100.74 10.5253 101.156 10.8187 101.636 11.032C102.127 11.2347 102.671 11.336 103.268 11.336C103.876 11.336 104.404 11.2453 104.852 11.064C105.311 10.872 105.679 10.6587 105.956 10.424L106.74 12.088ZM111.705 13.176C111.065 13.176 110.484 13.0427 109.961 12.776C109.449 12.5093 109.044 12.1147 108.745 11.592C108.446 11.0587 108.297 10.4027 108.297 9.624C108.297 8.856 108.452 8.2 108.761 7.656C109.081 7.10133 109.497 6.67467 110.009 6.376C110.532 6.07733 111.097 5.928 111.705 5.928C112.356 5.928 112.878 6.056 113.273 6.312C113.678 6.568 113.993 6.872 114.217 7.224L114.121 7.48L114.297 6.232H115.945V13H114.153V11.352L114.329 11.784C114.286 11.848 114.201 11.9547 114.073 12.104C113.945 12.2427 113.769 12.3973 113.545 12.568C113.321 12.7387 113.054 12.8827 112.745 13C112.446 13.1173 112.1 13.176 111.705 13.176ZM112.201 11.704C112.521 11.704 112.809 11.6453 113.065 11.528C113.332 11.4107 113.556 11.2453 113.737 11.032C113.929 10.8187 114.068 10.5627 114.153 10.264V8.792C114.068 8.51467 113.929 8.27467 113.737 8.072C113.545 7.85867 113.31 7.69333 113.033 7.576C112.766 7.45867 112.468 7.4 112.137 7.4C111.774 7.4 111.438 7.49067 111.129 7.672C110.82 7.85333 110.569 8.104 110.377 8.424C110.196 8.744 110.105 9.112 110.105 9.528C110.105 9.93333 110.201 10.3013 110.393 10.632C110.585 10.9627 110.841 11.224 111.161 11.416C111.481 11.608 111.828 11.704 112.201 11.704ZM122.532 13.176C122.062 13.176 121.609 13.0747 121.172 12.872C120.734 12.6693 120.382 12.392 120.116 12.04L120.212 11.496V16.248H118.42V6.104H119.972L120.212 7.672L120.052 7.192C120.382 6.82933 120.782 6.53067 121.252 6.296C121.732 6.05067 122.27 5.928 122.868 5.928C123.508 5.928 124.078 6.07733 124.58 6.376C125.081 6.67467 125.476 7.10133 125.764 7.656C126.062 8.2 126.212 8.84533 126.212 9.592C126.212 10.3387 126.052 10.9787 125.732 11.512C125.412 12.0453 124.974 12.456 124.42 12.744C123.865 13.032 123.236 13.176 122.532 13.176ZM122.18 11.752C122.574 11.752 122.937 11.6613 123.268 11.48C123.609 11.2987 123.881 11.048 124.084 10.728C124.286 10.3973 124.388 10.0293 124.388 9.624C124.388 9.19733 124.292 8.824 124.1 8.504C123.918 8.17333 123.668 7.91733 123.348 7.736C123.038 7.544 122.692 7.448 122.308 7.448C121.956 7.448 121.641 7.50667 121.364 7.624C121.086 7.74133 120.852 7.912 120.66 8.136C120.468 8.34933 120.318 8.60533 120.212 8.904V10.264C120.286 10.552 120.414 10.808 120.596 11.032C120.777 11.256 121.006 11.432 121.284 11.56C121.561 11.688 121.86 11.752 122.18 11.752ZM130.139 13.144C129.627 13.144 129.136 13.0533 128.667 12.872C128.208 12.6907 127.819 12.424 127.499 12.072L128.267 11.064C128.566 11.352 128.859 11.5653 129.147 11.704C129.446 11.832 129.728 11.896 129.995 11.896C130.198 11.896 130.379 11.8747 130.539 11.832C130.71 11.7787 130.843 11.6987 130.939 11.592C131.046 11.4853 131.099 11.3413 131.099 11.16C131.099 10.9467 131.024 10.7813 130.875 10.664C130.726 10.536 130.534 10.4347 130.299 10.36C130.064 10.2747 129.819 10.1947 129.563 10.12C128.976 9.93867 128.539 9.672 128.251 9.32C127.963 8.968 127.819 8.56267 127.819 8.104C127.819 7.752 127.91 7.416 128.091 7.096C128.272 6.76533 128.55 6.49333 128.923 6.28C129.296 6.06667 129.766 5.96 130.331 5.96C130.843 5.96 131.286 6.01867 131.659 6.136C132.043 6.24267 132.4 6.42933 132.731 6.696L132.043 7.768C131.851 7.58667 131.622 7.448 131.355 7.352C131.099 7.24533 130.864 7.18667 130.651 7.176C130.459 7.16533 130.288 7.192 130.139 7.256C129.99 7.30933 129.867 7.38933 129.771 7.496C129.686 7.60267 129.643 7.72533 129.643 7.864C129.632 8.07733 129.702 8.248 129.851 8.376C130.011 8.504 130.214 8.60533 130.459 8.68C130.704 8.75467 130.95 8.83467 131.195 8.92C131.526 9.016 131.819 9.14933 132.075 9.32C132.331 9.49067 132.528 9.69867 132.667 9.944C132.816 10.1787 132.891 10.472 132.891 10.824C132.891 11.2293 132.79 11.6133 132.587 11.976C132.384 12.328 132.08 12.6107 131.675 12.824C131.27 13.0373 130.758 13.144 130.139 13.144ZM137.049 13.288C136.43 13.288 135.918 13.1013 135.513 12.728C135.107 12.344 134.894 11.8533 134.873 11.256V6.232H136.665V10.616C136.686 10.9467 136.782 11.2187 136.953 11.432C137.123 11.6453 137.395 11.752 137.769 11.752C138.121 11.752 138.435 11.6453 138.713 11.432C138.99 11.208 139.203 10.904 139.353 10.52C139.513 10.136 139.593 9.704 139.593 9.224V6.232H141.385V13H139.769L139.625 11.512L139.673 11.752C139.534 12.04 139.337 12.3067 139.081 12.552C138.825 12.7867 138.521 12.968 138.169 13.096C137.827 13.224 137.454 13.288 137.049 13.288ZM143.857 0.52H145.649V13H143.857V0.52ZM151.339 13.176C150.539 13.176 149.856 13.0213 149.291 12.712C148.726 12.4027 148.294 11.976 147.995 11.432C147.696 10.8773 147.547 10.2533 147.547 9.56C147.547 8.87733 147.718 8.264 148.059 7.72C148.4 7.176 148.859 6.744 149.435 6.424C150.022 6.09333 150.667 5.928 151.371 5.928C152.299 5.928 153.062 6.2 153.659 6.744C154.267 7.27733 154.672 8.03467 154.875 9.016L149.419 10.856L149.003 9.848L153.259 8.328L152.891 8.536C152.774 8.216 152.582 7.93867 152.315 7.704C152.059 7.46933 151.696 7.352 151.227 7.352C150.854 7.352 150.523 7.44267 150.235 7.624C149.947 7.79467 149.718 8.04 149.547 8.36C149.387 8.66933 149.307 9.03733 149.307 9.464C149.307 9.90133 149.398 10.2853 149.579 10.616C149.76 10.9467 150.006 11.2027 150.315 11.384C150.624 11.5547 150.976 11.64 151.371 11.64C151.648 11.64 151.915 11.592 152.171 11.496C152.427 11.4 152.667 11.272 152.891 11.112L153.707 12.44C153.355 12.664 152.966 12.8453 152.539 12.984C152.123 13.112 151.723 13.176 151.339 13.176Z" fill="url(#paint4_linear_2039_133428)"/>
<path d="M98.164 25.432H99.716V35.512H105.588V37H98.164V25.432ZM107.173 33.624C107.173 32.9627 107.328 32.3653 107.637 31.832C107.957 31.2987 108.394 30.8773 108.949 30.568C109.504 30.2587 110.133 30.104 110.837 30.104C111.562 30.104 112.197 30.2587 112.741 30.568C113.285 30.8773 113.706 31.2987 114.005 31.832C114.304 32.3653 114.453 32.9627 114.453 33.624C114.453 34.2853 114.304 34.888 114.005 35.432C113.706 35.9653 113.28 36.3867 112.725 36.696C112.181 37.0053 111.546 37.16 110.821 37.16C110.117 37.16 109.488 37.016 108.933 36.728C108.389 36.4293 107.957 36.0187 107.637 35.496C107.328 34.9627 107.173 34.3387 107.173 33.624ZM108.661 33.64C108.661 34.0667 108.757 34.456 108.949 34.808C109.141 35.1493 109.397 35.4213 109.717 35.624C110.048 35.8267 110.41 35.928 110.805 35.928C111.221 35.928 111.589 35.8267 111.909 35.624C112.24 35.4213 112.496 35.1493 112.677 34.808C112.858 34.456 112.949 34.0667 112.949 33.64C112.949 33.2133 112.858 32.8293 112.677 32.488C112.496 32.136 112.24 31.8587 111.909 31.656C111.589 31.4427 111.221 31.336 110.805 31.336C110.4 31.336 110.032 31.4427 109.701 31.656C109.381 31.8693 109.125 32.152 108.933 32.504C108.752 32.8453 108.661 33.224 108.661 33.64ZM117.796 30.376L117.94 32.296L117.86 32.04C118.031 31.6347 118.276 31.2933 118.596 31.016C118.927 30.728 119.268 30.5093 119.62 30.36C119.983 30.2 120.297 30.12 120.564 30.12L120.484 31.592C119.983 31.56 119.54 31.656 119.156 31.88C118.783 32.104 118.484 32.4027 118.26 32.776C118.047 33.1493 117.94 33.5493 117.94 33.976V37H116.468V30.376H117.796ZM125.274 37.16C124.517 37.16 123.866 37.0107 123.322 36.712C122.778 36.4027 122.357 35.9867 122.058 35.464C121.77 34.9307 121.626 34.3227 121.626 33.64C121.626 32.9893 121.792 32.3973 122.122 31.864C122.453 31.3307 122.896 30.904 123.45 30.584C124.005 30.264 124.624 30.104 125.306 30.104C126.181 30.104 126.906 30.36 127.482 30.872C128.058 31.384 128.448 32.088 128.65 32.984L123.194 34.904L122.842 34.024L127.322 32.392L127.002 32.6C126.874 32.248 126.661 31.944 126.362 31.688C126.064 31.4213 125.674 31.288 125.194 31.288C124.789 31.288 124.426 31.3893 124.106 31.592C123.786 31.784 123.536 32.0507 123.354 32.392C123.173 32.7333 123.082 33.1227 123.082 33.56C123.082 34.0187 123.178 34.424 123.37 34.776C123.562 35.1173 123.824 35.3893 124.154 35.592C124.496 35.784 124.88 35.88 125.306 35.88C125.594 35.88 125.872 35.8267 126.138 35.72C126.416 35.6133 126.672 35.4747 126.906 35.304L127.594 36.408C127.264 36.632 126.89 36.8133 126.474 36.952C126.069 37.0907 125.669 37.16 125.274 37.16ZM131.843 30.376L131.971 31.864L131.907 31.736C132.152 31.2347 132.499 30.84 132.947 30.552C133.405 30.264 133.928 30.12 134.515 30.12C134.888 30.12 135.219 30.1787 135.507 30.296C135.795 30.4133 136.029 30.584 136.211 30.808C136.403 31.0213 136.525 31.288 136.579 31.608L136.499 31.656C136.755 31.176 137.107 30.8027 137.555 30.536C138.013 30.2587 138.493 30.12 138.995 30.12C139.645 30.12 140.157 30.3067 140.531 30.68C140.915 31.0427 141.112 31.5173 141.123 32.104V37H139.635V32.632C139.624 32.2907 139.539 32.008 139.379 31.784C139.229 31.5493 138.963 31.4213 138.579 31.4C138.195 31.4 137.848 31.5173 137.539 31.752C137.24 31.9867 137.005 32.2907 136.835 32.664C136.664 33.0267 136.573 33.4213 136.563 33.848V37H135.075V32.632C135.064 32.2907 134.973 32.008 134.803 31.784C134.643 31.5493 134.371 31.4213 133.987 31.4C133.592 31.4 133.245 31.5173 132.947 31.752C132.648 31.9867 132.413 32.2907 132.243 32.664C132.083 33.0373 132.003 33.4373 132.003 33.864V37H130.515V30.376H131.843Z" fill="white"/>
<defs>
<linearGradient id="paint0_linear_2039_133428" x1="36.7399" y1="-209.701" x2="36.7399" y2="136.875" gradientUnits="userSpaceOnUse">
<stop stop-color="#CBA05F"/>
<stop offset="0.25" stop-color="#804E03"/>
<stop offset="0.37" stop-color="#986D05"/>
<stop offset="0.47" stop-color="#CBA05F"/>
<stop offset="0.62" stop-color="#E3D5A7"/>
<stop offset="0.73" stop-color="#E2D4A5"/>
<stop offset="0.77" stop-color="#E0CF9E"/>
<stop offset="0.8" stop-color="#DCC693"/>
<stop offset="0.82" stop-color="#D7B982"/>
<stop offset="0.84" stop-color="#CFAA6C"/>
<stop offset="0.85" stop-color="#CBA05F"/>
<stop offset="1" stop-color="#804E03"/>
</linearGradient>
<linearGradient id="paint1_linear_2039_133428" x1="36.7399" y1="-209.701" x2="36.7399" y2="136.876" gradientUnits="userSpaceOnUse">
<stop stop-color="#CBA05F"/>
<stop offset="0.25" stop-color="#804E03"/>
<stop offset="0.37" stop-color="#986D05"/>
<stop offset="0.47" stop-color="#CBA05F"/>
<stop offset="0.62" stop-color="#E3D5A7"/>
<stop offset="0.73" stop-color="#E2D4A5"/>
<stop offset="0.77" stop-color="#E0CF9E"/>
<stop offset="0.8" stop-color="#DCC693"/>
<stop offset="0.82" stop-color="#D7B982"/>
<stop offset="0.84" stop-color="#CFAA6C"/>
<stop offset="0.85" stop-color="#CBA05F"/>
<stop offset="1" stop-color="#804E03"/>
</linearGradient>
<linearGradient id="paint2_linear_2039_133428" x1="37.0522" y1="-209.701" x2="37.0522" y2="136.876" gradientUnits="userSpaceOnUse">
<stop stop-color="#CBA05F"/>
<stop offset="0.25" stop-color="#804E03"/>
<stop offset="0.37" stop-color="#986D05"/>
<stop offset="0.47" stop-color="#CBA05F"/>
<stop offset="0.62" stop-color="#E3D5A7"/>
<stop offset="0.73" stop-color="#E2D4A5"/>
<stop offset="0.77" stop-color="#E0CF9E"/>
<stop offset="0.8" stop-color="#DCC693"/>
<stop offset="0.82" stop-color="#D7B982"/>
<stop offset="0.84" stop-color="#CFAA6C"/>
<stop offset="0.85" stop-color="#CBA05F"/>
<stop offset="1" stop-color="#804E03"/>
</linearGradient>
<linearGradient id="paint3_linear_2039_133428" x1="36.5" y1="1" x2="36.5" y2="73" gradientUnits="userSpaceOnUse">
<stop stop-color="#F9D390"/>
<stop offset="1" stop-color="#E2B15B"/>
</linearGradient>
<linearGradient id="paint4_linear_2039_133428" x1="314" y1="1" x2="314" y2="17" gradientUnits="userSpaceOnUse">
<stop stop-color="#FFE0AB"/>
<stop offset="1" stop-color="#E9CA94"/>
</linearGradient>
<clipPath id="clip0_2039_133428">
<rect width="33.7748" height="52.17" fill="white" transform="translate(19.8525 11)"/>
</clipPath>
</defs>
</svg>
