<svg width="231" height="67" viewBox="0 0 231 67" fill="none" xmlns="http://www.w3.org/2000/svg">
<g clip-path="url(#clip0_1_78)">
<path d="M231 49.93H230.93C228.851 49.9364 226.8 50.4116 224.93 51.32C223.05 52.2588 221.419 53.6296 220.17 55.32C219.854 55.7352 219.563 56.1693 219.3 56.62C219.17 56.84 219.05 57.07 218.93 57.29L218.59 57.98L217.36 60.62L215.11 65.44L168.79 65.53L121.93 65.7L75.08 65.93C59.46 66.01 43.8433 66.1233 28.23 66.27C43.8433 66.3967 59.46 66.5067 75.08 66.6L121.93 66.84L168.79 67L215.64 67.09H216.16L216.39 66.62L218.9 61.35L220.14 58.71L220.45 58.08L220.78 57.49C221.02 57.1 221.27 56.72 221.54 56.36C222.636 54.9068 224.062 53.7347 225.7 52.94C227.337 52.1509 229.132 51.744 230.95 51.75H231V49.93Z" fill="url(#paint0_linear_1_78)"/>
<path d="M231 21.58V16L230.93 15.86L229.86 18.16L219.57 40.09C217.85 43.75 216.13 47.41 214.44 51.09L209.61 61.48H184.04L157.81 61.57L105.33 61.78L52.86 62.07C35.3667 62.19 17.8767 62.3267 0.390015 62.48C17.8833 62.64 35.3734 62.7766 52.86 62.89L105.33 63.18L157.81 63.39L184.04 63.48L210.28 63.54H211L211.29 62.93L216.45 52C218.2 48.36 219.92 44.71 221.65 41L230.93 21.37L231 21.58Z" fill="url(#paint1_linear_1_78)"/>
<path d="M231 42L230.93 42.15L221.64 22.51L219.05 17L216.45 11.53L211.23 0.61L210.94 0H210.28L157.8 0.15L131.56 0.24L105.33 0.36L52.85 0.65C35.3633 0.763333 17.8733 0.896667 0.380005 1.05C17.8733 1.21 35.3633 1.34667 52.85 1.46L105.33 1.75L131.56 1.87L157.8 2L209.6 2.14L214.43 12.53L217 18L219.57 23.48L229.86 45.48L230.94 47.78L231.01 47.62L231 42Z" fill="url(#paint2_linear_1_78)"/>
<path d="M85.375 41.575V42H97.4L98.35 37.85L97.925 37.75C97.2 40.875 96.125 41.575 92.95 41.575H87.1C88.175 40.975 88.7 39.875 88.7 38.675V25C88.7 23.75 89.575 23.675 90.55 23.675C90.675 23.675 90.825 23.675 90.95 23.675V23.25H85.375V23.675C85.5 23.675 85.65 23.675 85.775 23.675C86.725 23.675 87.6 23.75 87.6 25V39.2C87.6 40.675 86.875 41.575 85.375 41.575ZM99.2178 32.6C99.2178 37.975 102.893 42.3 108.293 42.3C113.693 42.3 117.368 37.975 117.368 32.6C117.368 27.275 113.693 22.975 108.293 22.975C102.893 22.975 99.2178 27.275 99.2178 32.6ZM108.293 23.4C111.943 23.4 116.193 25.95 116.193 32.6C116.193 39.3 111.943 41.875 108.293 41.875C104.643 41.875 100.393 39.3 100.393 32.6C100.393 25.95 104.643 23.4 108.293 23.4ZM129.266 42.275C132.216 42.275 133.741 41.8 135.966 40.075V34.775C135.966 32.975 137.041 32.375 138.341 32.375V31.925H128.791L127.766 36.125L128.216 36.225C128.966 33.15 129.316 32.375 132.816 32.375H136.516C135.491 32.925 134.766 33.975 134.766 35.35V39.625C133.941 40.85 132.491 41.85 129.266 41.85C125.616 41.85 121.216 39.275 121.216 32.575C121.216 25.925 125.141 23.375 128.791 23.375C131.991 23.375 134.366 25.35 135.116 27.925L136.341 27.075C135.241 25.125 132.666 22.95 128.791 22.95C123.391 22.95 120.116 27.25 120.116 32.575C120.116 37.95 123.866 42.275 129.266 42.275ZM152.831 23.675C154.556 23.675 155.206 24.1 155.206 25.925V40.25C155.206 41.45 154.256 41.55 153.331 41.55C153.156 41.55 152.981 41.55 152.831 41.55V42H158.731V41.55C158.556 41.55 158.406 41.55 158.231 41.55C157.281 41.55 156.331 41.45 156.331 40.25V25.575C156.331 24.725 155.831 24.05 155.081 23.675H158.731V23.25H152.831V23.675ZM161.474 42H166.649V41.575H164.299L164.274 39.675V24.575L175.924 42H176.824V25.925C176.824 24.1 177.474 23.675 179.224 23.675V23.25H174.024V23.675H176.399V40.675L164.749 23.25H161.474V23.675C161.624 23.675 161.799 23.675 161.949 23.675C162.899 23.675 163.849 23.775 163.849 25V39.325C163.849 41.125 163.199 41.575 161.474 41.575V42Z" fill="white"/>
</g>
<defs>
<linearGradient id="paint0_linear_1_78" x1="28.21" y1="58.49" x2="231" y2="58.49" gradientUnits="userSpaceOnUse">
<stop stop-color="#663500"/>
<stop offset="0.26" stop-color="#B28A4C"/>
<stop offset="0.39" stop-color="#D0AD6A"/>
<stop offset="0.42" stop-color="#DABB7F"/>
<stop offset="0.47" stop-color="#E9D19F"/>
<stop offset="0.53" stop-color="#F4E0B6"/>
<stop offset="0.58" stop-color="#FBEAC4"/>
<stop offset="0.62" stop-color="#FDEDC9"/>
<stop offset="0.72" stop-color="#FCEBC6"/>
<stop offset="0.79" stop-color="#F7E4BC"/>
<stop offset="0.86" stop-color="#EFD9AC"/>
<stop offset="0.92" stop-color="#E4CA95"/>
<stop offset="0.98" stop-color="#D6B678"/>
<stop offset="1" stop-color="#D0AD6A"/>
</linearGradient>
<linearGradient id="paint1_linear_1_78" x1="0.390015" y1="39.71" x2="231" y2="39.71" gradientUnits="userSpaceOnUse">
<stop stop-color="#663500"/>
<stop offset="0.26" stop-color="#B28A4C"/>
<stop offset="0.39" stop-color="#D0AD6A"/>
<stop offset="0.42" stop-color="#DABB7F"/>
<stop offset="0.47" stop-color="#E9D19F"/>
<stop offset="0.53" stop-color="#F4E0B6"/>
<stop offset="0.58" stop-color="#FBEAC4"/>
<stop offset="0.62" stop-color="#FDEDC9"/>
<stop offset="0.72" stop-color="#FCEBC6"/>
<stop offset="0.79" stop-color="#F7E4BC"/>
<stop offset="0.86" stop-color="#EFD9AC"/>
<stop offset="0.92" stop-color="#E4CA95"/>
<stop offset="0.98" stop-color="#D6B678"/>
<stop offset="1" stop-color="#D0AD6A"/>
</linearGradient>
<linearGradient id="paint2_linear_1_78" x1="-21.44" y1="23.86" x2="432.46" y2="23.86" gradientUnits="userSpaceOnUse">
<stop stop-color="#663500"/>
<stop offset="0.26" stop-color="#B28A4C"/>
<stop offset="0.39" stop-color="#D0AD6A"/>
<stop offset="0.42" stop-color="#DABB7F"/>
<stop offset="0.47" stop-color="#E9D19F"/>
<stop offset="0.53" stop-color="#F4E0B6"/>
<stop offset="0.58" stop-color="#FBEAC4"/>
<stop offset="0.62" stop-color="#FDEDC9"/>
<stop offset="0.72" stop-color="#FCEBC6"/>
<stop offset="0.79" stop-color="#F7E4BC"/>
<stop offset="0.86" stop-color="#EFD9AC"/>
<stop offset="0.92" stop-color="#E4CA95"/>
<stop offset="0.98" stop-color="#D6B678"/>
<stop offset="1" stop-color="#D0AD6A"/>
</linearGradient>
<clipPath id="clip0_1_78">
<rect width="231" height="67" fill="white"/>
</clipPath>
</defs>
</svg>
