<svg width="110" height="39" viewBox="0 0 110 39" fill="none" xmlns="http://www.w3.org/2000/svg">
<mask id="path-1-inside-1_1998_82690" fill="white">
<path fill-rule="evenodd" clip-rule="evenodd" d="M20 0H109L89 20L108 39L20 39L0.5 19.5L20 0Z"/>
</mask>
<path fill-rule="evenodd" clip-rule="evenodd" d="M20 0H109L89 20L108 39L20 39L0.5 19.5L20 0Z" fill="url(#paint0_linear_1998_82690)"/>
<path d="M109 0L109.707 0.707107L111.414 -1H109V0ZM20 0V-1H19.5858L19.2929 -0.707107L20 0ZM89 20L88.2929 19.2929L87.5858 20L88.2929 20.7071L89 20ZM108 39V40H110.414L108.707 38.2929L108 39ZM20 39L19.2929 39.7071L19.5858 40H20V39ZM0.5 19.5L-0.207107 18.7929L-0.914214 19.5L-0.207107 20.2071L0.5 19.5ZM109 -1H20V1H109V-1ZM89.7071 20.7071L109.707 0.707107L108.293 -0.707107L88.2929 19.2929L89.7071 20.7071ZM108.707 38.2929L89.7071 19.2929L88.2929 20.7071L107.293 39.7071L108.707 38.2929ZM20 40L108 40V38L20 38V40ZM-0.207107 20.2071L19.2929 39.7071L20.7071 38.2929L1.20711 18.7929L-0.207107 20.2071ZM19.2929 -0.707107L-0.207107 18.7929L1.20711 20.2071L20.7071 0.707107L19.2929 -0.707107Z" fill="url(#paint1_linear_1998_82690)" mask="url(#path-1-inside-1_1998_82690)"/>
<path d="M31.4878 16.172L32.1118 13.5H41.1998L40.5598 16.236L40.2878 16.172C40.3411 15.98 40.3838 15.788 40.4158 15.596C40.4585 15.3933 40.4798 15.1907 40.4798 14.988C40.4798 14.7 40.4158 14.476 40.2878 14.316C40.1705 14.1453 40.0158 14.0227 39.8238 13.948C39.6318 13.8627 39.4131 13.8147 39.1678 13.804C38.9331 13.7827 38.7038 13.772 38.4798 13.772H38.1438H35.8558C36.1971 13.964 36.4318 14.2307 36.5598 14.572C36.6985 14.9133 36.7678 15.2707 36.7678 15.644V24.396C36.7678 24.588 36.7998 24.7427 36.8638 24.86C36.9278 24.9667 37.0131 25.052 37.1198 25.116C37.2265 25.1693 37.3491 25.2013 37.4878 25.212C37.6371 25.2227 37.7865 25.228 37.9358 25.228H38.1918V25.5H34.6238V25.228H34.8798C35.0398 25.228 35.1891 25.2227 35.3278 25.212C35.4665 25.2013 35.5891 25.1693 35.6958 25.116C35.8025 25.052 35.8878 24.9667 35.9518 24.86C36.0158 24.7427 36.0478 24.588 36.0478 24.396V15.308C36.0478 15.148 36.0371 14.9773 36.0158 14.796C35.9945 14.6147 35.9465 14.4493 35.8718 14.3C35.8078 14.14 35.7118 14.012 35.5838 13.916C35.4558 13.82 35.2905 13.772 35.0878 13.772C34.5651 13.772 34.1171 13.804 33.7438 13.868C33.3811 13.9213 33.0718 14.0387 32.8158 14.22C32.5598 14.3907 32.3465 14.636 32.1758 14.956C32.0158 15.276 31.8771 15.7027 31.7598 16.236L31.4878 16.172ZM50.6167 13.5L49.9767 16.236L49.7047 16.172C49.758 15.98 49.8007 15.788 49.8327 15.596C49.8647 15.3933 49.8807 15.1907 49.8807 14.988C49.8807 14.7 49.822 14.476 49.7047 14.316C49.5874 14.1453 49.4327 14.0227 49.2407 13.948C49.0594 13.8627 48.8514 13.8147 48.6167 13.804C48.3927 13.7827 48.1687 13.772 47.9447 13.772H47.5607H44.4407V19.052H47.0007C47.2247 19.052 47.3954 19.0093 47.5127 18.924C47.63 18.828 47.71 18.7107 47.7527 18.572C47.806 18.4227 47.8327 18.2573 47.8327 18.076C47.8327 17.8947 47.8327 17.7187 47.8327 17.548H48.1207V20.86H47.8327C47.8327 20.6893 47.8327 20.5133 47.8327 20.332C47.8327 20.1507 47.806 19.9907 47.7527 19.852C47.71 19.7027 47.63 19.58 47.5127 19.484C47.3954 19.388 47.2247 19.34 47.0007 19.34H43.6727C44.1847 19.596 44.4407 19.9907 44.4407 20.524V23.34C44.4407 23.7347 44.3447 24.0973 44.1527 24.428C43.9714 24.7587 43.7047 25.02 43.3527 25.212H47.3847C47.9074 25.212 48.3554 25.1853 48.7287 25.132C49.102 25.068 49.4167 24.9507 49.6727 24.78C49.9394 24.5987 50.158 24.348 50.3287 24.028C50.51 23.6973 50.6647 23.2707 50.7927 22.748L51.0967 22.812L50.4247 25.5H42.1847V25.212C43.2194 25.212 43.7367 24.7053 43.7367 23.692V20.748C43.7367 20.172 43.6247 19.7933 43.4007 19.612C43.1767 19.42 42.7767 19.324 42.2007 19.324V19.052H43.7367V14.62C43.7367 14.428 43.6994 14.2733 43.6247 14.156C43.5607 14.0387 43.47 13.9533 43.3527 13.9C43.2354 13.8467 43.102 13.8147 42.9527 13.804C42.8034 13.7827 42.654 13.772 42.5047 13.772H42.1847V13.5H50.6167ZM51.4472 25.212H51.6712C51.9592 25.212 52.2045 25.18 52.4072 25.116C52.6099 25.052 52.7699 24.8493 52.8872 24.508L56.4392 14.78C56.4712 14.684 56.5085 14.5773 56.5512 14.46C56.5939 14.3427 56.6152 14.236 56.6152 14.14C56.6152 13.9693 56.5352 13.868 56.3752 13.836C56.2259 13.804 56.0765 13.788 55.9272 13.788H55.7992V13.5H57.4472L60.1832 20.988H61.4952V21.244H61.2072C61.0472 21.244 60.8925 21.2653 60.7432 21.308C60.5939 21.34 60.5192 21.4467 60.5192 21.628C60.5192 21.7773 60.5512 21.9533 60.6152 22.156C60.6899 22.348 60.7539 22.5133 60.8072 22.652L61.3992 24.332C61.4739 24.5453 61.5592 24.7107 61.6552 24.828C61.7512 24.9453 61.8579 25.036 61.9752 25.1C62.1032 25.1533 62.2472 25.1853 62.4072 25.196C62.5779 25.2067 62.7645 25.212 62.9672 25.212V25.5H59.4792V25.212H59.7352C59.8419 25.212 59.9539 25.2067 60.0712 25.196C60.1885 25.1853 60.2952 25.164 60.3912 25.132C60.4979 25.1 60.5832 25.052 60.6472 24.988C60.7112 24.924 60.7432 24.8387 60.7432 24.732C60.7432 24.54 60.6952 24.332 60.5992 24.108C60.5139 23.8733 60.4179 23.6387 60.3112 23.404C60.2152 23.1693 60.1192 22.9347 60.0232 22.7C59.9379 22.4653 59.8952 22.236 59.8952 22.012C59.8952 21.8627 59.9272 21.7187 59.9912 21.58C60.0552 21.4413 60.1512 21.3293 60.2792 21.244H59.6392V21.26H54.3592L52.9512 25.212H54.0392V25.5H51.4472V25.212ZM59.4152 20.988L56.9512 14.236L54.4712 20.988H59.4152ZM64.0284 25.5V25.228C64.5831 25.228 64.9724 25.132 65.1964 24.94C65.4311 24.748 65.5484 24.364 65.5484 23.788V14.62C65.5484 14.428 65.5111 14.2733 65.4364 14.156C65.3724 14.0387 65.2818 13.9533 65.1644 13.9C65.0578 13.8467 64.9298 13.8147 64.7804 13.804C64.6311 13.7827 64.4818 13.772 64.3324 13.772H64.0284V13.5H66.0764L70.8124 24.876L76.0764 13.5H78.1084V13.772H77.8044C77.6551 13.772 77.5058 13.7827 77.3564 13.804C77.2071 13.8147 77.0738 13.8467 76.9564 13.9C76.8498 13.9533 76.7591 14.0387 76.6844 14.156C76.6204 14.2733 76.5884 14.428 76.5884 14.62V24.38C76.5884 24.572 76.6204 24.7267 76.6844 24.844C76.7591 24.9507 76.8498 25.0307 76.9564 25.084C77.0738 25.1373 77.2018 25.1747 77.3404 25.196C77.4898 25.2067 77.6391 25.212 77.7884 25.212H78.1084V25.5H74.3324V25.212H74.6524C74.8018 25.212 74.9511 25.2067 75.1004 25.196C75.2498 25.1747 75.3778 25.1373 75.4844 25.084C75.6018 25.0307 75.6924 24.9507 75.7564 24.844C75.8311 24.7267 75.8684 24.572 75.8684 24.38V14.62L70.8444 25.5H70.3004L65.8204 14.78V25.228H67.3404V25.5H64.0284Z" fill="white"/>
<defs>
<linearGradient id="paint0_linear_1998_82690" x1="54.75" y1="0" x2="54.75" y2="39" gradientUnits="userSpaceOnUse">
<stop stop-color="#0A0910"/>
<stop offset="1" stop-color="#07162D"/>
</linearGradient>
<linearGradient id="paint1_linear_1998_82690" x1="54.75" y1="0" x2="54.75" y2="39" gradientUnits="userSpaceOnUse">
<stop stop-color="#F9D390"/>
<stop offset="1" stop-color="#E2B15B"/>
</linearGradient>
</defs>
</svg>
