<svg width="1920" height="87" viewBox="0 0 1920 87" fill="none" xmlns="http://www.w3.org/2000/svg">
<path d="M0 83.57C58.46 83.01 116.93 82.69 175.39 82.31L263.08 81.77L350.78 81.37C467.7 80.87 584.623 80.5367 701.55 80.37L876.94 80.18H1052.33L1227.71 80.33L1403.1 80.69L1400.75 81.85L1442.61 27.16C1453.9 13.001 1470.1 3.61422 1488 0.87C1489.48 0.66 1491 0.42 1492.44 0.33C1493.88 0.24 1495.44 0.06 1496.9 0.06L1499.14 0H1501.3H1505.62L1643.74 0.6L1781.87 1.44L1850.93 1.88L1919.99 2.46L1850.93 3.05L1781.87 3.49L1643.74 4.33L1505.63 5H1501.31H1499.16L1497.08 5.07C1495.69 5.07 1494.31 5.21 1492.93 5.34C1491.55 5.47 1490.18 5.68 1488.81 5.88C1472.23 8.50363 1457.26 17.285 1446.87 30.47L1405.45 85.35L1404.58 86.51H1403.1L1227.71 86.86L1052.33 87H876.94L701.55 86.81C584.63 86.61 467.707 86.2767 350.78 85.81L263.08 85.41L175.39 84.87C116.93 84.47 58.4667 84.0367 0 83.57Z" fill="url(#paint0_linear_1_12)"/>
<defs>
<linearGradient id="paint0_linear_1_12" x1="0" y1="43.5" x2="1920" y2="43.5" gradientUnits="userSpaceOnUse">
<stop stop-color="#D6C896"/>
<stop offset="0.08" stop-color="#D5C28C"/>
<stop offset="0.39" stop-color="#D0AD6A"/>
<stop offset="0.42" stop-color="#DABB7F"/>
<stop offset="0.47" stop-color="#E9D19F"/>
<stop offset="0.53" stop-color="#F4E0B6"/>
<stop offset="0.58" stop-color="#FBEAC4"/>
<stop offset="0.62" stop-color="#FDEDC9"/>
<stop offset="0.72" stop-color="#FCEBC6"/>
<stop offset="0.79" stop-color="#F7E4BC"/>
<stop offset="0.86" stop-color="#EFD9AC"/>
<stop offset="0.92" stop-color="#E4CA95"/>
<stop offset="0.98" stop-color="#D6B678"/>
<stop offset="1" stop-color="#D0AD6A"/>
</linearGradient>
</defs>
</svg>
