<svg width="1057" height="38" viewBox="0 0 1057 38" fill="none" xmlns="http://www.w3.org/2000/svg">
<line x1="1.5" y1="-1.5" x2="495.5" y2="-1.5" transform="matrix(-1 0 0 1 1057 5)" stroke="url(#paint0_linear_2028_82060)" stroke-width="3" stroke-linecap="square"/>
<line x1="1.5" y1="3.5" x2="495.5" y2="3.5" stroke="url(#paint1_linear_2028_82060)" stroke-width="3" stroke-linecap="square"/>
<path fill-rule="evenodd" clip-rule="evenodd" d="M493 2.00003L495.121 4.12132L526.334 35.3345L528.456 37.4558L530.577 35.3345L561.79 4.12132L563.912 2H559.669L528.456 33.2132L497.243 2.00003H493Z" fill="url(#paint2_linear_2028_82060)"/>
<path d="M519.612 14.5001L528.5 1.74885L537.388 14.5001L528.5 27.2514L519.612 14.5001Z" stroke="url(#paint3_linear_2028_82060)" stroke-width="2"/>
<defs>
<linearGradient id="paint0_linear_2028_82060" x1="497" y1="0" x2="0" y2="0" gradientUnits="userSpaceOnUse">
<stop stop-color="#EDA423"/>
<stop offset="0.203125" stop-color="#EDC67B" stop-opacity="0.796875"/>
<stop offset="0.4375" stop-color="#EDA423" stop-opacity="0.5625"/>
<stop offset="1" stop-color="#FBE4B7" stop-opacity="0"/>
</linearGradient>
<linearGradient id="paint1_linear_2028_82060" x1="497" y1="5" x2="0" y2="5" gradientUnits="userSpaceOnUse">
<stop stop-color="#EDA423"/>
<stop offset="0.203125" stop-color="#EDC67B" stop-opacity="0.796875"/>
<stop offset="0.4375" stop-color="#EDA423" stop-opacity="0.5625"/>
<stop offset="1" stop-color="#FBE4B7" stop-opacity="0"/>
</linearGradient>
<linearGradient id="paint2_linear_2028_82060" x1="528.456" y1="2" x2="528.456" y2="37.4558" gradientUnits="userSpaceOnUse">
<stop stop-color="#EDA527"/>
<stop offset="1" stop-color="#FFDEA5"/>
</linearGradient>
<linearGradient id="paint3_linear_2028_82060" x1="535.75" y1="7.25005" x2="521.25" y2="21.7502" gradientUnits="userSpaceOnUse">
<stop stop-color="#F9D390"/>
<stop offset="1" stop-color="#E2B15B"/>
</linearGradient>
</defs>
</svg>
