<svg width="282" height="252" viewBox="0 0 282 252" fill="none" xmlns="http://www.w3.org/2000/svg">
<circle cx="88.0912" cy="88.6523" r="64.1591" fill="url(#paint0_linear_2027_129897)" stroke="url(#paint1_linear_2027_129897)" stroke-width="1.5"/>
<line x1="23.1821" y1="89.0384" x2="153" y2="89.0385" stroke="#EEC276" stroke-width="0.772727"/>
<path fill-rule="evenodd" clip-rule="evenodd" d="M88.0909 2.10698C51.9681 2.10698 21.0141 24.2377 8.04788 55.6803C3.18613 66.2273 0.347626 77.899 0.02991 90.1979H0.013284C0.00444002 89.6838 0 89.1686 0 88.6524C0 40.0012 39.4396 0.561523 88.0909 0.561523C136.742 0.561523 176.182 40.0012 176.182 88.6524C176.182 89.1686 176.177 89.6838 176.169 90.1979H176.152C175.834 77.899 172.996 66.2273 168.134 55.6803C155.168 24.2377 124.214 2.10698 88.0909 2.10698Z" fill="url(#paint2_linear_2027_129897)"/>
<path d="M164.614 89.039C164.614 103.118 156.16 115.952 142.311 125.299C128.467 134.644 109.3 140.448 88.0908 140.448C66.8819 140.448 47.7143 134.644 33.8704 125.299C20.0221 115.952 11.5681 103.118 11.5681 89.039C11.5681 74.9601 20.0221 62.1262 33.8704 52.7786C47.7143 43.4339 66.8819 37.6299 88.0908 37.6299C109.3 37.6299 128.467 43.4339 142.311 52.7786C156.16 62.1262 164.614 74.9601 164.614 89.039Z" stroke="url(#paint3_linear_2027_129897)" stroke-width="1.5"/>
<path d="M63.9468 62.9175C63.9468 60.9975 64.2588 59.2095 64.8828 57.5535C65.5308 55.8735 66.4188 54.4095 67.5468 53.1615C68.6988 51.9135 70.0788 50.9295 71.6868 50.2095C73.2948 49.4895 75.0708 49.1295 77.0148 49.1295C78.9588 49.1295 80.7348 49.4895 82.3428 50.2095C83.9508 50.9295 85.3188 51.9135 86.4468 53.1615C87.5988 54.4095 88.4868 55.8735 89.1108 57.5535C89.7588 59.2095 90.0828 60.9975 90.0828 62.9175C90.0828 65.0535 89.6508 67.0215 88.7868 68.8215C87.9228 70.5975 86.7708 72.2055 85.3308 73.6455C83.9148 75.0855 82.2828 76.3335 80.4348 77.3895C78.6108 78.4695 76.7268 79.3455 74.7828 80.0175C75.3348 79.8255 75.9228 79.6695 76.5468 79.5495C77.1708 79.4535 77.9628 79.4055 78.9228 79.4055C79.7388 79.4055 80.5428 79.5855 81.3348 79.9455C82.1508 80.3295 82.9188 80.7375 83.6388 81.1695C84.3588 81.6015 85.0308 81.9975 85.6548 82.3575C86.2788 82.7415 86.8068 82.9335 87.2388 82.9335C87.8628 82.9335 88.4268 82.8135 88.9308 82.5735C89.4348 82.3335 89.9868 81.9015 90.5868 81.2775L90.9468 81.4935C90.2508 82.6455 89.5068 83.4015 88.7148 83.7615C87.9468 84.1455 87.2508 84.3375 86.6268 84.3375C85.9068 84.3375 85.2108 84.1575 84.5388 83.7975C83.8908 83.4375 83.2308 83.0415 82.5588 82.6095C81.8868 82.1775 81.1908 81.7815 80.4708 81.4215C79.7508 81.0615 78.9588 80.8815 78.0948 80.8815C77.3268 80.8815 76.5948 80.9055 75.8988 80.9535C75.2268 81.0015 74.5068 81.0975 73.7388 81.2415C72.9948 81.3855 72.1548 81.5775 71.2188 81.8175C70.3068 82.0815 69.2268 82.4055 67.9788 82.7895L67.7988 82.2495C68.9988 81.7695 70.3308 81.2415 71.7948 80.6655C73.2588 80.0895 74.7468 79.4295 76.2588 78.6855C77.7708 77.9415 79.2468 77.0895 80.6868 76.1295C82.1268 75.1455 83.3988 74.0175 84.5028 72.7455C85.6308 71.4735 86.5308 70.0335 87.2028 68.4255C87.8988 66.7935 88.2468 64.9575 88.2468 62.9175C88.2468 60.5415 87.9108 58.5135 87.2388 56.8335C86.5668 55.1535 85.6908 53.7975 84.6108 52.7655C83.5308 51.7095 82.3188 50.9415 80.9748 50.4615C79.6548 49.9815 78.3348 49.7415 77.0148 49.7415C75.6948 49.7415 74.3628 49.9815 73.0188 50.4615C71.6988 50.9415 70.4988 51.7095 69.4188 52.7655C68.3388 53.7975 67.4628 55.1535 66.7908 56.8335C66.1188 58.5135 65.7828 60.5415 65.7828 62.9175C65.7828 65.3175 66.1188 67.3575 66.7908 69.0375C67.4628 70.7175 68.3388 72.0855 69.4188 73.1415C70.4988 74.1975 71.6988 74.9655 73.0188 75.4455C74.3628 75.9255 75.6948 76.1655 77.0148 76.1655V76.7775C75.0708 76.7775 73.2948 76.4175 71.6868 75.6975C70.0788 74.9775 68.6988 73.9935 67.5468 72.7455C66.4188 71.4735 65.5308 69.9975 64.8828 68.3175C64.2588 66.6375 63.9468 64.8375 63.9468 62.9175ZM93.2812 76.5615C93.2812 74.5215 93.7012 72.7695 94.5412 71.3055C95.4052 69.8175 96.4852 68.5095 97.7812 67.3815C99.0772 66.2535 100.469 65.2455 101.957 64.3575C103.445 63.4455 104.837 62.5575 106.133 61.6935C107.429 60.8295 108.497 59.9295 109.337 58.9935C110.201 58.0575 110.633 56.9775 110.633 55.7535C110.633 54.7695 110.429 53.9175 110.021 53.1975C109.637 52.4535 109.121 51.8535 108.473 51.3975C107.825 50.9175 107.081 50.5695 106.241 50.3535C105.425 50.1135 104.585 49.9935 103.721 49.9935C102.497 49.9935 101.453 50.1855 100.589 50.5695C99.7252 50.9295 98.9692 51.4455 98.3212 52.1175C97.6972 52.7655 97.1692 53.5455 96.7372 54.4575C96.3052 55.3455 95.9092 56.3175 95.5492 57.3735L93.7492 56.2215C94.7332 53.9655 96.0172 52.2615 97.6012 51.1095C99.2092 49.9335 101.249 49.3455 103.721 49.3455C104.801 49.3455 105.833 49.4895 106.817 49.7775C107.801 50.0655 108.665 50.4975 109.409 51.0735C110.177 51.6495 110.777 52.3815 111.209 53.2695C111.665 54.1575 111.893 55.2015 111.893 56.4015C111.893 57.6255 111.449 58.7655 110.561 59.8215C109.697 60.8535 108.605 61.8495 107.285 62.8095C105.965 63.7695 104.525 64.7055 102.965 65.6175C101.429 66.5295 100.001 67.4775 98.6812 68.4615C97.3612 69.4455 96.2572 70.4895 95.3692 71.5935C94.5052 72.6975 94.0732 73.9095 94.0732 75.2295H105.053C106.181 75.2295 107.153 75.1575 107.969 75.0135C108.785 74.8455 109.481 74.5575 110.057 74.1495C110.633 73.7175 111.113 73.1415 111.497 72.4215C111.881 71.7015 112.205 70.7775 112.469 69.6495L113.117 69.7935L111.641 76.5615H93.2812Z" fill="#00226D"/>
<path d="M64.8828 57.5535L64.4163 57.3736L64.4149 57.3772L64.8828 57.5535ZM67.5468 53.1615L67.1794 52.8224L67.1759 52.8263L67.5468 53.1615ZM71.6868 50.2095L71.4825 49.7532L71.4825 49.7532L71.6868 50.2095ZM82.3428 50.2095L82.5471 49.7532L82.5471 49.7532L82.3428 50.2095ZM86.4468 53.1615L86.0758 53.4968L86.0794 53.5007L86.4468 53.1615ZM89.1108 57.5535L88.642 57.7276L88.6452 57.7357L89.1108 57.5535ZM88.7868 68.8215L89.2364 69.0403L89.2376 69.0379L88.7868 68.8215ZM85.3308 73.6455L84.9772 73.292L84.9743 73.295L85.3308 73.6455ZM80.4348 77.3895L80.1867 76.9554L80.1801 76.9593L80.4348 77.3895ZM74.7828 80.0175L74.6185 79.5453L74.9462 80.4901L74.7828 80.0175ZM76.5468 79.5495L76.4708 79.0553L76.4615 79.0568L76.4524 79.0585L76.5468 79.5495ZM81.3348 79.9455L81.5477 79.4931L81.5417 79.4903L81.3348 79.9455ZM83.6388 81.1695L83.896 80.7408L83.896 80.7408L83.6388 81.1695ZM85.6548 82.3575L85.9168 81.9317L85.9108 81.928L85.9047 81.9244L85.6548 82.3575ZM88.9308 82.5735L88.7158 82.1221L88.7158 82.1221L88.9308 82.5735ZM90.5868 81.2775L90.844 80.8488L90.5025 80.6438L90.2264 80.931L90.5868 81.2775ZM90.9468 81.4935L91.3748 81.7521L91.6341 81.3228L91.204 81.0648L90.9468 81.4935ZM88.7148 83.7615L88.5079 83.3063L88.4995 83.3102L88.4912 83.3143L88.7148 83.7615ZM84.5388 83.7975L84.2959 84.2347L84.3027 84.2383L84.5388 83.7975ZM82.5588 82.6095L82.2884 83.0301L82.2884 83.0301L82.5588 82.6095ZM80.4708 81.4215L80.2472 81.8687L80.2472 81.8687L80.4708 81.4215ZM75.8988 80.9535L75.8644 80.4547L75.8632 80.4548L75.8988 80.9535ZM73.7388 81.2415L73.6467 80.7501L73.6438 80.7506L73.7388 81.2415ZM71.2188 81.8175L71.0946 81.3332L71.0872 81.3351L71.0798 81.3372L71.2188 81.8175ZM67.9788 82.7895L67.5045 82.9476L67.6589 83.4111L68.1258 83.2674L67.9788 82.7895ZM67.7988 82.2495L67.6131 81.7853L67.1754 81.9604L67.3245 82.4076L67.7988 82.2495ZM71.7948 80.6655L71.6117 80.2002L71.6117 80.2002L71.7948 80.6655ZM76.2588 78.6855L76.4796 79.1342L76.4796 79.1342L76.2588 78.6855ZM80.6868 76.1295L80.9642 76.5456L80.9689 76.5423L80.6868 76.1295ZM84.5028 72.7455L84.1287 72.4138L84.1252 72.4178L84.5028 72.7455ZM87.2028 68.4255L86.7429 68.2294L86.7415 68.2327L87.2028 68.4255ZM87.2388 56.8335L87.703 56.6478L87.703 56.6478L87.2388 56.8335ZM84.6108 52.7655L84.2612 53.123L84.2654 53.127L84.6108 52.7655ZM80.9748 50.4615L80.8039 50.9314L80.8066 50.9324L80.9748 50.4615ZM73.0188 50.4615L72.8506 49.9906L72.8479 49.9916L73.0188 50.4615ZM69.4188 52.7655L69.7642 53.127L69.7684 53.123L69.4188 52.7655ZM66.7908 56.8335L66.3266 56.6478L66.3266 56.6478L66.7908 56.8335ZM66.7908 69.0375L66.3266 69.2232L66.3266 69.2232L66.7908 69.0375ZM69.4188 73.1415L69.7684 72.784L69.7684 72.784L69.4188 73.1415ZM73.0188 75.4455L72.8479 75.9154L72.8506 75.9164L73.0188 75.4455ZM77.0148 76.1655H77.5148V75.6655H77.0148V76.1655ZM77.0148 76.7775V77.2775H77.5148V76.7775H77.0148ZM71.6868 75.6975L71.4825 76.1539L71.6868 75.6975ZM67.5468 72.7455L67.1726 73.0773L67.1794 73.0847L67.5468 72.7455ZM64.8828 68.3175L64.414 68.4916L64.4163 68.4975L64.8828 68.3175ZM64.4468 62.9175C64.4468 61.0526 64.7497 59.3249 65.3507 57.7298L64.4149 57.3772C63.7679 59.0942 63.4468 60.9424 63.4468 62.9175H64.4468ZM65.3493 57.7335C65.9768 56.1066 66.8337 54.6962 67.9177 53.4968L67.1759 52.8263C66.0039 54.1229 65.0848 55.6404 64.4163 57.3736L65.3493 57.7335ZM67.9142 53.5007C69.0186 52.3042 70.3425 51.3593 71.8911 50.6659L71.4825 49.7532C69.8151 50.4998 68.379 51.5228 67.1794 52.8224L67.9142 53.5007ZM71.8911 50.6659C73.4285 49.9775 75.1339 49.6295 77.0148 49.6295V48.6295C75.0077 48.6295 73.1611 49.0015 71.4825 49.7532L71.8911 50.6659ZM77.0148 49.6295C78.8957 49.6295 80.6011 49.9775 82.1385 50.6659L82.5471 49.7532C80.8685 49.0015 79.0219 48.6295 77.0148 48.6295V49.6295ZM82.1385 50.6659C83.6862 51.3589 84.9966 52.3027 86.0759 53.4968L86.8177 52.8263C85.641 51.5243 84.2154 50.5002 82.5471 49.7532L82.1385 50.6659ZM86.0794 53.5007C87.1848 54.6982 88.0395 56.1053 88.6421 57.7276L89.5795 57.3794C88.9341 55.6418 88.0128 54.1209 86.8142 52.8224L86.0794 53.5007ZM88.6452 57.7357C89.2687 59.3292 89.5828 61.0549 89.5828 62.9175H90.5828C90.5828 60.9402 90.2489 59.0899 89.5764 57.3713L88.6452 57.7357ZM89.5828 62.9175C89.5828 64.984 89.1654 66.8773 88.336 68.6052L89.2376 69.0379C90.1362 67.1657 90.5828 65.1231 90.5828 62.9175H89.5828ZM88.3372 68.6028C87.4982 70.3273 86.3792 71.89 84.9772 73.292L85.6844 73.9991C87.1624 72.521 88.3474 70.8678 89.2364 69.0403L88.3372 68.6028ZM84.9743 73.295C83.5921 74.7005 81.9971 75.9209 80.1867 76.9554L80.6829 77.8236C82.5685 76.7461 84.2375 75.4705 85.6873 73.9961L84.9743 73.295ZM80.1801 76.9593C78.3841 78.0227 76.5307 78.8843 74.6194 79.545L74.9462 80.4901C76.9229 79.8068 78.8375 78.9164 80.6895 77.8198L80.1801 76.9593ZM74.9471 80.4898C75.4744 80.3064 76.0389 80.1564 76.6412 80.0405L76.4524 79.0585C75.8067 79.1827 75.1952 79.3447 74.6185 79.5453L74.9471 80.4898ZM76.6228 80.0437C77.2123 79.953 77.9766 79.9055 78.9228 79.9055V78.9055C77.949 78.9055 77.1293 78.954 76.4708 79.0553L76.6228 80.0437ZM78.9228 79.9055C79.6628 79.9055 80.3965 80.0683 81.1279 80.4007L81.5417 79.4903C80.6891 79.1028 79.8148 78.9055 78.9228 78.9055V79.9055ZM81.1219 80.3979C81.9238 80.7753 82.6769 81.1755 83.3816 81.5983L83.896 80.7408C83.1607 80.2995 82.3778 79.8837 81.5477 79.4931L81.1219 80.3979ZM83.3816 81.5983C84.1036 82.0315 84.7781 82.429 85.4049 82.7906L85.9047 81.9244C85.2835 81.5661 84.614 81.1715 83.896 80.7408L83.3816 81.5983ZM85.3927 82.7834C86.047 83.186 86.6703 83.4335 87.2388 83.4335V82.4335C86.9433 82.4335 86.5106 82.2971 85.9168 81.9317L85.3927 82.7834ZM87.2388 83.4335C87.9283 83.4335 88.5671 83.3005 89.1458 83.025L88.7158 82.1221C88.2865 82.3265 87.7973 82.4335 87.2388 82.4335V83.4335ZM89.1458 83.025C89.7256 82.7488 90.3259 82.2702 90.9472 81.6241L90.2264 80.931C89.6477 81.5328 89.144 81.9182 88.7158 82.1221L89.1458 83.025ZM90.3296 81.7063L90.6896 81.9223L91.204 81.0648L90.844 80.8488L90.3296 81.7063ZM90.5188 81.235C89.8485 82.3445 89.1704 83.0052 88.5079 83.3063L88.9217 84.2167C89.8432 83.7979 90.6531 82.9465 91.3748 81.7521L90.5188 81.235ZM88.4912 83.3143C87.7679 83.6759 87.1496 83.8375 86.6268 83.8375V84.8375C87.352 84.8375 88.1257 84.6151 88.9384 84.2087L88.4912 83.3143ZM86.6268 83.8375C85.994 83.8375 85.3787 83.6802 84.7749 83.3568L84.3027 84.2383C85.0429 84.6348 85.8196 84.8375 86.6268 84.8375V83.8375ZM84.7816 83.3604C84.1437 83.006 83.4929 82.6156 82.8292 82.1889L82.2884 83.0301C82.9687 83.4675 83.6379 83.869 84.296 84.2346L84.7816 83.3604ZM82.8292 82.1889C82.142 81.7472 81.4303 81.3423 80.6944 80.9743L80.2472 81.8687C80.9513 82.2208 81.6316 82.6079 82.2884 83.0301L82.8292 82.1889ZM80.6944 80.9743C79.9 80.5771 79.0306 80.3815 78.0948 80.3815V81.3815C78.887 81.3815 79.6016 81.546 80.2472 81.8687L80.6944 80.9743ZM78.0948 80.3815C77.3164 80.3815 76.5729 80.4058 75.8644 80.4547L75.9332 81.4523C76.6167 81.4052 77.3371 81.3815 78.0948 81.3815V80.3815ZM75.8632 80.4548C75.1695 80.5043 74.4305 80.6031 73.6467 80.7501L73.8309 81.733C74.5831 81.5919 75.2841 81.4987 75.9344 81.4523L75.8632 80.4548ZM73.6438 80.7506C72.8878 80.897 72.0378 81.0914 71.0946 81.3332L71.343 82.3019C72.2718 82.0637 73.1018 81.8741 73.8338 81.7324L73.6438 80.7506ZM71.0798 81.3372C70.1643 81.6022 69.0815 81.9271 67.8318 82.3116L68.1258 83.2674C69.3721 82.884 70.4493 82.5608 71.3578 82.2978L71.0798 81.3372ZM68.4531 82.6314L68.2731 82.0914L67.3245 82.4076L67.5045 82.9476L68.4531 82.6314ZM67.9845 82.7138C69.1835 82.2342 70.5146 81.7065 71.9779 81.1308L71.6117 80.2002C70.147 80.7765 68.8141 81.3049 67.6131 81.7853L67.9845 82.7138ZM71.9779 81.1308C73.4555 80.5494 74.9561 79.8838 76.4796 79.1342L76.038 78.2369C74.5375 78.9753 73.0621 79.6296 71.6117 80.2002L71.9779 81.1308ZM76.4796 79.1342C78.0116 78.3803 79.5065 77.5173 80.9641 76.5455L80.4094 75.7135C78.9871 76.6617 77.53 77.5028 76.038 78.2369L76.4796 79.1342ZM80.9689 76.5423C82.443 75.5351 83.7474 74.3787 84.8804 73.0733L84.1252 72.4178C83.0502 73.6563 81.8106 74.756 80.4047 75.7167L80.9689 76.5423ZM84.8769 73.0773C86.0423 71.763 86.9714 70.2758 87.6641 68.6183L86.7415 68.2327C86.0902 69.7912 85.2193 71.184 84.1287 72.4138L84.8769 73.0773ZM87.6627 68.6217C88.3888 66.9191 88.7468 65.0149 88.7468 62.9175H87.7468C87.7468 64.9001 87.4088 66.668 86.7429 68.2294L87.6627 68.6217ZM88.7468 62.9175C88.7468 60.4968 88.4048 58.4022 87.703 56.6478L86.7746 57.0192C87.4168 58.6248 87.7468 60.5862 87.7468 62.9175H88.7468ZM87.703 56.6478C87.01 54.9152 86.0977 53.4948 84.9562 52.404L84.2654 53.127C85.2839 54.1003 86.1236 55.3919 86.7746 57.0192L87.703 56.6478ZM84.9604 52.408C83.8319 51.3046 82.5588 50.4963 81.143 49.9907L80.8066 50.9324C82.0788 51.3867 83.2297 52.1145 84.2612 53.123L84.9604 52.408ZM81.1457 49.9916C79.7744 49.493 78.3967 49.2415 77.0148 49.2415V50.2415C78.2729 50.2415 79.5352 50.47 80.8039 50.9314L81.1457 49.9916ZM77.0148 49.2415C75.633 49.2415 74.2442 49.4929 72.8506 49.9907L73.187 50.9324C74.4814 50.4701 75.7566 50.2415 77.0148 50.2415V49.2415ZM72.8479 49.9916C71.4561 50.4977 70.1962 51.3061 69.0692 52.408L69.7684 53.123C70.8014 52.113 71.9415 51.3853 73.1897 50.9314L72.8479 49.9916ZM69.0734 52.404C67.9319 53.4948 67.0196 54.9152 66.3266 56.6478L67.255 57.0192C67.906 55.3919 68.7457 54.1003 69.7642 53.127L69.0734 52.404ZM66.3266 56.6478C65.6248 58.4022 65.2828 60.4968 65.2828 62.9175H66.2828C66.2828 60.5862 66.6128 58.6248 67.255 57.0192L66.3266 56.6478ZM65.2828 62.9175C65.2828 65.3615 65.6246 67.4683 66.3266 69.2232L67.255 68.8518C66.613 67.2467 66.2828 65.2735 66.2828 62.9175H65.2828ZM66.3266 69.2232C67.0194 70.9553 67.9306 72.3857 69.0692 73.499L69.7684 72.784C68.747 71.7853 67.9062 70.4798 67.255 68.8518L66.3266 69.2232ZM69.0692 73.499C70.1962 74.601 71.4561 75.4093 72.8479 75.9154L73.1897 74.9756C71.9415 74.5217 70.8014 73.7941 69.7684 72.784L69.0692 73.499ZM72.8506 75.9164C74.2442 76.4141 75.633 76.6655 77.0148 76.6655V75.6655C75.7566 75.6655 74.4814 75.4369 73.187 74.9747L72.8506 75.9164ZM76.5148 76.1655V76.7775H77.5148V76.1655H76.5148ZM77.0148 76.2775C75.1339 76.2775 73.4285 75.9295 71.8911 75.2412L71.4825 76.1539C73.1611 76.9055 75.0077 77.2775 77.0148 77.2775V76.2775ZM71.8911 75.2412C70.3425 74.5478 69.0186 73.6028 67.9142 72.4064L67.1794 73.0847C68.379 74.3842 69.8151 75.4073 71.4825 76.1539L71.8911 75.2412ZM67.9209 72.4138C66.8348 71.189 65.9771 69.7652 65.3493 68.1376L64.4163 68.4975C65.0845 70.2298 66.0028 71.758 67.1727 73.0773L67.9209 72.4138ZM65.3515 68.1434C64.7496 66.523 64.4468 64.7824 64.4468 62.9175H63.4468C63.4468 64.8927 63.768 66.752 64.4141 68.4916L65.3515 68.1434ZM93.2812 76.5615H92.7812V77.0615H93.2812V76.5615ZM94.5412 71.3055L94.1088 71.0545L94.1075 71.0567L94.5412 71.3055ZM97.7812 67.3815L97.4529 67.0044L97.4529 67.0044L97.7812 67.3815ZM101.957 64.3575L102.213 64.7869L102.218 64.7838L101.957 64.3575ZM106.133 61.6935L106.411 62.1095L106.411 62.1095L106.133 61.6935ZM109.337 58.9935L108.97 58.6543L108.965 58.6596L109.337 58.9935ZM110.021 53.1975L109.577 53.4268L109.581 53.4355L109.586 53.444L110.021 53.1975ZM108.473 51.3975L108.175 51.7994L108.185 51.8064L108.473 51.3975ZM106.241 50.3535L106.1 50.8332L106.108 50.8356L106.117 50.8378L106.241 50.3535ZM100.589 50.5695L100.782 51.0312L100.792 51.0264L100.589 50.5695ZM98.3212 52.1175L97.9612 51.7705L97.961 51.7707L98.3212 52.1175ZM96.7372 54.4575L97.1868 54.6763L97.189 54.6716L96.7372 54.4575ZM95.5492 57.3735L95.2796 57.7947L95.8167 58.1384L96.0224 57.5349L95.5492 57.3735ZM93.7492 56.2215L93.2909 56.0216L93.1203 56.4127L93.4796 56.6427L93.7492 56.2215ZM97.6012 51.1095L97.8953 51.5139L97.8963 51.5131L97.6012 51.1095ZM106.817 49.7775L106.677 50.2574L106.677 50.2574L106.817 49.7775ZM109.409 51.0735L109.103 51.4689L109.109 51.4735L109.409 51.0735ZM111.209 53.2695L110.759 53.4883L110.764 53.4979L111.209 53.2695ZM110.561 59.8215L110.178 59.4997L110.178 59.5006L110.561 59.8215ZM107.285 62.8095L106.991 62.4052L106.991 62.4052L107.285 62.8095ZM102.965 65.6175L102.713 65.1859L102.71 65.1876L102.965 65.6175ZM95.3692 71.5935L94.9795 71.2801L94.9754 71.2854L95.3692 71.5935ZM94.0732 75.2295H93.5732V75.7295H94.0732V75.2295ZM107.969 75.0135L108.056 75.5059L108.063 75.5047L108.07 75.5033L107.969 75.0135ZM110.057 74.1495L110.346 74.5577L110.357 74.5495L110.057 74.1495ZM111.497 72.4215L111.056 72.1862L111.056 72.1862L111.497 72.4215ZM112.469 69.6495L112.578 69.1614L112.095 69.0542L111.982 69.5356L112.469 69.6495ZM113.117 69.7935L113.606 69.9001L113.712 69.4135L113.226 69.3054L113.117 69.7935ZM111.641 76.5615V77.0615H112.044L112.13 76.6681L111.641 76.5615ZM93.7812 76.5615C93.7812 74.5907 94.1865 72.9283 94.9749 71.5544L94.1075 71.0567C93.2158 72.6108 92.7812 74.4524 92.7812 76.5615H93.7812ZM94.9736 71.5566C95.8101 70.116 96.8549 68.8506 98.1094 67.7587L97.4529 67.0044C96.1155 68.1685 95.0003 69.5191 94.1088 71.0545L94.9736 71.5566ZM98.1094 67.7587C99.3828 66.6503 100.751 65.6598 102.213 64.7869L101.701 63.9282C100.188 64.8313 98.7715 65.8567 97.4529 67.0044L98.1094 67.7587ZM102.218 64.7838C103.711 63.8689 105.109 62.9775 106.411 62.1095L105.856 61.2775C104.566 62.1376 103.179 63.0222 101.696 63.9312L102.218 64.7838ZM106.411 62.1095C107.734 61.2276 108.836 60.3011 109.709 59.3275L108.965 58.6596C108.159 59.558 107.125 60.4315 105.856 61.2775L106.411 62.1095ZM109.705 59.3327C110.65 58.3084 111.133 57.1087 111.133 55.7535H110.133C110.133 56.8463 109.752 57.8066 108.97 58.6544L109.705 59.3327ZM111.133 55.7535C111.133 54.6995 110.914 53.7593 110.456 52.951L109.586 53.444C109.944 54.0758 110.133 54.8396 110.133 55.7535H111.133ZM110.465 52.9682C110.047 52.1568 109.479 51.4936 108.761 50.9886L108.185 51.8064C108.764 52.2134 109.228 52.7503 109.577 53.4268L110.465 52.9682ZM108.771 50.9957C108.067 50.4745 107.263 50.1001 106.366 49.8693L106.117 50.8378C106.899 51.0389 107.583 51.3605 108.176 51.7993L108.771 50.9957ZM106.382 49.8738C105.52 49.6202 104.632 49.4935 103.721 49.4935V50.4935C104.538 50.4935 105.331 50.6069 106.1 50.8332L106.382 49.8738ZM103.721 49.4935C102.447 49.4935 101.33 49.6931 100.386 50.1126L100.792 51.0264C101.576 50.6779 102.547 50.4935 103.721 50.4935V49.4935ZM100.397 50.108C99.4699 50.4942 98.6568 51.0491 97.9612 51.7705L98.6811 52.4646C99.2815 51.8419 99.9804 51.3648 100.781 51.0311L100.397 50.108ZM97.961 51.7707C97.2952 52.4621 96.7377 53.2884 96.2853 54.2435L97.189 54.6716C97.6007 53.8026 98.0992 53.0689 98.6813 52.4643L97.961 51.7707ZM96.2876 54.2388C95.8454 55.1476 95.4418 56.1391 95.0759 57.2122L96.0224 57.5349C96.3766 56.496 96.7649 55.5434 97.1868 54.6763L96.2876 54.2388ZM95.8187 56.9524L94.0187 55.8004L93.4796 56.6427L95.2796 57.7947L95.8187 56.9524ZM94.2075 56.4214C95.1649 54.2263 96.3995 52.6017 97.8953 51.5139L97.3071 50.7052C95.6349 51.9213 94.3014 53.7047 93.2909 56.0216L94.2075 56.4214ZM97.8963 51.5131C99.3999 50.4135 101.329 49.8455 103.721 49.8455V48.8455C101.169 48.8455 99.0185 49.4535 97.306 50.7059L97.8963 51.5131ZM103.721 49.8455C104.756 49.8455 105.741 49.9834 106.677 50.2574L106.958 49.2977C105.926 48.9956 104.846 48.8455 103.721 48.8455V49.8455ZM106.677 50.2574C107.606 50.5294 108.413 50.9345 109.103 51.4689L109.715 50.6782C108.918 50.0606 107.996 49.6016 106.958 49.2977L106.677 50.2574ZM109.109 51.4735C109.812 52.0005 110.361 52.6696 110.76 53.4883L111.659 53.0508C111.193 52.0935 110.543 51.2986 109.709 50.6735L109.109 51.4735ZM110.764 53.4979C111.177 54.3023 111.393 55.265 111.393 56.4015H112.393C112.393 55.138 112.153 54.0127 111.654 53.0411L110.764 53.4979ZM111.393 56.4015C111.393 57.4928 111.001 58.5216 110.178 59.4997L110.944 60.1433C111.897 59.0094 112.393 57.7583 112.393 56.4015H111.393ZM110.178 59.5006C109.345 60.4954 108.285 61.4643 106.991 62.4052L107.579 63.2139C108.926 62.2347 110.049 61.2116 110.945 60.1425L110.178 59.5006ZM106.991 62.4052C105.686 63.3544 104.26 64.2814 102.713 65.1859L103.218 66.0492C104.79 65.1297 106.244 64.1846 107.579 63.2139L106.991 62.4052ZM102.71 65.1876C101.16 66.1078 99.7175 67.0654 98.3823 68.0607L98.98 68.8624C100.285 67.8897 101.698 66.9513 103.22 66.0475L102.71 65.1876ZM98.3823 68.0607C97.0338 69.0659 95.8979 70.1385 94.9796 71.2801L95.7588 71.9069C96.6165 70.8406 97.6885 69.8251 98.98 68.8624L98.3823 68.0607ZM94.9754 71.2854C94.0472 72.4715 93.5732 73.7906 93.5732 75.2295H94.5732C94.5732 74.0284 94.9632 72.9236 95.7629 71.9017L94.9754 71.2854ZM94.0732 75.7295H105.053V74.7295H94.0732V75.7295ZM105.053 75.7295C106.201 75.7295 107.203 75.6564 108.056 75.5059L107.882 74.5211C107.103 74.6586 106.162 74.7295 105.053 74.7295V75.7295ZM108.07 75.5033C108.942 75.3238 109.705 75.012 110.346 74.5575L109.768 73.7415C109.258 74.103 108.629 74.3673 107.868 74.5238L108.07 75.5033ZM110.357 74.5495C110.999 74.0681 111.525 73.4328 111.938 72.6568L111.056 72.1862C110.702 72.8503 110.267 73.3669 109.757 73.7495L110.357 74.5495ZM111.938 72.6568C112.349 71.8862 112.686 70.9176 112.956 69.7635L111.982 69.5356C111.724 70.6375 111.413 71.5168 111.056 72.1862L111.938 72.6568ZM112.361 70.1376L113.009 70.2816L113.226 69.3054L112.578 69.1614L112.361 70.1376ZM112.629 69.687L111.153 76.455L112.13 76.6681L113.606 69.9001L112.629 69.687ZM111.641 76.0615H93.2812V77.0615H111.641V76.0615Z" fill="#00226D"/>
<path d="M53.0023 122.062C53.0023 120.418 53.3407 119.007 54.0173 117.828C54.7133 116.629 55.5833 115.575 56.6273 114.667C57.6713 113.758 58.7927 112.946 59.9913 112.231C61.19 111.496 62.3113 110.781 63.3553 110.085C64.3993 109.389 65.2597 108.664 65.9363 107.91C66.6323 107.156 66.9803 106.286 66.9803 105.3C66.9803 104.507 66.816 103.821 66.4873 103.241C66.178 102.641 65.7623 102.158 65.2403 101.791C64.7183 101.404 64.119 101.124 63.4423 100.95C62.785 100.756 62.1083 100.66 61.4123 100.66C60.4263 100.66 59.5853 100.814 58.8893 101.124C58.1933 101.414 57.5843 101.829 57.0623 102.371C56.5597 102.893 56.1343 103.521 55.7863 104.256C55.4383 104.971 55.1193 105.754 54.8293 106.605L53.3793 105.677C54.172 103.859 55.2063 102.487 56.4823 101.559C57.7777 100.611 59.421 100.138 61.4123 100.138C62.2823 100.138 63.1137 100.254 63.9063 100.486C64.699 100.718 65.395 101.066 65.9943 101.53C66.613 101.994 67.0963 102.583 67.4443 103.299C67.8117 104.014 67.9953 104.855 67.9953 105.822C67.9953 106.808 67.6377 107.726 66.9223 108.577C66.2263 109.408 65.3467 110.21 64.2833 110.984C63.22 111.757 62.06 112.511 60.8033 113.246C59.566 113.98 58.4157 114.744 57.3523 115.537C56.289 116.329 55.3997 117.17 54.6843 118.06C53.9883 118.949 53.6403 119.925 53.6403 120.989H62.4853C63.394 120.989 64.177 120.931 64.8343 120.815C65.4917 120.679 66.0523 120.447 66.5163 120.119C66.9803 119.771 67.367 119.307 67.6763 118.727C67.9857 118.147 68.2467 117.402 68.4593 116.494L68.9813 116.61L67.7923 122.062H53.0023ZM70.8792 111.158C70.8792 109.63 71.0242 108.2 71.3142 106.866C71.6042 105.512 72.0682 104.343 72.7062 103.357C73.3442 102.351 74.1756 101.559 75.2002 100.979C76.2442 100.399 77.5009 100.109 78.9702 100.109C80.4589 100.109 81.7156 100.399 82.7402 100.979C83.7649 101.559 84.5962 102.351 85.2342 103.357C85.8722 104.343 86.3362 105.512 86.6262 106.866C86.9162 108.2 87.0612 109.63 87.0612 111.158C87.0612 112.685 86.9162 114.125 86.6262 115.479C86.3362 116.813 85.8722 117.982 85.2342 118.988C84.5962 119.993 83.7649 120.786 82.7402 121.366C81.7156 121.946 80.4589 122.236 78.9702 122.236C77.5009 122.236 76.2442 121.946 75.2002 121.366C74.1756 120.786 73.3442 119.993 72.7062 118.988C72.0682 117.982 71.6042 116.813 71.3142 115.479C71.0242 114.125 70.8792 112.685 70.8792 111.158ZM78.9702 121.743C79.9176 121.743 80.7972 121.569 81.6092 121.221C82.4406 120.873 83.1559 120.293 83.7552 119.481C84.3739 118.649 84.8572 117.557 85.2052 116.204C85.5532 114.85 85.7272 113.168 85.7272 111.158C85.7272 109.147 85.5532 107.465 85.2052 106.112C84.8572 104.758 84.3739 103.676 83.7552 102.864C83.1559 102.052 82.4406 101.472 81.6092 101.124C80.7972 100.776 79.9176 100.602 78.9702 100.602C78.0229 100.602 77.1336 100.776 76.3022 101.124C75.4902 101.472 74.7749 102.052 74.1562 102.864C73.5569 103.676 73.0832 104.758 72.7352 106.112C72.3872 107.465 72.2132 109.147 72.2132 111.158C72.2132 113.168 72.3872 114.85 72.7352 116.204C73.0832 117.557 73.5569 118.649 74.1562 119.481C74.7749 120.293 75.4902 120.873 76.3022 121.221C77.1336 121.569 78.0229 121.743 78.9702 121.743ZM89.0824 122.062C89.0824 120.418 89.4207 119.007 90.0974 117.828C90.7934 116.629 91.6634 115.575 92.7074 114.667C93.7514 113.758 94.8727 112.946 96.0714 112.231C97.2701 111.496 98.3914 110.781 99.4354 110.085C100.479 109.389 101.34 108.664 102.016 107.91C102.712 107.156 103.06 106.286 103.06 105.3C103.06 104.507 102.896 103.821 102.567 103.241C102.258 102.641 101.842 102.158 101.32 101.791C100.798 101.404 100.199 101.124 99.5224 100.95C98.8651 100.756 98.1884 100.66 97.4924 100.66C96.5064 100.66 95.6654 100.814 94.9694 101.124C94.2734 101.414 93.6644 101.829 93.1424 102.371C92.6397 102.893 92.2144 103.521 91.8664 104.256C91.5184 104.971 91.1994 105.754 90.9094 106.605L89.4594 105.677C90.2521 103.859 91.2864 102.487 92.5624 101.559C93.8577 100.611 95.5011 100.138 97.4924 100.138C98.3624 100.138 99.1937 100.254 99.9864 100.486C100.779 100.718 101.475 101.066 102.074 101.53C102.693 101.994 103.176 102.583 103.524 103.299C103.892 104.014 104.075 104.855 104.075 105.822C104.075 106.808 103.718 107.726 103.002 108.577C102.306 109.408 101.427 110.21 100.363 110.984C99.3001 111.757 98.1401 112.511 96.8834 113.246C95.6461 113.98 94.4957 114.744 93.4324 115.537C92.3691 116.329 91.4797 117.17 90.7644 118.06C90.0684 118.949 89.7204 119.925 89.7204 120.989H98.5654C99.4741 120.989 100.257 120.931 100.914 120.815C101.572 120.679 102.132 120.447 102.596 120.119C103.06 119.771 103.447 119.307 103.756 118.727C104.066 118.147 104.327 117.402 104.539 116.494L105.061 116.61L103.872 122.062H89.0824ZM106.669 116.697L108.264 115.769C108.554 116.619 108.873 117.412 109.221 118.147C109.569 118.862 109.985 119.49 110.468 120.032C110.971 120.573 111.57 120.998 112.266 121.308C112.982 121.598 113.842 121.743 114.847 121.743C115.775 121.743 116.626 121.627 117.399 121.395C118.192 121.163 118.869 120.815 119.429 120.351C120.009 119.867 120.454 119.268 120.763 118.553C121.092 117.818 121.256 116.967 121.256 116.001C121.256 114.667 121.034 113.613 120.589 112.84C120.164 112.066 119.584 111.486 118.849 111.1C118.115 110.694 117.245 110.442 116.239 110.346C115.253 110.249 114.19 110.201 113.049 110.201L112.73 109.65L120.357 101.414L114.064 101.385C113.175 101.385 112.411 101.452 111.773 101.588C111.135 101.723 110.584 101.955 110.12 102.284C109.676 102.612 109.299 103.067 108.989 103.647C108.68 104.227 108.419 104.971 108.206 105.88L107.684 105.764L108.873 100.312H121.198V101.414L113.484 109.621C114.702 109.621 115.853 109.669 116.935 109.766C118.037 109.862 119.004 110.123 119.835 110.549C120.667 110.974 121.324 111.612 121.807 112.463C122.31 113.313 122.561 114.483 122.561 115.972C122.561 117.074 122.339 118.021 121.894 118.814C121.469 119.587 120.889 120.235 120.154 120.757C119.439 121.259 118.617 121.636 117.689 121.888C116.781 122.12 115.833 122.236 114.847 122.236C112.837 122.236 111.174 121.772 109.859 120.844C108.545 119.896 107.481 118.514 106.669 116.697Z" fill="#00226D"/>
<path d="M53.0023 122.062H52.5023V122.562H53.0023V122.062ZM54.0173 117.828L53.5849 117.576L53.5836 117.579L54.0173 117.828ZM56.6273 114.667L56.2991 114.289L56.2991 114.289L56.6273 114.667ZM59.9913 112.231L60.2476 112.66L60.2526 112.657L59.9913 112.231ZM63.3553 110.085L63.6327 110.501L63.6327 110.501L63.3553 110.085ZM65.9363 107.91L65.5689 107.57L65.5642 107.576L65.9363 107.91ZM66.4873 103.241L66.043 103.47L66.0475 103.479L66.0523 103.487L66.4873 103.241ZM65.2403 101.791L64.9426 102.192L64.9526 102.199L65.2403 101.791ZM63.4423 100.95L63.3012 101.429L63.3095 101.432L63.3178 101.434L63.4423 100.95ZM58.8893 101.124L59.0817 101.585L59.0924 101.58L58.8893 101.124ZM57.0623 102.371L56.7024 102.023L56.7022 102.024L57.0623 102.371ZM55.7863 104.256L56.236 104.474L56.2382 104.47L55.7863 104.256ZM54.8293 106.605L54.5598 107.026L55.0968 107.369L55.3026 106.766L54.8293 106.605ZM53.3793 105.677L52.921 105.477L52.7505 105.868L53.1098 106.098L53.3793 105.677ZM56.4823 101.559L56.7764 101.963L56.7775 101.962L56.4823 101.559ZM63.9063 100.486L63.7659 100.965L63.7659 100.965L63.9063 100.486ZM65.9943 101.53L65.6882 101.925L65.6943 101.93L65.9943 101.53ZM67.4443 103.299L66.9946 103.517L66.9995 103.527L67.4443 103.299ZM66.9223 108.577L66.5396 108.255L66.5389 108.256L66.9223 108.577ZM64.2833 110.984L63.9892 110.579L63.9892 110.579L64.2833 110.984ZM60.8033 113.246L60.551 112.814L60.5481 112.816L60.8033 113.246ZM54.6843 118.06L54.2947 117.746L54.2906 117.751L54.6843 118.06ZM53.6403 120.989H53.1403V121.489H53.6403V120.989ZM64.8343 120.815L64.9212 121.307L64.9282 121.306L64.9352 121.304L64.8343 120.815ZM66.5163 120.119L66.8054 120.527L66.8163 120.519L66.5163 120.119ZM67.6763 118.727L67.2351 118.491L67.2351 118.491L67.6763 118.727ZM68.4593 116.494L68.5678 116.005L68.0851 115.898L67.9725 116.38L68.4593 116.494ZM68.9813 116.61L69.4698 116.716L69.576 116.229L69.0898 116.121L68.9813 116.61ZM67.7923 122.062V122.562H68.195L68.2808 122.168L67.7923 122.062ZM53.5023 122.062C53.5023 120.487 53.826 119.166 54.451 118.076L53.5836 117.579C52.8553 118.848 52.5023 120.349 52.5023 122.062H53.5023ZM54.4497 118.079C55.1182 116.927 55.953 115.916 56.9556 115.044L56.2991 114.289C55.2136 115.234 54.3084 116.33 53.5849 117.576L54.4497 118.079ZM56.9556 115.044C57.977 114.155 59.0742 113.36 60.2476 112.66L59.7351 111.801C58.5111 112.532 57.3657 113.361 56.2991 114.289L56.9556 115.044ZM60.2526 112.657C61.4561 111.919 62.5828 111.2 63.6327 110.501L63.078 109.668C62.0398 110.361 60.9239 111.072 59.73 111.804L60.2526 112.657ZM63.6327 110.501C64.7037 109.787 65.598 109.035 66.3084 108.243L65.5642 107.576C64.9213 108.292 64.095 108.99 63.078 109.668L63.6327 110.501ZM66.3037 108.249C67.0812 107.406 67.4803 106.417 67.4803 105.3H66.4803C66.4803 106.154 66.1835 106.905 65.5689 107.57L66.3037 108.249ZM67.4803 105.3C67.4803 104.437 67.301 103.662 66.9223 102.994L66.0523 103.487C66.331 103.979 66.4803 104.577 66.4803 105.3H67.4803ZM66.9316 103.011C66.5875 102.344 66.1197 101.798 65.5281 101.382L64.9526 102.199C65.4049 102.518 65.7685 102.938 66.043 103.47L66.9316 103.011ZM65.5379 101.389C64.9603 100.961 64.3012 100.654 63.5668 100.465L63.3178 101.434C63.9368 101.593 64.4764 101.847 64.9427 102.192L65.5379 101.389ZM63.5834 100.47C62.8795 100.263 62.1553 100.16 61.4123 100.16V101.16C62.0613 101.16 62.6905 101.25 63.3012 101.429L63.5834 100.47ZM61.4123 100.16C60.3761 100.16 59.4621 100.322 58.6863 100.667L59.0924 101.58C59.7086 101.307 60.4765 101.16 61.4123 101.16V100.16ZM58.697 100.662C57.9381 100.978 57.272 101.433 56.7024 102.023L57.4222 102.718C57.8967 102.226 58.4486 101.849 59.0816 101.585L58.697 100.662ZM56.7022 102.024C56.1577 102.589 55.7028 103.264 55.3345 104.041L56.2382 104.47C56.5658 103.778 56.9616 103.196 57.4225 102.717L56.7022 102.024ZM55.3367 104.037C54.9786 104.773 54.6519 105.575 54.3561 106.443L55.3026 106.766C55.5867 105.932 55.8981 105.169 56.2359 104.474L55.3367 104.037ZM55.0989 106.183L53.6489 105.255L53.1098 106.098L54.5598 107.026L55.0989 106.183ZM53.8376 105.876C54.6037 104.12 55.5886 102.827 56.7764 101.963L56.1882 101.154C54.824 102.146 53.7402 103.598 52.921 105.477L53.8376 105.876ZM56.7775 101.962C57.9684 101.091 59.5012 100.638 61.4123 100.638V99.6375C59.3408 99.6375 57.587 100.131 56.1872 101.155L56.7775 101.962ZM61.4123 100.638C62.2373 100.638 63.0212 100.747 63.7659 100.965L64.0468 100.006C63.2061 99.7596 62.3273 99.6375 61.4123 99.6375V100.638ZM63.7659 100.965C64.5039 101.181 65.1426 101.502 65.6882 101.925L66.3004 101.134C65.6474 100.629 64.8941 100.254 64.0468 100.006L63.7659 100.965ZM65.6943 101.93C66.2476 102.344 66.6804 102.871 66.9947 103.517L67.8939 103.08C67.5122 102.295 66.9784 101.643 66.2943 101.13L65.6943 101.93ZM66.9995 103.527C67.324 104.159 67.4953 104.918 67.4953 105.822H68.4953C68.4953 104.791 68.2994 103.869 67.8891 103.07L66.9995 103.527ZM67.4953 105.822C67.4953 106.675 67.1895 107.482 66.5396 108.255L67.305 108.898C68.0859 107.97 68.4953 106.94 68.4953 105.822H67.4953ZM66.5389 108.256C65.874 109.05 65.0262 109.825 63.9892 110.579L64.5774 111.388C65.6671 110.595 66.5786 109.766 67.3057 108.897L66.5389 108.256ZM63.9892 110.579C62.9407 111.342 61.7948 112.087 60.551 112.814L61.0557 113.677C62.3252 112.935 63.4993 112.172 64.5774 111.388L63.9892 110.579ZM60.5481 112.816C59.297 113.558 58.1319 114.332 57.0535 115.136L57.6512 115.937C58.6994 115.156 59.835 114.402 61.0586 113.675L60.5481 112.816ZM57.0535 115.136C55.9617 115.95 55.0404 116.819 54.2947 117.746L55.0739 118.373C55.759 117.521 56.6163 116.709 57.6512 115.937L57.0535 115.136ZM54.2906 117.751C53.5303 118.723 53.1403 119.806 53.1403 120.989H54.1403C54.1403 120.044 54.4463 119.175 55.0781 118.368L54.2906 117.751ZM53.6403 121.489H62.4853V120.489H53.6403V121.489ZM62.4853 121.489C63.4135 121.489 64.227 121.429 64.9212 121.307L64.7474 120.322C64.1269 120.432 63.3745 120.489 62.4853 120.489V121.489ZM64.9352 121.304C65.6481 121.157 66.2757 120.902 66.8053 120.527L66.2273 119.711C65.829 119.993 65.3352 120.201 64.7335 120.325L64.9352 121.304ZM66.8163 120.519C67.3462 120.121 67.7783 119.598 68.1175 118.962L67.2351 118.491C66.9557 119.015 66.6144 119.42 66.2163 119.719L66.8163 120.519ZM68.1175 118.962C68.4538 118.331 68.7274 117.542 68.9462 116.607L67.9725 116.38C67.7659 117.262 67.5175 117.962 67.2351 118.491L68.1175 118.962ZM68.3509 116.982L68.8729 117.098L69.0898 116.121L68.5678 116.005L68.3509 116.982ZM68.4928 116.503L67.3038 121.955L68.2808 122.168L69.4698 116.716L68.4928 116.503ZM67.7923 121.562H53.0023V122.562H67.7923V121.562ZM71.3142 106.866L71.8028 106.972L71.8031 106.97L71.3142 106.866ZM72.7062 103.357L73.126 103.628L73.1284 103.624L72.7062 103.357ZM75.2002 100.979L74.9574 100.541L74.9539 100.543L75.2002 100.979ZM82.7402 100.979L82.9865 100.543L82.9865 100.543L82.7402 100.979ZM85.2342 103.357L84.8121 103.624L84.8145 103.628L85.2342 103.357ZM86.6262 106.866L86.1373 106.97L86.1377 106.972L86.6262 106.866ZM86.6262 115.479L87.1148 115.585L87.1151 115.583L86.6262 115.479ZM85.2342 118.988L84.8121 118.72L84.8121 118.72L85.2342 118.988ZM82.7402 121.366L82.9865 121.801L82.7402 121.366ZM75.2002 121.366L74.9539 121.801L74.9574 121.803L75.2002 121.366ZM72.7062 118.988L73.1284 118.72L73.1284 118.72L72.7062 118.988ZM71.3142 115.479L70.8253 115.583L70.8257 115.585L71.3142 115.479ZM81.6092 121.221L81.4162 120.759L81.4123 120.761L81.6092 121.221ZM83.7552 119.481L83.3541 119.182L83.353 119.184L83.7552 119.481ZM83.7552 102.864L83.3529 103.16L83.3575 103.167L83.7552 102.864ZM81.6092 101.124L81.4123 101.583L81.4162 101.585L81.6092 101.124ZM76.3022 101.124L76.1092 100.662L76.1053 100.664L76.3022 101.124ZM74.1562 102.864L73.7585 102.56L73.754 102.567L74.1562 102.864ZM72.7352 106.112L72.251 105.987L72.251 105.987L72.7352 106.112ZM72.7352 116.204L72.251 116.328L72.251 116.328L72.7352 116.204ZM74.1562 119.481L73.7505 119.773L73.7585 119.784L74.1562 119.481ZM76.3022 121.221L76.1053 121.68L76.1092 121.682L76.3022 121.221ZM71.3792 111.158C71.3792 109.662 71.5212 108.267 71.8028 106.972L70.8257 106.759C70.5272 108.132 70.3792 109.599 70.3792 111.158H71.3792ZM71.8031 106.97C72.0826 105.666 72.5263 104.555 73.126 103.628L72.2865 103.085C71.6102 104.13 71.1258 105.358 70.8253 106.761L71.8031 106.97ZM73.1284 103.624C73.7229 102.688 74.4942 101.953 75.4465 101.414L74.9539 100.543C73.857 101.164 72.9656 102.015 72.2841 103.089L73.1284 103.624ZM75.4431 101.416C76.3975 100.885 77.5665 100.609 78.9702 100.609V99.6085C77.4353 99.6085 76.091 99.9117 74.9574 100.541L75.4431 101.416ZM78.9702 100.609C80.395 100.609 81.5618 100.886 82.4939 101.414L82.9865 100.543C81.8694 99.911 80.5228 99.6085 78.9702 99.6085V100.609ZM82.4939 101.414C83.4463 101.953 84.2176 102.688 84.8121 103.624L85.6564 103.089C84.9749 102.015 84.0835 101.164 82.9865 100.543L82.4939 101.414ZM84.8145 103.628C85.4142 104.555 85.8578 105.666 86.1373 106.97L87.1151 106.761C86.8146 105.358 86.3303 104.13 85.654 103.085L84.8145 103.628ZM86.1377 106.972C86.4192 108.267 86.5612 109.662 86.5612 111.158H87.5612C87.5612 109.599 87.4132 108.132 87.1148 106.759L86.1377 106.972ZM86.5612 111.158C86.5612 112.653 86.4192 114.058 86.1373 115.374L87.1151 115.583C87.4132 114.192 87.5612 112.716 87.5612 111.158H86.5612ZM86.1377 115.372C85.8583 116.657 85.4144 117.771 84.8121 118.72L85.6564 119.255C86.3301 118.194 86.8142 116.968 87.1148 115.585L86.1377 115.372ZM84.8121 118.72C84.2176 119.656 83.4463 120.391 82.4939 120.93L82.9865 121.801C84.0835 121.18 84.9749 120.329 85.6564 119.255L84.8121 118.72ZM82.4939 120.93C81.5618 121.458 80.395 121.736 78.9702 121.736V122.736C80.5228 122.736 81.8694 122.433 82.9865 121.801L82.4939 120.93ZM78.9702 121.736C77.5665 121.736 76.3975 121.459 75.4431 120.928L74.9574 121.803C76.091 122.432 77.4353 122.736 78.9702 122.736V121.736ZM75.4465 120.93C74.4942 120.391 73.7229 119.656 73.1284 118.72L72.2841 119.255C72.9656 120.329 73.857 121.18 74.9539 121.801L75.4465 120.93ZM73.1284 118.72C72.5261 117.771 72.0822 116.657 71.8028 115.372L70.8257 115.585C71.1263 116.968 71.6104 118.194 72.2841 119.255L73.1284 118.72ZM71.8031 115.374C71.5212 114.058 71.3792 112.653 71.3792 111.158H70.3792C70.3792 112.716 70.5272 114.192 70.8253 115.583L71.8031 115.374ZM78.9702 122.243C79.9803 122.243 80.9276 122.057 81.8062 121.68L81.4123 120.761C80.6669 121.08 79.8548 121.243 78.9702 121.243V122.243ZM81.8023 121.682C82.7266 121.295 83.5112 120.653 84.1575 119.777L83.353 119.184C82.8007 119.932 82.1545 120.45 81.4162 120.759L81.8023 121.682ZM84.1564 119.779C84.8247 118.881 85.3306 117.724 85.6895 116.328L84.721 116.079C84.3839 117.39 83.9231 118.417 83.3541 119.182L84.1564 119.779ZM85.6895 116.328C86.0514 114.921 86.2272 113.194 86.2272 111.158H85.2272C85.2272 113.143 85.0551 114.78 84.721 116.079L85.6895 116.328ZM86.2272 111.158C86.2272 109.122 86.0514 107.394 85.6895 105.987L84.721 106.236C85.0551 107.535 85.2272 109.172 85.2272 111.158H86.2272ZM85.6895 105.987C85.3306 104.591 84.8241 103.441 84.153 102.561L83.3575 103.167C83.9237 103.91 84.3839 104.925 84.721 106.236L85.6895 105.987ZM84.1575 102.567C83.5112 101.691 82.7266 101.049 81.8023 100.662L81.4162 101.585C82.1545 101.894 82.8007 102.412 83.353 103.16L84.1575 102.567ZM81.8062 100.664C80.9276 100.287 79.9803 100.102 78.9702 100.102V101.102C79.8548 101.102 80.6669 101.264 81.4123 101.583L81.8062 100.664ZM78.9702 100.102C77.9601 100.102 77.0048 100.287 76.1092 100.662L76.4953 101.585C77.2624 101.264 78.0857 101.102 78.9702 101.102V100.102ZM76.1053 100.664C75.2024 101.051 74.4213 101.691 73.7585 102.561L74.554 103.167C75.1286 102.412 75.7781 101.892 76.4992 101.583L76.1053 100.664ZM73.754 102.567C73.1049 103.446 72.6093 104.594 72.251 105.987L73.2195 106.236C73.5572 104.923 74.009 103.905 74.5585 103.16L73.754 102.567ZM72.251 105.987C71.8891 107.394 71.7132 109.122 71.7132 111.158H72.7132C72.7132 109.172 72.8854 107.535 73.2195 106.236L72.251 105.987ZM71.7132 111.158C71.7132 113.194 71.8891 114.921 72.251 116.328L73.2195 116.079C72.8854 114.78 72.7132 113.143 72.7132 111.158H71.7132ZM72.251 116.328C72.6092 117.721 73.1042 118.876 73.7507 119.773L74.5618 119.188C74.0096 118.422 73.5572 117.392 73.2195 116.079L72.251 116.328ZM73.7585 119.784C74.4213 120.653 75.2024 121.293 76.1053 121.68L76.4992 120.761C75.7781 120.452 75.1286 119.932 74.554 119.178L73.7585 119.784ZM76.1092 121.682C77.0048 122.057 77.9601 122.243 78.9702 122.243V121.243C78.0857 121.243 77.2624 121.08 76.4953 120.759L76.1092 121.682ZM89.0824 122.062H88.5824V122.562H89.0824V122.062ZM90.0974 117.828L89.665 117.576L89.6637 117.579L90.0974 117.828ZM92.7074 114.667L92.3791 114.289L92.3791 114.289L92.7074 114.667ZM96.0714 112.231L96.3276 112.66L96.3327 112.657L96.0714 112.231ZM99.4354 110.085L99.7128 110.501L99.7128 110.501L99.4354 110.085ZM102.016 107.91L101.649 107.57L101.644 107.576L102.016 107.91ZM102.567 103.241L102.123 103.47L102.128 103.479L102.132 103.487L102.567 103.241ZM101.32 101.791L101.023 102.192L101.033 102.199L101.32 101.791ZM99.5224 100.95L99.3813 101.429L99.3896 101.432L99.3979 101.434L99.5224 100.95ZM94.9694 101.124L95.1618 101.585L95.1725 101.58L94.9694 101.124ZM93.1424 102.371L92.7825 102.023L92.7822 102.024L93.1424 102.371ZM91.8664 104.256L92.316 104.474L92.3183 104.47L91.8664 104.256ZM90.9094 106.605L90.6399 107.026L91.1769 107.369L91.3827 106.766L90.9094 106.605ZM89.4594 105.677L89.0011 105.477L88.8305 105.868L89.1899 106.098L89.4594 105.677ZM92.5624 101.559L92.8565 101.963L92.8576 101.962L92.5624 101.559ZM99.9864 100.486L99.846 100.965L99.846 100.965L99.9864 100.486ZM102.074 101.53L101.768 101.925L101.774 101.93L102.074 101.53ZM103.524 103.299L103.075 103.517L103.08 103.527L103.524 103.299ZM103.002 108.577L102.62 108.255L102.619 108.256L103.002 108.577ZM100.363 110.984L100.069 110.579L100.069 110.579L100.363 110.984ZM96.8834 113.246L96.631 112.814L96.6281 112.816L96.8834 113.246ZM90.7644 118.06L90.3748 117.746L90.3707 117.751L90.7644 118.06ZM89.7204 120.989H89.2204V121.489H89.7204V120.989ZM100.914 120.815L101.001 121.307L101.008 121.306L101.015 121.304L100.914 120.815ZM102.596 120.119L102.886 120.527L102.896 120.519L102.596 120.119ZM103.756 118.727L103.315 118.491L103.315 118.491L103.756 118.727ZM104.539 116.494L104.648 116.005L104.165 115.898L104.053 116.38L104.539 116.494ZM105.061 116.61L105.55 116.716L105.656 116.229L105.17 116.121L105.061 116.61ZM103.872 122.062V122.562H104.275L104.361 122.168L103.872 122.062ZM89.5824 122.062C89.5824 120.487 89.9061 119.166 90.5311 118.076L89.6637 117.579C88.9354 118.848 88.5824 120.349 88.5824 122.062H89.5824ZM90.5298 118.079C91.1983 116.927 92.0331 115.916 93.0357 115.044L92.3791 114.289C91.2937 115.234 90.3885 116.33 89.665 117.576L90.5298 118.079ZM93.0357 115.044C94.0571 114.155 95.1543 113.36 96.3276 112.66L95.8152 111.801C94.5912 112.532 93.4457 113.361 92.3791 114.289L93.0357 115.044ZM96.3327 112.657C97.5361 111.919 98.6629 111.2 99.7128 110.501L99.1581 109.668C98.1199 110.361 97.004 111.072 95.8101 111.804L96.3327 112.657ZM99.7128 110.501C100.784 109.787 101.678 109.035 102.389 108.243L101.644 107.576C101.001 108.292 100.175 108.99 99.1581 109.668L99.7128 110.501ZM102.384 108.249C103.161 107.406 103.56 106.417 103.56 105.3H102.56C102.56 106.154 102.264 106.905 101.649 107.57L102.384 108.249ZM103.56 105.3C103.56 104.437 103.381 103.662 103.002 102.994L102.132 103.487C102.411 103.979 102.56 104.577 102.56 105.3H103.56ZM103.012 103.011C102.668 102.344 102.2 101.798 101.608 101.382L101.033 102.199C101.485 102.518 101.849 102.938 102.123 103.47L103.012 103.011ZM101.618 101.389C101.04 100.961 100.381 100.654 99.6469 100.465L99.3979 101.434C100.017 101.593 100.556 101.847 101.023 102.192L101.618 101.389ZM99.6635 100.47C98.9596 100.263 98.2354 100.16 97.4924 100.16V101.16C98.1414 101.16 98.7705 101.25 99.3813 101.429L99.6635 100.47ZM97.4924 100.16C96.4562 100.16 95.5421 100.322 94.7663 100.667L95.1725 101.58C95.7887 101.307 96.5566 101.16 97.4924 101.16V100.16ZM94.7771 100.662C94.0182 100.978 93.3521 101.433 92.7825 102.023L93.5023 102.718C93.9767 102.226 94.5286 101.849 95.1617 101.585L94.7771 100.662ZM92.7822 102.024C92.2377 102.589 91.7829 103.264 91.4145 104.041L92.3183 104.47C92.6459 103.778 93.0417 103.196 93.5026 102.717L92.7822 102.024ZM91.4168 104.037C91.0587 104.773 90.732 105.575 90.4361 106.443L91.3827 106.766C91.6668 105.932 91.9782 105.169 92.316 104.474L91.4168 104.037ZM91.1789 106.183L89.7289 105.255L89.1899 106.098L90.6399 107.026L91.1789 106.183ZM89.9177 105.876C90.6838 104.12 91.6687 102.827 92.8565 101.963L92.2683 101.154C90.9041 102.146 89.8203 103.598 89.0011 105.477L89.9177 105.876ZM92.8576 101.962C94.0484 101.091 95.5813 100.638 97.4924 100.638V99.6375C95.4209 99.6375 93.667 100.131 92.2672 101.155L92.8576 101.962ZM97.4924 100.638C98.3174 100.638 99.1013 100.747 99.846 100.965L100.127 100.006C99.2862 99.7596 98.4074 99.6375 97.4924 99.6375V100.638ZM99.846 100.965C100.584 101.181 101.223 101.502 101.768 101.925L102.38 101.134C101.727 100.629 100.974 100.254 100.127 100.006L99.846 100.965ZM101.774 101.93C102.328 102.344 102.761 102.871 103.075 103.517L103.974 103.08C103.592 102.295 103.058 101.643 102.374 101.13L101.774 101.93ZM103.08 103.527C103.404 104.159 103.575 104.918 103.575 105.822H104.575C104.575 104.791 104.379 103.869 103.969 103.07L103.08 103.527ZM103.575 105.822C103.575 106.675 103.27 107.482 102.62 108.255L103.385 108.898C104.166 107.97 104.575 106.94 104.575 105.822H103.575ZM102.619 108.256C101.954 109.05 101.106 109.825 100.069 110.579L100.657 111.388C101.747 110.595 102.659 109.766 103.386 108.897L102.619 108.256ZM100.069 110.579C99.0208 111.342 97.8749 112.087 96.6311 112.814L97.1358 113.677C98.4053 112.935 99.5794 112.172 100.657 111.388L100.069 110.579ZM96.6281 112.816C95.377 113.558 94.212 114.332 93.1336 115.136L93.7312 115.937C94.7794 115.156 95.9151 114.402 97.1387 113.675L96.6281 112.816ZM93.1336 115.136C92.0417 115.95 91.1204 116.819 90.3748 117.746L91.154 118.373C91.839 117.521 92.6964 116.709 93.7312 115.937L93.1336 115.136ZM90.3707 117.751C89.6104 118.723 89.2204 119.806 89.2204 120.989H90.2204C90.2204 120.044 90.5264 119.175 91.1582 118.368L90.3707 117.751ZM89.7204 121.489H98.5654V120.489H89.7204V121.489ZM98.5654 121.489C99.4935 121.489 100.307 121.429 101.001 121.307L100.828 120.322C100.207 120.432 99.4546 120.489 98.5654 120.489V121.489ZM101.015 121.304C101.728 121.157 102.356 120.902 102.885 120.527L102.307 119.711C101.909 119.993 101.415 120.201 100.814 120.325L101.015 121.304ZM102.896 120.519C103.426 120.121 103.858 119.598 104.198 118.962L103.315 118.491C103.036 119.015 102.695 119.42 102.296 119.719L102.896 120.519ZM104.198 118.962C104.534 118.331 104.807 117.542 105.026 116.607L104.053 116.38C103.846 117.262 103.598 117.962 103.315 118.491L104.198 118.962ZM104.431 116.982L104.953 117.098L105.17 116.121L104.648 116.005L104.431 116.982ZM104.573 116.503L103.384 121.955L104.361 122.168L105.55 116.716L104.573 116.503ZM103.872 121.562H89.0824V122.562H103.872V121.562ZM106.669 116.697L106.418 116.264L106.03 116.49L106.213 116.9L106.669 116.697ZM108.264 115.769L108.738 115.607L108.541 115.029L108.013 115.336L108.264 115.769ZM109.221 118.147L108.769 118.361L108.772 118.365L109.221 118.147ZM110.468 120.032L110.095 120.365L110.102 120.372L110.468 120.032ZM112.266 121.308L112.063 121.764L112.071 121.768L112.078 121.771L112.266 121.308ZM117.399 121.395L117.259 120.915L117.256 120.916L117.399 121.395ZM119.429 120.351L119.748 120.736L119.749 120.735L119.429 120.351ZM120.763 118.553L120.307 118.348L120.304 118.354L120.763 118.553ZM120.589 112.84L120.151 113.081L120.156 113.089L120.589 112.84ZM118.849 111.1L118.607 111.537L118.616 111.542L118.849 111.1ZM116.239 110.346L116.191 110.843L116.191 110.843L116.239 110.346ZM113.049 110.201L112.617 110.451L112.761 110.701H113.049V110.201ZM112.73 109.65L112.363 109.31L112.113 109.581L112.298 109.9L112.73 109.65ZM120.357 101.414L120.724 101.753L121.497 100.919L120.36 100.914L120.357 101.414ZM114.064 101.385L114.067 100.885H114.064V101.385ZM111.773 101.588L111.877 102.077L111.877 102.077L111.773 101.588ZM110.12 102.284L109.831 101.875L109.823 101.881L110.12 102.284ZM108.989 103.647L108.548 103.411L108.548 103.411L108.989 103.647ZM108.206 105.88L108.098 106.368L108.58 106.475L108.693 105.993L108.206 105.88ZM107.684 105.764L107.196 105.657L107.09 106.144L107.576 106.252L107.684 105.764ZM108.873 100.312V99.8115H108.471L108.385 100.205L108.873 100.312ZM121.198 100.312H121.698V99.8115H121.198V100.312ZM121.198 101.414L121.563 101.756L121.698 101.612V101.414H121.198ZM113.484 109.621L113.12 109.278L112.328 110.121H113.484V109.621ZM116.935 109.766L116.891 110.264L116.892 110.264L116.935 109.766ZM119.835 110.549L119.608 110.994L119.608 110.994L119.835 110.549ZM121.807 112.463L121.373 112.71L121.377 112.717L121.807 112.463ZM121.894 118.814L121.458 118.569L121.456 118.573L121.894 118.814ZM120.154 120.757L120.442 121.166L120.444 121.164L120.154 120.757ZM117.689 121.888L117.813 122.372L117.82 122.37L117.689 121.888ZM109.859 120.844L109.567 121.249L109.571 121.252L109.859 120.844ZM106.921 117.129L108.516 116.201L108.013 115.336L106.418 116.264L106.921 117.129ZM107.791 115.93C108.087 116.797 108.413 117.607 108.769 118.361L109.673 117.932C109.334 117.217 109.022 116.442 108.738 115.607L107.791 115.93ZM108.772 118.365C109.138 119.118 109.579 119.786 110.095 120.365L110.841 119.699C110.391 119.195 110.001 118.606 109.671 117.928L108.772 118.365ZM110.102 120.372C110.652 120.964 111.307 121.429 112.063 121.764L112.469 120.851C111.833 120.568 111.29 120.182 110.835 119.691L110.102 120.372ZM112.078 121.771C112.869 122.091 113.796 122.243 114.847 122.243V121.243C113.888 121.243 113.095 121.104 112.454 120.844L112.078 121.771ZM114.847 122.243C115.817 122.243 116.717 122.121 117.543 121.873L117.256 120.916C116.535 121.132 115.734 121.243 114.847 121.243V122.243ZM117.54 121.874C118.389 121.626 119.128 121.249 119.748 120.736L119.111 119.965C118.609 120.38 117.995 120.699 117.259 120.915L117.54 121.874ZM119.749 120.735C120.392 120.199 120.883 119.536 121.222 118.751L120.304 118.354C120.025 119 119.627 119.535 119.109 119.966L119.749 120.735ZM121.22 118.757C121.582 117.946 121.756 117.024 121.756 116.001H120.756C120.756 116.911 120.602 117.689 120.307 118.348L121.22 118.757ZM121.756 116.001C121.756 114.619 121.527 113.468 121.023 112.59L120.156 113.089C120.541 113.758 120.756 114.714 120.756 116.001H121.756ZM121.027 112.599C120.558 111.745 119.909 111.092 119.082 110.657L118.616 111.542C119.259 111.88 119.77 112.387 120.151 113.08L121.027 112.599ZM119.091 110.662C118.286 110.217 117.347 109.95 116.287 109.848L116.191 110.843C117.142 110.935 117.944 111.17 118.607 111.537L119.091 110.662ZM116.288 109.848C115.284 109.749 114.204 109.701 113.049 109.701V110.701C114.176 110.701 115.223 110.748 116.191 110.843L116.288 109.848ZM113.482 109.95L113.163 109.399L112.298 109.9L112.617 110.451L113.482 109.95ZM113.097 109.989L120.724 101.753L119.99 101.074L112.363 109.31L113.097 109.989ZM120.36 100.914L114.067 100.885L114.062 101.885L120.355 101.914L120.36 100.914ZM114.064 100.885C113.152 100.885 112.351 100.954 111.67 101.098L111.877 102.077C112.471 101.951 113.198 101.885 114.064 101.885V100.885ZM111.67 101.098C110.975 101.246 110.358 101.502 109.831 101.876L110.409 102.692C110.81 102.408 111.296 102.2 111.877 102.077L111.67 101.098ZM109.823 101.881C109.308 102.262 108.886 102.778 108.548 103.411L109.43 103.882C109.711 103.355 110.043 102.963 110.418 102.686L109.823 101.881ZM108.548 103.411C108.212 104.042 107.938 104.831 107.719 105.766L108.693 105.993C108.9 105.111 109.148 104.411 109.43 103.882L108.548 103.411ZM108.315 105.391L107.793 105.275L107.576 106.252L108.098 106.368L108.315 105.391ZM108.173 105.87L109.362 100.418L108.385 100.205L107.196 105.657L108.173 105.87ZM108.873 100.812H121.198V99.8115H108.873V100.812ZM120.698 100.312V101.414H121.698V100.312H120.698ZM120.834 101.071L113.12 109.278L113.849 109.963L121.563 101.756L120.834 101.071ZM113.484 110.121C114.689 110.121 115.825 110.168 116.891 110.264L116.98 109.268C115.881 109.169 114.715 109.121 113.484 109.121V110.121ZM116.892 110.264C117.941 110.356 118.843 110.603 119.608 110.994L120.063 110.103C119.165 109.644 118.134 109.369 116.979 109.267L116.892 110.264ZM119.608 110.994C120.348 111.372 120.935 111.939 121.373 112.71L122.242 112.216C121.713 111.284 120.986 110.575 120.063 110.103L119.608 110.994ZM121.377 112.717C121.817 113.461 122.061 114.53 122.061 115.972H123.061C123.061 114.435 122.803 113.165 122.238 112.208L121.377 112.717ZM122.061 115.972C122.061 117.006 121.853 117.865 121.458 118.569L122.33 119.058C122.825 118.176 123.061 117.141 123.061 115.972H122.061ZM121.456 118.573C121.068 119.278 120.539 119.87 119.865 120.349L120.444 121.164C121.239 120.599 121.87 119.895 122.332 119.054L121.456 118.573ZM119.867 120.347C119.204 120.813 118.436 121.167 117.559 121.405L117.82 122.37C118.799 122.105 119.674 121.705 120.442 121.166L119.867 120.347ZM117.566 121.403C116.699 121.624 115.794 121.736 114.847 121.736V122.736C115.873 122.736 116.862 122.615 117.813 122.372L117.566 121.403ZM114.847 121.736C112.914 121.736 111.359 121.29 110.148 120.435L109.571 121.252C110.989 122.253 112.759 122.736 114.847 122.736V121.736ZM110.152 120.438C108.923 119.553 107.91 118.248 107.126 116.493L106.213 116.9C107.053 118.78 108.166 120.24 109.567 121.249L110.152 120.438Z" fill="#00226D"/>
<path d="M0.738 171.62H2.754L6.282 181.556L5.976 181.43L8.55 174.77L9.36 177.128L5.922 185.156L0.738 171.62ZM6.984 171.62H8.73L12.546 181.412L12.186 181.34L15.552 171.62H17.406L12.294 185.138L6.984 171.62ZM19.5986 184.562V170.63H21.2366V178.838L21.2006 178.532C21.4526 178.04 21.8366 177.632 22.3526 177.308C22.8806 176.984 23.4986 176.822 24.2066 176.822C24.9146 176.822 25.4906 177.032 25.9346 177.452C26.3906 177.86 26.6246 178.394 26.6366 179.054V184.562H24.9446V179.648C24.9326 179.24 24.8126 178.91 24.5846 178.658C24.3686 178.394 24.0266 178.262 23.5586 178.262C23.1266 178.262 22.7366 178.388 22.3886 178.64C22.0406 178.88 21.7646 179.21 21.5606 179.63C21.3686 180.05 21.2726 180.53 21.2726 181.07V184.562H19.5986ZM33.0038 184.742C32.1518 184.742 31.4198 184.574 30.8078 184.238C30.1958 183.89 29.7218 183.422 29.3858 182.834C29.0618 182.234 28.8998 181.55 28.8998 180.782C28.8998 180.05 29.0858 179.384 29.4578 178.784C29.8298 178.184 30.3278 177.704 30.9518 177.344C31.5758 176.984 32.2718 176.804 33.0398 176.804C34.0238 176.804 34.8398 177.092 35.4878 177.668C36.1358 178.244 36.5738 179.036 36.8018 180.044L30.6638 182.204L30.2678 181.214L35.3078 179.378L34.9478 179.612C34.8038 179.216 34.5638 178.874 34.2278 178.586C33.8918 178.286 33.4538 178.136 32.9138 178.136C32.4578 178.136 32.0498 178.25 31.6898 178.478C31.3298 178.694 31.0478 178.994 30.8438 179.378C30.6398 179.762 30.5378 180.2 30.5378 180.692C30.5378 181.208 30.6458 181.664 30.8618 182.06C31.0778 182.444 31.3718 182.75 31.7438 182.978C32.1278 183.194 32.5598 183.302 33.0398 183.302C33.3638 183.302 33.6758 183.242 33.9758 183.122C34.2878 183.002 34.5758 182.846 34.8398 182.654L35.6138 183.896C35.2418 184.148 34.8218 184.352 34.3538 184.508C33.8978 184.664 33.4478 184.742 33.0038 184.742ZM42.3554 184.742C41.5034 184.742 40.7714 184.574 40.1594 184.238C39.5474 183.89 39.0734 183.422 38.7374 182.834C38.4134 182.234 38.2514 181.55 38.2514 180.782C38.2514 180.05 38.4374 179.384 38.8094 178.784C39.1814 178.184 39.6794 177.704 40.3034 177.344C40.9274 176.984 41.6234 176.804 42.3914 176.804C43.3754 176.804 44.1914 177.092 44.8394 177.668C45.4874 178.244 45.9254 179.036 46.1534 180.044L40.0154 182.204L39.6194 181.214L44.6594 179.378L44.2994 179.612C44.1554 179.216 43.9154 178.874 43.5794 178.586C43.2434 178.286 42.8054 178.136 42.2654 178.136C41.8094 178.136 41.4014 178.25 41.0414 178.478C40.6814 178.694 40.3994 178.994 40.1954 179.378C39.9914 179.762 39.8894 180.2 39.8894 180.692C39.8894 181.208 39.9974 181.664 40.2134 182.06C40.4294 182.444 40.7234 182.75 41.0954 182.978C41.4794 183.194 41.9114 183.302 42.3914 183.302C42.7154 183.302 43.0274 183.242 43.3274 183.122C43.6394 183.002 43.9274 182.846 44.1914 182.654L44.9654 183.896C44.5934 184.148 44.1734 184.352 43.7054 184.508C43.2494 184.664 42.7994 184.742 42.3554 184.742ZM48.251 170.63H49.925V184.562H48.251V170.63ZM65.6626 173.87C65.2186 173.642 64.7326 173.444 64.2046 173.276C63.6766 173.108 63.1606 173.024 62.6566 173.024C61.9606 173.024 61.4026 173.186 60.9826 173.51C60.5746 173.834 60.3706 174.266 60.3706 174.806C60.3706 175.214 60.5026 175.562 60.7666 175.85C61.0306 176.126 61.3786 176.366 61.8106 176.57C62.2426 176.774 62.6926 176.966 63.1606 177.146C63.5686 177.302 63.9706 177.476 64.3666 177.668C64.7626 177.86 65.1166 178.1 65.4286 178.388C65.7526 178.676 66.0046 179.03 66.1846 179.45C66.3766 179.87 66.4726 180.392 66.4726 181.016C66.4726 181.7 66.2986 182.324 65.9506 182.888C65.6146 183.452 65.1286 183.896 64.4926 184.22C63.8566 184.544 63.1006 184.706 62.2246 184.706C61.6486 184.706 61.0966 184.64 60.5686 184.508C60.0526 184.376 59.5726 184.208 59.1286 184.004C58.6846 183.788 58.2886 183.566 57.9406 183.338L58.7146 181.97C59.0026 182.174 59.3326 182.372 59.7046 182.564C60.0766 182.744 60.4666 182.894 60.8746 183.014C61.2826 183.122 61.6786 183.176 62.0626 183.176C62.4706 183.176 62.8726 183.104 63.2686 182.96C63.6766 182.804 64.0126 182.57 64.2766 182.258C64.5406 181.946 64.6726 181.532 64.6726 181.016C64.6726 180.572 64.5526 180.206 64.3126 179.918C64.0846 179.618 63.7786 179.366 63.3946 179.162C63.0106 178.946 62.6026 178.754 62.1706 178.586C61.7626 178.43 61.3486 178.262 60.9286 178.082C60.5086 177.89 60.1186 177.662 59.7586 177.398C59.3986 177.122 59.1106 176.786 58.8946 176.39C58.6786 175.994 58.5706 175.514 58.5706 174.95C58.5706 174.266 58.7326 173.672 59.0566 173.168C59.3926 172.652 59.8486 172.25 60.4246 171.962C61.0006 171.662 61.6606 171.5 62.4046 171.476C63.2446 171.476 63.9826 171.578 64.6186 171.782C65.2666 171.986 65.8366 172.238 66.3286 172.538L65.6626 173.87ZM73.3852 184.742C72.8212 184.742 72.2752 184.61 71.7472 184.346C71.2312 184.082 70.8292 183.728 70.5412 183.284L70.6492 182.762V188.144H68.9932V177.002H70.4332L70.6672 178.91L70.4872 178.388C70.8472 177.932 71.3032 177.554 71.8552 177.254C72.4072 176.954 73.0252 176.804 73.7092 176.804C74.4052 176.804 75.0292 176.972 75.5812 177.308C76.1452 177.644 76.5892 178.112 76.9132 178.712C77.2372 179.312 77.3992 180.014 77.3992 180.818C77.3992 181.622 77.2252 182.318 76.8772 182.906C76.5292 183.494 76.0492 183.95 75.4372 184.274C74.8372 184.586 74.1532 184.742 73.3852 184.742ZM73.0612 183.41C73.5412 183.41 73.9792 183.302 74.3752 183.086C74.7832 182.858 75.1072 182.552 75.3472 182.168C75.5872 181.772 75.7072 181.328 75.7072 180.836C75.7072 180.332 75.5932 179.888 75.3652 179.504C75.1372 179.108 74.8312 178.796 74.4472 178.568C74.0752 178.34 73.6552 178.226 73.1872 178.226C72.7552 178.226 72.3652 178.31 72.0172 178.478C71.6692 178.646 71.3812 178.88 71.1532 179.18C70.9252 179.468 70.7632 179.804 70.6672 180.188V181.43C70.7272 181.814 70.8712 182.156 71.0992 182.456C71.3272 182.756 71.6092 182.99 71.9452 183.158C72.2932 183.326 72.6652 183.41 73.0612 183.41ZM79.6631 177.11H81.3371V184.562H79.6631V177.11ZM79.5371 174.41C79.5371 174.146 79.6391 173.924 79.8431 173.744C80.0591 173.564 80.2931 173.474 80.5451 173.474C80.7971 173.474 81.0191 173.564 81.2111 173.744C81.4151 173.924 81.5171 174.146 81.5171 174.41C81.5171 174.686 81.4151 174.914 81.2111 175.094C81.0191 175.262 80.7971 175.346 80.5451 175.346C80.2931 175.346 80.0591 175.256 79.8431 175.076C79.6391 174.896 79.5371 174.674 79.5371 174.41ZM85.7274 177.11L85.8714 178.928L85.7994 178.64C86.0394 178.088 86.4294 177.65 86.9694 177.326C87.5094 176.99 88.1334 176.822 88.8414 176.822C89.5494 176.822 90.1254 177.032 90.5694 177.452C91.0254 177.86 91.2594 178.394 91.2714 179.054V184.562H89.5794V179.648C89.5674 179.24 89.4474 178.91 89.2194 178.658C89.0034 178.394 88.6614 178.262 88.1934 178.262C87.7614 178.262 87.3714 178.382 87.0234 178.622C86.6754 178.862 86.3994 179.192 86.1954 179.612C86.0034 180.032 85.9074 180.518 85.9074 181.07V184.562H84.2334V177.11H85.7274ZM103.748 171.548C104.408 171.548 105.014 171.638 105.566 171.818C106.13 171.986 106.616 172.244 107.024 172.592C107.444 172.928 107.768 173.348 107.996 173.852C108.236 174.344 108.356 174.92 108.356 175.58C108.356 176.096 108.278 176.6 108.122 177.092C107.978 177.584 107.732 178.034 107.384 178.442C107.036 178.838 106.58 179.162 106.016 179.414C105.464 179.654 104.78 179.774 103.964 179.774H102.038V184.562H100.292V171.548H103.748ZM103.928 178.1C104.444 178.1 104.87 178.022 105.206 177.866C105.554 177.71 105.824 177.512 106.016 177.272C106.208 177.02 106.346 176.75 106.43 176.462C106.514 176.174 106.556 175.904 106.556 175.652C106.556 175.388 106.508 175.118 106.412 174.842C106.328 174.554 106.184 174.29 105.98 174.05C105.788 173.81 105.53 173.612 105.206 173.456C104.894 173.3 104.51 173.222 104.054 173.222H102.038V178.1H103.928ZM106.07 179.09L109.472 184.562H107.456L104 179.144L106.07 179.09ZM114.971 184.742C114.119 184.742 113.387 184.574 112.775 184.238C112.163 183.89 111.689 183.422 111.353 182.834C111.029 182.234 110.867 181.55 110.867 180.782C110.867 180.05 111.053 179.384 111.425 178.784C111.797 178.184 112.295 177.704 112.919 177.344C113.543 176.984 114.239 176.804 115.007 176.804C115.991 176.804 116.807 177.092 117.455 177.668C118.103 178.244 118.541 179.036 118.769 180.044L112.631 182.204L112.235 181.214L117.275 179.378L116.915 179.612C116.771 179.216 116.531 178.874 116.195 178.586C115.859 178.286 115.421 178.136 114.881 178.136C114.425 178.136 114.017 178.25 113.657 178.478C113.297 178.694 113.015 178.994 112.811 179.378C112.607 179.762 112.505 180.2 112.505 180.692C112.505 181.208 112.613 181.664 112.829 182.06C113.045 182.444 113.339 182.75 113.711 182.978C114.095 183.194 114.527 183.302 115.007 183.302C115.331 183.302 115.643 183.242 115.943 183.122C116.255 183.002 116.543 182.846 116.807 182.654L117.581 183.896C117.209 184.148 116.789 184.352 116.321 184.508C115.865 184.664 115.415 184.742 114.971 184.742ZM125.425 177.11L127.621 182.132L127.297 182.168L129.349 177.11H130.987L127.567 185.012L125.173 179.9L122.995 185.012L119.539 177.11H121.177L123.499 182.366L122.923 182.258L124.579 178.406L123.985 177.11H125.425ZM135.634 184.742C134.938 184.742 134.302 184.592 133.726 184.292C133.162 183.992 132.712 183.554 132.376 182.978C132.052 182.39 131.89 181.676 131.89 180.836C131.89 180.008 132.064 179.294 132.412 178.694C132.76 178.082 133.222 177.614 133.798 177.29C134.386 176.966 135.028 176.804 135.724 176.804C136.42 176.804 137.008 176.966 137.488 177.29C137.968 177.602 138.334 177.974 138.586 178.406L138.478 178.694L138.64 177.11H140.188V184.562H138.514V182.618L138.694 183.05C138.646 183.17 138.538 183.326 138.37 183.518C138.214 183.698 137.998 183.884 137.722 184.076C137.458 184.268 137.152 184.43 136.804 184.562C136.456 184.682 136.066 184.742 135.634 184.742ZM136.084 183.356C136.504 183.356 136.882 183.278 137.218 183.122C137.554 182.966 137.83 182.75 138.046 182.474C138.274 182.186 138.43 181.844 138.514 181.448V179.99C138.418 179.63 138.25 179.318 138.01 179.054C137.77 178.778 137.482 178.568 137.146 178.424C136.81 178.268 136.438 178.19 136.03 178.19C135.586 178.19 135.178 178.298 134.806 178.514C134.434 178.73 134.134 179.03 133.906 179.414C133.69 179.798 133.582 180.248 133.582 180.764C133.582 181.244 133.696 181.682 133.924 182.078C134.152 182.474 134.458 182.786 134.842 183.014C135.226 183.242 135.64 183.356 136.084 183.356ZM144.579 177.11L144.741 179.27L144.651 178.982C144.843 178.526 145.119 178.142 145.479 177.83C145.851 177.506 146.235 177.26 146.631 177.092C147.039 176.912 147.393 176.822 147.693 176.822L147.603 178.478C147.039 178.442 146.541 178.55 146.109 178.802C145.689 179.054 145.353 179.39 145.101 179.81C144.861 180.23 144.741 180.68 144.741 181.16V184.562H143.085V177.11H144.579ZM152.56 184.742C151.876 184.742 151.252 184.58 150.688 184.256C150.136 183.92 149.698 183.452 149.374 182.852C149.05 182.24 148.888 181.538 148.888 180.746C148.888 179.918 149.056 179.21 149.392 178.622C149.74 178.034 150.208 177.584 150.796 177.272C151.384 176.96 152.044 176.804 152.776 176.804C153.364 176.804 153.922 176.93 154.45 177.182C154.99 177.434 155.41 177.782 155.71 178.226L155.638 178.82V170.63H157.294V184.562H155.62V182.708L155.8 183.176C155.452 183.632 155.002 184.01 154.45 184.31C153.898 184.598 153.268 184.742 152.56 184.742ZM153.082 183.32C153.526 183.32 153.922 183.242 154.27 183.086C154.618 182.918 154.906 182.69 155.134 182.402C155.362 182.114 155.524 181.772 155.62 181.376V179.972C155.524 179.612 155.35 179.3 155.098 179.036C154.858 178.76 154.564 178.544 154.216 178.388C153.88 178.22 153.502 178.136 153.082 178.136C152.626 178.136 152.206 178.25 151.822 178.478C151.45 178.694 151.15 178.994 150.922 179.378C150.694 179.762 150.58 180.206 150.58 180.71C150.58 181.202 150.694 181.646 150.922 182.042C151.15 182.426 151.456 182.738 151.84 182.978C152.224 183.206 152.638 183.32 153.082 183.32ZM166.279 179.252C166.279 178.04 166.423 176.906 166.711 175.85C166.999 174.794 167.371 173.852 167.827 173.024C168.295 172.196 168.781 171.512 169.285 170.972L170.599 171.71C170.131 172.25 169.699 172.892 169.303 173.636C168.919 174.38 168.607 175.226 168.367 176.174C168.139 177.122 168.025 178.154 168.025 179.27C168.025 180.386 168.139 181.418 168.367 182.366C168.607 183.302 168.919 184.136 169.303 184.868C169.699 185.612 170.131 186.254 170.599 186.794L169.285 187.55C168.781 187.01 168.295 186.32 167.827 185.48C167.371 184.652 166.999 183.716 166.711 182.672C166.423 181.616 166.279 180.476 166.279 179.252ZM173.575 184.562V171.548H177.121C178.405 171.548 179.497 171.746 180.397 172.142C181.309 172.538 182.041 173.06 182.593 173.708C183.145 174.356 183.547 175.076 183.799 175.868C184.063 176.648 184.195 177.428 184.195 178.208C184.195 179.192 184.021 180.074 183.673 180.854C183.337 181.634 182.869 182.3 182.269 182.852C181.669 183.404 180.979 183.83 180.199 184.13C179.431 184.418 178.615 184.562 177.751 184.562H173.575ZM175.321 182.888H177.409C178.129 182.888 178.789 182.78 179.389 182.564C180.001 182.348 180.529 182.036 180.973 181.628C181.429 181.22 181.783 180.722 182.035 180.134C182.287 179.534 182.413 178.856 182.413 178.1C182.413 177.296 182.281 176.594 182.017 175.994C181.753 175.382 181.393 174.872 180.937 174.464C180.481 174.056 179.965 173.75 179.389 173.546C178.813 173.33 178.207 173.222 177.571 173.222H175.321V182.888ZM190.17 184.742C189.318 184.742 188.586 184.574 187.974 184.238C187.362 183.89 186.888 183.422 186.552 182.834C186.228 182.234 186.066 181.55 186.066 180.782C186.066 180.05 186.252 179.384 186.624 178.784C186.996 178.184 187.494 177.704 188.118 177.344C188.742 176.984 189.438 176.804 190.206 176.804C191.19 176.804 192.006 177.092 192.654 177.668C193.302 178.244 193.74 179.036 193.968 180.044L187.83 182.204L187.434 181.214L192.474 179.378L192.114 179.612C191.97 179.216 191.73 178.874 191.394 178.586C191.058 178.286 190.62 178.136 190.08 178.136C189.624 178.136 189.216 178.25 188.856 178.478C188.496 178.694 188.214 178.994 188.01 179.378C187.806 179.762 187.704 180.2 187.704 180.692C187.704 181.208 187.812 181.664 188.028 182.06C188.244 182.444 188.538 182.75 188.91 182.978C189.294 183.194 189.726 183.302 190.206 183.302C190.53 183.302 190.842 183.242 191.142 183.122C191.454 183.002 191.742 182.846 192.006 182.654L192.78 183.896C192.408 184.148 191.988 184.352 191.52 184.508C191.064 184.664 190.614 184.742 190.17 184.742ZM196.677 184.562V178.604H195.399V177.11H196.677V173.96C196.677 172.88 196.917 172.052 197.397 171.476C197.889 170.9 198.609 170.612 199.557 170.612C199.809 170.612 200.085 170.648 200.385 170.72C200.697 170.792 200.967 170.912 201.195 171.08L200.493 172.286C200.385 172.178 200.265 172.106 200.133 172.07C200.013 172.022 199.881 171.998 199.737 171.998C199.293 171.998 198.951 172.148 198.711 172.448C198.471 172.748 198.351 173.258 198.351 173.978V177.11H200.475V178.604H198.351V184.562H196.677ZM201.915 177.11H203.589V184.562H201.915V177.11ZM201.789 174.41C201.789 174.146 201.897 173.93 202.113 173.762C202.329 173.582 202.563 173.492 202.815 173.492C203.055 173.492 203.277 173.582 203.481 173.762C203.685 173.93 203.787 174.152 203.787 174.428C203.787 174.704 203.685 174.932 203.481 175.112C203.277 175.28 203.055 175.364 202.815 175.364C202.563 175.364 202.329 175.274 202.113 175.094C201.897 174.914 201.789 174.686 201.789 174.41ZM210.683 179.27C210.683 180.482 210.533 181.616 210.233 182.672C209.945 183.728 209.573 184.67 209.117 185.498C208.673 186.326 208.193 187.01 207.677 187.55L206.363 186.794C206.831 186.266 207.257 185.63 207.641 184.886C208.037 184.142 208.349 183.302 208.577 182.366C208.817 181.418 208.937 180.386 208.937 179.27C208.937 178.154 208.817 177.122 208.577 176.174C208.349 175.226 208.037 174.38 207.641 173.636C207.257 172.892 206.831 172.256 206.363 171.728L207.677 170.972C208.193 171.512 208.673 172.202 209.117 173.042C209.573 173.87 209.945 174.812 210.233 175.868C210.533 176.912 210.683 178.046 210.683 179.27ZM0.954 192.718H4.05V204.562H2.304V194.392H0.954V192.718ZM10.4058 204.778L6.26583 197.11H8.24583L11.0538 203.032L10.0278 202.996L12.6018 197.11H14.4738L10.4958 204.778H10.4058ZM15.7724 192.718H18.8684V204.562H17.1224V194.392H15.7724V192.718ZM28.3095 204.562V191.134H28.3275L35.1495 200.818L34.4115 200.674L41.2155 191.134H41.2515V204.562H39.5235V195.094L39.6315 195.976L34.7175 202.924H34.6815L29.6955 195.976L30.0015 195.166V204.562H28.3095ZM43.9291 200.764C43.9291 200.02 44.1031 199.348 44.4511 198.748C44.8111 198.148 45.3031 197.674 45.9271 197.326C46.5511 196.978 47.2591 196.804 48.0511 196.804C48.8671 196.804 49.5811 196.978 50.1931 197.326C50.8051 197.674 51.2791 198.148 51.6151 198.748C51.9511 199.348 52.1191 200.02 52.1191 200.764C52.1191 201.508 51.9511 202.186 51.6151 202.798C51.2791 203.398 50.7991 203.872 50.1751 204.22C49.5631 204.568 48.8491 204.742 48.0331 204.742C47.2411 204.742 46.5331 204.58 45.9091 204.256C45.2971 203.92 44.8111 203.458 44.4511 202.87C44.1031 202.27 43.9291 201.568 43.9291 200.764ZM45.6031 200.782C45.6031 201.262 45.7111 201.7 45.9271 202.096C46.1431 202.48 46.4311 202.786 46.7911 203.014C47.1631 203.242 47.5711 203.356 48.0151 203.356C48.4831 203.356 48.8971 203.242 49.2571 203.014C49.6291 202.786 49.9171 202.48 50.1211 202.096C50.3251 201.7 50.4271 201.262 50.4271 200.782C50.4271 200.302 50.3251 199.87 50.1211 199.486C49.9171 199.09 49.6291 198.778 49.2571 198.55C48.8971 198.31 48.4831 198.19 48.0151 198.19C47.5591 198.19 47.1451 198.31 46.7731 198.55C46.4131 198.79 46.1251 199.108 45.9091 199.504C45.7051 199.888 45.6031 200.314 45.6031 200.782ZM57.4097 204.742C56.7257 204.742 56.1017 204.58 55.5377 204.256C54.9857 203.92 54.5477 203.452 54.2237 202.852C53.8997 202.24 53.7377 201.538 53.7377 200.746C53.7377 199.918 53.9057 199.21 54.2417 198.622C54.5897 198.034 55.0577 197.584 55.6457 197.272C56.2337 196.96 56.8937 196.804 57.6257 196.804C58.2137 196.804 58.7717 196.93 59.2997 197.182C59.8397 197.434 60.2597 197.782 60.5597 198.226L60.4877 198.82V190.63H62.1437V204.562H60.4697V202.708L60.6497 203.176C60.3017 203.632 59.8517 204.01 59.2997 204.31C58.7477 204.598 58.1177 204.742 57.4097 204.742ZM57.9317 203.32C58.3757 203.32 58.7717 203.242 59.1197 203.086C59.4677 202.918 59.7557 202.69 59.9837 202.402C60.2117 202.114 60.3737 201.772 60.4697 201.376V199.972C60.3737 199.612 60.1997 199.3 59.9477 199.036C59.7077 198.76 59.4137 198.544 59.0657 198.388C58.7297 198.22 58.3517 198.136 57.9317 198.136C57.4757 198.136 57.0557 198.25 56.6717 198.478C56.2997 198.694 55.9997 198.994 55.7717 199.378C55.5437 199.762 55.4297 200.206 55.4297 200.71C55.4297 201.202 55.5437 201.646 55.7717 202.042C55.9997 202.426 56.3057 202.738 56.6897 202.978C57.0737 203.206 57.4877 203.32 57.9317 203.32ZM68.5117 204.742C67.6597 204.742 66.9277 204.574 66.3157 204.238C65.7037 203.89 65.2297 203.422 64.8937 202.834C64.5697 202.234 64.4077 201.55 64.4077 200.782C64.4077 200.05 64.5937 199.384 64.9657 198.784C65.3377 198.184 65.8357 197.704 66.4597 197.344C67.0837 196.984 67.7797 196.804 68.5477 196.804C69.5317 196.804 70.3477 197.092 70.9957 197.668C71.6437 198.244 72.0817 199.036 72.3097 200.044L66.1717 202.204L65.7757 201.214L70.8157 199.378L70.4557 199.612C70.3117 199.216 70.0717 198.874 69.7357 198.586C69.3997 198.286 68.9617 198.136 68.4217 198.136C67.9657 198.136 67.5577 198.25 67.1977 198.478C66.8377 198.694 66.5557 198.994 66.3517 199.378C66.1477 199.762 66.0457 200.2 66.0457 200.692C66.0457 201.208 66.1537 201.664 66.3697 202.06C66.5857 202.444 66.8797 202.75 67.2517 202.978C67.6357 203.194 68.0677 203.302 68.5477 203.302C68.8717 203.302 69.1837 203.242 69.4837 203.122C69.7957 203.002 70.0837 202.846 70.3477 202.654L71.1217 203.896C70.7497 204.148 70.3297 204.352 69.8617 204.508C69.4057 204.664 68.9557 204.742 68.5117 204.742ZM90.7405 204.562C90.6445 204.562 90.4825 204.562 90.2545 204.562C90.0385 204.562 89.8105 204.562 89.5705 204.562C89.3425 204.562 89.1445 204.562 88.9765 204.562C88.8085 204.562 88.7245 204.562 88.7245 204.562L82.4785 196.3C82.3705 196.132 82.2445 195.922 82.1005 195.67C81.9565 195.418 81.8305 195.142 81.7225 194.842C81.6265 194.53 81.5785 194.212 81.5785 193.888C81.5785 193.372 81.7045 192.892 81.9565 192.448C82.2085 191.992 82.5685 191.626 83.0365 191.35C83.5165 191.074 84.0985 190.936 84.7825 190.936C85.4905 190.936 86.1205 191.074 86.6725 191.35C87.2365 191.626 87.6985 191.95 88.0585 192.322L87.1765 193.492C86.8165 193.156 86.4565 192.892 86.0965 192.7C85.7485 192.496 85.4005 192.394 85.0525 192.394C84.5245 192.394 84.1105 192.556 83.8105 192.88C83.5225 193.192 83.3785 193.57 83.3785 194.014C83.3785 194.23 83.4205 194.452 83.5045 194.68C83.6005 194.908 83.6905 195.1 83.7745 195.256C83.8705 195.412 83.9305 195.514 83.9545 195.562L90.7405 204.562ZM84.1525 198.298C83.8165 198.298 83.4865 198.364 83.1625 198.496C82.8385 198.628 82.5505 198.808 82.2985 199.036C82.0465 199.264 81.8425 199.534 81.6865 199.846C81.5425 200.146 81.4705 200.47 81.4705 200.818C81.4705 201.286 81.5905 201.7 81.8305 202.06C82.0825 202.408 82.4125 202.684 82.8205 202.888C83.2405 203.08 83.6965 203.176 84.1885 203.176C84.6445 203.176 85.0465 203.11 85.3945 202.978C85.7425 202.834 86.0425 202.648 86.2945 202.42C86.5465 202.18 86.7325 201.922 86.8525 201.646L87.9685 202.618C87.6445 203.218 87.1405 203.722 86.4565 204.13C85.7845 204.538 84.9565 204.742 83.9725 204.742C83.1565 204.742 82.4245 204.574 81.7765 204.238C81.1285 203.902 80.6125 203.446 80.2285 202.87C79.8565 202.294 79.6705 201.64 79.6705 200.908C79.6705 200.344 79.7965 199.822 80.0485 199.342C80.3005 198.862 80.6365 198.448 81.0565 198.1C81.4885 197.74 81.9625 197.458 82.4785 197.254C83.0065 197.05 83.5525 196.942 84.1165 196.93L84.1525 198.298ZM88.6705 196.93H90.2725L88.1665 202.33L86.9065 201.538L88.6705 196.93ZM105.249 192.718L102.081 197.812L101.037 197.326C101.193 197.242 101.367 197.182 101.559 197.146C101.751 197.11 101.943 197.092 102.135 197.092C102.579 197.068 103.011 197.116 103.431 197.236C103.851 197.356 104.229 197.554 104.565 197.83C104.901 198.106 105.165 198.472 105.357 198.928C105.561 199.384 105.663 199.948 105.663 200.62C105.663 201.46 105.471 202.186 105.087 202.798C104.703 203.41 104.193 203.884 103.557 204.22C102.933 204.544 102.237 204.706 101.469 204.706C100.893 204.706 100.317 204.592 99.7408 204.364C99.1768 204.124 98.7088 203.812 98.3368 203.428L99.2188 201.988C99.4468 202.252 99.7588 202.492 100.155 202.708C100.563 202.924 100.983 203.032 101.415 203.032C101.871 203.032 102.279 202.93 102.639 202.726C103.011 202.522 103.305 202.234 103.521 201.862C103.749 201.478 103.863 201.034 103.863 200.53C103.863 199.834 103.659 199.288 103.251 198.892C102.855 198.496 102.309 198.298 101.613 198.298C101.265 198.298 100.971 198.328 100.731 198.388C100.491 198.436 100.275 198.496 100.083 198.568L100.029 198.496L102.819 194.158L103.359 194.392H99.0208V192.718H105.249ZM111.287 204.778L107.147 197.11H109.127L111.935 203.032L110.909 202.996L113.483 197.11H115.355L111.377 204.778H111.287ZM123.565 192.718L120.397 197.812L119.353 197.326C119.509 197.242 119.683 197.182 119.875 197.146C120.067 197.11 120.259 197.092 120.451 197.092C120.895 197.068 121.327 197.116 121.747 197.236C122.167 197.356 122.545 197.554 122.881 197.83C123.217 198.106 123.481 198.472 123.673 198.928C123.877 199.384 123.979 199.948 123.979 200.62C123.979 201.46 123.787 202.186 123.403 202.798C123.019 203.41 122.509 203.884 121.873 204.22C121.249 204.544 120.553 204.706 119.785 204.706C119.209 204.706 118.633 204.592 118.057 204.364C117.493 204.124 117.025 203.812 116.653 203.428L117.535 201.988C117.763 202.252 118.075 202.492 118.471 202.708C118.879 202.924 119.299 203.032 119.731 203.032C120.187 203.032 120.595 202.93 120.955 202.726C121.327 202.522 121.621 202.234 121.837 201.862C122.065 201.478 122.179 201.034 122.179 200.53C122.179 199.834 121.975 199.288 121.567 198.892C121.171 198.496 120.625 198.298 119.929 198.298C119.581 198.298 119.287 198.328 119.047 198.388C118.807 198.436 118.591 198.496 118.399 198.568L118.345 198.496L121.135 194.158L121.675 194.392H117.337V192.718H123.565ZM132.688 204.562V191.134H132.706L139.528 200.818L138.79 200.674L145.594 191.134H145.63V204.562H143.902V195.094L144.01 195.976L139.096 202.924H139.06L134.074 195.976L134.38 195.166V204.562H132.688ZM148.308 200.764C148.308 200.02 148.482 199.348 148.83 198.748C149.19 198.148 149.682 197.674 150.306 197.326C150.93 196.978 151.638 196.804 152.43 196.804C153.246 196.804 153.96 196.978 154.572 197.326C155.184 197.674 155.658 198.148 155.994 198.748C156.33 199.348 156.498 200.02 156.498 200.764C156.498 201.508 156.33 202.186 155.994 202.798C155.658 203.398 155.178 203.872 154.554 204.22C153.942 204.568 153.228 204.742 152.412 204.742C151.62 204.742 150.912 204.58 150.288 204.256C149.676 203.92 149.19 203.458 148.83 202.87C148.482 202.27 148.308 201.568 148.308 200.764ZM149.982 200.782C149.982 201.262 150.09 201.7 150.306 202.096C150.522 202.48 150.81 202.786 151.17 203.014C151.542 203.242 151.95 203.356 152.394 203.356C152.862 203.356 153.276 203.242 153.636 203.014C154.008 202.786 154.296 202.48 154.5 202.096C154.704 201.7 154.806 201.262 154.806 200.782C154.806 200.302 154.704 199.87 154.5 199.486C154.296 199.09 154.008 198.778 153.636 198.55C153.276 198.31 152.862 198.19 152.394 198.19C151.938 198.19 151.524 198.31 151.152 198.55C150.792 198.79 150.504 199.108 150.288 199.504C150.084 199.888 149.982 200.314 149.982 200.782ZM161.789 204.742C161.105 204.742 160.481 204.58 159.917 204.256C159.365 203.92 158.927 203.452 158.603 202.852C158.279 202.24 158.117 201.538 158.117 200.746C158.117 199.918 158.285 199.21 158.621 198.622C158.969 198.034 159.437 197.584 160.025 197.272C160.613 196.96 161.273 196.804 162.005 196.804C162.593 196.804 163.151 196.93 163.679 197.182C164.219 197.434 164.639 197.782 164.939 198.226L164.867 198.82V190.63H166.523V204.562H164.849V202.708L165.029 203.176C164.681 203.632 164.231 204.01 163.679 204.31C163.127 204.598 162.497 204.742 161.789 204.742ZM162.311 203.32C162.755 203.32 163.151 203.242 163.499 203.086C163.847 202.918 164.135 202.69 164.363 202.402C164.591 202.114 164.753 201.772 164.849 201.376V199.972C164.753 199.612 164.579 199.3 164.327 199.036C164.087 198.76 163.793 198.544 163.445 198.388C163.109 198.22 162.731 198.136 162.311 198.136C161.855 198.136 161.435 198.25 161.051 198.478C160.679 198.694 160.379 198.994 160.151 199.378C159.923 199.762 159.809 200.206 159.809 200.71C159.809 201.202 159.923 201.646 160.151 202.042C160.379 202.426 160.685 202.738 161.069 202.978C161.453 203.206 161.867 203.32 162.311 203.32ZM172.891 204.742C172.039 204.742 171.307 204.574 170.695 204.238C170.083 203.89 169.609 203.422 169.273 202.834C168.949 202.234 168.787 201.55 168.787 200.782C168.787 200.05 168.973 199.384 169.345 198.784C169.717 198.184 170.215 197.704 170.839 197.344C171.463 196.984 172.159 196.804 172.927 196.804C173.911 196.804 174.727 197.092 175.375 197.668C176.023 198.244 176.461 199.036 176.689 200.044L170.551 202.204L170.155 201.214L175.195 199.378L174.835 199.612C174.691 199.216 174.451 198.874 174.115 198.586C173.779 198.286 173.341 198.136 172.801 198.136C172.345 198.136 171.937 198.25 171.577 198.478C171.217 198.694 170.935 198.994 170.731 199.378C170.527 199.762 170.425 200.2 170.425 200.692C170.425 201.208 170.533 201.664 170.749 202.06C170.965 202.444 171.259 202.75 171.631 202.978C172.015 203.194 172.447 203.302 172.927 203.302C173.251 203.302 173.563 203.242 173.863 203.122C174.175 203.002 174.463 202.846 174.727 202.654L175.501 203.896C175.129 204.148 174.709 204.352 174.241 204.508C173.785 204.664 173.335 204.742 172.891 204.742Z" fill="white"/>
<path d="M2.392 225.933H12.259V228.072H4.623V233.385H11.316V235.501H4.623V242.562H2.392V225.933ZM15.0026 233.04H17.1416V242.562H15.0026V233.04ZM14.8416 229.59C14.8416 229.252 14.972 228.969 15.2326 228.739C15.5086 228.509 15.8076 228.394 16.1296 228.394C16.4516 228.394 16.7353 228.509 16.9806 228.739C17.2413 228.969 17.3716 229.252 17.3716 229.59C17.3716 229.942 17.2413 230.234 16.9806 230.464C16.7353 230.678 16.4516 230.786 16.1296 230.786C15.8076 230.786 15.5086 230.671 15.2326 230.441C14.972 230.211 14.8416 229.927 14.8416 229.59ZM22.7515 233.04L22.9585 235.8L22.8435 235.432C23.0888 234.849 23.4415 234.358 23.9015 233.96C24.3768 233.546 24.8675 233.231 25.3735 233.017C25.8948 232.787 26.3472 232.672 26.7305 232.672L26.6155 234.788C25.8948 234.742 25.2585 234.88 24.7065 235.202C24.1698 235.524 23.7405 235.953 23.4185 236.49C23.1118 237.026 22.9585 237.601 22.9585 238.215V242.562H20.8425V233.04H22.7515ZM32.158 242.746C31.4833 242.746 30.824 242.631 30.18 242.401C29.5513 242.155 29.03 241.795 28.616 241.32L29.513 240.078C29.9116 240.461 30.318 240.752 30.732 240.952C31.1613 241.136 31.583 241.228 31.997 241.228C32.3036 241.228 32.5873 241.189 32.848 241.113C33.1086 241.036 33.3156 240.913 33.469 240.745C33.6376 240.561 33.722 240.315 33.722 240.009C33.722 239.671 33.607 239.403 33.377 239.204C33.1623 239.004 32.8786 238.843 32.526 238.721C32.1886 238.598 31.8283 238.483 31.445 238.376C30.663 238.115 30.065 237.755 29.651 237.295C29.237 236.835 29.03 236.275 29.03 235.616C29.03 235.11 29.1526 234.642 29.398 234.213C29.6586 233.768 30.0343 233.408 30.525 233.132C31.031 232.856 31.652 232.718 32.388 232.718C33.0473 232.718 33.6376 232.802 34.159 232.971C34.6803 233.124 35.171 233.385 35.631 233.753L34.78 235.087C34.504 234.795 34.1743 234.581 33.791 234.443C33.4076 234.305 33.0626 234.228 32.756 234.213C32.4953 234.197 32.2423 234.236 31.997 234.328C31.767 234.42 31.5753 234.55 31.422 234.719C31.2686 234.887 31.192 235.087 31.192 235.317C31.192 235.639 31.2993 235.899 31.514 236.099C31.7286 236.298 32.0046 236.459 32.342 236.582C32.6946 236.689 33.0396 236.804 33.377 236.927C33.8523 237.065 34.274 237.249 34.642 237.479C35.01 237.709 35.3013 237.992 35.516 238.33C35.746 238.667 35.861 239.089 35.861 239.595C35.861 240.162 35.723 240.691 35.447 241.182C35.1863 241.657 34.78 242.04 34.228 242.332C33.6913 242.608 33.0013 242.746 32.158 242.746ZM39.7762 228.854H41.9152V233.086H44.5372V234.765H41.9152V242.562H39.7762V234.765H38.0282V233.086H39.7762V228.854ZM54.9281 225.933H65.7381V228.072H57.1591V233.132H64.8181V235.271H57.1591V240.423H66.0601V242.562H54.9281V225.933ZM68.759 236.674H73.06V238.56H68.759V236.674ZM79.0564 242.746C78.3817 242.746 77.7224 242.631 77.0784 242.401C76.4497 242.155 75.9284 241.795 75.5144 241.32L76.4114 240.078C76.8101 240.461 77.2164 240.752 77.6304 240.952C78.0597 241.136 78.4814 241.228 78.8954 241.228C79.2021 241.228 79.4857 241.189 79.7464 241.113C80.0071 241.036 80.2141 240.913 80.3674 240.745C80.5361 240.561 80.6204 240.315 80.6204 240.009C80.6204 239.671 80.5054 239.403 80.2754 239.204C80.0607 239.004 79.7771 238.843 79.4244 238.721C79.0871 238.598 78.7267 238.483 78.3434 238.376C77.5614 238.115 76.9634 237.755 76.5494 237.295C76.1354 236.835 75.9284 236.275 75.9284 235.616C75.9284 235.11 76.0511 234.642 76.2964 234.213C76.5571 233.768 76.9327 233.408 77.4234 233.132C77.9294 232.856 78.5504 232.718 79.2864 232.718C79.9457 232.718 80.5361 232.802 81.0574 232.971C81.5787 233.124 82.0694 233.385 82.5294 233.753L81.6784 235.087C81.4024 234.795 81.0727 234.581 80.6894 234.443C80.3061 234.305 79.9611 234.228 79.6544 234.213C79.3937 234.197 79.1407 234.236 78.8954 234.328C78.6654 234.42 78.4737 234.55 78.3204 234.719C78.1671 234.887 78.0904 235.087 78.0904 235.317C78.0904 235.639 78.1977 235.899 78.4124 236.099C78.6271 236.298 78.9031 236.459 79.2404 236.582C79.5931 236.689 79.9381 236.804 80.2754 236.927C80.7507 237.065 81.1724 237.249 81.5404 237.479C81.9084 237.709 82.1997 237.992 82.4144 238.33C82.6444 238.667 82.7594 239.089 82.7594 239.595C82.7594 240.162 82.6214 240.691 82.3454 241.182C82.0847 241.657 81.6784 242.04 81.1264 242.332C80.5897 242.608 79.8997 242.746 79.0564 242.746ZM91.3666 242.792C90.6459 242.792 89.9483 242.623 89.2736 242.286C88.6143 241.948 88.1006 241.496 87.7326 240.929L87.8706 240.262V247.139H85.7546V232.902H87.5946L87.8936 235.34L87.6636 234.673C88.1236 234.09 88.7063 233.607 89.4116 233.224C90.1169 232.84 90.9066 232.649 91.7806 232.649C92.6699 232.649 93.4673 232.863 94.1726 233.293C94.8933 233.722 95.4606 234.32 95.8746 235.087C96.2886 235.853 96.4956 236.75 96.4956 237.778C96.4956 238.805 96.2733 239.694 95.8286 240.446C95.3839 241.197 94.7706 241.78 93.9886 242.194C93.2219 242.592 92.3479 242.792 91.3666 242.792ZM90.9526 241.09C91.5659 241.09 92.1256 240.952 92.6316 240.676C93.1529 240.384 93.5669 239.993 93.8736 239.503C94.1803 238.997 94.3336 238.429 94.3336 237.801C94.3336 237.157 94.1879 236.589 93.8966 236.099C93.6053 235.593 93.2143 235.194 92.7236 234.903C92.2483 234.611 91.7116 234.466 91.1136 234.466C90.5616 234.466 90.0633 234.573 89.6186 234.788C89.1739 235.002 88.8059 235.301 88.5146 235.685C88.2233 236.053 88.0163 236.482 87.8936 236.973V238.56C87.9703 239.05 88.1543 239.487 88.4456 239.871C88.7369 240.254 89.0973 240.553 89.5266 240.768C89.9713 240.982 90.4466 241.09 90.9526 241.09ZM98.5604 237.709C98.5604 236.758 98.7827 235.899 99.2274 235.133C99.6874 234.366 100.316 233.76 101.113 233.316C101.911 232.871 102.815 232.649 103.827 232.649C104.87 232.649 105.782 232.871 106.564 233.316C107.346 233.76 107.952 234.366 108.381 235.133C108.811 235.899 109.025 236.758 109.025 237.709C109.025 238.659 108.811 239.526 108.381 240.308C107.952 241.074 107.339 241.68 106.541 242.125C105.759 242.569 104.847 242.792 103.804 242.792C102.792 242.792 101.888 242.585 101.09 242.171C100.308 241.741 99.6874 241.151 99.2274 240.4C98.7827 239.633 98.5604 238.736 98.5604 237.709ZM100.699 237.732C100.699 238.345 100.837 238.905 101.113 239.411C101.389 239.901 101.757 240.292 102.217 240.584C102.693 240.875 103.214 241.021 103.781 241.021C104.379 241.021 104.908 240.875 105.368 240.584C105.844 240.292 106.212 239.901 106.472 239.411C106.733 238.905 106.863 238.345 106.863 237.732C106.863 237.118 106.733 236.566 106.472 236.076C106.212 235.57 105.844 235.171 105.368 234.88C104.908 234.573 104.379 234.42 103.781 234.42C103.199 234.42 102.67 234.573 102.194 234.88C101.734 235.186 101.366 235.593 101.09 236.099C100.83 236.589 100.699 237.134 100.699 237.732ZM113.831 233.04L114.038 235.8L113.923 235.432C114.168 234.849 114.521 234.358 114.981 233.96C115.456 233.546 115.947 233.231 116.453 233.017C116.974 232.787 117.426 232.672 117.81 232.672L117.695 234.788C116.974 234.742 116.338 234.88 115.786 235.202C115.249 235.524 114.82 235.953 114.498 236.49C114.191 237.026 114.038 237.601 114.038 238.215V242.562H111.922V233.04H113.831ZM121.489 228.854H123.628V233.086H126.25V234.765H123.628V242.562H121.489V234.765H119.741V233.086H121.489V228.854ZM135.422 225.933H146.462V228.072H142V242.562H139.769V228.072H135.422V225.933ZM146.178 237.709C146.178 236.758 146.4 235.899 146.845 235.133C147.305 234.366 147.933 233.76 148.731 233.316C149.528 232.871 150.433 232.649 151.445 232.649C152.487 232.649 153.4 232.871 154.182 233.316C154.964 233.76 155.569 234.366 155.999 235.133C156.428 235.899 156.643 236.758 156.643 237.709C156.643 238.659 156.428 239.526 155.999 240.308C155.569 241.074 154.956 241.68 154.159 242.125C153.377 242.569 152.464 242.792 151.422 242.792C150.41 242.792 149.505 242.585 148.708 242.171C147.926 241.741 147.305 241.151 146.845 240.4C146.4 239.633 146.178 238.736 146.178 237.709ZM148.317 237.732C148.317 238.345 148.455 238.905 148.731 239.411C149.007 239.901 149.375 240.292 149.835 240.584C150.31 240.875 150.831 241.021 151.399 241.021C151.997 241.021 152.526 240.875 152.986 240.584C153.461 240.292 153.829 239.901 154.09 239.411C154.35 238.905 154.481 238.345 154.481 237.732C154.481 237.118 154.35 236.566 154.09 236.076C153.829 235.57 153.461 235.171 152.986 234.88C152.526 234.573 151.997 234.42 151.399 234.42C150.816 234.42 150.287 234.573 149.812 234.88C149.352 235.186 148.984 235.593 148.708 236.099C148.447 236.589 148.317 237.134 148.317 237.732ZM162.552 242.93C161.693 242.93 160.98 242.669 160.413 242.148C159.861 241.611 159.569 240.921 159.539 240.078V233.04H161.678V239.319C161.708 239.84 161.854 240.262 162.115 240.584C162.391 240.906 162.82 241.074 163.403 241.09C163.939 241.09 164.415 240.936 164.829 240.63C165.258 240.308 165.603 239.878 165.864 239.342C166.124 238.79 166.255 238.169 166.255 237.479V233.04H168.394V242.562H166.439L166.255 240.216L166.37 240.63C166.186 241.074 165.902 241.473 165.519 241.826C165.151 242.163 164.714 242.431 164.208 242.631C163.702 242.83 163.15 242.93 162.552 242.93ZM174.003 233.04L174.21 235.8L174.095 235.432C174.341 234.849 174.693 234.358 175.153 233.96C175.629 233.546 176.119 233.231 176.625 233.017C177.147 232.787 177.599 232.672 177.982 232.672L177.867 234.788C177.147 234.742 176.51 234.88 175.958 235.202C175.422 235.524 174.992 235.953 174.67 236.49C174.364 237.026 174.21 237.601 174.21 238.215V242.562H172.094V233.04H174.003ZM182.651 233.04L182.835 235.363L182.743 234.995C183.05 234.289 183.548 233.73 184.238 233.316C184.928 232.886 185.725 232.672 186.63 232.672C187.535 232.672 188.271 232.94 188.838 233.477C189.421 233.998 189.72 234.68 189.735 235.524V242.562H187.573V236.283C187.558 235.761 187.404 235.34 187.113 235.018C186.837 234.68 186.4 234.512 185.802 234.512C185.25 234.512 184.752 234.665 184.307 234.972C183.862 235.278 183.51 235.7 183.249 236.237C183.004 236.773 182.881 237.394 182.881 238.1V242.562H180.742V233.04H182.651ZM197.411 242.792C196.521 242.792 195.709 242.6 194.973 242.217C194.252 241.833 193.677 241.274 193.248 240.538C192.834 239.786 192.627 238.874 192.627 237.801C192.627 236.743 192.849 235.83 193.294 235.064C193.738 234.282 194.329 233.684 195.065 233.27C195.816 232.856 196.636 232.649 197.526 232.649C198.415 232.649 199.166 232.856 199.78 233.27C200.393 233.668 200.861 234.144 201.183 234.696L201.045 235.064L201.252 233.04H203.23V242.562H201.091V240.078L201.321 240.63C201.259 240.783 201.121 240.982 200.907 241.228C200.707 241.458 200.431 241.695 200.079 241.941C199.741 242.186 199.35 242.393 198.906 242.562C198.461 242.715 197.963 242.792 197.411 242.792ZM197.986 241.021C198.522 241.021 199.005 240.921 199.435 240.722C199.864 240.522 200.217 240.246 200.493 239.894C200.784 239.526 200.983 239.089 201.091 238.583V236.72C200.968 236.26 200.753 235.861 200.447 235.524C200.14 235.171 199.772 234.903 199.343 234.719C198.913 234.519 198.438 234.42 197.917 234.42C197.349 234.42 196.828 234.558 196.353 234.834C195.877 235.11 195.494 235.493 195.203 235.984C194.927 236.474 194.789 237.049 194.789 237.709C194.789 238.322 194.934 238.882 195.226 239.388C195.517 239.894 195.908 240.292 196.399 240.584C196.889 240.875 197.418 241.021 197.986 241.021ZM208.84 233.04L209.024 235.179L208.932 234.995C209.285 234.274 209.783 233.707 210.427 233.293C211.087 232.879 211.838 232.672 212.681 232.672C213.218 232.672 213.693 232.756 214.107 232.925C214.521 233.093 214.859 233.339 215.119 233.661C215.395 233.967 215.572 234.351 215.648 234.811L215.533 234.88C215.901 234.19 216.407 233.653 217.051 233.27C217.711 232.871 218.401 232.672 219.121 232.672C220.057 232.672 220.793 232.94 221.329 233.477C221.881 233.998 222.165 234.68 222.18 235.524V242.562H220.041V236.283C220.026 235.792 219.903 235.386 219.673 235.064C219.459 234.726 219.075 234.542 218.523 234.512C217.971 234.512 217.473 234.68 217.028 235.018C216.599 235.355 216.262 235.792 216.016 236.329C215.771 236.85 215.641 237.417 215.625 238.031V242.562H213.486V236.283C213.471 235.792 213.341 235.386 213.095 235.064C212.865 234.726 212.474 234.542 211.922 234.512C211.355 234.512 210.857 234.68 210.427 235.018C209.998 235.355 209.661 235.792 209.415 236.329C209.185 236.865 209.07 237.44 209.07 238.054V242.562H206.931V233.04H208.84ZM230.327 242.792C229.238 242.792 228.303 242.577 227.521 242.148C226.739 241.703 226.133 241.105 225.704 240.354C225.29 239.587 225.083 238.713 225.083 237.732C225.083 236.796 225.321 235.945 225.796 235.179C226.271 234.412 226.908 233.799 227.705 233.339C228.502 232.879 229.392 232.649 230.373 232.649C231.63 232.649 232.673 233.017 233.501 233.753C234.329 234.489 234.889 235.501 235.18 236.789L227.337 239.549L226.831 238.284L233.271 235.938L232.811 236.237C232.627 235.731 232.32 235.294 231.891 234.926C231.462 234.542 230.902 234.351 230.212 234.351C229.629 234.351 229.108 234.496 228.648 234.788C228.188 235.064 227.828 235.447 227.567 235.938C227.306 236.428 227.176 236.988 227.176 237.617C227.176 238.276 227.314 238.859 227.59 239.365C227.866 239.855 228.242 240.246 228.717 240.538C229.208 240.814 229.76 240.952 230.373 240.952C230.787 240.952 231.186 240.875 231.569 240.722C231.968 240.568 232.336 240.369 232.673 240.124L233.662 241.711C233.187 242.033 232.65 242.293 232.052 242.493C231.469 242.692 230.894 242.792 230.327 242.792ZM239.769 233.04L239.953 235.363L239.861 234.995C240.168 234.289 240.666 233.73 241.356 233.316C242.046 232.886 242.843 232.672 243.748 232.672C244.653 232.672 245.389 232.94 245.956 233.477C246.539 233.998 246.838 234.68 246.853 235.524V242.562H244.691V236.283C244.676 235.761 244.522 235.34 244.231 235.018C243.955 234.68 243.518 234.512 242.92 234.512C242.368 234.512 241.87 234.665 241.425 234.972C240.98 235.278 240.628 235.7 240.367 236.237C240.122 236.773 239.999 237.394 239.999 238.1V242.562H237.86V233.04H239.769ZM251.493 228.854H253.632V233.086H256.254V234.765H253.632V242.562H251.493V234.765H249.745V233.086H251.493V228.854Z" fill="url(#paint4_linear_2027_129897)"/>
<defs>
<linearGradient id="paint0_linear_2027_129897" x1="88.0912" y1="23.7432" x2="88.0912" y2="153.561" gradientUnits="userSpaceOnUse">
<stop stop-color="white"/>
<stop offset="0.502858" stop-color="#EBEFF9"/>
<stop offset="0.502858" stop-color="white"/>
<stop offset="1" stop-color="#EBEFF9"/>
</linearGradient>
<linearGradient id="paint1_linear_2027_129897" x1="88.0912" y1="23.7432" x2="88.0912" y2="153.561" gradientUnits="userSpaceOnUse">
<stop stop-color="#F9D390"/>
<stop offset="0.71875" stop-color="#EFBA5D"/>
<stop offset="1" stop-color="#E19C24"/>
</linearGradient>
<linearGradient id="paint2_linear_2027_129897" x1="88.0909" y1="0.561523" x2="88.0909" y2="90.1979" gradientUnits="userSpaceOnUse">
<stop stop-color="#F9D390"/>
<stop offset="0.71875" stop-color="#EFBA5D"/>
<stop offset="1" stop-color="#E19C24"/>
</linearGradient>
<linearGradient id="paint3_linear_2027_129897" x1="88.0908" y1="36.8799" x2="88.0908" y2="141.198" gradientUnits="userSpaceOnUse">
<stop stop-color="#F9D390"/>
<stop offset="0.71875" stop-color="#EFBA5D"/>
<stop offset="1" stop-color="#E19C24"/>
</linearGradient>
<linearGradient id="paint4_linear_2027_129897" x1="141" y1="221.562" x2="141" y2="251.562" gradientUnits="userSpaceOnUse">
<stop stop-color="#F9D390"/>
<stop offset="1" stop-color="#E2B15B"/>
</linearGradient>
</defs>
</svg>
