<svg width="342" height="112" viewBox="0 0 342 112" fill="none" xmlns="http://www.w3.org/2000/svg">
<circle cx="63.5349" cy="64.2542" r="46.2743" fill="url(#paint0_linear_2097_141168)" stroke="url(#paint1_linear_2097_141168)" stroke-width="1.08186"/>
<line x1="16.7197" y1="64.5329" x2="110.35" y2="64.5329" stroke="#EEC276" stroke-width="0.557324"/>
<path fill-rule="evenodd" clip-rule="evenodd" d="M63.5349 1.83389C37.4816 1.83389 15.1563 17.7955 5.80447 40.4732C2.29797 48.0802 0.250723 56.4983 0.0215725 65.3688H0.00958088C0.00320231 64.998 0 64.6264 0 64.2541C0 29.1648 28.4455 0.719238 63.5349 0.719238C98.6242 0.719238 127.07 29.1648 127.07 64.2541C127.07 64.6264 127.067 64.998 127.06 65.3688H127.048C126.819 56.4983 124.772 48.0802 121.265 40.4733C111.914 17.7955 89.5882 1.83389 63.5349 1.83389Z" fill="url(#paint2_linear_2097_141168)"/>
<path d="M118.726 64.5329C118.726 74.6872 112.629 83.9436 102.641 90.6855C92.6562 97.4252 78.8317 101.611 63.5349 101.611C48.2381 101.611 34.4136 97.4252 24.4288 90.6855C14.4408 83.9436 8.34348 74.6872 8.34348 64.5329C8.34348 54.3786 14.4408 45.1223 24.4288 38.3804C34.4136 31.6406 48.2381 27.4545 63.5349 27.4545C78.8317 27.4545 92.6562 31.6406 102.641 38.3804C112.629 45.1223 118.726 54.3786 118.726 64.5329Z" stroke="url(#paint3_linear_2097_141168)" stroke-width="1.08186"/>
<path d="M46.1211 45.4626C46.1211 44.0778 46.3461 42.7882 46.7962 41.5938C47.2636 40.3822 47.904 39.3263 48.7176 38.4262C49.5485 37.526 50.5438 36.8163 51.7035 36.297C52.8633 35.7777 54.1442 35.5181 55.5463 35.5181C56.9484 35.5181 58.2293 35.7777 59.3891 36.297C60.5488 36.8163 61.5355 37.526 62.3491 38.4262C63.1799 39.3263 63.8204 40.3822 64.2705 41.5938C64.7378 42.7882 64.9715 44.0778 64.9715 45.4626C64.9715 47.0032 64.6599 48.4226 64.0368 49.7208C63.4136 51.0017 62.5827 52.1615 61.5442 53.2001C60.5229 54.2387 59.3458 55.1388 58.013 55.9004C56.6974 56.6794 55.3386 57.3112 53.9365 57.7958C54.3346 57.6574 54.7587 57.5448 55.2088 57.4583C55.6588 57.3891 56.23 57.3544 56.9224 57.3544C57.511 57.3544 58.0908 57.4843 58.6621 57.7439C59.2506 58.0209 59.8045 58.3151 60.3238 58.6267C60.8431 58.9383 61.3278 59.2239 61.7778 59.4835C62.2279 59.7605 62.6087 59.899 62.9203 59.899C63.3703 59.899 63.7771 59.8124 64.1406 59.6393C64.5041 59.4662 64.9023 59.1547 65.335 58.7046L65.5947 58.8604C65.0927 59.6913 64.5561 60.2365 63.9848 60.4962C63.4309 60.7731 62.9289 60.9116 62.4789 60.9116C61.9596 60.9116 61.4576 60.7818 60.9729 60.5221C60.5056 60.2625 60.0295 59.9769 59.5449 59.6653C59.0602 59.3537 58.5582 59.0681 58.0389 58.8085C57.5196 58.5488 56.9484 58.419 56.3252 58.419C55.7713 58.419 55.2434 58.4363 54.7414 58.4709C54.2567 58.5055 53.7374 58.5748 53.1835 58.6786C52.6469 58.7825 52.0411 58.921 51.366 59.0941C50.7082 59.2845 49.9293 59.5182 49.0292 59.7951L48.8993 59.4056C49.7648 59.0595 50.7255 58.6786 51.7814 58.2632C52.8373 57.8478 53.9105 57.3717 55.001 56.8351C56.0916 56.2985 57.1561 55.684 58.1947 54.9916C59.2333 54.2819 60.1507 53.4684 60.947 52.551C61.7605 51.6335 62.4096 50.595 62.8943 49.4352C63.3963 48.2581 63.6473 46.9339 63.6473 45.4626C63.6473 43.7489 63.405 42.2862 62.9203 41.0746C62.4356 39.8629 61.8038 38.8849 61.0249 38.1405C60.2459 37.3789 59.3718 36.825 58.4024 36.4788C57.4504 36.1326 56.4983 35.9595 55.5463 35.9595C54.5943 35.9595 53.6336 36.1326 52.6642 36.4788C51.7122 36.825 50.8467 37.3789 50.0677 38.1405C49.2888 38.8849 48.657 39.8629 48.1723 41.0746C47.6876 42.2862 47.4453 43.7489 47.4453 45.4626C47.4453 47.1936 47.6876 48.6649 48.1723 49.8766C48.657 51.0883 49.2888 52.0749 50.0677 52.8366C50.8467 53.5982 51.7122 54.1521 52.6642 54.4983C53.6336 54.8445 54.5943 55.0176 55.5463 55.0176V55.459C54.1442 55.459 52.8633 55.1994 51.7035 54.6801C50.5438 54.1608 49.5485 53.4511 48.7176 52.551C47.904 51.6335 47.2636 50.569 46.7962 49.3573C46.3461 48.1456 46.1211 46.8474 46.1211 45.4626ZM67.2783 55.3032C67.2783 53.8319 67.5812 52.5683 68.1871 51.5124C68.8102 50.4392 69.5892 49.4958 70.5239 48.6822C71.4586 47.8687 72.4626 47.1416 73.5358 46.5012C74.609 45.8434 75.613 45.2029 76.5477 44.5798C77.4824 43.9566 78.2527 43.3075 78.8586 42.6324C79.4817 41.9574 79.7933 41.1784 79.7933 40.2956C79.7933 39.5859 79.6462 38.9714 79.3519 38.4521C79.0749 37.9155 78.7028 37.4828 78.2354 37.1539C77.7681 36.8077 77.2314 36.5567 76.6256 36.4009C76.0371 36.2278 75.4312 36.1413 74.8081 36.1413C73.9253 36.1413 73.1723 36.2797 72.5491 36.5567C71.926 36.8163 71.3807 37.1885 70.9134 37.6732C70.4633 38.1405 70.0825 38.7031 69.7709 39.3609C69.4593 40.0013 69.1737 40.7024 68.9141 41.464L67.6158 40.6332C68.3255 39.006 69.2516 37.777 70.3941 36.9462C71.5538 36.098 73.0252 35.6739 74.8081 35.6739C75.587 35.6739 76.3313 35.7777 77.041 35.9855C77.7507 36.1932 78.3739 36.5048 78.9105 36.9202C79.4644 37.3356 79.8972 37.8636 80.2087 38.504C80.5376 39.1445 80.7021 39.8975 80.7021 40.763C80.7021 41.6458 80.3818 42.468 79.7414 43.2296C79.1182 43.9739 78.3306 44.6923 77.3786 45.3847C76.4265 46.0771 75.388 46.7522 74.2628 47.4099C73.155 48.0677 72.1251 48.7515 71.173 49.4612C70.221 50.1709 69.4247 50.9238 68.7843 51.7201C68.1611 52.5163 67.8495 53.3905 67.8495 54.3425H75.7688C76.5823 54.3425 77.2834 54.2906 77.8719 54.1867C78.4604 54.0656 78.9624 53.8579 79.3779 53.5636C79.7933 53.252 80.1395 52.8366 80.4165 52.3173C80.6934 51.798 80.9271 51.1316 81.1175 50.318L81.5849 50.4219L80.5203 55.3032H67.2783Z" fill="#00226D"/>
<path d="M46.7962 41.5938L46.4597 41.4641L46.4587 41.4667L46.7962 41.5938ZM48.7176 38.4262L48.4526 38.1815L48.45 38.1843L48.7176 38.4262ZM51.7035 36.297L51.5562 35.9679L51.7035 36.297ZM59.3891 36.297L59.5365 35.9679H59.5365L59.3891 36.297ZM62.3491 38.4262L62.0815 38.668L62.0841 38.6708L62.3491 38.4262ZM64.2705 41.5938L63.9323 41.7194L63.9346 41.7253L64.2705 41.5938ZM64.0368 49.7208L64.3611 49.8786L64.3619 49.8769L64.0368 49.7208ZM61.5442 53.2001L61.2892 52.9451L61.287 52.9472L61.5442 53.2001ZM58.013 55.9004L57.834 55.5873L57.8292 55.5901L58.013 55.9004ZM53.9365 57.7958L53.818 57.4552L54.0543 58.1367L53.9365 57.7958ZM55.2088 57.4583L55.1539 57.1016L55.1407 57.1042L55.2088 57.4583ZM58.6621 57.7439L58.8156 57.4176L58.8113 57.4156L58.6621 57.7439ZM60.3238 58.6267L60.5094 58.3175H60.5094L60.3238 58.6267ZM61.7778 59.4835L61.9669 59.1763L61.9581 59.1712L61.7778 59.4835ZM64.1406 59.6393L63.9856 59.3137L64.1406 59.6393ZM65.335 58.7046L65.5205 58.3954L65.2742 58.2476L65.0751 58.4547L65.335 58.7046ZM65.5947 58.8604L65.9033 59.0469L66.0904 58.7373L65.7802 58.5512L65.5947 58.8604ZM63.9848 60.4962L63.8355 60.1676L63.8236 60.1736L63.9848 60.4962ZM60.9729 60.5221L60.7978 60.8374L60.8026 60.84L60.9729 60.5221ZM59.5449 59.6653L59.3499 59.9686H59.3499L59.5449 59.6653ZM58.0389 58.8085L57.8776 59.131L58.0389 58.8085ZM54.7414 58.4709L54.7166 58.1112L54.7157 58.1112L54.7414 58.4709ZM53.1835 58.6786L53.1171 58.3242L53.115 58.3246L53.1835 58.6786ZM51.366 59.0941L51.2764 58.7446L51.2657 58.7477L51.366 59.0941ZM49.0292 59.7951L48.687 59.9092L48.7985 60.2434L49.1352 60.1398L49.0292 59.7951ZM48.8993 59.4056L48.7654 59.0708L48.4497 59.1971L48.5572 59.5197L48.8993 59.4056ZM51.7814 58.2632L51.6494 57.9276L51.7814 58.2632ZM55.001 56.8351L55.1603 57.1587L55.001 56.8351ZM58.1947 54.9916L58.3948 55.2917L58.3982 55.2894L58.1947 54.9916ZM60.947 52.551L60.6771 52.3117L60.6746 52.3146L60.947 52.551ZM62.8943 49.4352L62.5626 49.2937L62.5616 49.2961L62.8943 49.4352ZM62.9203 41.0746L63.2551 40.9406L62.9203 41.0746ZM61.0249 38.1405L60.7727 38.3984L60.7757 38.4013L61.0249 38.1405ZM58.4024 36.4788L58.2792 36.8177L58.2811 36.8184L58.4024 36.4788ZM52.6642 36.4788L52.5429 36.1392L52.541 36.1399L52.6642 36.4788ZM50.0677 38.1405L50.3169 38.4013L50.3199 38.3984L50.0677 38.1405ZM48.1723 41.0746L47.8375 40.9406L48.1723 41.0746ZM48.1723 49.8766L47.8375 50.0105L48.1723 49.8766ZM50.0677 52.8366L50.3199 52.5787L50.0677 52.8366ZM52.6642 54.4983L52.541 54.8372L52.5429 54.8379L52.6642 54.4983ZM55.5463 55.0176H55.9069V54.657H55.5463V55.0176ZM55.5463 55.459V55.8196H55.9069V55.459H55.5463ZM51.7035 54.6801L51.5562 55.0092L51.7035 54.6801ZM48.7176 52.551L48.4477 52.7903L48.4526 52.7956L48.7176 52.551ZM46.7962 49.3573L46.4581 49.4829L46.4597 49.4871L46.7962 49.3573ZM46.4817 45.4626C46.4817 44.1175 46.7002 42.8714 47.1337 41.721L46.4587 41.4667C45.9921 42.705 45.7605 44.0381 45.7605 45.4626H46.4817ZM47.1327 41.7236C47.5852 40.5503 48.2032 39.533 48.9851 38.668L48.45 38.1843C47.6048 39.1195 46.9419 40.2141 46.4597 41.4641L47.1327 41.7236ZM48.9826 38.6708C49.7791 37.8078 50.734 37.1263 51.8509 36.6262L51.5562 35.9679C50.3536 36.5064 49.3178 37.2443 48.4526 38.1815L48.9826 38.6708ZM51.8509 36.6262C52.9597 36.1297 54.1897 35.8787 55.5463 35.8787V35.1575C54.0987 35.1575 52.7669 35.4258 51.5562 35.9679L51.8509 36.6262ZM55.5463 35.8787C56.9029 35.8787 58.1329 36.1297 59.2417 36.6262L59.5365 35.9679C58.3257 35.4258 56.9939 35.1575 55.5463 35.1575V35.8787ZM59.2417 36.6262C60.358 37.126 61.3031 37.8067 62.0815 38.668L62.6166 38.1843C61.7679 37.2453 60.7397 36.5067 59.5365 35.9679L59.2417 36.6262ZM62.0841 38.6708C62.8813 39.5344 63.4978 40.5493 63.9324 41.7194L64.6085 41.4683C64.143 40.215 63.4785 39.1181 62.614 38.1815L62.0841 38.6708ZM63.9346 41.7253C64.3843 42.8745 64.6109 44.1192 64.6109 45.4626H65.3321C65.3321 44.0364 65.0913 42.7019 64.6063 41.4624L63.9346 41.7253ZM64.6109 45.4626C64.6109 46.953 64.3098 48.3186 63.7117 49.5648L64.3619 49.8769C65.01 48.5266 65.3321 47.0533 65.3321 45.4626H64.6109ZM63.7125 49.563C63.1074 50.8068 62.3003 51.9339 61.2892 52.9451L61.7992 53.4551C62.8652 52.389 63.7198 51.1966 64.3611 49.8786L63.7125 49.563ZM61.287 52.9472C60.2902 53.961 59.1397 54.8412 57.834 55.5873L58.1919 56.2135C59.5519 55.4364 60.7556 54.5163 61.8013 53.4529L61.287 52.9472ZM57.8292 55.5901C56.5339 56.3571 55.1971 56.9785 53.8187 57.455L54.0543 58.1367C55.48 57.6438 56.8609 57.0016 58.1967 56.2107L57.8292 55.5901ZM54.055 58.1364C54.4353 58.0042 54.8424 57.896 55.2769 57.8124L55.1407 57.1042C54.675 57.1937 54.2339 57.3106 53.818 57.4552L54.055 58.1364ZM55.2636 57.8147C55.6888 57.7493 56.24 57.7151 56.9224 57.7151V56.9938C56.2201 56.9938 55.6289 57.0288 55.1539 57.1019L55.2636 57.8147ZM56.9224 57.7151C57.4561 57.7151 57.9853 57.8324 58.5128 58.0722L58.8113 57.4156C58.1964 57.1361 57.5658 56.9938 56.9224 56.9938V57.7151ZM58.5085 58.0702C59.0869 58.3424 59.6301 58.631 60.1383 58.9359L60.5094 58.3175C59.979 57.9992 59.4143 57.6993 58.8156 57.4176L58.5085 58.0702ZM60.1383 58.9359C60.6591 59.2484 61.1455 59.5351 61.5976 59.7959L61.9581 59.1712C61.51 58.9127 61.0272 58.6282 60.5094 58.3175L60.1383 58.9359ZM61.5888 59.7907C62.0607 60.0811 62.5103 60.2596 62.9203 60.2596V59.5384C62.7072 59.5384 62.3951 59.4399 61.9668 59.1764L61.5888 59.7907ZM62.9203 60.2596C63.4176 60.2596 63.8783 60.1637 64.2957 59.9649L63.9856 59.3137C63.676 59.4612 63.3231 59.5384 62.9203 59.5384V60.2596ZM64.2957 59.9649C64.7139 59.7658 65.1468 59.4206 65.595 58.9546L65.0751 58.4547C64.6577 58.8887 64.2944 59.1667 63.9856 59.3137L64.2957 59.9649ZM65.1495 59.0138L65.4091 59.1696L65.7802 58.5512L65.5205 58.3954L65.1495 59.0138ZM65.286 58.6739C64.8025 59.4742 64.3135 59.9507 63.8356 60.1679L64.1341 60.8245C64.7987 60.5224 65.3828 59.9084 65.9033 59.0469L65.286 58.6739ZM63.8236 60.1736C63.3019 60.4344 62.856 60.551 62.4789 60.551V61.2722C63.0019 61.2722 63.5599 61.1118 64.1461 60.8187L63.8236 60.1736ZM62.4789 60.551C62.0225 60.551 61.5787 60.4375 61.1432 60.2043L60.8026 60.84C61.3365 61.126 61.8967 61.2722 62.4789 61.2722V60.551ZM61.1481 60.2069C60.6879 59.9513 60.2186 59.6697 59.7399 59.3619L59.3499 59.9686C59.8405 60.2841 60.3232 60.5737 60.7978 60.8374L61.1481 60.2069ZM59.7399 59.3619C59.2442 59.0433 58.731 58.7513 58.2002 58.4859L57.8776 59.131C58.3854 59.3849 58.8762 59.6641 59.3499 59.9686L59.7399 59.3619ZM58.2002 58.4859C57.6272 58.1994 57.0002 58.0584 56.3252 58.0584V58.7796C56.8966 58.7796 57.412 58.8982 57.8776 59.131L58.2002 58.4859ZM56.3252 58.0584C55.7639 58.0584 55.2276 58.0759 54.7166 58.1112L54.7662 58.8307C55.2592 58.7967 55.7788 58.7796 56.3252 58.7796V58.0584ZM54.7157 58.1112C54.2154 58.147 53.6824 58.2182 53.1171 58.3242L53.25 59.0331C53.7925 58.9314 54.298 58.8641 54.7671 58.8306L54.7157 58.1112ZM53.115 58.3246C52.5697 58.4301 51.9567 58.5703 51.2764 58.7448L51.4556 59.4434C52.1255 59.2716 52.7241 59.1349 53.252 59.0327L53.115 58.3246ZM51.2657 58.7477C50.6054 58.9388 49.8245 59.1731 48.9231 59.4504L49.1352 60.1398C50.0341 59.8632 50.811 59.6302 51.4663 59.4405L51.2657 58.7477ZM49.3713 59.6811L49.2415 59.2916L48.5572 59.5197L48.687 59.9092L49.3713 59.6811ZM49.0333 59.7405C49.898 59.3946 50.8581 59.014 51.9135 58.5988L51.6494 57.9276C50.593 58.3433 49.6316 58.7243 48.7654 59.0708L49.0333 59.7405ZM51.9135 58.5988C52.9792 58.1795 54.0615 57.6994 55.1603 57.1587L54.8418 56.5116C53.7596 57.0441 52.6954 57.5161 51.6494 57.9276L51.9135 58.5988ZM55.1603 57.1587C56.2653 56.615 57.3434 55.9926 58.3947 55.2917L57.9947 54.6916C56.9688 55.3755 55.9179 55.9821 54.8418 56.5116L55.1603 57.1587ZM58.3982 55.2894C59.4613 54.5629 60.4021 53.7289 61.2193 52.7873L60.6746 52.3146C59.8993 53.2079 59.0053 54.001 57.9913 54.6939L58.3982 55.2894ZM61.2168 52.7902C62.0574 51.8424 62.7275 50.7697 63.2271 49.5742L62.5616 49.2961C62.0918 50.4202 61.4637 51.4247 60.6772 52.3117L61.2168 52.7902ZM63.226 49.5767C63.7497 48.3487 64.0079 46.9753 64.0079 45.4626H63.2867C63.2867 46.8925 63.0429 48.1676 62.5626 49.2937L63.226 49.5767ZM64.0079 45.4626C64.0079 43.7167 63.7612 42.206 63.2551 40.9406L62.5855 41.2085C63.0487 42.3665 63.2867 43.7812 63.2867 45.4626H64.0079ZM63.2551 40.9406C62.7552 39.691 62.0973 38.6665 61.274 37.8798L60.7757 38.4013C61.5103 39.1032 62.116 40.0348 62.5855 41.2085L63.2551 40.9406ZM61.277 37.8827C60.4631 37.0869 59.5449 36.5039 58.5237 36.1392L58.2811 36.8184C59.1987 37.1461 60.0288 37.671 60.7727 38.3984L61.277 37.8827ZM58.5257 36.1399C57.5367 35.7803 56.543 35.5989 55.5463 35.5989V36.3201C56.4537 36.3201 57.3641 36.4849 58.2792 36.8177L58.5257 36.1399ZM55.5463 35.5989C54.5497 35.5989 53.548 35.7802 52.5429 36.1392L52.7855 36.8184C53.7191 36.485 54.6388 36.3201 55.5463 36.3201V35.5989ZM52.541 36.1399C51.5371 36.5049 50.6285 37.0879 49.8156 37.8827L50.3199 38.3984C51.0649 37.6699 51.8872 37.1451 52.7875 36.8177L52.541 36.1399ZM49.8186 37.8798C48.9953 38.6665 48.3374 39.691 47.8375 40.9406L48.5072 41.2085C48.9766 40.0348 49.5823 39.1032 50.3169 38.4013L49.8186 37.8798ZM47.8375 40.9406C47.3314 42.206 47.0847 43.7167 47.0847 45.4626H47.8059C47.8059 43.7812 48.0439 42.3665 48.5072 41.2085L47.8375 40.9406ZM47.0847 45.4626C47.0847 47.2253 47.3312 48.7448 47.8375 50.0105L48.5072 49.7427C48.0441 48.585 47.8059 47.1618 47.8059 45.4626H47.0847ZM47.8375 50.0105C48.3372 51.2598 48.9944 52.2915 49.8156 53.0944L50.3199 52.5787C49.5832 51.8584 48.9768 50.9168 48.5072 49.7427L47.8375 50.0105ZM49.8156 53.0944C50.6285 53.8892 51.5371 54.4722 52.541 54.8372L52.7875 54.1594C51.8872 53.832 51.0649 53.3072 50.3199 52.5787L49.8156 53.0944ZM52.5429 54.8379C53.548 55.1969 54.5497 55.3782 55.5463 55.3782V54.657C54.6388 54.657 53.7191 54.4921 52.7855 54.1587L52.5429 54.8379ZM55.1857 55.0176V55.459H55.9069V55.0176H55.1857ZM55.5463 55.0984C54.1897 55.0984 52.9597 54.8474 51.8509 54.3509L51.5562 55.0092C52.7669 55.5513 54.0987 55.8196 55.5463 55.8196V55.0984ZM51.8509 54.3509C50.734 53.8508 49.7791 53.1693 48.9826 52.3064L48.4526 52.7956C49.3178 53.7329 50.3536 54.4707 51.5562 55.0092L51.8509 54.3509ZM48.9874 52.3117C48.2041 51.4284 47.5854 50.4014 47.1327 49.2275L46.4597 49.4871C46.9417 50.7366 47.604 51.8387 48.4478 52.7902L48.9874 52.3117ZM47.1342 49.2317C46.7002 48.063 46.4817 46.8076 46.4817 45.4626H45.7605C45.7605 46.8872 45.9921 48.2282 46.4581 49.4829L47.1342 49.2317ZM67.2783 55.3032H66.9177V55.6638H67.2783V55.3032ZM68.1871 51.5124L67.8752 51.3313L67.8743 51.3329L68.1871 51.5124ZM70.5239 48.6822L70.2871 48.4102L70.5239 48.6822ZM73.5358 46.5012L73.7206 46.8109L73.7243 46.8086L73.5358 46.5012ZM76.5477 44.5798L76.7477 44.8798L76.5477 44.5798ZM78.8586 42.6324L78.5936 42.3878L78.5902 42.3916L78.8586 42.6324ZM79.3519 38.4521L79.0312 38.6176L79.0382 38.6299L79.3519 38.4521ZM78.2354 37.1539L78.0207 37.4437L78.0279 37.4488L78.2354 37.1539ZM76.6256 36.4009L76.5238 36.7471L76.5358 36.7502L76.6256 36.4009ZM72.5491 36.5567L72.6879 36.8897L72.6956 36.8862L72.5491 36.5567ZM70.9134 37.6732L70.6538 37.4229L70.6536 37.423L70.9134 37.6732ZM69.7709 39.3609L70.0952 39.5186L70.0968 39.5153L69.7709 39.3609ZM68.9141 41.464L68.7197 41.7678L69.107 42.0157L69.2554 41.5804L68.9141 41.464ZM67.6158 40.6332L67.2853 40.489L67.1623 40.771L67.4215 40.9369L67.6158 40.6332ZM70.3941 36.9462L70.6062 37.2378L70.607 37.2372L70.3941 36.9462ZM77.041 35.9855L76.9397 36.3316V36.3316L77.041 35.9855ZM78.9105 36.9202L78.6897 37.2054L78.6941 37.2087L78.9105 36.9202ZM80.2087 38.504L79.8844 38.6618L79.8879 38.6688L80.2087 38.504ZM79.7414 43.2296L79.4654 42.9975L79.4649 42.9981L79.7414 43.2296ZM77.3786 45.3847L77.1665 45.093L77.3786 45.3847ZM74.2628 47.4099L74.0808 47.0986L74.0787 47.0999L74.2628 47.4099ZM71.173 49.4612L71.3885 49.7503L71.173 49.4612ZM68.7843 51.7201L68.5032 51.494L68.5003 51.4978L68.7843 51.7201ZM67.8495 54.3425H67.4889V54.7031H67.8495V54.3425ZM77.8719 54.1867L77.9346 54.542L77.9446 54.54L77.8719 54.1867ZM79.3779 53.5636L79.5864 53.858L79.5942 53.8521L79.3779 53.5636ZM80.4165 52.3173L80.0983 52.1476L80.4165 52.3173ZM81.1175 50.318L81.1957 49.966L80.8476 49.8886L80.7664 50.2358L81.1175 50.318ZM81.5849 50.4219L81.9372 50.4987L82.0137 50.1477L81.6631 50.0698L81.5849 50.4219ZM80.5203 55.3032V55.6638H80.8108L80.8727 55.3801L80.5203 55.3032ZM67.6389 55.3032C67.6389 53.8817 67.9313 52.6828 68.4999 51.6918L67.8743 51.3329C67.2312 52.4538 66.9177 53.782 66.9177 55.3032H67.6389ZM68.4989 51.6935C69.1022 50.6544 69.8558 49.7418 70.7607 48.9542L70.2871 48.4102C69.3225 49.2498 68.5182 50.2239 67.8752 51.3313L68.4989 51.6935ZM70.7607 48.9542C71.6791 48.1549 72.6656 47.4404 73.7206 46.8109L73.351 46.1915C72.2595 46.8429 71.2382 47.5824 70.2871 48.4102L70.7607 48.9542ZM73.7243 46.8086C74.8009 46.1488 75.8088 45.5058 76.7477 44.8798L76.3477 44.2797C75.4172 44.9001 74.4171 45.5381 73.3474 46.1937L73.7243 46.8086ZM76.7477 44.8798C77.7019 44.2437 78.4968 43.5755 79.127 42.8733L78.5902 42.3916C78.0087 43.0395 77.2629 43.6696 76.3477 44.2797L76.7477 44.8798ZM79.1236 42.877C79.8054 42.1383 80.1539 41.2731 80.1539 40.2956H79.4327C79.4327 41.0838 79.158 41.7764 78.5936 42.3878L79.1236 42.877ZM80.1539 40.2956C80.1539 39.5354 79.996 38.8573 79.6657 38.2743L79.0382 38.6299C79.2964 39.0856 79.4327 39.6364 79.4327 40.2956H80.1539ZM79.6724 38.2867C79.3703 37.7015 78.9605 37.2232 78.443 36.859L78.0279 37.4488C78.445 37.7423 78.7796 38.1295 79.0314 38.6175L79.6724 38.2867ZM78.4501 36.8641C77.9426 36.4882 77.3629 36.2181 76.7154 36.0516L76.5358 36.7502C77.1 36.8952 77.5935 37.1272 78.0208 37.4437L78.4501 36.8641ZM76.7274 36.0549C76.1053 35.872 75.4651 35.7806 74.8081 35.7806V36.5019C75.3973 36.5019 75.9689 36.5836 76.5238 36.7469L76.7274 36.0549ZM74.8081 35.7806C73.8891 35.7806 73.0834 35.9246 72.4027 36.2271L72.6956 36.8862C73.2612 36.6349 73.9615 36.5019 74.8081 36.5019V35.7806ZM72.4104 36.2238C71.7419 36.5024 71.1555 36.9026 70.6538 37.4229L71.173 37.9235C71.606 37.4744 72.1101 37.1303 72.6878 36.8896L72.4104 36.2238ZM70.6536 37.423C70.1734 37.9217 69.7713 38.5177 69.445 39.2065L70.0968 39.5153C70.3937 38.8885 70.7532 38.3594 71.1731 37.9233L70.6536 37.423ZM69.4466 39.2031C69.1277 39.8586 68.8366 40.5737 68.5728 41.3477L69.2554 41.5804C69.5108 40.8311 69.7909 40.1441 70.0952 39.5186L69.4466 39.2031ZM69.1085 41.1603L67.8102 40.3294L67.4215 40.9369L68.7197 41.7678L69.1085 41.1603ZM67.9464 40.7773C68.6369 39.1941 69.5274 38.0224 70.6062 37.2378L70.182 36.6545C68.9759 37.5317 68.0142 38.8179 67.2853 40.489L67.9464 40.7773ZM70.607 37.2372C71.6914 36.4442 73.083 36.0345 74.8081 36.0345V35.3133C72.9673 35.3133 71.4163 35.7518 70.1812 36.6551L70.607 37.2372ZM74.8081 36.0345C75.5546 36.0345 76.2647 36.134 76.9397 36.3316L77.1423 35.6394C76.398 35.4215 75.6195 35.3133 74.8081 35.3133V36.0345ZM76.9397 36.3316C77.6101 36.5278 78.1919 36.8199 78.6897 37.2053L79.1313 36.635C78.5559 36.1896 77.8914 35.8586 77.1423 35.6394L76.9397 36.3316ZM78.6941 37.2087C79.2009 37.5887 79.5972 38.0713 79.8845 38.6618L80.533 38.3463C80.1971 37.6558 79.728 37.0825 79.1269 36.6317L78.6941 37.2087ZM79.8879 38.6688C80.1859 39.249 80.3414 39.9433 80.3414 40.763H81.0627C81.0627 39.8517 80.8894 39.0401 80.5295 38.3393L79.8879 38.6688ZM80.3414 40.763C80.3414 41.55 80.0586 42.2921 79.4654 42.9975L80.0174 43.4617C80.7051 42.6439 81.0627 41.7415 81.0627 40.763H80.3414ZM79.4649 42.9981C78.8641 43.7157 78.0995 44.4145 77.1665 45.093L77.5907 45.6763C78.5617 44.9701 79.3723 44.2322 80.0179 43.4611L79.4649 42.9981ZM77.1665 45.093C76.2251 45.7777 75.1967 46.4463 74.0808 47.0986L74.4448 47.7213C75.5792 47.0581 76.628 46.3765 77.5907 45.6763L77.1665 45.093ZM74.0787 47.0999C72.9609 47.7635 71.9204 48.4542 70.9575 49.172L71.3885 49.7503C72.3297 49.0487 73.349 48.3719 74.4469 47.72L74.0787 47.0999ZM70.9575 49.172C69.9849 49.8971 69.1656 50.6706 68.5033 51.4941L69.0653 51.9461C69.6839 51.177 70.4571 50.4447 71.3885 49.7503L70.9575 49.172ZM68.5003 51.4978C67.8308 52.3533 67.4889 53.3047 67.4889 54.3425H68.2101C68.2101 53.4762 68.4914 52.6794 69.0683 51.9423L68.5003 51.4978ZM67.8495 54.7031H75.7688V53.9819H67.8495V54.7031ZM75.7688 54.7031C76.5964 54.7031 77.3195 54.6504 77.9346 54.5419L77.8092 53.8316C77.2473 53.9308 76.5683 53.9819 75.7688 53.9819V54.7031ZM77.9446 54.54C78.5733 54.4105 79.1235 54.1857 79.5863 53.8579L79.1694 53.2693C78.8013 53.53 78.3476 53.7206 77.7992 53.8335L77.9446 54.54ZM79.5942 53.8521C80.0572 53.5049 80.4362 53.0466 80.7346 52.487L80.0983 52.1476C79.8428 52.6265 79.5294 52.9992 79.1615 53.2751L79.5942 53.8521ZM80.7346 52.487C81.0311 51.9312 81.2738 51.2326 81.4686 50.4002L80.7664 50.2358C80.5804 51.0305 80.3558 51.6648 80.0983 52.1476L80.7346 52.487ZM81.0393 50.67L81.5066 50.7739L81.6631 50.0698L81.1957 49.966L81.0393 50.67ZM81.2325 50.345L80.168 55.2264L80.8727 55.3801L81.9372 50.4987L81.2325 50.345ZM80.5203 54.9426H67.2783V55.6638H80.5203V54.9426Z" fill="#00226D"/>
<path d="M38.2275 88.4336C38.2275 87.2484 38.4715 86.2304 38.9596 85.3799C39.4615 84.5153 40.089 83.7554 40.842 83.1C41.595 82.4446 42.4037 81.859 43.2683 81.3431C44.1328 80.8132 44.9415 80.2973 45.6945 79.7953C46.4475 79.2933 47.068 78.7704 47.556 78.2266C48.058 77.6828 48.309 77.0553 48.309 76.3441C48.309 75.7724 48.1905 75.2774 47.9534 74.8591C47.7303 74.4268 47.4305 74.0782 47.0541 73.8133C46.6776 73.5344 46.2453 73.3322 45.7573 73.2067C45.2832 73.0673 44.7951 72.9976 44.2931 72.9976C43.582 72.9976 42.9754 73.1091 42.4734 73.3322C41.9715 73.5414 41.5322 73.8412 41.1557 74.2316C40.7932 74.6081 40.4864 75.0613 40.2354 75.5912C39.9844 76.1071 39.7544 76.6718 39.5452 77.2853L38.4994 76.616C39.0711 75.3053 39.8171 74.3153 40.7374 73.646C41.6717 72.9627 42.8569 72.6211 44.2931 72.6211C44.9206 72.6211 45.5202 72.7047 46.0919 72.8721C46.6636 73.0394 47.1656 73.2904 47.5979 73.625C48.0441 73.9597 48.3927 74.385 48.6437 74.9009C48.9086 75.4169 49.0411 76.0234 49.0411 76.7206C49.0411 77.4318 48.7831 78.0941 48.2672 78.7076C47.7652 79.3072 47.1307 79.8859 46.3638 80.4437C45.5969 81.0014 44.7603 81.5452 43.8539 82.0751C42.9615 82.605 42.1318 83.1558 41.3649 83.7275C40.598 84.2992 39.9566 84.9058 39.4406 85.5472C38.9386 86.1886 38.6876 86.8928 38.6876 87.6597H45.067C45.7224 87.6597 46.2871 87.6179 46.7612 87.5342C47.2353 87.4366 47.6397 87.2693 47.9744 87.0322C48.309 86.7812 48.5879 86.4466 48.811 86.0283C49.0341 85.6099 49.2224 85.0731 49.3757 84.4177L49.7522 84.5014L48.8947 88.4336H38.2275ZM51.1211 80.5692C51.1211 79.4676 51.2257 78.4357 51.4348 77.4736C51.644 76.4975 51.9786 75.6539 52.4388 74.9428C52.8989 74.2177 53.4985 73.646 54.2376 73.2276C54.9905 72.8093 55.8969 72.6002 56.9567 72.6002C58.0303 72.6002 58.9367 72.8093 59.6757 73.2276C60.4148 73.646 61.0144 74.2177 61.4745 74.9428C61.9347 75.6539 62.2693 76.4975 62.4785 77.4736C62.6876 78.4357 62.7922 79.4676 62.7922 80.5692C62.7922 81.6707 62.6876 82.7096 62.4785 83.6857C62.2693 84.6478 61.9347 85.4914 61.4745 86.2165C61.0144 86.9416 60.4148 87.5133 59.6757 87.9316C58.9367 88.3499 58.0303 88.5591 56.9567 88.5591C55.8969 88.5591 54.9905 88.3499 54.2376 87.9316C53.4985 87.5133 52.8989 86.9416 52.4388 86.2165C51.9786 85.4914 51.644 84.6478 51.4348 83.6857C51.2257 82.7096 51.1211 81.6707 51.1211 80.5692ZM56.9567 88.2035C57.6399 88.2035 58.2744 88.078 58.86 87.827C59.4596 87.576 59.9755 87.1577 60.4078 86.5721C60.854 85.9725 61.2026 85.1846 61.4536 84.2086C61.7046 83.2325 61.8301 82.0193 61.8301 80.5692C61.8301 79.119 61.7046 77.9059 61.4536 76.9298C61.2026 75.9537 60.854 75.1728 60.4078 74.5872C59.9755 74.0015 59.4596 73.5832 58.86 73.3322C58.2744 73.0812 57.6399 72.9557 56.9567 72.9557C56.2734 72.9557 55.632 73.0812 55.0324 73.3322C54.4467 73.5832 53.9308 74.0015 53.4846 74.5872C53.0523 75.1728 52.7107 75.9537 52.4597 76.9298C52.2087 77.9059 52.0832 79.119 52.0832 80.5692C52.0832 82.0193 52.2087 83.2325 52.4597 84.2086C52.7107 85.1846 53.0523 85.9725 53.4846 86.5721C53.9308 87.1577 54.4467 87.576 55.0324 87.827C55.632 88.078 56.2734 88.2035 56.9567 88.2035ZM64.25 88.4336C64.25 87.2484 64.494 86.2304 64.982 85.3799C65.484 84.5153 66.1115 83.7554 66.8645 83.1C67.6175 82.4446 68.4262 81.859 69.2907 81.3431C70.1553 80.8132 70.964 80.2973 71.717 79.7953C72.47 79.2933 73.0905 78.7704 73.5785 78.2266C74.0805 77.6828 74.3315 77.0553 74.3315 76.3441C74.3315 75.7724 74.213 75.2774 73.9759 74.8591C73.7528 74.4268 73.453 74.0782 73.0765 73.8133C72.7 73.5344 72.2678 73.3322 71.7797 73.2067C71.3056 73.0673 70.8176 72.9976 70.3156 72.9976C69.6045 72.9976 68.9979 73.1091 68.4959 73.3322C67.9939 73.5414 67.5547 73.8412 67.1782 74.2316C66.8157 74.6081 66.5089 75.0613 66.2579 75.5912C66.0069 76.1071 65.7768 76.6718 65.5677 77.2853L64.5219 76.616C65.0936 75.3053 65.8396 74.3153 66.7599 73.646C67.6941 72.9627 68.8794 72.6211 70.3156 72.6211C70.9431 72.6211 71.5427 72.7047 72.1144 72.8721C72.6861 73.0394 73.1881 73.2904 73.6204 73.625C74.0666 73.9597 74.4152 74.385 74.6662 74.9009C74.9311 75.4169 75.0636 76.0234 75.0636 76.7206C75.0636 77.4318 74.8056 78.0941 74.2897 78.7076C73.7877 79.3072 73.1532 79.8859 72.3863 80.4437C71.6194 81.0014 70.7827 81.5452 69.8764 82.0751C68.984 82.605 68.1543 83.1558 67.3874 83.7275C66.6205 84.2992 65.979 84.9058 65.4631 85.5472C64.9611 86.1886 64.7101 86.8928 64.7101 87.6597H71.0895C71.7449 87.6597 72.3096 87.6179 72.7837 87.5342C73.2578 87.4366 73.6622 87.2693 73.9968 87.0322C74.3315 86.7812 74.6104 86.4466 74.8335 86.0283C75.0566 85.6099 75.2448 85.0731 75.3982 84.4177L75.7747 84.5014L74.9171 88.4336H64.25ZM76.9344 84.5641L78.0848 83.8948C78.2939 84.5084 78.524 85.0801 78.775 85.6099C79.026 86.1259 79.3258 86.579 79.6744 86.9695C80.0369 87.3599 80.4692 87.6667 80.9712 87.8898C81.4871 88.0989 82.1076 88.2035 82.8327 88.2035C83.502 88.2035 84.1156 88.1199 84.6733 87.9525C85.245 87.7852 85.7331 87.5342 86.1375 87.1995C86.5558 86.8509 86.8765 86.4187 87.0996 85.9028C87.3366 85.3729 87.4552 84.7593 87.4552 84.0621C87.4552 83.1 87.2948 82.3401 86.9741 81.7823C86.6673 81.2245 86.249 80.8062 85.7191 80.5273C85.1893 80.2345 84.5618 80.0532 83.8367 79.9835C83.1255 79.9138 82.3586 79.8789 81.5359 79.8789L81.3059 79.4815L86.8068 73.5414L82.268 73.5205C81.6266 73.5205 81.0758 73.5693 80.6156 73.6669C80.1555 73.7645 79.7581 73.9318 79.4234 74.1689C79.1027 74.4059 78.8308 74.7336 78.6077 75.1519C78.3846 75.5702 78.1963 76.1071 78.043 76.7624L77.6665 76.6788L78.524 72.7466H87.4133V73.5414L81.8497 79.4606C82.7281 79.4606 83.5578 79.4955 84.3387 79.5652C85.1335 79.6349 85.8307 79.8232 86.4303 80.1299C87.0299 80.4367 87.504 80.8969 87.8526 81.5104C88.2151 82.1239 88.3964 82.9675 88.3964 84.0412C88.3964 84.836 88.236 85.5193 87.9153 86.091C87.6086 86.6488 87.1902 87.1159 86.6604 87.4924C86.1444 87.8549 85.5518 88.1268 84.8825 88.3081C84.2271 88.4754 83.5439 88.5591 82.8327 88.5591C81.3825 88.5591 80.1834 88.2244 79.2352 87.5551C78.287 86.8719 77.5201 85.8749 76.9344 84.5641Z" fill="#00226D"/>
<path d="M38.2275 88.4336H37.8669V88.7942H38.2275V88.4336ZM38.9596 85.3799L38.6477 85.1988L38.6468 85.2004L38.9596 85.3799ZM40.842 83.1L40.6052 82.828H40.6052L40.842 83.1ZM43.2683 81.3431L43.4531 81.6528L43.4567 81.6505L43.2683 81.3431ZM45.6945 79.7953L45.8946 80.0953L45.6945 79.7953ZM47.556 78.2266L47.291 77.9819L47.2877 77.9857L47.556 78.2266ZM47.9534 74.8591L47.6327 75.0246L47.6397 75.0369L47.9534 74.8591ZM47.0541 73.8133L46.8393 74.1032L46.8465 74.1082L47.0541 73.8133ZM45.7573 73.2067L45.6554 73.5529L45.6675 73.556L45.7573 73.2067ZM42.4734 73.3322L42.6122 73.6652L42.6199 73.6618L42.4734 73.3322ZM41.1557 74.2316L40.8961 73.9813L40.896 73.9815L41.1557 74.2316ZM40.2354 75.5912L40.5597 75.7489L40.5613 75.7455L40.2354 75.5912ZM39.5452 77.2853L39.3508 77.5891L39.7381 77.837L39.8865 77.4017L39.5452 77.2853ZM38.4994 76.616L38.1689 76.4719L38.0458 76.7539L38.305 76.9198L38.4994 76.616ZM40.7374 73.646L40.9495 73.9376L40.9503 73.937L40.7374 73.646ZM46.0919 72.8721L45.9906 73.2182H45.9906L46.0919 72.8721ZM47.5979 73.625L47.3771 73.9102L47.3815 73.9135L47.5979 73.625ZM48.6437 74.9009L48.3193 75.0587L48.3229 75.0657L48.6437 74.9009ZM48.2672 78.7076L47.9912 78.4755L47.9907 78.4761L48.2672 78.7076ZM46.3638 80.4437L46.1517 80.152L46.3638 80.4437ZM43.8539 82.0751L43.6719 81.7638L43.6698 81.765L43.8539 82.0751ZM39.4406 85.5472L39.1596 85.3211L39.1566 85.3249L39.4406 85.5472ZM38.6876 87.6597H38.327V88.0203H38.6876V87.6597ZM46.7612 87.5342L46.8239 87.8895L46.834 87.8874L46.7612 87.5342ZM47.9744 87.0322L48.1829 87.3266L48.1907 87.3207L47.9744 87.0322ZM48.811 86.0283L48.4928 85.8585L48.811 86.0283ZM49.3757 84.4177L49.454 84.0657L49.1059 83.9883L49.0246 84.3355L49.3757 84.4177ZM49.7522 84.5014L50.1046 84.5782L50.1811 84.2273L49.8305 84.1493L49.7522 84.5014ZM48.8947 88.4336V88.7942H49.1851L49.247 88.5104L48.8947 88.4336ZM38.5881 88.4336C38.5881 87.2982 38.8216 86.3449 39.2723 85.5593L38.6468 85.2004C38.1214 86.1159 37.8669 87.1985 37.8669 88.4336H38.5881ZM39.2714 85.5609C39.7536 84.7306 40.3557 84.0014 41.0788 83.372L40.6052 82.828C39.8224 83.5094 39.1695 84.3001 38.6477 85.1988L39.2714 85.5609ZM41.0788 83.372C41.8154 82.7308 42.6068 82.1578 43.4531 81.6527L43.0835 81.0334C42.2007 81.5602 41.3745 82.1584 40.6052 82.828L41.0788 83.372ZM43.4567 81.6505C44.3247 81.1185 45.1373 80.6001 45.8946 80.0953L45.4945 79.4952C44.7457 79.9944 43.9409 80.5078 43.0798 81.0356L43.4567 81.6505ZM45.8946 80.0953C46.667 79.5804 47.3121 79.0384 47.8244 78.4674L47.2877 77.9857C46.8239 78.5024 46.228 79.0062 45.4945 79.4952L45.8946 80.0953ZM47.821 78.4712C48.3817 77.8637 48.6696 77.1499 48.6696 76.3441H47.9484C47.9484 76.9606 47.7343 77.5018 47.2911 77.982L47.821 78.4712ZM48.6696 76.3441C48.6696 75.7219 48.5403 75.1633 48.2672 74.6813L47.6397 75.0369C47.8407 75.3916 47.9484 75.8229 47.9484 76.3441H48.6696ZM48.2739 74.6937C48.0257 74.2128 47.6883 73.8187 47.2616 73.5184L46.8465 74.1082C47.1728 74.3378 47.435 74.6409 47.633 75.0245L48.2739 74.6937ZM47.2687 73.5235C46.8521 73.2149 46.3767 72.9937 45.8471 72.8575L45.6675 73.556C46.1139 73.6708 46.5031 73.8539 46.8394 74.1031L47.2687 73.5235ZM45.859 72.8608C45.3514 72.7114 44.829 72.6369 44.2931 72.6369V73.3582C44.7612 73.3582 45.215 73.4231 45.6555 73.5527L45.859 72.8608ZM44.2931 72.6369C43.5458 72.6369 42.8865 72.754 42.327 73.0027L42.6199 73.6618C43.0643 73.4642 43.6182 73.3582 44.2931 73.3582V72.6369ZM42.3347 72.9993C41.7874 73.2274 41.307 73.5553 40.8961 73.9813L41.4153 74.4819C41.7575 74.1271 42.1556 73.8553 42.6121 73.6651L42.3347 72.9993ZM40.896 73.9815C40.5033 74.3893 40.1752 74.8759 39.9095 75.4368L40.5613 75.7455C40.7976 75.2467 41.0831 74.8269 41.4155 74.4818L40.896 73.9815ZM39.9111 75.4334C39.6528 75.9643 39.4172 76.5431 39.2039 77.169L39.8865 77.4017C40.0915 76.8005 40.316 76.2498 40.5597 75.7489L39.9111 75.4334ZM39.7396 76.9816L38.6938 76.3123L38.305 76.9198L39.3508 77.5891L39.7396 76.9816ZM38.8299 76.7602C39.3825 75.4934 40.0929 74.5606 40.9495 73.9376L40.5253 73.3543C39.5414 74.0699 38.7597 75.1172 38.1689 76.4719L38.8299 76.7602ZM40.9503 73.937C41.8092 73.3089 42.9147 72.9817 44.2931 72.9817V72.2605C42.7991 72.2605 41.5341 72.6165 40.5245 73.3549L40.9503 73.937ZM44.2931 72.9817C44.8882 72.9817 45.4535 73.061 45.9906 73.2182L46.1932 72.526C45.5869 72.3485 44.9531 72.2605 44.2931 72.2605V72.9817ZM45.9906 73.2182C46.5229 73.374 46.9836 73.6055 47.3771 73.9102L47.8186 73.3399C47.3476 72.9752 46.8043 72.7048 46.1932 72.526L45.9906 73.2182ZM47.3815 73.9135C47.7805 74.2128 48.0927 74.5928 48.3194 75.0587L48.968 74.7432C48.6926 74.1772 48.3076 73.7066 47.8142 73.3365L47.3815 73.9135ZM48.3229 75.0657C48.5569 75.5213 48.6805 76.0692 48.6805 76.7206H49.4017C49.4017 75.9776 49.2604 75.3124 48.9645 74.7362L48.3229 75.0657ZM48.6805 76.7206C48.6805 77.336 48.4599 77.9182 47.9912 78.4755L48.5432 78.9397C49.1064 78.27 49.4017 77.5275 49.4017 76.7206H48.6805ZM47.9907 78.4761C47.5111 79.0489 46.8997 79.6081 46.1517 80.152L46.5759 80.7353C47.3618 80.1637 48.0193 79.5655 48.5437 78.9391L47.9907 78.4761ZM46.1517 80.152C45.3955 80.702 44.569 81.2393 43.6719 81.7638L44.0359 82.3864C44.9515 81.8511 45.7984 81.3008 46.5759 80.7353L46.1517 80.152ZM43.6698 81.765C42.7674 82.3008 41.9272 82.8585 41.1494 83.4384L41.5804 84.0166C42.3364 83.453 43.1555 82.9092 44.038 82.3852L43.6698 81.765ZM41.1494 83.4384C40.3619 84.0254 39.6974 84.6526 39.1596 85.3212L39.7216 85.7732C40.2157 85.159 40.8341 84.573 41.5804 84.0166L41.1494 83.4384ZM39.1566 85.3249C38.6083 86.0256 38.327 86.807 38.327 87.6597H39.0483C39.0483 86.9785 39.269 86.3516 39.7246 85.7694L39.1566 85.3249ZM38.6876 88.0203H45.067V87.2991H38.6876V88.0203ZM45.067 88.0203C45.7365 88.0203 46.3232 87.9777 46.8239 87.8893L46.6986 87.1791C46.251 87.258 45.7084 87.2991 45.067 87.2991V88.0203ZM46.834 87.8874C47.3482 87.7815 47.8008 87.5971 48.1828 87.3265L47.7659 86.7379C47.4786 86.9415 47.1225 87.0916 46.6885 87.181L46.834 87.8874ZM48.1907 87.3207C48.5729 87.0341 48.8846 86.6566 49.1292 86.198L48.4928 85.8585C48.2912 86.2365 48.0451 86.5284 47.758 86.7437L48.1907 87.3207ZM49.1292 86.198C49.3718 85.7432 49.5691 85.1741 49.7269 84.4999L49.0246 84.3355C48.8756 84.9721 48.6965 85.4767 48.4928 85.8585L49.1292 86.198ZM49.2975 84.7697L49.674 84.8534L49.8305 84.1493L49.454 84.0657L49.2975 84.7697ZM49.3999 84.4245L48.5423 88.3568L49.247 88.5104L50.1046 84.5782L49.3999 84.4245ZM48.8947 88.073H38.2275V88.7942H48.8947V88.073ZM51.4348 77.4736L51.7872 77.5502L51.7874 77.5492L51.4348 77.4736ZM52.4388 74.9428L52.7416 75.1387L52.7433 75.136L52.4388 74.9428ZM54.2376 73.2276L54.0624 72.9124L54.0599 72.9138L54.2376 73.2276ZM59.6757 73.2276L59.8534 72.9138L59.6757 73.2276ZM61.4745 74.9428L61.17 75.136L61.1717 75.1387L61.4745 74.9428ZM62.4785 77.4736L62.1259 77.5492L62.1261 77.5502L62.4785 77.4736ZM62.4785 83.6857L62.8309 83.7623L62.8311 83.7612L62.4785 83.6857ZM61.4745 86.2165L61.17 86.0233L61.4745 86.2165ZM59.6757 87.9316L59.8534 88.2454L59.6757 87.9316ZM54.2376 87.9316L54.0599 88.2455L54.0624 88.2468L54.2376 87.9316ZM52.4388 86.2165L52.7433 86.0233L52.4388 86.2165ZM51.4348 83.6857L51.0822 83.7612L51.0824 83.7623L51.4348 83.6857ZM58.86 87.827L58.7208 87.4944L58.718 87.4956L58.86 87.827ZM60.4078 86.5721L60.1185 86.3568L60.1177 86.3579L60.4078 86.5721ZM60.4078 74.5872L60.1176 74.8014L60.1209 74.8057L60.4078 74.5872ZM58.86 73.3322L58.718 73.6637L58.7208 73.6649L58.86 73.3322ZM55.0324 73.3322L54.8931 72.9996L54.8903 73.0008L55.0324 73.3322ZM53.4846 74.5872L53.1977 74.3686L53.1944 74.373L53.4846 74.5872ZM52.4597 76.9298L52.1104 76.84L52.4597 76.9298ZM52.4597 84.2086L52.1104 84.2984L52.4597 84.2086ZM53.4846 86.5721L53.192 86.783L53.1977 86.7906L53.4846 86.5721ZM55.0324 87.827L54.8903 88.1585L54.8931 88.1597L55.0324 87.827ZM51.4817 80.5692C51.4817 79.4904 51.5841 78.4844 51.7872 77.5502L51.0824 77.397C50.8672 78.3871 50.7605 79.4448 50.7605 80.5692H51.4817ZM51.7874 77.5492C51.989 76.6084 52.309 75.8071 52.7416 75.1387L52.136 74.7468C51.6483 75.5007 51.2989 76.3866 51.0822 77.398L51.7874 77.5492ZM52.7433 75.136C53.1721 74.4603 53.7283 73.9303 54.4152 73.5415L54.0599 72.9138C53.2687 73.3616 52.6258 73.975 52.1343 74.7495L52.7433 75.136ZM54.4127 73.5429C55.1011 73.1604 55.9442 72.9608 56.9567 72.9608V72.2395C55.8496 72.2395 54.88 72.4582 54.0624 72.9124L54.4127 73.5429ZM56.9567 72.9608C57.9843 72.9608 58.8258 73.1609 59.4981 73.5415L59.8534 72.9138C59.0476 72.4577 58.0764 72.2395 56.9567 72.2395V72.9608ZM59.4981 73.5415C60.185 73.9303 60.7412 74.4603 61.17 75.136L61.779 74.7495C61.2875 73.975 60.6446 73.3616 59.8534 72.9138L59.4981 73.5415ZM61.1717 75.1387C61.6043 75.8071 61.9243 76.6084 62.1259 77.5492L62.8311 77.398C62.6144 76.3866 62.2651 75.5007 61.7773 74.7468L61.1717 75.1387ZM62.1261 77.5502C62.3292 78.4844 62.4316 79.4904 62.4316 80.5692H63.1528C63.1528 79.4448 63.0461 78.3871 62.8309 77.397L62.1261 77.5502ZM62.4316 80.5692C62.4316 81.6479 62.3292 82.6613 62.1259 83.6101L62.8311 83.7612C63.0461 82.7579 63.1528 81.6936 63.1528 80.5692H62.4316ZM62.1261 83.609C61.9246 84.5358 61.6044 85.3388 61.17 86.0233L61.779 86.4097C62.2649 85.644 62.614 84.7598 62.8309 83.7623L62.1261 83.609ZM61.17 86.0233C60.7412 86.6989 60.185 87.229 59.4981 87.6178L59.8534 88.2454C60.6446 87.7976 61.2875 87.1842 61.779 86.4097L61.17 86.0233ZM59.4981 87.6178C58.8258 87.9983 57.9843 88.1985 56.9567 88.1985V88.9197C58.0764 88.9197 59.0476 88.7015 59.8534 88.2454L59.4981 87.6178ZM56.9567 88.1985C55.9442 88.1985 55.1011 87.9988 54.4127 87.6164L54.0624 88.2468C54.88 88.7011 55.8496 88.9197 56.9567 88.9197V88.1985ZM54.4152 87.6178C53.7283 87.229 53.1721 86.6989 52.7433 86.0233L52.1343 86.4097C52.6258 87.1842 53.2687 87.7976 54.0599 88.2454L54.4152 87.6178ZM52.7433 86.0233C52.3089 85.3388 51.9887 84.5358 51.7872 83.609L51.0824 83.7623C51.2993 84.7598 51.6484 85.644 52.1343 86.4097L52.7433 86.0233ZM51.7874 83.6101C51.5841 82.6613 51.4817 81.6479 51.4817 80.5692H50.7605C50.7605 81.6936 50.8672 82.7579 51.0822 83.7612L51.7874 83.6101ZM56.9567 88.5641C57.6852 88.5641 58.3684 88.4301 59.0021 88.1585L58.718 87.4956C58.1804 87.726 57.5947 87.8429 56.9567 87.8429V88.5641ZM58.9993 88.1597C59.6659 87.8806 60.2318 87.4178 60.6979 86.7862L60.1177 86.3579C59.7193 86.8976 59.2533 87.2715 58.7208 87.4944L58.9993 88.1597ZM60.6971 86.7874C61.1791 86.1396 61.544 85.3049 61.8029 84.2984L61.1043 84.1187C60.8612 85.0644 60.5289 85.8053 60.1185 86.3568L60.6971 86.7874ZM61.8029 84.2984C62.0639 83.2832 62.1907 82.0376 62.1907 80.5692H61.4695C61.4695 82.0011 61.3453 83.1817 61.1043 84.1187L61.8029 84.2984ZM62.1907 80.5692C62.1907 79.1007 62.0639 77.8551 61.8029 76.84L61.1043 77.0196C61.3453 77.9566 61.4695 79.1373 61.4695 80.5692H62.1907ZM61.8029 76.84C61.544 75.8334 61.1787 75.0039 60.6946 74.3686L60.1209 74.8057C60.5293 75.3417 60.8612 76.074 61.1043 77.0196L61.8029 76.84ZM60.6979 74.373C60.2318 73.7414 59.6659 73.2786 58.9993 72.9996L58.7208 73.6649C59.2533 73.8878 59.7193 74.2617 60.1177 74.8013L60.6979 74.373ZM59.0021 73.0008C58.3684 72.7292 57.6852 72.5951 56.9567 72.5951V73.3164C57.5947 73.3164 58.1804 73.4333 58.718 73.6637L59.0021 73.0008ZM56.9567 72.5951C56.2281 72.5951 55.5391 72.7292 54.8931 72.9996L55.1716 73.6649C55.7249 73.4333 56.3187 73.3164 56.9567 73.3164V72.5951ZM54.8903 73.0008C54.2391 73.2798 53.6757 73.7413 53.1977 74.3686L53.7714 74.8057C54.1859 74.2618 54.6543 73.8866 55.1744 73.6637L54.8903 73.0008ZM53.1944 74.373C52.7263 75.0073 52.3688 75.8351 52.1104 76.84L52.809 77.0196C53.0526 76.0723 53.3784 75.3384 53.7747 74.8013L53.1944 74.373ZM52.1104 76.84C51.8494 77.8551 51.7226 79.1007 51.7226 80.5692H52.4438C52.4438 79.1373 52.568 77.9566 52.809 77.0196L52.1104 76.84ZM51.7226 80.5692C51.7226 82.0376 51.8494 83.2832 52.1104 84.2984L52.809 84.1187C52.568 83.1817 52.4438 82.0011 52.4438 80.5692H51.7226ZM52.1104 84.2984C52.3688 85.3032 52.7258 86.1363 53.1921 86.783L53.7771 86.3612C53.3788 85.8087 53.0526 85.0661 52.809 84.1187L52.1104 84.2984ZM53.1977 86.7906C53.6757 87.418 54.2391 87.8794 54.8903 88.1585L55.1744 87.4956C54.6543 87.2727 54.1859 86.8974 53.7714 86.3535L53.1977 86.7906ZM54.8931 88.1597C55.5391 88.4301 56.2281 88.5641 56.9567 88.5641V87.8429C56.3187 87.8429 55.7249 87.726 55.1716 87.4944L54.8931 88.1597ZM64.25 88.4336H63.8894V88.7942H64.25V88.4336ZM64.982 85.3799L64.6702 85.1988L64.6692 85.2004L64.982 85.3799ZM66.8645 83.1L66.6277 82.828L66.8645 83.1ZM69.2907 81.3431L69.4756 81.6528L69.4792 81.6505L69.2907 81.3431ZM71.717 79.7953L71.917 80.0953H71.917L71.717 79.7953ZM73.5785 78.2266L73.3135 77.9819L73.3101 77.9857L73.5785 78.2266ZM73.9759 74.8591L73.6552 75.0246L73.6622 75.0369L73.9759 74.8591ZM73.0765 73.8133L72.8618 74.1032L72.869 74.1082L73.0765 73.8133ZM71.7797 73.2067L71.6779 73.5529L71.6899 73.556L71.7797 73.2067ZM68.4959 73.3322L68.6347 73.6652L68.6424 73.6618L68.4959 73.3322ZM67.1782 74.2316L66.9186 73.9813L66.9185 73.9815L67.1782 74.2316ZM66.2579 75.5912L66.5822 75.7489L66.5838 75.7455L66.2579 75.5912ZM65.5677 77.2853L65.3733 77.5891L65.7606 77.837L65.909 77.4017L65.5677 77.2853ZM64.5219 76.616L64.1913 76.4719L64.0683 76.7539L64.3275 76.9198L64.5219 76.616ZM66.7599 73.646L66.972 73.9376L66.9728 73.937L66.7599 73.646ZM72.1144 72.8721L72.0131 73.2182L72.1144 72.8721ZM73.6204 73.625L73.3996 73.9102L73.404 73.9135L73.6204 73.625ZM74.6662 74.9009L74.3418 75.0587L74.3454 75.0657L74.6662 74.9009ZM74.2897 78.7076L74.0137 78.4755L74.0132 78.4761L74.2897 78.7076ZM72.3863 80.4437L72.1742 80.152L72.3863 80.4437ZM69.8764 82.0751L69.6944 81.7638L69.6923 81.765L69.8764 82.0751ZM65.4631 85.5472L65.1821 85.3211L65.1791 85.3249L65.4631 85.5472ZM64.7101 87.6597H64.3495V88.0203H64.7101V87.6597ZM72.7837 87.5342L72.8464 87.8895L72.8564 87.8874L72.7837 87.5342ZM73.9968 87.0322L74.2054 87.3266L74.2132 87.3207L73.9968 87.0322ZM74.8335 86.0283L74.5153 85.8585L74.8335 86.0283ZM75.3982 84.4177L75.4764 84.0657L75.1283 83.9883L75.0471 84.3355L75.3982 84.4177ZM75.7747 84.5014L76.127 84.5782L76.2036 84.2273L75.8529 84.1493L75.7747 84.5014ZM74.9171 88.4336V88.7942H75.2076L75.2695 88.5104L74.9171 88.4336ZM64.6106 88.4336C64.6106 87.2982 64.8441 86.3449 65.2948 85.5593L64.6692 85.2004C64.1439 86.1159 63.8894 87.1985 63.8894 88.4336H64.6106ZM65.2939 85.5609C65.776 84.7306 66.3782 84.0014 67.1012 83.372L66.6277 82.828C65.8448 83.5094 65.192 84.3001 64.6702 85.1988L65.2939 85.5609ZM67.1012 83.372C67.8379 82.7308 68.6293 82.1578 69.4755 81.6527L69.1059 81.0334C68.2232 81.5602 67.397 82.1584 66.6277 82.828L67.1012 83.372ZM69.4792 81.6505C70.3472 81.1185 71.1598 80.6001 71.917 80.0953L71.517 79.4952C70.7682 79.9944 69.9634 80.5078 69.1023 81.0356L69.4792 81.6505ZM71.917 80.0953C72.6895 79.5804 73.3345 79.0384 73.8469 78.4674L73.3101 77.9857C72.8464 78.5024 72.2505 79.0062 71.517 79.4952L71.917 80.0953ZM73.8435 78.4712C74.4042 77.8637 74.6921 77.1499 74.6921 76.3441H73.9709C73.9709 76.9606 73.7568 77.5018 73.3135 77.982L73.8435 78.4712ZM74.6921 76.3441C74.6921 75.7219 74.5628 75.1633 74.2897 74.6813L73.6622 75.0369C73.8632 75.3916 73.9709 75.8229 73.9709 76.3441H74.6921ZM74.2964 74.6937C74.0482 74.2128 73.7108 73.8187 73.2841 73.5184L72.869 74.1082C73.1953 74.3378 73.4575 74.6409 73.6555 75.0245L74.2964 74.6937ZM73.2912 73.5235C72.8746 73.2149 72.3992 72.9937 71.8696 72.8575L71.6899 73.556C72.1363 73.6708 72.5255 73.8539 72.8619 74.1031L73.2912 73.5235ZM71.8815 72.8608C71.3738 72.7114 70.8515 72.6369 70.3156 72.6369V73.3582C70.7837 73.3582 71.2375 73.4231 71.678 73.5527L71.8815 72.8608ZM70.3156 72.6369C69.5683 72.6369 68.909 72.754 68.3495 73.0027L68.6424 73.6618C69.0868 73.4642 69.6407 73.3582 70.3156 73.3582V72.6369ZM68.3572 72.9993C67.8098 73.2274 67.3294 73.5553 66.9186 73.9813L67.4378 74.4819C67.78 74.1271 68.178 73.8553 68.6346 73.6651L68.3572 72.9993ZM66.9185 73.9815C66.5257 74.3893 66.1977 74.8759 65.932 75.4368L66.5838 75.7455C66.8201 75.2467 67.1056 74.8269 67.438 74.4818L66.9185 73.9815ZM65.9336 75.4334C65.6753 75.9643 65.4397 76.5431 65.2264 77.169L65.909 77.4017C66.114 76.8005 66.3385 76.2498 66.5822 75.7489L65.9336 75.4334ZM65.7621 76.9816L64.7163 76.3123L64.3275 76.9198L65.3733 77.5891L65.7621 76.9816ZM64.8524 76.7602C65.405 75.4934 66.1153 74.5606 66.972 73.9376L66.5478 73.3543C65.5638 74.0699 64.7822 75.1172 64.1913 76.4719L64.8524 76.7602ZM66.9728 73.937C67.8317 73.3089 68.9372 72.9817 70.3156 72.9817V72.2605C68.8215 72.2605 67.5566 72.6165 66.547 73.3549L66.9728 73.937ZM70.3156 72.9817C70.9107 72.9817 71.476 73.061 72.0131 73.2182L72.2157 72.526C71.6094 72.3485 70.9756 72.2605 70.3156 72.2605V72.9817ZM72.0131 73.2182C72.5454 73.374 73.0061 73.6055 73.3996 73.9102L73.8411 73.3399C73.3701 72.9752 72.8268 72.7048 72.2157 72.526L72.0131 73.2182ZM73.404 73.9135C73.803 74.2128 74.1152 74.5928 74.3419 75.0587L74.9904 74.7432C74.7151 74.1772 74.3301 73.7066 73.8367 73.3365L73.404 73.9135ZM74.3454 75.0657C74.5793 75.5213 74.7029 76.0692 74.7029 76.7206H75.4242C75.4242 75.9776 75.2828 75.3124 74.9869 74.7362L74.3454 75.0657ZM74.7029 76.7206C74.7029 77.336 74.4823 77.9182 74.0137 78.4755L74.5657 78.9397C75.1289 78.27 75.4242 77.5275 75.4242 76.7206H74.7029ZM74.0132 78.4761C73.5336 79.0489 72.9221 79.6081 72.1742 80.152L72.5984 80.7353C73.3843 80.1637 74.0418 79.5655 74.5662 78.9391L74.0132 78.4761ZM72.1742 80.152C71.4179 80.702 70.5915 81.2393 69.6944 81.7638L70.0584 82.3864C70.974 81.8511 71.8208 81.3008 72.5984 80.7353L72.1742 80.152ZM69.6923 81.765C68.7899 82.3008 67.9497 82.8585 67.1718 83.4384L67.6029 84.0166C68.3589 83.453 69.178 82.9092 70.0605 82.3852L69.6923 81.765ZM67.1718 83.4384C66.3844 84.0254 65.7199 84.6526 65.1821 85.3212L65.7441 85.7732C66.2382 85.159 66.8565 84.573 67.6029 84.0166L67.1718 83.4384ZM65.1791 85.3249C64.6308 86.0256 64.3495 86.807 64.3495 87.6597H65.0707C65.0707 86.9785 65.2915 86.3516 65.7471 85.7694L65.1791 85.3249ZM64.7101 88.0203H71.0895V87.2991H64.7101V88.0203ZM71.0895 88.0203C71.7589 88.0203 72.3457 87.9777 72.8464 87.8893L72.721 87.1791C72.2735 87.258 71.7308 87.2991 71.0895 87.2991V88.0203ZM72.8564 87.8874C73.3707 87.7815 73.8233 87.5971 74.2053 87.3265L73.7884 86.7379C73.5011 86.9415 73.1449 87.0916 72.711 87.181L72.8564 87.8874ZM74.2132 87.3207C74.5954 87.0341 74.9071 86.6566 75.1517 86.198L74.5153 85.8585C74.3137 86.2365 74.0676 86.5284 73.7805 86.7437L74.2132 87.3207ZM75.1517 86.198C75.3942 85.7432 75.5916 85.1741 75.7493 84.4999L75.0471 84.3355C74.8981 84.9721 74.7189 85.4767 74.5153 85.8585L75.1517 86.198ZM75.32 84.7697L75.6965 84.8534L75.8529 84.1493L75.4764 84.0657L75.32 84.7697ZM75.4224 84.4245L74.5648 88.3568L75.2695 88.5104L76.127 84.5782L75.4224 84.4245ZM74.9171 88.073H64.25V88.7942H74.9171V88.073ZM76.9344 84.5641L76.753 84.2524L76.473 84.4154L76.6052 84.7112L76.9344 84.5641ZM78.0848 83.8948L78.4261 83.7785L78.284 83.3617L77.9034 83.5831L78.0848 83.8948ZM78.775 85.6099L78.4491 85.7643L78.4507 85.7677L78.775 85.6099ZM79.6744 86.9695L79.4054 87.2097L79.4101 87.2149L79.6744 86.9695ZM80.9712 87.8898L80.8247 88.2195L80.8357 88.224L80.9712 87.8898ZM84.6733 87.9525L84.572 87.6064L84.5697 87.6071L84.6733 87.9525ZM86.1375 87.1995L86.3674 87.4774L86.3683 87.4766L86.1375 87.1995ZM87.0996 85.9028L86.7704 85.7555L86.7686 85.7596L87.0996 85.9028ZM86.9741 81.7823L86.6581 81.9561L86.6615 81.9621L86.9741 81.7823ZM85.7191 80.5273L85.5447 80.843L85.5512 80.8465L85.7191 80.5273ZM83.8367 79.9835L83.8015 80.3424L83.8022 80.3425L83.8367 79.9835ZM81.5359 79.8789L81.2238 80.0596L81.328 80.2396H81.5359V79.8789ZM81.3059 79.4815L81.0413 79.2365L80.8604 79.4318L80.9938 79.6622L81.3059 79.4815ZM86.8068 73.5414L87.0714 73.7864L87.6287 73.1845L86.8084 73.1808L86.8068 73.5414ZM82.268 73.5205L82.2697 73.1598H82.268V73.5205ZM80.6156 73.6669L80.6905 74.0196L80.6156 73.6669ZM79.4234 74.1689L79.2149 73.8745L79.2091 73.8789L79.4234 74.1689ZM78.6077 75.1519L78.2895 74.9822L78.6077 75.1519ZM78.043 76.7624L77.9647 77.1145L78.3128 77.1918L78.3941 76.8446L78.043 76.7624ZM77.6665 76.6788L77.3141 76.6019L77.2376 76.9529L77.5882 77.0308L77.6665 76.6788ZM78.524 72.7466V72.3859H78.2336L78.1717 72.6697L78.524 72.7466ZM87.4133 72.7466H87.774V72.3859H87.4133V72.7466ZM87.4133 73.5414L87.6761 73.7884L87.774 73.6843V73.5414H87.4133ZM81.8497 79.4606L81.5869 79.2136L81.0158 79.8212H81.8497V79.4606ZM84.3387 79.5652L84.3066 79.9244L84.3072 79.9244L84.3387 79.5652ZM86.4303 80.1299L86.266 80.451L86.4303 80.1299ZM87.8526 81.5104L87.539 81.6886L87.5421 81.6938L87.8526 81.5104ZM87.9153 86.091L87.6008 85.9146L87.5993 85.9172L87.9153 86.091ZM86.6604 87.4924L86.8677 87.7874L86.8692 87.7863L86.6604 87.4924ZM84.8825 88.3081L84.9717 88.6575L84.9768 88.6562L84.8825 88.3081ZM79.2352 87.5551L79.0243 87.8477L79.0272 87.8497L79.2352 87.5551ZM77.1158 84.8758L78.2661 84.2065L77.9034 83.5831L76.753 84.2524L77.1158 84.8758ZM77.7435 84.0112C77.9566 84.6363 78.1917 85.2209 78.4491 85.7643L79.1009 85.4556C78.8564 84.9393 78.6313 84.3804 78.4261 83.7785L77.7435 84.0112ZM78.4507 85.7677C78.7149 86.3107 79.0326 86.7922 79.4054 87.2097L79.9434 86.7293C79.619 86.3659 79.3371 85.9411 79.0993 85.4522L78.4507 85.7677ZM79.4101 87.2149C79.8069 87.6421 80.2796 87.977 80.8247 88.2193L81.1177 87.5602C80.6588 87.3563 80.267 87.0777 79.9387 86.7241L79.4101 87.2149ZM80.8357 88.224C81.4055 88.455 82.0746 88.5641 82.8327 88.5641V87.8429C82.1407 87.8429 81.5687 87.7429 81.1067 87.5556L80.8357 88.224ZM82.8327 88.5641C83.532 88.5641 84.181 88.4767 84.777 88.2979L84.5697 87.6071C84.0502 87.763 83.4721 87.8429 82.8327 87.8429V88.5641ZM84.7746 88.2986C85.3871 88.1194 85.9204 87.8472 86.3674 87.4774L85.9075 86.9217C85.5457 87.2212 85.103 87.451 84.572 87.6064L84.7746 88.2986ZM86.3683 87.4766C86.8315 87.0906 87.1858 86.6119 87.4306 86.0459L86.7686 85.7596C86.5672 86.2254 86.2801 86.6113 85.9066 86.9225L86.3683 87.4766ZM87.4288 86.05C87.6903 85.4655 87.8158 84.8001 87.8158 84.0621H87.0945C87.0945 84.7186 86.983 85.2803 86.7704 85.7555L87.4288 86.05ZM87.8158 84.0621C87.8158 83.0659 87.6507 82.2356 87.2867 81.6025L86.6615 81.9621C86.9389 82.4446 87.0945 83.1341 87.0945 84.0621H87.8158ZM87.2901 81.6085C86.9515 80.993 86.4835 80.5221 85.8871 80.2082L85.5512 80.8465C86.0145 81.0903 86.3831 81.4561 86.6581 81.9561L87.2901 81.6085ZM85.8936 80.2117C85.3127 79.8907 84.6356 79.6981 83.8712 79.6246L83.8022 80.3425C84.4879 80.4084 85.0659 80.5783 85.5447 80.843L85.8936 80.2117ZM83.8719 79.6246C83.1474 79.5536 82.3687 79.5183 81.5359 79.5183V80.2396C82.3486 80.2396 83.1036 80.274 83.8015 80.3424L83.8719 79.6246ZM81.848 79.6983L81.6179 79.3008L80.9938 79.6622L81.2238 80.0596L81.848 79.6983ZM81.5704 79.7266L87.0714 73.7864L86.5422 73.2964L81.0413 79.2365L81.5704 79.7266ZM86.8084 73.1808L82.2697 73.1598L82.2663 73.8811L86.8051 73.902L86.8084 73.1808ZM82.268 73.1598C81.6098 73.1598 81.0326 73.2098 80.5408 73.3141L80.6905 74.0196C81.119 73.9288 81.6433 73.8811 82.268 73.8811V73.1598ZM80.5408 73.3141C80.0396 73.4204 79.5952 73.6053 79.215 73.8746L79.6319 74.4631C79.921 74.2584 80.2713 74.1086 80.6905 74.0196L80.5408 73.3141ZM79.2091 73.8789C78.8378 74.1532 78.5331 74.5254 78.2895 74.9822L78.9259 75.3216C79.1285 74.9418 79.3676 74.6586 79.6378 74.4589L79.2091 73.8789ZM78.2895 74.9822C78.0469 75.437 77.8496 76.0061 77.6918 76.6803L78.3941 76.8446C78.5431 76.2081 78.7222 75.7035 78.9259 75.3216L78.2895 74.9822ZM78.1212 76.4104L77.7447 76.3268L77.5882 77.0308L77.9647 77.1145L78.1212 76.4104ZM78.0188 76.7556L78.8764 72.8234L78.1717 72.6697L77.3141 76.6019L78.0188 76.7556ZM78.524 73.1072H87.4133V72.3859H78.524V73.1072ZM87.0527 72.7466V73.5414H87.774V72.7466H87.0527ZM87.1506 73.2944L81.5869 79.2136L82.1124 79.7076L87.6761 73.7884L87.1506 73.2944ZM81.8497 79.8212C82.7187 79.8212 83.5376 79.8557 84.3066 79.9244L84.3708 79.206C83.578 79.1352 82.7376 79.1 81.8497 79.1V79.8212ZM84.3072 79.9244C85.0641 79.9908 85.7147 80.1689 86.266 80.451L86.5945 79.8089C85.9467 79.4774 85.2029 79.279 84.3702 79.206L84.3072 79.9244ZM86.266 80.451C86.7999 80.7241 87.2234 81.1331 87.539 81.6885L88.1661 81.3322C87.7845 80.6606 87.2598 80.1493 86.5945 79.8089L86.266 80.451ZM87.5421 81.6938C87.8592 82.2305 88.0358 83.0018 88.0358 84.0412H88.757C88.757 82.9333 88.571 82.0173 88.163 81.3269L87.5421 81.6938ZM88.0358 84.0412C88.0358 84.7873 87.8855 85.4071 87.6008 85.9146L88.2298 86.2674C88.5866 85.6315 88.757 84.8848 88.757 84.0412H88.0358ZM87.5993 85.9172C87.3193 86.4263 86.938 86.8527 86.4515 87.1984L86.8692 87.7863C87.4424 87.3791 87.8978 86.8712 88.2313 86.2648L87.5993 85.9172ZM86.453 87.1973C85.9747 87.5335 85.4211 87.7886 84.7882 87.96L84.9768 88.6562C85.6825 88.465 86.3142 88.1764 86.8677 87.7874L86.453 87.1973ZM84.7933 87.9587C84.1685 88.1182 83.5153 88.1985 82.8327 88.1985V88.9197C83.5724 88.9197 84.2857 88.8327 84.9717 88.6575L84.7933 87.9587ZM82.8327 88.1985C81.4383 88.1985 80.3168 87.8772 79.4431 87.2605L79.0272 87.8497C80.0499 88.5717 81.3268 88.9197 82.8327 88.9197V88.1985ZM79.446 87.2625C78.56 86.6241 77.8292 85.6829 77.2637 84.417L76.6052 84.7112C77.2109 86.0669 78.014 87.1196 79.0243 87.8477L79.446 87.2625Z" fill="#00226D"/>
<path d="M139.184 6.65324H140.752L143.496 14.3812L143.258 14.2832L145.26 9.10324L145.89 10.9372L143.216 17.1812L139.184 6.65324ZM144.042 6.65324H145.4L148.368 14.2692L148.088 14.2132L150.706 6.65324H152.148L148.172 17.1672L144.042 6.65324ZM153.853 16.7192V5.88324H155.127V12.2672L155.099 12.0292C155.295 11.6466 155.594 11.3292 155.995 11.0772C156.406 10.8252 156.886 10.6992 157.437 10.6992C157.988 10.6992 158.436 10.8626 158.781 11.1892C159.136 11.5066 159.318 11.9219 159.327 12.4352V16.7192H158.011V12.8972C158.002 12.5799 157.908 12.3232 157.731 12.1272C157.563 11.9219 157.297 11.8192 156.933 11.8192C156.597 11.8192 156.294 11.9172 156.023 12.1132C155.752 12.2999 155.538 12.5566 155.379 12.8832C155.23 13.2099 155.155 13.5832 155.155 14.0032V16.7192H153.853ZM164.279 16.8592C163.617 16.8592 163.047 16.7286 162.571 16.4672C162.095 16.1966 161.727 15.8326 161.465 15.3752C161.213 14.9086 161.087 14.3766 161.087 13.7792C161.087 13.2099 161.232 12.6919 161.521 12.2252C161.811 11.7586 162.198 11.3852 162.683 11.1052C163.169 10.8252 163.71 10.6852 164.307 10.6852C165.073 10.6852 165.707 10.9092 166.211 11.3572C166.715 11.8052 167.056 12.4212 167.233 13.2052L162.459 14.8852L162.151 14.1152L166.071 12.6872L165.791 12.8692C165.679 12.5612 165.493 12.2952 165.231 12.0712C164.97 11.8379 164.629 11.7212 164.209 11.7212C163.855 11.7212 163.537 11.8099 163.257 11.9872C162.977 12.1552 162.758 12.3886 162.599 12.6872C162.441 12.9859 162.361 13.3266 162.361 13.7092C162.361 14.1106 162.445 14.4652 162.613 14.7732C162.781 15.0719 163.01 15.3099 163.299 15.4872C163.598 15.6552 163.934 15.7392 164.307 15.7392C164.559 15.7392 164.802 15.6926 165.035 15.5992C165.278 15.5059 165.502 15.3846 165.707 15.2352L166.309 16.2012C166.02 16.3972 165.693 16.5559 165.329 16.6772C164.975 16.7986 164.625 16.8592 164.279 16.8592ZM171.553 16.8592C170.89 16.8592 170.321 16.7286 169.845 16.4672C169.369 16.1966 169 15.8326 168.739 15.3752C168.487 14.9086 168.361 14.3766 168.361 13.7792C168.361 13.2099 168.505 12.6919 168.795 12.2252C169.084 11.7586 169.471 11.3852 169.957 11.1052C170.442 10.8252 170.983 10.6852 171.581 10.6852C172.346 10.6852 172.981 10.9092 173.485 11.3572C173.989 11.8052 174.329 12.4212 174.507 13.2052L169.733 14.8852L169.425 14.1152L173.345 12.6872L173.065 12.8692C172.953 12.5612 172.766 12.2952 172.505 12.0712C172.243 11.8379 171.903 11.7212 171.483 11.7212C171.128 11.7212 170.811 11.8099 170.531 11.9872C170.251 12.1552 170.031 12.3886 169.873 12.6872C169.714 12.9859 169.635 13.3266 169.635 13.7092C169.635 14.1106 169.719 14.4652 169.887 14.7732C170.055 15.0719 170.283 15.3099 170.573 15.4872C170.871 15.6552 171.207 15.7392 171.581 15.7392C171.833 15.7392 172.075 15.6926 172.309 15.5992C172.551 15.5059 172.775 15.3846 172.981 15.2352L173.583 16.2012C173.293 16.3972 172.967 16.5559 172.603 16.6772C172.248 16.7986 171.898 16.8592 171.553 16.8592ZM176.138 5.88324H177.44V16.7192H176.138V5.88324ZM189.681 8.40324C189.335 8.2259 188.957 8.0719 188.547 7.94124C188.136 7.81057 187.735 7.74524 187.343 7.74524C186.801 7.74524 186.367 7.87124 186.041 8.12324C185.723 8.37524 185.565 8.71124 185.565 9.13124C185.565 9.44857 185.667 9.71924 185.873 9.94324C186.078 10.1579 186.349 10.3446 186.685 10.5032C187.021 10.6619 187.371 10.8112 187.735 10.9512C188.052 11.0726 188.365 11.2079 188.673 11.3572C188.981 11.5066 189.256 11.6932 189.499 11.9172C189.751 12.1412 189.947 12.4166 190.087 12.7432C190.236 13.0699 190.311 13.4759 190.311 13.9612C190.311 14.4932 190.175 14.9786 189.905 15.4172C189.643 15.8559 189.265 16.2012 188.771 16.4532C188.276 16.7052 187.688 16.8312 187.007 16.8312C186.559 16.8312 186.129 16.7799 185.719 16.6772C185.317 16.5746 184.944 16.4439 184.599 16.2852C184.253 16.1172 183.945 15.9446 183.675 15.7672L184.277 14.7032C184.501 14.8619 184.757 15.0159 185.047 15.1652C185.336 15.3052 185.639 15.4219 185.957 15.5152C186.274 15.5992 186.582 15.6412 186.881 15.6412C187.198 15.6412 187.511 15.5852 187.819 15.4732C188.136 15.3519 188.397 15.1699 188.603 14.9272C188.808 14.6846 188.911 14.3626 188.911 13.9612C188.911 13.6159 188.817 13.3312 188.631 13.1072C188.453 12.8739 188.215 12.6779 187.917 12.5192C187.618 12.3512 187.301 12.2019 186.965 12.0712C186.647 11.9499 186.325 11.8192 185.999 11.6792C185.672 11.5299 185.369 11.3526 185.089 11.1472C184.809 10.9326 184.585 10.6712 184.417 10.3632C184.249 10.0552 184.165 9.6819 184.165 9.24324C184.165 8.71124 184.291 8.24924 184.543 7.85724C184.804 7.4559 185.159 7.14324 185.607 6.91924C186.055 6.6859 186.568 6.5599 187.147 6.54124C187.8 6.54124 188.374 6.62057 188.869 6.77924C189.373 6.9379 189.816 7.1339 190.199 7.36724L189.681 8.40324ZM195.687 16.8592C195.248 16.8592 194.824 16.7566 194.413 16.5512C194.012 16.3459 193.699 16.0706 193.475 15.7252L193.559 15.3192V19.5052H192.271V10.8392H193.391L193.573 12.3232L193.433 11.9172C193.713 11.5626 194.068 11.2686 194.497 11.0352C194.926 10.8019 195.407 10.6852 195.939 10.6852C196.48 10.6852 196.966 10.8159 197.395 11.0772C197.834 11.3386 198.179 11.7026 198.431 12.1692C198.683 12.6359 198.809 13.1819 198.809 13.8072C198.809 14.4326 198.674 14.9739 198.403 15.4312C198.132 15.8886 197.759 16.2432 197.283 16.4952C196.816 16.7379 196.284 16.8592 195.687 16.8592ZM195.435 15.8232C195.808 15.8232 196.149 15.7392 196.457 15.5712C196.774 15.3939 197.026 15.1559 197.213 14.8572C197.4 14.5492 197.493 14.2039 197.493 13.8212C197.493 13.4292 197.404 13.0839 197.227 12.7852C197.05 12.4772 196.812 12.2346 196.513 12.0572C196.224 11.8799 195.897 11.7912 195.533 11.7912C195.197 11.7912 194.894 11.8566 194.623 11.9872C194.352 12.1179 194.128 12.2999 193.951 12.5332C193.774 12.7572 193.648 13.0186 193.573 13.3172V14.2832C193.62 14.5819 193.732 14.8479 193.909 15.0812C194.086 15.3146 194.306 15.4966 194.567 15.6272C194.838 15.7579 195.127 15.8232 195.435 15.8232ZM200.57 10.9232H201.872V16.7192H200.57V10.9232ZM200.472 8.82324C200.472 8.6179 200.551 8.44524 200.71 8.30524C200.878 8.16524 201.06 8.09524 201.256 8.09524C201.452 8.09524 201.624 8.16524 201.774 8.30524C201.932 8.44524 202.012 8.6179 202.012 8.82324C202.012 9.0379 201.932 9.21524 201.774 9.35524C201.624 9.4859 201.452 9.55124 201.256 9.55124C201.06 9.55124 200.878 9.48124 200.71 9.34124C200.551 9.20124 200.472 9.02857 200.472 8.82324ZM205.286 10.9232L205.398 12.3372L205.342 12.1132C205.529 11.6839 205.832 11.3432 206.252 11.0912C206.672 10.8299 207.158 10.6992 207.708 10.6992C208.259 10.6992 208.707 10.8626 209.052 11.1892C209.407 11.5066 209.589 11.9219 209.598 12.4352V16.7192H208.282V12.8972C208.273 12.5799 208.18 12.3232 208.002 12.1272C207.834 11.9219 207.568 11.8192 207.204 11.8192C206.868 11.8192 206.565 11.9126 206.294 12.0992C206.024 12.2859 205.809 12.5426 205.65 12.8692C205.501 13.1959 205.426 13.5739 205.426 14.0032V16.7192H204.124V10.9232H205.286ZM219.302 6.59724C219.816 6.59724 220.287 6.66724 220.716 6.80724C221.155 6.9379 221.533 7.13857 221.85 7.40924C222.177 7.67057 222.429 7.99724 222.606 8.38924C222.793 8.7719 222.886 9.2199 222.886 9.73324C222.886 10.1346 222.826 10.5266 222.704 10.9092C222.592 11.2919 222.401 11.6419 222.13 11.9592C221.86 12.2672 221.505 12.5192 221.066 12.7152C220.637 12.9019 220.105 12.9952 219.47 12.9952H217.972V16.7192H216.614V6.59724H219.302ZM219.442 11.6932C219.844 11.6932 220.175 11.6326 220.436 11.5112C220.707 11.3899 220.917 11.2359 221.066 11.0492C221.216 10.8532 221.323 10.6432 221.388 10.4192C221.454 10.1952 221.486 9.98524 221.486 9.78924C221.486 9.5839 221.449 9.3739 221.374 9.15924C221.309 8.93524 221.197 8.7299 221.038 8.54324C220.889 8.35657 220.688 8.20257 220.436 8.08124C220.194 7.9599 219.895 7.89924 219.54 7.89924H217.972V11.6932H219.442ZM221.108 12.4632L223.754 16.7192H222.186L219.498 12.5052L221.108 12.4632ZM228.031 16.8592C227.369 16.8592 226.799 16.7286 226.323 16.4672C225.847 16.1966 225.479 15.8326 225.217 15.3752C224.965 14.9086 224.839 14.3766 224.839 13.7792C224.839 13.2099 224.984 12.6919 225.273 12.2252C225.563 11.7586 225.95 11.3852 226.435 11.1052C226.921 10.8252 227.462 10.6852 228.059 10.6852C228.825 10.6852 229.459 10.9092 229.963 11.3572C230.467 11.8052 230.808 12.4212 230.985 13.2052L226.211 14.8852L225.903 14.1152L229.823 12.6872L229.543 12.8692C229.431 12.5612 229.245 12.2952 228.983 12.0712C228.722 11.8379 228.381 11.7212 227.961 11.7212C227.607 11.7212 227.289 11.8099 227.009 11.9872C226.729 12.1552 226.51 12.3886 226.351 12.6872C226.193 12.9859 226.113 13.3266 226.113 13.7092C226.113 14.1106 226.197 14.4652 226.365 14.7732C226.533 15.0719 226.762 15.3099 227.051 15.4872C227.35 15.6552 227.686 15.7392 228.059 15.7392C228.311 15.7392 228.554 15.6926 228.787 15.5992C229.03 15.5059 229.254 15.3846 229.459 15.2352L230.061 16.2012C229.772 16.3972 229.445 16.5559 229.081 16.6772C228.727 16.7986 228.377 16.8592 228.031 16.8592ZM236.163 10.9232L237.871 14.8292L237.619 14.8572L239.215 10.9232H240.489L237.829 17.0692L235.967 13.0932L234.273 17.0692L231.585 10.9232H232.859L234.665 15.0112L234.217 14.9272L235.505 11.9312L235.043 10.9232H236.163ZM244.103 16.8592C243.561 16.8592 243.067 16.7426 242.619 16.5092C242.18 16.2759 241.83 15.9352 241.569 15.4872C241.317 15.0299 241.191 14.4746 241.191 13.8212C241.191 13.1772 241.326 12.6219 241.597 12.1552C241.867 11.6792 242.227 11.3152 242.675 11.0632C243.132 10.8112 243.631 10.6852 244.173 10.6852C244.714 10.6852 245.171 10.8112 245.545 11.0632C245.918 11.3059 246.203 11.5952 246.399 11.9312L246.315 12.1552L246.441 10.9232H247.645V16.7192H246.343V15.2072L246.483 15.5432C246.445 15.6366 246.361 15.7579 246.231 15.9072C246.109 16.0472 245.941 16.1919 245.727 16.3412C245.521 16.4906 245.283 16.6166 245.013 16.7192C244.742 16.8126 244.439 16.8592 244.103 16.8592ZM244.453 15.7812C244.779 15.7812 245.073 15.7206 245.335 15.5992C245.596 15.4779 245.811 15.3099 245.979 15.0952C246.156 14.8712 246.277 14.6052 246.343 14.2972V13.1632C246.268 12.8832 246.137 12.6406 245.951 12.4352C245.764 12.2206 245.54 12.0572 245.279 11.9452C245.017 11.8239 244.728 11.7632 244.411 11.7632C244.065 11.7632 243.748 11.8472 243.459 12.0152C243.169 12.1832 242.936 12.4166 242.759 12.7152C242.591 13.0139 242.507 13.3639 242.507 13.7652C242.507 14.1386 242.595 14.4792 242.773 14.7872C242.95 15.0952 243.188 15.3379 243.487 15.5152C243.785 15.6926 244.107 15.7812 244.453 15.7812ZM251.06 10.9232L251.186 12.6032L251.116 12.3792C251.265 12.0246 251.48 11.7259 251.76 11.4832C252.049 11.2312 252.348 11.0399 252.656 10.9092C252.973 10.7692 253.249 10.6992 253.482 10.6992L253.412 11.9872C252.973 11.9592 252.586 12.0432 252.25 12.2392C251.923 12.4352 251.662 12.6966 251.466 13.0232C251.279 13.3499 251.186 13.6999 251.186 14.0732V16.7192H249.898V10.9232H251.06ZM257.267 16.8592C256.735 16.8592 256.25 16.7332 255.811 16.4812C255.382 16.2199 255.041 15.8559 254.789 15.3892C254.537 14.9132 254.411 14.3672 254.411 13.7512C254.411 13.1072 254.542 12.5566 254.803 12.0992C255.074 11.6419 255.438 11.2919 255.895 11.0492C256.353 10.8066 256.866 10.6852 257.435 10.6852C257.893 10.6852 258.327 10.7832 258.737 10.9792C259.157 11.1752 259.484 11.4459 259.717 11.7912L259.661 12.2532V5.88324H260.949V16.7192H259.647V15.2772L259.787 15.6412C259.517 15.9959 259.167 16.2899 258.737 16.5232C258.308 16.7472 257.818 16.8592 257.267 16.8592ZM257.673 15.7532C258.019 15.7532 258.327 15.6926 258.597 15.5712C258.868 15.4406 259.092 15.2632 259.269 15.0392C259.447 14.8152 259.573 14.5492 259.647 14.2412V13.1492C259.573 12.8692 259.437 12.6266 259.241 12.4212C259.055 12.2066 258.826 12.0386 258.555 11.9172C258.294 11.7866 258 11.7212 257.673 11.7212C257.319 11.7212 256.992 11.8099 256.693 11.9872C256.404 12.1552 256.171 12.3886 255.993 12.6872C255.816 12.9859 255.727 13.3312 255.727 13.7232C255.727 14.1059 255.816 14.4512 255.993 14.7592C256.171 15.0579 256.409 15.3006 256.707 15.4872C257.006 15.6646 257.328 15.7532 257.673 15.7532ZM267.938 12.5892C267.938 11.6466 268.05 10.7646 268.274 9.94324C268.498 9.1219 268.787 8.38924 269.142 7.74524C269.506 7.10124 269.884 6.56924 270.276 6.14924L271.298 6.72324C270.934 7.14324 270.598 7.64257 270.29 8.22124C269.991 8.7999 269.749 9.4579 269.562 10.1952C269.385 10.9326 269.296 11.7352 269.296 12.6032C269.296 13.4712 269.385 14.2739 269.562 15.0112C269.749 15.7392 269.991 16.3879 270.29 16.9572C270.598 17.5359 270.934 18.0352 271.298 18.4552L270.276 19.0432C269.884 18.6232 269.506 18.0866 269.142 17.4332C268.787 16.7892 268.498 16.0612 268.274 15.2492C268.05 14.4279 267.938 13.5412 267.938 12.5892ZM273.612 16.7192V6.59724H276.37C277.369 6.59724 278.218 6.75124 278.918 7.05924C279.628 7.36724 280.197 7.77324 280.626 8.27724C281.056 8.78124 281.368 9.34124 281.564 9.95724C281.77 10.5639 281.872 11.1706 281.872 11.7772C281.872 12.5426 281.737 13.2286 281.466 13.8352C281.205 14.4419 280.841 14.9599 280.374 15.3892C279.908 15.8186 279.371 16.1499 278.764 16.3832C278.167 16.6072 277.532 16.7192 276.86 16.7192H273.612ZM274.97 15.4172H276.594C277.154 15.4172 277.668 15.3332 278.134 15.1652C278.61 14.9972 279.021 14.7546 279.366 14.4372C279.721 14.1199 279.996 13.7326 280.192 13.2752C280.388 12.8086 280.486 12.2812 280.486 11.6932C280.486 11.0679 280.384 10.5219 280.178 10.0552C279.973 9.57924 279.693 9.18257 279.338 8.86524C278.984 8.5479 278.582 8.3099 278.134 8.15124C277.686 7.98324 277.215 7.89924 276.72 7.89924H274.97V15.4172ZM286.52 16.8592C285.857 16.8592 285.288 16.7286 284.812 16.4672C284.336 16.1966 283.967 15.8326 283.706 15.3752C283.454 14.9086 283.328 14.3766 283.328 13.7792C283.328 13.2099 283.472 12.6919 283.762 12.2252C284.051 11.7586 284.438 11.3852 284.924 11.1052C285.409 10.8252 285.95 10.6852 286.548 10.6852C287.313 10.6852 287.948 10.9092 288.452 11.3572C288.956 11.8052 289.296 12.4212 289.474 13.2052L284.7 14.8852L284.392 14.1152L288.312 12.6872L288.032 12.8692C287.92 12.5612 287.733 12.2952 287.472 12.0712C287.21 11.8379 286.87 11.7212 286.45 11.7212C286.095 11.7212 285.778 11.8099 285.498 11.9872C285.218 12.1552 284.998 12.3886 284.84 12.6872C284.681 12.9859 284.602 13.3266 284.602 13.7092C284.602 14.1106 284.686 14.4652 284.854 14.7732C285.022 15.0719 285.25 15.3099 285.54 15.4872C285.838 15.6552 286.174 15.7392 286.548 15.7392C286.8 15.7392 287.042 15.6926 287.276 15.5992C287.518 15.5059 287.742 15.3846 287.948 15.2352L288.55 16.2012C288.26 16.3972 287.934 16.5559 287.57 16.6772C287.215 16.7986 286.865 16.8592 286.52 16.8592ZM291.581 16.7192V12.0852H290.587V10.9232H291.581V8.47324C291.581 7.63324 291.768 6.98924 292.141 6.54124C292.524 6.09324 293.084 5.86924 293.821 5.86924C294.017 5.86924 294.232 5.89724 294.465 5.95324C294.708 6.00924 294.918 6.10257 295.095 6.23324L294.549 7.17124C294.465 7.08724 294.372 7.03124 294.269 7.00324C294.176 6.9659 294.073 6.94724 293.961 6.94724C293.616 6.94724 293.35 7.0639 293.163 7.29724C292.976 7.53057 292.883 7.92724 292.883 8.48724V10.9232H294.535V12.0852H292.883V16.7192H291.581ZM295.655 10.9232H296.957V16.7192H295.655V10.9232ZM295.557 8.82324C295.557 8.6179 295.641 8.4499 295.809 8.31924C295.977 8.17924 296.159 8.10924 296.355 8.10924C296.542 8.10924 296.714 8.17924 296.873 8.31924C297.032 8.4499 297.111 8.62257 297.111 8.83724C297.111 9.0519 297.032 9.22924 296.873 9.36924C296.714 9.4999 296.542 9.56524 296.355 9.56524C296.159 9.56524 295.977 9.49524 295.809 9.35524C295.641 9.21524 295.557 9.0379 295.557 8.82324ZM302.474 12.6032C302.474 13.5459 302.357 14.4279 302.124 15.2492C301.9 16.0706 301.611 16.8032 301.256 17.4472C300.911 18.0912 300.537 18.6232 300.136 19.0432L299.114 18.4552C299.478 18.0446 299.809 17.5499 300.108 16.9712C300.416 16.3926 300.659 15.7392 300.836 15.0112C301.023 14.2739 301.116 13.4712 301.116 12.6032C301.116 11.7352 301.023 10.9326 300.836 10.1952C300.659 9.4579 300.416 8.7999 300.108 8.22124C299.809 7.64257 299.478 7.1479 299.114 6.73724L300.136 6.14924C300.537 6.56924 300.911 7.1059 301.256 7.75924C301.611 8.40324 301.9 9.1359 302.124 9.95724C302.357 10.7692 302.474 11.6512 302.474 12.6032ZM139.352 23.5072H141.76V32.7192H140.402V24.8092H139.352V23.5072ZM146.703 32.8872L143.483 26.9232H145.023L147.207 31.5292L146.409 31.5012L148.411 26.9232H149.867L146.773 32.8872H146.703ZM150.877 23.5072H153.285V32.7192H151.927V24.8092H150.877V23.5072ZM160.628 32.7192V22.2752H160.642L165.948 29.8072L165.374 29.6952L170.666 22.2752H170.694V32.7192H169.35V25.3552L169.434 26.0412L165.612 31.4452H165.584L161.706 26.0412L161.944 25.4112V32.7192H160.628ZM172.777 29.7652C172.777 29.1866 172.912 28.6639 173.183 28.1972C173.463 27.7306 173.845 27.3619 174.331 27.0912C174.816 26.8206 175.367 26.6852 175.983 26.6852C176.617 26.6852 177.173 26.8206 177.649 27.0912C178.125 27.3619 178.493 27.7306 178.755 28.1972C179.016 28.6639 179.147 29.1866 179.147 29.7652C179.147 30.3439 179.016 30.8712 178.755 31.3472C178.493 31.8139 178.12 32.1826 177.635 32.4532C177.159 32.7239 176.603 32.8592 175.969 32.8592C175.353 32.8592 174.802 32.7332 174.317 32.4812C173.841 32.2199 173.463 31.8606 173.183 31.4032C172.912 30.9366 172.777 30.3906 172.777 29.7652ZM174.079 29.7792C174.079 30.1526 174.163 30.4932 174.331 30.8012C174.499 31.0999 174.723 31.3379 175.003 31.5152C175.292 31.6926 175.609 31.7812 175.955 31.7812C176.319 31.7812 176.641 31.6926 176.921 31.5152C177.21 31.3379 177.434 31.0999 177.593 30.8012C177.751 30.4932 177.831 30.1526 177.831 29.7792C177.831 29.4059 177.751 29.0699 177.593 28.7712C177.434 28.4632 177.21 28.2206 176.921 28.0432C176.641 27.8566 176.319 27.7632 175.955 27.7632C175.6 27.7632 175.278 27.8566 174.989 28.0432C174.709 28.2299 174.485 28.4772 174.317 28.7852C174.158 29.0839 174.079 29.4152 174.079 29.7792ZM183.262 32.8592C182.73 32.8592 182.244 32.7332 181.806 32.4812C181.376 32.2199 181.036 31.8559 180.784 31.3892C180.532 30.9132 180.406 30.3672 180.406 29.7512C180.406 29.1072 180.536 28.5566 180.798 28.0992C181.068 27.6419 181.432 27.2919 181.89 27.0492C182.347 26.8066 182.86 26.6852 183.43 26.6852C183.887 26.6852 184.321 26.7832 184.732 26.9792C185.152 27.1752 185.478 27.4459 185.712 27.7912L185.656 28.2532V21.8832H186.944V32.7192H185.642V31.2772L185.782 31.6412C185.511 31.9959 185.161 32.2899 184.732 32.5232C184.302 32.7472 183.812 32.8592 183.262 32.8592ZM183.668 31.7532C184.013 31.7532 184.321 31.6926 184.592 31.5712C184.862 31.4406 185.086 31.2632 185.264 31.0392C185.441 30.8152 185.567 30.5492 185.642 30.2412V29.1492C185.567 28.8692 185.432 28.6266 185.236 28.4212C185.049 28.2066 184.82 28.0386 184.55 27.9172C184.288 27.7866 183.994 27.7212 183.668 27.7212C183.313 27.7212 182.986 27.8099 182.688 27.9872C182.398 28.1552 182.165 28.3886 181.988 28.6872C181.81 28.9859 181.722 29.3312 181.722 29.7232C181.722 30.1059 181.81 30.4512 181.988 30.7592C182.165 31.0579 182.403 31.3006 182.702 31.4872C183 31.6646 183.322 31.7532 183.668 31.7532ZM191.896 32.8592C191.234 32.8592 190.664 32.7286 190.188 32.4672C189.712 32.1966 189.344 31.8326 189.082 31.3752C188.83 30.9086 188.704 30.3766 188.704 29.7792C188.704 29.2099 188.849 28.6919 189.138 28.2252C189.428 27.7586 189.815 27.3852 190.3 27.1052C190.786 26.8252 191.327 26.6852 191.924 26.6852C192.69 26.6852 193.324 26.9092 193.828 27.3572C194.332 27.8052 194.673 28.4212 194.85 29.2052L190.076 30.8852L189.768 30.1152L193.688 28.6872L193.408 28.8692C193.296 28.5612 193.11 28.2952 192.848 28.0712C192.587 27.8379 192.246 27.7212 191.826 27.7212C191.472 27.7212 191.154 27.8099 190.874 27.9872C190.594 28.1552 190.375 28.3886 190.216 28.6872C190.058 28.9859 189.978 29.3266 189.978 29.7092C189.978 30.1106 190.062 30.4652 190.23 30.7732C190.398 31.0719 190.627 31.3099 190.916 31.4872C191.215 31.6552 191.551 31.7392 191.924 31.7392C192.176 31.7392 192.419 31.6926 192.652 31.5992C192.895 31.5059 193.119 31.3846 193.324 31.2352L193.926 32.2012C193.637 32.3972 193.31 32.5559 192.946 32.6772C192.592 32.7986 192.242 32.8592 191.896 32.8592ZM209.186 32.7192C209.111 32.7192 208.985 32.7192 208.808 32.7192C208.64 32.7192 208.462 32.7192 208.276 32.7192C208.098 32.7192 207.944 32.7192 207.814 32.7192C207.683 32.7192 207.618 32.7192 207.618 32.7192L202.76 26.2932C202.676 26.1626 202.578 25.9992 202.466 25.8032C202.354 25.6072 202.256 25.3926 202.172 25.1592C202.097 24.9166 202.06 24.6692 202.06 24.4172C202.06 24.0159 202.158 23.6426 202.354 23.2972C202.55 22.9426 202.83 22.6579 203.194 22.4432C203.567 22.2286 204.02 22.1212 204.552 22.1212C205.102 22.1212 205.592 22.2286 206.022 22.4432C206.46 22.6579 206.82 22.9099 207.1 23.1992L206.414 24.1092C206.134 23.8479 205.854 23.6426 205.574 23.4932C205.303 23.3346 205.032 23.2552 204.762 23.2552C204.351 23.2552 204.029 23.3812 203.796 23.6332C203.572 23.8759 203.46 24.1699 203.46 24.5152C203.46 24.6832 203.492 24.8559 203.558 25.0332C203.632 25.2106 203.702 25.3599 203.768 25.4812C203.842 25.6026 203.889 25.6819 203.908 25.7192L209.186 32.7192ZM204.062 27.8472C203.8 27.8472 203.544 27.8986 203.292 28.0012C203.04 28.1039 202.816 28.2439 202.62 28.4212C202.424 28.5986 202.265 28.8086 202.144 29.0512C202.032 29.2846 201.976 29.5366 201.976 29.8072C201.976 30.1712 202.069 30.4932 202.256 30.7732C202.452 31.0439 202.708 31.2586 203.026 31.4172C203.352 31.5666 203.707 31.6412 204.09 31.6412C204.444 31.6412 204.757 31.5899 205.028 31.4872C205.298 31.3752 205.532 31.2306 205.728 31.0532C205.924 30.8666 206.068 30.6659 206.162 30.4512L207.03 31.2072C206.778 31.6739 206.386 32.0659 205.854 32.3832C205.331 32.7006 204.687 32.8592 203.922 32.8592C203.287 32.8592 202.718 32.7286 202.214 32.4672C201.71 32.2059 201.308 31.8512 201.01 31.4032C200.72 30.9552 200.576 30.4466 200.576 29.8772C200.576 29.4386 200.674 29.0326 200.87 28.6592C201.066 28.2859 201.327 27.9639 201.654 27.6932C201.99 27.4132 202.358 27.1939 202.76 27.0352C203.17 26.8766 203.595 26.7926 204.034 26.7832L204.062 27.8472ZM207.576 26.7832H208.822L207.184 30.9832L206.204 30.3672L207.576 26.7832ZM220.47 23.5072L218.006 27.4692L217.194 27.0912C217.315 27.0259 217.45 26.9792 217.6 26.9512C217.749 26.9232 217.898 26.9092 218.048 26.9092C218.393 26.8906 218.729 26.9279 219.056 27.0212C219.382 27.1146 219.676 27.2686 219.938 27.4832C220.199 27.6979 220.404 27.9826 220.554 28.3372C220.712 28.6919 220.792 29.1306 220.792 29.6532C220.792 30.3066 220.642 30.8712 220.344 31.3472C220.045 31.8232 219.648 32.1919 219.154 32.4532C218.668 32.7052 218.127 32.8312 217.53 32.8312C217.082 32.8312 216.634 32.7426 216.186 32.5652C215.747 32.3786 215.383 32.1359 215.094 31.8372L215.78 30.7172C215.957 30.9226 216.2 31.1092 216.508 31.2772C216.825 31.4452 217.152 31.5292 217.488 31.5292C217.842 31.5292 218.16 31.4499 218.44 31.2912C218.729 31.1326 218.958 30.9086 219.126 30.6192C219.303 30.3206 219.392 29.9752 219.392 29.5832C219.392 29.0419 219.233 28.6172 218.916 28.3092C218.608 28.0012 218.183 27.8472 217.642 27.8472C217.371 27.8472 217.142 27.8706 216.956 27.9172C216.769 27.9546 216.601 28.0012 216.452 28.0572L216.41 28.0012L218.58 24.6272L219 24.8092H215.626V23.5072H220.47ZM225.166 32.8872L221.946 26.9232H223.486L225.67 31.5292L224.872 31.5012L226.874 26.9232H228.33L225.236 32.8872H225.166ZM234.716 23.5072L232.252 27.4692L231.44 27.0912C231.561 27.0259 231.697 26.9792 231.846 26.9512C231.995 26.9232 232.145 26.9092 232.294 26.9092C232.639 26.8906 232.975 26.9279 233.302 27.0212C233.629 27.1146 233.923 27.2686 234.184 27.4832C234.445 27.6979 234.651 27.9826 234.8 28.3372C234.959 28.6919 235.038 29.1306 235.038 29.6532C235.038 30.3066 234.889 30.8712 234.59 31.3472C234.291 31.8232 233.895 32.1919 233.4 32.4532C232.915 32.7052 232.373 32.8312 231.776 32.8312C231.328 32.8312 230.88 32.7426 230.432 32.5652C229.993 32.3786 229.629 32.1359 229.34 31.8372L230.026 30.7172C230.203 30.9226 230.446 31.1092 230.754 31.2772C231.071 31.4452 231.398 31.5292 231.734 31.5292C232.089 31.5292 232.406 31.4499 232.686 31.2912C232.975 31.1326 233.204 30.9086 233.372 30.6192C233.549 30.3206 233.638 29.9752 233.638 29.5832C233.638 29.0419 233.479 28.6172 233.162 28.3092C232.854 28.0012 232.429 27.8472 231.888 27.8472C231.617 27.8472 231.389 27.8706 231.202 27.9172C231.015 27.9546 230.847 28.0012 230.698 28.0572L230.656 28.0012L232.826 24.6272L233.246 24.8092H229.872V23.5072H234.716ZM241.812 32.7192V22.2752H241.826L247.132 29.8072L246.558 29.6952L251.85 22.2752H251.878V32.7192H250.534V25.3552L250.618 26.0412L246.796 31.4452H246.768L242.89 26.0412L243.128 25.4112V32.7192H241.812ZM253.96 29.7652C253.96 29.1866 254.096 28.6639 254.366 28.1972C254.646 27.7306 255.029 27.3619 255.514 27.0912C256 26.8206 256.55 26.6852 257.166 26.6852C257.801 26.6852 258.356 26.8206 258.832 27.0912C259.308 27.3619 259.677 27.7306 259.938 28.1972C260.2 28.6639 260.33 29.1866 260.33 29.7652C260.33 30.3439 260.2 30.8712 259.938 31.3472C259.677 31.8139 259.304 32.1826 258.818 32.4532C258.342 32.7239 257.787 32.8592 257.152 32.8592C256.536 32.8592 255.986 32.7332 255.5 32.4812C255.024 32.2199 254.646 31.8606 254.366 31.4032C254.096 30.9366 253.96 30.3906 253.96 29.7652ZM255.262 29.7792C255.262 30.1526 255.346 30.4932 255.514 30.8012C255.682 31.0999 255.906 31.3379 256.186 31.5152C256.476 31.6926 256.793 31.7812 257.138 31.7812C257.502 31.7812 257.824 31.6926 258.104 31.5152C258.394 31.3379 258.618 31.0999 258.776 30.8012C258.935 30.4932 259.014 30.1526 259.014 29.7792C259.014 29.4059 258.935 29.0699 258.776 28.7712C258.618 28.4632 258.394 28.2206 258.104 28.0432C257.824 27.8566 257.502 27.7632 257.138 27.7632C256.784 27.7632 256.462 27.8566 256.172 28.0432C255.892 28.2299 255.668 28.4772 255.5 28.7852C255.342 29.0839 255.262 29.4152 255.262 29.7792ZM264.445 32.8592C263.913 32.8592 263.428 32.7332 262.989 32.4812C262.56 32.2199 262.219 31.8559 261.967 31.3892C261.715 30.9132 261.589 30.3672 261.589 29.7512C261.589 29.1072 261.72 28.5566 261.981 28.0992C262.252 27.6419 262.616 27.2919 263.073 27.0492C263.531 26.8066 264.044 26.6852 264.613 26.6852C265.071 26.6852 265.505 26.7832 265.915 26.9792C266.335 27.1752 266.662 27.4459 266.895 27.7912L266.839 28.2532V21.8832H268.127V32.7192H266.825V31.2772L266.965 31.6412C266.695 31.9959 266.345 32.2899 265.915 32.5232C265.486 32.7472 264.996 32.8592 264.445 32.8592ZM264.851 31.7532C265.197 31.7532 265.505 31.6926 265.775 31.5712C266.046 31.4406 266.27 31.2632 266.447 31.0392C266.625 30.8152 266.751 30.5492 266.825 30.2412V29.1492C266.751 28.8692 266.615 28.6266 266.419 28.4212C266.233 28.2066 266.004 28.0386 265.733 27.9172C265.472 27.7866 265.178 27.7212 264.851 27.7212C264.497 27.7212 264.17 27.8099 263.871 27.9872C263.582 28.1552 263.349 28.3886 263.171 28.6872C262.994 28.9859 262.905 29.3312 262.905 29.7232C262.905 30.1059 262.994 30.4512 263.171 30.7592C263.349 31.0579 263.587 31.3006 263.885 31.4872C264.184 31.6646 264.506 31.7532 264.851 31.7532ZM273.08 32.8592C272.417 32.8592 271.848 32.7286 271.372 32.4672C270.896 32.1966 270.527 31.8326 270.266 31.3752C270.014 30.9086 269.888 30.3766 269.888 29.7792C269.888 29.2099 270.033 28.6919 270.322 28.2252C270.611 27.7586 270.999 27.3852 271.484 27.1052C271.969 26.8252 272.511 26.6852 273.108 26.6852C273.873 26.6852 274.508 26.9092 275.012 27.3572C275.516 27.8052 275.857 28.4212 276.034 29.2052L271.26 30.8852L270.952 30.1152L274.872 28.6872L274.592 28.8692C274.48 28.5612 274.293 28.2952 274.032 28.0712C273.771 27.8379 273.43 27.7212 273.01 27.7212C272.655 27.7212 272.338 27.8099 272.058 27.9872C271.778 28.1552 271.559 28.3886 271.4 28.6872C271.241 28.9859 271.162 29.3266 271.162 29.7092C271.162 30.1106 271.246 30.4652 271.414 30.7732C271.582 31.0719 271.811 31.3099 272.1 31.4872C272.399 31.6552 272.735 31.7392 273.108 31.7392C273.36 31.7392 273.603 31.6926 273.836 31.5992C274.079 31.5059 274.303 31.3846 274.508 31.2352L275.11 32.2012C274.821 32.3972 274.494 32.5559 274.13 32.6772C273.775 32.7986 273.425 32.8592 273.08 32.8592Z" fill="white"/>
<path d="M140.482 47.36H148.204V49.034H142.228V53.192H147.466V54.848H142.228V60.374H140.482V47.36ZM150.351 52.922H152.025V60.374H150.351V52.922ZM150.225 50.222C150.225 49.958 150.327 49.736 150.531 49.556C150.747 49.376 150.981 49.286 151.233 49.286C151.485 49.286 151.707 49.376 151.899 49.556C152.103 49.736 152.205 49.958 152.205 50.222C152.205 50.498 152.103 50.726 151.899 50.906C151.707 51.074 151.485 51.158 151.233 51.158C150.981 51.158 150.747 51.068 150.531 50.888C150.327 50.708 150.225 50.486 150.225 50.222ZM156.415 52.922L156.577 55.082L156.487 54.794C156.679 54.338 156.955 53.954 157.315 53.642C157.687 53.318 158.071 53.072 158.467 52.904C158.875 52.724 159.229 52.634 159.529 52.634L159.439 54.29C158.875 54.254 158.377 54.362 157.945 54.614C157.525 54.866 157.189 55.202 156.937 55.622C156.697 56.042 156.577 56.492 156.577 56.972V60.374H154.921V52.922H156.415ZM163.777 60.518C163.249 60.518 162.733 60.428 162.229 60.248C161.737 60.056 161.329 59.774 161.005 59.402L161.707 58.43C162.019 58.73 162.337 58.958 162.661 59.114C162.997 59.258 163.327 59.33 163.651 59.33C163.891 59.33 164.113 59.3 164.317 59.24C164.521 59.18 164.683 59.084 164.803 58.952C164.935 58.808 165.001 58.616 165.001 58.376C165.001 58.112 164.911 57.902 164.731 57.746C164.563 57.59 164.341 57.464 164.065 57.368C163.801 57.272 163.519 57.182 163.219 57.098C162.607 56.894 162.139 56.612 161.815 56.252C161.491 55.892 161.329 55.454 161.329 54.938C161.329 54.542 161.425 54.176 161.617 53.84C161.821 53.492 162.115 53.21 162.499 52.994C162.895 52.778 163.381 52.67 163.957 52.67C164.473 52.67 164.935 52.736 165.343 52.868C165.751 52.988 166.135 53.192 166.495 53.48L165.829 54.524C165.613 54.296 165.355 54.128 165.055 54.02C164.755 53.912 164.485 53.852 164.245 53.84C164.041 53.828 163.843 53.858 163.651 53.93C163.471 54.002 163.321 54.104 163.201 54.236C163.081 54.368 163.021 54.524 163.021 54.704C163.021 54.956 163.105 55.16 163.273 55.316C163.441 55.472 163.657 55.598 163.921 55.694C164.197 55.778 164.467 55.868 164.731 55.964C165.103 56.072 165.433 56.216 165.721 56.396C166.009 56.576 166.237 56.798 166.405 57.062C166.585 57.326 166.675 57.656 166.675 58.052C166.675 58.496 166.567 58.91 166.351 59.294C166.147 59.666 165.829 59.966 165.397 60.194C164.977 60.41 164.437 60.518 163.777 60.518ZM169.739 49.646H171.413V52.958H173.465V54.272H171.413V60.374H169.739V54.272H168.371V52.958H169.739V49.646ZM181.597 47.36H190.057V49.034H183.343V52.994H189.337V54.668H183.343V58.7H190.309V60.374H181.597V47.36ZM192.421 55.766H195.787V57.242H192.421V55.766ZM200.48 60.518C199.952 60.518 199.436 60.428 198.932 60.248C198.44 60.056 198.032 59.774 197.708 59.402L198.41 58.43C198.722 58.73 199.04 58.958 199.364 59.114C199.7 59.258 200.03 59.33 200.354 59.33C200.594 59.33 200.816 59.3 201.02 59.24C201.224 59.18 201.386 59.084 201.506 58.952C201.638 58.808 201.704 58.616 201.704 58.376C201.704 58.112 201.614 57.902 201.434 57.746C201.266 57.59 201.044 57.464 200.768 57.368C200.504 57.272 200.222 57.182 199.922 57.098C199.31 56.894 198.842 56.612 198.518 56.252C198.194 55.892 198.032 55.454 198.032 54.938C198.032 54.542 198.128 54.176 198.32 53.84C198.524 53.492 198.818 53.21 199.202 52.994C199.598 52.778 200.084 52.67 200.66 52.67C201.176 52.67 201.638 52.736 202.046 52.868C202.454 52.988 202.838 53.192 203.198 53.48L202.532 54.524C202.316 54.296 202.058 54.128 201.758 54.02C201.458 53.912 201.188 53.852 200.948 53.84C200.744 53.828 200.546 53.858 200.354 53.93C200.174 54.002 200.024 54.104 199.904 54.236C199.784 54.368 199.724 54.524 199.724 54.704C199.724 54.956 199.808 55.16 199.976 55.316C200.144 55.472 200.36 55.598 200.624 55.694C200.9 55.778 201.17 55.868 201.434 55.964C201.806 56.072 202.136 56.216 202.424 56.396C202.712 56.576 202.94 56.798 203.108 57.062C203.288 57.326 203.378 57.656 203.378 58.052C203.378 58.496 203.27 58.91 203.054 59.294C202.85 59.666 202.532 59.966 202.1 60.194C201.68 60.41 201.14 60.518 200.48 60.518ZM210.114 60.554C209.55 60.554 209.004 60.422 208.476 60.158C207.96 59.894 207.558 59.54 207.27 59.096L207.378 58.574V63.956H205.722V52.814H207.162L207.396 54.722L207.216 54.2C207.576 53.744 208.032 53.366 208.584 53.066C209.136 52.766 209.754 52.616 210.438 52.616C211.134 52.616 211.758 52.784 212.31 53.12C212.874 53.456 213.318 53.924 213.642 54.524C213.966 55.124 214.128 55.826 214.128 56.63C214.128 57.434 213.954 58.13 213.606 58.718C213.258 59.306 212.778 59.762 212.166 60.086C211.566 60.398 210.882 60.554 210.114 60.554ZM209.79 59.222C210.27 59.222 210.708 59.114 211.104 58.898C211.512 58.67 211.836 58.364 212.076 57.98C212.316 57.584 212.436 57.14 212.436 56.648C212.436 56.144 212.322 55.7 212.094 55.316C211.866 54.92 211.56 54.608 211.176 54.38C210.804 54.152 210.384 54.038 209.916 54.038C209.484 54.038 209.094 54.122 208.746 54.29C208.398 54.458 208.11 54.692 207.882 54.992C207.654 55.28 207.492 55.616 207.396 56V57.242C207.456 57.626 207.6 57.968 207.828 58.268C208.056 58.568 208.338 58.802 208.674 58.97C209.022 59.138 209.394 59.222 209.79 59.222ZM215.744 56.576C215.744 55.832 215.918 55.16 216.266 54.56C216.626 53.96 217.118 53.486 217.742 53.138C218.366 52.79 219.074 52.616 219.866 52.616C220.682 52.616 221.396 52.79 222.008 53.138C222.62 53.486 223.094 53.96 223.43 54.56C223.766 55.16 223.934 55.832 223.934 56.576C223.934 57.32 223.766 57.998 223.43 58.61C223.094 59.21 222.614 59.684 221.99 60.032C221.378 60.38 220.664 60.554 219.848 60.554C219.056 60.554 218.348 60.392 217.724 60.068C217.112 59.732 216.626 59.27 216.266 58.682C215.918 58.082 215.744 57.38 215.744 56.576ZM217.418 56.594C217.418 57.074 217.526 57.512 217.742 57.908C217.958 58.292 218.246 58.598 218.606 58.826C218.978 59.054 219.386 59.168 219.83 59.168C220.298 59.168 220.712 59.054 221.072 58.826C221.444 58.598 221.732 58.292 221.936 57.908C222.14 57.512 222.242 57.074 222.242 56.594C222.242 56.114 222.14 55.682 221.936 55.298C221.732 54.902 221.444 54.59 221.072 54.362C220.712 54.122 220.298 54.002 219.83 54.002C219.374 54.002 218.96 54.122 218.588 54.362C218.228 54.602 217.94 54.92 217.724 55.316C217.52 55.7 217.418 56.126 217.418 56.594ZM227.694 52.922L227.856 55.082L227.766 54.794C227.958 54.338 228.234 53.954 228.594 53.642C228.966 53.318 229.35 53.072 229.746 52.904C230.154 52.724 230.508 52.634 230.808 52.634L230.718 54.29C230.154 54.254 229.656 54.362 229.224 54.614C228.804 54.866 228.468 55.202 228.216 55.622C227.976 56.042 227.856 56.492 227.856 56.972V60.374H226.2V52.922H227.694ZM233.688 49.646H235.362V52.958H237.414V54.272H235.362V60.374H233.688V54.272H232.32V52.958H233.688V49.646ZM244.592 47.36H253.232V49.034H249.74V60.374H247.994V49.034H244.592V47.36ZM253.009 56.576C253.009 55.832 253.183 55.16 253.531 54.56C253.891 53.96 254.383 53.486 255.007 53.138C255.631 52.79 256.339 52.616 257.131 52.616C257.947 52.616 258.661 52.79 259.273 53.138C259.885 53.486 260.359 53.96 260.695 54.56C261.031 55.16 261.199 55.832 261.199 56.576C261.199 57.32 261.031 57.998 260.695 58.61C260.359 59.21 259.879 59.684 259.255 60.032C258.643 60.38 257.929 60.554 257.113 60.554C256.321 60.554 255.613 60.392 254.989 60.068C254.377 59.732 253.891 59.27 253.531 58.682C253.183 58.082 253.009 57.38 253.009 56.576ZM254.683 56.594C254.683 57.074 254.791 57.512 255.007 57.908C255.223 58.292 255.511 58.598 255.871 58.826C256.243 59.054 256.651 59.168 257.095 59.168C257.563 59.168 257.977 59.054 258.337 58.826C258.709 58.598 258.997 58.292 259.201 57.908C259.405 57.512 259.507 57.074 259.507 56.594C259.507 56.114 259.405 55.682 259.201 55.298C258.997 54.902 258.709 54.59 258.337 54.362C257.977 54.122 257.563 54.002 257.095 54.002C256.639 54.002 256.225 54.122 255.853 54.362C255.493 54.602 255.205 54.92 254.989 55.316C254.785 55.7 254.683 56.126 254.683 56.594ZM265.824 60.662C265.152 60.662 264.594 60.458 264.15 60.05C263.718 59.63 263.49 59.09 263.466 58.43V52.922H265.14V57.836C265.164 58.244 265.278 58.574 265.482 58.826C265.698 59.078 266.034 59.21 266.49 59.222C266.91 59.222 267.282 59.102 267.606 58.862C267.942 58.61 268.212 58.274 268.416 57.854C268.62 57.422 268.722 56.936 268.722 56.396V52.922H270.396V60.374H268.866L268.722 58.538L268.812 58.862C268.668 59.21 268.446 59.522 268.146 59.798C267.858 60.062 267.516 60.272 267.12 60.428C266.724 60.584 266.292 60.662 265.824 60.662ZM274.786 52.922L274.948 55.082L274.858 54.794C275.05 54.338 275.326 53.954 275.686 53.642C276.058 53.318 276.442 53.072 276.838 52.904C277.246 52.724 277.6 52.634 277.9 52.634L277.81 54.29C277.246 54.254 276.748 54.362 276.316 54.614C275.896 54.866 275.56 55.202 275.308 55.622C275.068 56.042 274.948 56.492 274.948 56.972V60.374H273.292V52.922H274.786ZM281.554 52.922L281.698 54.74L281.626 54.452C281.866 53.9 282.256 53.462 282.796 53.138C283.336 52.802 283.96 52.634 284.668 52.634C285.376 52.634 285.952 52.844 286.396 53.264C286.852 53.672 287.086 54.206 287.098 54.866V60.374H285.406V55.46C285.394 55.052 285.274 54.722 285.046 54.47C284.83 54.206 284.488 54.074 284.02 54.074C283.588 54.074 283.198 54.194 282.85 54.434C282.502 54.674 282.226 55.004 282.022 55.424C281.83 55.844 281.734 56.33 281.734 56.882V60.374H280.06V52.922H281.554ZM293.105 60.554C292.409 60.554 291.773 60.404 291.197 60.104C290.633 59.804 290.183 59.366 289.847 58.79C289.523 58.202 289.361 57.488 289.361 56.648C289.361 55.82 289.535 55.106 289.883 54.506C290.231 53.894 290.693 53.426 291.269 53.102C291.857 52.778 292.499 52.616 293.195 52.616C293.891 52.616 294.479 52.778 294.959 53.102C295.439 53.414 295.805 53.786 296.057 54.218L295.949 54.506L296.111 52.922H297.659V60.374H295.985V58.43L296.165 58.862C296.117 58.982 296.009 59.138 295.841 59.33C295.685 59.51 295.469 59.696 295.193 59.888C294.929 60.08 294.623 60.242 294.275 60.374C293.927 60.494 293.537 60.554 293.105 60.554ZM293.555 59.168C293.975 59.168 294.353 59.09 294.689 58.934C295.025 58.778 295.301 58.562 295.517 58.286C295.745 57.998 295.901 57.656 295.985 57.26V55.802C295.889 55.442 295.721 55.13 295.481 54.866C295.241 54.59 294.953 54.38 294.617 54.236C294.281 54.08 293.909 54.002 293.501 54.002C293.057 54.002 292.649 54.11 292.277 54.326C291.905 54.542 291.605 54.842 291.377 55.226C291.161 55.61 291.053 56.06 291.053 56.576C291.053 57.056 291.167 57.494 291.395 57.89C291.623 58.286 291.929 58.598 292.313 58.826C292.697 59.054 293.111 59.168 293.555 59.168ZM302.05 52.922L302.194 54.596L302.122 54.452C302.398 53.888 302.788 53.444 303.292 53.12C303.808 52.796 304.396 52.634 305.056 52.634C305.476 52.634 305.848 52.7 306.172 52.832C306.496 52.964 306.76 53.156 306.964 53.408C307.18 53.648 307.318 53.948 307.378 54.308L307.288 54.362C307.576 53.822 307.972 53.402 308.476 53.102C308.992 52.79 309.532 52.634 310.096 52.634C310.828 52.634 311.404 52.844 311.824 53.264C312.256 53.672 312.478 54.206 312.49 54.866V60.374H310.816V55.46C310.804 55.076 310.708 54.758 310.528 54.506C310.36 54.242 310.06 54.098 309.628 54.074C309.196 54.074 308.806 54.206 308.458 54.47C308.122 54.734 307.858 55.076 307.666 55.496C307.474 55.904 307.372 56.348 307.36 56.828V60.374H305.686V55.46C305.674 55.076 305.572 54.758 305.38 54.506C305.2 54.242 304.894 54.098 304.462 54.074C304.018 54.074 303.628 54.206 303.292 54.47C302.956 54.734 302.692 55.076 302.5 55.496C302.32 55.916 302.23 56.366 302.23 56.846V60.374H300.556V52.922H302.05ZM318.865 60.554C318.013 60.554 317.281 60.386 316.669 60.05C316.057 59.702 315.583 59.234 315.247 58.646C314.923 58.046 314.761 57.362 314.761 56.594C314.761 55.862 314.947 55.196 315.319 54.596C315.691 53.996 316.189 53.516 316.813 53.156C317.437 52.796 318.133 52.616 318.901 52.616C319.885 52.616 320.701 52.904 321.349 53.48C321.997 54.056 322.435 54.848 322.663 55.856L316.525 58.016L316.129 57.026L321.169 55.19L320.809 55.424C320.665 55.028 320.425 54.686 320.089 54.398C319.753 54.098 319.315 53.948 318.775 53.948C318.319 53.948 317.911 54.062 317.551 54.29C317.191 54.506 316.909 54.806 316.705 55.19C316.501 55.574 316.399 56.012 316.399 56.504C316.399 57.02 316.507 57.476 316.723 57.872C316.939 58.256 317.233 58.562 317.605 58.79C317.989 59.006 318.421 59.114 318.901 59.114C319.225 59.114 319.537 59.054 319.837 58.934C320.149 58.814 320.437 58.658 320.701 58.466L321.475 59.708C321.103 59.96 320.683 60.164 320.215 60.32C319.759 60.476 319.309 60.554 318.865 60.554ZM326.255 52.922L326.399 54.74L326.327 54.452C326.567 53.9 326.957 53.462 327.497 53.138C328.037 52.802 328.661 52.634 329.369 52.634C330.077 52.634 330.653 52.844 331.097 53.264C331.553 53.672 331.787 54.206 331.799 54.866V60.374H330.107V55.46C330.095 55.052 329.975 54.722 329.747 54.47C329.531 54.206 329.189 54.074 328.721 54.074C328.289 54.074 327.899 54.194 327.551 54.434C327.203 54.674 326.927 55.004 326.723 55.424C326.531 55.844 326.435 56.33 326.435 56.882V60.374H324.761V52.922H326.255ZM335.43 49.646H337.104V52.958H339.156V54.272H337.104V60.374H335.43V54.272H334.062V52.958H335.43V49.646Z" fill="url(#paint4_linear_2097_141168)"/>
<defs>
<linearGradient id="paint0_linear_2097_141168" x1="63.5349" y1="17.439" x2="63.5349" y2="111.069" gradientUnits="userSpaceOnUse">
<stop stop-color="white"/>
<stop offset="0.502858" stop-color="#EBEFF9"/>
<stop offset="0.502858" stop-color="white"/>
<stop offset="1" stop-color="#EBEFF9"/>
</linearGradient>
<linearGradient id="paint1_linear_2097_141168" x1="63.5349" y1="17.439" x2="63.5349" y2="111.069" gradientUnits="userSpaceOnUse">
<stop stop-color="#F9D390"/>
<stop offset="0.71875" stop-color="#EFBA5D"/>
<stop offset="1" stop-color="#E19C24"/>
</linearGradient>
<linearGradient id="paint2_linear_2097_141168" x1="63.5349" y1="0.719238" x2="63.5349" y2="65.3688" gradientUnits="userSpaceOnUse">
<stop stop-color="#F9D390"/>
<stop offset="0.71875" stop-color="#EFBA5D"/>
<stop offset="1" stop-color="#E19C24"/>
</linearGradient>
<linearGradient id="paint3_linear_2097_141168" x1="63.5349" y1="26.9136" x2="63.5349" y2="102.152" gradientUnits="userSpaceOnUse">
<stop stop-color="#F9D390"/>
<stop offset="0.71875" stop-color="#EFBA5D"/>
<stop offset="1" stop-color="#E19C24"/>
</linearGradient>
<linearGradient id="paint4_linear_2097_141168" x1="240.305" y1="45.374" x2="240.305" y2="65.374" gradientUnits="userSpaceOnUse">
<stop stop-color="#F9D390"/>
<stop offset="1" stop-color="#E2B15B"/>
</linearGradient>
</defs>
</svg>
