<svg width="39" height="174" viewBox="0 0 39 174" fill="none" xmlns="http://www.w3.org/2000/svg">
<path opacity="0.4" d="M39 143.5C39 160.345 30.2696 174 19.5 174C8.73045 174 0 160.345 0 143.5C0 126.655 8.73045 113 19.5 113C30.2696 113 39 126.655 39 143.5Z" fill="url(#paint0_linear_246_484)"/>
<path fill-rule="evenodd" clip-rule="evenodd" d="M25.3772 149.828L19.6599 0L13.9931 149.833C13.9783 150.028 13.9707 150.225 13.9707 150.424C13.9707 154.089 16.5292 157.061 19.6853 157.061C22.8415 157.061 25.4 154.089 25.4 150.424C25.4 150.223 25.3923 150.024 25.3772 149.828Z" fill="url(#paint1_linear_246_484)"/>
<defs>
<linearGradient id="paint0_linear_246_484" x1="19.5" y1="118.66" x2="19.5" y2="174" gradientUnits="userSpaceOnUse">
<stop offset="0.106618" stop-color="#F2D382" stop-opacity="0"/>
<stop offset="1" stop-color="#FFF0C9" stop-opacity="0.62"/>
</linearGradient>
<linearGradient id="paint1_linear_246_484" x1="19.6598" y1="0" x2="19.6598" y2="155.954" gradientUnits="userSpaceOnUse">
<stop stop-color="#F9D390" stop-opacity="0.53"/>
<stop offset="0.911458" stop-color="#F9C56B"/>
<stop offset="0.987315" stop-color="#FFCD75"/>
</linearGradient>
</defs>
</svg>
