<svg width="211" height="63" viewBox="0 0 211 63" fill="none" xmlns="http://www.w3.org/2000/svg">
<rect x="0.634839" y="1.16218" width="209.497" height="60.5213" rx="13.7548" fill="url(#paint0_linear_835_14669)" stroke="url(#paint1_linear_835_14669)" stroke-width="1.26968"/>
<path d="M53.2863 17.8136H56.3243V40.457H53.2863V17.8136ZM64.7079 27.4911L64.9584 30.6543L64.8332 30.1532C65.2507 29.1927 65.9293 28.4306 66.8689 27.8669C67.8084 27.2823 68.8941 26.99 70.126 26.99C71.3579 26.99 72.3601 27.3554 73.1326 28.0861C73.926 28.796 74.3332 29.7252 74.354 30.8735V40.457H71.4101V31.907C71.3892 31.1971 71.1804 30.623 70.7837 30.1845C70.4079 29.7252 69.8128 29.4955 68.9985 29.4955C68.2469 29.4955 67.5683 29.7043 66.9628 30.1219C66.3573 30.5394 65.8771 31.1136 65.5222 31.8444C65.1881 32.5752 65.0211 33.4208 65.0211 34.3812V40.457H62.1084V27.4911H64.7079ZM84.2527 40.8329L77.0494 27.4911H80.4945L85.3802 37.7949L83.595 37.7323L88.0736 27.4911H91.3307L84.4093 40.8329H84.2527ZM100.174 40.7702C98.6919 40.7702 97.4183 40.4779 96.3535 39.8933C95.2886 39.2878 94.4639 38.4735 93.8793 37.4504C93.3156 36.4065 93.0337 35.2164 93.0337 33.8801C93.0337 32.6065 93.3573 31.4477 94.0046 30.4037C94.6518 29.3598 95.5183 28.5246 96.604 27.8982C97.6897 27.2719 98.9007 26.9587 100.237 26.9587C101.949 26.9587 103.369 27.4598 104.496 28.462C105.624 29.4642 106.386 30.8422 106.783 32.596L96.1029 36.3543L95.4139 34.6318L104.183 31.4372L103.557 31.8444C103.306 31.1554 102.889 30.5603 102.304 30.0592C101.719 29.5372 100.957 29.2763 100.018 29.2763C99.2244 29.2763 98.5145 29.4746 97.8881 29.8713C97.2617 30.2471 96.7711 30.7691 96.4161 31.4372C96.0612 32.1054 95.8837 32.8675 95.8837 33.7235C95.8837 34.6213 96.0716 35.4147 96.4474 36.1037C96.8233 36.7719 97.3348 37.3043 97.9821 37.701C98.6502 38.0768 99.4018 38.2647 100.237 38.2647C100.801 38.2647 101.344 38.1603 101.866 37.9515C102.408 37.7427 102.91 37.4713 103.369 37.1372L104.716 39.2982C104.068 39.7367 103.338 40.0916 102.523 40.3631C101.73 40.6345 100.947 40.7702 100.174 40.7702ZM114.065 40.7076C113.147 40.7076 112.249 40.551 111.372 40.2378C110.516 39.9037 109.806 39.4131 109.242 38.7658L110.464 37.0746C111.006 37.5966 111.56 37.9933 112.123 38.2647C112.708 38.5153 113.282 38.6405 113.846 38.6405C114.264 38.6405 114.65 38.5883 115.005 38.484C115.36 38.3796 115.642 38.2125 115.85 37.9829C116.08 37.7323 116.195 37.3982 116.195 36.9807C116.195 36.5213 116.038 36.1559 115.725 35.8845C115.433 35.6131 115.047 35.3938 114.566 35.2268C114.107 35.0598 113.616 34.9032 113.094 34.757C112.029 34.4021 111.215 33.9114 110.651 33.285C110.088 32.6587 109.806 31.8966 109.806 30.9988C109.806 30.3098 109.973 29.673 110.307 29.0883C110.662 28.4828 111.173 27.9922 111.842 27.6164C112.531 27.2405 113.376 27.0526 114.378 27.0526C115.276 27.0526 116.08 27.1675 116.79 27.3971C117.5 27.6059 118.168 27.9609 118.794 28.462L117.636 30.2785C117.26 29.8817 116.811 29.5894 116.289 29.4015C115.767 29.2136 115.297 29.1092 114.879 29.0883C114.525 29.0675 114.18 29.1197 113.846 29.2449C113.533 29.3702 113.272 29.5477 113.063 29.7774C112.854 30.007 112.75 30.2785 112.75 30.5916C112.75 31.0301 112.896 31.385 113.188 31.6565C113.481 31.9279 113.856 32.1471 114.316 32.3142C114.796 32.4603 115.266 32.6169 115.725 32.7839C116.372 32.9719 116.947 33.2224 117.448 33.5356C117.949 33.8488 118.345 34.235 118.638 34.6944C118.951 35.1537 119.107 35.7279 119.107 36.4169C119.107 37.1894 118.92 37.9098 118.544 38.5779C118.189 39.2252 117.636 39.7471 116.884 40.1438C116.153 40.5197 115.214 40.7076 114.065 40.7076ZM124.439 21.7911H127.351V27.5537H130.922V29.84H127.351V40.457H124.439V29.84H122.059V27.5537H124.439V21.7911ZM133.314 33.8488C133.314 32.5543 133.616 31.385 134.222 30.3411C134.848 29.2971 135.704 28.4724 136.79 27.8669C137.876 27.2614 139.108 26.9587 140.486 26.9587C141.905 26.9587 143.148 27.2614 144.213 27.8669C145.277 28.4724 146.102 29.2971 146.687 30.3411C147.271 31.385 147.564 32.5543 147.564 33.8488C147.564 35.1433 147.271 36.323 146.687 37.3878C146.102 38.4318 145.267 39.2565 144.181 39.862C143.116 40.4675 141.874 40.7702 140.454 40.7702C139.076 40.7702 137.844 40.4883 136.759 39.9246C135.694 39.34 134.848 38.5362 134.222 37.5131C133.616 36.4691 133.314 35.2477 133.314 33.8488ZM136.226 33.8801C136.226 34.7153 136.414 35.4774 136.79 36.1664C137.166 36.8345 137.667 37.3669 138.293 37.7636C138.941 38.1603 139.651 38.3587 140.423 38.3587C141.237 38.3587 141.958 38.1603 142.584 37.7636C143.231 37.3669 143.732 36.8345 144.087 36.1664C144.442 35.4774 144.62 34.7153 144.62 33.8801C144.62 33.0449 144.442 32.2933 144.087 31.6252C143.732 30.9361 143.231 30.3933 142.584 29.9966C141.958 29.579 141.237 29.3702 140.423 29.3702C139.63 29.3702 138.909 29.579 138.262 29.9966C137.636 30.4142 137.135 30.9675 136.759 31.6565C136.404 32.3246 136.226 33.0658 136.226 33.8801ZM154.107 27.4911L154.389 31.2493L154.232 30.7482C154.566 29.9548 155.046 29.2867 155.673 28.7438C156.32 28.1801 156.988 27.7521 157.677 27.4598C158.387 27.1466 159.003 26.99 159.525 26.99L159.368 29.8713C158.387 29.8087 157.521 29.9966 156.769 30.435C156.038 30.8735 155.454 31.4581 155.015 32.1889C154.598 32.9197 154.389 33.7026 154.389 34.5378V40.457H151.507V27.4911H154.107Z" fill="white"/>
<defs>
<linearGradient id="paint0_linear_835_14669" x1="105.38" y1="-0.397247" x2="105.38" y2="57.5239" gradientUnits="userSpaceOnUse">
<stop stop-color="#001D45"/>
<stop offset="0.89" stop-color="#000B25"/>
</linearGradient>
<linearGradient id="paint1_linear_835_14669" x1="0" y1="31.4228" x2="210.766" y2="31.4228" gradientUnits="userSpaceOnUse">
<stop stop-color="#D6C896"/>
<stop offset="0.08" stop-color="#D5C28C"/>
<stop offset="0.39" stop-color="#D0AD6A"/>
<stop offset="0.42" stop-color="#DABB7F"/>
<stop offset="0.47" stop-color="#E9D19F"/>
<stop offset="0.53" stop-color="#F4E0B6"/>
<stop offset="0.58" stop-color="#FBEAC4"/>
<stop offset="0.62" stop-color="#FDEDC9"/>
<stop offset="0.72" stop-color="#FCEBC6"/>
<stop offset="0.79" stop-color="#F7E4BC"/>
<stop offset="0.86" stop-color="#EFD9AC"/>
<stop offset="0.92" stop-color="#E4CA95"/>
<stop offset="0.98" stop-color="#D6B678"/>
<stop offset="1" stop-color="#D0AD6A"/>
</linearGradient>
</defs>
</svg>
