<svg width="211" height="63" viewBox="0 0 211 63" fill="none" xmlns="http://www.w3.org/2000/svg">
<rect x="0.634839" y="1.16218" width="209.497" height="60.5213" rx="13.7548" fill="url(#paint0_linear_835_14651)" stroke="url(#paint1_linear_835_14651)" stroke-width="1.26968"/>
<path d="M33.7162 17.8136C35.3656 17.8136 36.775 18.0955 37.9442 18.6592C39.1134 19.2021 40.0112 19.9955 40.6376 21.0394C41.2849 22.0834 41.6085 23.3466 41.6085 24.829C41.6085 25.7268 41.4728 26.6142 41.2014 27.4911C40.9299 28.3471 40.4915 29.1301 39.886 29.84C39.3014 30.529 38.5288 31.0823 37.5684 31.4999C36.6079 31.9175 35.4387 32.1263 34.0607 32.1263H30.7096V40.457H27.6717V17.8136H33.7162ZM34.0294 29.2136C34.9272 29.2136 35.6684 29.0675 36.253 28.7752C36.8376 28.4828 37.297 28.1175 37.631 27.679C37.9651 27.2197 38.2052 26.7394 38.3514 26.2383C38.4975 25.7372 38.5706 25.2883 38.5706 24.8916C38.5706 24.4323 38.4975 23.9625 38.3514 23.4823C38.2052 22.9812 37.9547 22.5323 37.5997 22.1356C37.2656 21.718 36.8167 21.3839 36.253 21.1334C35.7101 20.862 35.0316 20.7262 34.2173 20.7262H30.7096V29.2136H34.0294ZM50.9642 40.7702C49.7532 40.7702 48.6466 40.5092 47.6444 39.9873C46.6631 39.4653 45.8802 38.7032 45.2955 37.701C44.7318 36.6779 44.4499 35.4356 44.4499 33.9741C44.4499 32.5334 44.7527 31.2911 45.3582 30.2471C45.9637 29.1823 46.7675 28.368 47.7697 27.8043C48.7928 27.2405 49.9098 26.9587 51.1208 26.9587C52.3318 26.9587 53.3549 27.2405 54.1901 27.8043C55.0252 28.3471 55.662 28.9944 56.1005 29.746L55.9126 30.2471L56.1945 27.4911H58.8879V40.457H55.9752V37.0746L56.2884 37.8263C56.2049 38.0351 56.017 38.3065 55.7247 38.6405C55.4532 38.9537 55.0774 39.2774 54.5972 39.6114C54.1379 39.9455 53.6054 40.2274 52.9999 40.457C52.3945 40.6658 51.7159 40.7702 50.9642 40.7702ZM51.7472 38.3587C52.478 38.3587 53.1357 38.223 53.7203 37.9515C54.3049 37.6801 54.7851 37.3043 55.1609 36.8241C55.5576 36.323 55.8291 35.7279 55.9752 35.0389V32.5021C55.8082 31.8757 55.5159 31.3328 55.0983 30.8735C54.6807 30.3933 54.1796 30.0279 53.595 29.7774C53.0104 29.5059 52.3631 29.3702 51.6532 29.3702C50.8807 29.3702 50.1708 29.5581 49.5236 29.9339C48.8763 30.3098 48.3543 30.8317 47.9576 31.4999C47.5818 32.168 47.3939 32.951 47.3939 33.8488C47.3939 34.6839 47.5922 35.446 47.989 36.135C48.3857 36.8241 48.9181 37.3669 49.5862 37.7636C50.2543 38.1603 50.9747 38.3587 51.7472 38.3587ZM66.5277 27.4911L66.8095 31.2493L66.6529 30.7482C66.987 29.9548 67.4672 29.2867 68.0936 28.7438C68.7409 28.1801 69.409 27.7521 70.098 27.4598C70.8079 27.1466 71.4238 26.99 71.9458 26.99L71.7892 29.8713C70.8079 29.8087 69.9414 29.9966 69.1898 30.435C68.459 30.8735 67.8744 31.4581 67.4359 32.1889C67.0183 32.9197 66.8095 33.7026 66.8095 34.5378V40.457H63.9282V27.4911H66.5277ZM76.9561 21.7911H79.8687V27.5537H83.439V29.84H79.8687V40.457H76.9561V29.84H74.5758V27.5537H76.9561V21.7911ZM89.5579 27.4911L89.8085 30.6543L89.6832 30.1532C90.1008 29.1927 90.7794 28.4306 91.7189 27.8669C92.6585 27.2823 93.7442 26.99 94.9761 26.99C96.2079 26.99 97.2101 27.3554 97.9827 28.0861C98.7761 28.796 99.1832 29.7252 99.2041 30.8735V40.457H96.2601V31.907C96.2393 31.1971 96.0305 30.623 95.6338 30.1845C95.2579 29.7252 94.6629 29.4955 93.8486 29.4955C93.0969 29.4955 92.4184 29.7043 91.8129 30.1219C91.2074 30.5394 90.7272 31.1136 90.3722 31.8444C90.0382 32.5752 89.8711 33.4208 89.8711 34.3812V40.457H86.9585V27.4911H89.5579ZM110.283 40.7702C108.8 40.7702 107.527 40.4779 106.462 39.8933C105.397 39.2878 104.572 38.4735 103.988 37.4504C103.424 36.4065 103.142 35.2164 103.142 33.8801C103.142 32.6065 103.466 31.4477 104.113 30.4037C104.76 29.3598 105.627 28.5246 106.712 27.8982C107.798 27.2719 109.009 26.9587 110.345 26.9587C112.057 26.9587 113.477 27.4598 114.605 28.462C115.732 29.4642 116.494 30.8422 116.891 32.596L106.211 36.3543L105.522 34.6318L114.291 31.4372L113.665 31.8444C113.414 31.1554 112.997 30.5603 112.412 30.0592C111.828 29.5372 111.066 29.2763 110.126 29.2763C109.333 29.2763 108.623 29.4746 107.996 29.8713C107.37 30.2471 106.879 30.7691 106.524 31.4372C106.169 32.1054 105.992 32.8675 105.992 33.7235C105.992 34.6213 106.18 35.4147 106.556 36.1037C106.931 36.7719 107.443 37.3043 108.09 37.701C108.758 38.0768 109.51 38.2647 110.345 38.2647C110.909 38.2647 111.452 38.1603 111.974 37.9515C112.517 37.7427 113.018 37.4713 113.477 37.1372L114.824 39.2982C114.177 39.7367 113.446 40.0916 112.632 40.3631C111.838 40.6345 111.055 40.7702 110.283 40.7702ZM123.14 27.4911L123.422 31.2493L123.265 30.7482C123.599 29.9548 124.079 29.2867 124.706 28.7438C125.353 28.1801 126.021 27.7521 126.71 27.4598C127.42 27.1466 128.036 26.99 128.558 26.99L128.401 29.8713C127.42 29.8087 126.554 29.9966 125.802 30.435C125.071 30.8735 124.487 31.4581 124.048 32.1889C123.631 32.9197 123.422 33.7026 123.422 34.5378V40.457H120.54V27.4911H123.14ZM135.949 40.7076C135.03 40.7076 134.132 40.551 133.255 40.2378C132.399 39.9037 131.689 39.4131 131.125 38.7658L132.347 37.0746C132.89 37.5966 133.443 37.9933 134.007 38.2647C134.591 38.5153 135.166 38.6405 135.729 38.6405C136.147 38.6405 136.533 38.5883 136.888 38.484C137.243 38.3796 137.525 38.2125 137.734 37.9829C137.963 37.7323 138.078 37.3982 138.078 36.9807C138.078 36.5213 137.922 36.1559 137.608 35.8845C137.316 35.6131 136.93 35.3938 136.45 35.2268C135.99 35.0598 135.5 34.9032 134.978 34.757C133.913 34.4021 133.099 33.9114 132.535 33.285C131.971 32.6587 131.689 31.8966 131.689 30.9988C131.689 30.3098 131.856 29.673 132.19 29.0883C132.545 28.4828 133.057 27.9922 133.725 27.6164C134.414 27.2405 135.26 27.0526 136.262 27.0526C137.16 27.0526 137.963 27.1675 138.673 27.3971C139.383 27.6059 140.051 27.9609 140.678 28.462L139.519 30.2785C139.143 29.8817 138.694 29.5894 138.172 29.4015C137.65 29.2136 137.18 29.1092 136.763 29.0883C136.408 29.0675 136.063 29.1197 135.729 29.2449C135.416 29.3702 135.155 29.5477 134.946 29.7774C134.738 30.007 134.633 30.2785 134.633 30.5916C134.633 31.0301 134.779 31.385 135.072 31.6565C135.364 31.9279 135.74 32.1471 136.199 32.3142C136.679 32.4603 137.149 32.6169 137.608 32.7839C138.256 32.9719 138.83 33.2224 139.331 33.5356C139.832 33.8488 140.229 34.235 140.521 34.6944C140.834 35.1537 140.991 35.7279 140.991 36.4169C140.991 37.1894 140.803 37.9098 140.427 38.5779C140.072 39.2252 139.519 39.7471 138.767 40.1438C138.036 40.5197 137.097 40.7076 135.949 40.7076ZM145.069 40.457V16.2163H147.919V30.4977L147.857 29.9653C148.295 29.1092 148.963 28.3993 149.861 27.8356C150.78 27.2719 151.855 26.99 153.087 26.99C154.319 26.99 155.321 27.3554 156.094 28.0861C156.887 28.796 157.294 29.7252 157.315 30.8735V40.457H154.371V31.907C154.35 31.1971 154.141 30.623 153.745 30.1845C153.369 29.7252 152.774 29.4955 151.959 29.4955C151.208 29.4955 150.529 29.7147 149.924 30.1532C149.318 30.5708 148.838 31.1449 148.483 31.8757C148.149 32.6065 147.982 33.4416 147.982 34.3812V40.457H145.069ZM162.38 27.4911H165.293V40.457H162.38V27.4911ZM162.161 22.7933C162.161 22.3339 162.339 21.9477 162.693 21.6345C163.069 21.3213 163.476 21.1647 163.915 21.1647C164.353 21.1647 164.74 21.3213 165.074 21.6345C165.429 21.9477 165.606 22.3339 165.606 22.7933C165.606 23.2735 165.429 23.6702 165.074 23.9834C164.74 24.2757 164.353 24.4219 163.915 24.4219C163.476 24.4219 163.069 24.2653 162.693 23.9521C162.339 23.6389 162.161 23.2526 162.161 22.7933ZM177.974 40.7702C176.993 40.7702 176.043 40.5405 175.124 40.0812C174.226 39.6219 173.527 39.0059 173.026 38.2334L173.214 37.3252V46.6895H170.332V27.3032H172.838L173.245 30.623L172.932 29.7147C173.558 28.9213 174.352 28.2636 175.312 27.7416C176.272 27.2197 177.348 26.9587 178.538 26.9587C179.749 26.9587 180.835 27.251 181.795 27.8356C182.776 28.4202 183.549 29.2345 184.113 30.2785C184.676 31.3224 184.958 32.5438 184.958 33.9427C184.958 35.3416 184.655 36.5526 184.05 37.5757C183.444 38.5988 182.609 39.3922 181.544 39.9559C180.5 40.4988 179.31 40.7702 177.974 40.7702ZM177.41 38.4526C178.246 38.4526 179.008 38.2647 179.697 37.8889C180.407 37.4922 180.97 36.9598 181.388 36.2916C181.805 35.6026 182.014 34.8301 182.014 33.9741C182.014 33.0971 181.816 32.3246 181.419 31.6565C181.022 30.9675 180.49 30.4246 179.822 30.0279C179.175 29.6312 178.444 29.4328 177.63 29.4328C176.878 29.4328 176.199 29.579 175.594 29.8713C174.988 30.1636 174.487 30.5708 174.091 31.0927C173.694 31.5938 173.412 32.1785 173.245 32.8466V35.0076C173.349 35.6757 173.6 36.2708 173.997 36.7927C174.393 37.3147 174.884 37.7219 175.469 38.0142C176.074 38.3065 176.721 38.4526 177.41 38.4526Z" fill="white"/>
<defs>
<linearGradient id="paint0_linear_835_14651" x1="105.38" y1="-0.397247" x2="105.38" y2="57.5239" gradientUnits="userSpaceOnUse">
<stop stop-color="#001D45"/>
<stop offset="0.89" stop-color="#000B25"/>
</linearGradient>
<linearGradient id="paint1_linear_835_14651" x1="0" y1="31.4228" x2="210.766" y2="31.4228" gradientUnits="userSpaceOnUse">
<stop stop-color="#D6C896"/>
<stop offset="0.08" stop-color="#D5C28C"/>
<stop offset="0.39" stop-color="#D0AD6A"/>
<stop offset="0.42" stop-color="#DABB7F"/>
<stop offset="0.47" stop-color="#E9D19F"/>
<stop offset="0.53" stop-color="#F4E0B6"/>
<stop offset="0.58" stop-color="#FBEAC4"/>
<stop offset="0.62" stop-color="#FDEDC9"/>
<stop offset="0.72" stop-color="#FCEBC6"/>
<stop offset="0.79" stop-color="#F7E4BC"/>
<stop offset="0.86" stop-color="#EFD9AC"/>
<stop offset="0.92" stop-color="#E4CA95"/>
<stop offset="0.98" stop-color="#D6B678"/>
<stop offset="1" stop-color="#D0AD6A"/>
</linearGradient>
</defs>
</svg>
