<svg width="356" height="310" viewBox="0 0 356 310" fill="none" xmlns="http://www.w3.org/2000/svg">
<g clip-path="url(#clip0_1286_20406)">
<path d="M108.914 188.273C155.386 188.273 193.059 150.767 193.059 104.5C193.059 58.2339 155.386 20.7275 108.914 20.7275C62.4423 20.7275 24.7695 58.2339 24.7695 104.5C24.7695 150.767 62.4423 188.273 108.914 188.273Z" fill="url(#paint0_linear_1286_20406)"/>
<path d="M108.914 20.5547C62.4177 20.5547 24.7695 58.0365 24.7695 104.327H193.232C193.232 58.2092 155.41 20.5547 108.914 20.5547Z" fill="url(#paint1_linear_1286_20406)"/>
<path d="M24.7695 104.5H193.232" stroke="url(#paint2_linear_1286_20406)" stroke-width="0.5668" stroke-miterlimit="10"/>
<path d="M108.914 188.273C155.386 188.273 193.059 150.767 193.059 104.5C193.059 58.2339 155.386 20.7275 108.914 20.7275C62.4423 20.7275 24.7695 58.2339 24.7695 104.5C24.7695 150.767 62.4423 188.273 108.914 188.273Z" stroke="url(#paint3_linear_1286_20406)" stroke-width="1.9536" stroke-miterlimit="10"/>
<path d="M108.914 171.173C163.338 171.173 207.458 141.322 207.458 104.5C207.458 67.6775 163.338 37.8271 108.914 37.8271C54.4891 37.8271 10.3691 67.6775 10.3691 104.5C10.3691 141.322 54.4891 171.173 108.914 171.173Z" stroke="url(#paint4_linear_1286_20406)" stroke-width="1.0011" stroke-miterlimit="10"/>
<path d="M1.00032 108.3C0.826826 94.3091 3.42924 80.1455 8.80755 67.0182C14.1859 53.8909 22.1666 41.9727 32.2292 31.7818C42.1184 21.7636 54.263 13.8182 67.275 8.29091C80.4606 2.76364 94.6871 0 108.914 0C123.14 0 137.367 2.76364 150.552 8.29091C163.738 13.8182 175.709 21.7636 185.771 31.7818C195.834 41.8 203.815 53.8909 209.193 67.0182C214.571 80.1455 217.174 94.3091 217 108.3C216.827 80.1455 205.029 52.3364 184.904 32.8182C174.841 22.9727 163.044 15.0273 150.032 9.67273C137.02 4.31818 122.967 1.72727 108.914 1.72727C94.8606 1.72727 80.8075 4.49091 67.969 9.84545C54.9569 15.0273 43.1594 22.9727 33.0967 32.8182C12.9714 52.3364 1.17381 80.1455 1.00032 108.3Z" fill="url(#paint5_linear_1286_20406)"/>
</g>
<path d="M79.3642 64.9374C79.3642 74.5267 85.9821 82.2701 95.7064 82.2701V81.5048C89.1335 81.5048 81.6602 76.9127 81.6602 64.9374C81.6602 53.0071 89.1335 48.4601 95.7064 48.4601C102.279 48.4601 109.753 53.0071 109.753 64.9374C109.753 80.3343 93.0953 85.5116 84.1813 89.1132L84.4064 89.7885C90.6192 87.8526 93.2303 87.4024 97.057 87.4024C101.334 87.4024 104.125 91.7243 107.727 91.7243C109.302 91.7243 111.418 91.004 113.129 88.1677L112.679 87.8976C111.193 89.4733 110.023 89.9685 108.492 89.9685C106.286 89.9685 102.144 85.5566 98.0925 85.5566C95.7064 85.5566 94.2658 85.8717 92.9152 86.3219C102.594 82.9454 112.049 75.6072 112.049 64.9374C112.049 55.3932 105.431 47.6948 95.7064 47.6948C85.9821 47.6948 79.3642 55.3932 79.3642 64.9374ZM116.048 82H139.009L140.854 73.5362L140.044 73.3562C138.693 78.9837 136.442 80.3343 130.77 80.3343H117.039C117.039 70.4299 139.324 66.0629 139.324 56.7888C139.324 50.7561 134.462 47.9649 129.104 47.9649C122.982 47.9649 119.065 50.9812 116.634 56.5637L118.885 58.0043C120.64 52.692 123.027 48.7752 129.104 48.7752C133.381 48.7752 137.748 51.0262 137.748 55.9784C137.748 65.1625 116.048 66.7832 116.048 82Z" fill="#00226D"/>
<path d="M95.7064 82.2701V83.2701H96.7064V82.2701H95.7064ZM95.7064 81.5048H96.7064V80.5048H95.7064V81.5048ZM84.1813 89.1132L83.8067 88.186L82.9355 88.538L83.2326 89.4294L84.1813 89.1132ZM84.4064 89.7885L83.4577 90.1047L83.7678 91.0349L84.7039 90.7432L84.4064 89.7885ZM113.129 88.1677L113.985 88.6842L114.503 87.8259L113.644 87.3102L113.129 88.1677ZM112.679 87.8976L113.193 87.0401L112.503 86.6261L111.951 87.2116L112.679 87.8976ZM92.9152 86.3219L92.5858 85.3777L93.2314 87.2706L92.9152 86.3219ZM78.3642 64.9374C78.3642 74.9942 85.3487 83.2701 95.7064 83.2701V81.2701C86.6155 81.2701 80.3642 74.0592 80.3642 64.9374H78.3642ZM96.7064 82.2701V81.5048H94.7064V82.2701H96.7064ZM95.7064 80.5048C92.6448 80.5048 89.3974 79.4351 86.9196 76.9988C84.4543 74.5748 82.6602 70.7078 82.6602 64.9374H80.6602C80.6602 71.1423 82.6027 75.559 85.5174 78.4249C88.4195 81.2784 92.1952 82.5048 95.7064 82.5048V80.5048ZM82.6602 64.9374C82.6602 59.1907 84.4535 55.3473 86.9173 52.9402C89.3942 50.5203 92.6421 49.4601 95.7064 49.4601V47.4601C92.1979 47.4601 88.4226 48.6734 85.5196 51.5096C82.6035 54.3586 80.6602 58.7539 80.6602 64.9374H82.6602ZM95.7064 49.4601C98.7708 49.4601 102.019 50.5203 104.496 52.9402C106.959 55.3473 108.753 59.1907 108.753 64.9374H110.753C110.753 58.7539 108.809 54.3586 105.893 51.5096C102.99 48.6734 99.215 47.4601 95.7064 47.4601V49.4601ZM108.753 64.9374C108.753 72.1982 104.854 77.0719 99.739 80.6274C94.5791 84.214 88.336 86.356 83.8067 88.186L84.5559 90.0403C88.9406 88.2688 95.4831 86.0213 100.88 82.2696C106.323 78.4868 110.753 73.0735 110.753 64.9374H108.753ZM83.2326 89.4294L83.4577 90.1047L85.3551 89.4722L85.13 88.7969L83.2326 89.4294ZM84.7039 90.7432C90.867 88.8228 93.3706 88.4024 97.057 88.4024V86.4024C93.0901 86.4024 90.3713 86.8824 84.1089 88.8337L84.7039 90.7432ZM97.057 88.4024C98.864 88.4024 100.399 89.3093 102.105 90.4048C103.7 91.4291 105.57 92.7243 107.727 92.7243V90.7243C106.282 90.7243 104.956 89.8585 103.185 88.7219C101.526 87.6565 99.527 86.4024 97.057 86.4024V88.4024ZM107.727 92.7243C109.658 92.7243 112.096 91.8164 113.985 88.6842L112.273 87.6512C110.741 90.1916 108.947 90.7243 107.727 90.7243V92.7243ZM113.644 87.3102L113.193 87.0401L112.164 88.7551L112.615 89.0252L113.644 87.3102ZM111.951 87.2116C111.259 87.9455 110.692 88.3722 110.17 88.6221C109.662 88.8659 109.14 88.9685 108.492 88.9685V90.9685C109.375 90.9685 110.204 90.8236 111.034 90.4258C111.852 90.0342 112.613 89.4254 113.407 88.5836L111.951 87.2116ZM108.492 88.9685C108.217 88.9685 107.743 88.8125 106.983 88.4003C106.249 88.0017 105.45 87.4824 104.503 86.9076C102.705 85.8164 100.433 84.5566 98.0925 84.5566V86.5566C99.8037 86.5566 101.629 87.5028 103.466 88.6175C104.336 89.1457 105.24 89.7294 106.029 90.158C106.794 90.5731 107.664 90.9685 108.492 90.9685V88.9685ZM98.0925 84.5566C95.5977 84.5566 94.0503 84.8895 92.599 85.3732L93.2314 87.2706C94.4813 86.854 95.8152 86.5566 98.0925 86.5566V84.5566ZM93.2446 87.2661C103.041 83.8486 113.049 76.2704 113.049 64.9374H111.049C111.049 74.9439 102.148 82.0422 92.5858 85.3777L93.2446 87.2661ZM113.049 64.9374C113.049 54.9204 106.059 46.6948 95.7064 46.6948V48.6948C104.802 48.6948 111.049 55.8659 111.049 64.9374H113.049ZM95.7064 46.6948C85.3535 46.6948 78.3642 54.9204 78.3642 64.9374H80.3642C80.3642 55.8659 86.6107 48.6948 95.7064 48.6948V46.6948ZM116.048 82H115.048V83H116.048V82ZM139.009 82V83H139.814L139.986 82.2131L139.009 82ZM140.854 73.5362L141.831 73.7493L142.044 72.7761L141.071 72.5601L140.854 73.5362ZM140.044 73.3562L140.261 72.38L139.301 72.1667L139.072 73.1228L140.044 73.3562ZM117.039 80.3343H116.039V81.3343H117.039V80.3343ZM116.634 56.5637L115.717 56.1644L115.376 56.9463L116.095 57.406L116.634 56.5637ZM118.885 58.0043L118.346 58.8466L119.43 59.5407L119.834 58.3182L118.885 58.0043ZM116.048 83H139.009V81H116.048V83ZM139.986 82.2131L141.831 73.7493L139.877 73.3232L138.032 81.7869L139.986 82.2131ZM141.071 72.5601L140.261 72.38L139.827 74.3323L140.638 74.5124L141.071 72.5601ZM139.072 73.1228C138.414 75.8614 137.589 77.316 136.442 78.145C135.273 78.9895 133.571 79.3343 130.77 79.3343V81.3343C133.641 81.3343 135.901 81.0037 137.613 79.766C139.348 78.5128 140.323 76.4784 141.016 73.5895L139.072 73.1228ZM130.77 79.3343H117.039V81.3343H130.77V79.3343ZM118.039 80.3343C118.039 78.2655 119.196 76.3824 121.203 74.5126C123.209 72.6426 125.909 70.9284 128.712 69.1727C131.472 67.444 134.342 65.6706 136.508 63.7329C138.668 61.8012 140.324 59.5382 140.324 56.7888H138.324C138.324 58.6765 137.194 60.4371 135.175 62.2421C133.164 64.041 130.462 65.7173 127.651 67.4777C124.883 69.211 122.011 71.0253 119.839 73.0495C117.667 75.0739 116.039 77.4509 116.039 80.3343H118.039ZM140.324 56.7888C140.324 53.4694 138.97 50.9679 136.833 49.3223C134.729 47.702 131.941 46.9649 129.104 46.9649V48.9649C131.625 48.9649 133.946 49.6234 135.613 50.9069C137.247 52.1651 138.324 54.0755 138.324 56.7888H140.324ZM129.104 46.9649C125.871 46.9649 123.15 47.7646 120.906 49.355C118.671 50.9397 116.984 53.2556 115.717 56.1644L117.551 56.963C118.715 54.2893 120.202 52.3058 122.063 50.9867C123.916 49.6733 126.215 48.9649 129.104 48.9649V46.9649ZM116.095 57.406L118.346 58.8466L119.424 57.1621L117.173 55.7214L116.095 57.406ZM119.834 58.3182C120.701 55.695 121.68 53.5657 123.096 52.0898C124.466 50.6602 126.313 49.7752 129.104 49.7752V47.7752C125.817 47.7752 123.433 48.8486 121.652 50.7055C119.916 52.5161 118.824 55.0013 117.935 57.6905L119.834 58.3182ZM129.104 49.7752C131.085 49.7752 133.025 50.2993 134.442 51.3287C135.824 52.3331 136.748 53.8403 136.748 55.9784H138.748C138.748 53.1644 137.488 51.07 135.618 49.7108C133.782 48.3766 131.4 47.7752 129.104 47.7752V49.7752ZM136.748 55.9784C136.748 57.8258 135.674 59.3939 133.72 61.0081C131.75 62.6368 129.142 64.1124 126.361 65.8835C120.939 69.3369 115.048 73.8086 115.048 82H117.048C117.048 74.9747 122.007 71.0276 127.435 67.5704C130.08 65.8862 132.897 64.2836 134.995 62.5498C137.11 60.8016 138.748 58.7231 138.748 55.9784H136.748Z" fill="#00226D"/>
<path d="M65.9803 146H84.3506L85.8274 139.228L85.179 139.084C84.0984 143.587 82.2974 144.667 77.7589 144.667H66.7728C66.7728 136.743 84.6027 133.249 84.6027 125.829C84.6027 121.002 80.7125 118.769 76.4262 118.769C71.5274 118.769 68.3937 121.182 66.4486 125.649L68.2496 126.801C69.6544 122.551 71.5634 119.417 76.4262 119.417C79.8481 119.417 83.342 121.218 83.342 125.18C83.342 132.529 65.9803 133.825 65.9803 146ZM88.1847 132.456C88.1847 140.057 90.8862 146.216 98.2343 146.216C105.582 146.216 108.284 140.057 108.284 132.456C108.284 124.856 105.582 118.733 98.2343 118.733C90.8862 118.733 88.1847 124.856 88.1847 132.456ZM98.2343 119.345C102.917 119.345 106.627 122.479 106.627 132.456C106.627 142.434 102.917 145.604 98.2343 145.604C93.5517 145.604 89.8416 142.434 89.8416 132.456C89.8416 122.479 93.5517 119.345 98.2343 119.345ZM110.794 146H129.164L130.641 139.228L129.993 139.084C128.912 143.587 127.111 144.667 122.573 144.667H111.587C111.587 136.743 129.417 133.249 129.417 125.829C129.417 121.002 125.526 118.769 121.24 118.769C116.341 118.769 113.208 121.182 111.263 125.649L113.064 126.801C114.468 122.551 116.377 119.417 121.24 119.417C124.662 119.417 128.156 121.218 128.156 125.18C128.156 132.529 110.794 133.825 110.794 146ZM142.796 146.216C147.659 146.216 152.377 143.875 152.377 138.436C152.377 131.016 147.118 130.547 141.103 130.547L150.684 120.354V118.985H135.376L133.899 125.757L134.548 125.901C135.628 121.434 137.393 120.318 141.824 120.318L149.64 120.354L140.167 130.583L140.563 131.268C146.182 131.268 150.757 131.808 150.757 138.472C150.757 143.298 147.371 145.604 142.796 145.604C137.789 145.604 136.06 142.398 134.62 138.184L132.638 139.336C134.656 143.803 137.825 146.216 142.796 146.216Z" fill="#00226D"/>
<path d="M65.9803 146H64.9803V147H65.9803V146ZM84.3506 146V147H85.156L85.3276 146.213L84.3506 146ZM85.8274 139.228L86.8044 139.441L87.0166 138.468L86.0443 138.252L85.8274 139.228ZM85.179 139.084L85.3959 138.108L84.4361 137.895L84.2066 138.851L85.179 139.084ZM66.7728 144.667H65.7728V145.667H66.7728V144.667ZM66.4486 125.649L65.5318 125.249L65.1913 126.031L65.9096 126.491L66.4486 125.649ZM68.2496 126.801L67.7106 127.644L68.795 128.338L69.1991 127.115L68.2496 126.801ZM65.9803 147H84.3506V145H65.9803V147ZM85.3276 146.213L86.8044 139.441L84.8503 139.015L83.3735 145.787L85.3276 146.213ZM86.0443 138.252L85.3959 138.108L84.9621 140.06L85.6104 140.204L86.0443 138.252ZM84.2066 138.851C83.6844 141.027 83.0391 142.133 82.1799 142.754C81.2994 143.39 79.9932 143.667 77.7589 143.667V145.667C80.0631 145.667 81.9267 145.404 83.3514 144.375C84.7975 143.33 85.5931 141.644 86.1514 139.318L84.2066 138.851ZM77.7589 143.667H66.7728V145.667H77.7589V143.667ZM67.7728 144.667C67.7728 143.093 68.6518 141.636 70.2405 140.156C71.8293 138.675 73.972 137.313 76.2185 135.906C78.4219 134.527 80.7343 133.098 82.4834 131.534C84.2258 129.976 85.6027 128.115 85.6027 125.829H83.6027C83.6027 127.253 82.7509 128.611 81.1502 130.043C79.5562 131.468 77.4111 132.8 75.157 134.211C72.946 135.596 70.6312 137.058 68.8769 138.693C67.1225 140.328 65.7728 142.279 65.7728 144.667H67.7728ZM85.6027 125.829C85.6027 123.112 84.4918 121.052 82.732 119.697C81.0049 118.366 78.7275 117.769 76.4262 117.769V119.769C78.4112 119.769 80.222 120.288 81.5116 121.281C82.7685 122.249 83.6027 123.719 83.6027 125.829H85.6027ZM76.4262 117.769C73.8045 117.769 71.5858 118.418 69.7515 119.718C67.9252 121.012 66.5555 122.899 65.5318 125.249L67.3654 126.048C68.2868 123.932 69.4565 122.379 70.908 121.35C72.3516 120.327 74.1491 119.769 76.4262 119.769V117.769ZM65.9096 126.491L67.7106 127.644L68.7887 125.959L66.9877 124.806L65.9096 126.491ZM69.1991 127.115C69.8906 125.023 70.6627 123.355 71.7629 122.208C72.8188 121.106 74.2428 120.417 76.4262 120.417V118.417C73.7468 118.417 71.785 119.295 70.3194 120.823C68.8982 122.305 68.0134 124.329 67.3001 126.488L69.1991 127.115ZM76.4262 120.417C77.9796 120.417 79.4879 120.829 80.5794 121.622C81.6365 122.39 82.342 123.537 82.342 125.18H84.342C84.342 122.861 83.3005 121.127 81.7551 120.004C80.2442 118.906 78.2946 118.417 76.4262 118.417V120.417ZM82.342 125.18C82.342 126.569 81.5388 127.772 79.9922 129.051C78.4281 130.343 76.3624 131.511 74.124 132.937C69.7866 135.699 64.9803 139.33 64.9803 146H66.9803C66.9803 140.496 70.8549 137.39 75.1984 134.624C77.3004 133.285 79.5751 131.99 81.2663 130.592C82.975 129.18 84.342 127.466 84.342 125.18H82.342ZM87.1847 132.456C87.1847 136.348 87.8717 140.007 89.6118 142.726C91.3933 145.509 94.2265 147.216 98.2343 147.216V145.216C94.894 145.216 92.7024 143.844 91.2962 141.647C89.8484 139.386 89.1847 136.165 89.1847 132.456H87.1847ZM98.2343 147.216C102.242 147.216 105.075 145.509 106.857 142.726C108.597 140.007 109.284 136.348 109.284 132.456H107.284C107.284 136.165 106.62 139.386 105.172 141.647C103.766 143.844 101.575 145.216 98.2343 145.216V147.216ZM109.284 132.456C109.284 128.565 108.597 124.914 106.856 122.204C105.073 119.429 102.24 117.733 98.2343 117.733V119.733C101.577 119.733 103.768 121.098 105.173 123.285C106.62 125.537 107.284 128.748 107.284 132.456H109.284ZM98.2343 117.733C94.2289 117.733 91.3953 119.429 89.6126 122.204C87.8717 124.914 87.1847 128.565 87.1847 132.456H89.1847C89.1847 128.748 89.8485 125.537 91.2953 123.285C92.7004 121.098 94.8916 119.733 98.2343 119.733V117.733ZM98.2343 120.345C100.33 120.345 102.099 121.031 103.385 122.757C104.712 124.538 105.627 127.562 105.627 132.456H107.627C107.627 127.373 106.687 123.842 104.989 121.562C103.249 119.226 100.821 118.345 98.2343 118.345V120.345ZM105.627 132.456C105.627 137.35 104.712 140.385 103.383 142.176C102.096 143.912 100.326 144.604 98.2343 144.604V146.604C100.825 146.604 103.251 145.711 104.99 143.367C106.687 141.079 107.627 137.54 107.627 132.456H105.627ZM98.2343 144.604C96.1423 144.604 94.3726 143.912 93.0852 142.176C91.7566 140.385 90.8416 137.35 90.8416 132.456H88.8416C88.8416 137.54 89.7817 141.079 91.4788 143.367C93.2171 145.711 95.6437 146.604 98.2343 146.604V144.604ZM90.8416 132.456C90.8416 127.562 91.7567 124.538 93.0839 122.757C94.3697 121.031 96.1387 120.345 98.2343 120.345V118.345C95.6472 118.345 93.2199 119.226 91.4801 121.562C89.7816 123.842 88.8416 127.373 88.8416 132.456H90.8416ZM110.794 146H109.794V147H110.794V146ZM129.164 146V147H129.97L130.142 146.213L129.164 146ZM130.641 139.228L131.618 139.441L131.831 138.468L130.858 138.252L130.641 139.228ZM129.993 139.084L130.21 138.108L129.25 137.895L129.021 138.851L129.993 139.084ZM111.587 144.667H110.587V145.667H111.587V144.667ZM111.263 125.649L110.346 125.249L110.005 126.031L110.724 126.491L111.263 125.649ZM113.064 126.801L112.525 127.644L113.609 128.338L114.013 127.115L113.064 126.801ZM110.794 147H129.164V145H110.794V147ZM130.142 146.213L131.618 139.441L129.664 139.015L128.187 145.787L130.142 146.213ZM130.858 138.252L130.21 138.108L129.776 140.06L130.424 140.204L130.858 138.252ZM129.021 138.851C128.498 141.027 127.853 142.133 126.994 142.754C126.113 143.39 124.807 143.667 122.573 143.667V145.667C124.877 145.667 126.741 145.404 128.165 144.375C129.611 143.33 130.407 141.644 130.965 139.318L129.021 138.851ZM122.573 143.667H111.587V145.667H122.573V143.667ZM112.587 144.667C112.587 143.093 113.466 141.636 115.054 140.156C116.643 138.675 118.786 137.313 121.032 135.906C123.236 134.527 125.548 133.098 127.297 131.534C129.04 129.976 130.417 128.115 130.417 125.829H128.417C128.417 127.253 127.565 128.611 125.964 130.043C124.37 131.468 122.225 132.8 119.971 134.211C117.76 135.596 115.445 137.058 113.691 138.693C111.936 140.328 110.587 142.279 110.587 144.667H112.587ZM130.417 125.829C130.417 123.112 129.306 121.052 127.546 119.697C125.819 118.366 123.541 117.769 121.24 117.769V119.769C123.225 119.769 125.036 120.288 126.326 121.281C127.582 122.249 128.417 123.719 128.417 125.829H130.417ZM121.24 117.769C118.618 117.769 116.4 118.418 114.565 119.718C112.739 121.012 111.369 122.899 110.346 125.249L112.179 126.048C113.101 123.932 114.27 122.379 115.722 121.35C117.166 120.327 118.963 119.769 121.24 119.769V117.769ZM110.724 126.491L112.525 127.644L113.603 125.959L111.802 124.806L110.724 126.491ZM114.013 127.115C114.705 125.023 115.477 123.355 116.577 122.208C117.633 121.106 119.057 120.417 121.24 120.417V118.417C118.561 118.417 116.599 119.295 115.133 120.823C113.712 122.305 112.827 124.329 112.114 126.488L114.013 127.115ZM121.24 120.417C122.794 120.417 124.302 120.829 125.393 121.622C126.45 122.39 127.156 123.537 127.156 125.18H129.156C129.156 122.861 128.114 121.127 126.569 120.004C125.058 118.906 123.109 118.417 121.24 118.417V120.417ZM127.156 125.18C127.156 126.569 126.353 127.772 124.806 129.051C123.242 130.343 121.176 131.511 118.938 132.937C114.601 135.699 109.794 139.33 109.794 146H111.794C111.794 140.496 115.669 137.39 120.012 134.624C122.114 133.285 124.389 131.99 126.08 130.592C127.789 129.18 129.156 127.466 129.156 125.18H127.156ZM141.103 130.547L140.375 129.863L138.791 131.547H141.103V130.547ZM150.684 120.354L151.413 121.039L151.684 120.75V120.354H150.684ZM150.684 118.985H151.684V117.985H150.684V118.985ZM135.376 118.985V117.985H134.571L134.399 118.772L135.376 118.985ZM133.899 125.757L132.922 125.544L132.71 126.517L133.682 126.733L133.899 125.757ZM134.548 125.901L134.331 126.877L135.289 127.09L135.519 126.136L134.548 125.901ZM141.824 120.318L141.828 119.318H141.824V120.318ZM149.64 120.354L150.374 121.033L151.919 119.364L149.645 119.354L149.64 120.354ZM140.167 130.583L139.433 129.904L138.931 130.446L139.301 131.084L140.167 130.583ZM140.563 131.268L139.697 131.769L139.986 132.268H140.563V131.268ZM134.62 138.184L135.566 137.86L135.171 136.706L134.117 137.319L134.62 138.184ZM132.638 139.336L132.136 138.472L131.356 138.926L131.727 139.748L132.638 139.336ZM142.796 147.216C145.369 147.216 147.985 146.6 149.988 145.182C152.031 143.736 153.377 141.491 153.377 138.436H151.377C151.377 140.82 150.364 142.465 148.833 143.549C147.261 144.662 145.086 145.216 142.796 145.216V147.216ZM153.377 138.436C153.377 136.467 153.029 134.871 152.342 133.598C151.647 132.311 150.642 131.42 149.447 130.817C147.134 129.647 144.072 129.547 141.103 129.547V131.547C144.15 131.547 146.725 131.682 148.545 132.602C149.417 133.042 150.102 133.66 150.582 134.548C151.068 135.449 151.377 136.694 151.377 138.436H153.377ZM141.832 131.232L151.413 121.039L149.956 119.669L140.375 129.863L141.832 131.232ZM151.684 120.354V118.985H149.684V120.354H151.684ZM150.684 117.985H135.376V119.985H150.684V117.985ZM134.399 118.772L132.922 125.544L134.876 125.97L136.353 119.198L134.399 118.772ZM133.682 126.733L134.331 126.877L134.764 124.925L134.116 124.781L133.682 126.733ZM135.519 126.136C136.042 123.974 136.681 122.863 137.525 122.238C138.383 121.602 139.651 121.318 141.824 121.318V119.318C139.565 119.318 137.736 119.592 136.334 120.631C134.918 121.68 134.133 123.361 133.576 125.666L135.519 126.136ZM141.819 121.318L149.635 121.354L149.645 119.354L141.828 119.318L141.819 121.318ZM148.906 119.674L139.433 129.904L140.9 131.263L150.374 121.033L148.906 119.674ZM139.301 131.084L139.697 131.769L141.428 130.767L141.032 130.082L139.301 131.084ZM140.563 132.268C143.405 132.268 145.707 132.42 147.302 133.257C148.063 133.655 148.654 134.208 149.068 134.998C149.489 135.803 149.757 136.915 149.757 138.472H151.757C151.757 136.697 151.452 135.242 150.84 134.071C150.22 132.886 149.317 132.055 148.231 131.485C146.135 130.386 143.339 130.268 140.563 130.268V132.268ZM149.757 138.472C149.757 140.631 149.011 142.115 147.852 143.079C146.666 144.065 144.929 144.604 142.796 144.604V146.604C145.238 146.604 147.48 145.99 149.131 144.617C150.809 143.221 151.757 141.139 151.757 138.472H149.757ZM142.796 144.604C140.542 144.604 139.132 143.898 138.102 142.792C137.02 141.631 136.282 139.956 135.566 137.86L133.673 138.507C134.398 140.626 135.245 142.66 136.639 144.156C138.085 145.707 140.044 146.604 142.796 146.604V144.604ZM134.117 137.319L132.136 138.472L133.141 140.201L135.122 139.048L134.117 137.319ZM131.727 139.748C132.788 142.097 134.185 143.98 136.038 145.271C137.898 146.568 140.141 147.216 142.796 147.216V145.216C140.48 145.216 138.653 144.657 137.182 143.631C135.702 142.599 134.506 141.043 133.55 138.925L131.727 139.748Z" fill="#00226D"/>
<path d="M1.76472 222.523H7.90856V226.51H1.76472V222.523ZM23.7211 207.948H38.7539V212.523H28.4597V217.98H37.3813V222.555H28.4597V232H23.7211V207.948ZM42.5647 217.719H47.1399V232H42.5647V217.719ZM42.4666 212.653C42.4666 211.978 42.7281 211.422 43.251 210.987C43.7956 210.551 44.373 210.333 44.983 210.333C45.593 210.333 46.1486 210.551 46.6497 210.987C47.1726 211.422 47.434 211.978 47.434 212.653C47.434 213.329 47.1726 213.884 46.6497 214.32C46.1486 214.734 45.593 214.941 44.983 214.941C44.373 214.941 43.7956 214.734 43.251 214.32C42.7281 213.884 42.4666 213.329 42.4666 212.653ZM55.9694 217.719L56.3942 221.64L56.2962 221.052C56.7101 220.203 57.2766 219.484 57.9955 218.895C58.7145 218.285 59.4225 217.817 60.1197 217.49C60.8387 217.163 61.3833 217 61.7537 217L61.525 221.575C60.4574 221.444 59.5424 221.619 58.7798 222.098C58.0173 222.577 57.4291 223.209 57.0151 223.993C56.6012 224.778 56.3942 225.584 56.3942 226.412V232H51.8517V217.719H55.9694ZM69.8961 232.294C68.7197 232.294 67.6194 232.087 66.5955 231.673C65.5933 231.259 64.7436 230.682 64.0464 229.941L65.9419 227.425C66.639 228.057 67.2817 228.514 67.87 228.797C68.48 229.059 69.0247 229.19 69.504 229.19C69.8744 229.19 70.2012 229.157 70.4844 229.091C70.7894 229.004 71.029 228.885 71.2033 228.732C71.3776 228.558 71.4648 228.34 71.4648 228.078C71.4648 227.708 71.3123 227.414 71.0073 227.196C70.724 226.978 70.3537 226.804 69.8961 226.673C69.4386 226.521 68.9484 226.368 68.4255 226.216C67.1183 225.802 66.1706 225.203 65.5824 224.418C65.0159 223.612 64.7327 222.741 64.7327 221.804C64.7327 221.085 64.9179 220.366 65.2883 219.647C65.6804 218.906 66.2904 218.296 67.1183 217.817C67.968 217.316 69.0574 217.065 70.3863 217.065C71.5846 217.065 72.5977 217.185 73.4256 217.425C74.2535 217.664 75.0378 218.057 75.7785 218.601L74.0465 221.281C73.6326 220.954 73.1641 220.682 72.6413 220.464C72.1402 220.224 71.6718 220.094 71.236 220.072C70.8439 220.05 70.5062 220.094 70.2229 220.203C69.9615 220.311 69.7545 220.453 69.602 220.627C69.4495 220.802 69.3733 220.987 69.3733 221.183C69.3515 221.597 69.504 221.924 69.8308 222.163C70.1794 222.403 70.6151 222.588 71.138 222.719C71.6609 222.85 72.1728 223.002 72.6739 223.176C73.3711 223.394 73.9702 223.688 74.4713 224.059C74.9724 224.429 75.3537 224.876 75.6151 225.399C75.8984 225.9 76.04 226.51 76.04 227.229C76.04 228.1 75.8112 228.928 75.3537 229.712C74.918 230.475 74.2426 231.096 73.3275 231.575C72.4343 232.054 71.2905 232.294 69.8961 232.294ZM81.2121 211.444H85.7873V217.653H89.2514V221.216H85.7873V232H81.2121V221.216H78.9899V217.653H81.2121V211.444ZM104.113 207.948H120.518V212.523H108.851V217.653H119.178V222.229H108.851V227.425H120.975V232H104.113V207.948ZM124.538 222.523H130.682V226.51H124.538V222.523ZM139.756 232.294C138.58 232.294 137.479 232.087 136.455 231.673C135.453 231.259 134.603 230.682 133.906 229.941L135.802 227.425C136.499 228.057 137.142 228.514 137.73 228.797C138.34 229.059 138.885 229.19 139.364 229.19C139.734 229.19 140.061 229.157 140.344 229.091C140.649 229.004 140.889 228.885 141.063 228.732C141.238 228.558 141.325 228.34 141.325 228.078C141.325 227.708 141.172 227.414 140.867 227.196C140.584 226.978 140.214 226.804 139.756 226.673C139.298 226.521 138.808 226.368 138.285 226.216C136.978 225.802 136.03 225.203 135.442 224.418C134.876 223.612 134.593 222.741 134.593 221.804C134.593 221.085 134.778 220.366 135.148 219.647C135.54 218.906 136.15 218.296 136.978 217.817C137.828 217.316 138.917 217.065 140.246 217.065C141.444 217.065 142.458 217.185 143.285 217.425C144.113 217.664 144.898 218.057 145.638 218.601L143.906 221.281C143.492 220.954 143.024 220.682 142.501 220.464C142 220.224 141.532 220.094 141.096 220.072C140.704 220.05 140.366 220.094 140.083 220.203C139.821 220.311 139.614 220.453 139.462 220.627C139.309 220.802 139.233 220.987 139.233 221.183C139.211 221.597 139.364 221.924 139.691 222.163C140.039 222.403 140.475 222.588 140.998 222.719C141.521 222.85 142.033 223.002 142.534 223.176C143.231 223.394 143.83 223.688 144.331 224.059C144.832 224.429 145.214 224.876 145.475 225.399C145.758 225.9 145.9 226.51 145.9 227.229C145.9 228.1 145.671 228.928 145.214 229.712C144.778 230.475 144.102 231.096 143.187 231.575C142.294 232.054 141.15 232.294 139.756 232.294ZM158.686 232.392C157.837 232.392 156.998 232.24 156.17 231.935C155.364 231.608 154.689 231.15 154.144 230.562L154.275 229.222V238.863H149.732V217.392H153.654L154.307 220.17L153.948 219.189C154.689 218.558 155.516 218.035 156.431 217.621C157.347 217.207 158.403 217 159.601 217C160.93 217 162.118 217.316 163.164 217.948C164.209 218.558 165.026 219.451 165.615 220.627C166.225 221.782 166.53 223.176 166.53 224.81C166.53 226.423 166.192 227.795 165.517 228.928C164.841 230.061 163.915 230.922 162.739 231.51C161.562 232.098 160.211 232.392 158.686 232.392ZM157.771 228.797C158.512 228.797 159.188 228.634 159.798 228.307C160.429 227.98 160.93 227.523 161.301 226.935C161.693 226.325 161.889 225.638 161.889 224.876C161.889 224.07 161.715 223.372 161.366 222.784C161.039 222.174 160.582 221.706 159.994 221.379C159.427 221.03 158.795 220.856 158.098 220.856C157.488 220.856 156.943 220.943 156.464 221.118C156.007 221.27 155.593 221.51 155.222 221.837C154.874 222.142 154.569 222.534 154.307 223.013V226.51C154.482 226.967 154.732 227.37 155.059 227.719C155.386 228.068 155.778 228.34 156.235 228.536C156.715 228.71 157.227 228.797 157.771 228.797ZM169.014 224.68C169.014 223.22 169.352 221.913 170.027 220.758C170.724 219.603 171.694 218.699 172.936 218.046C174.178 217.37 175.605 217.033 177.217 217.033C178.851 217.033 180.267 217.37 181.465 218.046C182.663 218.699 183.578 219.603 184.21 220.758C184.864 221.913 185.191 223.22 185.191 224.68C185.191 226.139 184.864 227.457 184.21 228.634C183.578 229.789 182.663 230.704 181.465 231.379C180.267 232.054 178.829 232.392 177.151 232.392C175.583 232.392 174.178 232.087 172.936 231.477C171.716 230.867 170.757 229.985 170.06 228.83C169.363 227.675 169.014 226.292 169.014 224.68ZM173.622 224.712C173.622 225.453 173.774 226.128 174.079 226.739C174.384 227.327 174.798 227.795 175.321 228.144C175.844 228.492 176.432 228.667 177.086 228.667C177.805 228.667 178.426 228.492 178.949 228.144C179.472 227.795 179.875 227.327 180.158 226.739C180.441 226.128 180.583 225.453 180.583 224.712C180.583 223.95 180.441 223.274 180.158 222.686C179.875 222.098 179.472 221.63 178.949 221.281C178.426 220.932 177.805 220.758 177.086 220.758C176.432 220.758 175.844 220.932 175.321 221.281C174.798 221.63 174.384 222.098 174.079 222.686C173.774 223.274 173.622 223.95 173.622 224.712ZM192.913 217.719L193.337 221.64L193.239 221.052C193.653 220.203 194.22 219.484 194.939 218.895C195.658 218.285 196.366 217.817 197.063 217.49C197.782 217.163 198.327 217 198.697 217L198.468 221.575C197.401 221.444 196.486 221.619 195.723 222.098C194.961 222.577 194.372 223.209 193.958 223.993C193.544 224.778 193.337 225.584 193.337 226.412V232H188.795V217.719H192.913ZM203.539 211.444H208.114V217.653H211.578V221.216H208.114V232H203.539V221.216H201.316V217.653H203.539V211.444ZM226.439 232V207.948H233.629C236.047 207.948 238.106 208.307 239.805 209.026C241.505 209.745 242.866 210.704 243.89 211.902C244.936 213.1 245.699 214.44 246.178 215.921C246.657 217.403 246.897 218.895 246.897 220.399C246.897 222.185 246.57 223.797 245.916 225.235C245.285 226.651 244.413 227.871 243.302 228.895C242.191 229.898 240.906 230.671 239.446 231.216C237.986 231.739 236.439 232 234.805 232H226.439ZM231.178 227.425H233.988C235.187 227.425 236.276 227.272 237.256 226.967C238.237 226.64 239.075 226.172 239.773 225.562C240.492 224.952 241.036 224.189 241.407 223.274C241.799 222.338 241.995 221.27 241.995 220.072C241.995 218.503 241.733 217.229 241.211 216.248C240.709 215.246 240.078 214.473 239.315 213.928C238.574 213.383 237.812 213.013 237.028 212.817C236.243 212.599 235.579 212.49 235.034 212.49H231.178V227.425ZM257.926 232.392C256.183 232.392 254.701 232.065 253.481 231.412C252.283 230.758 251.368 229.854 250.736 228.699C250.104 227.545 249.789 226.216 249.789 224.712C249.789 223.274 250.159 221.978 250.9 220.823C251.64 219.669 252.632 218.754 253.874 218.078C255.115 217.381 256.499 217.033 258.024 217.033C260.072 217.033 261.749 217.632 263.057 218.83C264.386 220.006 265.246 221.717 265.638 223.961L254.527 227.49L253.514 225.006L261.553 222.294L260.606 222.719C260.431 222.152 260.115 221.662 259.658 221.248C259.222 220.813 258.558 220.595 257.664 220.595C256.989 220.595 256.39 220.758 255.867 221.085C255.366 221.39 254.974 221.837 254.691 222.425C254.429 222.991 254.298 223.667 254.298 224.451C254.298 225.344 254.462 226.096 254.789 226.706C255.115 227.294 255.562 227.741 256.128 228.046C256.695 228.351 257.327 228.503 258.024 228.503C258.525 228.503 259.004 228.416 259.462 228.242C259.941 228.068 260.41 227.839 260.867 227.556L262.893 230.954C262.131 231.39 261.303 231.739 260.41 232C259.538 232.261 258.71 232.392 257.926 232.392ZM270.336 232V221.706H267.917V217.653H270.336V212.686C270.336 210.812 270.869 209.287 271.937 208.111C273.026 206.913 274.595 206.314 276.643 206.314C277.253 206.314 277.928 206.412 278.669 206.608C279.432 206.782 280.096 207.076 280.662 207.49L278.734 210.791C278.516 210.507 278.255 210.322 277.95 210.235C277.667 210.126 277.394 210.072 277.133 210.072C276.479 210.072 275.946 210.29 275.532 210.725C275.118 211.161 274.911 211.858 274.911 212.817V217.653H278.571V221.706H274.911V232H270.336ZM280.401 217.719H284.976V232H280.401V217.719ZM280.303 212.653C280.303 211.978 280.564 211.422 281.087 210.987C281.632 210.551 282.209 210.333 282.819 210.333C283.429 210.333 283.985 210.551 284.486 210.987C285.009 211.422 285.27 211.978 285.27 212.653C285.27 213.329 285.009 213.884 284.486 214.32C283.985 214.734 283.429 214.941 282.819 214.941C282.209 214.941 281.632 214.734 281.087 214.32C280.564 213.884 280.303 213.329 280.303 212.653ZM22.7254 240.948H38.9346V245.523H33.0849V265H28.3463V245.523H22.7254V240.948ZM38.3579 257.68C38.3579 256.22 38.6956 254.913 39.371 253.758C40.0681 252.603 41.0377 251.699 42.2795 251.046C43.5213 250.37 44.9484 250.033 46.5606 250.033C48.1946 250.033 49.6107 250.37 50.809 251.046C52.0072 251.699 52.9223 252.603 53.5541 253.758C54.2077 254.913 54.5345 256.22 54.5345 257.68C54.5345 259.139 54.2077 260.457 53.5541 261.634C52.9223 262.789 52.0072 263.704 50.809 264.379C49.6107 265.054 48.1728 265.392 46.4952 265.392C44.9266 265.392 43.5213 265.087 42.2795 264.477C41.0594 263.867 40.1008 262.985 39.4037 261.83C38.7065 260.675 38.3579 259.292 38.3579 257.68ZM42.9658 257.712C42.9658 258.453 43.1183 259.128 43.4233 259.739C43.7283 260.327 44.1423 260.795 44.6651 261.144C45.188 261.492 45.7763 261.667 46.4299 261.667C47.1488 261.667 47.7697 261.492 48.2926 261.144C48.8155 260.795 49.2185 260.327 49.5018 259.739C49.785 259.128 49.9266 258.453 49.9266 257.712C49.9266 256.95 49.785 256.274 49.5018 255.686C49.2185 255.098 48.8155 254.63 48.2926 254.281C47.7697 253.932 47.1488 253.758 46.4299 253.758C45.7763 253.758 45.188 253.932 44.6651 254.281C44.1423 254.63 43.7283 255.098 43.4233 255.686C43.1183 256.274 42.9658 256.95 42.9658 257.712ZM62.7466 265.686C61.4612 265.686 60.3828 265.294 59.5113 264.51C58.6398 263.704 58.1823 262.669 58.1387 261.405V250.719H62.7139V259.706C62.7575 260.338 62.9209 260.85 63.2041 261.242C63.4874 261.612 63.9667 261.797 64.6421 261.797C65.3174 261.797 65.8948 261.569 66.3741 261.111C66.8752 260.654 67.2565 260.033 67.5179 259.248C67.8011 258.442 67.9427 257.538 67.9427 256.536V250.719H72.5179V265H68.3676L68.0081 262.386L68.0735 262.68C67.7467 263.268 67.3327 263.791 66.8316 264.248C66.3305 264.706 65.7314 265.054 65.0342 265.294C64.3588 265.556 63.5963 265.686 62.7466 265.686ZM81.341 250.719L81.7659 254.64L81.6678 254.052C82.0818 253.203 82.6482 252.484 83.3672 251.895C84.0862 251.285 84.7942 250.817 85.4914 250.49C86.2104 250.163 86.755 250 87.1254 250L86.8966 254.575C85.8291 254.444 84.914 254.619 84.1515 255.098C83.389 255.577 82.8007 256.209 82.3868 256.993C81.9728 257.778 81.7659 258.584 81.7659 259.412V265H77.2234V250.719H81.341ZM94.7776 250.719L95.1371 253.268L95.0717 253.039C95.5728 252.146 96.2809 251.427 97.1959 250.882C98.111 250.316 99.233 250.033 100.562 250.033C101.913 250.033 103.035 250.436 103.928 251.242C104.843 252.026 105.311 253.05 105.333 254.314V265H100.758V256.013C100.736 255.381 100.562 254.88 100.235 254.51C99.9302 254.118 99.4073 253.921 98.6665 253.921C97.9694 253.921 97.3593 254.15 96.8365 254.608C96.3136 255.065 95.9105 255.686 95.6273 256.471C95.3441 257.255 95.2025 258.159 95.2025 259.183V265H90.6273V250.719H94.7776ZM116.044 265.392C114.715 265.392 113.506 265.131 112.417 264.608C111.349 264.063 110.499 263.235 109.868 262.124C109.236 261.013 108.92 259.597 108.92 257.876C108.92 256.264 109.247 254.869 109.9 253.693C110.554 252.516 111.414 251.612 112.482 250.98C113.55 250.327 114.682 250 115.881 250C117.297 250 118.364 250.24 119.083 250.719C119.824 251.176 120.434 251.688 120.913 252.255L120.717 252.81L121.142 250.719H125.391V265H120.815V261.895L121.175 262.876C121.131 262.876 121.001 263.007 120.783 263.268C120.565 263.508 120.238 263.802 119.802 264.15C119.388 264.477 118.866 264.76 118.234 265C117.624 265.261 116.894 265.392 116.044 265.392ZM117.351 261.667C117.896 261.667 118.386 261.59 118.822 261.438C119.258 261.264 119.639 261.024 119.966 260.719C120.293 260.392 120.576 259.989 120.815 259.51V256.013C120.641 255.534 120.38 255.131 120.031 254.804C119.683 254.455 119.269 254.194 118.789 254.02C118.31 253.823 117.776 253.725 117.188 253.725C116.534 253.725 115.924 253.9 115.358 254.248C114.813 254.575 114.377 255.033 114.051 255.621C113.724 256.209 113.56 256.884 113.56 257.647C113.56 258.41 113.735 259.096 114.083 259.706C114.432 260.316 114.889 260.795 115.456 261.144C116.044 261.492 116.676 261.667 117.351 261.667ZM134.255 250.719L134.615 253.235L134.549 253.039C135.116 252.081 135.824 251.34 136.674 250.817C137.523 250.272 138.547 250 139.746 250C140.53 250 141.216 250.109 141.804 250.327C142.414 250.545 142.926 250.871 143.34 251.307C143.754 251.721 144.038 252.266 144.19 252.941L144.027 252.974C144.637 252.081 145.367 251.362 146.216 250.817C147.088 250.272 147.992 250 148.929 250C150.345 250 151.467 250.403 152.295 251.209C153.144 251.993 153.58 253.017 153.602 254.281V265H149.059V256.176C149.038 255.545 148.94 255.033 148.765 254.64C148.591 254.226 148.188 253.998 147.556 253.954C146.815 253.954 146.184 254.216 145.661 254.738C145.16 255.24 144.778 255.893 144.517 256.699C144.277 257.484 144.157 258.301 144.157 259.15V265H139.582V256.176C139.56 255.545 139.441 255.033 139.223 254.64C139.027 254.226 138.613 253.998 137.981 253.954C137.262 253.954 136.652 254.216 136.151 254.738C135.671 255.24 135.301 255.882 135.04 256.667C134.8 257.451 134.68 258.257 134.68 259.085V265H130.105V250.719H134.255ZM165.343 265.392C163.6 265.392 162.119 265.065 160.899 264.412C159.7 263.758 158.785 262.854 158.154 261.699C157.522 260.545 157.206 259.216 157.206 257.712C157.206 256.274 157.576 254.978 158.317 253.823C159.058 252.669 160.049 251.754 161.291 251.078C162.533 250.381 163.916 250.033 165.441 250.033C167.489 250.033 169.167 250.632 170.474 251.83C171.803 253.006 172.663 254.717 173.056 256.961L161.944 260.49L160.931 258.006L168.971 255.294L168.023 255.719C167.849 255.152 167.533 254.662 167.075 254.248C166.639 253.813 165.975 253.595 165.082 253.595C164.406 253.595 163.807 253.758 163.284 254.085C162.783 254.39 162.391 254.837 162.108 255.425C161.846 255.991 161.716 256.667 161.716 257.451C161.716 258.344 161.879 259.096 162.206 259.706C162.533 260.294 162.979 260.741 163.546 261.046C164.112 261.351 164.744 261.503 165.441 261.503C165.942 261.503 166.422 261.416 166.879 261.242C167.358 261.068 167.827 260.839 168.284 260.556L170.311 263.954C169.548 264.39 168.72 264.739 167.827 265C166.955 265.261 166.128 265.392 165.343 265.392ZM180.531 250.719L180.89 253.268L180.825 253.039C181.326 252.146 182.034 251.427 182.949 250.882C183.864 250.316 184.986 250.033 186.315 250.033C187.666 250.033 188.788 250.436 189.681 251.242C190.596 252.026 191.065 253.05 191.086 254.314V265H186.511V256.013C186.489 255.381 186.315 254.88 185.988 254.51C185.683 254.118 185.16 253.921 184.42 253.921C183.722 253.921 183.112 254.15 182.59 254.608C182.067 255.065 181.664 255.686 181.38 256.471C181.097 257.255 180.956 258.159 180.956 259.183V265H176.38V250.719H180.531ZM197.124 244.444H201.699V250.653H205.163V254.216H201.699V265H197.124V254.216H194.902V250.653H197.124V244.444Z" fill="#00DDFF"/>
<path d="M1.76472 292.523H7.90856V296.51H1.76472V292.523ZM22.2505 280.333H28.7538V302H23.9825V284.908H22.2505V280.333ZM40.7392 302.294L32.177 287.719H37.6019L42.4712 297.588L39.6608 297.49L43.8765 287.719H48.9746L40.8699 302.294H40.7392ZM50.9412 280.333H57.4445V302H52.6733V284.908H50.9412V280.333ZM74.273 302V276.967H74.3056L87.6718 295.922L85.6456 295.464L98.979 276.967H99.0444V302H94.3058V287.653L94.5999 290.104L86.4626 301.673H86.3972L78.0312 290.104L78.8482 287.85V302H74.273ZM103.399 294.68C103.399 293.22 103.736 291.913 104.412 290.758C105.109 289.603 106.079 288.699 107.32 288.046C108.562 287.37 109.989 287.033 111.601 287.033C113.235 287.033 114.652 287.37 115.85 288.046C117.048 288.699 117.963 289.603 118.595 290.758C119.249 291.913 119.575 293.22 119.575 294.68C119.575 296.139 119.249 297.457 118.595 298.634C117.963 299.789 117.048 300.704 115.85 301.379C114.652 302.054 113.214 302.392 111.536 302.392C109.967 302.392 108.562 302.087 107.32 301.477C106.1 300.867 105.142 299.985 104.445 298.83C103.747 297.675 103.399 296.292 103.399 294.68ZM108.007 294.712C108.007 295.453 108.159 296.128 108.464 296.739C108.769 297.327 109.183 297.795 109.706 298.144C110.229 298.492 110.817 298.667 111.471 298.667C112.19 298.667 112.811 298.492 113.333 298.144C113.856 297.795 114.259 297.327 114.543 296.739C114.826 296.128 114.967 295.453 114.967 294.712C114.967 293.95 114.826 293.274 114.543 292.686C114.259 292.098 113.856 291.63 113.333 291.281C112.811 290.932 112.19 290.758 111.471 290.758C110.817 290.758 110.229 290.932 109.706 291.281C109.183 291.63 108.769 292.098 108.464 292.686C108.159 293.274 108.007 293.95 108.007 294.712ZM128.997 302.392C127.668 302.392 126.48 302.087 125.435 301.477C124.389 300.845 123.561 299.941 122.951 298.765C122.363 297.588 122.068 296.194 122.068 294.582C122.068 292.969 122.395 291.597 123.049 290.464C123.702 289.331 124.596 288.47 125.729 287.882C126.862 287.294 128.147 287 129.585 287C130.5 287 131.371 287.141 132.199 287.425C133.049 287.708 133.757 288.144 134.323 288.732V290.17V276.215H138.866V302H134.291V299.222L134.65 300.203C133.91 300.813 133.082 301.336 132.167 301.771C131.252 302.185 130.195 302.392 128.997 302.392ZM130.5 298.536C131.11 298.536 131.644 298.46 132.101 298.307C132.581 298.133 132.994 297.893 133.343 297.588C133.713 297.261 134.029 296.858 134.291 296.379V292.882C134.117 292.403 133.844 292 133.474 291.673C133.125 291.325 132.689 291.063 132.167 290.889C131.666 290.693 131.11 290.595 130.5 290.595C129.825 290.595 129.193 290.769 128.604 291.118C128.038 291.444 127.581 291.902 127.232 292.49C126.883 293.078 126.709 293.754 126.709 294.516C126.709 295.279 126.883 295.965 127.232 296.575C127.581 297.185 128.038 297.664 128.604 298.013C129.193 298.362 129.825 298.536 130.5 298.536ZM150.599 302.392C148.856 302.392 147.374 302.065 146.154 301.412C144.956 300.758 144.041 299.854 143.409 298.699C142.777 297.545 142.462 296.216 142.462 294.712C142.462 293.274 142.832 291.978 143.573 290.823C144.313 289.669 145.305 288.754 146.547 288.078C147.788 287.381 149.172 287.033 150.697 287.033C152.745 287.033 154.422 287.632 155.73 288.83C157.059 290.006 157.919 291.717 158.311 293.961L147.2 297.49L146.187 295.006L154.226 292.294L153.279 292.719C153.104 292.152 152.788 291.662 152.331 291.248C151.895 290.813 151.231 290.595 150.337 290.595C149.662 290.595 149.063 290.758 148.54 291.085C148.039 291.39 147.647 291.837 147.364 292.425C147.102 292.991 146.971 293.667 146.971 294.451C146.971 295.344 147.135 296.096 147.462 296.706C147.788 297.294 148.235 297.741 148.801 298.046C149.368 298.351 150 298.503 150.697 298.503C151.198 298.503 151.677 298.416 152.135 298.242C152.614 298.068 153.083 297.839 153.54 297.556L155.566 300.954C154.804 301.39 153.976 301.739 153.083 302C152.211 302.261 151.383 302.392 150.599 302.392ZM193.277 302C192.972 302 192.514 302 191.904 302C191.316 302 190.706 302 190.074 302C189.442 302 188.898 302 188.44 302C188.004 302 187.786 302 187.786 302L177.198 287.752C176.98 287.447 176.708 287.033 176.381 286.51C176.054 285.965 175.771 285.366 175.531 284.712C175.292 284.037 175.172 283.362 175.172 282.686C175.172 281.815 175.39 280.954 175.826 280.104C176.283 279.233 176.969 278.514 177.884 277.948C178.821 277.359 179.998 277.065 181.414 277.065C182.961 277.065 184.322 277.381 185.499 278.013C186.675 278.645 187.612 279.407 188.309 280.3L185.924 283.47C185.248 282.73 184.595 282.141 183.963 281.706C183.353 281.27 182.754 281.052 182.165 281.052C181.425 281.052 180.891 281.27 180.564 281.706C180.237 282.141 180.074 282.621 180.074 283.144C180.074 283.449 180.15 283.786 180.303 284.157C180.477 284.505 180.651 284.832 180.826 285.137C181 285.42 181.12 285.616 181.185 285.725L193.277 302ZM180.041 291.052C179.518 291.052 179.028 291.161 178.571 291.379C178.113 291.575 177.71 291.847 177.362 292.196C177.013 292.545 176.741 292.937 176.545 293.372C176.37 293.808 176.283 294.266 176.283 294.745C176.283 295.42 176.446 296.02 176.773 296.542C177.122 297.044 177.59 297.436 178.179 297.719C178.767 298.002 179.409 298.144 180.107 298.144C180.826 298.144 181.414 298.046 181.871 297.85C182.351 297.632 182.743 297.349 183.048 297C183.375 296.651 183.636 296.27 183.832 295.856L186.871 298.373C186.283 299.484 185.379 300.431 184.159 301.216C182.961 302 181.392 302.392 179.453 302.392C177.95 302.392 176.588 302.076 175.368 301.444C174.148 300.813 173.178 299.941 172.46 298.83C171.741 297.719 171.381 296.444 171.381 295.006C171.381 293.917 171.621 292.915 172.1 292C172.601 291.085 173.266 290.29 174.094 289.614C174.921 288.939 175.847 288.405 176.871 288.013C177.895 287.599 178.941 287.381 180.009 287.359L180.041 291.052ZM187.166 287.359H191.479L187.427 297.556L183.996 295.529L187.166 287.359ZM219.631 280.333L214.729 289.745L212.147 288.34C212.365 288.253 212.594 288.187 212.833 288.144C213.095 288.1 213.334 288.078 213.552 288.078C214.315 288.057 215.077 288.144 215.84 288.34C216.602 288.536 217.289 288.884 217.899 289.386C218.531 289.887 219.032 290.573 219.402 291.444C219.794 292.316 219.99 293.427 219.99 294.778C219.99 296.346 219.62 297.697 218.879 298.83C218.16 299.941 217.212 300.791 216.036 301.379C214.86 301.967 213.585 302.261 212.212 302.261C211.145 302.261 210.023 302.044 208.846 301.608C207.67 301.15 206.733 300.551 206.036 299.81L208.454 295.889C208.781 296.303 209.282 296.706 209.958 297.098C210.633 297.49 211.341 297.686 212.082 297.686C212.561 297.686 213.029 297.566 213.487 297.327C213.944 297.087 214.326 296.728 214.631 296.248C214.936 295.769 215.088 295.181 215.088 294.484C215.088 293.525 214.816 292.762 214.271 292.196C213.748 291.63 213.008 291.346 212.049 291.346C211.395 291.346 210.894 291.379 210.546 291.444C210.219 291.488 209.892 291.553 209.565 291.64L209.467 291.51L213.291 284.353L214.663 284.908H207.833V280.333H219.631ZM230.851 302.294L222.289 287.719H227.714L232.583 297.588L229.773 297.49L233.989 287.719H239.087L230.982 302.294H230.851ZM254.321 280.333L249.419 289.745L246.838 288.34C247.056 288.253 247.284 288.187 247.524 288.144C247.785 288.1 248.025 288.078 248.243 288.078C249.005 288.057 249.768 288.144 250.53 288.34C251.293 288.536 251.979 288.884 252.589 289.386C253.221 289.887 253.722 290.573 254.093 291.444C254.485 292.316 254.681 293.427 254.681 294.778C254.681 296.346 254.31 297.697 253.57 298.83C252.851 299.941 251.903 300.791 250.727 301.379C249.55 301.967 248.276 302.261 246.903 302.261C245.835 302.261 244.713 302.044 243.537 301.608C242.36 301.15 241.424 300.551 240.726 299.81L243.145 295.889C243.472 296.303 243.973 296.706 244.648 297.098C245.323 297.49 246.032 297.686 246.772 297.686C247.252 297.686 247.72 297.566 248.178 297.327C248.635 297.087 249.016 296.728 249.321 296.248C249.626 295.769 249.779 295.181 249.779 294.484C249.779 293.525 249.507 292.762 248.962 292.196C248.439 291.63 247.698 291.346 246.74 291.346C246.086 291.346 245.585 291.379 245.236 291.444C244.91 291.488 244.583 291.553 244.256 291.64L244.158 291.51L247.981 284.353L249.354 284.908H242.524V280.333H254.321ZM270.385 302V276.967H270.418L283.784 295.922L281.758 295.464L295.091 276.967H295.156V302H290.418V287.653L290.712 290.104L282.575 301.673H282.509L274.143 290.104L274.96 287.85V302H270.385ZM299.511 294.68C299.511 293.22 299.848 291.913 300.524 290.758C301.221 289.603 302.19 288.699 303.432 288.046C304.674 287.37 306.101 287.033 307.713 287.033C309.347 287.033 310.763 287.37 311.962 288.046C313.16 288.699 314.075 289.603 314.707 290.758C315.36 291.913 315.687 293.22 315.687 294.68C315.687 296.139 315.36 297.457 314.707 298.634C314.075 299.789 313.16 300.704 311.962 301.379C310.763 302.054 309.326 302.392 307.648 302.392C306.079 302.392 304.674 302.087 303.432 301.477C302.212 300.867 301.254 299.985 300.556 298.83C299.859 297.675 299.511 296.292 299.511 294.68ZM304.119 294.712C304.119 295.453 304.271 296.128 304.576 296.739C304.881 297.327 305.295 297.795 305.818 298.144C306.341 298.492 306.929 298.667 307.583 298.667C308.302 298.667 308.923 298.492 309.445 298.144C309.968 297.795 310.371 297.327 310.655 296.739C310.938 296.128 311.079 295.453 311.079 294.712C311.079 293.95 310.938 293.274 310.655 292.686C310.371 292.098 309.968 291.63 309.445 291.281C308.923 290.932 308.302 290.758 307.583 290.758C306.929 290.758 306.341 290.932 305.818 291.281C305.295 291.63 304.881 292.098 304.576 292.686C304.271 293.274 304.119 293.95 304.119 294.712ZM325.109 302.392C323.78 302.392 322.592 302.087 321.546 301.477C320.501 300.845 319.673 299.941 319.063 298.765C318.475 297.588 318.18 296.194 318.18 294.582C318.18 292.969 318.507 291.597 319.161 290.464C319.814 289.331 320.708 288.47 321.841 287.882C322.973 287.294 324.259 287 325.697 287C326.612 287 327.483 287.141 328.311 287.425C329.161 287.708 329.869 288.144 330.435 288.732V290.17V276.215H334.978V302H330.403V299.222L330.762 300.203C330.021 300.813 329.194 301.336 328.279 301.771C327.363 302.185 326.307 302.392 325.109 302.392ZM326.612 298.536C327.222 298.536 327.756 298.46 328.213 298.307C328.692 298.133 329.106 297.893 329.455 297.588C329.825 297.261 330.141 296.858 330.403 296.379V292.882C330.228 292.403 329.956 292 329.586 291.673C329.237 291.325 328.801 291.063 328.279 290.889C327.777 290.693 327.222 290.595 326.612 290.595C325.936 290.595 325.305 290.769 324.716 291.118C324.15 291.444 323.692 291.902 323.344 292.49C322.995 293.078 322.821 293.754 322.821 294.516C322.821 295.279 322.995 295.965 323.344 296.575C323.692 297.185 324.15 297.664 324.716 298.013C325.305 298.362 325.936 298.536 326.612 298.536ZM346.711 302.392C344.968 302.392 343.486 302.065 342.266 301.412C341.068 300.758 340.153 299.854 339.521 298.699C338.889 297.545 338.573 296.216 338.573 294.712C338.573 293.274 338.944 291.978 339.685 290.823C340.425 289.669 341.417 288.754 342.658 288.078C343.9 287.381 345.284 287.033 346.809 287.033C348.857 287.033 350.534 287.632 351.842 288.83C353.171 290.006 354.031 291.717 354.423 293.961L343.312 297.49L342.299 295.006L350.338 292.294L349.391 292.719C349.216 292.152 348.9 291.662 348.443 291.248C348.007 290.813 347.343 290.595 346.449 290.595C345.774 290.595 345.175 290.758 344.652 291.085C344.151 291.39 343.759 291.837 343.475 292.425C343.214 292.991 343.083 293.667 343.083 294.451C343.083 295.344 343.247 296.096 343.574 296.706C343.9 297.294 344.347 297.741 344.913 298.046C345.48 298.351 346.112 298.503 346.809 298.503C347.31 298.503 347.789 298.416 348.247 298.242C348.726 298.068 349.194 297.839 349.652 297.556L351.678 300.954C350.916 301.39 350.088 301.739 349.194 302C348.323 302.261 347.495 302.392 346.711 302.392Z" fill="#FFE1B4"/>
<defs>
<linearGradient id="paint0_linear_1286_20406" x1="108.963" y1="265.24" x2="108.963" y2="92.8838" gradientUnits="userSpaceOnUse">
<stop stop-color="#4D7F80"/>
<stop offset="0.0425567" stop-color="#618D8E"/>
<stop offset="0.1456" stop-color="#8AABAC"/>
<stop offset="0.2544" stop-color="#AEC5C6"/>
<stop offset="0.3681" stop-color="#CCDADA"/>
<stop offset="0.4884" stop-color="#E2EAEB"/>
<stop offset="0.6182" stop-color="#F3F6F6"/>
<stop offset="0.7643" stop-color="#FCFDFD"/>
<stop offset="0.961" stop-color="white"/>
</linearGradient>
<linearGradient id="paint1_linear_1286_20406" x1="108.963" y1="163.803" x2="108.963" y2="11.2468" gradientUnits="userSpaceOnUse">
<stop stop-color="#4D7F80"/>
<stop offset="0.0425567" stop-color="#618D8E"/>
<stop offset="0.1456" stop-color="#8AABAC"/>
<stop offset="0.2544" stop-color="#AEC5C6"/>
<stop offset="0.3681" stop-color="#CCDADA"/>
<stop offset="0.4884" stop-color="#E2EAEB"/>
<stop offset="0.6182" stop-color="#F3F6F6"/>
<stop offset="0.7643" stop-color="#FCFDFD"/>
<stop offset="0.961" stop-color="white"/>
</linearGradient>
<linearGradient id="paint2_linear_1286_20406" x1="-nan" y1="-nan" x2="-nan" y2="-nan" gradientUnits="userSpaceOnUse">
<stop stop-color="#A8805F"/>
<stop offset="0.2455" stop-color="#804E03"/>
<stop offset="0.37" stop-color="#806D05"/>
<stop offset="0.4749" stop-color="#A8805F"/>
<stop offset="0.617" stop-color="#C0B284"/>
<stop offset="0.7375" stop-color="#BFB083"/>
<stop offset="0.7809" stop-color="#BCA97E"/>
<stop offset="0.8118" stop-color="#B69E75"/>
<stop offset="0.8367" stop-color="#AE8D68"/>
<stop offset="0.8501" stop-color="#A8805F"/>
<stop offset="1" stop-color="#804E03"/>
</linearGradient>
<linearGradient id="paint3_linear_1286_20406" x1="23.0401" y1="104.452" x2="194.885" y2="104.452" gradientUnits="userSpaceOnUse">
<stop stop-color="#A8805F"/>
<stop offset="0.2455" stop-color="#804E03"/>
<stop offset="0.37" stop-color="#806D05"/>
<stop offset="0.4749" stop-color="#A8805F"/>
<stop offset="0.617" stop-color="#C0B284"/>
<stop offset="0.7375" stop-color="#BFB083"/>
<stop offset="0.7809" stop-color="#BCA97E"/>
<stop offset="0.8118" stop-color="#B69E75"/>
<stop offset="0.8367" stop-color="#AE8D68"/>
<stop offset="0.8501" stop-color="#A8805F"/>
<stop offset="1" stop-color="#804E03"/>
</linearGradient>
<linearGradient id="paint4_linear_1286_20406" x1="9.46541" y1="104.452" x2="208.459" y2="104.452" gradientUnits="userSpaceOnUse">
<stop stop-color="#A8805F"/>
<stop offset="0.2455" stop-color="#804E03"/>
<stop offset="0.37" stop-color="#806D05"/>
<stop offset="0.4749" stop-color="#A8805F"/>
<stop offset="0.617" stop-color="#C0B284"/>
<stop offset="0.7375" stop-color="#BFB083"/>
<stop offset="0.7809" stop-color="#BCA97E"/>
<stop offset="0.8118" stop-color="#B69E75"/>
<stop offset="0.8367" stop-color="#AE8D68"/>
<stop offset="0.8501" stop-color="#A8805F"/>
<stop offset="1" stop-color="#804E03"/>
</linearGradient>
<linearGradient id="paint5_linear_1286_20406" x1="0.15766" y1="54.1612" x2="217.766" y2="54.1612" gradientUnits="userSpaceOnUse">
<stop stop-color="#A8805F"/>
<stop offset="0.2455" stop-color="#804E03"/>
<stop offset="0.37" stop-color="#806D05"/>
<stop offset="0.4749" stop-color="#A8805F"/>
<stop offset="0.617" stop-color="#C0B284"/>
<stop offset="0.7375" stop-color="#BFB083"/>
<stop offset="0.7809" stop-color="#BCA97E"/>
<stop offset="0.8118" stop-color="#B69E75"/>
<stop offset="0.8367" stop-color="#AE8D68"/>
<stop offset="0.8501" stop-color="#A8805F"/>
<stop offset="1" stop-color="#804E03"/>
</linearGradient>
<clipPath id="clip0_1286_20406">
<rect width="216" height="190" fill="white" transform="translate(1)"/>
</clipPath>
</defs>
</svg>
