<svg width="333" height="330" viewBox="0 0 333 330" fill="none" xmlns="http://www.w3.org/2000/svg">
<g clip-path="url(#clip0_1286_20327)">
<path d="M107.914 188.273C154.386 188.273 192.059 150.767 192.059 104.5C192.059 58.2339 154.386 20.7275 107.914 20.7275C61.4423 20.7275 23.7695 58.2339 23.7695 104.5C23.7695 150.767 61.4423 188.273 107.914 188.273Z" fill="url(#paint0_linear_1286_20327)"/>
<path d="M107.914 20.5547C61.4177 20.5547 23.7695 58.0365 23.7695 104.327H192.232C192.232 58.2092 154.41 20.5547 107.914 20.5547Z" fill="url(#paint1_linear_1286_20327)"/>
<path d="M23.7695 104.5H192.232" stroke="url(#paint2_linear_1286_20327)" stroke-width="0.5668" stroke-miterlimit="10"/>
<path d="M107.914 188.273C154.386 188.273 192.059 150.767 192.059 104.5C192.059 58.2339 154.386 20.7275 107.914 20.7275C61.4423 20.7275 23.7695 58.2339 23.7695 104.5C23.7695 150.767 61.4423 188.273 107.914 188.273Z" stroke="url(#paint3_linear_1286_20327)" stroke-width="1.9536" stroke-miterlimit="10"/>
<path d="M107.914 171.173C162.338 171.173 206.458 141.322 206.458 104.5C206.458 67.6775 162.338 37.8271 107.914 37.8271C53.4891 37.8271 9.36914 67.6775 9.36914 104.5C9.36914 141.322 53.4891 171.173 107.914 171.173Z" stroke="url(#paint4_linear_1286_20327)" stroke-width="1.0011" stroke-miterlimit="10"/>
<path d="M0.000320029 108.3C-0.173174 94.3091 2.42924 80.1455 7.80755 67.0182C13.1859 53.8909 21.1666 41.9727 31.2292 31.7818C41.1184 21.7636 53.263 13.8182 66.275 8.29091C79.4606 2.76364 93.6871 0 107.914 0C122.14 0 136.367 2.76364 149.552 8.29091C162.738 13.8182 174.709 21.7636 184.771 31.7818C194.834 41.8 202.815 53.8909 208.193 67.0182C213.571 80.1455 216.174 94.3091 216 108.3C215.827 80.1455 204.029 52.3364 183.904 32.8182C173.841 22.9727 162.044 15.0273 149.032 9.67273C136.02 4.31818 121.967 1.72727 107.914 1.72727C93.8606 1.72727 79.8075 4.49091 66.969 9.84545C53.9569 15.0273 42.1594 22.9727 32.0967 32.8182C11.9714 52.3364 0.173814 80.1455 0.000320029 108.3Z" fill="url(#paint5_linear_1286_20327)"/>
</g>
<path d="M78.3642 64.9374C78.3642 74.5267 84.9821 82.2701 94.7064 82.2701V81.5048C88.1335 81.5048 80.6602 76.9127 80.6602 64.9374C80.6602 53.0071 88.1335 48.4601 94.7064 48.4601C101.279 48.4601 108.753 53.0071 108.753 64.9374C108.753 80.3343 92.0953 85.5116 83.1813 89.1132L83.4064 89.7885C89.6192 87.8526 92.2303 87.4024 96.057 87.4024C100.334 87.4024 103.125 91.7243 106.727 91.7243C108.302 91.7243 110.418 91.004 112.129 88.1677L111.679 87.8976C110.193 89.4733 109.023 89.9685 107.492 89.9685C105.286 89.9685 101.144 85.5566 97.0925 85.5566C94.7064 85.5566 93.2658 85.8717 91.9152 86.3219C101.594 82.9454 111.049 75.6072 111.049 64.9374C111.049 55.3932 104.431 47.6948 94.7064 47.6948C84.9821 47.6948 78.3642 55.3932 78.3642 64.9374ZM115.048 82H138.009L139.854 73.5362L139.044 73.3562C137.693 78.9837 135.442 80.3343 129.77 80.3343H116.039C116.039 70.4299 138.324 66.0629 138.324 56.7888C138.324 50.7561 133.462 47.9649 128.104 47.9649C121.982 47.9649 118.065 50.9812 115.634 56.5637L117.885 58.0043C119.64 52.692 122.027 48.7752 128.104 48.7752C132.381 48.7752 136.748 51.0262 136.748 55.9784C136.748 65.1625 115.048 66.7832 115.048 82Z" fill="#00226D"/>
<path d="M94.7064 82.2701V83.2701H95.7064V82.2701H94.7064ZM94.7064 81.5048H95.7064V80.5048H94.7064V81.5048ZM83.1813 89.1132L82.8067 88.186L81.9355 88.538L82.2326 89.4294L83.1813 89.1132ZM83.4064 89.7885L82.4577 90.1047L82.7678 91.0349L83.7039 90.7432L83.4064 89.7885ZM112.129 88.1677L112.985 88.6842L113.503 87.8259L112.644 87.3102L112.129 88.1677ZM111.679 87.8976L112.193 87.0401L111.503 86.6261L110.951 87.2116L111.679 87.8976ZM91.9152 86.3219L91.5858 85.3777L92.2314 87.2706L91.9152 86.3219ZM77.3642 64.9374C77.3642 74.9942 84.3487 83.2701 94.7064 83.2701V81.2701C85.6155 81.2701 79.3642 74.0592 79.3642 64.9374H77.3642ZM95.7064 82.2701V81.5048H93.7064V82.2701H95.7064ZM94.7064 80.5048C91.6448 80.5048 88.3974 79.4351 85.9196 76.9988C83.4543 74.5748 81.6602 70.7078 81.6602 64.9374H79.6602C79.6602 71.1423 81.6027 75.559 84.5174 78.4249C87.4195 81.2784 91.1952 82.5048 94.7064 82.5048V80.5048ZM81.6602 64.9374C81.6602 59.1907 83.4535 55.3473 85.9173 52.9402C88.3942 50.5203 91.6421 49.4601 94.7064 49.4601V47.4601C91.1979 47.4601 87.4226 48.6734 84.5196 51.5096C81.6035 54.3586 79.6602 58.7539 79.6602 64.9374H81.6602ZM94.7064 49.4601C97.7708 49.4601 101.019 50.5203 103.496 52.9402C105.959 55.3473 107.753 59.1907 107.753 64.9374H109.753C109.753 58.7539 107.809 54.3586 104.893 51.5096C101.99 48.6734 98.215 47.4601 94.7064 47.4601V49.4601ZM107.753 64.9374C107.753 72.1982 103.854 77.0719 98.739 80.6274C93.5791 84.214 87.336 86.356 82.8067 88.186L83.5559 90.0403C87.9406 88.2688 94.4831 86.0213 99.8805 82.2696C105.323 78.4868 109.753 73.0735 109.753 64.9374H107.753ZM82.2326 89.4294L82.4577 90.1047L84.3551 89.4722L84.13 88.7969L82.2326 89.4294ZM83.7039 90.7432C89.867 88.8228 92.3706 88.4024 96.057 88.4024V86.4024C92.0901 86.4024 89.3713 86.8824 83.1089 88.8337L83.7039 90.7432ZM96.057 88.4024C97.864 88.4024 99.3987 89.3093 101.105 90.4048C102.7 91.4291 104.57 92.7243 106.727 92.7243V90.7243C105.282 90.7243 103.956 89.8585 102.185 88.7219C100.526 87.6565 98.527 86.4024 96.057 86.4024V88.4024ZM106.727 92.7243C108.658 92.7243 111.096 91.8164 112.985 88.6842L111.273 87.6512C109.741 90.1916 107.947 90.7243 106.727 90.7243V92.7243ZM112.644 87.3102L112.193 87.0401L111.164 88.7551L111.615 89.0252L112.644 87.3102ZM110.951 87.2116C110.259 87.9455 109.692 88.3722 109.17 88.6221C108.662 88.8659 108.14 88.9685 107.492 88.9685V90.9685C108.375 90.9685 109.204 90.8236 110.034 90.4258C110.852 90.0342 111.613 89.4254 112.407 88.5836L110.951 87.2116ZM107.492 88.9685C107.217 88.9685 106.743 88.8125 105.983 88.4003C105.249 88.0017 104.45 87.4824 103.503 86.9076C101.705 85.8164 99.4331 84.5566 97.0925 84.5566V86.5566C98.8037 86.5566 100.629 87.5028 102.466 88.6175C103.336 89.1457 104.24 89.7294 105.029 90.158C105.794 90.5731 106.664 90.9685 107.492 90.9685V88.9685ZM97.0925 84.5566C94.5977 84.5566 93.0503 84.8895 91.599 85.3732L92.2314 87.2706C93.4813 86.854 94.8152 86.5566 97.0925 86.5566V84.5566ZM92.2446 87.2661C102.041 83.8486 112.049 76.2704 112.049 64.9374H110.049C110.049 74.9439 101.148 82.0422 91.5858 85.3777L92.2446 87.2661ZM112.049 64.9374C112.049 54.9204 105.059 46.6948 94.7064 46.6948V48.6948C103.802 48.6948 110.049 55.8659 110.049 64.9374H112.049ZM94.7064 46.6948C84.3535 46.6948 77.3642 54.9204 77.3642 64.9374H79.3642C79.3642 55.8659 85.6107 48.6948 94.7064 48.6948V46.6948ZM115.048 82H114.048V83H115.048V82ZM138.009 82V83H138.814L138.986 82.2131L138.009 82ZM139.854 73.5362L140.831 73.7493L141.044 72.7761L140.071 72.5601L139.854 73.5362ZM139.044 73.3562L139.261 72.38L138.301 72.1667L138.072 73.1228L139.044 73.3562ZM116.039 80.3343H115.039V81.3343H116.039V80.3343ZM115.634 56.5637L114.717 56.1644L114.376 56.9463L115.095 57.406L115.634 56.5637ZM117.885 58.0043L117.346 58.8466L118.43 59.5407L118.834 58.3182L117.885 58.0043ZM115.048 83H138.009V81H115.048V83ZM138.986 82.2131L140.831 73.7493L138.877 73.3232L137.032 81.7869L138.986 82.2131ZM140.071 72.5601L139.261 72.38L138.827 74.3323L139.638 74.5124L140.071 72.5601ZM138.072 73.1228C137.414 75.8614 136.589 77.316 135.442 78.145C134.273 78.9895 132.571 79.3343 129.77 79.3343V81.3343C132.641 81.3343 134.901 81.0037 136.613 79.766C138.348 78.5128 139.323 76.4784 140.016 73.5895L138.072 73.1228ZM129.77 79.3343H116.039V81.3343H129.77V79.3343ZM117.039 80.3343C117.039 78.2655 118.196 76.3824 120.203 74.5126C122.209 72.6426 124.909 70.9284 127.712 69.1727C130.472 67.444 133.342 65.6706 135.508 63.7329C137.668 61.8012 139.324 59.5382 139.324 56.7888H137.324C137.324 58.6765 136.194 60.4371 134.175 62.2421C132.164 64.041 129.462 65.7173 126.651 67.4777C123.883 69.211 121.011 71.0253 118.839 73.0495C116.667 75.0739 115.039 77.4509 115.039 80.3343H117.039ZM139.324 56.7888C139.324 53.4694 137.97 50.9679 135.833 49.3223C133.729 47.702 130.941 46.9649 128.104 46.9649V48.9649C130.625 48.9649 132.946 49.6234 134.613 50.9069C136.247 52.1651 137.324 54.0755 137.324 56.7888H139.324ZM128.104 46.9649C124.871 46.9649 122.15 47.7646 119.906 49.355C117.671 50.9397 115.984 53.2556 114.717 56.1644L116.551 56.963C117.715 54.2893 119.202 52.3058 121.063 50.9867C122.916 49.6733 125.215 48.9649 128.104 48.9649V46.9649ZM115.095 57.406L117.346 58.8466L118.424 57.1621L116.173 55.7214L115.095 57.406ZM118.834 58.3182C119.701 55.695 120.68 53.5657 122.096 52.0898C123.466 50.6602 125.313 49.7752 128.104 49.7752V47.7752C124.817 47.7752 122.433 48.8486 120.652 50.7055C118.916 52.5161 117.824 55.0013 116.935 57.6905L118.834 58.3182ZM128.104 49.7752C130.085 49.7752 132.025 50.2993 133.442 51.3287C134.824 52.3331 135.748 53.8403 135.748 55.9784H137.748C137.748 53.1644 136.488 51.07 134.618 49.7108C132.782 48.3766 130.4 47.7752 128.104 47.7752V49.7752ZM135.748 55.9784C135.748 57.8258 134.674 59.3939 132.72 61.0081C130.75 62.6368 128.142 64.1124 125.361 65.8835C119.939 69.3369 114.048 73.8086 114.048 82H116.048C116.048 74.9747 121.007 71.0276 126.435 67.5704C129.08 65.8862 131.897 64.2836 133.995 62.5498C136.11 60.8016 137.748 58.7231 137.748 55.9784H135.748Z" fill="#00226D"/>
<path d="M64.5783 146H82.9485L84.4254 139.228L83.777 139.084C82.6964 143.587 80.8954 144.667 76.3569 144.667H65.3708C65.3708 136.743 83.2007 133.249 83.2007 125.829C83.2007 121.002 79.3105 118.769 75.0241 118.769C70.1254 118.769 66.9917 121.182 65.0466 125.649L66.8476 126.801C68.2524 122.551 70.1614 119.417 75.0241 119.417C78.446 119.417 81.94 121.218 81.94 125.18C81.94 132.529 64.5783 133.825 64.5783 146ZM86.7827 132.456C86.7827 140.057 89.4842 146.216 96.8323 146.216C104.18 146.216 106.882 140.057 106.882 132.456C106.882 124.856 104.18 118.733 96.8323 118.733C89.4842 118.733 86.7827 124.856 86.7827 132.456ZM96.8323 119.345C101.515 119.345 105.225 122.479 105.225 132.456C105.225 142.434 101.515 145.604 96.8323 145.604C92.1497 145.604 88.4396 142.434 88.4396 132.456C88.4396 122.479 92.1497 119.345 96.8323 119.345ZM109.392 146H127.762L129.239 139.228L128.591 139.084C127.51 143.587 125.709 144.667 121.171 144.667H110.185C110.185 136.743 128.015 133.249 128.015 125.829C128.015 121.002 124.124 118.769 119.838 118.769C114.939 118.769 111.806 121.182 109.861 125.649L111.662 126.801C113.066 122.551 114.975 119.417 119.838 119.417C123.26 119.417 126.754 121.218 126.754 125.18C126.754 132.529 109.392 133.825 109.392 146ZM131.236 146H149.607L151.083 139.228L150.435 139.084C149.355 143.587 147.553 144.667 143.015 144.667H132.029C132.029 136.743 149.859 133.249 149.859 125.829C149.859 121.002 145.969 118.769 141.682 118.769C136.784 118.769 133.65 121.182 131.705 125.649L133.506 126.801C134.91 122.551 136.82 119.417 141.682 119.417C145.104 119.417 148.598 121.218 148.598 125.18C148.598 132.529 131.236 133.825 131.236 146Z" fill="#00226D"/>
<path d="M64.5783 146H63.5783V147H64.5783V146ZM82.9485 146V147H83.754L83.9256 146.213L82.9485 146ZM84.4254 139.228L85.4024 139.441L85.6146 138.468L84.6423 138.252L84.4254 139.228ZM83.777 139.084L83.9939 138.108L83.0341 137.895L82.8046 138.851L83.777 139.084ZM65.3708 144.667H64.3708V145.667H65.3708V144.667ZM65.0466 125.649L64.1298 125.249L63.7893 126.031L64.5075 126.491L65.0466 125.649ZM66.8476 126.801L66.3085 127.644L67.393 128.338L67.7971 127.115L66.8476 126.801ZM64.5783 147H82.9485V145H64.5783V147ZM83.9256 146.213L85.4024 139.441L83.4483 139.015L81.9715 145.787L83.9256 146.213ZM84.6423 138.252L83.9939 138.108L83.5601 140.06L84.2084 140.204L84.6423 138.252ZM82.8046 138.851C82.2823 141.027 81.6371 142.133 80.7779 142.754C79.8973 143.39 78.5912 143.667 76.3569 143.667V145.667C78.6611 145.667 80.5247 145.404 81.9494 144.375C83.3955 143.33 84.191 141.644 84.7494 139.318L82.8046 138.851ZM76.3569 143.667H65.3708V145.667H76.3569V143.667ZM66.3708 144.667C66.3708 143.093 67.2498 141.636 68.8385 140.156C70.4273 138.675 72.57 137.313 74.8165 135.906C77.0199 134.527 79.3322 133.098 81.0814 131.534C82.8237 129.976 84.2007 128.115 84.2007 125.829H82.2007C82.2007 127.253 81.3489 128.611 79.7481 130.043C78.1542 131.468 76.009 132.8 73.755 134.211C71.544 135.596 69.2292 137.058 67.4749 138.693C65.7205 140.328 64.3708 142.279 64.3708 144.667H66.3708ZM84.2007 125.829C84.2007 123.112 83.0898 121.052 81.33 119.697C79.6029 118.366 77.3255 117.769 75.0241 117.769V119.769C77.0092 119.769 78.82 120.288 80.1096 121.281C81.3665 122.249 82.2007 123.719 82.2007 125.829H84.2007ZM75.0241 117.769C72.4024 117.769 70.1838 118.418 68.3495 119.718C66.5232 121.012 65.1535 122.899 64.1298 125.249L65.9634 126.048C66.8848 123.932 68.0545 122.379 69.506 121.35C70.9495 120.327 72.7471 119.769 75.0241 119.769V117.769ZM64.5075 126.491L66.3085 127.644L67.3866 125.959L65.5856 124.806L64.5075 126.491ZM67.7971 127.115C68.4885 125.023 69.2607 123.355 70.3609 122.208C71.4167 121.106 72.8408 120.417 75.0241 120.417V118.417C72.3448 118.417 70.3829 119.295 68.9174 120.823C67.4962 122.305 66.6114 124.329 65.8981 126.488L67.7971 127.115ZM75.0241 120.417C76.5775 120.417 78.0859 120.829 79.1774 121.622C80.2345 122.39 80.94 123.537 80.94 125.18H82.94C82.94 122.861 81.8985 121.127 80.3531 120.004C78.8422 118.906 76.8926 118.417 75.0241 118.417V120.417ZM80.94 125.18C80.94 126.569 80.1368 127.772 78.5902 129.051C77.0261 130.343 74.9604 131.511 72.7219 132.937C68.3846 135.699 63.5783 139.33 63.5783 146H65.5783C65.5783 140.496 69.4529 137.39 73.7964 134.624C75.8984 133.285 78.173 131.99 79.8643 130.592C81.5729 129.18 82.94 127.466 82.94 125.18H80.94ZM85.7827 132.456C85.7827 136.348 86.4697 140.007 88.2097 142.726C89.9913 145.509 92.8244 147.216 96.8323 147.216V145.216C93.492 145.216 91.3004 143.844 89.8942 141.647C88.4464 139.386 87.7827 136.165 87.7827 132.456H85.7827ZM96.8323 147.216C100.84 147.216 103.673 145.509 105.455 142.726C107.195 140.007 107.882 136.348 107.882 132.456H105.882C105.882 136.165 105.218 139.386 103.77 141.647C102.364 143.844 100.173 145.216 96.8323 145.216V147.216ZM107.882 132.456C107.882 128.565 107.195 124.914 105.454 122.204C103.671 119.429 100.838 117.733 96.8323 117.733V119.733C100.175 119.733 102.366 121.098 103.771 123.285C105.218 125.537 105.882 128.748 105.882 132.456H107.882ZM96.8323 117.733C92.8269 117.733 89.9933 119.429 88.2106 122.204C86.4697 124.914 85.7827 128.565 85.7827 132.456H87.7827C87.7827 128.748 88.4464 125.537 89.8933 123.285C91.2984 121.098 93.4896 119.733 96.8323 119.733V117.733ZM96.8323 120.345C98.9278 120.345 100.697 121.031 101.983 122.757C103.31 124.538 104.225 127.562 104.225 132.456H106.225C106.225 127.373 105.285 123.842 103.586 121.562C101.847 119.226 99.4193 118.345 96.8323 118.345V120.345ZM104.225 132.456C104.225 137.35 103.31 140.385 101.981 142.176C100.694 143.912 98.9243 144.604 96.8323 144.604V146.604C99.4229 146.604 101.849 145.711 103.588 143.367C105.285 141.079 106.225 137.54 106.225 132.456H104.225ZM96.8323 144.604C94.7403 144.604 92.9706 143.912 91.6831 142.176C90.3546 140.385 89.4396 137.35 89.4396 132.456H87.4396C87.4396 137.54 88.3797 141.079 90.0768 143.367C91.8151 145.711 94.2417 146.604 96.8323 146.604V144.604ZM89.4396 132.456C89.4396 127.562 90.3547 124.538 91.6819 122.757C92.9677 121.031 94.7367 120.345 96.8323 120.345V118.345C94.2452 118.345 91.8179 119.226 90.0781 121.562C88.3796 123.842 87.4396 127.373 87.4396 132.456H89.4396ZM109.392 146H108.392V147H109.392V146ZM127.762 146V147H128.568L128.74 146.213L127.762 146ZM129.239 139.228L130.216 139.441L130.429 138.468L129.456 138.252L129.239 139.228ZM128.591 139.084L128.808 138.108L127.848 137.895L127.619 138.851L128.591 139.084ZM110.185 144.667H109.185V145.667H110.185V144.667ZM109.861 125.649L108.944 125.249L108.603 126.031L109.321 126.491L109.861 125.649ZM111.662 126.801L111.122 127.644L112.207 128.338L112.611 127.115L111.662 126.801ZM109.392 147H127.762V145H109.392V147ZM128.74 146.213L130.216 139.441L128.262 139.015L126.785 145.787L128.74 146.213ZM129.456 138.252L128.808 138.108L128.374 140.06L129.022 140.204L129.456 138.252ZM127.619 138.851C127.096 141.027 126.451 142.133 125.592 142.754C124.711 143.39 123.405 143.667 121.171 143.667V145.667C123.475 145.667 125.339 145.404 126.763 144.375C128.209 143.33 129.005 141.644 129.563 139.318L127.619 138.851ZM121.171 143.667H110.185V145.667H121.171V143.667ZM111.185 144.667C111.185 143.093 112.064 141.636 113.652 140.156C115.241 138.675 117.384 137.313 119.63 135.906C121.834 134.527 124.146 133.098 125.895 131.534C127.638 129.976 129.015 128.115 129.015 125.829H127.015C127.015 127.253 126.163 128.611 124.562 130.043C122.968 131.468 120.823 132.8 118.569 134.211C116.358 135.596 114.043 137.058 112.289 138.693C110.534 140.328 109.185 142.279 109.185 144.667H111.185ZM129.015 125.829C129.015 123.112 127.904 121.052 126.144 119.697C124.417 118.366 122.139 117.769 119.838 117.769V119.769C121.823 119.769 123.634 120.288 124.924 121.281C126.18 122.249 127.015 123.719 127.015 125.829H129.015ZM119.838 117.769C117.216 117.769 114.998 118.418 113.163 119.718C111.337 121.012 109.967 122.899 108.944 125.249L110.777 126.048C111.699 123.932 112.868 122.379 114.32 121.35C115.763 120.327 117.561 119.769 119.838 119.769V117.769ZM109.321 126.491L111.122 127.644L112.201 125.959L110.4 124.806L109.321 126.491ZM112.611 127.115C113.302 125.023 114.075 123.355 115.175 122.208C116.231 121.106 117.655 120.417 119.838 120.417V118.417C117.159 118.417 115.197 119.295 113.731 120.823C112.31 122.305 111.425 124.329 110.712 126.488L112.611 127.115ZM119.838 120.417C121.391 120.417 122.9 120.829 123.991 121.622C125.048 122.39 125.754 123.537 125.754 125.18H127.754C127.754 122.861 126.712 121.127 125.167 120.004C123.656 118.906 121.707 118.417 119.838 118.417V120.417ZM125.754 125.18C125.754 126.569 124.951 127.772 123.404 129.051C121.84 130.343 119.774 131.511 117.536 132.937C113.199 135.699 108.392 139.33 108.392 146H110.392C110.392 140.496 114.267 137.39 118.61 134.624C120.712 133.285 122.987 131.99 124.678 130.592C126.387 129.18 127.754 127.466 127.754 125.18H125.754ZM131.236 146H130.236V147H131.236V146ZM149.607 146V147H150.412L150.584 146.213L149.607 146ZM151.083 139.228L152.06 139.441L152.273 138.468L151.3 138.252L151.083 139.228ZM150.435 139.084L150.652 138.108L149.692 137.895L149.463 138.851L150.435 139.084ZM132.029 144.667H131.029V145.667H132.029V144.667ZM131.705 125.649L130.788 125.249L130.447 126.031L131.166 126.491L131.705 125.649ZM133.506 126.801L132.967 127.644L134.051 128.338L134.455 127.115L133.506 126.801ZM131.236 147H149.607V145H131.236V147ZM150.584 146.213L152.06 139.441L150.106 139.015L148.63 145.787L150.584 146.213ZM151.3 138.252L150.652 138.108L150.218 140.06L150.867 140.204L151.3 138.252ZM149.463 138.851C148.94 141.027 148.295 142.133 147.436 142.754C146.555 143.39 145.249 143.667 143.015 143.667V145.667C145.319 145.667 147.183 145.404 148.607 144.375C150.054 143.33 150.849 141.644 151.407 139.318L149.463 138.851ZM143.015 143.667H132.029V145.667H143.015V143.667ZM133.029 144.667C133.029 143.093 133.908 141.636 135.497 140.156C137.085 138.675 139.228 137.313 141.475 135.906C143.678 134.527 145.99 133.098 147.739 131.534C149.482 129.976 150.859 128.115 150.859 125.829H148.859C148.859 127.253 148.007 128.611 146.406 130.043C144.812 131.468 142.667 132.8 140.413 134.211C138.202 135.596 135.887 137.058 134.133 138.693C132.379 140.328 131.029 142.279 131.029 144.667H133.029ZM150.859 125.829C150.859 123.112 149.748 121.052 147.988 119.697C146.261 118.366 143.984 117.769 141.682 117.769V119.769C143.667 119.769 145.478 120.288 146.768 121.281C148.025 122.249 148.859 123.719 148.859 125.829H150.859ZM141.682 117.769C139.061 117.769 136.842 118.418 135.008 119.718C133.181 121.012 131.812 122.899 130.788 125.249L132.622 126.048C133.543 123.932 134.713 122.379 136.164 121.35C137.608 120.327 139.405 119.769 141.682 119.769V117.769ZM131.166 126.491L132.967 127.644L134.045 125.959L132.244 124.806L131.166 126.491ZM134.455 127.115C135.147 125.023 135.919 123.355 137.019 122.208C138.075 121.106 139.499 120.417 141.682 120.417V118.417C139.003 118.417 137.041 119.295 135.575 120.823C134.154 122.305 133.27 124.329 132.556 126.488L134.455 127.115ZM141.682 120.417C143.236 120.417 144.744 120.829 145.836 121.622C146.893 122.39 147.598 123.537 147.598 125.18H149.598C149.598 122.861 148.557 121.127 147.011 120.004C145.5 118.906 143.551 118.417 141.682 118.417V120.417ZM147.598 125.18C147.598 126.569 146.795 127.772 145.248 129.051C143.684 130.343 141.618 131.511 139.38 132.937C135.043 135.699 130.236 139.33 130.236 146H132.236C132.236 140.496 136.111 137.39 140.454 134.624C142.556 133.285 144.831 131.99 146.522 130.592C148.231 129.18 149.598 127.466 149.598 125.18H147.598Z" fill="#00226D"/>
<path d="M3.29903 222.725H7.8824V224.735H3.29903V222.725ZM18.4491 211.279H30.2139V213.559H25.4589V229H23.0815V213.559H18.4491V211.279ZM35.499 229.245C34.3389 229.245 33.3422 229.016 32.5088 228.559C31.6755 228.085 31.0301 227.448 30.5725 226.647C30.1314 225.83 29.9108 224.899 29.9108 223.853C29.9108 222.856 30.164 221.949 30.6706 221.132C31.1771 220.315 31.8552 219.662 32.7049 219.171C33.5546 218.681 34.5023 218.436 35.5481 218.436C36.8879 218.436 37.9991 218.828 38.8814 219.613C39.7638 220.397 40.3602 221.475 40.6707 222.848L32.3127 225.789L31.7735 224.441L38.6363 221.941L38.1461 222.26C37.95 221.721 37.6232 221.255 37.1657 220.863C36.7082 220.454 36.1118 220.25 35.3765 220.25C34.7556 220.25 34.2 220.405 33.7098 220.716C33.2196 221.01 32.8356 221.418 32.5578 221.941C32.2801 222.464 32.1412 223.06 32.1412 223.73C32.1412 224.433 32.2882 225.054 32.5824 225.593C32.8765 226.116 33.2768 226.533 33.7833 226.843C34.3062 227.137 34.8945 227.284 35.5481 227.284C35.9892 227.284 36.4141 227.203 36.8226 227.039C37.2474 226.876 37.6396 226.663 37.9991 226.402L39.053 228.093C38.5465 228.436 37.9746 228.714 37.3373 228.926C36.7164 229.139 36.1036 229.245 35.499 229.245ZM47.7426 229.245C46.7948 229.245 45.9288 229.041 45.1445 228.632C44.3765 228.224 43.7638 227.627 43.3062 226.843C42.8651 226.042 42.6445 225.07 42.6445 223.926C42.6445 222.799 42.8814 221.827 43.3553 221.01C43.8291 220.176 44.4582 219.539 45.2425 219.098C46.0432 218.657 46.9174 218.436 47.8651 218.436C48.8128 218.436 49.6135 218.657 50.2671 219.098C50.9207 219.523 51.4191 220.029 51.7622 220.618L51.6151 221.01L51.8357 218.853H53.9436V229H51.6642V226.353L51.9093 226.941C51.8439 227.105 51.6968 227.317 51.4681 227.578C51.2557 227.824 50.9615 228.077 50.5857 228.338C50.2262 228.6 49.8096 228.82 49.3357 229C48.8618 229.163 48.3308 229.245 47.7426 229.245ZM48.3553 227.358C48.9272 227.358 49.4419 227.252 49.8994 227.039C50.357 226.827 50.7328 226.533 51.0269 226.157C51.3374 225.765 51.5498 225.299 51.6642 224.76V222.774C51.5334 222.284 51.3047 221.859 50.9779 221.5C50.6511 221.124 50.2589 220.838 49.8014 220.642C49.3439 220.43 48.8373 220.323 48.2818 220.323C47.6772 220.323 47.1216 220.471 46.6151 220.765C46.1086 221.059 45.7001 221.467 45.3896 221.99C45.0955 222.513 44.9484 223.126 44.9484 223.828C44.9484 224.482 45.1036 225.078 45.4141 225.618C45.7246 226.157 46.1412 226.582 46.6641 226.892C47.187 227.203 47.7507 227.358 48.3553 227.358ZM59.9225 218.853L60.1186 221.132L60.0205 220.936C60.3964 220.168 60.9274 219.564 61.6137 219.122C62.3163 218.681 63.117 218.461 64.0157 218.461C64.5876 218.461 65.0941 218.551 65.5353 218.73C65.9765 218.91 66.3359 219.171 66.6137 219.515C66.9078 219.841 67.0958 220.25 67.1775 220.74L67.0549 220.814C67.4471 220.078 67.9863 219.506 68.6726 219.098C69.3752 218.673 70.1105 218.461 70.8785 218.461C71.8752 218.461 72.6595 218.747 73.2314 219.319C73.8197 219.874 74.122 220.601 74.1383 221.5V229H71.8589V222.309C71.8425 221.786 71.7118 221.353 71.4667 221.01C71.2379 220.65 70.8294 220.454 70.2412 220.421C69.653 220.421 69.1219 220.601 68.6481 220.961C68.1905 221.32 67.8311 221.786 67.5696 222.358C67.3082 222.913 67.1693 223.518 67.1529 224.172V229H64.8735V222.309C64.8572 221.786 64.7183 221.353 64.4568 221.01C64.2117 220.65 63.7951 220.454 63.2068 220.421C62.6023 220.421 62.0712 220.601 61.6137 220.961C61.1562 221.32 60.7967 221.786 60.5352 222.358C60.2901 222.93 60.1676 223.542 60.1676 224.196V229H57.8882V218.853H59.9225ZM78.1382 215.176L76.9862 214.588C77.3294 214.261 77.599 213.812 77.7951 213.24C78.0075 212.668 78.0565 212.096 77.9421 211.524L79.7559 211.353C79.8539 211.81 79.8376 212.292 79.7068 212.799C79.5761 213.289 79.3719 213.747 79.0941 214.171C78.8163 214.596 78.4977 214.931 78.1382 215.176ZM85.4807 229.196C84.7617 229.196 84.0591 229.074 83.3728 228.828C82.7029 228.567 82.1473 228.183 81.7061 227.676L82.662 226.353C83.0869 226.761 83.5199 227.072 83.9611 227.284C84.4186 227.48 84.8679 227.578 85.3091 227.578C85.6359 227.578 85.9382 227.538 86.216 227.456C86.4938 227.374 86.7143 227.243 86.8777 227.064C87.0575 226.868 87.1474 226.606 87.1474 226.279C87.1474 225.92 87.0248 225.634 86.7797 225.422C86.5509 225.209 86.2487 225.038 85.8728 224.907C85.5134 224.776 85.1294 224.654 84.7209 224.539C83.8875 224.261 83.2503 223.877 82.8091 223.387C82.3679 222.897 82.1473 222.301 82.1473 221.598C82.1473 221.059 82.278 220.56 82.5395 220.103C82.8173 219.629 83.2176 219.245 83.7405 218.951C84.2797 218.657 84.9415 218.51 85.7258 218.51C86.4284 218.51 87.0575 218.6 87.613 218.779C88.1686 218.943 88.6915 219.221 89.1817 219.613L88.2748 221.034C87.9807 220.724 87.6294 220.495 87.2209 220.348C86.8124 220.201 86.4447 220.119 86.1179 220.103C85.8402 220.087 85.5705 220.127 85.3091 220.225C85.064 220.323 84.8598 220.462 84.6964 220.642C84.533 220.822 84.4513 221.034 84.4513 221.279C84.4513 221.622 84.5656 221.9 84.7944 222.113C85.0232 222.325 85.3173 222.497 85.6768 222.627C86.0526 222.742 86.4202 222.864 86.7797 222.995C87.2862 223.142 87.7356 223.338 88.1278 223.583C88.5199 223.828 88.8304 224.131 89.0591 224.49C89.3042 224.85 89.4268 225.299 89.4268 225.838C89.4268 226.443 89.2797 227.007 88.9856 227.529C88.7078 228.036 88.2748 228.444 87.6866 228.755C87.1147 229.049 86.3794 229.196 85.4807 229.196ZM105.643 211.279C106.542 211.279 107.367 211.402 108.119 211.647C108.887 211.876 109.549 212.227 110.104 212.701C110.676 213.158 111.117 213.73 111.428 214.417C111.755 215.086 111.918 215.871 111.918 216.77C111.918 217.472 111.812 218.158 111.599 218.828C111.403 219.498 111.068 220.111 110.594 220.667C110.121 221.206 109.5 221.647 108.732 221.99C107.98 222.317 107.049 222.48 105.938 222.48H103.315V229H100.937V211.279H105.643ZM105.889 220.201C106.591 220.201 107.171 220.095 107.629 219.882C108.103 219.67 108.47 219.4 108.732 219.073C108.993 218.73 109.181 218.363 109.295 217.97C109.41 217.578 109.467 217.211 109.467 216.868C109.467 216.508 109.402 216.14 109.271 215.765C109.157 215.372 108.96 215.013 108.683 214.686C108.421 214.359 108.07 214.09 107.629 213.877C107.204 213.665 106.681 213.559 106.06 213.559H103.315V220.201H105.889ZM108.805 221.549L113.438 229H110.692L105.987 221.622L108.805 221.549ZM120.925 229.245C119.765 229.245 118.768 229.016 117.935 228.559C117.101 228.085 116.456 227.448 115.999 226.647C115.557 225.83 115.337 224.899 115.337 223.853C115.337 222.856 115.59 221.949 116.097 221.132C116.603 220.315 117.281 219.662 118.131 219.171C118.981 218.681 119.928 218.436 120.974 218.436C122.314 218.436 123.425 218.828 124.307 219.613C125.19 220.397 125.786 221.475 126.097 222.848L117.739 225.789L117.199 224.441L124.062 221.941L123.572 222.26C123.376 221.721 123.049 221.255 122.592 220.863C122.134 220.454 121.538 220.25 120.802 220.25C120.182 220.25 119.626 220.405 119.136 220.716C118.646 221.01 118.262 221.418 117.984 221.941C117.706 222.464 117.567 223.06 117.567 223.73C117.567 224.433 117.714 225.054 118.008 225.593C118.302 226.116 118.703 226.533 119.209 226.843C119.732 227.137 120.32 227.284 120.974 227.284C121.415 227.284 121.84 227.203 122.249 227.039C122.673 226.876 123.066 226.663 123.425 226.402L124.479 228.093C123.972 228.436 123.401 228.714 122.763 228.926C122.142 229.139 121.53 229.245 120.925 229.245ZM132.711 229.294L127.074 218.853H129.77L133.594 226.917L132.197 226.868L135.702 218.853H138.251L132.834 229.294H132.711ZM145.172 229.245C144.012 229.245 143.015 229.016 142.181 228.559C141.348 228.085 140.703 227.448 140.245 226.647C139.804 225.83 139.583 224.899 139.583 223.853C139.583 222.856 139.837 221.949 140.343 221.132C140.85 220.315 141.528 219.662 142.378 219.171C143.227 218.681 144.175 218.436 145.221 218.436C146.561 218.436 147.672 218.828 148.554 219.613C149.436 220.397 150.033 221.475 150.343 222.848L141.985 225.789L141.446 224.441L148.309 221.941L147.819 222.26C147.623 221.721 147.296 221.255 146.838 220.863C146.381 220.454 145.784 220.25 145.049 220.25C144.428 220.25 143.873 220.405 143.382 220.716C142.892 221.01 142.508 221.418 142.231 221.941C141.953 222.464 141.814 223.06 141.814 223.73C141.814 224.433 141.961 225.054 142.255 225.593C142.549 226.116 142.949 226.533 143.456 226.843C143.979 227.137 144.567 227.284 145.221 227.284C145.662 227.284 146.087 227.203 146.495 227.039C146.92 226.876 147.312 226.663 147.672 226.402L148.726 228.093C148.219 228.436 147.647 228.714 147.01 228.926C146.389 229.139 145.776 229.245 145.172 229.245ZM157.415 229.245C156.468 229.245 155.601 229.041 154.817 228.632C154.049 228.224 153.436 227.627 152.979 226.843C152.538 226.042 152.317 225.07 152.317 223.926C152.317 222.799 152.554 221.827 153.028 221.01C153.502 220.176 154.131 219.539 154.915 219.098C155.716 218.657 156.59 218.436 157.538 218.436C158.486 218.436 159.286 218.657 159.94 219.098C160.593 219.523 161.092 220.029 161.435 220.618L161.288 221.01L161.508 218.853H163.616V229H161.337V226.353L161.582 226.941C161.517 227.105 161.37 227.317 161.141 227.578C160.928 227.824 160.634 228.077 160.258 228.338C159.899 228.6 159.482 228.82 159.008 229C158.535 229.163 158.003 229.245 157.415 229.245ZM158.028 227.358C158.6 227.358 159.115 227.252 159.572 227.039C160.03 226.827 160.405 226.533 160.7 226.157C161.01 225.765 161.222 225.299 161.337 224.76V222.774C161.206 222.284 160.977 221.859 160.651 221.5C160.324 221.124 159.932 220.838 159.474 220.642C159.017 220.43 158.51 220.323 157.954 220.323C157.35 220.323 156.794 220.471 156.288 220.765C155.781 221.059 155.373 221.467 155.062 221.99C154.768 222.513 154.621 223.126 154.621 223.828C154.621 224.482 154.776 225.078 155.087 225.618C155.397 226.157 155.814 226.582 156.337 226.892C156.86 227.203 157.423 227.358 158.028 227.358ZM167.561 210.029H169.84V229H167.561V210.029Z" fill="white"/>
<path d="M3.29903 251.725H7.8824V253.735H3.29903V251.725ZM19.7481 240.279H30.2629V242.559H22.1256V248.221H29.258V250.475H22.1256V258H19.7481V240.279ZM36.4454 258.392C35.5303 258.392 34.7705 258.114 34.1659 257.559C33.5777 256.987 33.2672 256.252 33.2345 255.353V247.853H35.514V254.544C35.5467 255.1 35.7019 255.549 35.9797 255.892C36.2738 256.235 36.7313 256.415 37.3522 256.431C37.9241 256.431 38.4307 256.268 38.8718 255.941C39.3294 255.598 39.697 255.14 39.9748 254.569C40.2526 253.98 40.3915 253.319 40.3915 252.583V247.853H42.6709V258H40.5875L40.3915 255.5L40.514 255.941C40.3179 256.415 40.0156 256.84 39.6071 257.216C39.215 257.575 38.7493 257.861 38.2101 258.074C37.6709 258.286 37.0826 258.392 36.4454 258.392ZM46.6145 239.029H48.8939V258H46.6145V239.029ZM52.8378 239.029H55.1172V258H52.8378V239.029ZM58.3747 251.725H62.9581V253.735H58.3747V251.725ZM65.5246 240.377H68.2697L73.0736 253.907L72.657 253.735L76.1619 244.667L77.2649 247.877L72.5834 258.809L65.5246 240.377ZM74.0295 240.377H76.407L81.6031 253.711L81.1129 253.613L85.6963 240.377H88.2208L81.26 258.784L74.0295 240.377ZM93.6385 258.245C92.4783 258.245 91.4816 258.016 90.6483 257.559C89.8149 257.085 89.1695 256.448 88.712 255.647C88.2708 254.83 88.0502 253.899 88.0502 252.853C88.0502 251.856 88.3035 250.949 88.81 250.132C89.3166 249.315 89.9947 248.662 90.8443 248.171C91.694 247.681 92.6417 247.436 93.6875 247.436C95.0274 247.436 96.1385 247.828 97.0209 248.613C97.9032 249.397 98.4996 250.475 98.8101 251.848L90.4522 254.789L89.913 253.441L96.7758 250.941L96.2856 251.26C96.0895 250.721 95.7627 250.255 95.3052 249.863C94.8476 249.454 94.2512 249.25 93.5159 249.25C92.895 249.25 92.3395 249.405 91.8493 249.716C91.3591 250.01 90.9751 250.418 90.6973 250.941C90.4195 251.464 90.2806 252.06 90.2806 252.73C90.2806 253.433 90.4277 254.054 90.7218 254.593C91.0159 255.116 91.4162 255.533 91.9228 255.843C92.4457 256.137 93.0339 256.284 93.6875 256.284C94.1287 256.284 94.5535 256.203 94.962 256.039C95.3869 255.876 95.779 255.663 96.1385 255.402L97.1924 257.093C96.6859 257.436 96.114 257.714 95.4767 257.926C94.8558 258.139 94.2431 258.245 93.6385 258.245ZM107.843 258.245C106.911 258.245 106.086 258.041 105.367 257.632C104.665 257.224 104.101 256.709 103.676 256.088L103.946 255.377V258H101.666V239.029H103.921V250.181L103.848 249.323C104.256 248.768 104.836 248.319 105.588 247.975C106.356 247.616 107.206 247.436 108.137 247.436C109.052 247.436 109.885 247.657 110.637 248.098C111.389 248.539 111.985 249.16 112.426 249.961C112.884 250.745 113.112 251.685 113.112 252.779C113.112 253.923 112.867 254.904 112.377 255.721C111.903 256.538 111.266 257.167 110.465 257.608C109.665 258.033 108.791 258.245 107.843 258.245ZM107.377 256.309C108.031 256.309 108.619 256.154 109.142 255.843C109.665 255.533 110.073 255.116 110.367 254.593C110.661 254.054 110.809 253.441 110.809 252.755C110.809 252.101 110.653 251.513 110.343 250.99C110.049 250.451 109.64 250.026 109.117 249.716C108.611 249.405 108.031 249.25 107.377 249.25C106.822 249.25 106.307 249.356 105.833 249.569C105.359 249.781 104.959 250.075 104.632 250.451C104.305 250.81 104.076 251.235 103.946 251.725V253.76C104.076 254.25 104.297 254.691 104.607 255.083C104.918 255.459 105.31 255.761 105.784 255.99C106.258 256.203 106.789 256.309 107.377 256.309ZM119.038 258.196C118.319 258.196 117.617 258.074 116.93 257.828C116.261 257.567 115.705 257.183 115.264 256.676L116.22 255.353C116.645 255.761 117.078 256.072 117.519 256.284C117.976 256.48 118.426 256.578 118.867 256.578C119.194 256.578 119.496 256.538 119.774 256.456C120.051 256.374 120.272 256.243 120.435 256.064C120.615 255.868 120.705 255.606 120.705 255.279C120.705 254.92 120.582 254.634 120.337 254.422C120.109 254.209 119.806 254.038 119.43 253.907C119.071 253.776 118.687 253.654 118.279 253.539C117.445 253.261 116.808 252.877 116.367 252.387C115.926 251.897 115.705 251.301 115.705 250.598C115.705 250.059 115.836 249.56 116.097 249.103C116.375 248.629 116.775 248.245 117.298 247.951C117.837 247.657 118.499 247.51 119.283 247.51C119.986 247.51 120.615 247.6 121.171 247.779C121.726 247.943 122.249 248.221 122.739 248.613L121.832 250.034C121.538 249.724 121.187 249.495 120.779 249.348C120.37 249.201 120.002 249.119 119.676 249.103C119.398 249.087 119.128 249.127 118.867 249.225C118.622 249.323 118.417 249.462 118.254 249.642C118.091 249.822 118.009 250.034 118.009 250.279C118.009 250.622 118.123 250.9 118.352 251.113C118.581 251.325 118.875 251.497 119.234 251.627C119.61 251.742 119.978 251.864 120.337 251.995C120.844 252.142 121.293 252.338 121.685 252.583C122.078 252.828 122.388 253.131 122.617 253.49C122.862 253.85 122.984 254.299 122.984 254.838C122.984 255.443 122.837 256.007 122.543 256.529C122.265 257.036 121.832 257.444 121.244 257.755C120.672 258.049 119.937 258.196 119.038 258.196ZM126.176 247.853H128.456V258H126.176V247.853ZM126.005 244.176C126.005 243.817 126.144 243.515 126.421 243.269C126.716 243.024 127.034 242.902 127.377 242.902C127.72 242.902 128.023 243.024 128.284 243.269C128.562 243.515 128.701 243.817 128.701 244.176C128.701 244.552 128.562 244.863 128.284 245.108C128.023 245.336 127.72 245.451 127.377 245.451C127.034 245.451 126.716 245.328 126.421 245.083C126.144 244.838 126.005 244.536 126.005 244.176ZM133.38 243.392H135.659V247.902H138.453V249.691H135.659V258H133.38V249.691H131.517V247.902H133.38V243.392ZM145.914 258.245C144.754 258.245 143.757 258.016 142.923 257.559C142.09 257.085 141.445 256.448 140.987 255.647C140.546 254.83 140.325 253.899 140.325 252.853C140.325 251.856 140.579 250.949 141.085 250.132C141.592 249.315 142.27 248.662 143.12 248.171C143.969 247.681 144.917 247.436 145.963 247.436C147.303 247.436 148.414 247.828 149.296 248.613C150.178 249.397 150.775 250.475 151.085 251.848L142.727 254.789L142.188 253.441L149.051 250.941L148.561 251.26C148.365 250.721 148.038 250.255 147.58 249.863C147.123 249.454 146.526 249.25 145.791 249.25C145.17 249.25 144.615 249.405 144.124 249.716C143.634 250.01 143.25 250.418 142.973 250.941C142.695 251.464 142.556 252.06 142.556 252.73C142.556 253.433 142.703 254.054 142.997 254.593C143.291 255.116 143.691 255.533 144.198 255.843C144.721 256.137 145.309 256.284 145.963 256.284C146.404 256.284 146.829 256.203 147.237 256.039C147.662 255.876 148.054 255.663 148.414 255.402L149.468 257.093C148.961 257.436 148.389 257.714 147.752 257.926C147.131 258.139 146.518 258.245 145.914 258.245Z" fill="white"/>
<path d="M3.29903 280.725H7.8824V282.735H3.29903V280.725ZM21.8805 280.725C21.8805 281.526 22.0684 282.245 22.4442 282.882C22.8364 283.503 23.3511 283.993 23.9883 284.353C24.6256 284.712 25.3446 284.892 26.1452 284.892C26.9786 284.892 27.722 284.712 28.3756 284.353C29.0292 283.993 29.5439 283.503 29.9198 282.882C30.2956 282.245 30.4835 281.526 30.4835 280.725V269.279H32.8119V280.799C32.8119 282.09 32.5097 283.217 31.9051 284.181C31.3168 285.145 30.5162 285.889 29.5031 286.412C28.5064 286.935 27.3871 287.196 26.1452 287.196C24.9034 287.196 23.7841 286.935 22.7874 286.412C21.7906 285.889 20.9981 285.145 20.4099 284.181C19.8216 283.217 19.5275 282.09 19.5275 280.799V269.279H21.8805V280.725ZM43.0925 287.245C42.3246 287.245 41.5811 287.065 40.8621 286.706C40.1595 286.346 39.6121 285.864 39.22 285.26L39.367 284.549V291.877H37.1121V276.706H39.0729L39.3915 279.304L39.1464 278.593C39.6366 277.972 40.2576 277.457 41.0092 277.049C41.7608 276.64 42.6023 276.436 43.5337 276.436C44.4814 276.436 45.3311 276.665 46.0828 277.122C46.8507 277.58 47.4553 278.217 47.8965 279.034C48.3377 279.851 48.5583 280.807 48.5583 281.902C48.5583 282.997 48.3213 283.944 47.8475 284.745C47.3736 285.546 46.72 286.167 45.8867 286.608C45.0697 287.033 44.1383 287.245 43.0925 287.245ZM42.6514 285.431C43.305 285.431 43.9014 285.284 44.4406 284.99C44.9962 284.68 45.4373 284.263 45.7641 283.74C46.0909 283.201 46.2543 282.596 46.2543 281.926C46.2543 281.24 46.0991 280.636 45.7886 280.113C45.4782 279.573 45.0615 279.149 44.5386 278.838C44.0321 278.528 43.4602 278.372 42.8229 278.372C42.2347 278.372 41.7036 278.487 41.2298 278.716C40.7559 278.944 40.3638 279.263 40.0533 279.672C39.7428 280.064 39.5223 280.521 39.3915 281.044V282.735C39.4732 283.258 39.6693 283.724 39.9798 284.132C40.2902 284.541 40.6742 284.859 41.1317 285.088C41.6056 285.317 42.1121 285.431 42.6514 285.431ZM55.7587 287.245C54.8273 287.245 53.9776 287.025 53.2096 286.583C52.458 286.126 51.8616 285.489 51.4204 284.672C50.9792 283.838 50.7586 282.882 50.7586 281.804C50.7586 280.676 50.9874 279.712 51.4449 278.912C51.9188 278.111 52.556 277.498 53.3567 277.073C54.1573 276.649 55.056 276.436 56.0528 276.436C56.8534 276.436 57.6133 276.608 58.3322 276.951C59.0675 277.294 59.6394 277.768 60.0479 278.372L59.9499 279.181V268.029H62.2048V287H59.9254V284.475L60.1705 285.113C59.6966 285.734 59.0839 286.248 58.3322 286.657C57.5806 287.049 56.7227 287.245 55.7587 287.245ZM56.4695 285.309C57.074 285.309 57.6133 285.203 58.0871 284.99C58.561 284.761 58.9531 284.451 59.2636 284.059C59.5741 283.667 59.7946 283.201 59.9254 282.662V280.75C59.7946 280.26 59.5577 279.835 59.2146 279.475C58.8878 279.1 58.4874 278.805 58.0136 278.593C57.5561 278.364 57.0414 278.25 56.4695 278.25C55.8485 278.25 55.2766 278.405 54.7538 278.716C54.2472 279.01 53.8387 279.418 53.5283 279.941C53.2178 280.464 53.0626 281.069 53.0626 281.755C53.0626 282.425 53.2178 283.029 53.5283 283.569C53.8387 284.091 54.2554 284.516 54.7783 284.843C55.3011 285.154 55.8649 285.309 56.4695 285.309ZM70.3856 287.245C69.4379 287.245 68.5718 287.041 67.7875 286.632C67.0195 286.224 66.4068 285.627 65.9493 284.843C65.5081 284.042 65.2875 283.07 65.2875 281.926C65.2875 280.799 65.5244 279.827 65.9983 279.01C66.4722 278.176 67.1012 277.539 67.8856 277.098C68.6862 276.657 69.5604 276.436 70.5081 276.436C71.4559 276.436 72.2565 276.657 72.9101 277.098C73.5637 277.523 74.0621 278.029 74.4052 278.618L74.2582 279.01L74.4788 276.853H76.5866V287H74.3072V284.353L74.5523 284.941C74.4869 285.105 74.3399 285.317 74.1111 285.578C73.8987 285.824 73.6046 286.077 73.2287 286.338C72.8693 286.6 72.4526 286.82 71.9787 287C71.5049 287.163 70.9738 287.245 70.3856 287.245ZM70.9983 285.358C71.5702 285.358 72.0849 285.252 72.5425 285.039C73 284.827 73.3758 284.533 73.6699 284.157C73.9804 283.765 74.1928 283.299 74.3072 282.76V280.774C74.1765 280.284 73.9477 279.859 73.6209 279.5C73.2941 279.124 72.9019 278.838 72.4444 278.642C71.9869 278.43 71.4804 278.323 70.9248 278.323C70.3202 278.323 69.7647 278.471 69.2581 278.765C68.7516 279.059 68.3431 279.467 68.0326 279.99C67.7385 280.513 67.5914 281.126 67.5914 281.828C67.5914 282.482 67.7467 283.078 68.0571 283.618C68.3676 284.157 68.7843 284.582 69.3071 284.892C69.83 285.203 70.3938 285.358 70.9983 285.358ZM81.5116 272.392H83.791V276.902H86.5852V278.691H83.791V287H81.5116V278.691H79.6488V276.902H81.5116V272.392ZM94.0454 287.245C92.8853 287.245 91.8885 287.016 91.0552 286.559C90.2218 286.085 89.5764 285.448 89.1189 284.647C88.6777 283.83 88.4571 282.899 88.4571 281.853C88.4571 280.856 88.7104 279.949 89.2169 279.132C89.7235 278.315 90.4016 277.662 91.2513 277.171C92.1009 276.681 93.0487 276.436 94.0944 276.436C95.4343 276.436 96.5454 276.828 97.4278 277.613C98.3101 278.397 98.9065 279.475 99.217 280.848L90.8591 283.789L90.3199 282.441L97.1827 279.941L96.6925 280.26C96.4964 279.721 96.1696 279.255 95.7121 278.863C95.2546 278.454 94.6581 278.25 93.9228 278.25C93.3019 278.25 92.7464 278.405 92.2562 278.716C91.766 279.01 91.382 279.418 91.1042 279.941C90.8264 280.464 90.6875 281.06 90.6875 281.73C90.6875 282.433 90.8346 283.054 91.1287 283.593C91.4228 284.116 91.8232 284.533 92.3297 284.843C92.8526 285.137 93.4408 285.284 94.0944 285.284C94.5356 285.284 94.9604 285.203 95.3689 285.039C95.7938 284.876 96.1859 284.663 96.5454 284.402L97.5993 286.093C97.0928 286.436 96.5209 286.714 95.8836 286.926C95.2627 287.139 94.65 287.245 94.0454 287.245ZM110.392 287V269.279H115.22C116.969 269.279 118.456 269.549 119.681 270.088C120.923 270.627 121.92 271.338 122.672 272.22C123.423 273.103 123.971 274.083 124.314 275.162C124.673 276.224 124.853 277.286 124.853 278.348C124.853 279.688 124.616 280.889 124.142 281.951C123.685 283.013 123.047 283.92 122.23 284.672C121.413 285.423 120.474 286.003 119.412 286.412C118.366 286.804 117.255 287 116.078 287H110.392ZM112.769 284.721H115.613C116.593 284.721 117.492 284.574 118.309 284.279C119.142 283.985 119.861 283.56 120.466 283.005C121.087 282.449 121.569 281.771 121.912 280.971C122.255 280.154 122.426 279.23 122.426 278.201C122.426 277.106 122.247 276.15 121.887 275.333C121.528 274.5 121.038 273.805 120.417 273.25C119.796 272.694 119.093 272.278 118.309 272C117.524 271.706 116.699 271.559 115.833 271.559H112.769V284.721ZM132.989 287.245C131.828 287.245 130.832 287.016 129.998 286.559C129.165 286.085 128.52 285.448 128.062 284.647C127.621 283.83 127.4 282.899 127.4 281.853C127.4 280.856 127.654 279.949 128.16 279.132C128.667 278.315 129.345 277.662 130.194 277.171C131.044 276.681 131.992 276.436 133.038 276.436C134.377 276.436 135.489 276.828 136.371 277.613C137.253 278.397 137.85 279.475 138.16 280.848L129.802 283.789L129.263 282.441L136.126 279.941L135.636 280.26C135.44 279.721 135.113 279.255 134.655 278.863C134.198 278.454 133.601 278.25 132.866 278.25C132.245 278.25 131.689 278.405 131.199 278.716C130.709 279.01 130.325 279.418 130.047 279.941C129.77 280.464 129.631 281.06 129.631 281.73C129.631 282.433 129.778 283.054 130.072 283.593C130.366 284.116 130.766 284.533 131.273 284.843C131.796 285.137 132.384 285.284 133.038 285.284C133.479 285.284 133.904 285.203 134.312 285.039C134.737 284.876 135.129 284.663 135.489 284.402L136.542 286.093C136.036 286.436 135.464 286.714 134.827 286.926C134.206 287.139 133.593 287.245 132.989 287.245ZM144.775 287.294L139.138 276.853H141.834L145.657 284.917L144.26 284.868L147.765 276.853H150.314L144.898 287.294H144.775ZM157.235 287.245C156.075 287.245 155.078 287.016 154.245 286.559C153.412 286.085 152.766 285.448 152.309 284.647C151.868 283.83 151.647 282.899 151.647 281.853C151.647 280.856 151.9 279.949 152.407 279.132C152.913 278.315 153.591 277.662 154.441 277.171C155.291 276.681 156.238 276.436 157.284 276.436C158.624 276.436 159.735 276.828 160.618 277.613C161.5 278.397 162.096 279.475 162.407 280.848L154.049 283.789L153.51 282.441L160.373 279.941L159.882 280.26C159.686 279.721 159.359 279.255 158.902 278.863C158.444 278.454 157.848 278.25 157.113 278.25C156.492 278.25 155.936 278.405 155.446 278.716C154.956 279.01 154.572 279.418 154.294 279.941C154.016 280.464 153.877 281.06 153.877 281.73C153.877 282.433 154.024 283.054 154.319 283.593C154.613 284.116 155.013 284.533 155.52 284.843C156.042 285.137 156.631 285.284 157.284 285.284C157.725 285.284 158.15 285.203 158.559 285.039C158.984 284.876 159.376 284.663 159.735 284.402L160.789 286.093C160.283 286.436 159.711 286.714 159.073 286.926C158.453 287.139 157.84 287.245 157.235 287.245ZM165.263 268.029H167.542V287H165.263V268.029ZM170.604 281.828C170.604 280.815 170.841 279.9 171.315 279.083C171.805 278.266 172.475 277.621 173.325 277.147C174.174 276.673 175.138 276.436 176.217 276.436C177.328 276.436 178.3 276.673 179.133 277.147C179.967 277.621 180.612 278.266 181.07 279.083C181.527 279.9 181.756 280.815 181.756 281.828C181.756 282.841 181.527 283.765 181.07 284.598C180.612 285.415 179.959 286.06 179.109 286.534C178.276 287.008 177.303 287.245 176.192 287.245C175.114 287.245 174.15 287.025 173.3 286.583C172.467 286.126 171.805 285.497 171.315 284.696C170.841 283.879 170.604 282.923 170.604 281.828ZM172.883 281.853C172.883 282.506 173.03 283.103 173.325 283.642C173.619 284.165 174.011 284.582 174.501 284.892C175.008 285.203 175.563 285.358 176.168 285.358C176.805 285.358 177.369 285.203 177.859 284.892C178.365 284.582 178.758 284.165 179.035 283.642C179.313 283.103 179.452 282.506 179.452 281.853C179.452 281.199 179.313 280.611 179.035 280.088C178.758 279.549 178.365 279.124 177.859 278.814C177.369 278.487 176.805 278.323 176.168 278.323C175.547 278.323 174.983 278.487 174.476 278.814C173.986 279.14 173.594 279.573 173.3 280.113C173.022 280.636 172.883 281.216 172.883 281.853ZM190.823 287.245C190.055 287.245 189.311 287.065 188.592 286.706C187.89 286.346 187.342 285.864 186.95 285.26L187.097 284.549V291.877H184.842V276.706H186.803L187.122 279.304L186.877 278.593C187.367 277.972 187.988 277.457 188.739 277.049C189.491 276.64 190.333 276.436 191.264 276.436C192.212 276.436 193.061 276.665 193.813 277.122C194.581 277.58 195.186 278.217 195.627 279.034C196.068 279.851 196.288 280.807 196.288 281.902C196.288 282.997 196.052 283.944 195.578 284.745C195.104 285.546 194.45 286.167 193.617 286.608C192.8 287.033 191.869 287.245 190.823 287.245ZM190.382 285.431C191.035 285.431 191.632 285.284 192.171 284.99C192.726 284.68 193.168 284.263 193.494 283.74C193.821 283.201 193.985 282.596 193.985 281.926C193.985 281.24 193.829 280.636 193.519 280.113C193.208 279.573 192.792 279.149 192.269 278.838C191.762 278.528 191.19 278.372 190.553 278.372C189.965 278.372 189.434 278.487 188.96 278.716C188.486 278.944 188.094 279.263 187.784 279.672C187.473 280.064 187.252 280.521 187.122 281.044V282.735C187.203 283.258 187.4 283.724 187.71 284.132C188.02 284.541 188.404 284.859 188.862 285.088C189.336 285.317 189.842 285.431 190.382 285.431ZM201.406 276.853L201.602 279.132L201.504 278.936C201.879 278.168 202.41 277.564 203.097 277.122C203.799 276.681 204.6 276.461 205.499 276.461C206.071 276.461 206.577 276.551 207.018 276.73C207.459 276.91 207.819 277.171 208.097 277.515C208.391 277.841 208.579 278.25 208.66 278.74L208.538 278.814C208.93 278.078 209.469 277.506 210.156 277.098C210.858 276.673 211.593 276.461 212.361 276.461C213.358 276.461 214.143 276.747 214.714 277.319C215.303 277.874 215.605 278.601 215.621 279.5V287H213.342V280.309C213.326 279.786 213.195 279.353 212.95 279.01C212.721 278.65 212.312 278.454 211.724 278.421C211.136 278.421 210.605 278.601 210.131 278.961C209.674 279.32 209.314 279.786 209.053 280.358C208.791 280.913 208.652 281.518 208.636 282.172V287H206.357V280.309C206.34 279.786 206.201 279.353 205.94 279.01C205.695 278.65 205.278 278.454 204.69 278.421C204.085 278.421 203.554 278.601 203.097 278.961C202.639 279.32 202.28 279.786 202.018 280.358C201.773 280.93 201.651 281.542 201.651 282.196V287H199.371V276.853H201.406ZM224.303 287.245C223.142 287.245 222.146 287.016 221.312 286.559C220.479 286.085 219.834 285.448 219.376 284.647C218.935 283.83 218.714 282.899 218.714 281.853C218.714 280.856 218.968 279.949 219.474 279.132C219.981 278.315 220.659 277.662 221.508 277.171C222.358 276.681 223.306 276.436 224.352 276.436C225.692 276.436 226.803 276.828 227.685 277.613C228.567 278.397 229.164 279.475 229.474 280.848L221.116 283.789L220.577 282.441L227.44 279.941L226.95 280.26C226.754 279.721 226.427 279.255 225.969 278.863C225.512 278.454 224.915 278.25 224.18 278.25C223.559 278.25 223.004 278.405 222.513 278.716C222.023 279.01 221.639 279.418 221.361 279.941C221.084 280.464 220.945 281.06 220.945 281.73C220.945 282.433 221.092 283.054 221.386 283.593C221.68 284.116 222.08 284.533 222.587 284.843C223.11 285.137 223.698 285.284 224.352 285.284C224.793 285.284 225.218 285.203 225.626 285.039C226.051 284.876 226.443 284.663 226.803 284.402L227.857 286.093C227.35 286.436 226.778 286.714 226.141 286.926C225.52 287.139 224.907 287.245 224.303 287.245ZM234.365 276.853L234.561 279.328L234.463 278.936C234.79 278.185 235.321 277.588 236.056 277.147C236.791 276.689 237.641 276.461 238.605 276.461C239.569 276.461 240.353 276.747 240.958 277.319C241.579 277.874 241.898 278.601 241.914 279.5V287H239.61V280.309C239.594 279.753 239.43 279.304 239.12 278.961C238.826 278.601 238.36 278.421 237.723 278.421C237.134 278.421 236.603 278.585 236.129 278.912C235.656 279.238 235.28 279.688 235.002 280.26C234.741 280.832 234.61 281.493 234.61 282.245V287H232.33V276.853H234.365ZM246.858 272.392H249.138V276.902H251.932V278.691H249.138V287H246.858V278.691H244.996V276.902H246.858V272.392Z" fill="white"/>
<path d="M3.76472 312.523H9.90856V316.51H3.76472V312.523ZM38.5643 303.765C37.6493 303.263 36.7125 302.85 35.7538 302.523C34.817 302.196 33.9347 302.033 33.1068 302.033C32.0828 302.033 31.2767 302.239 30.6884 302.653C30.1002 303.067 29.8061 303.688 29.8061 304.516C29.8061 305.083 30.024 305.595 30.4597 306.052C30.9172 306.488 31.4946 306.88 32.1917 307.229C32.9107 307.577 33.6514 307.893 34.414 308.176C35.1111 308.438 35.7974 308.754 36.4728 309.124C37.17 309.473 37.7909 309.919 38.3356 310.464C38.8802 310.987 39.316 311.651 39.6428 312.457C39.9696 313.242 40.133 314.211 40.133 315.366C40.133 316.586 39.8171 317.719 39.1852 318.765C38.5534 319.81 37.6275 320.66 36.4074 321.314C35.1874 321.946 33.6841 322.261 31.8976 322.261C30.9826 322.261 30.0457 322.174 29.0871 322C28.1503 321.804 27.2244 321.521 26.3093 321.15C25.3943 320.758 24.5119 320.268 23.6622 319.68L25.7538 315.987C26.3202 316.401 26.9302 316.771 27.5838 317.098C28.2592 317.403 28.9346 317.643 29.61 317.817C30.2854 317.991 30.9063 318.078 31.4728 318.078C32.0392 318.078 32.6057 318.002 33.1721 317.85C33.7604 317.675 34.2397 317.392 34.61 317C35.0022 316.608 35.1983 316.063 35.1983 315.366C35.1983 314.887 35.0349 314.451 34.7081 314.059C34.4031 313.667 33.9782 313.307 33.4336 312.98C32.9107 312.654 32.3333 312.37 31.7015 312.131C30.9608 311.847 30.1982 311.521 29.4139 311.15C28.6296 310.78 27.8889 310.333 27.1917 309.81C26.5163 309.266 25.9607 308.601 25.525 307.817C25.1111 307.011 24.9041 306.03 24.9041 304.876C24.9041 303.481 25.2091 302.272 25.8191 301.248C26.4509 300.224 27.3333 299.418 28.4662 298.83C29.5991 298.22 30.9063 297.882 32.3878 297.817C34.3268 297.817 35.8955 298.046 37.0937 298.503C38.3138 298.961 39.4031 299.505 40.3617 300.137L38.5643 303.765ZM51.0483 322.392C49.3054 322.392 47.8239 322.065 46.6039 321.412C45.4056 320.758 44.4906 319.854 43.8587 318.699C43.2269 317.545 42.911 316.216 42.911 314.712C42.911 313.274 43.2814 311.978 44.0221 310.823C44.7629 309.669 45.7542 308.754 46.996 308.078C48.2379 307.381 49.6213 307.033 51.1464 307.033C53.1943 307.033 54.8719 307.632 56.1791 308.83C57.5081 310.006 58.3687 311.717 58.7608 313.961L47.6496 317.49L46.6365 315.006L54.6758 312.294L53.7281 312.719C53.5538 312.152 53.2379 311.662 52.7804 311.248C52.3446 310.813 51.6802 310.595 50.7869 310.595C50.1115 310.595 49.5124 310.758 48.9895 311.085C48.4884 311.39 48.0962 311.837 47.813 312.425C47.5516 312.991 47.4209 313.667 47.4209 314.451C47.4209 315.344 47.5843 316.096 47.9111 316.706C48.2379 317.294 48.6845 317.741 49.2509 318.046C49.8174 318.351 50.4492 318.503 51.1464 318.503C51.6475 318.503 52.1268 318.416 52.5843 318.242C53.0636 318.068 53.532 317.839 53.9895 317.556L56.0157 320.954C55.2532 321.39 54.4253 321.739 53.532 322C52.6606 322.261 51.8327 322.392 51.0483 322.392ZM69.1117 322.392C67.3688 322.392 65.8873 322.065 64.6672 321.412C63.469 320.758 62.5539 319.854 61.9221 318.699C61.2903 317.545 60.9744 316.216 60.9744 314.712C60.9744 313.274 61.3448 311.978 62.0855 310.823C62.8262 309.669 63.8175 308.754 65.0594 308.078C66.3012 307.381 67.6847 307.033 69.2097 307.033C71.2577 307.033 72.9353 307.632 74.2425 308.83C75.5714 310.006 76.432 311.717 76.8242 313.961L65.713 317.49L64.6999 315.006L72.7392 312.294L71.7915 312.719C71.6172 312.152 71.3013 311.662 70.8437 311.248C70.408 310.813 69.7435 310.595 68.8503 310.595C68.1749 310.595 67.5757 310.758 67.0529 311.085C66.5518 311.39 66.1596 311.837 65.8764 312.425C65.6149 312.991 65.4842 313.667 65.4842 314.451C65.4842 315.344 65.6476 316.096 65.9744 316.706C66.3012 317.294 66.7478 317.741 67.3143 318.046C67.8808 318.351 68.5126 318.503 69.2097 318.503C69.7108 318.503 70.1901 318.416 70.6477 318.242C71.127 318.068 71.5954 317.839 72.0529 317.556L74.0791 320.954C73.3165 321.39 72.4886 321.739 71.5954 322C70.7239 322.261 69.896 322.392 69.1117 322.392ZM85.9659 322.392C84.6369 322.392 83.4495 322.087 82.4038 321.477C81.358 320.845 80.5301 319.941 79.9201 318.765C79.3319 317.588 79.0377 316.194 79.0377 314.582C79.0377 312.969 79.3645 311.597 80.0181 310.464C80.6717 309.331 81.565 308.47 82.6979 307.882C83.8308 307.294 85.1162 307 86.5541 307C87.4692 307 88.3406 307.141 89.1685 307.425C90.0182 307.708 90.7263 308.144 91.2927 308.732V310.17V296.215H95.8353V322H91.2601V319.222L91.6195 320.203C90.8788 320.813 90.0509 321.336 89.1359 321.771C88.2208 322.185 87.1642 322.392 85.9659 322.392ZM87.4692 318.536C88.0792 318.536 88.613 318.46 89.0705 318.307C89.5498 318.133 89.9638 317.893 90.3123 317.588C90.6827 317.261 90.9986 316.858 91.2601 316.379V312.882C91.0858 312.403 90.8134 312 90.4431 311.673C90.0945 311.325 89.6587 311.063 89.1359 310.889C88.6348 310.693 88.0792 310.595 87.4692 310.595C86.7938 310.595 86.162 310.769 85.5737 311.118C85.0073 311.444 84.5498 311.902 84.2012 312.49C83.8526 313.078 83.6783 313.754 83.6783 314.516C83.6783 315.279 83.8526 315.965 84.2012 316.575C84.5498 317.185 85.0073 317.664 85.5737 318.013C86.162 318.362 86.7938 318.536 87.4692 318.536ZM132.183 322C131.878 322 131.42 322 130.81 322C130.222 322 129.612 322 128.98 322C128.348 322 127.803 322 127.346 322C126.91 322 126.692 322 126.692 322L116.104 307.752C115.886 307.447 115.614 307.033 115.287 306.51C114.96 305.965 114.677 305.366 114.437 304.712C114.198 304.037 114.078 303.362 114.078 302.686C114.078 301.815 114.296 300.954 114.731 300.104C115.189 299.233 115.875 298.514 116.79 297.948C117.727 297.359 118.904 297.065 120.32 297.065C121.867 297.065 123.228 297.381 124.405 298.013C125.581 298.645 126.518 299.407 127.215 300.3L124.83 303.47C124.154 302.73 123.501 302.141 122.869 301.706C122.259 301.27 121.66 301.052 121.071 301.052C120.331 301.052 119.797 301.27 119.47 301.706C119.143 302.141 118.98 302.621 118.98 303.144C118.98 303.449 119.056 303.786 119.209 304.157C119.383 304.505 119.557 304.832 119.731 305.137C119.906 305.42 120.026 305.616 120.091 305.725L132.183 322ZM118.947 311.052C118.424 311.052 117.934 311.161 117.477 311.379C117.019 311.575 116.616 311.847 116.267 312.196C115.919 312.545 115.646 312.937 115.45 313.372C115.276 313.808 115.189 314.266 115.189 314.745C115.189 315.42 115.352 316.02 115.679 316.542C116.028 317.044 116.496 317.436 117.084 317.719C117.673 318.002 118.315 318.144 119.013 318.144C119.731 318.144 120.32 318.046 120.777 317.85C121.257 317.632 121.649 317.349 121.954 317C122.281 316.651 122.542 316.27 122.738 315.856L125.777 318.373C125.189 319.484 124.285 320.431 123.065 321.216C121.867 322 120.298 322.392 118.359 322.392C116.856 322.392 115.494 322.076 114.274 321.444C113.054 320.813 112.084 319.941 111.365 318.83C110.646 317.719 110.287 316.444 110.287 315.006C110.287 313.917 110.527 312.915 111.006 312C111.507 311.085 112.172 310.29 112.999 309.614C113.827 308.939 114.753 308.405 115.777 308.013C116.801 307.599 117.847 307.381 118.914 307.359L118.947 311.052ZM126.071 307.359H130.385L126.333 317.556L122.901 315.529L126.071 307.359ZM154.027 297.948C156.009 297.948 157.687 298.285 159.06 298.961C160.432 299.614 161.478 300.551 162.197 301.771C162.916 302.969 163.275 304.396 163.275 306.052C163.275 307.033 163.123 308.024 162.818 309.026C162.535 310.006 162.066 310.9 161.413 311.706C160.781 312.512 159.92 313.166 158.831 313.667C157.763 314.146 156.445 314.386 154.877 314.386H151.478V322H146.739V297.948H154.027ZM154.844 309.778C155.563 309.778 156.162 309.658 156.641 309.418C157.121 309.157 157.491 308.841 157.752 308.47C158.036 308.078 158.232 307.675 158.341 307.261C158.471 306.847 158.537 306.488 158.537 306.183C158.537 305.943 158.493 305.627 158.406 305.235C158.341 304.821 158.188 304.407 157.948 303.993C157.709 303.579 157.338 303.231 156.837 302.948C156.358 302.664 155.704 302.523 154.877 302.523H151.478V309.778H154.844ZM170.881 307.719L171.306 311.64L171.208 311.052C171.622 310.203 172.189 309.484 172.907 308.895C173.626 308.285 174.334 307.817 175.032 307.49C175.751 307.163 176.295 307 176.666 307L176.437 311.575C175.369 311.444 174.454 311.619 173.692 312.098C172.929 312.577 172.341 313.209 171.927 313.993C171.513 314.778 171.306 315.584 171.306 316.412V322H166.764V307.719H170.881ZM180.168 307.719H184.743V322H180.168V307.719ZM180.069 302.653C180.069 301.978 180.331 301.422 180.854 300.987C181.398 300.551 181.976 300.333 182.586 300.333C183.196 300.333 183.751 300.551 184.253 300.987C184.775 301.422 185.037 301.978 185.037 302.653C185.037 303.329 184.775 303.884 184.253 304.32C183.751 304.734 183.196 304.941 182.586 304.941C181.976 304.941 181.398 304.734 180.854 304.32C180.331 303.884 180.069 303.329 180.069 302.653ZM195.991 322.294L187.428 307.719H192.853L197.723 317.588L194.912 317.49L199.128 307.719H204.226L196.121 322.294H195.991ZM212.286 322.392C210.957 322.392 209.748 322.131 208.659 321.608C207.591 321.063 206.742 320.235 206.11 319.124C205.478 318.013 205.162 316.597 205.162 314.876C205.162 313.264 205.489 311.869 206.143 310.693C206.796 309.516 207.657 308.612 208.724 307.98C209.792 307.327 210.925 307 212.123 307C213.539 307 214.607 307.24 215.326 307.719C216.066 308.176 216.676 308.688 217.156 309.255L216.96 309.81L217.384 307.719H221.633V322H217.058V318.895L217.417 319.876C217.374 319.876 217.243 320.007 217.025 320.268C216.807 320.508 216.48 320.802 216.045 321.15C215.631 321.477 215.108 321.76 214.476 322C213.866 322.261 213.136 322.392 212.286 322.392ZM213.594 318.667C214.138 318.667 214.628 318.59 215.064 318.438C215.5 318.264 215.881 318.024 216.208 317.719C216.535 317.392 216.818 316.989 217.058 316.51V313.013C216.883 312.534 216.622 312.131 216.273 311.804C215.925 311.455 215.511 311.194 215.031 311.02C214.552 310.823 214.018 310.725 213.43 310.725C212.777 310.725 212.167 310.9 211.6 311.248C211.055 311.575 210.62 312.033 210.293 312.621C209.966 313.209 209.803 313.884 209.803 314.647C209.803 315.41 209.977 316.096 210.326 316.706C210.674 317.316 211.132 317.795 211.698 318.144C212.286 318.492 212.918 318.667 213.594 318.667ZM227.687 301.444H232.262V307.653H235.726V311.216H232.262V322H227.687V311.216H225.465V307.653H227.687V301.444ZM246.235 322.392C244.492 322.392 243.01 322.065 241.79 321.412C240.592 320.758 239.677 319.854 239.045 318.699C238.413 317.545 238.097 316.216 238.097 314.712C238.097 313.274 238.468 311.978 239.209 310.823C239.949 309.669 240.941 308.754 242.182 308.078C243.424 307.381 244.808 307.033 246.333 307.033C248.381 307.033 250.058 307.632 251.366 308.83C252.694 310.006 253.555 311.717 253.947 313.961L242.836 317.49L241.823 315.006L249.862 312.294L248.915 312.719C248.74 312.152 248.424 311.662 247.967 311.248C247.531 310.813 246.867 310.595 245.973 310.595C245.298 310.595 244.699 310.758 244.176 311.085C243.675 311.39 243.283 311.837 242.999 312.425C242.738 312.991 242.607 313.667 242.607 314.451C242.607 315.344 242.771 316.096 243.097 316.706C243.424 317.294 243.871 317.741 244.437 318.046C245.004 318.351 245.636 318.503 246.333 318.503C246.834 318.503 247.313 318.416 247.771 318.242C248.25 318.068 248.718 317.839 249.176 317.556L251.202 320.954C250.44 321.39 249.612 321.739 248.718 322C247.847 322.261 247.019 322.392 246.235 322.392ZM281.494 303.765C280.579 303.263 279.642 302.85 278.684 302.523C277.747 302.196 276.864 302.033 276.037 302.033C275.013 302.033 274.207 302.239 273.618 302.653C273.03 303.067 272.736 303.688 272.736 304.516C272.736 305.083 272.954 305.595 273.39 306.052C273.847 306.488 274.424 306.88 275.122 307.229C275.841 307.577 276.581 307.893 277.344 308.176C278.041 308.438 278.727 308.754 279.403 309.124C280.1 309.473 280.721 309.919 281.265 310.464C281.81 310.987 282.246 311.651 282.573 312.457C282.899 313.242 283.063 314.211 283.063 315.366C283.063 316.586 282.747 317.719 282.115 318.765C281.483 319.81 280.557 320.66 279.337 321.314C278.117 321.946 276.614 322.261 274.827 322.261C273.912 322.261 272.976 322.174 272.017 322C271.08 321.804 270.154 321.521 269.239 321.15C268.324 320.758 267.442 320.268 266.592 319.68L268.684 315.987C269.25 316.401 269.86 316.771 270.514 317.098C271.189 317.403 271.864 317.643 272.54 317.817C273.215 317.991 273.836 318.078 274.403 318.078C274.969 318.078 275.536 318.002 276.102 317.85C276.69 317.675 277.17 317.392 277.54 317C277.932 316.608 278.128 316.063 278.128 315.366C278.128 314.887 277.965 314.451 277.638 314.059C277.333 313.667 276.908 313.307 276.363 312.98C275.841 312.654 275.263 312.37 274.631 312.131C273.891 311.847 273.128 311.521 272.344 311.15C271.559 310.78 270.819 310.333 270.122 309.81C269.446 309.266 268.891 308.601 268.455 307.817C268.041 307.011 267.834 306.03 267.834 304.876C267.834 303.481 268.139 302.272 268.749 301.248C269.381 300.224 270.263 299.418 271.396 298.83C272.529 298.22 273.836 297.882 275.318 297.817C277.257 297.817 278.825 298.046 280.024 298.503C281.244 298.961 282.333 299.505 283.292 300.137L281.494 303.765ZM292.965 322.392C291.636 322.392 290.427 322.131 289.338 321.608C288.27 321.063 287.42 320.235 286.789 319.124C286.157 318.013 285.841 316.597 285.841 314.876C285.841 313.264 286.168 311.869 286.821 310.693C287.475 309.516 288.335 308.612 289.403 307.98C290.471 307.327 291.603 307 292.802 307C294.218 307 295.285 307.24 296.004 307.719C296.745 308.176 297.355 308.688 297.834 309.255L297.638 309.81L298.063 307.719H302.312V322H297.736V318.895L298.096 319.876C298.052 319.876 297.922 320.007 297.704 320.268C297.486 320.508 297.159 320.802 296.723 321.15C296.309 321.477 295.786 321.76 295.155 322C294.545 322.261 293.815 322.392 292.965 322.392ZM294.272 318.667C294.817 318.667 295.307 318.59 295.743 318.438C296.179 318.264 296.56 318.024 296.887 317.719C297.214 317.392 297.497 316.989 297.736 316.51V313.013C297.562 312.534 297.301 312.131 296.952 311.804C296.603 311.455 296.19 311.194 295.71 311.02C295.231 310.823 294.697 310.725 294.109 310.725C293.455 310.725 292.845 310.9 292.279 311.248C291.734 311.575 291.298 312.033 290.972 312.621C290.645 313.209 290.481 313.884 290.481 314.647C290.481 315.41 290.656 316.096 291.004 316.706C291.353 317.316 291.81 317.795 292.377 318.144C292.965 318.492 293.597 318.667 294.272 318.667ZM307.026 296.215H311.601V322H307.026V296.215ZM323.339 322.392C321.596 322.392 320.115 322.065 318.895 321.412C317.696 320.758 316.781 319.854 316.15 318.699C315.518 317.545 315.202 316.216 315.202 314.712C315.202 313.274 315.572 311.978 316.313 310.823C317.054 309.669 318.045 308.754 319.287 308.078C320.529 307.381 321.912 307.033 323.437 307.033C325.485 307.033 327.163 307.632 328.47 308.83C329.799 310.006 330.659 311.717 331.052 313.961L319.94 317.49L318.927 315.006L326.967 312.294L326.019 312.719C325.845 312.152 325.529 311.662 325.071 311.248C324.635 310.813 323.971 310.595 323.078 310.595C322.402 310.595 321.803 310.758 321.28 311.085C320.779 311.39 320.387 311.837 320.104 312.425C319.842 312.991 319.712 313.667 319.712 314.451C319.712 315.344 319.875 316.096 320.202 316.706C320.529 317.294 320.975 317.741 321.542 318.046C322.108 318.351 322.74 318.503 323.437 318.503C323.938 318.503 324.418 318.416 324.875 318.242C325.354 318.068 325.823 317.839 326.28 317.556L328.306 320.954C327.544 321.39 326.716 321.739 325.823 322C324.951 322.261 324.123 322.392 323.339 322.392Z" fill="#FFE1B4"/>
<defs>
<linearGradient id="paint0_linear_1286_20327" x1="107.963" y1="265.24" x2="107.963" y2="92.8838" gradientUnits="userSpaceOnUse">
<stop stop-color="#4D7F80"/>
<stop offset="0.0425567" stop-color="#618D8E"/>
<stop offset="0.1456" stop-color="#8AABAC"/>
<stop offset="0.2544" stop-color="#AEC5C6"/>
<stop offset="0.3681" stop-color="#CCDADA"/>
<stop offset="0.4884" stop-color="#E2EAEB"/>
<stop offset="0.6182" stop-color="#F3F6F6"/>
<stop offset="0.7643" stop-color="#FCFDFD"/>
<stop offset="0.961" stop-color="white"/>
</linearGradient>
<linearGradient id="paint1_linear_1286_20327" x1="107.963" y1="163.803" x2="107.963" y2="11.2468" gradientUnits="userSpaceOnUse">
<stop stop-color="#4D7F80"/>
<stop offset="0.0425567" stop-color="#618D8E"/>
<stop offset="0.1456" stop-color="#8AABAC"/>
<stop offset="0.2544" stop-color="#AEC5C6"/>
<stop offset="0.3681" stop-color="#CCDADA"/>
<stop offset="0.4884" stop-color="#E2EAEB"/>
<stop offset="0.6182" stop-color="#F3F6F6"/>
<stop offset="0.7643" stop-color="#FCFDFD"/>
<stop offset="0.961" stop-color="white"/>
</linearGradient>
<linearGradient id="paint2_linear_1286_20327" x1="-nan" y1="-nan" x2="-nan" y2="-nan" gradientUnits="userSpaceOnUse">
<stop stop-color="#A8805F"/>
<stop offset="0.2455" stop-color="#804E03"/>
<stop offset="0.37" stop-color="#806D05"/>
<stop offset="0.4749" stop-color="#A8805F"/>
<stop offset="0.617" stop-color="#C0B284"/>
<stop offset="0.7375" stop-color="#BFB083"/>
<stop offset="0.7809" stop-color="#BCA97E"/>
<stop offset="0.8118" stop-color="#B69E75"/>
<stop offset="0.8367" stop-color="#AE8D68"/>
<stop offset="0.8501" stop-color="#A8805F"/>
<stop offset="1" stop-color="#804E03"/>
</linearGradient>
<linearGradient id="paint3_linear_1286_20327" x1="22.0401" y1="104.452" x2="193.885" y2="104.452" gradientUnits="userSpaceOnUse">
<stop stop-color="#A8805F"/>
<stop offset="0.2455" stop-color="#804E03"/>
<stop offset="0.37" stop-color="#806D05"/>
<stop offset="0.4749" stop-color="#A8805F"/>
<stop offset="0.617" stop-color="#C0B284"/>
<stop offset="0.7375" stop-color="#BFB083"/>
<stop offset="0.7809" stop-color="#BCA97E"/>
<stop offset="0.8118" stop-color="#B69E75"/>
<stop offset="0.8367" stop-color="#AE8D68"/>
<stop offset="0.8501" stop-color="#A8805F"/>
<stop offset="1" stop-color="#804E03"/>
</linearGradient>
<linearGradient id="paint4_linear_1286_20327" x1="8.46541" y1="104.452" x2="207.459" y2="104.452" gradientUnits="userSpaceOnUse">
<stop stop-color="#A8805F"/>
<stop offset="0.2455" stop-color="#804E03"/>
<stop offset="0.37" stop-color="#806D05"/>
<stop offset="0.4749" stop-color="#A8805F"/>
<stop offset="0.617" stop-color="#C0B284"/>
<stop offset="0.7375" stop-color="#BFB083"/>
<stop offset="0.7809" stop-color="#BCA97E"/>
<stop offset="0.8118" stop-color="#B69E75"/>
<stop offset="0.8367" stop-color="#AE8D68"/>
<stop offset="0.8501" stop-color="#A8805F"/>
<stop offset="1" stop-color="#804E03"/>
</linearGradient>
<linearGradient id="paint5_linear_1286_20327" x1="-0.84234" y1="54.1612" x2="216.766" y2="54.1612" gradientUnits="userSpaceOnUse">
<stop stop-color="#A8805F"/>
<stop offset="0.2455" stop-color="#804E03"/>
<stop offset="0.37" stop-color="#806D05"/>
<stop offset="0.4749" stop-color="#A8805F"/>
<stop offset="0.617" stop-color="#C0B284"/>
<stop offset="0.7375" stop-color="#BFB083"/>
<stop offset="0.7809" stop-color="#BCA97E"/>
<stop offset="0.8118" stop-color="#B69E75"/>
<stop offset="0.8367" stop-color="#AE8D68"/>
<stop offset="0.8501" stop-color="#A8805F"/>
<stop offset="1" stop-color="#804E03"/>
</linearGradient>
<clipPath id="clip0_1286_20327">
<rect width="216" height="190" fill="white"/>
</clipPath>
</defs>
</svg>
