<svg width="211" height="69" viewBox="0 0 211 69" fill="none" xmlns="http://www.w3.org/2000/svg">
<g clip-path="url(#clip0_1286_20548)">
<path d="M38.4691 67.5137C55.0355 67.5137 68.4651 54.1434 68.4651 37.6503C68.4651 21.1572 55.0355 7.78687 38.4691 7.78687C21.9028 7.78687 8.47314 21.1572 8.47314 37.6503C8.47314 54.1434 21.9028 67.5137 38.4691 67.5137Z" fill="url(#paint0_linear_1286_20548)"/>
<path d="M38.4691 7.72534C21.894 7.72534 8.47314 21.0869 8.47314 37.5888H68.527C68.527 21.1485 55.0442 7.72534 38.4691 7.72534Z" fill="url(#paint1_linear_1286_20548)"/>
<path d="M8.47314 37.6504H68.527" stroke="url(#paint2_linear_1286_20548)" stroke-width="0.202054" stroke-miterlimit="10"/>
<path d="M38.4691 67.5137C55.0355 67.5137 68.4651 54.1434 68.4651 37.6503C68.4651 21.1572 55.0355 7.78687 38.4691 7.78687C21.9028 7.78687 8.47314 21.1572 8.47314 37.6503C8.47314 54.1434 21.9028 67.5137 38.4691 67.5137Z" stroke="url(#paint3_linear_1286_20548)" stroke-width="0.696422" stroke-miterlimit="10"/>
<path d="M38.4692 61.418C57.8706 61.418 73.5985 50.7769 73.5985 37.6504C73.5985 24.5239 57.8706 13.8828 38.4692 13.8828C19.0678 13.8828 3.33984 24.5239 3.33984 37.6504C3.33984 50.7769 19.0678 61.418 38.4692 61.418Z" stroke="url(#paint4_linear_1286_20548)" stroke-width="0.356874" stroke-miterlimit="10"/>
<path d="M-0.000274732 39.0051C-0.0621221 34.0176 0.865589 28.9686 2.78286 24.2889C4.70013 19.6093 7.54511 15.3607 11.1323 11.7278C14.6576 8.15653 18.9869 5.32412 23.6254 3.35375C28.3258 1.38338 33.3973 0.398193 38.4688 0.398193C43.5403 0.398193 48.6118 1.38338 53.3122 3.35375C58.0126 5.32412 62.28 8.15653 65.8672 11.7278C69.4543 15.2991 72.2993 19.6093 74.2166 24.2889C76.1339 28.9686 77.0616 34.0176 76.9997 39.0051C76.9379 28.9686 72.7323 19.0551 65.558 12.0973C61.9708 8.58755 57.7652 5.75514 53.1266 3.84634C48.4881 1.93755 43.4784 1.01393 38.4688 1.01393C33.4592 1.01393 28.4495 1.99912 23.8728 3.90792C19.2343 5.75514 15.0286 8.58755 11.4415 12.0973C4.2672 19.0551 0.0615727 28.9686 -0.000274732 39.0051Z" fill="url(#paint5_linear_1286_20548)"/>
</g>
<path d="M28.4076 24.0008C28.4076 27.4192 30.7667 30.1795 34.2333 30.1795V29.9067C31.8902 29.9067 29.2261 28.2697 29.2261 24.0008C29.2261 19.7478 31.8902 18.1269 34.2333 18.1269C36.5764 18.1269 39.2405 19.7478 39.2405 24.0008C39.2405 29.4894 33.3025 31.3351 30.1248 32.619L30.205 32.8597C32.4198 32.1696 33.3506 32.0091 34.7147 32.0091C36.2394 32.0091 37.2344 33.5498 38.5183 33.5498C39.08 33.5498 39.8343 33.293 40.4442 32.2819L40.2837 32.1856C39.7541 32.7474 39.3368 32.9239 38.7911 32.9239C38.0048 32.9239 36.5283 31.3511 35.0839 31.3511C34.2333 31.3511 33.7197 31.4634 33.2383 31.6239C36.6888 30.4203 40.059 27.8043 40.059 24.0008C40.059 20.5984 37.6998 17.8541 34.2333 17.8541C30.7667 17.8541 28.4076 20.5984 28.4076 24.0008ZM41.4848 30.0833H49.6697L50.3277 27.0661L50.0388 27.0019C49.5574 29.008 48.7549 29.4894 46.7328 29.4894H41.8379C41.8379 25.9587 49.7821 24.402 49.7821 21.0959C49.7821 18.9454 48.0488 17.9504 46.139 17.9504C43.9563 17.9504 42.5601 19.0256 41.6935 21.0157L42.4959 21.5292C43.1218 19.6355 43.9724 18.2392 46.139 18.2392C47.6636 18.2392 49.2204 19.0417 49.2204 20.807C49.2204 24.081 41.4848 24.6588 41.4848 30.0833Z" fill="#00226D"/>
<path d="M34.2333 30.1795V30.536H34.5898V30.1795H34.2333ZM34.2333 29.9067H34.5898V29.5502H34.2333V29.9067ZM30.1248 32.619L29.9912 32.2884L29.6807 32.4139L29.7866 32.7317L30.1248 32.619ZM30.205 32.8597L29.8668 32.9724L29.9774 33.304L30.3111 33.2L30.205 32.8597ZM40.4442 32.2819L40.7494 32.4661L40.934 32.1601L40.6276 31.9763L40.4442 32.2819ZM40.2837 32.1856L40.4671 31.88L40.2211 31.7324L40.0243 31.9411L40.2837 32.1856ZM33.2383 31.6239L33.1208 31.2873L33.351 31.9621L33.2383 31.6239ZM28.0511 24.0008C28.0511 27.5858 30.5409 30.536 34.2333 30.536V29.8231C30.9926 29.8231 28.7641 27.2525 28.7641 24.0008H28.0511ZM34.5898 30.1795V29.9067H33.8768V30.1795H34.5898ZM34.2333 29.5502C33.1419 29.5502 31.9842 29.1689 31.1009 28.3004C30.2221 27.4363 29.5825 26.0578 29.5825 24.0008H28.8696C28.8696 26.2127 29.5621 27.7872 30.6011 28.8088C31.6356 29.826 32.9816 30.2632 34.2333 30.2632V29.5502ZM29.5825 24.0008C29.5825 21.9522 30.2218 20.5821 31.1001 19.724C31.9831 18.8613 33.1409 18.4834 34.2333 18.4834V17.7704C32.9826 17.7704 31.6367 18.2029 30.6019 19.214C29.5623 20.2296 28.8696 21.7964 28.8696 24.0008H29.5825ZM34.2333 18.4834C35.3257 18.4834 36.4835 18.8613 37.3664 19.724C38.2447 20.5821 38.884 21.9522 38.884 24.0008H39.597C39.597 21.7964 38.9042 20.2296 37.8647 19.214C36.8298 18.2029 35.484 17.7704 34.2333 17.7704V18.4834ZM38.884 24.0008C38.884 26.5891 37.4942 28.3265 35.6708 29.5939C33.8314 30.8725 31.6059 31.6361 29.9912 32.2884L30.2583 32.9495C31.8214 32.3179 34.1537 31.5168 36.0777 30.1794C38.0178 28.8309 39.597 26.9011 39.597 24.0008H38.884ZM29.7866 32.7317L29.8668 32.9724L30.5432 32.747L30.463 32.5062L29.7866 32.7317ZM30.3111 33.2C32.5081 32.5155 33.4006 32.3656 34.7147 32.3656V31.6526C33.3006 31.6526 32.3314 31.8237 30.099 32.5194L30.3111 33.2ZM34.7147 32.3656C35.3589 32.3656 35.906 32.6889 36.5142 33.0794C37.0828 33.4446 37.7493 33.9063 38.5183 33.9063V33.1933C38.0034 33.1933 37.5304 32.8847 36.8994 32.4795C36.308 32.0997 35.5952 31.6526 34.7147 31.6526V32.3656ZM38.5183 33.9063C39.2067 33.9063 40.0759 33.5826 40.7494 32.4661L40.1389 32.0978C39.5927 33.0034 38.9534 33.1933 38.5183 33.1933V33.9063ZM40.6276 31.9763L40.4671 31.88L40.1003 32.4913L40.2608 32.5876L40.6276 31.9763ZM40.0243 31.9411C39.7776 32.2027 39.5754 32.3548 39.3894 32.4439C39.208 32.5308 39.022 32.5674 38.7911 32.5674V33.2804C39.106 33.2804 39.4014 33.2287 39.6974 33.0869C39.9889 32.9473 40.2601 32.7303 40.5431 32.4302L40.0243 31.9411ZM38.7911 32.5674C38.6931 32.5674 38.5239 32.5118 38.2533 32.3649C37.9916 32.2228 37.7069 32.0376 37.3692 31.8327C36.7281 31.4437 35.9183 30.9946 35.0839 30.9946V31.7076C35.6939 31.7076 36.3445 32.0449 36.9993 32.4423C37.3096 32.6306 37.6317 32.8386 37.9131 32.9914C38.1857 33.1394 38.496 33.2804 38.7911 33.2804V32.5674ZM35.0839 30.9946C34.1945 30.9946 33.6429 31.1133 33.1255 31.2857L33.351 31.9621C33.7965 31.8136 34.2721 31.7076 35.0839 31.7076V30.9946ZM33.3557 31.9605C36.8481 30.7422 40.4155 28.0408 40.4155 24.0008H39.7025C39.7025 27.5679 36.5294 30.0983 33.1208 31.2873L33.3557 31.9605ZM40.4155 24.0008C40.4155 20.4299 37.9239 17.4976 34.2333 17.4976V18.2106C37.4757 18.2106 39.7025 20.7669 39.7025 24.0008H40.4155ZM34.2333 17.4976C30.5427 17.4976 28.0511 20.4299 28.0511 24.0008H28.7641C28.7641 20.7669 30.9908 18.2106 34.2333 18.2106V17.4976ZM41.4848 30.0833H41.1283V30.4397H41.4848V30.0833ZM49.6697 30.0833V30.4397H49.9568L50.018 30.1592L49.6697 30.0833ZM50.3277 27.0661L50.676 27.142L50.7517 26.7951L50.405 26.7181L50.3277 27.0661ZM50.0388 27.0019L50.1162 26.6539L49.774 26.5779L49.6922 26.9187L50.0388 27.0019ZM41.8379 29.4894H41.4814V29.8459H41.8379V29.4894ZM41.6935 21.0157L41.3666 20.8734L41.2453 21.1521L41.5013 21.3159L41.6935 21.0157ZM42.4959 21.5292L42.3037 21.8295L42.6903 22.0769L42.8344 21.6411L42.4959 21.5292ZM41.4848 30.4397H49.6697V29.7268H41.4848V30.4397ZM50.018 30.1592L50.676 27.142L49.9794 26.9901L49.3214 30.0073L50.018 30.1592ZM50.405 26.7181L50.1162 26.6539L49.9615 27.3499L50.2504 27.4141L50.405 26.7181ZM49.6922 26.9187C49.4579 27.8949 49.1637 28.4135 48.7548 28.709C48.3382 29.0101 47.7314 29.133 46.7328 29.133V29.8459C47.7563 29.8459 48.5618 29.7281 49.1724 29.2869C49.7906 28.8401 50.1383 28.1149 50.3855 27.0851L49.6922 26.9187ZM46.7328 29.133H41.8379V29.8459H46.7328V29.133ZM42.1944 29.4894C42.1944 28.752 42.607 28.0807 43.3222 27.4141C44.0375 26.7475 44.9998 26.1364 45.9992 25.5106C46.9832 24.8943 48.006 24.2621 48.7784 23.5714C49.5484 22.8828 50.1385 22.076 50.1385 21.0959H49.4256C49.4256 21.7688 49.0227 22.3965 48.3032 23.0399C47.586 23.6812 46.6228 24.2788 45.6208 24.9063C44.6341 25.5242 43.6104 26.171 42.8361 26.8926C42.0618 27.6142 41.4814 28.4616 41.4814 29.4894H42.1944ZM50.1385 21.0959C50.1385 19.9126 49.6559 19.0209 48.8942 18.4343C48.1442 17.8566 47.1503 17.5939 46.139 17.5939V18.3068C47.0375 18.3068 47.8651 18.5416 48.4592 18.9991C49.0416 19.4477 49.4256 20.1287 49.4256 21.0959H50.1385ZM46.139 17.5939C44.9862 17.5939 44.0165 17.879 43.2166 18.4459C42.4196 19.0108 41.8182 19.8364 41.3666 20.8734L42.0203 21.158C42.4354 20.2049 42.9654 19.4978 43.6289 19.0276C44.2894 18.5594 45.1091 18.3068 46.139 18.3068V17.5939ZM41.5013 21.3159L42.3037 21.8295L42.6881 21.229L41.8856 20.7154L41.5013 21.3159ZM42.8344 21.6411C43.1434 20.706 43.4925 19.9469 43.997 19.4208C44.4857 18.9112 45.1441 18.5957 46.139 18.5957V17.8828C44.9673 17.8828 44.1171 18.2654 43.4824 18.9274C42.8635 19.5728 42.4743 20.4587 42.1574 21.4174L42.8344 21.6411ZM46.139 18.5957C46.8451 18.5957 47.5368 18.7826 48.0419 19.1495C48.5346 19.5076 48.8639 20.0448 48.8639 20.807H49.5768C49.5768 19.8039 49.1277 19.0573 48.461 18.5727C47.8064 18.0972 46.9575 17.8828 46.139 17.8828V18.5957ZM48.8639 20.807C48.8639 21.4656 48.4809 22.0246 47.7846 22.6C47.082 23.1806 46.1523 23.7067 45.1611 24.338C43.2283 25.5691 41.1283 27.1632 41.1283 30.0833H41.8413C41.8413 27.5789 43.6091 26.1718 45.5441 24.9394C46.4867 24.339 47.4909 23.7677 48.2388 23.1496C48.9929 22.5264 49.5768 21.7855 49.5768 20.807H48.8639Z" fill="#00226D"/>
<path d="M23.294 52.3936H29.8427L30.3691 49.9795L30.138 49.9282C29.7528 51.5332 29.1108 51.9185 27.4929 51.9185H23.5765C23.5765 49.0936 29.9326 47.848 29.9326 45.2029C29.9326 43.4823 28.5458 42.6862 27.0178 42.6862C25.2715 42.6862 24.1544 43.5465 23.461 45.1387L24.103 45.5496C24.6038 44.0344 25.2843 42.9173 27.0178 42.9173C28.2376 42.9173 29.4832 43.5593 29.4832 44.9718C29.4832 47.5912 23.294 48.0535 23.294 52.3936ZM31.2095 47.5655C31.2095 50.2749 32.1725 52.4706 34.792 52.4706C37.4114 52.4706 38.3745 50.2749 38.3745 47.5655C38.3745 44.8562 37.4114 42.6733 34.792 42.6733C32.1725 42.6733 31.2095 44.8562 31.2095 47.5655ZM34.792 42.8916C36.4612 42.8916 37.7838 44.0087 37.7838 47.5655C37.7838 51.1223 36.4612 52.2523 34.792 52.2523C33.1227 52.2523 31.8002 51.1223 31.8002 47.5655C31.8002 44.0087 33.1227 42.8916 34.792 42.8916ZM39.2694 52.3936H45.818L46.3445 49.9795L46.1134 49.9282C45.7281 51.5332 45.0861 51.9185 43.4682 51.9185H39.5519C39.5519 49.0936 45.9079 47.848 45.9079 45.2029C45.9079 43.4823 44.5211 42.6862 42.9931 42.6862C41.2468 42.6862 40.1297 43.5465 39.4363 45.1387L40.0783 45.5496C40.5791 44.0344 41.2597 42.9173 42.9931 42.9173C44.213 42.9173 45.4585 43.5593 45.4585 44.9718C45.4585 47.5912 39.2694 48.0535 39.2694 52.3936ZM47.0564 52.3936H53.6051L54.1315 49.9795L53.9004 49.9282C53.5152 51.5332 52.8732 51.9185 51.2553 51.9185H47.3389C47.3389 49.0936 53.6949 47.848 53.6949 45.2029C53.6949 43.4823 52.3082 42.6862 50.7802 42.6862C49.0339 42.6862 47.9167 43.5465 47.2234 45.1387L47.8654 45.5496C48.3662 44.0344 49.0467 42.9173 50.7802 42.9173C52 42.9173 53.2455 43.5593 53.2455 44.9718C53.2455 47.5912 47.0564 48.0535 47.0564 52.3936Z" fill="#00226D"/>
<path d="M23.294 52.3936H22.9376V52.75H23.294V52.3936ZM29.8427 52.3936V52.75H30.1298L30.191 52.4695L29.8427 52.3936ZM30.3691 49.9795L30.7174 50.0555L30.7931 49.7086L30.4465 49.6316L30.3691 49.9795ZM30.138 49.9282L30.2153 49.5802L29.8732 49.5042L29.7914 49.845L30.138 49.9282ZM23.5765 51.9185H23.2201V52.2749H23.5765V51.9185ZM23.461 45.1387L23.1341 44.9964L23.0128 45.2751L23.2688 45.4389L23.461 45.1387ZM24.103 45.5496L23.9108 45.8498L24.2974 46.0973L24.4415 45.6615L24.103 45.5496ZM23.294 52.75H29.8427V52.0371H23.294V52.75ZM30.191 52.4695L30.7174 50.0555L30.0208 49.9036L29.4944 52.3176L30.191 52.4695ZM30.4465 49.6316L30.2153 49.5802L30.0607 50.2762L30.2918 50.3275L30.4465 49.6316ZM29.7914 49.845C29.6052 50.6207 29.3752 51.015 29.0689 51.2363C28.755 51.4631 28.2894 51.562 27.4929 51.562V52.2749C28.3143 52.2749 28.9786 52.1812 29.4865 51.8142C30.002 51.4416 30.2856 50.8407 30.4847 50.0114L29.7914 49.845ZM27.4929 51.562H23.5765V52.2749H27.4929V51.562ZM23.933 51.9185C23.933 51.3574 24.2464 50.838 24.8127 50.3102C25.3791 49.7823 26.1429 49.2969 26.9438 48.7954C27.7292 48.3035 28.5535 47.7942 29.1771 47.2366C29.7982 46.6811 30.289 46.0178 30.289 45.2029H29.5761C29.5761 45.7106 29.2724 46.1948 28.7018 46.7051C28.1336 47.2133 27.3689 47.6879 26.5653 48.1911C25.7772 48.6847 24.952 49.2057 24.3266 49.7886C23.7012 50.3715 23.2201 51.067 23.2201 51.9185H23.933ZM30.289 45.2029C30.289 44.2346 29.893 43.5 29.2657 43.0169C28.65 42.5427 27.8382 42.3297 27.0178 42.3297V43.0426C27.7254 43.0426 28.3709 43.2277 28.8307 43.5817C29.2787 43.9268 29.5761 44.4506 29.5761 45.2029H30.289ZM27.0178 42.3297C26.0832 42.3297 25.2923 42.561 24.6384 43.0245C23.9874 43.486 23.4991 44.1583 23.1341 44.9964L23.7878 45.281C24.1162 44.5268 24.5332 43.9729 25.0507 43.6062C25.5653 43.2414 26.2061 43.0426 27.0178 43.0426V42.3297ZM23.2688 45.4389L23.9108 45.8498L24.2952 45.2493L23.6531 44.8384L23.2688 45.4389ZM24.4415 45.6615C24.688 44.9156 24.9632 44.321 25.3554 43.912C25.7318 43.5195 26.2395 43.2738 27.0178 43.2738V42.5608C26.0626 42.5608 25.3633 42.8737 24.8408 43.4185C24.3342 43.9468 24.0188 44.6684 23.7645 45.4377L24.4415 45.6615ZM27.0178 43.2738C27.5715 43.2738 28.1092 43.4205 28.4984 43.7032C28.8752 43.9771 29.1267 44.386 29.1267 44.9718H29.8396C29.8396 44.1451 29.4684 43.5268 28.9175 43.1265C28.3789 42.7351 27.6839 42.5608 27.0178 42.5608V43.2738ZM29.1267 44.9718C29.1267 45.4667 28.8404 45.8958 28.289 46.3514C27.7314 46.8122 26.995 47.2285 26.1971 47.7368C24.6509 48.7216 22.9376 50.0157 22.9376 52.3936H23.6505C23.6505 50.4314 25.0317 49.3243 26.5801 48.3381C27.3294 47.8608 28.1403 47.3992 28.7432 46.901C29.3523 46.3976 29.8396 45.7866 29.8396 44.9718H29.1267ZM30.853 47.5655C30.853 48.9527 31.0979 50.2573 31.7182 51.2263C32.3533 52.2184 33.3633 52.8271 34.792 52.8271V52.1141C33.6012 52.1141 32.82 51.625 32.3187 50.8419C31.8026 50.0357 31.566 48.8877 31.566 47.5655H30.853ZM34.792 52.8271C36.2207 52.8271 37.2307 52.2184 37.8658 51.2263C38.486 50.2573 38.731 48.9527 38.731 47.5655H38.018C38.018 48.8877 37.7814 50.0357 37.2653 50.8419C36.764 51.625 35.9827 52.1141 34.792 52.1141V52.8271ZM38.731 47.5655C38.731 46.1784 38.4861 44.8767 37.8654 43.9107C37.2299 42.9216 36.2198 42.3168 34.792 42.3168V43.0298C35.9836 43.0298 36.7647 43.5165 37.2656 44.2961C37.7814 45.0989 38.018 46.2434 38.018 47.5655H38.731ZM34.792 42.3168C33.3641 42.3168 32.354 42.9216 31.7185 43.9107C31.0979 44.8767 30.853 46.1784 30.853 47.5655H31.566C31.566 46.2434 31.8026 45.0989 32.3184 44.2961C32.8192 43.5165 33.6004 43.0298 34.792 43.0298V42.3168ZM34.792 43.2481C35.539 43.2481 36.1696 43.4925 36.628 44.1077C37.1011 44.7428 37.4273 45.8209 37.4273 47.5655H38.1403C38.1403 45.7534 37.8052 44.4945 37.1997 43.6818C36.5795 42.8493 35.7142 42.5351 34.792 42.5351V43.2481ZM37.4273 47.5655C37.4273 49.3101 37.1012 50.3918 36.6275 51.0304C36.1686 51.6491 35.5377 51.8958 34.792 51.8958V52.6088C35.7155 52.6088 36.5805 52.2905 37.2002 51.4551C37.8052 50.6394 38.1403 49.3778 38.1403 47.5655H37.4273ZM34.792 51.8958C34.0462 51.8958 33.4153 51.6491 32.9564 51.0304C32.4828 50.3918 32.1566 49.3101 32.1566 47.5655H31.4437C31.4437 49.3778 31.7788 50.6394 32.3838 51.4551C33.0034 52.2905 33.8685 52.6088 34.792 52.6088V51.8958ZM32.1566 47.5655C32.1566 45.8209 32.4828 44.7428 32.956 44.1077C33.4143 43.4925 34.045 43.2481 34.792 43.2481V42.5351C33.8697 42.5351 33.0045 42.8493 32.3842 43.6818C31.7787 44.4945 31.4437 45.7534 31.4437 47.5655H32.1566ZM39.2694 52.3936H38.9129V52.75H39.2694V52.3936ZM45.818 52.3936V52.75H46.1051L46.1663 52.4695L45.818 52.3936ZM46.3445 49.9795L46.6928 50.0555L46.7684 49.7086L46.4218 49.6316L46.3445 49.9795ZM46.1134 49.9282L46.1907 49.5802L45.8485 49.5042L45.7667 49.845L46.1134 49.9282ZM39.5519 51.9185H39.1954V52.2749H39.5519V51.9185ZM39.4363 45.1387L39.1095 44.9964L38.9881 45.2751L39.2442 45.4389L39.4363 45.1387ZM40.0783 45.5496L39.8862 45.8498L40.2728 46.0973L40.4168 45.6615L40.0783 45.5496ZM39.2694 52.75H45.818V52.0371H39.2694V52.75ZM46.1663 52.4695L46.6928 50.0555L45.9962 49.9036L45.4697 52.3176L46.1663 52.4695ZM46.4218 49.6316L46.1907 49.5802L46.036 50.2762L46.2672 50.3275L46.4218 49.6316ZM45.7667 49.845C45.5805 50.6207 45.3505 51.015 45.0442 51.2363C44.7303 51.4631 44.2647 51.562 43.4682 51.562V52.2749C44.2896 52.2749 44.954 52.1812 45.4618 51.8142C45.9774 51.4416 46.261 50.8407 46.46 50.0114L45.7667 49.845ZM43.4682 51.562H39.5519V52.2749H43.4682V51.562ZM39.9084 51.9185C39.9084 51.3574 40.2217 50.838 40.7881 50.3102C41.3544 49.7823 42.1183 49.2969 42.9191 48.7954C43.7046 48.3035 44.5289 47.7942 45.1524 47.2366C45.7735 46.6811 46.2644 46.0178 46.2644 45.2029H45.5514C45.5514 45.7106 45.2478 46.1948 44.6771 46.7051C44.1089 47.2133 43.3442 47.6879 42.5407 48.1911C41.7525 48.6847 40.9273 49.2057 40.302 49.7886C39.6765 50.3715 39.1954 51.067 39.1954 51.9185H39.9084ZM46.2644 45.2029C46.2644 44.2346 45.8684 43.5 45.241 43.0169C44.6254 42.5427 43.8135 42.3297 42.9931 42.3297V43.0426C43.7007 43.0426 44.3463 43.2277 44.806 43.5817C45.2541 43.9268 45.5514 44.4506 45.5514 45.2029H46.2644ZM42.9931 42.3297C42.0585 42.3297 41.2676 42.561 40.6137 43.0245C39.9627 43.486 39.4744 44.1583 39.1095 44.9964L39.7632 45.281C40.0916 44.5268 40.5086 43.9729 41.026 43.6062C41.5406 43.2414 42.1814 43.0426 42.9931 43.0426V42.3297ZM39.2442 45.4389L39.8862 45.8498L40.2705 45.2493L39.6285 44.8384L39.2442 45.4389ZM40.4168 45.6615C40.6633 44.9156 40.9386 44.321 41.3308 43.912C41.7072 43.5195 42.2148 43.2738 42.9931 43.2738V42.5608C42.038 42.5608 41.3386 42.8737 40.8162 43.4185C40.3096 43.9468 39.9941 44.6684 39.7399 45.4377L40.4168 45.6615ZM42.9931 43.2738C43.5469 43.2738 44.0846 43.4205 44.4737 43.7032C44.8505 43.9771 45.102 44.386 45.102 44.9718H45.815C45.815 44.1451 45.4437 43.5268 44.8928 43.1265C44.3542 42.7351 43.6592 42.5608 42.9931 42.5608V43.2738ZM45.102 44.9718C45.102 45.4667 44.8157 45.8958 44.2644 46.3514C43.7068 46.8122 42.9704 47.2285 42.1724 47.7368C40.6263 48.7216 38.9129 50.0157 38.9129 52.3936H39.6259C39.6259 50.4314 41.0071 49.3243 42.5554 48.3381C43.3048 47.8608 44.1157 47.3992 44.7185 46.901C45.3277 46.3976 45.815 45.7866 45.815 44.9718H45.102ZM47.0564 52.3936H46.6999V52.75H47.0564V52.3936ZM53.6051 52.3936V52.75H53.8922L53.9534 52.4695L53.6051 52.3936ZM54.1315 49.9795L54.4798 50.0555L54.5555 49.7086L54.2089 49.6316L54.1315 49.9795ZM53.9004 49.9282L53.9777 49.5802L53.6356 49.5042L53.5538 49.845L53.9004 49.9282ZM47.3389 51.9185H46.9824V52.2749H47.3389V51.9185ZM47.2234 45.1387L46.8965 44.9964L46.7751 45.2751L47.0312 45.4389L47.2234 45.1387ZM47.8654 45.5496L47.6732 45.8498L48.0598 46.0973L48.2038 45.6615L47.8654 45.5496ZM47.0564 52.75H53.6051V52.0371H47.0564V52.75ZM53.9534 52.4695L54.4798 50.0555L53.7832 49.9036L53.2568 52.3176L53.9534 52.4695ZM54.2089 49.6316L53.9777 49.5802L53.8231 50.2762L54.0542 50.3275L54.2089 49.6316ZM53.5538 49.845C53.3676 50.6207 53.1376 51.015 52.8313 51.2363C52.5174 51.4631 52.0517 51.562 51.2553 51.562V52.2749C52.0767 52.2749 52.741 52.1812 53.2489 51.8142C53.7644 51.4416 54.048 50.8407 54.247 50.0114L53.5538 49.845ZM51.2553 51.562H47.3389V52.2749H51.2553V51.562ZM47.6954 51.9185C47.6954 51.3574 48.0088 50.838 48.5751 50.3102C49.1415 49.7823 49.9053 49.2969 50.7061 48.7954C51.4916 48.3035 52.3159 47.7942 52.9394 47.2366C53.5606 46.6811 54.0514 46.0178 54.0514 45.2029H53.3385C53.3385 45.7106 53.0348 46.1948 52.4642 46.7051C51.896 47.2133 51.1313 47.6879 50.3277 48.1911C49.5396 48.6847 48.7144 49.2057 48.089 49.7886C47.4636 50.3715 46.9824 51.067 46.9824 51.9185H47.6954ZM54.0514 45.2029C54.0514 44.2346 53.6554 43.5 53.0281 43.0169C52.4124 42.5427 51.6006 42.3297 50.7802 42.3297V43.0426C51.4878 43.0426 52.1333 43.2277 52.593 43.5817C53.0411 43.9268 53.3385 44.4506 53.3385 45.2029H54.0514ZM50.7802 42.3297C49.8456 42.3297 49.0547 42.561 48.4008 43.0245C47.7497 43.486 47.2615 44.1583 46.8965 44.9964L47.5502 45.281C47.8786 44.5268 48.2956 43.9729 48.8131 43.6062C49.3276 43.2414 49.9684 43.0426 50.7802 43.0426V42.3297ZM47.0312 45.4389L47.6732 45.8498L48.0575 45.2493L47.4155 44.8384L47.0312 45.4389ZM48.2038 45.6615C48.4503 44.9156 48.7256 44.321 49.1178 43.912C49.4942 43.5195 50.0018 43.2738 50.7802 43.2738V42.5608C49.825 42.5608 49.1257 42.8737 48.6032 43.4185C48.0966 43.9468 47.7812 44.6684 47.5269 45.4377L48.2038 45.6615ZM50.7802 43.2738C51.3339 43.2738 51.8716 43.4205 52.2607 43.7032C52.6376 43.9771 52.889 44.386 52.889 44.9718H53.602C53.602 44.1451 53.2307 43.5268 52.6798 43.1265C52.1412 42.7351 51.4462 42.5608 50.7802 42.5608V43.2738ZM52.889 44.9718C52.889 45.4667 52.6027 45.8958 52.0514 46.3514C51.4938 46.8122 50.7574 47.2285 49.9595 47.7368C48.4133 48.7216 46.6999 50.0157 46.6999 52.3936H47.4129C47.4129 50.4314 48.7941 49.3243 50.3425 48.3381C51.0918 47.8608 51.9027 47.3992 52.5056 46.901C53.1147 46.3976 53.602 45.7866 53.602 44.9718H52.889Z" fill="#00226D"/>
<path d="M94.4625 17.1645H96.0941V17.88H94.4625V17.1645ZM99.8558 13.0897H104.044V13.9011H102.351V19.3982H101.505V13.9011H99.8558V13.0897ZM105.926 19.4854C105.513 19.4854 105.158 19.404 104.861 19.2411C104.564 19.0724 104.335 18.8456 104.172 18.5605C104.015 18.2697 103.936 17.9381 103.936 17.5658C103.936 17.211 104.026 16.8882 104.207 16.5973C104.387 16.3065 104.628 16.0738 104.931 15.8993C105.233 15.7248 105.571 15.6375 105.943 15.6375C106.42 15.6375 106.816 15.7771 107.13 16.0563C107.444 16.3355 107.656 16.7195 107.767 17.2081L104.791 18.2552L104.599 17.7753L107.042 16.8853L106.868 16.9987C106.798 16.8067 106.682 16.6409 106.519 16.5013C106.356 16.3559 106.144 16.2832 105.882 16.2832C105.661 16.2832 105.463 16.3385 105.289 16.449C105.114 16.5537 104.977 16.6991 104.879 16.8853C104.78 17.0714 104.73 17.2837 104.73 17.5222C104.73 17.7723 104.783 17.9934 104.887 18.1854C104.992 18.3715 105.134 18.5198 105.315 18.6304C105.501 18.7351 105.71 18.7874 105.943 18.7874C106.1 18.7874 106.251 18.7583 106.397 18.7002C106.548 18.642 106.688 18.5664 106.816 18.4733L107.191 19.0754C107.01 19.1975 106.807 19.2964 106.58 19.372C106.359 19.4476 106.141 19.4854 105.926 19.4854ZM110.284 19.4854C109.947 19.4854 109.639 19.4127 109.359 19.2673C109.086 19.1219 108.868 18.9096 108.705 18.6304C108.548 18.3453 108.469 17.9992 108.469 17.592C108.469 17.1906 108.554 16.8445 108.722 16.5537C108.891 16.257 109.115 16.0302 109.394 15.8731C109.679 15.716 109.99 15.6375 110.328 15.6375C110.665 15.6375 110.95 15.716 111.183 15.8731C111.416 16.0243 111.593 16.2047 111.715 16.4141L111.663 16.5537L111.741 15.7858H112.492V19.3982H111.68V18.4558L111.768 18.6653C111.744 18.7234 111.692 18.799 111.61 18.8921C111.535 18.9794 111.43 19.0695 111.296 19.1626C111.168 19.2557 111.02 19.3342 110.851 19.3982C110.683 19.4564 110.494 19.4854 110.284 19.4854ZM110.502 18.8136C110.706 18.8136 110.889 18.7758 111.052 18.7002C111.215 18.6245 111.349 18.5198 111.453 18.386C111.564 18.2464 111.64 18.0806 111.68 17.8887V17.1819C111.634 17.0074 111.552 16.8562 111.436 16.7282C111.32 16.5944 111.18 16.4926 111.017 16.4228C110.854 16.3472 110.674 16.3094 110.476 16.3094C110.261 16.3094 110.063 16.3617 109.883 16.4664C109.703 16.5711 109.557 16.7166 109.447 16.9027C109.342 17.0888 109.29 17.307 109.29 17.5571C109.29 17.7898 109.345 18.0021 109.455 18.1941C109.566 18.386 109.714 18.5373 109.9 18.6478C110.086 18.7583 110.287 18.8136 110.502 18.8136ZM114.62 15.7858L114.69 16.5973L114.655 16.5275C114.789 16.2541 114.978 16.0389 115.222 15.8818C115.472 15.7248 115.757 15.6462 116.077 15.6462C116.281 15.6462 116.461 15.6782 116.618 15.7422C116.775 15.8062 116.903 15.8993 117.002 16.0214C117.107 16.1378 117.174 16.2832 117.203 16.4577L117.159 16.4839C117.299 16.2221 117.491 16.0185 117.735 15.8731C117.985 15.7219 118.247 15.6462 118.521 15.6462C118.875 15.6462 119.155 15.748 119.358 15.9516C119.568 16.1494 119.675 16.4083 119.681 16.7282V19.3982H118.87V17.0161C118.864 16.83 118.817 16.6758 118.73 16.5537C118.649 16.4257 118.503 16.3559 118.294 16.3443C118.084 16.3443 117.895 16.4083 117.727 16.5362C117.564 16.6642 117.436 16.83 117.343 17.0336C117.25 17.2314 117.2 17.4466 117.194 17.6793V19.3982H116.383V17.0161C116.377 16.83 116.328 16.6758 116.234 16.5537C116.147 16.4257 115.999 16.3559 115.789 16.3443C115.574 16.3443 115.385 16.4083 115.222 16.5362C115.059 16.6642 114.931 16.83 114.838 17.0336C114.751 17.2372 114.707 17.4553 114.707 17.688V19.3982H113.896V15.7858H114.62ZM121.105 14.477L120.695 14.2676C120.817 14.1513 120.913 13.9913 120.983 13.7877C121.058 13.5841 121.076 13.3805 121.035 13.1769L121.681 13.1158C121.716 13.2787 121.71 13.4503 121.663 13.6306C121.617 13.8052 121.544 13.968 121.445 14.1193C121.346 14.2705 121.233 14.3898 121.105 14.477ZM123.719 19.468C123.463 19.468 123.213 19.4244 122.968 19.3371C122.73 19.244 122.532 19.1073 122.375 18.927L122.715 18.4558C122.867 18.6013 123.021 18.7118 123.178 18.7874C123.341 18.8572 123.501 18.8921 123.658 18.8921C123.774 18.8921 123.882 18.8776 123.981 18.8485C124.08 18.8194 124.158 18.7729 124.216 18.7089C124.28 18.6391 124.312 18.546 124.312 18.4297C124.312 18.3017 124.269 18.1999 124.181 18.1243C124.1 18.0487 123.992 17.9876 123.858 17.941C123.731 17.8945 123.594 17.8509 123.448 17.8102C123.152 17.7113 122.925 17.5746 122.768 17.4001C122.611 17.2255 122.532 17.0132 122.532 16.7631C122.532 16.5711 122.579 16.3937 122.672 16.2308C122.771 16.0621 122.913 15.9254 123.099 15.8207C123.291 15.716 123.527 15.6637 123.806 15.6637C124.056 15.6637 124.28 15.6957 124.478 15.7597C124.676 15.8178 124.862 15.9167 125.036 16.0563L124.714 16.5624C124.609 16.4519 124.484 16.3704 124.338 16.3181C124.193 16.2657 124.062 16.2367 123.946 16.2308C123.847 16.225 123.751 16.2396 123.658 16.2745C123.571 16.3094 123.498 16.3588 123.44 16.4228C123.381 16.4868 123.352 16.5624 123.352 16.6497C123.352 16.7718 123.393 16.8707 123.475 16.9463C123.556 17.022 123.661 17.083 123.789 17.1296C123.922 17.1703 124.053 17.2139 124.181 17.2604C124.362 17.3128 124.522 17.3826 124.661 17.4699C124.801 17.5571 124.911 17.6647 124.993 17.7927C125.08 17.9207 125.124 18.0806 125.124 18.2726C125.124 18.4878 125.071 18.6885 124.967 18.8747C124.868 19.055 124.714 19.2004 124.504 19.3109C124.301 19.4156 124.039 19.468 123.719 19.468ZM130.897 13.0897C131.217 13.0897 131.51 13.1333 131.778 13.2205C132.051 13.302 132.287 13.4271 132.485 13.5957C132.688 13.7586 132.845 13.9622 132.956 14.2065C133.072 14.445 133.13 14.7242 133.13 15.0442C133.13 15.2943 133.093 15.5386 133.017 15.7771C132.947 16.0156 132.828 16.2338 132.659 16.4315C132.491 16.6235 132.27 16.7805 131.996 16.9027C131.729 17.019 131.397 17.0772 131.001 17.0772H130.068V19.3982H129.221V13.0897H130.897ZM130.984 16.2657C131.234 16.2657 131.441 16.2279 131.604 16.1523C131.772 16.0767 131.903 15.9807 131.996 15.8644C132.089 15.7422 132.156 15.6113 132.197 15.4717C132.238 15.3321 132.258 15.2012 132.258 15.0791C132.258 14.9511 132.235 14.8202 132.188 14.6864C132.147 14.5468 132.078 14.4188 131.979 14.3025C131.886 14.1862 131.761 14.0902 131.604 14.0146C131.452 13.9389 131.266 13.9011 131.045 13.9011H130.068V16.2657H130.984ZM132.022 16.7456L133.671 19.3982H132.694L131.019 16.7718L132.022 16.7456ZM136.337 19.4854C135.924 19.4854 135.569 19.404 135.272 19.2411C134.976 19.0724 134.746 18.8456 134.583 18.5605C134.426 18.2697 134.348 17.9381 134.348 17.5658C134.348 17.211 134.438 16.8882 134.618 16.5973C134.798 16.3065 135.04 16.0738 135.342 15.8993C135.645 15.7248 135.982 15.6375 136.354 15.6375C136.831 15.6375 137.227 15.7771 137.541 16.0563C137.855 16.3355 138.068 16.7195 138.178 17.2081L135.203 18.2552L135.011 17.7753L137.454 16.8853L137.279 16.9987C137.209 16.8067 137.093 16.6409 136.93 16.5013C136.767 16.3559 136.555 16.2832 136.293 16.2832C136.072 16.2832 135.874 16.3385 135.7 16.449C135.525 16.5537 135.389 16.6991 135.29 16.8853C135.191 17.0714 135.142 17.2837 135.142 17.5222C135.142 17.7723 135.194 17.9934 135.299 18.1854C135.403 18.3715 135.546 18.5198 135.726 18.6304C135.912 18.7351 136.122 18.7874 136.354 18.7874C136.511 18.7874 136.663 18.7583 136.808 18.7002C136.959 18.642 137.099 18.5664 137.227 18.4733L137.602 19.0754C137.422 19.1975 137.218 19.2964 136.991 19.372C136.77 19.4476 136.552 19.4854 136.337 19.4854ZM140.533 19.5029L138.526 15.7858H139.486L140.847 18.6565L140.35 18.6391L141.597 15.7858H142.505L140.577 19.5029H140.533ZM144.969 19.4854C144.556 19.4854 144.201 19.404 143.904 19.2411C143.608 19.0724 143.378 18.8456 143.215 18.5605C143.058 18.2697 142.979 17.9381 142.979 17.5658C142.979 17.211 143.069 16.8882 143.25 16.5973C143.43 16.3065 143.672 16.0738 143.974 15.8993C144.276 15.7248 144.614 15.6375 144.986 15.6375C145.463 15.6375 145.859 15.7771 146.173 16.0563C146.487 16.3355 146.699 16.7195 146.81 17.2081L143.834 18.2552L143.642 17.7753L146.086 16.8853L145.911 16.9987C145.841 16.8067 145.725 16.6409 145.562 16.5013C145.399 16.3559 145.187 16.2832 144.925 16.2832C144.704 16.2832 144.506 16.3385 144.332 16.449C144.157 16.5537 144.021 16.6991 143.922 16.8853C143.823 17.0714 143.773 17.2837 143.773 17.5222C143.773 17.7723 143.826 17.9934 143.93 18.1854C144.035 18.3715 144.178 18.5198 144.358 18.6304C144.544 18.7351 144.753 18.7874 144.986 18.7874C145.143 18.7874 145.294 18.7583 145.44 18.7002C145.591 18.642 145.731 18.5664 145.859 18.4733L146.234 19.0754C146.054 19.1975 145.85 19.2964 145.623 19.372C145.402 19.4476 145.184 19.4854 144.969 19.4854ZM149.327 19.4854C148.99 19.4854 148.682 19.4127 148.402 19.2673C148.129 19.1219 147.911 18.9096 147.748 18.6304C147.591 18.3453 147.512 17.9992 147.512 17.592C147.512 17.1906 147.597 16.8445 147.765 16.5537C147.934 16.257 148.158 16.0302 148.437 15.8731C148.722 15.716 149.034 15.6375 149.371 15.6375C149.708 15.6375 149.993 15.716 150.226 15.8731C150.459 16.0243 150.636 16.2047 150.758 16.4141L150.706 16.5537L150.785 15.7858H151.535V19.3982H150.723V18.4558L150.811 18.6653C150.787 18.7234 150.735 18.799 150.654 18.8921C150.578 18.9794 150.473 19.0695 150.34 19.1626C150.212 19.2557 150.063 19.3342 149.895 19.3982C149.726 19.4564 149.537 19.4854 149.327 19.4854ZM149.545 18.8136C149.749 18.8136 149.932 18.7758 150.095 18.7002C150.258 18.6245 150.392 18.5198 150.497 18.386C150.607 18.2464 150.683 18.0806 150.723 17.8887V17.1819C150.677 17.0074 150.595 16.8562 150.479 16.7282C150.363 16.5944 150.223 16.4926 150.06 16.4228C149.897 16.3472 149.717 16.3094 149.519 16.3094C149.304 16.3094 149.106 16.3617 148.926 16.4664C148.746 16.5711 148.6 16.7166 148.49 16.9027C148.385 17.0888 148.333 17.307 148.333 17.5571C148.333 17.7898 148.388 18.0021 148.498 18.1941C148.609 18.386 148.757 18.5373 148.943 18.6478C149.13 18.7583 149.33 18.8136 149.545 18.8136ZM152.939 12.6447H153.751V19.3982H152.939V12.6447Z" fill="white"/>
<path d="M94.4625 27.5844H96.0941V28.2999H94.4625V27.5844ZM100.318 23.5096H104.062V24.3211H101.165V26.3366H103.704V27.1394H101.165V29.8181H100.318V23.5096ZM106.262 29.9577C105.937 29.9577 105.666 29.8588 105.451 29.6611C105.242 29.4575 105.131 29.1957 105.119 28.8758V26.2058H105.931V28.5878C105.943 28.7856 105.998 28.9456 106.097 29.0677C106.201 29.1899 106.364 29.2539 106.585 29.2597C106.789 29.2597 106.969 29.2015 107.126 29.0852C107.289 28.963 107.42 28.8001 107.519 28.5965C107.618 28.3871 107.667 28.1515 107.667 27.8898V26.2058H108.479V29.8181H107.737L107.667 28.9281L107.711 29.0852C107.641 29.2539 107.533 29.4051 107.388 29.5389C107.248 29.6669 107.083 29.7687 106.891 29.8443C106.699 29.9199 106.489 29.9577 106.262 29.9577ZM109.883 23.0646H110.694V29.8181H109.883V23.0646ZM112.098 23.0646H112.91V29.8181H112.098V23.0646ZM114.069 27.5844H115.701V28.2999H114.069V27.5844ZM116.615 23.5445H117.592L119.302 28.361L119.154 28.2999L120.401 25.0715L120.794 26.2145L119.127 30.1061L116.615 23.5445ZM119.642 23.5445H120.489L122.338 28.2912L122.164 28.2563L123.796 23.5445H124.694L122.216 30.0973L119.642 23.5445ZM126.623 29.9054C126.21 29.9054 125.855 29.8239 125.559 29.6611C125.262 29.4924 125.032 29.2655 124.869 28.9805C124.712 28.6896 124.634 28.3581 124.634 27.9858C124.634 27.6309 124.724 27.3081 124.904 27.0172C125.084 26.7264 125.326 26.4937 125.628 26.3192C125.931 26.1447 126.268 26.0574 126.64 26.0574C127.117 26.0574 127.513 26.197 127.827 26.4763C128.141 26.7555 128.354 27.1394 128.464 27.628L125.489 28.6751L125.297 28.1952L127.74 27.3052L127.565 27.4186C127.496 27.2266 127.379 27.0609 127.216 26.9213C127.053 26.7758 126.841 26.7031 126.579 26.7031C126.358 26.7031 126.161 26.7584 125.986 26.8689C125.812 26.9736 125.675 27.119 125.576 27.3052C125.477 27.4913 125.428 27.7036 125.428 27.9421C125.428 28.1923 125.48 28.4133 125.585 28.6053C125.689 28.7914 125.832 28.9397 126.012 29.0503C126.198 29.155 126.408 29.2073 126.64 29.2073C126.798 29.2073 126.949 29.1782 127.094 29.1201C127.245 29.0619 127.385 28.9863 127.513 28.8932L127.888 29.4953C127.708 29.6174 127.504 29.7163 127.277 29.7919C127.056 29.8676 126.838 29.9054 126.623 29.9054ZM131.68 29.9054C131.348 29.9054 131.054 29.8327 130.798 29.6872C130.548 29.5418 130.348 29.3586 130.196 29.1375L130.292 28.8845V29.8181H129.481V23.0646H130.284V27.0347L130.257 26.7293C130.403 26.5315 130.609 26.3715 130.877 26.2494C131.15 26.1214 131.453 26.0574 131.784 26.0574C132.11 26.0574 132.407 26.136 132.674 26.293C132.942 26.4501 133.154 26.6711 133.311 26.9562C133.474 27.2354 133.556 27.5698 133.556 27.9596C133.556 28.3668 133.468 28.7158 133.294 29.0066C133.125 29.2975 132.898 29.5214 132.613 29.6785C132.328 29.8297 132.017 29.9054 131.68 29.9054ZM131.514 29.2161C131.747 29.2161 131.956 29.1608 132.142 29.0503C132.328 28.9397 132.474 28.7914 132.578 28.6053C132.683 28.4133 132.736 28.1952 132.736 27.9509C132.736 27.7182 132.68 27.5088 132.57 27.3226C132.465 27.1307 132.32 26.9794 132.133 26.8689C131.953 26.7584 131.747 26.7031 131.514 26.7031C131.316 26.7031 131.133 26.7409 130.964 26.8165C130.796 26.8922 130.653 26.9969 130.537 27.1307C130.42 27.2586 130.339 27.4099 130.292 27.5844V28.3086C130.339 28.4831 130.417 28.6402 130.528 28.7798C130.638 28.9136 130.778 29.0212 130.947 29.1026C131.115 29.1782 131.305 29.2161 131.514 29.2161ZM135.665 29.8879C135.409 29.8879 135.159 29.8443 134.915 29.757C134.676 29.664 134.479 29.5273 134.322 29.3469L134.662 28.8758C134.813 29.0212 134.967 29.1317 135.124 29.2073C135.287 29.2771 135.447 29.312 135.604 29.312C135.721 29.312 135.828 29.2975 135.927 29.2684C136.026 29.2393 136.104 29.1928 136.163 29.1288C136.227 29.059 136.259 28.9659 136.259 28.8496C136.259 28.7216 136.215 28.6198 136.128 28.5442C136.046 28.4686 135.939 28.4075 135.805 28.361C135.677 28.3144 135.54 28.2708 135.395 28.2301C135.098 28.1312 134.871 27.9945 134.714 27.82C134.557 27.6455 134.479 27.4331 134.479 27.183C134.479 26.9911 134.525 26.8136 134.618 26.6508C134.717 26.4821 134.86 26.3454 135.046 26.2407C135.238 26.136 135.473 26.0836 135.753 26.0836C136.003 26.0836 136.227 26.1156 136.424 26.1796C136.622 26.2378 136.808 26.3366 136.983 26.4763L136.66 26.9823C136.555 26.8718 136.43 26.7904 136.285 26.738C136.139 26.6857 136.008 26.6566 135.892 26.6508C135.793 26.6449 135.697 26.6595 135.604 26.6944C135.517 26.7293 135.444 26.7787 135.386 26.8427C135.328 26.9067 135.299 26.9823 135.299 27.0696C135.299 27.1917 135.34 27.2906 135.421 27.3663C135.502 27.4419 135.607 27.503 135.735 27.5495C135.869 27.5902 136 27.6338 136.128 27.6804C136.308 27.7327 136.468 27.8025 136.608 27.8898C136.747 27.977 136.858 28.0847 136.939 28.2126C137.026 28.3406 137.07 28.5006 137.07 28.6925C137.07 28.9078 137.018 29.1084 136.913 29.2946C136.814 29.4749 136.66 29.6203 136.451 29.7309C136.247 29.8356 135.985 29.8879 135.665 29.8879ZM138.206 26.2058H139.018V29.8181H138.206V26.2058ZM138.145 24.8969C138.145 24.769 138.195 24.6614 138.294 24.5741C138.398 24.4868 138.512 24.4432 138.634 24.4432C138.756 24.4432 138.864 24.4868 138.957 24.5741C139.056 24.6614 139.105 24.769 139.105 24.8969C139.105 25.0307 139.056 25.1413 138.957 25.2285C138.864 25.3099 138.756 25.3507 138.634 25.3507C138.512 25.3507 138.398 25.307 138.294 25.2198C138.195 25.1325 138.145 25.0249 138.145 24.8969ZM140.771 24.6177H141.582V26.2232H142.577V26.8602H141.582V29.8181H140.771V26.8602H140.108V26.2232H140.771V24.6177ZM145.233 29.9054C144.82 29.9054 144.465 29.8239 144.168 29.6611C143.872 29.4924 143.642 29.2655 143.479 28.9805C143.322 28.6896 143.243 28.3581 143.243 27.9858C143.243 27.6309 143.334 27.3081 143.514 27.0172C143.694 26.7264 143.936 26.4937 144.238 26.3192C144.541 26.1447 144.878 26.0574 145.25 26.0574C145.727 26.0574 146.123 26.197 146.437 26.4763C146.751 26.7555 146.963 27.1394 147.074 27.628L144.099 28.6751L143.907 28.1952L146.35 27.3052L146.175 27.4186C146.105 27.2266 145.989 27.0609 145.826 26.9213C145.663 26.7758 145.451 26.7031 145.189 26.7031C144.968 26.7031 144.77 26.7584 144.596 26.8689C144.421 26.9736 144.285 27.119 144.186 27.3052C144.087 27.4913 144.037 27.7036 144.037 27.9421C144.037 28.1923 144.09 28.4133 144.195 28.6053C144.299 28.7914 144.442 28.9397 144.622 29.0503C144.808 29.155 145.018 29.2073 145.25 29.2073C145.407 29.2073 145.559 29.1782 145.704 29.1201C145.855 29.0619 145.995 28.9863 146.123 28.8932L146.498 29.4953C146.318 29.6174 146.114 29.7163 145.887 29.7919C145.666 29.8676 145.448 29.9054 145.233 29.9054Z" fill="white"/>
<path d="M94.4625 38.0046H96.0941V38.72H94.4625V38.0046ZM101.077 38.0046C101.077 38.2896 101.144 38.5455 101.278 38.7724C101.418 38.9934 101.601 39.168 101.828 39.2959C102.055 39.4239 102.311 39.4879 102.596 39.4879C102.892 39.4879 103.157 39.4239 103.39 39.2959C103.622 39.168 103.806 38.9934 103.939 38.7724C104.073 38.5455 104.14 38.2896 104.14 38.0046V33.9298H104.969V38.0307C104.969 38.4903 104.861 38.8916 104.646 39.2349C104.437 39.5781 104.152 39.8427 103.791 40.0289C103.436 40.215 103.038 40.3081 102.596 40.3081C102.154 40.3081 101.755 40.215 101.4 40.0289C101.045 39.8427 100.763 39.5781 100.554 39.2349C100.344 38.8916 100.24 38.4903 100.24 38.0307V33.9298H101.077V38.0046ZM108.629 40.3255C108.355 40.3255 108.091 40.2615 107.835 40.1336C107.585 40.0056 107.39 39.834 107.25 39.6188L107.303 39.3657V41.9747H106.5V36.5736H107.198L107.311 37.4985L107.224 37.2454C107.399 37.0244 107.62 36.8412 107.887 36.6957C108.155 36.5503 108.454 36.4776 108.786 36.4776C109.123 36.4776 109.426 36.559 109.693 36.7219C109.967 36.8848 110.182 37.1116 110.339 37.4025C110.496 37.6933 110.575 38.0336 110.575 38.4234C110.575 38.8131 110.49 39.1505 110.322 39.4355C110.153 39.7206 109.92 39.9416 109.624 40.0987C109.333 40.2499 109.001 40.3255 108.629 40.3255ZM108.472 39.6799C108.704 39.6799 108.917 39.6275 109.109 39.5228C109.307 39.4123 109.464 39.2639 109.58 39.0778C109.696 38.8858 109.754 38.6706 109.754 38.4321C109.754 38.1878 109.699 37.9726 109.589 37.7864C109.478 37.5945 109.33 37.4432 109.144 37.3327C108.963 37.2222 108.76 37.1669 108.533 37.1669C108.323 37.1669 108.134 37.2076 107.966 37.2891C107.797 37.3705 107.657 37.4839 107.547 37.6294C107.436 37.769 107.358 37.9318 107.311 38.118V38.72C107.34 38.9062 107.41 39.072 107.521 39.2174C107.631 39.3628 107.768 39.4763 107.931 39.5577C108.099 39.6391 108.28 39.6799 108.472 39.6799ZM113.138 40.3255C112.806 40.3255 112.504 40.247 112.23 40.0899C111.963 39.9271 111.751 39.7002 111.594 39.4094C111.436 39.1127 111.358 38.7724 111.358 38.3885C111.358 37.9871 111.439 37.6439 111.602 37.3589C111.771 37.0738 111.998 36.8557 112.283 36.7045C112.568 36.5532 112.888 36.4776 113.243 36.4776C113.528 36.4776 113.798 36.5387 114.054 36.6608C114.316 36.783 114.519 36.9517 114.665 37.1669L114.63 37.4549V33.4848H115.433V40.2383H114.621V39.3396L114.709 39.5664C114.54 39.7875 114.322 39.9707 114.054 40.1161C113.787 40.2557 113.481 40.3255 113.138 40.3255ZM113.391 39.6362C113.606 39.6362 113.798 39.5984 113.967 39.5228C114.136 39.4414 114.275 39.3308 114.386 39.1912C114.496 39.0516 114.575 38.8858 114.621 38.6939V38.0133C114.575 37.8388 114.49 37.6875 114.368 37.5596C114.252 37.4258 114.109 37.3211 113.941 37.2454C113.778 37.164 113.595 37.1233 113.391 37.1233C113.17 37.1233 112.966 37.1785 112.78 37.2891C112.6 37.3938 112.454 37.5392 112.344 37.7253C112.233 37.9115 112.178 38.1267 112.178 38.371C112.178 38.6095 112.233 38.8248 112.344 39.0167C112.454 39.2029 112.603 39.3541 112.789 39.4704C112.975 39.581 113.176 39.6362 113.391 39.6362ZM118.345 40.3255C118.008 40.3255 117.699 40.2528 117.42 40.1074C117.147 39.962 116.929 39.7497 116.766 39.4704C116.609 39.1854 116.53 38.8393 116.53 38.4321C116.53 38.0307 116.615 37.6846 116.783 37.3938C116.952 37.0971 117.176 36.8702 117.455 36.7132C117.74 36.5561 118.051 36.4776 118.389 36.4776C118.726 36.4776 119.011 36.5561 119.244 36.7132C119.476 36.8644 119.654 37.0448 119.776 37.2542L119.724 37.3938L119.802 36.6259H120.553V40.2383H119.741V39.2959L119.828 39.5053C119.805 39.5635 119.753 39.6391 119.671 39.7322C119.596 39.8195 119.491 39.9096 119.357 40.0027C119.229 40.0958 119.081 40.1743 118.912 40.2383C118.744 40.2965 118.554 40.3255 118.345 40.3255ZM118.563 39.6537C118.767 39.6537 118.95 39.6159 119.113 39.5402C119.276 39.4646 119.41 39.3599 119.514 39.2261C119.625 39.0865 119.7 38.9207 119.741 38.7288V38.022C119.695 37.8475 119.613 37.6963 119.497 37.5683C119.38 37.4345 119.241 37.3327 119.078 37.2629C118.915 37.1873 118.735 37.1495 118.537 37.1495C118.322 37.1495 118.124 37.2018 117.944 37.3065C117.763 37.4112 117.618 37.5566 117.507 37.7428C117.403 37.9289 117.35 38.1471 117.35 38.3972C117.35 38.6299 117.406 38.8422 117.516 39.0342C117.627 39.2261 117.775 39.3774 117.961 39.4879C118.147 39.5984 118.348 39.6537 118.563 39.6537ZM122.306 35.0379H123.117V36.6434H124.112V37.2803H123.117V40.2383H122.306V37.2803H121.643V36.6434H122.306V35.0379ZM126.768 40.3255C126.355 40.3255 126 40.2441 125.703 40.0812C125.407 39.9125 125.177 39.6857 125.014 39.4006C124.857 39.1098 124.778 38.7782 124.778 38.4059C124.778 38.0511 124.869 37.7282 125.049 37.4374C125.229 37.1466 125.471 36.9139 125.773 36.7394C126.076 36.5649 126.413 36.4776 126.785 36.4776C127.262 36.4776 127.658 36.6172 127.972 36.8964C128.286 37.1756 128.498 37.5596 128.609 38.0482L125.634 39.0952L125.442 38.6153L127.885 37.7253L127.71 37.8388C127.64 37.6468 127.524 37.481 127.361 37.3414C127.198 37.196 126.986 37.1233 126.724 37.1233C126.503 37.1233 126.305 37.1785 126.131 37.2891C125.956 37.3938 125.82 37.5392 125.721 37.7253C125.622 37.9115 125.572 38.1238 125.572 38.3623C125.572 38.6124 125.625 38.8335 125.73 39.0254C125.834 39.2116 125.977 39.3599 126.157 39.4704C126.343 39.5751 126.553 39.6275 126.785 39.6275C126.942 39.6275 127.094 39.5984 127.239 39.5402C127.39 39.4821 127.53 39.4065 127.658 39.3134L128.033 39.9154C127.853 40.0376 127.649 40.1365 127.422 40.2121C127.201 40.2877 126.983 40.3255 126.768 40.3255ZM132.587 40.2383V33.9298H134.306C134.929 33.9298 135.458 34.0257 135.894 34.2177C136.336 34.4097 136.691 34.6627 136.959 34.9768C137.226 35.2909 137.421 35.6399 137.543 36.0239C137.671 36.402 137.735 36.7801 137.735 37.1582C137.735 37.6352 137.651 38.0627 137.482 38.4408C137.319 38.8189 137.092 39.1418 136.802 39.4094C136.511 39.6769 136.176 39.8834 135.798 40.0289C135.426 40.1685 135.03 40.2383 134.612 40.2383H132.587ZM133.434 39.4268H134.446C134.795 39.4268 135.115 39.3745 135.406 39.2698C135.702 39.165 135.958 39.0138 136.173 38.816C136.394 38.6182 136.566 38.3768 136.688 38.0918C136.81 37.801 136.871 37.4723 136.871 37.1058C136.871 36.7161 136.807 36.3758 136.679 36.0849C136.552 35.7883 136.377 35.5411 136.156 35.3433C135.935 35.1455 135.685 34.9972 135.406 34.8983C135.126 34.7936 134.833 34.7412 134.524 34.7412H133.434V39.4268ZM140.632 40.3255C140.219 40.3255 139.864 40.2441 139.567 40.0812C139.27 39.9125 139.041 39.6857 138.878 39.4006C138.721 39.1098 138.642 38.7782 138.642 38.4059C138.642 38.0511 138.732 37.7282 138.913 37.4374C139.093 37.1466 139.334 36.9139 139.637 36.7394C139.939 36.5649 140.277 36.4776 140.649 36.4776C141.126 36.4776 141.522 36.6172 141.836 36.8964C142.15 37.1756 142.362 37.5596 142.473 38.0482L139.497 39.0952L139.305 38.6153L141.748 37.7253L141.574 37.8388C141.504 37.6468 141.388 37.481 141.225 37.3414C141.062 37.196 140.85 37.1233 140.588 37.1233C140.367 37.1233 140.169 37.1785 139.995 37.2891C139.82 37.3938 139.683 37.5392 139.584 37.7253C139.486 37.9115 139.436 38.1238 139.436 38.3623C139.436 38.6124 139.488 38.8335 139.593 39.0254C139.698 39.2116 139.84 39.3599 140.021 39.4704C140.207 39.5751 140.416 39.6275 140.649 39.6275C140.806 39.6275 140.957 39.5984 141.103 39.5402C141.254 39.4821 141.394 39.4065 141.522 39.3134L141.897 39.9154C141.716 40.0376 141.513 40.1365 141.286 40.2121C141.065 40.2877 140.847 40.3255 140.632 40.3255ZM144.827 40.343L142.821 36.6259H143.78L145.142 39.4966L144.644 39.4792L145.892 36.6259H146.799L144.871 40.343H144.827ZM149.263 40.3255C148.85 40.3255 148.495 40.2441 148.199 40.0812C147.902 39.9125 147.672 39.6857 147.509 39.4006C147.352 39.1098 147.274 38.7782 147.274 38.4059C147.274 38.0511 147.364 37.7282 147.544 37.4374C147.725 37.1466 147.966 36.9139 148.269 36.7394C148.571 36.5649 148.908 36.4776 149.281 36.4776C149.758 36.4776 150.153 36.6172 150.467 36.8964C150.782 37.1756 150.994 37.5596 151.104 38.0482L148.129 39.0952L147.937 38.6153L150.38 37.7253L150.206 37.8388C150.136 37.6468 150.019 37.481 149.857 37.3414C149.694 37.196 149.481 37.1233 149.22 37.1233C148.999 37.1233 148.801 37.1785 148.626 37.2891C148.452 37.3938 148.315 37.5392 148.216 37.7253C148.117 37.9115 148.068 38.1238 148.068 38.3623C148.068 38.6124 148.12 38.8335 148.225 39.0254C148.33 39.2116 148.472 39.3599 148.652 39.4704C148.839 39.5751 149.048 39.6275 149.281 39.6275C149.438 39.6275 149.589 39.5984 149.734 39.5402C149.886 39.4821 150.025 39.4065 150.153 39.3134L150.528 39.9154C150.348 40.0376 150.145 40.1365 149.918 40.2121C149.697 40.2877 149.479 40.3255 149.263 40.3255ZM152.121 33.4848H152.933V40.2383H152.121V33.4848ZM154.022 38.3972C154.022 38.0366 154.107 37.7108 154.276 37.4199C154.45 37.1291 154.689 36.8993 154.991 36.7306C155.294 36.5619 155.637 36.4776 156.021 36.4776C156.416 36.4776 156.762 36.5619 157.059 36.7306C157.356 36.8993 157.585 37.1291 157.748 37.4199C157.911 37.7108 157.993 38.0366 157.993 38.3972C157.993 38.7579 157.911 39.0865 157.748 39.3832C157.585 39.674 157.353 39.9038 157.05 40.0725C156.754 40.2412 156.407 40.3255 156.012 40.3255C155.628 40.3255 155.285 40.247 154.982 40.0899C154.686 39.9271 154.45 39.7031 154.276 39.4181C154.107 39.1272 154.022 38.7869 154.022 38.3972ZM154.834 38.4059C154.834 38.6386 154.886 38.8509 154.991 39.0429C155.096 39.229 155.235 39.3774 155.41 39.4879C155.59 39.5984 155.788 39.6537 156.003 39.6537C156.23 39.6537 156.431 39.5984 156.605 39.4879C156.786 39.3774 156.925 39.229 157.024 39.0429C157.123 38.8509 157.172 38.6386 157.172 38.4059C157.172 38.1732 157.123 37.9638 157.024 37.7777C156.925 37.5857 156.786 37.4345 156.605 37.324C156.431 37.2076 156.23 37.1495 156.003 37.1495C155.782 37.1495 155.581 37.2076 155.401 37.324C155.227 37.4403 155.087 37.5945 154.982 37.7864C154.883 37.9726 154.834 38.1791 154.834 38.4059ZM161.22 40.3255C160.947 40.3255 160.682 40.2615 160.426 40.1336C160.176 40.0056 159.981 39.834 159.842 39.6188L159.894 39.3657V41.9747H159.091V36.5736H159.789L159.903 37.4985L159.816 37.2454C159.99 37.0244 160.211 36.8412 160.479 36.6957C160.746 36.5503 161.046 36.4776 161.377 36.4776C161.715 36.4776 162.017 36.559 162.285 36.7219C162.558 36.8848 162.773 37.1116 162.931 37.4025C163.088 37.6933 163.166 38.0336 163.166 38.4234C163.166 38.8131 163.082 39.1505 162.913 39.4355C162.744 39.7206 162.512 39.9416 162.215 40.0987C161.924 40.2499 161.593 40.3255 161.22 40.3255ZM161.063 39.6799C161.296 39.6799 161.508 39.6275 161.7 39.5228C161.898 39.4123 162.055 39.2639 162.171 39.0778C162.288 38.8858 162.346 38.6706 162.346 38.4321C162.346 38.1878 162.291 37.9726 162.18 37.7864C162.07 37.5945 161.921 37.4432 161.735 37.3327C161.555 37.2222 161.351 37.1669 161.124 37.1669C160.915 37.1669 160.726 37.2076 160.557 37.2891C160.389 37.3705 160.249 37.4839 160.138 37.6294C160.028 37.769 159.949 37.9318 159.903 38.118V38.72C159.932 38.9062 160.002 39.072 160.112 39.2174C160.223 39.3628 160.359 39.4763 160.522 39.5577C160.691 39.6391 160.871 39.6799 161.063 39.6799ZM164.988 36.6259L165.058 37.4374L165.023 37.3676C165.156 37.0942 165.346 36.879 165.59 36.7219C165.84 36.5649 166.125 36.4863 166.445 36.4863C166.649 36.4863 166.829 36.5183 166.986 36.5823C167.143 36.6463 167.271 36.7394 167.37 36.8615C167.475 36.9779 167.541 37.1233 167.571 37.2978L167.527 37.324C167.666 37.0622 167.858 36.8586 168.103 36.7132C168.353 36.5619 168.615 36.4863 168.888 36.4863C169.243 36.4863 169.522 36.5881 169.726 36.7917C169.935 36.9895 170.043 37.2483 170.049 37.5683V40.2383H169.237V37.8562C169.231 37.6701 169.185 37.5159 169.097 37.3938C169.016 37.2658 168.871 37.196 168.661 37.1844C168.452 37.1844 168.263 37.2483 168.094 37.3763C167.931 37.5043 167.803 37.6701 167.71 37.8737C167.617 38.0715 167.568 38.2867 167.562 38.5194V40.2383H166.75V37.8562C166.744 37.6701 166.695 37.5159 166.602 37.3938C166.515 37.2658 166.366 37.196 166.157 37.1844C165.942 37.1844 165.753 37.2483 165.59 37.3763C165.427 37.5043 165.299 37.6701 165.206 37.8737C165.119 38.0773 165.075 38.2954 165.075 38.5281V40.2383H164.264V36.6259H164.988ZM173.139 40.3255C172.726 40.3255 172.371 40.2441 172.075 40.0812C171.778 39.9125 171.548 39.6857 171.385 39.4006C171.228 39.1098 171.15 38.7782 171.15 38.4059C171.15 38.0511 171.24 37.7282 171.42 37.4374C171.6 37.1466 171.842 36.9139 172.144 36.7394C172.447 36.5649 172.784 36.4776 173.157 36.4776C173.634 36.4776 174.029 36.6172 174.343 36.8964C174.657 37.1756 174.87 37.5596 174.98 38.0482L172.005 39.0952L171.813 38.6153L174.256 37.7253L174.081 37.8388C174.012 37.6468 173.895 37.481 173.732 37.3414C173.57 37.196 173.357 37.1233 173.095 37.1233C172.874 37.1233 172.677 37.1785 172.502 37.2891C172.328 37.3938 172.191 37.5392 172.092 37.7253C171.993 37.9115 171.944 38.1238 171.944 38.3623C171.944 38.6124 171.996 38.8335 172.101 39.0254C172.205 39.2116 172.348 39.3599 172.528 39.4704C172.714 39.5751 172.924 39.6275 173.157 39.6275C173.314 39.6275 173.465 39.5984 173.61 39.5402C173.761 39.4821 173.901 39.4065 174.029 39.3134L174.404 39.9154C174.224 40.0376 174.02 40.1365 173.793 40.2121C173.572 40.2877 173.354 40.3255 173.139 40.3255ZM176.721 36.6259L176.791 37.5072L176.756 37.3676C176.872 37.1 177.061 36.8877 177.323 36.7306C177.585 36.5678 177.887 36.4863 178.231 36.4863C178.574 36.4863 178.853 36.5881 179.068 36.7917C179.289 36.9895 179.403 37.2483 179.409 37.5683V40.2383H178.588V37.8562C178.583 37.6584 178.524 37.4985 178.414 37.3763C178.309 37.2483 178.143 37.1844 177.917 37.1844C177.707 37.1844 177.518 37.2425 177.349 37.3589C177.181 37.4752 177.047 37.6352 176.948 37.8388C176.855 38.0424 176.808 38.278 176.808 38.5455V40.2383H175.997V36.6259H176.721ZM181.169 35.0379H181.98V36.6434H182.975V37.2803H181.98V40.2383H181.169V37.2803H180.506V36.6434H181.169V35.0379Z" fill="white"/>
<path d="M94.6254 49.2998H96.8025V50.7127H94.6254V49.2998ZM106.957 46.1962C106.633 46.0187 106.301 45.872 105.961 45.7562C105.629 45.6404 105.316 45.5825 105.023 45.5825C104.66 45.5825 104.375 45.6558 104.166 45.8025C103.958 45.9492 103.853 46.1692 103.853 46.4626C103.853 46.6633 103.931 46.8447 104.085 47.0069C104.247 47.1613 104.452 47.3002 104.699 47.4238C104.954 47.5473 105.216 47.6592 105.486 47.7596C105.733 47.8523 105.977 47.9642 106.216 48.0954C106.463 48.219 106.683 48.3772 106.876 48.5703C107.069 48.7555 107.223 48.991 107.339 49.2767C107.455 49.5546 107.513 49.8982 107.513 50.3073C107.513 50.7397 107.401 51.1411 107.177 51.5117C106.953 51.8823 106.625 52.1834 106.193 52.415C105.76 52.6389 105.228 52.7508 104.595 52.7508C104.27 52.7508 103.938 52.72 103.599 52.6582C103.267 52.5887 102.939 52.4884 102.614 52.3571C102.29 52.2181 101.977 52.0444 101.676 51.836L102.417 50.5274C102.618 50.6741 102.834 50.8053 103.066 50.9211C103.305 51.0292 103.545 51.1141 103.784 51.1759C104.023 51.2376 104.243 51.2685 104.444 51.2685C104.645 51.2685 104.846 51.2415 105.046 51.1875C105.255 51.1257 105.425 51.0253 105.556 50.8864C105.695 50.7474 105.764 50.5544 105.764 50.3073C105.764 50.1375 105.706 49.9831 105.591 49.8441C105.482 49.7052 105.332 49.5778 105.139 49.462C104.954 49.3462 104.749 49.2458 104.525 49.1609C104.263 49.0605 103.992 48.9447 103.714 48.8134C103.437 48.6822 103.174 48.5239 102.927 48.3386C102.688 48.1456 102.491 47.9102 102.336 47.6322C102.19 47.3466 102.116 46.9992 102.116 46.59C102.116 46.0959 102.224 45.6674 102.441 45.3045C102.665 44.9417 102.977 44.656 103.379 44.4476C103.78 44.2314 104.243 44.1117 104.768 44.0886C105.455 44.0886 106.011 44.1696 106.436 44.3318C106.868 44.4939 107.254 44.6869 107.594 44.9108L106.957 46.1962ZM111.381 52.7972C110.763 52.7972 110.238 52.6814 109.806 52.4498C109.381 52.2181 109.057 51.8977 108.833 51.4886C108.609 51.0794 108.497 50.6084 108.497 50.0757C108.497 49.5662 108.629 49.1068 108.891 48.6976C109.154 48.2885 109.505 47.9642 109.945 47.7249C110.385 47.4778 110.875 47.3543 111.416 47.3543C112.141 47.3543 112.736 47.5666 113.199 47.9912C113.67 48.4081 113.975 49.0142 114.114 49.8094L110.177 51.0601L109.818 50.18L112.666 49.2188L112.331 49.3693C112.269 49.1686 112.157 48.9949 111.995 48.8482C111.84 48.6938 111.605 48.6166 111.288 48.6166C111.049 48.6166 110.837 48.6745 110.651 48.7903C110.474 48.8984 110.335 49.0566 110.234 49.2651C110.142 49.4658 110.095 49.7052 110.095 49.9831C110.095 50.2996 110.153 50.566 110.269 50.7821C110.385 50.9906 110.543 51.1489 110.744 51.257C110.945 51.365 111.169 51.4191 111.416 51.4191C111.593 51.4191 111.763 51.3882 111.925 51.3264C112.095 51.2647 112.261 51.1836 112.423 51.0832L113.141 52.2876C112.871 52.442 112.578 52.5656 112.261 52.6582C111.952 52.7508 111.659 52.7972 111.381 52.7972ZM117.782 52.7972C117.164 52.7972 116.639 52.6814 116.207 52.4498C115.782 52.2181 115.458 51.8977 115.234 51.4886C115.01 51.0794 114.898 50.6084 114.898 50.0757C114.898 49.5662 115.03 49.1068 115.292 48.6976C115.555 48.2885 115.906 47.9642 116.346 47.7249C116.786 47.4778 117.276 47.3543 117.817 47.3543C118.542 47.3543 119.137 47.5666 119.6 47.9912C120.071 48.4081 120.376 49.0142 120.515 49.8094L116.578 51.0601L116.219 50.18L119.067 49.2188L118.732 49.3693C118.67 49.1686 118.558 48.9949 118.396 48.8482C118.241 48.6938 118.006 48.6166 117.689 48.6166C117.45 48.6166 117.238 48.6745 117.052 48.7903C116.875 48.8984 116.736 49.0566 116.635 49.2651C116.543 49.4658 116.496 49.7052 116.496 49.9831C116.496 50.2996 116.554 50.566 116.67 50.7821C116.786 50.9906 116.944 51.1489 117.145 51.257C117.346 51.365 117.57 51.4191 117.817 51.4191C117.994 51.4191 118.164 51.3882 118.326 51.3264C118.496 51.2647 118.662 51.1836 118.824 51.0832L119.542 52.2876C119.272 52.442 118.979 52.5656 118.662 52.6582C118.353 52.7508 118.06 52.7972 117.782 52.7972ZM123.754 52.7972C123.283 52.7972 122.863 52.6891 122.492 52.4729C122.122 52.249 121.828 51.9286 121.612 51.5117C121.404 51.0948 121.299 50.6007 121.299 50.0294C121.299 49.4581 121.415 48.9717 121.647 48.5703C121.878 48.1688 122.195 47.8638 122.596 47.6554C122.998 47.4469 123.453 47.3427 123.963 47.3427C124.287 47.3427 124.596 47.3929 124.889 47.4933C125.19 47.5936 125.441 47.748 125.642 47.9565V48.466V43.5211H127.252V52.6582H125.63V51.6739L125.758 52.0213C125.495 52.2374 125.202 52.4227 124.878 52.5771C124.554 52.7238 124.179 52.7972 123.754 52.7972ZM124.287 51.4307C124.503 51.4307 124.692 51.4036 124.855 51.3496C125.024 51.2878 125.171 51.2029 125.295 51.0948C125.426 50.979 125.538 50.8362 125.63 50.6663V49.4272C125.569 49.2574 125.472 49.1145 125.341 48.9987C125.217 48.8752 125.063 48.7826 124.878 48.7208C124.7 48.6513 124.503 48.6166 124.287 48.6166C124.048 48.6166 123.824 48.6783 123.615 48.8019C123.415 48.9177 123.253 49.0798 123.129 49.2882C123.006 49.4967 122.944 49.736 122.944 50.0062C122.944 50.2765 123.006 50.5197 123.129 50.7358C123.253 50.952 123.415 51.1218 123.615 51.2454C123.824 51.3689 124.048 51.4307 124.287 51.4307ZM140.132 52.6582C140.024 52.6582 139.862 52.6582 139.646 52.6582C139.437 52.6582 139.221 52.6582 138.997 52.6582C138.773 52.6582 138.58 52.6582 138.418 52.6582C138.264 52.6582 138.186 52.6582 138.186 52.6582L134.434 47.6091C134.357 47.501 134.261 47.3543 134.145 47.169C134.029 46.976 133.929 46.7637 133.844 46.5321C133.759 46.2927 133.716 46.0534 133.716 45.8141C133.716 45.5053 133.793 45.2003 133.948 44.8992C134.11 44.5904 134.353 44.3356 134.677 44.1349C135.009 43.9264 135.426 43.8222 135.928 43.8222C136.476 43.8222 136.959 43.9342 137.376 44.158C137.793 44.3819 138.125 44.6522 138.372 44.9687L137.526 46.092C137.287 45.8295 137.055 45.6211 136.831 45.4667C136.615 45.3122 136.403 45.235 136.195 45.235C135.932 45.235 135.743 45.3122 135.627 45.4667C135.511 45.6211 135.453 45.7909 135.453 45.9762C135.453 46.0843 135.48 46.204 135.534 46.3352C135.596 46.4587 135.658 46.5745 135.72 46.6826C135.781 46.783 135.824 46.8525 135.847 46.8911L140.132 52.6582ZM135.442 48.7787C135.257 48.7787 135.083 48.8173 134.921 48.8945C134.759 48.964 134.616 49.0605 134.492 49.184C134.369 49.3076 134.272 49.4465 134.203 49.6009C134.141 49.7553 134.11 49.9175 134.11 50.0873C134.11 50.3266 134.168 50.539 134.284 50.7242C134.407 50.9018 134.573 51.0408 134.782 51.1411C134.99 51.2415 135.218 51.2917 135.465 51.2917C135.72 51.2917 135.928 51.257 136.09 51.1875C136.26 51.1103 136.399 51.0099 136.507 50.8864C136.623 50.7628 136.716 50.6277 136.785 50.4811L137.862 51.3728C137.654 51.7665 137.333 52.1023 136.901 52.3803C136.476 52.6582 135.92 52.7972 135.233 52.7972C134.701 52.7972 134.218 52.6852 133.786 52.4613C133.353 52.2374 133.01 51.9286 132.755 51.5349C132.5 51.1411 132.373 50.6895 132.373 50.18C132.373 49.7939 132.458 49.4388 132.628 49.1145C132.805 48.7903 133.041 48.5085 133.334 48.2692C133.628 48.0298 133.956 47.8407 134.318 47.7017C134.681 47.555 135.052 47.4778 135.43 47.4701L135.442 48.7787ZM137.966 47.4701H139.495L138.059 51.0832L136.843 50.3652L137.966 47.4701ZM147.873 44.1349C148.575 44.1349 149.17 44.2546 149.656 44.4939C150.143 44.7255 150.513 45.0575 150.768 45.4898C151.023 45.9144 151.15 46.4201 151.15 47.0069C151.15 47.3543 151.096 47.7056 150.988 48.0607C150.888 48.4081 150.722 48.7247 150.49 49.0103C150.266 49.296 149.961 49.5276 149.575 49.7052C149.197 49.875 148.73 49.9599 148.174 49.9599H146.969V52.6582H145.29V44.1349H147.873ZM148.162 48.3271C148.417 48.3271 148.629 48.2846 148.799 48.1997C148.969 48.107 149.1 47.9951 149.193 47.8638C149.293 47.7249 149.363 47.582 149.401 47.4354C149.448 47.2887 149.471 47.1613 149.471 47.0532C149.471 46.9683 149.455 46.8563 149.425 46.7174C149.401 46.5707 149.347 46.424 149.262 46.2773C149.177 46.1306 149.046 46.0071 148.869 45.9067C148.699 45.8064 148.467 45.7562 148.174 45.7562H146.969V48.3271H148.162ZM153.845 47.5975L153.996 48.9872L153.961 48.7787C154.108 48.4776 154.309 48.2228 154.563 48.0144C154.818 47.7982 155.069 47.6322 155.316 47.5164C155.571 47.4006 155.764 47.3427 155.895 47.3427L155.814 48.964C155.436 48.9177 155.111 48.9794 154.841 49.1493C154.571 49.3191 154.363 49.543 154.216 49.821C154.069 50.0989 153.996 50.3845 153.996 50.6779V52.6582H152.386V47.5975H153.845ZM157.136 47.5975H158.757V52.6582H157.136V47.5975ZM157.101 45.8025C157.101 45.5632 157.194 45.3663 157.379 45.2119C157.572 45.0575 157.777 44.9803 157.993 44.9803C158.209 44.9803 158.406 45.0575 158.584 45.2119C158.769 45.3663 158.862 45.5632 158.862 45.8025C158.862 46.0418 158.769 46.2387 158.584 46.3931C158.406 46.5398 158.209 46.6131 157.993 46.6131C157.777 46.6131 157.572 46.5398 157.379 46.3931C157.194 46.2387 157.101 46.0418 157.101 45.8025ZM162.743 52.7624L159.709 47.5975H161.631L163.357 51.0948L162.361 51.0601L163.855 47.5975H165.661L162.789 52.7624H162.743ZM168.518 52.7972C168.047 52.7972 167.618 52.7045 167.232 52.5192C166.854 52.3262 166.553 52.0329 166.329 51.6391C166.105 51.2454 165.993 50.7435 165.993 50.1336C165.993 49.5623 166.109 49.0682 166.341 48.6513C166.572 48.2344 166.877 47.914 167.256 47.6901C167.634 47.4585 168.035 47.3427 168.46 47.3427C168.962 47.3427 169.34 47.4276 169.595 47.5975C169.857 47.7596 170.073 47.941 170.243 48.1418L170.174 48.3386L170.324 47.5975H171.83V52.6582H170.209V51.558L170.336 51.9055C170.32 51.9055 170.274 51.9518 170.197 52.0444C170.12 52.1294 170.004 52.2336 169.85 52.3571C169.703 52.4729 169.518 52.5733 169.294 52.6582C169.078 52.7508 168.819 52.7972 168.518 52.7972ZM168.981 51.477C169.174 51.477 169.348 51.45 169.502 51.3959C169.657 51.3342 169.792 51.2492 169.907 51.1411C170.023 51.0253 170.124 50.8825 170.209 50.7127V49.4735C170.147 49.3037 170.054 49.1609 169.931 49.0451C169.807 48.9215 169.66 48.8289 169.491 48.7671C169.321 48.6976 169.132 48.6629 168.923 48.6629C168.691 48.6629 168.475 48.7247 168.275 48.8482C168.082 48.964 167.927 49.1261 167.811 49.3346C167.696 49.543 167.638 49.7824 167.638 50.0526C167.638 50.3228 167.699 50.566 167.823 50.7821C167.946 50.9983 168.109 51.1682 168.309 51.2917C168.518 51.4152 168.742 51.477 168.981 51.477ZM173.975 45.374H175.597V47.5743H176.824V48.8366H175.597V52.6582H173.975V48.8366H173.188V47.5743H173.975V45.374ZM180.548 52.7972C179.93 52.7972 179.405 52.6814 178.973 52.4498C178.548 52.2181 178.224 51.8977 178 51.4886C177.776 51.0794 177.664 50.6084 177.664 50.0757C177.664 49.5662 177.796 49.1068 178.058 48.6976C178.321 48.2885 178.672 47.9642 179.112 47.7249C179.552 47.4778 180.042 47.3543 180.583 47.3543C181.308 47.3543 181.903 47.5666 182.366 47.9912C182.837 48.4081 183.142 49.0142 183.281 49.8094L179.343 51.0601L178.984 50.18L181.833 49.2188L181.497 49.3693C181.436 49.1686 181.324 48.9949 181.162 48.8482C181.007 48.6938 180.772 48.6166 180.455 48.6166C180.216 48.6166 180.004 48.6745 179.818 48.7903C179.641 48.8984 179.502 49.0566 179.401 49.2651C179.309 49.4658 179.262 49.7052 179.262 49.9831C179.262 50.2996 179.32 50.566 179.436 50.7821C179.552 50.9906 179.71 51.1489 179.911 51.257C180.112 51.365 180.336 51.4191 180.583 51.4191C180.76 51.4191 180.93 51.3882 181.092 51.3264C181.262 51.2647 181.428 51.1836 181.59 51.0832L182.308 52.2876C182.038 52.442 181.745 52.5656 181.428 52.6582C181.119 52.7508 180.826 52.7972 180.548 52.7972ZM193.043 46.1962C192.718 46.0187 192.386 45.872 192.047 45.7562C191.715 45.6404 191.402 45.5825 191.109 45.5825C190.746 45.5825 190.46 45.6558 190.252 45.8025C190.043 45.9492 189.939 46.1692 189.939 46.4626C189.939 46.6633 190.016 46.8447 190.171 47.0069C190.333 47.1613 190.537 47.3002 190.784 47.4238C191.039 47.5473 191.302 47.6592 191.572 47.7596C191.819 47.8523 192.062 47.9642 192.301 48.0954C192.548 48.219 192.768 48.3772 192.961 48.5703C193.154 48.7555 193.309 48.991 193.425 49.2767C193.54 49.5546 193.598 49.8982 193.598 50.3073C193.598 50.7397 193.486 51.1411 193.263 51.5117C193.039 51.8823 192.711 52.1834 192.278 52.415C191.846 52.6389 191.313 52.7508 190.68 52.7508C190.356 52.7508 190.024 52.72 189.684 52.6582C189.352 52.5887 189.024 52.4884 188.7 52.3571C188.376 52.2181 188.063 52.0444 187.762 51.836L188.503 50.5274C188.704 50.6741 188.92 50.8053 189.151 50.9211C189.391 51.0292 189.63 51.1141 189.869 51.1759C190.109 51.2376 190.329 51.2685 190.53 51.2685C190.73 51.2685 190.931 51.2415 191.132 51.1875C191.34 51.1257 191.51 51.0253 191.641 50.8864C191.78 50.7474 191.85 50.5544 191.85 50.3073C191.85 50.1375 191.792 49.9831 191.676 49.8441C191.568 49.7052 191.417 49.5778 191.224 49.462C191.039 49.3462 190.834 49.2458 190.611 49.1609C190.348 49.0605 190.078 48.9447 189.8 48.8134C189.522 48.6822 189.26 48.5239 189.012 48.3386C188.773 48.1456 188.576 47.9102 188.422 47.6322C188.275 47.3466 188.202 46.9992 188.202 46.59C188.202 46.0959 188.31 45.6674 188.526 45.3045C188.75 44.9417 189.063 44.656 189.464 44.4476C189.866 44.2314 190.329 44.1117 190.854 44.0886C191.541 44.0886 192.097 44.1696 192.521 44.3318C192.954 44.4939 193.34 44.6869 193.679 44.9108L193.043 46.1962ZM197.107 52.7972C196.636 52.7972 196.208 52.7045 195.822 52.5192C195.444 52.3262 195.143 52.0329 194.919 51.6391C194.695 51.2454 194.583 50.7435 194.583 50.1336C194.583 49.5623 194.699 49.0682 194.93 48.6513C195.162 48.2344 195.467 47.914 195.845 47.6901C196.223 47.4585 196.625 47.3427 197.049 47.3427C197.551 47.3427 197.93 47.4276 198.184 47.5975C198.447 47.7596 198.663 47.941 198.833 48.1418L198.763 48.3386L198.914 47.5975H200.419V52.6582H198.798V51.558L198.926 51.9055C198.91 51.9055 198.864 51.9518 198.787 52.0444C198.709 52.1294 198.594 52.2336 198.439 52.3571C198.292 52.4729 198.107 52.5733 197.883 52.6582C197.667 52.7508 197.408 52.7972 197.107 52.7972ZM197.571 51.477C197.764 51.477 197.937 51.45 198.092 51.3959C198.246 51.3342 198.381 51.2492 198.497 51.1411C198.613 51.0253 198.713 50.8825 198.798 50.7127V49.4735C198.736 49.3037 198.644 49.1609 198.52 49.0451C198.397 48.9215 198.25 48.8289 198.08 48.7671C197.91 48.6976 197.721 48.6629 197.513 48.6629C197.281 48.6629 197.065 48.7247 196.864 48.8482C196.671 48.964 196.517 49.1261 196.401 49.3346C196.285 49.543 196.227 49.7824 196.227 50.0526C196.227 50.3228 196.289 50.566 196.413 50.7821C196.536 50.9983 196.698 51.1682 196.899 51.2917C197.107 51.4152 197.331 51.477 197.571 51.477ZM202.09 43.5211H203.711V52.6582H202.09V43.5211ZM207.871 52.7972C207.253 52.7972 206.728 52.6814 206.296 52.4498C205.871 52.2181 205.547 51.8977 205.323 51.4886C205.099 51.0794 204.987 50.6084 204.987 50.0757C204.987 49.5662 205.119 49.1068 205.381 48.6976C205.643 48.2885 205.995 47.9642 206.435 47.7249C206.875 47.4778 207.365 47.3543 207.906 47.3543C208.631 47.3543 209.226 47.5666 209.689 47.9912C210.16 48.4081 210.465 49.0142 210.604 49.8094L206.666 51.0601L206.307 50.18L209.156 49.2188L208.82 49.3693C208.759 49.1686 208.647 48.9949 208.485 48.8482C208.33 48.6938 208.095 48.6166 207.778 48.6166C207.539 48.6166 207.327 48.6745 207.141 48.7903C206.964 48.8984 206.825 49.0566 206.724 49.2651C206.632 49.4658 206.585 49.7052 206.585 49.9831C206.585 50.2996 206.643 50.566 206.759 50.7821C206.875 50.9906 207.033 51.1489 207.234 51.257C207.435 51.365 207.659 51.4191 207.906 51.4191C208.083 51.4191 208.253 51.3882 208.415 51.3264C208.585 51.2647 208.751 51.1836 208.913 51.0832L209.631 52.2876C209.361 52.442 209.067 52.5656 208.751 52.6582C208.442 52.7508 208.149 52.7972 207.871 52.7972Z" fill="#FFE1B4"/>
<defs>
<linearGradient id="paint0_linear_1286_20548" x1="38.4864" y1="94.9511" x2="38.4864" y2="33.5093" gradientUnits="userSpaceOnUse">
<stop stop-color="#4D7F80"/>
<stop offset="0.0425567" stop-color="#618D8E"/>
<stop offset="0.1456" stop-color="#8AABAC"/>
<stop offset="0.2544" stop-color="#AEC5C6"/>
<stop offset="0.3681" stop-color="#CCDADA"/>
<stop offset="0.4884" stop-color="#E2EAEB"/>
<stop offset="0.6182" stop-color="#F3F6F6"/>
<stop offset="0.7643" stop-color="#FCFDFD"/>
<stop offset="0.961" stop-color="white"/>
</linearGradient>
<linearGradient id="paint1_linear_1286_20548" x1="38.4864" y1="58.7908" x2="38.4864" y2="4.40724" gradientUnits="userSpaceOnUse">
<stop stop-color="#4D7F80"/>
<stop offset="0.0425567" stop-color="#618D8E"/>
<stop offset="0.1456" stop-color="#8AABAC"/>
<stop offset="0.2544" stop-color="#AEC5C6"/>
<stop offset="0.3681" stop-color="#CCDADA"/>
<stop offset="0.4884" stop-color="#E2EAEB"/>
<stop offset="0.6182" stop-color="#F3F6F6"/>
<stop offset="0.7643" stop-color="#FCFDFD"/>
<stop offset="0.961" stop-color="white"/>
</linearGradient>
<linearGradient id="paint2_linear_1286_20548" x1="-nan" y1="-nan" x2="-nan" y2="-nan" gradientUnits="userSpaceOnUse">
<stop stop-color="#A8805F"/>
<stop offset="0.2455" stop-color="#804E03"/>
<stop offset="0.37" stop-color="#806D05"/>
<stop offset="0.4749" stop-color="#A8805F"/>
<stop offset="0.617" stop-color="#C0B284"/>
<stop offset="0.7375" stop-color="#BFB083"/>
<stop offset="0.7809" stop-color="#BCA97E"/>
<stop offset="0.8118" stop-color="#B69E75"/>
<stop offset="0.8367" stop-color="#AE8D68"/>
<stop offset="0.8501" stop-color="#A8805F"/>
<stop offset="1" stop-color="#804E03"/>
</linearGradient>
<linearGradient id="paint3_linear_1286_20548" x1="7.85665" y1="37.6332" x2="69.1162" y2="37.6332" gradientUnits="userSpaceOnUse">
<stop stop-color="#A8805F"/>
<stop offset="0.2455" stop-color="#804E03"/>
<stop offset="0.37" stop-color="#806D05"/>
<stop offset="0.4749" stop-color="#A8805F"/>
<stop offset="0.617" stop-color="#C0B284"/>
<stop offset="0.7375" stop-color="#BFB083"/>
<stop offset="0.7809" stop-color="#BCA97E"/>
<stop offset="0.8118" stop-color="#B69E75"/>
<stop offset="0.8367" stop-color="#AE8D68"/>
<stop offset="0.8501" stop-color="#A8805F"/>
<stop offset="1" stop-color="#804E03"/>
</linearGradient>
<linearGradient id="paint4_linear_1286_20548" x1="3.01768" y1="37.6333" x2="73.9552" y2="37.6333" gradientUnits="userSpaceOnUse">
<stop stop-color="#A8805F"/>
<stop offset="0.2455" stop-color="#804E03"/>
<stop offset="0.37" stop-color="#806D05"/>
<stop offset="0.4749" stop-color="#A8805F"/>
<stop offset="0.617" stop-color="#C0B284"/>
<stop offset="0.7375" stop-color="#BFB083"/>
<stop offset="0.7809" stop-color="#BCA97E"/>
<stop offset="0.8118" stop-color="#B69E75"/>
<stop offset="0.8367" stop-color="#AE8D68"/>
<stop offset="0.8501" stop-color="#A8805F"/>
<stop offset="1" stop-color="#804E03"/>
</linearGradient>
<linearGradient id="paint5_linear_1286_20548" x1="-0.300668" y1="19.7057" x2="77.2728" y2="19.7057" gradientUnits="userSpaceOnUse">
<stop stop-color="#A8805F"/>
<stop offset="0.2455" stop-color="#804E03"/>
<stop offset="0.37" stop-color="#806D05"/>
<stop offset="0.4749" stop-color="#A8805F"/>
<stop offset="0.617" stop-color="#C0B284"/>
<stop offset="0.7375" stop-color="#BFB083"/>
<stop offset="0.7809" stop-color="#BCA97E"/>
<stop offset="0.8118" stop-color="#B69E75"/>
<stop offset="0.8367" stop-color="#AE8D68"/>
<stop offset="0.8501" stop-color="#A8805F"/>
<stop offset="1" stop-color="#804E03"/>
</linearGradient>
<clipPath id="clip0_1286_20548">
<rect width="77" height="67.7315" fill="white" transform="translate(0 0.398193)"/>
</clipPath>
</defs>
</svg>
