<svg width="266" height="69" viewBox="0 0 266 69" fill="none" xmlns="http://www.w3.org/2000/svg">
<g clip-path="url(#clip0_1286_20552)">
<path d="M38.4691 67.514C55.0355 67.514 68.4651 54.1437 68.4651 37.6505C68.4651 21.1574 55.0355 7.78711 38.4691 7.78711C21.9028 7.78711 8.47314 21.1574 8.47314 37.6505C8.47314 54.1437 21.9028 67.514 38.4691 67.514Z" fill="url(#paint0_linear_1286_20552)"/>
<path d="M38.4691 7.72559C21.894 7.72559 8.47314 21.0872 8.47314 37.589H68.527C68.527 21.1487 55.0442 7.72559 38.4691 7.72559Z" fill="url(#paint1_linear_1286_20552)"/>
<path d="M8.47314 37.6509H68.527" stroke="url(#paint2_linear_1286_20552)" stroke-width="0.202054" stroke-miterlimit="10"/>
<path d="M38.4691 67.514C55.0355 67.514 68.4651 54.1437 68.4651 37.6505C68.4651 21.1574 55.0355 7.78711 38.4691 7.78711C21.9028 7.78711 8.47314 21.1574 8.47314 37.6505C8.47314 54.1437 21.9028 67.514 38.4691 67.514Z" stroke="url(#paint3_linear_1286_20552)" stroke-width="0.696422" stroke-miterlimit="10"/>
<path d="M38.4692 61.4185C57.8706 61.4185 73.5985 50.7774 73.5985 37.6509C73.5985 24.5244 57.8706 13.8833 38.4692 13.8833C19.0678 13.8833 3.33984 24.5244 3.33984 37.6509C3.33984 50.7774 19.0678 61.4185 38.4692 61.4185Z" stroke="url(#paint4_linear_1286_20552)" stroke-width="0.356874" stroke-miterlimit="10"/>
<path d="M-0.000274732 39.0054C-0.0621221 34.0179 0.865589 28.9688 2.78286 24.2892C4.70013 19.6095 7.54511 15.3609 11.1323 11.7281C14.6576 8.15677 18.9869 5.32436 23.6254 3.35399C28.3258 1.38362 33.3973 0.398438 38.4688 0.398438C43.5403 0.398438 48.6118 1.38362 53.3122 3.35399C58.0126 5.32436 62.28 8.15677 65.8672 11.7281C69.4543 15.2994 72.2993 19.6095 74.2166 24.2892C76.1339 28.9688 77.0616 34.0179 76.9997 39.0054C76.9379 28.9688 72.7323 19.0554 65.558 12.0975C61.9708 8.58779 57.7652 5.75538 53.1266 3.84659C48.4881 1.93779 43.4784 1.01418 38.4688 1.01418C33.4592 1.01418 28.4495 1.99936 23.8728 3.90816C19.2343 5.75538 15.0286 8.58779 11.4415 12.0975C4.2672 19.0554 0.0615727 28.9688 -0.000274732 39.0054Z" fill="url(#paint5_linear_1286_20552)"/>
</g>
<path d="M28.4076 24.001C28.4076 27.4194 30.7667 30.1798 34.2333 30.1798V29.907C31.8902 29.907 29.2261 28.27 29.2261 24.001C29.2261 19.7481 31.8902 18.1271 34.2333 18.1271C36.5764 18.1271 39.2405 19.7481 39.2405 24.001C39.2405 29.4897 33.3025 31.3353 30.1248 32.6192L30.205 32.8599C32.4198 32.1698 33.3506 32.0094 34.7147 32.0094C36.2394 32.0094 37.2344 33.55 38.5183 33.55C39.08 33.55 39.8343 33.2933 40.4442 32.2822L40.2837 32.1859C39.7541 32.7476 39.3368 32.9241 38.7911 32.9241C38.0048 32.9241 36.5283 31.3514 35.0839 31.3514C34.2333 31.3514 33.7197 31.4637 33.2383 31.6242C36.6888 30.4205 40.059 27.8046 40.059 24.001C40.059 20.5987 37.6998 17.8543 34.2333 17.8543C30.7667 17.8543 28.4076 20.5987 28.4076 24.001ZM41.4848 30.0835H49.6697L50.3277 27.0663L50.0388 27.0021C49.5574 29.0082 48.7549 29.4897 46.7328 29.4897H41.8379C41.8379 25.959 49.7821 24.4022 49.7821 21.0962C49.7821 18.9456 48.0488 17.9506 46.139 17.9506C43.9563 17.9506 42.5601 19.0259 41.6935 21.0159L42.4959 21.5295C43.1218 19.6357 43.9724 18.2395 46.139 18.2395C47.6636 18.2395 49.2204 19.0419 49.2204 20.8073C49.2204 24.0812 41.4848 24.659 41.4848 30.0835Z" fill="#00226D"/>
<path d="M34.2333 30.1798V30.5363H34.5898V30.1798H34.2333ZM34.2333 29.907H34.5898V29.5505H34.2333V29.907ZM30.1248 32.6192L29.9912 32.2887L29.6807 32.4142L29.7866 32.7319L30.1248 32.6192ZM30.205 32.8599L29.8668 32.9727L29.9774 33.3043L30.3111 33.2003L30.205 32.8599ZM40.4442 32.2822L40.7494 32.4663L40.934 32.1603L40.6276 31.9765L40.4442 32.2822ZM40.2837 32.1859L40.4671 31.8802L40.2211 31.7326L40.0243 31.9413L40.2837 32.1859ZM33.2383 31.6242L33.1208 31.2876L33.351 31.9624L33.2383 31.6242ZM28.0511 24.001C28.0511 27.586 30.5409 30.5363 34.2333 30.5363V29.8233C30.9926 29.8233 28.7641 27.2527 28.7641 24.001H28.0511ZM34.5898 30.1798V29.907H33.8768V30.1798H34.5898ZM34.2333 29.5505C33.1419 29.5505 31.9842 29.1692 31.1009 28.3007C30.2221 27.4365 29.5825 26.0581 29.5825 24.001H28.8696C28.8696 26.2129 29.5621 27.7874 30.6011 28.809C31.6356 29.8263 32.9816 30.2634 34.2333 30.2634V29.5505ZM29.5825 24.001C29.5825 21.9524 30.2218 20.5823 31.1001 19.7242C31.9831 18.8616 33.1409 18.4836 34.2333 18.4836V17.7707C32.9826 17.7707 31.6367 18.2032 30.6019 19.2142C29.5623 20.2298 28.8696 21.7967 28.8696 24.001H29.5825ZM34.2333 18.4836C35.3257 18.4836 36.4835 18.8616 37.3664 19.7242C38.2447 20.5823 38.884 21.9524 38.884 24.001H39.597C39.597 21.7967 38.9042 20.2298 37.8647 19.2142C36.8298 18.2032 35.484 17.7707 34.2333 17.7707V18.4836ZM38.884 24.001C38.884 26.5893 37.4942 28.3267 35.6708 29.5942C33.8314 30.8727 31.6059 31.6363 29.9912 32.2887L30.2583 32.9497C31.8214 32.3182 34.1537 31.517 36.0777 30.1796C38.0178 28.8311 39.597 26.9014 39.597 24.001H38.884ZM29.7866 32.7319L29.8668 32.9727L30.5432 32.7472L30.463 32.5065L29.7866 32.7319ZM30.3111 33.2003C32.5081 32.5157 33.4006 32.3658 34.7147 32.3658V31.6529C33.3006 31.6529 32.3314 31.824 30.099 32.5196L30.3111 33.2003ZM34.7147 32.3658C35.3589 32.3658 35.906 32.6891 36.5142 33.0797C37.0828 33.4448 37.7493 33.9065 38.5183 33.9065V33.1936C38.0034 33.1936 37.5304 32.8849 36.8994 32.4797C36.308 32.0999 35.5952 31.6529 34.7147 31.6529V32.3658ZM38.5183 33.9065C39.2067 33.9065 40.0759 33.5829 40.7494 32.4663L40.1389 32.0981C39.5927 33.0037 38.9534 33.1936 38.5183 33.1936V33.9065ZM40.6276 31.9765L40.4671 31.8802L40.1003 32.4916L40.2608 32.5879L40.6276 31.9765ZM40.0243 31.9413C39.7776 32.203 39.5754 32.3551 39.3894 32.4441C39.208 32.531 39.022 32.5677 38.7911 32.5677V33.2806C39.106 33.2806 39.4014 33.2289 39.6974 33.0872C39.9889 32.9476 40.2601 32.7305 40.5431 32.4304L40.0243 31.9413ZM38.7911 32.5677C38.6931 32.5677 38.5239 32.512 38.2533 32.3651C37.9916 32.223 37.7069 32.0379 37.3692 31.833C36.7281 31.444 35.9183 30.9949 35.0839 30.9949V31.7078C35.6939 31.7078 36.3445 32.0451 36.9993 32.4425C37.3096 32.6308 37.6317 32.8389 37.9131 32.9917C38.1857 33.1396 38.496 33.2806 38.7911 33.2806V32.5677ZM35.0839 30.9949C34.1945 30.9949 33.6429 31.1135 33.1255 31.286L33.351 31.9624C33.7965 31.8139 34.2721 31.7078 35.0839 31.7078V30.9949ZM33.3557 31.9608C36.8481 30.7425 40.4155 28.041 40.4155 24.001H39.7025C39.7025 27.5681 36.5294 30.0986 33.1208 31.2876L33.3557 31.9608ZM40.4155 24.001C40.4155 20.4301 37.9239 17.4978 34.2333 17.4978V18.2108C37.4757 18.2108 39.7025 20.7672 39.7025 24.001H40.4155ZM34.2333 17.4978C30.5427 17.4978 28.0511 20.4301 28.0511 24.001H28.7641C28.7641 20.7672 30.9908 18.2108 34.2333 18.2108V17.4978ZM41.4848 30.0835H41.1283V30.44H41.4848V30.0835ZM49.6697 30.0835V30.44H49.9568L50.018 30.1595L49.6697 30.0835ZM50.3277 27.0663L50.676 27.1423L50.7517 26.7954L50.405 26.7183L50.3277 27.0663ZM50.0388 27.0021L50.1162 26.6541L49.774 26.5781L49.6922 26.9189L50.0388 27.0021ZM41.8379 29.4897H41.4814V29.8462H41.8379V29.4897ZM41.6935 21.0159L41.3666 20.8736L41.2453 21.1523L41.5013 21.3162L41.6935 21.0159ZM42.4959 21.5295L42.3037 21.8297L42.6903 22.0772L42.8344 21.6414L42.4959 21.5295ZM41.4848 30.44H49.6697V29.727H41.4848V30.44ZM50.018 30.1595L50.676 27.1423L49.9794 26.9904L49.3214 30.0075L50.018 30.1595ZM50.405 26.7183L50.1162 26.6541L49.9615 27.3501L50.2504 27.4143L50.405 26.7183ZM49.6922 26.9189C49.4579 27.8952 49.1637 28.4137 48.7548 28.7093C48.3382 29.0103 47.7314 29.1332 46.7328 29.1332V29.8462C47.7563 29.8462 48.5618 29.7283 49.1724 29.2871C49.7906 28.8404 50.1383 28.1152 50.3855 27.0853L49.6922 26.9189ZM46.7328 29.1332H41.8379V29.8462H46.7328V29.1332ZM42.1944 29.4897C42.1944 28.7522 42.607 28.0809 43.3222 27.4144C44.0375 26.7478 44.9998 26.1367 45.9992 25.5108C46.9832 24.8946 48.006 24.2624 48.7784 23.5716C49.5484 22.883 50.1385 22.0763 50.1385 21.0962H49.4256C49.4256 21.7691 49.0227 22.3967 48.3032 23.0402C47.586 23.6815 46.6228 24.279 45.6208 24.9066C44.6341 25.5245 43.6104 26.1712 42.8361 26.8928C42.0618 27.6145 41.4814 28.4618 41.4814 29.4897H42.1944ZM50.1385 21.0962C50.1385 19.9129 49.6559 19.0211 48.8942 18.4345C48.1442 17.8569 47.1503 17.5941 46.139 17.5941V18.3071C47.0375 18.3071 47.8651 18.5418 48.4592 18.9994C49.0416 19.4479 49.4256 20.1289 49.4256 21.0962H50.1385ZM46.139 17.5941C44.9862 17.5941 44.0165 17.8792 43.2166 18.4462C42.4196 19.0111 41.8182 19.8367 41.3666 20.8736L42.0203 21.1583C42.4354 20.2051 42.9654 19.4981 43.6289 19.0278C44.2894 18.5596 45.1091 18.3071 46.139 18.3071V17.5941ZM41.5013 21.3162L42.3037 21.8297L42.6881 21.2292L41.8856 20.7157L41.5013 21.3162ZM42.8344 21.6414C43.1434 20.7063 43.4925 19.9472 43.997 19.4211C44.4857 18.9114 45.1441 18.596 46.139 18.596V17.883C44.9673 17.883 44.1171 18.2657 43.4824 18.9276C42.8635 19.573 42.4743 20.459 42.1574 21.4176L42.8344 21.6414ZM46.139 18.596C46.8451 18.596 47.5368 18.7828 48.0419 19.1498C48.5346 19.5078 48.8639 20.0451 48.8639 20.8073H49.5768C49.5768 19.8041 49.1277 19.0575 48.461 18.573C47.8064 18.0974 46.9575 17.883 46.139 17.883V18.596ZM48.8639 20.8073C48.8639 21.4658 48.4809 22.0248 47.7846 22.6003C47.082 23.1809 46.1523 23.7069 45.1611 24.3383C43.2283 25.5693 41.1283 27.1634 41.1283 30.0835H41.8413C41.8413 27.5791 43.6091 26.1721 45.5441 24.9396C46.4867 24.3392 47.4909 23.7679 48.2388 23.1499C48.9929 22.5267 49.5768 21.7857 49.5768 20.8073H48.8639Z" fill="#00226D"/>
<path d="M23.0809 52.3936H29.6295L30.156 49.9795L29.9248 49.9282C29.5396 51.5332 28.8976 51.9185 27.2797 51.9185H23.3634C23.3634 49.0936 29.7194 47.848 29.7194 45.2029C29.7194 43.4823 28.3326 42.6862 26.8046 42.6862C25.0583 42.6862 23.9412 43.5465 23.2478 45.1387L23.8898 45.5496C24.3906 44.0344 25.0711 42.9173 26.8046 42.9173C28.0245 42.9173 29.27 43.5593 29.27 44.9718C29.27 47.5912 23.0809 48.0535 23.0809 52.3936ZM30.9963 47.5655C30.9963 50.2749 31.9594 52.4706 34.5788 52.4706C37.1983 52.4706 38.1613 50.2749 38.1613 47.5655C38.1613 44.8562 37.1983 42.6733 34.5788 42.6733C31.9594 42.6733 30.9963 44.8562 30.9963 47.5655ZM34.5788 42.8916C36.2481 42.8916 37.5706 44.0087 37.5706 47.5655C37.5706 51.1223 36.2481 52.2523 34.5788 52.2523C32.9095 52.2523 31.587 51.1223 31.587 47.5655C31.587 44.0087 32.9095 42.8916 34.5788 42.8916ZM39.0562 52.3936H45.6049L46.1313 49.9795L45.9002 49.9282C45.515 51.5332 44.8729 51.9185 43.2551 51.9185H39.3387C39.3387 49.0936 45.6947 47.848 45.6947 45.2029C45.6947 43.4823 44.308 42.6862 42.78 42.6862C41.0337 42.6862 39.9165 43.5465 39.2231 45.1387L39.8652 45.5496C40.3659 44.0344 41.0465 42.9173 42.78 42.9173C43.9998 42.9173 45.2453 43.5593 45.2453 44.9718C45.2453 47.5912 39.0562 48.0535 39.0562 52.3936ZM50.4643 52.4706C52.1977 52.4706 53.8798 51.636 53.8798 49.6971C53.8798 47.0519 52.0051 46.885 49.8608 46.885L53.2763 43.2511V42.7632H47.8191L47.2927 45.1772L47.5238 45.2286C47.909 43.6364 48.5382 43.2383 50.1176 43.2383L52.904 43.2511L49.5269 46.8978L49.6682 47.1418C51.6713 47.1418 53.302 47.3344 53.302 49.7099C53.302 51.4305 52.095 52.2523 50.4643 52.2523C48.6794 52.2523 48.0631 51.1095 47.5495 49.6072L46.8433 50.0181C47.5623 51.6103 48.6923 52.4706 50.4643 52.4706Z" fill="#00226D"/>
<path d="M23.0809 52.3936H22.7244V52.75H23.0809V52.3936ZM29.6295 52.3936V52.75H29.9166L29.9778 52.4695L29.6295 52.3936ZM30.156 49.9795L30.5043 50.0555L30.5799 49.7086L30.2333 49.6316L30.156 49.9795ZM29.9248 49.9282L30.0022 49.5802L29.66 49.5042L29.5782 49.845L29.9248 49.9282ZM23.3634 51.9185H23.0069V52.2749H23.3634V51.9185ZM23.2478 45.1387L22.921 44.9964L22.7996 45.2751L23.0556 45.4389L23.2478 45.1387ZM23.8898 45.5496L23.6977 45.8498L24.0843 46.0973L24.2283 45.6615L23.8898 45.5496ZM23.0809 52.75H29.6295V52.0371H23.0809V52.75ZM29.9778 52.4695L30.5043 50.0555L29.8077 49.9036L29.2812 52.3176L29.9778 52.4695ZM30.2333 49.6316L30.0022 49.5802L29.8475 50.2762L30.0786 50.3275L30.2333 49.6316ZM29.5782 49.845C29.392 50.6207 29.162 51.015 28.8557 51.2363C28.5418 51.4631 28.0762 51.562 27.2797 51.562V52.2749C28.1011 52.2749 28.7655 52.1812 29.2733 51.8142C29.7889 51.4416 30.0724 50.8407 30.2715 50.0114L29.5782 49.845ZM27.2797 51.562H23.3634V52.2749H27.2797V51.562ZM23.7198 51.9185C23.7198 51.3574 24.0332 50.838 24.5995 50.3102C25.1659 49.7823 25.9297 49.2969 26.7306 48.7954C27.5161 48.3035 28.3404 47.7942 28.9639 47.2366C29.585 46.6811 30.0759 46.0178 30.0759 45.2029H29.3629C29.3629 45.7106 29.0593 46.1948 28.4886 46.7051C27.9204 47.2133 27.1557 47.6879 26.3522 48.1911C25.564 48.6847 24.7388 49.2057 24.1135 49.7886C23.488 50.3715 23.0069 51.067 23.0069 51.9185H23.7198ZM30.0759 45.2029C30.0759 44.2346 29.6799 43.5 29.0525 43.0169C28.4369 42.5427 27.625 42.3297 26.8046 42.3297V43.0426C27.5122 43.0426 28.1578 43.2277 28.6175 43.5817C29.0655 43.9268 29.3629 44.4506 29.3629 45.2029H30.0759ZM26.8046 42.3297C25.87 42.3297 25.0791 42.561 24.4252 43.0245C23.7742 43.486 23.2859 44.1583 22.921 44.9964L23.5746 45.281C23.9031 44.5268 24.3201 43.9729 24.8375 43.6062C25.3521 43.2414 25.9929 43.0426 26.8046 43.0426V42.3297ZM23.0556 45.4389L23.6977 45.8498L24.082 45.2493L23.44 44.8384L23.0556 45.4389ZM24.2283 45.6615C24.4748 44.9156 24.75 44.321 25.1423 43.912C25.5186 43.5195 26.0263 43.2738 26.8046 43.2738V42.5608C25.8495 42.5608 25.1501 42.8737 24.6277 43.4185C24.121 43.9468 23.8056 44.6684 23.5514 45.4377L24.2283 45.6615ZM26.8046 43.2738C27.3584 43.2738 27.8961 43.4205 28.2852 43.7032C28.662 43.9771 28.9135 44.386 28.9135 44.9718H29.6265C29.6265 44.1451 29.2552 43.5268 28.7043 43.1265C28.1657 42.7351 27.4707 42.5608 26.8046 42.5608V43.2738ZM28.9135 44.9718C28.9135 45.4667 28.6272 45.8958 28.0758 46.3514C27.5183 46.8122 26.7819 47.2285 25.9839 47.7368C24.4377 48.7216 22.7244 50.0157 22.7244 52.3936H23.4374C23.4374 50.4314 24.8186 49.3243 26.3669 48.3381C27.1163 47.8608 27.9271 47.3992 28.53 46.901C29.1391 46.3976 29.6265 45.7866 29.6265 44.9718H28.9135ZM30.6398 47.5655C30.6398 48.9527 30.8848 50.2573 31.505 51.2263C32.1401 52.2184 33.1501 52.8271 34.5788 52.8271V52.1141C33.3881 52.1141 32.6068 51.625 32.1055 50.8419C31.5894 50.0357 31.3528 48.8877 31.3528 47.5655H30.6398ZM34.5788 52.8271C36.0075 52.8271 37.0175 52.2184 37.6526 51.2263C38.2729 50.2573 38.5178 48.9527 38.5178 47.5655H37.8048C37.8048 48.8877 37.5682 50.0357 37.0521 50.8419C36.5508 51.625 35.7695 52.1141 34.5788 52.1141V52.8271ZM38.5178 47.5655C38.5178 46.1784 38.2729 44.8767 37.6523 43.9107C37.0168 42.9216 36.0067 42.3168 34.5788 42.3168V43.0298C35.7704 43.0298 36.5515 43.5165 37.0524 44.2961C37.5682 45.0989 37.8048 46.2434 37.8048 47.5655H38.5178ZM34.5788 42.3168C33.151 42.3168 32.1408 42.9216 31.5054 43.9107C30.8847 44.8767 30.6398 46.1784 30.6398 47.5655H31.3528C31.3528 46.2434 31.5894 45.0989 32.1052 44.2961C32.6061 43.5165 33.3872 43.0298 34.5788 43.0298V42.3168ZM34.5788 43.2481C35.3258 43.2481 35.9565 43.4925 36.4148 44.1077C36.8879 44.7428 37.2142 45.8209 37.2142 47.5655H37.9271C37.9271 45.7534 37.592 44.4945 36.9866 43.6818C36.3663 42.8493 35.501 42.5351 34.5788 42.5351V43.2481ZM37.2142 47.5655C37.2142 49.3101 36.888 50.3918 36.4144 51.0304C35.9554 51.6491 35.3246 51.8958 34.5788 51.8958V52.6088C35.5023 52.6088 36.3674 52.2905 36.987 51.4551C37.592 50.6394 37.9271 49.3778 37.9271 47.5655H37.2142ZM34.5788 51.8958C33.833 51.8958 33.2022 51.6491 32.7432 51.0304C32.2696 50.3918 31.9435 49.3101 31.9435 47.5655H31.2305C31.2305 49.3778 31.5656 50.6394 32.1706 51.4551C32.7903 52.2905 33.6553 52.6088 34.5788 52.6088V51.8958ZM31.9435 47.5655C31.9435 45.8209 32.2697 44.7428 32.7428 44.1077C33.2012 43.4925 33.8318 43.2481 34.5788 43.2481V42.5351C33.6566 42.5351 32.7913 42.8493 32.1711 43.6818C31.5656 44.4945 31.2305 45.7534 31.2305 47.5655H31.9435ZM39.0562 52.3936H38.6997V52.75H39.0562V52.3936ZM45.6049 52.3936V52.75H45.892L45.9532 52.4695L45.6049 52.3936ZM46.1313 49.9795L46.4796 50.0555L46.5553 49.7086L46.2086 49.6316L46.1313 49.9795ZM45.9002 49.9282L45.9775 49.5802L45.6353 49.5042L45.5535 49.845L45.9002 49.9282ZM39.3387 51.9185H38.9822V52.2749H39.3387V51.9185ZM39.2231 45.1387L38.8963 44.9964L38.7749 45.2751L39.031 45.4389L39.2231 45.1387ZM39.8652 45.5496L39.673 45.8498L40.0596 46.0973L40.2036 45.6615L39.8652 45.5496ZM39.0562 52.75H45.6049V52.0371H39.0562V52.75ZM45.9532 52.4695L46.4796 50.0555L45.783 49.9036L45.2566 52.3176L45.9532 52.4695ZM46.2086 49.6316L45.9775 49.5802L45.8229 50.2762L46.054 50.3275L46.2086 49.6316ZM45.5535 49.845C45.3674 50.6207 45.1373 51.015 44.8311 51.2363C44.5172 51.4631 44.0515 51.562 43.2551 51.562V52.2749C44.0765 52.2749 44.7408 52.1812 45.2487 51.8142C45.7642 51.4416 46.0478 50.8407 46.2468 50.0114L45.5535 49.845ZM43.2551 51.562H39.3387V52.2749H43.2551V51.562ZM39.6952 51.9185C39.6952 51.3574 40.0086 50.838 40.5749 50.3102C41.1413 49.7823 41.9051 49.2969 42.7059 48.7954C43.4914 48.3035 44.3157 47.7942 44.9392 47.2366C45.5604 46.6811 46.0512 46.0178 46.0512 45.2029H45.3383C45.3383 45.7106 45.0346 46.1948 44.464 46.7051C43.8958 47.2133 43.1311 47.6879 42.3275 48.1911C41.5394 48.6847 40.7142 49.2057 40.0888 49.7886C39.4634 50.3715 38.9822 51.067 38.9822 51.9185H39.6952ZM46.0512 45.2029C46.0512 44.2346 45.6552 43.5 45.0279 43.0169C44.4122 42.5427 43.6003 42.3297 42.78 42.3297V43.0426C43.4876 43.0426 44.1331 43.2277 44.5928 43.5817C45.0409 43.9268 45.3383 44.4506 45.3383 45.2029H46.0512ZM42.78 42.3297C41.8454 42.3297 41.0545 42.561 40.4006 43.0245C39.7495 43.486 39.2613 44.1583 38.8963 44.9964L39.55 45.281C39.8784 44.5268 40.2954 43.9729 40.8128 43.6062C41.3274 43.2414 41.9682 43.0426 42.78 43.0426V42.3297ZM39.031 45.4389L39.673 45.8498L40.0573 45.2493L39.4153 44.8384L39.031 45.4389ZM40.2036 45.6615C40.4501 44.9156 40.7254 44.321 41.1176 43.912C41.494 43.5195 42.0016 43.2738 42.78 43.2738V42.5608C41.8248 42.5608 41.1255 42.8737 40.603 43.4185C40.0964 43.9468 39.781 44.6684 39.5267 45.4377L40.2036 45.6615ZM42.78 43.2738C43.3337 43.2738 43.8714 43.4205 44.2605 43.7032C44.6374 43.9771 44.8888 44.386 44.8888 44.9718H45.6018C45.6018 44.1451 45.2305 43.5268 44.6796 43.1265C44.141 42.7351 43.446 42.5608 42.78 42.5608V43.2738ZM44.8888 44.9718C44.8888 45.4667 44.6025 45.8958 44.0512 46.3514C43.4936 46.8122 42.7572 47.2285 41.9593 47.7368C40.4131 48.7216 38.6997 50.0157 38.6997 52.3936H39.4127C39.4127 50.4314 40.7939 49.3243 42.3423 48.3381C43.0916 47.8608 43.9025 47.3992 44.5054 46.901C45.1145 46.3976 45.6018 45.7866 45.6018 44.9718H44.8888ZM49.8608 46.885L49.601 46.6408L49.0365 47.2415H49.8608V46.885ZM53.2763 43.2511L53.5361 43.4953L53.6328 43.3924V43.2511H53.2763ZM53.2763 42.7632H53.6328V42.4067H53.2763V42.7632ZM47.8191 42.7632V42.4067H47.532L47.4708 42.6872L47.8191 42.7632ZM47.2927 45.1772L46.9444 45.1013L46.8687 45.4482L47.2153 45.5252L47.2927 45.1772ZM47.5238 45.2286L47.4465 45.5766L47.788 45.6525L47.8703 45.3124L47.5238 45.2286ZM50.1176 43.2383L50.1192 42.8818H50.1176V43.2383ZM52.904 43.2511L53.1655 43.4934L53.7165 42.8984L52.9056 42.8947L52.904 43.2511ZM49.5269 46.8978L49.2654 46.6556L49.0866 46.8487L49.2184 47.0764L49.5269 46.8978ZM49.6682 47.1418L49.3596 47.3204L49.4626 47.4983H49.6682V47.1418ZM47.5495 49.6072L47.8868 49.4919L47.7461 49.0803L47.3702 49.2991L47.5495 49.6072ZM46.8433 50.0181L46.664 49.7099L46.386 49.8717L46.5184 50.1648L46.8433 50.0181ZM50.4643 52.8271C51.3814 52.8271 52.314 52.6073 53.028 52.1019C53.7565 51.5863 54.2363 50.786 54.2363 49.6971H53.5233C53.5233 50.547 53.1621 51.1335 52.6161 51.5199C52.0558 51.9166 51.2806 52.1141 50.4643 52.1141V52.8271ZM54.2363 49.6971C54.2363 48.9953 54.1121 48.4263 53.8671 47.9724C53.6195 47.5137 53.261 47.1962 52.8352 46.981C52.0107 46.5642 50.9191 46.5285 49.8608 46.5285V47.2415C50.9468 47.2415 51.8648 47.2893 52.5136 47.6173C52.8246 47.7744 53.0688 47.9946 53.2397 48.3111C53.4132 48.6324 53.5233 49.0762 53.5233 49.6971H54.2363ZM50.1205 47.1291L53.5361 43.4953L53.0166 43.007L49.601 46.6408L50.1205 47.1291ZM53.6328 43.2511V42.7632H52.9198V43.2511H53.6328ZM53.2763 42.4067H47.8191V43.1197H53.2763V42.4067ZM47.4708 42.6872L46.9444 45.1013L47.641 45.2532L48.1674 42.8392L47.4708 42.6872ZM47.2153 45.5252L47.4465 45.5766L47.6011 44.8806L47.37 44.8292L47.2153 45.5252ZM47.8703 45.3124C48.0567 44.5418 48.2842 44.1458 48.5851 43.9228C48.891 43.6961 49.3432 43.5948 50.1176 43.5948V42.8818C49.3126 42.8818 48.6605 42.9795 48.1606 43.3499C47.6558 43.724 47.3761 44.3231 47.1773 45.1447L47.8703 45.3124ZM50.1159 43.5948L52.9023 43.6076L52.9056 42.8947L50.1192 42.8818L50.1159 43.5948ZM52.6424 43.0089L49.2654 46.6556L49.7885 47.1401L53.1655 43.4934L52.6424 43.0089ZM49.2184 47.0764L49.3596 47.3204L49.9767 46.9632L49.8354 46.7192L49.2184 47.0764ZM49.6682 47.4983C50.6815 47.4983 51.5019 47.5525 52.0707 47.8508C52.3418 47.9929 52.5526 48.1899 52.7 48.4717C52.8501 48.7586 52.9455 49.155 52.9455 49.7099H53.6585C53.6585 49.077 53.5501 48.5586 53.3318 48.1412C53.1108 47.7188 52.7888 47.4223 52.4018 47.2193C51.6545 46.8275 50.6579 46.7853 49.6682 46.7853V47.4983ZM52.9455 49.7099C52.9455 50.4797 52.6797 51.0088 52.2667 51.3523C51.844 51.7039 51.2247 51.8958 50.4643 51.8958V52.6088C51.3346 52.6088 52.1342 52.3899 52.7226 51.9004C53.3208 51.4029 53.6585 50.6607 53.6585 49.7099H52.9455ZM50.4643 51.8958C49.6606 51.8958 49.1583 51.6441 48.7909 51.25C48.4052 50.8362 48.1422 50.2388 47.8868 49.4919L47.2122 49.7225C47.4704 50.4778 47.7724 51.203 48.2694 51.7362C48.7849 52.2891 49.4831 52.6088 50.4643 52.6088V51.8958ZM47.3702 49.2991L46.664 49.7099L47.0225 50.3262L47.7288 49.9153L47.3702 49.2991ZM46.5184 50.1648C46.8965 51.0021 47.3947 51.6734 48.055 52.1338C48.7181 52.5962 49.5178 52.8271 50.4643 52.8271V52.1141C49.6388 52.1141 48.9874 51.9148 48.4628 51.549C47.9354 51.1812 47.5091 50.6263 47.1681 49.8713L46.5184 50.1648Z" fill="#00226D"/>
<path d="M94.6254 32.0401H96.8025V33.4529H94.6254V32.0401ZM102.406 26.8751H107.733V28.4964H104.085V30.4304H107.247V32.0516H104.085V35.3984H102.406V26.8751ZM109.083 30.3377H110.705V35.3984H109.083V30.3377ZM109.049 28.5427C109.049 28.3034 109.141 28.1065 109.327 27.9521C109.52 27.7977 109.724 27.7205 109.94 27.7205C110.156 27.7205 110.353 27.7977 110.531 27.9521C110.716 28.1065 110.809 28.3034 110.809 28.5427C110.809 28.7821 110.716 28.9789 110.531 29.1333C110.353 29.28 110.156 29.3534 109.94 29.3534C109.724 29.3534 109.52 29.28 109.327 29.1333C109.141 28.9789 109.049 28.7821 109.049 28.5427ZM113.833 30.3377L113.984 31.7274L113.949 31.5189C114.096 31.2178 114.297 30.9631 114.551 30.7546C114.806 30.5384 115.057 30.3725 115.304 30.2567C115.559 30.1408 115.752 30.0829 115.883 30.0829L115.802 31.7042C115.424 31.6579 115.1 31.7197 114.829 31.8895C114.559 32.0594 114.351 32.2833 114.204 32.5612C114.057 32.8391 113.984 33.1248 113.984 33.4182V35.3984H112.374V30.3377H113.833ZM118.769 35.5027C118.352 35.5027 117.962 35.4293 117.599 35.2826C117.244 35.1359 116.943 34.9314 116.696 34.6689L117.367 33.7772C117.614 34.001 117.842 34.1632 118.051 34.2635C118.267 34.3562 118.46 34.4025 118.63 34.4025C118.761 34.4025 118.877 34.3909 118.977 34.3678C119.085 34.3369 119.17 34.2944 119.232 34.2404C119.294 34.1786 119.325 34.1014 119.325 34.0088C119.325 33.8775 119.27 33.7733 119.162 33.6961C119.062 33.6189 118.931 33.5571 118.769 33.5108C118.607 33.4568 118.433 33.4027 118.248 33.3487C117.784 33.202 117.448 32.9897 117.24 32.7117C117.039 32.4261 116.939 32.1173 116.939 31.7853C116.939 31.5305 117.005 31.2757 117.136 31.021C117.275 30.7585 117.491 30.5423 117.784 30.3725C118.085 30.1949 118.471 30.1061 118.942 30.1061C119.367 30.1061 119.726 30.1486 120.019 30.2335C120.313 30.3184 120.591 30.4574 120.853 30.6504L120.239 31.6C120.093 31.4842 119.927 31.3877 119.741 31.3105C119.564 31.2256 119.398 31.1792 119.243 31.1715C119.104 31.1638 118.985 31.1792 118.884 31.2178C118.792 31.2564 118.718 31.3066 118.664 31.3684C118.61 31.4302 118.583 31.4958 118.583 31.5653C118.576 31.7119 118.63 31.8278 118.745 31.9127C118.869 31.9976 119.023 32.0632 119.209 32.1095C119.394 32.1559 119.575 32.2099 119.753 32.2717C120 32.3489 120.212 32.4531 120.39 32.5844C120.567 32.7156 120.703 32.8739 120.795 33.0592C120.896 33.2367 120.946 33.4529 120.946 33.7077C120.946 34.0165 120.865 34.3099 120.703 34.5878C120.548 34.858 120.309 35.078 119.985 35.2479C119.668 35.4177 119.263 35.5027 118.769 35.5027ZM122.779 28.1142H124.4V30.3146H125.627V31.5768H124.4V35.3984H122.779V31.5768H121.991V30.3146H122.779V28.1142ZM130.894 26.8751H136.707V28.4964H132.573V30.3146H136.232V31.9358H132.573V33.7772H136.869V35.3984H130.894V26.8751ZM138.132 32.0401H140.309V33.4529H138.132V32.0401ZM143.524 35.5027C143.108 35.5027 142.718 35.4293 142.355 35.2826C142 35.1359 141.699 34.9314 141.451 34.6689L142.123 33.7772C142.37 34.001 142.598 34.1632 142.806 34.2635C143.023 34.3562 143.216 34.4025 143.385 34.4025C143.517 34.4025 143.633 34.3909 143.733 34.3678C143.841 34.3369 143.926 34.2944 143.988 34.2404C144.049 34.1786 144.08 34.1014 144.08 34.0088C144.08 33.8775 144.026 33.7733 143.918 33.6961C143.818 33.6189 143.687 33.5571 143.524 33.5108C143.362 33.4568 143.189 33.4027 143.003 33.3487C142.54 33.202 142.204 32.9897 141.996 32.7117C141.795 32.4261 141.695 32.1173 141.695 31.7853C141.695 31.5305 141.76 31.2757 141.892 31.021C142.031 30.7585 142.247 30.5423 142.54 30.3725C142.841 30.1949 143.227 30.1061 143.698 30.1061C144.123 30.1061 144.482 30.1486 144.775 30.2335C145.068 30.3184 145.346 30.4574 145.609 30.6504L144.995 31.6C144.848 31.4842 144.682 31.3877 144.497 31.3105C144.32 31.2256 144.154 31.1792 143.999 31.1715C143.86 31.1638 143.741 31.1792 143.64 31.2178C143.548 31.2564 143.474 31.3066 143.42 31.3684C143.366 31.4302 143.339 31.4958 143.339 31.5653C143.331 31.7119 143.385 31.8278 143.501 31.9127C143.625 31.9976 143.779 32.0632 143.964 32.1095C144.15 32.1559 144.331 32.2099 144.509 32.2717C144.756 32.3489 144.968 32.4531 145.146 32.5844C145.323 32.7156 145.458 32.8739 145.551 33.0592C145.651 33.2367 145.702 33.4529 145.702 33.7077C145.702 34.0165 145.621 34.3099 145.458 34.5878C145.304 34.858 145.065 35.078 144.74 35.2479C144.424 35.4177 144.019 35.5027 143.524 35.5027ZM150.233 35.5374C149.932 35.5374 149.634 35.4834 149.341 35.3753C149.055 35.2595 148.816 35.0973 148.623 34.8889L148.669 34.4141V37.8304H147.06V30.2219H148.449L148.681 31.2063L148.553 30.8588C148.816 30.635 149.109 30.4497 149.434 30.303C149.758 30.1563 150.132 30.0829 150.557 30.0829C151.028 30.0829 151.449 30.1949 151.819 30.4188C152.19 30.635 152.479 30.9515 152.688 31.3684C152.904 31.7776 153.012 32.2717 153.012 32.8507C153.012 33.422 152.892 33.9084 152.653 34.3099C152.414 34.7113 152.086 35.0163 151.669 35.2247C151.252 35.4332 150.773 35.5374 150.233 35.5374ZM149.908 34.2635C150.171 34.2635 150.41 34.2056 150.626 34.0898C150.85 33.974 151.028 33.8119 151.159 33.6034C151.298 33.3873 151.368 33.1441 151.368 32.8739C151.368 32.5882 151.306 32.3412 151.182 32.1327C151.066 31.9165 150.904 31.7505 150.696 31.6347C150.495 31.5112 150.271 31.4495 150.024 31.4495C149.808 31.4495 149.615 31.4803 149.445 31.5421C149.283 31.5961 149.136 31.6811 149.005 31.7969C148.882 31.905 148.774 32.0439 148.681 32.2138V33.4529C148.743 33.615 148.831 33.7579 148.947 33.8814C149.063 34.0049 149.202 34.1014 149.364 34.1709C149.534 34.2327 149.715 34.2635 149.908 34.2635ZM153.892 32.8044C153.892 32.2871 154.012 31.8239 154.251 31.4147C154.498 31.0055 154.842 30.6851 155.282 30.4535C155.722 30.2142 156.228 30.0945 156.799 30.0945C157.378 30.0945 157.88 30.2142 158.305 30.4535C158.729 30.6851 159.053 31.0055 159.277 31.4147C159.509 31.8239 159.625 32.2871 159.625 32.8044C159.625 33.3217 159.509 33.7887 159.277 34.2056C159.053 34.6148 158.729 34.9391 158.305 35.1784C157.88 35.4177 157.37 35.5374 156.776 35.5374C156.22 35.5374 155.722 35.4293 155.282 35.2131C154.85 34.997 154.51 34.6843 154.263 34.2751C154.016 33.8659 153.892 33.3757 153.892 32.8044ZM155.525 32.816C155.525 33.0785 155.579 33.3178 155.687 33.534C155.795 33.7424 155.942 33.9084 156.127 34.0319C156.313 34.1555 156.521 34.2172 156.753 34.2172C157.008 34.2172 157.228 34.1555 157.413 34.0319C157.598 33.9084 157.741 33.7424 157.841 33.534C157.942 33.3178 157.992 33.0785 157.992 32.816C157.992 32.5458 157.942 32.3064 157.841 32.098C157.741 31.8895 157.598 31.7235 157.413 31.6C157.228 31.4765 157.008 31.4147 156.753 31.4147C156.521 31.4147 156.313 31.4765 156.127 31.6C155.942 31.7235 155.795 31.8895 155.687 32.098C155.579 32.3064 155.525 32.5458 155.525 32.816ZM162.361 30.3377L162.512 31.7274L162.477 31.5189C162.624 31.2178 162.824 30.9631 163.079 30.7546C163.334 30.5384 163.585 30.3725 163.832 30.2567C164.087 30.1408 164.28 30.0829 164.411 30.0829L164.33 31.7042C163.952 31.6579 163.627 31.7197 163.357 31.8895C163.087 32.0594 162.878 32.2833 162.732 32.5612C162.585 32.8391 162.512 33.1248 162.512 33.4182V35.3984H160.902V30.3377H162.361ZM166.127 28.1142H167.748V30.3146H168.975V31.5768H167.748V35.3984H166.127V31.5768H165.339V30.3146H166.127V28.1142ZM174.242 35.3984V26.8751H176.789C177.646 26.8751 178.376 27.0025 178.978 27.2573C179.58 27.5121 180.063 27.8517 180.426 28.2764C180.796 28.701 181.067 29.1758 181.236 29.7008C181.406 30.2258 181.491 30.7546 181.491 31.2873C181.491 31.9204 181.375 32.4917 181.144 33.0013C180.92 33.5031 180.611 33.9354 180.217 34.2983C179.824 34.6534 179.368 34.9275 178.851 35.1205C178.334 35.3058 177.785 35.3984 177.206 35.3984H174.242ZM175.921 33.7772H176.917C177.342 33.7772 177.728 33.7231 178.075 33.615C178.422 33.4992 178.72 33.3332 178.967 33.1171C179.221 32.9009 179.414 32.6307 179.546 32.3064C179.685 31.9744 179.754 31.5961 179.754 31.1715C179.754 30.6157 179.661 30.164 179.476 29.8166C179.299 29.4615 179.075 29.1874 178.805 28.9944C178.542 28.8014 178.272 28.6701 177.994 28.6006C177.716 28.5234 177.48 28.4848 177.287 28.4848H175.921V33.7772ZM185.399 35.5374C184.782 35.5374 184.257 35.4216 183.825 35.19C183.4 34.9584 183.076 34.638 182.852 34.2288C182.628 33.8196 182.516 33.3487 182.516 32.816C182.516 32.3064 182.647 31.8471 182.91 31.4379C183.172 31.0287 183.523 30.7044 183.963 30.4651C184.404 30.2181 184.894 30.0945 185.434 30.0945C186.16 30.0945 186.754 30.3068 187.218 30.7315C187.689 31.1484 187.994 31.7544 188.133 32.5496L184.195 33.8003L183.836 32.9202L186.685 31.959L186.349 32.1095C186.287 31.9088 186.175 31.7351 186.013 31.5884C185.859 31.434 185.623 31.3568 185.307 31.3568C185.068 31.3568 184.855 31.4147 184.67 31.5305C184.492 31.6386 184.353 31.7969 184.253 32.0053C184.16 32.2061 184.114 32.4454 184.114 32.7233C184.114 33.0399 184.172 33.3062 184.288 33.5224C184.404 33.7308 184.562 33.8891 184.763 33.9972C184.963 34.1053 185.187 34.1593 185.434 34.1593C185.612 34.1593 185.782 34.1284 185.944 34.0667C186.114 34.0049 186.28 33.9238 186.442 33.8235L187.16 35.0279C186.89 35.1823 186.596 35.3058 186.28 35.3984C185.971 35.4911 185.677 35.5374 185.399 35.5374ZM189.797 35.3984V31.7505H188.94V30.3146H189.797V28.5543C189.797 27.8904 189.986 27.3499 190.364 26.933C190.751 26.5084 191.306 26.2961 192.032 26.2961C192.248 26.2961 192.488 26.3308 192.75 26.4003C193.02 26.4621 193.256 26.5663 193.457 26.713L192.773 27.8826C192.696 27.7823 192.603 27.7166 192.495 27.6858C192.395 27.6472 192.298 27.6279 192.206 27.6279C191.974 27.6279 191.785 27.7051 191.638 27.8595C191.492 28.0139 191.418 28.2609 191.418 28.6006V30.3146H192.715V31.7505H191.418V35.3984H189.797ZM193.364 30.3377H194.985V35.3984H193.364V30.3377ZM193.329 28.5427C193.329 28.3034 193.422 28.1065 193.607 27.9521C193.8 27.7977 194.005 27.7205 194.221 27.7205C194.437 27.7205 194.634 27.7977 194.811 27.9521C194.997 28.1065 195.089 28.3034 195.089 28.5427C195.089 28.7821 194.997 28.9789 194.811 29.1333C194.634 29.28 194.437 29.3534 194.221 29.3534C194.005 29.3534 193.8 29.28 193.607 29.1333C193.422 28.9789 193.329 28.7821 193.329 28.5427ZM200.104 26.8751H205.848V28.4964H203.775V35.3984H202.095V28.4964H200.104V26.8751ZM205.643 32.8044C205.643 32.2871 205.763 31.8239 206.002 31.4147C206.249 31.0055 206.593 30.6851 207.033 30.4535C207.473 30.2142 207.979 30.0945 208.55 30.0945C209.129 30.0945 209.631 30.2142 210.055 30.4535C210.48 30.6851 210.804 31.0055 211.028 31.4147C211.26 31.8239 211.376 32.2871 211.376 32.8044C211.376 33.3217 211.26 33.7887 211.028 34.2056C210.804 34.6148 210.48 34.9391 210.055 35.1784C209.631 35.4177 209.121 35.5374 208.527 35.5374C207.971 35.5374 207.473 35.4293 207.033 35.2131C206.601 34.997 206.261 34.6843 206.014 34.2751C205.767 33.8659 205.643 33.3757 205.643 32.8044ZM207.276 32.816C207.276 33.0785 207.33 33.3178 207.438 33.534C207.546 33.7424 207.693 33.9084 207.878 34.0319C208.064 34.1555 208.272 34.2172 208.504 34.2172C208.758 34.2172 208.978 34.1555 209.164 34.0319C209.349 33.9084 209.492 33.7424 209.592 33.534C209.693 33.3178 209.743 33.0785 209.743 32.816C209.743 32.5458 209.693 32.3064 209.592 32.098C209.492 31.8895 209.349 31.7235 209.164 31.6C208.978 31.4765 208.758 31.4147 208.504 31.4147C208.272 31.4147 208.064 31.4765 207.878 31.6C207.693 31.7235 207.546 31.8895 207.438 32.098C207.33 32.3064 207.276 32.5458 207.276 32.816ZM214.286 35.6416C213.83 35.6416 213.448 35.5027 213.139 35.2247C212.83 34.9391 212.668 34.5724 212.653 34.1246V30.3377H214.274V33.5224C214.29 33.7463 214.347 33.9277 214.448 34.0667C214.548 34.1979 214.718 34.2635 214.957 34.2635C215.197 34.2635 215.401 34.1825 215.571 34.0203C215.749 33.8582 215.884 33.6382 215.976 33.3603C216.077 33.0746 216.127 32.7542 216.127 32.3991V30.3377H217.748V35.3984H216.278L216.15 34.472L216.173 34.5762C216.057 34.7847 215.911 34.97 215.733 35.1321C215.556 35.2942 215.343 35.4177 215.096 35.5027C214.857 35.5953 214.587 35.6416 214.286 35.6416ZM220.875 30.3377L221.025 31.7274L220.991 31.5189C221.137 31.2178 221.338 30.9631 221.593 30.7546C221.848 30.5384 222.099 30.3725 222.346 30.2567C222.6 30.1408 222.793 30.0829 222.925 30.0829L222.844 31.7042C222.465 31.6579 222.141 31.7197 221.871 31.8895C221.601 32.0594 221.392 32.2833 221.245 32.5612C221.099 32.8391 221.025 33.1248 221.025 33.4182V35.3984H219.416V30.3377H220.875ZM225.636 30.3377L225.764 31.241L225.74 31.1599C225.918 30.8434 226.169 30.5886 226.493 30.3956C226.817 30.1949 227.215 30.0945 227.686 30.0945C228.165 30.0945 228.562 30.2374 228.879 30.523C229.203 30.8009 229.369 31.1638 229.377 31.6116V35.3984H227.756V32.2138C227.748 31.9899 227.686 31.8123 227.57 31.6811C227.462 31.5421 227.277 31.4726 227.014 31.4726C226.767 31.4726 226.551 31.5537 226.366 31.7158C226.181 31.8779 226.038 32.098 225.937 32.3759C225.837 32.6538 225.787 32.9742 225.787 33.3371V35.3984H224.166V30.3377H225.636ZM233.172 35.5374C232.701 35.5374 232.273 35.4448 231.887 35.2595C231.509 35.0665 231.208 34.7731 230.984 34.3793C230.76 33.9856 230.648 33.4838 230.648 32.8739C230.648 32.3026 230.764 31.8085 230.995 31.3916C231.227 30.9746 231.532 30.6543 231.91 30.4304C232.288 30.1987 232.69 30.0829 233.114 30.0829C233.616 30.0829 233.995 30.1679 234.249 30.3377C234.512 30.4998 234.728 30.6813 234.898 30.882L234.828 31.0789L234.979 30.3377H236.484V35.3984H234.863V34.2983L234.991 34.6457C234.975 34.6457 234.929 34.692 234.852 34.7847C234.774 34.8696 234.659 34.9738 234.504 35.0973C234.357 35.2131 234.172 35.3135 233.948 35.3984C233.732 35.4911 233.473 35.5374 233.172 35.5374ZM233.636 34.2172C233.829 34.2172 234.002 34.1902 234.157 34.1362C234.311 34.0744 234.446 33.9895 234.562 33.8814C234.678 33.7656 234.778 33.6227 234.863 33.4529V32.2138C234.801 32.0439 234.709 31.9011 234.585 31.7853C234.462 31.6618 234.315 31.5691 234.145 31.5074C233.975 31.4379 233.786 31.4031 233.578 31.4031C233.346 31.4031 233.13 31.4649 232.929 31.5884C232.736 31.7042 232.582 31.8664 232.466 32.0748C232.35 32.2833 232.292 32.5226 232.292 32.7928C232.292 33.063 232.354 33.3062 232.478 33.5224C232.601 33.7386 232.763 33.9084 232.964 34.0319C233.172 34.1555 233.396 34.2172 233.636 34.2172ZM239.626 30.3377L239.753 31.2294L239.73 31.1599C239.931 30.8202 240.182 30.5577 240.483 30.3725C240.784 30.1794 241.147 30.0829 241.571 30.0829C241.849 30.0829 242.092 30.1215 242.301 30.1987C242.517 30.276 242.698 30.3918 242.845 30.5462C242.992 30.6929 243.092 30.8859 243.146 31.1252L243.088 31.1368C243.304 30.8202 243.563 30.5655 243.864 30.3725C244.173 30.1794 244.493 30.0829 244.825 30.0829C245.327 30.0829 245.725 30.2258 246.018 30.5114C246.319 30.7894 246.474 31.1522 246.481 31.6V35.3984H244.872V32.2717C244.864 32.0478 244.829 31.8664 244.768 31.7274C244.706 31.5807 244.563 31.4996 244.339 31.4842C244.077 31.4842 243.853 31.5768 243.667 31.7621C243.49 31.9397 243.355 32.1713 243.262 32.457C243.177 32.7349 243.135 33.0244 243.135 33.3255V35.3984H241.513V32.2717C241.506 32.0478 241.463 31.8664 241.386 31.7274C241.316 31.5807 241.17 31.4996 240.946 31.4842C240.691 31.4842 240.475 31.5768 240.297 31.7621C240.128 31.9397 239.996 32.1675 239.904 32.4454C239.819 32.7233 239.776 33.009 239.776 33.3023V35.3984H238.155V30.3377H239.626ZM250.642 35.5374C250.024 35.5374 249.5 35.4216 249.067 35.19C248.643 34.9584 248.318 34.638 248.094 34.2288C247.871 33.8196 247.759 33.3487 247.759 32.816C247.759 32.3064 247.89 31.8471 248.152 31.4379C248.415 31.0287 248.766 30.7044 249.206 30.4651C249.646 30.2181 250.136 30.0945 250.677 30.0945C251.403 30.0945 251.997 30.3068 252.46 30.7315C252.931 31.1484 253.236 31.7544 253.375 32.5496L249.438 33.8003L249.079 32.9202L251.928 31.959L251.592 32.1095C251.53 31.9088 251.418 31.7351 251.256 31.5884C251.101 31.434 250.866 31.3568 250.549 31.3568C250.31 31.3568 250.098 31.4147 249.913 31.5305C249.735 31.6386 249.596 31.7969 249.496 32.0053C249.403 32.2061 249.357 32.4454 249.357 32.7233C249.357 33.0399 249.415 33.3062 249.53 33.5224C249.646 33.7308 249.804 33.8891 250.005 33.9972C250.206 34.1053 250.43 34.1593 250.677 34.1593C250.854 34.1593 251.024 34.1284 251.186 34.0667C251.356 34.0049 251.522 33.9238 251.684 33.8235L252.402 35.0279C252.132 35.1823 251.839 35.3058 251.522 35.3984C251.213 35.4911 250.92 35.5374 250.642 35.5374ZM256.024 30.3377L256.151 31.241L256.128 31.1599C256.306 30.8434 256.557 30.5886 256.881 30.3956C257.205 30.1949 257.603 30.0945 258.074 30.0945C258.552 30.0945 258.95 30.2374 259.267 30.523C259.591 30.8009 259.757 31.1638 259.765 31.6116V35.3984H258.143V32.2138C258.136 31.9899 258.074 31.8123 257.958 31.6811C257.85 31.5421 257.665 31.4726 257.402 31.4726C257.155 31.4726 256.939 31.5537 256.754 31.7158C256.568 31.8779 256.425 32.098 256.325 32.3759C256.225 32.6538 256.175 32.9742 256.175 33.3371V35.3984H254.553V30.3377H256.024ZM261.904 28.1142H263.525V30.3146H264.753V31.5768H263.525V35.3984H261.904V31.5768H261.117V30.3146H261.904V28.1142Z" fill="#00DDFF"/>
<path d="M94.6254 45.46H96.8025V46.8728H94.6254V45.46ZM101.885 41.1404H104.189V48.8184H102.499V42.7617H101.885V41.1404ZM108.436 48.9226L105.402 43.7576H107.325L109.05 47.255L108.054 47.2202L109.548 43.7576H111.355L108.483 48.9226H108.436ZM112.052 41.1404H114.356V48.8184H112.665V42.7617H112.052V41.1404ZM120.32 48.8184V39.9476H120.331L125.068 46.6644L124.35 46.5022L129.075 39.9476H129.098V48.8184H127.419V43.7345L127.523 44.603L124.639 48.7026H124.616L121.651 44.603L121.941 43.804V48.8184H120.32ZM130.641 46.2243C130.641 45.707 130.76 45.2438 131 44.8346C131.247 44.4255 131.59 44.1051 132.03 43.8734C132.47 43.6341 132.976 43.5144 133.547 43.5144C134.126 43.5144 134.628 43.6341 135.053 43.8734C135.478 44.1051 135.802 44.4255 136.026 44.8346C136.257 45.2438 136.373 45.707 136.373 46.2243C136.373 46.7416 136.257 47.2087 136.026 47.6256C135.802 48.0347 135.478 48.359 135.053 48.5983C134.628 48.8377 134.119 48.9573 133.524 48.9573C132.968 48.9573 132.47 48.8492 132.03 48.6331C131.598 48.4169 131.258 48.1042 131.011 47.695C130.764 47.2859 130.641 46.7956 130.641 46.2243ZM132.274 46.2359C132.274 46.4984 132.328 46.7377 132.436 46.9539C132.544 47.1623 132.691 47.3283 132.876 47.4518C133.061 47.5754 133.27 47.6371 133.501 47.6371C133.756 47.6371 133.976 47.5754 134.161 47.4518C134.347 47.3283 134.489 47.1623 134.59 46.9539C134.69 46.7377 134.74 46.4984 134.74 46.2359C134.74 45.9657 134.69 45.7263 134.59 45.5179C134.489 45.3094 134.347 45.1435 134.161 45.0199C133.976 44.8964 133.756 44.8346 133.501 44.8346C133.27 44.8346 133.061 44.8964 132.876 45.0199C132.691 45.1435 132.544 45.3094 132.436 45.5179C132.328 45.7263 132.274 45.9657 132.274 46.2359ZM139.712 48.9573C139.241 48.9573 138.82 48.8492 138.449 48.6331C138.079 48.4092 137.785 48.0888 137.569 47.6719C137.361 47.255 137.257 46.7609 137.257 46.1896C137.257 45.6183 137.372 45.1319 137.604 44.7304C137.836 44.3289 138.152 44.024 138.554 43.8155C138.955 43.6071 139.411 43.5029 139.92 43.5029C140.244 43.5029 140.553 43.553 140.847 43.6534C141.148 43.7538 141.399 43.9082 141.599 44.1166V44.6262V39.6813H143.209V48.8184H141.588V47.834L141.715 48.1814C141.453 48.3976 141.159 48.5829 140.835 48.7373C140.511 48.884 140.136 48.9573 139.712 48.9573ZM140.244 47.5908C140.461 47.5908 140.65 47.5638 140.812 47.5098C140.982 47.448 141.128 47.3631 141.252 47.255C141.383 47.1392 141.495 46.9963 141.588 46.8265V45.5874C141.526 45.4175 141.429 45.2747 141.298 45.1589C141.175 45.0354 141.02 44.9427 140.835 44.881C140.657 44.8115 140.461 44.7767 140.244 44.7767C140.005 44.7767 139.781 44.8385 139.573 44.962C139.372 45.0778 139.21 45.24 139.086 45.4484C138.963 45.6569 138.901 45.8962 138.901 46.1664C138.901 46.4366 138.963 46.6798 139.086 46.896C139.21 47.1122 139.372 47.282 139.573 47.4055C139.781 47.5291 140.005 47.5908 140.244 47.5908ZM147.367 48.9573C146.749 48.9573 146.224 48.8415 145.792 48.6099C145.367 48.3783 145.043 48.0579 144.819 47.6487C144.595 47.2395 144.483 46.7686 144.483 46.2359C144.483 45.7263 144.614 45.267 144.877 44.8578C145.139 44.4486 145.491 44.1244 145.931 43.885C146.371 43.638 146.861 43.5144 147.401 43.5144C148.127 43.5144 148.722 43.7268 149.185 44.1514C149.656 44.5683 149.961 45.1743 150.1 45.9695L146.162 47.2202L145.803 46.3401L148.652 45.3789L148.316 45.5295C148.255 45.3287 148.143 45.155 147.981 45.0083C147.826 44.8539 147.591 44.7767 147.274 44.7767C147.035 44.7767 146.822 44.8346 146.637 44.9504C146.46 45.0585 146.321 45.2168 146.22 45.4252C146.128 45.626 146.081 45.8653 146.081 46.1432C146.081 46.4598 146.139 46.7261 146.255 46.9423C146.371 47.1508 146.529 47.309 146.73 47.4171C146.931 47.5252 147.154 47.5792 147.401 47.5792C147.579 47.5792 147.749 47.5484 147.911 47.4866C148.081 47.4248 148.247 47.3438 148.409 47.2434L149.127 48.4478C148.857 48.6022 148.563 48.7257 148.247 48.8184C147.938 48.911 147.645 48.9573 147.367 48.9573ZM162.49 48.8184C162.382 48.8184 162.22 48.8184 162.004 48.8184C161.795 48.8184 161.579 48.8184 161.355 48.8184C161.131 48.8184 160.938 48.8184 160.776 48.8184C160.622 48.8184 160.545 48.8184 160.545 48.8184L156.793 43.7692C156.715 43.6611 156.619 43.5144 156.503 43.3292C156.387 43.1361 156.287 42.9238 156.202 42.6922C156.117 42.4529 156.075 42.2136 156.075 41.9742C156.075 41.6654 156.152 41.3605 156.306 41.0594C156.468 40.7505 156.711 40.4958 157.036 40.295C157.368 40.0866 157.785 39.9824 158.286 39.9824C158.835 39.9824 159.317 40.0943 159.734 40.3182C160.151 40.5421 160.483 40.8123 160.73 41.1288L159.885 42.2522C159.645 41.9897 159.414 41.7812 159.19 41.6268C158.974 41.4724 158.761 41.3952 158.553 41.3952C158.29 41.3952 158.101 41.4724 157.985 41.6268C157.87 41.7812 157.812 41.9511 157.812 42.1364C157.812 42.2444 157.839 42.3641 157.893 42.4954C157.954 42.6189 158.016 42.7347 158.078 42.8428C158.14 42.9431 158.182 43.0126 158.205 43.0512L162.49 48.8184ZM157.8 44.9389C157.615 44.9389 157.441 44.9775 157.279 45.0547C157.117 45.1241 156.974 45.2207 156.85 45.3442C156.727 45.4677 156.63 45.6067 156.561 45.7611C156.499 45.9155 156.468 46.0776 156.468 46.2475C156.468 46.4868 156.526 46.6991 156.642 46.8844C156.766 47.062 156.931 47.2009 157.14 47.3013C157.348 47.4017 157.576 47.4518 157.823 47.4518C158.078 47.4518 158.286 47.4171 158.449 47.3476C158.618 47.2704 158.757 47.1701 158.865 47.0465C158.981 46.923 159.074 46.7879 159.143 46.6412L160.22 47.5329C160.012 47.9267 159.692 48.2625 159.259 48.5404C158.835 48.8184 158.279 48.9573 157.592 48.9573C157.059 48.9573 156.576 48.8454 156.144 48.6215C155.712 48.3976 155.368 48.0888 155.113 47.695C154.859 47.3013 154.731 46.8497 154.731 46.3401C154.731 45.9541 154.816 45.599 154.986 45.2747C155.164 44.9504 155.399 44.6686 155.692 44.4293C155.986 44.19 156.314 44.0008 156.677 43.8619C157.04 43.7152 157.41 43.638 157.788 43.6303L157.8 44.9389ZM160.325 43.6303H161.853L160.417 47.2434L159.201 46.5254L160.325 43.6303ZM171.829 41.1404L170.092 44.4756L169.177 43.9777C169.254 43.9468 169.335 43.9236 169.42 43.9082C169.513 43.8927 169.598 43.885 169.675 43.885C169.945 43.8773 170.216 43.9082 170.486 43.9777C170.756 44.0472 170.999 44.1707 171.215 44.3482C171.439 44.5258 171.617 44.769 171.748 45.0778C171.887 45.3866 171.957 45.7804 171.957 46.259C171.957 46.8149 171.825 47.2936 171.563 47.695C171.308 48.0888 170.972 48.3899 170.555 48.5983C170.138 48.8068 169.687 48.911 169.2 48.911C168.822 48.911 168.424 48.8338 168.008 48.6794C167.591 48.5173 167.259 48.305 167.012 48.0425L167.869 46.6528C167.984 46.7995 168.162 46.9423 168.401 47.0813C168.641 47.2202 168.892 47.2897 169.154 47.2897C169.324 47.2897 169.49 47.2473 169.652 47.1623C169.814 47.0774 169.949 46.95 170.057 46.7802C170.165 46.6103 170.219 46.4019 170.219 46.1548C170.219 45.8151 170.123 45.5449 169.93 45.3442C169.745 45.1435 169.482 45.0431 169.142 45.0431C168.911 45.0431 168.733 45.0547 168.61 45.0778C168.494 45.0933 168.378 45.1164 168.262 45.1473L168.228 45.101L169.582 42.5648L170.069 42.7617H167.649V41.1404H171.829ZM175.805 48.9226L172.771 43.7576H174.694L176.419 47.255L175.423 47.2202L176.917 43.7576H178.724L175.852 48.9226H175.805ZM184.122 41.1404L182.385 44.4756L181.47 43.9777C181.547 43.9468 181.629 43.9236 181.713 43.9082C181.806 43.8927 181.891 43.885 181.968 43.885C182.238 43.8773 182.509 43.9082 182.779 43.9777C183.049 44.0472 183.292 44.1707 183.508 44.3482C183.732 44.5258 183.91 44.769 184.041 45.0778C184.18 45.3866 184.25 45.7804 184.25 46.259C184.25 46.8149 184.118 47.2936 183.856 47.695C183.601 48.0888 183.265 48.3899 182.848 48.5983C182.431 48.8068 181.98 48.911 181.493 48.911C181.115 48.911 180.717 48.8338 180.301 48.6794C179.884 48.5173 179.552 48.305 179.305 48.0425L180.162 46.6528C180.277 46.7995 180.455 46.9423 180.694 47.0813C180.934 47.2202 181.185 47.2897 181.447 47.2897C181.617 47.2897 181.783 47.2473 181.945 47.1623C182.107 47.0774 182.242 46.95 182.35 46.7802C182.458 46.6103 182.512 46.4019 182.512 46.1548C182.512 45.8151 182.416 45.5449 182.223 45.3442C182.038 45.1435 181.775 45.0431 181.435 45.0431C181.204 45.0431 181.026 45.0547 180.903 45.0778C180.787 45.0933 180.671 45.1164 180.555 45.1473L180.521 45.101L181.876 42.5648L182.362 42.7617H179.942V41.1404H184.122ZM189.815 48.8184V39.9476H189.826L194.563 46.6644L193.845 46.5022L198.569 39.9476H198.593V48.8184H196.913V43.7345L197.018 44.603L194.134 48.7026H194.111L191.146 44.603L191.436 43.804V48.8184H189.815ZM200.136 46.2243C200.136 45.707 200.255 45.2438 200.495 44.8346C200.742 44.4255 201.085 44.1051 201.525 43.8734C201.965 43.6341 202.471 43.5144 203.042 43.5144C203.621 43.5144 204.123 43.6341 204.548 43.8734C204.972 44.1051 205.297 44.4255 205.521 44.8346C205.752 45.2438 205.868 45.707 205.868 46.2243C205.868 46.7416 205.752 47.2087 205.521 47.6256C205.297 48.0347 204.972 48.359 204.548 48.5983C204.123 48.8377 203.614 48.9573 203.019 48.9573C202.463 48.9573 201.965 48.8492 201.525 48.6331C201.093 48.4169 200.753 48.1042 200.506 47.695C200.259 47.2859 200.136 46.7956 200.136 46.2243ZM201.768 46.2359C201.768 46.4984 201.823 46.7377 201.931 46.9539C202.039 47.1623 202.185 47.3283 202.371 47.4518C202.556 47.5754 202.764 47.6371 202.996 47.6371C203.251 47.6371 203.471 47.5754 203.656 47.4518C203.841 47.3283 203.984 47.1623 204.085 46.9539C204.185 46.7377 204.235 46.4984 204.235 46.2359C204.235 45.9657 204.185 45.7263 204.085 45.5179C203.984 45.3094 203.841 45.1435 203.656 45.0199C203.471 44.8964 203.251 44.8346 202.996 44.8346C202.764 44.8346 202.556 44.8964 202.371 45.0199C202.185 45.1435 202.039 45.3094 201.931 45.5179C201.823 45.7263 201.768 45.9657 201.768 46.2359ZM209.207 48.9573C208.736 48.9573 208.315 48.8492 207.944 48.6331C207.574 48.4092 207.28 48.0888 207.064 47.6719C206.856 47.255 206.751 46.7609 206.751 46.1896C206.751 45.6183 206.867 45.1319 207.099 44.7304C207.331 44.3289 207.647 44.024 208.049 43.8155C208.45 43.6071 208.905 43.5029 209.415 43.5029C209.739 43.5029 210.048 43.553 210.341 43.6534C210.643 43.7538 210.893 43.9082 211.094 44.1166V44.6262V39.6813H212.704V48.8184H211.083V47.834L211.21 48.1814C210.948 48.3976 210.654 48.5829 210.33 48.7373C210.006 48.884 209.631 48.9573 209.207 48.9573ZM209.739 47.5908C209.955 47.5908 210.145 47.5638 210.307 47.5098C210.477 47.448 210.623 47.3631 210.747 47.255C210.878 47.1392 210.99 46.9963 211.083 46.8265V45.5874C211.021 45.4175 210.924 45.2747 210.793 45.1589C210.67 45.0354 210.515 44.9427 210.33 44.881C210.152 44.8115 209.955 44.7767 209.739 44.7767C209.5 44.7767 209.276 44.8385 209.068 44.962C208.867 45.0778 208.705 45.24 208.581 45.4484C208.458 45.6569 208.396 45.8962 208.396 46.1664C208.396 46.4366 208.458 46.6798 208.581 46.896C208.705 47.1122 208.867 47.282 209.068 47.4055C209.276 47.5291 209.5 47.5908 209.739 47.5908ZM216.862 48.9573C216.244 48.9573 215.719 48.8415 215.287 48.6099C214.862 48.3783 214.538 48.0579 214.314 47.6487C214.09 47.2395 213.978 46.7686 213.978 46.2359C213.978 45.7263 214.109 45.267 214.372 44.8578C214.634 44.4486 214.986 44.1244 215.426 43.885C215.866 43.638 216.356 43.5144 216.896 43.5144C217.622 43.5144 218.217 43.7268 218.68 44.1514C219.151 44.5683 219.456 45.1743 219.595 45.9695L215.657 47.2202L215.298 46.3401L218.147 45.3789L217.811 45.5295C217.749 45.3287 217.638 45.155 217.475 45.0083C217.321 44.8539 217.086 44.7767 216.769 44.7767C216.53 44.7767 216.317 44.8346 216.132 44.9504C215.954 45.0585 215.816 45.2168 215.715 45.4252C215.622 45.626 215.576 45.8653 215.576 46.1432C215.576 46.4598 215.634 46.7261 215.75 46.9423C215.866 47.1508 216.024 47.309 216.225 47.4171C216.425 47.5252 216.649 47.5792 216.896 47.5792C217.074 47.5792 217.244 47.5484 217.406 47.4866C217.576 47.4248 217.742 47.3438 217.904 47.2434L218.622 48.4478C218.352 48.6022 218.058 48.7257 217.742 48.8184C217.433 48.911 217.14 48.9573 216.862 48.9573Z" fill="#FFE1B4"/>
<defs>
<linearGradient id="paint0_linear_1286_20552" x1="38.4864" y1="94.9514" x2="38.4864" y2="33.5095" gradientUnits="userSpaceOnUse">
<stop stop-color="#4D7F80"/>
<stop offset="0.0425567" stop-color="#618D8E"/>
<stop offset="0.1456" stop-color="#8AABAC"/>
<stop offset="0.2544" stop-color="#AEC5C6"/>
<stop offset="0.3681" stop-color="#CCDADA"/>
<stop offset="0.4884" stop-color="#E2EAEB"/>
<stop offset="0.6182" stop-color="#F3F6F6"/>
<stop offset="0.7643" stop-color="#FCFDFD"/>
<stop offset="0.961" stop-color="white"/>
</linearGradient>
<linearGradient id="paint1_linear_1286_20552" x1="38.4864" y1="58.7911" x2="38.4864" y2="4.40748" gradientUnits="userSpaceOnUse">
<stop stop-color="#4D7F80"/>
<stop offset="0.0425567" stop-color="#618D8E"/>
<stop offset="0.1456" stop-color="#8AABAC"/>
<stop offset="0.2544" stop-color="#AEC5C6"/>
<stop offset="0.3681" stop-color="#CCDADA"/>
<stop offset="0.4884" stop-color="#E2EAEB"/>
<stop offset="0.6182" stop-color="#F3F6F6"/>
<stop offset="0.7643" stop-color="#FCFDFD"/>
<stop offset="0.961" stop-color="white"/>
</linearGradient>
<linearGradient id="paint2_linear_1286_20552" x1="-nan" y1="-nan" x2="-nan" y2="-nan" gradientUnits="userSpaceOnUse">
<stop stop-color="#A8805F"/>
<stop offset="0.2455" stop-color="#804E03"/>
<stop offset="0.37" stop-color="#806D05"/>
<stop offset="0.4749" stop-color="#A8805F"/>
<stop offset="0.617" stop-color="#C0B284"/>
<stop offset="0.7375" stop-color="#BFB083"/>
<stop offset="0.7809" stop-color="#BCA97E"/>
<stop offset="0.8118" stop-color="#B69E75"/>
<stop offset="0.8367" stop-color="#AE8D68"/>
<stop offset="0.8501" stop-color="#A8805F"/>
<stop offset="1" stop-color="#804E03"/>
</linearGradient>
<linearGradient id="paint3_linear_1286_20552" x1="7.85665" y1="37.6335" x2="69.1162" y2="37.6335" gradientUnits="userSpaceOnUse">
<stop stop-color="#A8805F"/>
<stop offset="0.2455" stop-color="#804E03"/>
<stop offset="0.37" stop-color="#806D05"/>
<stop offset="0.4749" stop-color="#A8805F"/>
<stop offset="0.617" stop-color="#C0B284"/>
<stop offset="0.7375" stop-color="#BFB083"/>
<stop offset="0.7809" stop-color="#BCA97E"/>
<stop offset="0.8118" stop-color="#B69E75"/>
<stop offset="0.8367" stop-color="#AE8D68"/>
<stop offset="0.8501" stop-color="#A8805F"/>
<stop offset="1" stop-color="#804E03"/>
</linearGradient>
<linearGradient id="paint4_linear_1286_20552" x1="3.01768" y1="37.6338" x2="73.9552" y2="37.6338" gradientUnits="userSpaceOnUse">
<stop stop-color="#A8805F"/>
<stop offset="0.2455" stop-color="#804E03"/>
<stop offset="0.37" stop-color="#806D05"/>
<stop offset="0.4749" stop-color="#A8805F"/>
<stop offset="0.617" stop-color="#C0B284"/>
<stop offset="0.7375" stop-color="#BFB083"/>
<stop offset="0.7809" stop-color="#BCA97E"/>
<stop offset="0.8118" stop-color="#B69E75"/>
<stop offset="0.8367" stop-color="#AE8D68"/>
<stop offset="0.8501" stop-color="#A8805F"/>
<stop offset="1" stop-color="#804E03"/>
</linearGradient>
<linearGradient id="paint5_linear_1286_20552" x1="-0.300668" y1="19.7059" x2="77.2728" y2="19.7059" gradientUnits="userSpaceOnUse">
<stop stop-color="#A8805F"/>
<stop offset="0.2455" stop-color="#804E03"/>
<stop offset="0.37" stop-color="#806D05"/>
<stop offset="0.4749" stop-color="#A8805F"/>
<stop offset="0.617" stop-color="#C0B284"/>
<stop offset="0.7375" stop-color="#BFB083"/>
<stop offset="0.7809" stop-color="#BCA97E"/>
<stop offset="0.8118" stop-color="#B69E75"/>
<stop offset="0.8367" stop-color="#AE8D68"/>
<stop offset="0.8501" stop-color="#A8805F"/>
<stop offset="1" stop-color="#804E03"/>
</linearGradient>
<clipPath id="clip0_1286_20552">
<rect width="77" height="67.7315" fill="white" transform="translate(0 0.398438)"/>
</clipPath>
</defs>
</svg>
