<svg width="223" height="69" viewBox="0 0 223 69" fill="none" xmlns="http://www.w3.org/2000/svg">
<g clip-path="url(#clip0_1286_20549)">
<path d="M38.4691 67.514C55.0355 67.514 68.4651 54.1437 68.4651 37.6505C68.4651 21.1574 55.0355 7.78711 38.4691 7.78711C21.9028 7.78711 8.47314 21.1574 8.47314 37.6505C8.47314 54.1437 21.9028 67.514 38.4691 67.514Z" fill="url(#paint0_linear_1286_20549)"/>
<path d="M38.4691 7.72534C21.894 7.72534 8.47314 21.0869 8.47314 37.5888H68.527C68.527 21.1485 55.0442 7.72534 38.4691 7.72534Z" fill="url(#paint1_linear_1286_20549)"/>
<path d="M8.47314 37.6506H68.527" stroke="url(#paint2_linear_1286_20549)" stroke-width="0.202054" stroke-miterlimit="10"/>
<path d="M38.4691 67.514C55.0355 67.514 68.4651 54.1437 68.4651 37.6505C68.4651 21.1574 55.0355 7.78711 38.4691 7.78711C21.9028 7.78711 8.47314 21.1574 8.47314 37.6505C8.47314 54.1437 21.9028 67.514 38.4691 67.514Z" stroke="url(#paint3_linear_1286_20549)" stroke-width="0.696422" stroke-miterlimit="10"/>
<path d="M38.4692 61.418C57.8706 61.418 73.5985 50.7769 73.5985 37.6504C73.5985 24.5239 57.8706 13.8828 38.4692 13.8828C19.0678 13.8828 3.33984 24.5239 3.33984 37.6504C3.33984 50.7769 19.0678 61.418 38.4692 61.418Z" stroke="url(#paint4_linear_1286_20549)" stroke-width="0.356874" stroke-miterlimit="10"/>
<path d="M-3.05913e-05 39.0051C-0.061878 34.0176 0.865833 28.9686 2.7831 24.2889C4.70037 19.6093 7.54535 15.3607 11.1325 11.7278C14.6578 8.15653 18.9871 5.32412 23.6257 3.35375C28.3261 1.38338 33.3976 0.398193 38.469 0.398193C43.5405 0.398193 48.612 1.38338 53.3124 3.35375C58.0128 5.32412 62.2803 8.15653 65.8674 11.7278C69.4546 15.2991 72.2996 19.6093 74.2168 24.2889C76.1341 28.9686 77.0618 34.0176 77 39.0051C76.9381 28.9686 72.7325 19.0551 65.5582 12.0973C61.9711 8.58755 57.7654 5.75514 53.1269 3.84634C48.4883 1.93755 43.4787 1.01393 38.469 1.01393C33.4594 1.01393 28.4498 1.99912 23.8731 3.90792C19.2345 5.75514 15.0289 8.58755 11.4417 12.0973C4.26744 19.0551 0.0618168 28.9686 -3.05913e-05 39.0051Z" fill="url(#paint5_linear_1286_20549)"/>
</g>
<path d="M28.1414 24.0008C28.1414 27.4192 30.5006 30.1795 33.9671 30.1795V29.9067C31.624 29.9067 28.9599 28.2697 28.9599 24.0008C28.9599 19.7478 31.624 18.1269 33.9671 18.1269C36.3102 18.1269 38.9743 19.7478 38.9743 24.0008C38.9743 29.4894 33.0363 31.3351 29.8586 32.619L29.9388 32.8597C32.1536 32.1696 33.0844 32.0091 34.4486 32.0091C35.9732 32.0091 36.9682 33.5498 38.2521 33.5498C38.8138 33.5498 39.5681 33.293 40.178 32.2819L40.0175 32.1856C39.4879 32.7474 39.0706 32.9239 38.5249 32.9239C37.7386 32.9239 36.2621 31.3511 34.8177 31.3511C33.9671 31.3511 33.4535 31.4634 32.9721 31.6239C36.4226 30.4203 39.7928 27.8043 39.7928 24.0008C39.7928 20.5984 37.4336 17.8541 33.9671 17.8541C30.5006 17.8541 28.1414 20.5984 28.1414 24.0008ZM45.7444 30.1795C47.911 30.1795 50.0134 29.1364 50.0134 26.713C50.0134 23.407 47.6703 23.1983 44.9901 23.1983L49.2591 18.6565V18.0467H42.4383L41.7803 21.0638L42.0692 21.128C42.5507 19.138 43.3371 18.6405 45.3111 18.6405L48.7937 18.6565L44.5728 23.2144L44.7494 23.5193C47.253 23.5193 49.2912 23.76 49.2912 26.7291C49.2912 28.8796 47.7826 29.9067 45.7444 29.9067C43.5136 29.9067 42.7433 28.4784 42.1013 26.6007L41.2186 27.1142C42.1174 29.1043 43.5297 30.1795 45.7444 30.1795Z" fill="#00226D"/>
<path d="M33.9671 30.1795V30.536H34.3236V30.1795H33.9671ZM33.9671 29.9067H34.3236V29.5502H33.9671V29.9067ZM29.8586 32.619L29.7251 32.2884L29.4145 32.4139L29.5204 32.7317L29.8586 32.619ZM29.9388 32.8597L29.6007 32.9724L29.7112 33.304L30.0449 33.2L29.9388 32.8597ZM40.178 32.2819L40.4832 32.4661L40.6678 32.1601L40.3614 31.9763L40.178 32.2819ZM40.0175 32.1856L40.2009 31.88L39.9549 31.7324L39.7581 31.9411L40.0175 32.1856ZM32.9721 31.6239L32.8547 31.2873L33.0848 31.9621L32.9721 31.6239ZM27.7849 24.0008C27.7849 27.5858 30.2747 30.536 33.9671 30.536V29.8231C30.7264 29.8231 28.4979 27.2525 28.4979 24.0008H27.7849ZM34.3236 30.1795V29.9067H33.6106V30.1795H34.3236ZM33.9671 29.5502C32.8757 29.5502 31.718 29.1689 30.8347 28.3004C29.9559 27.4363 29.3163 26.0578 29.3163 24.0008H28.6034C28.6034 26.2127 29.2959 27.7872 30.3349 28.8088C31.3694 29.826 32.7154 30.2632 33.9671 30.2632V29.5502ZM29.3163 24.0008C29.3163 21.9522 29.9556 20.5821 30.8339 19.724C31.7169 18.8613 32.8747 18.4834 33.9671 18.4834V17.7704C32.7164 17.7704 31.3705 18.2029 30.3357 19.214C29.2962 20.2296 28.6034 21.7964 28.6034 24.0008H29.3163ZM33.9671 18.4834C35.0595 18.4834 36.2173 18.8613 37.1003 19.724C37.9786 20.5821 38.6178 21.9522 38.6178 24.0008H39.3308C39.3308 21.7964 38.638 20.2296 37.5985 19.214C36.5636 18.2029 35.2178 17.7704 33.9671 17.7704V18.4834ZM38.6178 24.0008C38.6178 26.5891 37.228 28.3265 35.4046 29.5939C33.5652 30.8725 31.3397 31.6361 29.7251 32.2884L29.9921 32.9495C31.5552 32.3179 33.8875 31.5168 35.8115 30.1794C37.7516 28.8309 39.3308 26.9011 39.3308 24.0008H38.6178ZM29.5204 32.7317L29.6007 32.9724L30.277 32.747L30.1968 32.5062L29.5204 32.7317ZM30.0449 33.2C32.2419 32.5155 33.1344 32.3656 34.4486 32.3656V31.6526C33.0344 31.6526 32.0652 31.8237 29.8328 32.5194L30.0449 33.2ZM34.4486 32.3656C35.0927 32.3656 35.6398 32.6889 36.248 33.0794C36.8166 33.4446 37.4832 33.9063 38.2521 33.9063V33.1933C37.7372 33.1933 37.2642 32.8847 36.6332 32.4795C36.0418 32.0997 35.3291 31.6526 34.4486 31.6526V32.3656ZM38.2521 33.9063C38.9405 33.9063 39.8098 33.5826 40.4832 32.4661L39.8727 32.0978C39.3265 33.0034 38.6872 33.1933 38.2521 33.1933V33.9063ZM40.3614 31.9763L40.2009 31.88L39.8341 32.4913L39.9946 32.5876L40.3614 31.9763ZM39.7581 31.9411C39.5114 32.2027 39.3092 32.3548 39.1232 32.4439C38.9418 32.5308 38.7558 32.5674 38.5249 32.5674V33.2804C38.8398 33.2804 39.1352 33.2287 39.4312 33.0869C39.7227 32.9473 39.9939 32.7303 40.2769 32.4302L39.7581 31.9411ZM38.5249 32.5674C38.4269 32.5674 38.2577 32.5118 37.9871 32.3649C37.7254 32.2228 37.4407 32.0376 37.103 31.8327C36.4619 31.4437 35.6521 30.9946 34.8177 30.9946V31.7076C35.4277 31.7076 36.0783 32.0449 36.7331 32.4423C37.0434 32.6306 37.3655 32.8386 37.647 32.9914C37.9195 33.1394 38.2298 33.2804 38.5249 33.2804V32.5674ZM34.8177 30.9946C33.9283 30.9946 33.3767 31.1133 32.8593 31.2857L33.0848 31.9621C33.5304 31.8136 34.0059 31.7076 34.8177 31.7076V30.9946ZM33.0895 31.9605C36.5819 30.7422 40.1493 28.0408 40.1493 24.0008H39.4363C39.4363 27.5679 36.2632 30.0983 32.8547 31.2873L33.0895 31.9605ZM40.1493 24.0008C40.1493 20.4299 37.6577 17.4976 33.9671 17.4976V18.2105C37.2096 18.2105 39.4363 20.7669 39.4363 24.0008H40.1493ZM33.9671 17.4976C30.2765 17.4976 27.7849 20.4299 27.7849 24.0008H28.4979C28.4979 20.7669 30.7246 18.2105 33.9671 18.2105V17.4976ZM44.9901 23.1983L44.7304 22.9542L44.1658 23.5548H44.9901V23.1983ZM49.2591 18.6565L49.5188 18.9007L49.6156 18.7977V18.6565H49.2591ZM49.2591 18.0467H49.6156V17.6902H49.2591V18.0467ZM42.4383 18.0467V17.6902H42.1512L42.0901 17.9707L42.4383 18.0467ZM41.7803 21.0638L41.4321 20.9879L41.3564 21.3348L41.703 21.4118L41.7803 21.0638ZM42.0692 21.128L41.9919 21.476L42.3334 21.5519L42.4157 21.2118L42.0692 21.128ZM45.3111 18.6405L45.3127 18.284H45.3111V18.6405ZM48.7937 18.6565L49.0552 18.8987L49.6062 18.3038L48.7953 18.3L48.7937 18.6565ZM44.5728 23.2144L44.3113 22.9722L44.1325 23.1652L44.2643 23.393L44.5728 23.2144ZM44.7494 23.5193L44.4409 23.6979L44.5438 23.8758H44.7494V23.5193ZM42.1013 26.6007L42.4386 26.4853L42.298 26.0738L41.9221 26.2925L42.1013 26.6007ZM41.2186 27.1142L41.0394 26.8061L40.7614 26.9678L40.8938 27.2609L41.2186 27.1142ZM45.7444 30.536C46.8781 30.536 48.024 30.2641 48.8973 29.646C49.7849 29.0177 50.3699 28.0442 50.3699 26.713H49.6569C49.6569 27.8052 49.1906 28.5649 48.4854 29.0641C47.7658 29.5734 46.7773 29.8231 45.7444 29.8231V30.536ZM50.3699 26.713C50.3699 25.846 50.2164 25.1505 49.9191 24.5997C49.6192 24.0442 49.1854 23.6595 48.6676 23.3977C47.659 22.8879 46.3163 22.8418 44.9901 22.8418V23.5548C46.3441 23.5548 47.513 23.613 48.346 24.034C48.749 24.2377 49.0685 24.5251 49.2917 24.9384C49.5175 25.3566 49.6569 25.9269 49.6569 26.713H50.3699ZM45.2499 23.4425L49.5188 18.9007L48.9993 18.4124L44.7304 22.9542L45.2499 23.4425ZM49.6156 18.6565V18.0467H48.9026V18.6565H49.6156ZM49.2591 17.6902H42.4383V18.4031H49.2591V17.6902ZM42.0901 17.9707L41.4321 20.9879L42.1286 21.1398L42.7866 18.1226L42.0901 17.9707ZM41.703 21.4118L41.9919 21.476L42.1466 20.78L41.8577 20.7158L41.703 21.4118ZM42.4157 21.2118C42.6503 20.2424 42.9411 19.722 43.3427 19.4244C43.7492 19.1231 44.3394 18.9969 45.3111 18.9969V18.284C44.3088 18.284 43.5187 18.4065 42.9182 18.8516C42.3127 19.3003 41.9696 20.0236 41.7227 21.0442L42.4157 21.2118ZM45.3094 18.9969L48.792 19.013L48.7953 18.3L45.3127 18.284L45.3094 18.9969ZM48.5321 18.4143L44.3113 22.9722L44.8344 23.4566L49.0552 18.8987L48.5321 18.4143ZM44.2643 23.393L44.4409 23.6979L45.0579 23.3407L44.8813 23.0358L44.2643 23.393ZM44.7494 23.8758C46.013 23.8758 47.0603 23.942 47.7936 24.3265C48.1469 24.5118 48.4243 24.7704 48.6177 25.1402C48.8138 25.5151 48.9347 26.0258 48.9347 26.7291H49.6477C49.6477 25.9478 49.5138 25.3151 49.2495 24.8097C48.9825 24.2993 48.5939 23.9411 48.1247 23.6951C47.213 23.217 45.9894 23.1628 44.7494 23.1628V23.8758ZM48.9347 26.7291C48.9347 27.7138 48.5935 28.4017 48.0542 28.8503C47.5051 29.3069 46.7085 29.5502 45.7444 29.5502V30.2632C46.8185 30.2632 47.7953 29.9929 48.5101 29.3984C49.2346 28.7958 49.6477 27.8948 49.6477 26.7291H48.9347ZM45.7444 29.5502C44.7177 29.5502 44.0654 29.2271 43.5878 28.7148C43.0918 28.1827 42.7582 27.42 42.4386 26.4853L41.764 26.716C42.0864 27.659 42.459 28.5494 43.0663 29.2009C43.692 29.8721 44.5403 30.2632 45.7444 30.2632V29.5502ZM41.9221 26.2925L41.0394 26.8061L41.3979 27.4223L42.2806 26.9088L41.9221 26.2925ZM40.8938 27.2609C41.3617 28.2971 41.9754 29.1216 42.7841 29.6856C43.5956 30.2514 44.5765 30.536 45.7444 30.536V29.8231C44.6975 29.8231 43.8649 29.57 43.1919 29.1007C42.5161 28.6295 41.9743 27.9214 41.5435 26.9675L40.8938 27.2609Z" fill="#00226D"/>
<path d="M23.2943 52.3936H29.8429L30.3694 49.9795L30.1383 49.9282C29.753 51.5332 29.111 51.9185 27.4931 51.9185H23.5768C23.5768 49.0936 29.9328 47.848 29.9328 45.2029C29.9328 43.4823 28.546 42.6862 27.018 42.6862C25.2717 42.6862 24.1546 43.5465 23.4612 45.1387L24.1032 45.5496C24.604 44.0344 25.2846 42.9173 27.018 42.9173C28.2379 42.9173 29.4834 43.5593 29.4834 44.9718C29.4834 47.5912 23.2943 48.0535 23.2943 52.3936ZM31.2097 47.5655C31.2097 50.2749 32.1728 52.4706 34.7922 52.4706C37.4117 52.4706 38.3747 50.2749 38.3747 47.5655C38.3747 44.8562 37.4117 42.6733 34.7922 42.6733C32.1728 42.6733 31.2097 44.8562 31.2097 47.5655ZM34.7922 42.8916C36.4615 42.8916 37.7841 44.0087 37.7841 47.5655C37.7841 51.1223 36.4615 52.2523 34.7922 52.2523C33.123 52.2523 31.8004 51.1223 31.8004 47.5655C31.8004 44.0087 33.123 42.8916 34.7922 42.8916ZM39.2696 52.3936H45.8183L46.3447 49.9795L46.1136 49.9282C45.7284 51.5332 45.0864 51.9185 43.4685 51.9185H39.5521C39.5521 49.0936 45.9082 47.848 45.9082 45.2029C45.9082 43.4823 44.5214 42.6862 42.9934 42.6862C41.2471 42.6862 40.1299 43.5465 39.4366 45.1387L40.0786 45.5496C40.5794 44.0344 41.2599 42.9173 42.9934 42.9173C44.2132 42.9173 45.4587 43.5593 45.4587 44.9718C45.4587 47.5912 39.2696 48.0535 39.2696 52.3936ZM47.0567 52.3936H53.6053L54.1318 49.9795L53.9006 49.9282C53.5154 51.5332 52.8734 51.9185 51.2555 51.9185H47.3392C47.3392 49.0936 53.6952 47.848 53.6952 45.2029C53.6952 43.4823 52.3084 42.6862 50.7804 42.6862C49.0341 42.6862 47.917 43.5465 47.2236 45.1387L47.8656 45.5496C48.3664 44.0344 49.0469 42.9173 50.7804 42.9173C52.0003 42.9173 53.2458 43.5593 53.2458 44.9718C53.2458 47.5912 47.0567 48.0535 47.0567 52.3936Z" fill="#00226D"/>
<path d="M23.2943 52.3936H22.9378V52.75H23.2943V52.3936ZM29.8429 52.3936V52.75H30.13L30.1912 52.4695L29.8429 52.3936ZM30.3694 49.9795L30.7177 50.0555L30.7933 49.7086L30.4467 49.6316L30.3694 49.9795ZM30.1383 49.9282L30.2156 49.5802L29.8734 49.5042L29.7916 49.845L30.1383 49.9282ZM23.5768 51.9185H23.2203V52.2749H23.5768V51.9185ZM23.4612 45.1387L23.1344 44.9964L23.013 45.2751L23.2691 45.4389L23.4612 45.1387ZM24.1032 45.5496L23.9111 45.8498L24.2977 46.0973L24.4417 45.6615L24.1032 45.5496ZM23.2943 52.75H29.8429V52.0371H23.2943V52.75ZM30.1912 52.4695L30.7177 50.0555L30.0211 49.9036L29.4946 52.3176L30.1912 52.4695ZM30.4467 49.6316L30.2156 49.5802L30.0609 50.2762L30.2921 50.3275L30.4467 49.6316ZM29.7916 49.845C29.6054 50.6207 29.3754 51.015 29.0691 51.2363C28.7552 51.4631 28.2896 51.562 27.4931 51.562V52.2749C28.3145 52.2749 28.9789 52.1812 29.4867 51.8142C30.0023 51.4416 30.2859 50.8407 30.4849 50.0114L29.7916 49.845ZM27.4931 51.562H23.5768V52.2749H27.4931V51.562ZM23.9333 51.9185C23.9333 51.3574 24.2466 50.838 24.813 50.3102C25.3793 49.7823 26.1432 49.2969 26.944 48.7954C27.7295 48.3035 28.5538 47.7942 29.1773 47.2366C29.7984 46.6811 30.2893 46.0178 30.2893 45.2029H29.5763C29.5763 45.7106 29.2727 46.1948 28.702 46.7051C28.1338 47.2133 27.3691 47.6879 26.5656 48.1911C25.7774 48.6847 24.9522 49.2057 24.3269 49.7886C23.7014 50.3715 23.2203 51.067 23.2203 51.9185H23.9333ZM30.2893 45.2029C30.2893 44.2346 29.8933 43.5 29.2659 43.0169C28.6503 42.5427 27.8384 42.3297 27.018 42.3297V43.0426C27.7256 43.0426 28.3712 43.2277 28.8309 43.5817C29.279 43.9268 29.5763 44.4506 29.5763 45.2029H30.2893ZM27.018 42.3297C26.0834 42.3297 25.2925 42.561 24.6386 43.0245C23.9876 43.486 23.4993 44.1583 23.1344 44.9964L23.7881 45.281C24.1165 44.5268 24.5335 43.9729 25.0509 43.6062C25.5655 43.2414 26.2063 43.0426 27.018 43.0426V42.3297ZM23.2691 45.4389L23.9111 45.8498L24.2954 45.2493L23.6534 44.8384L23.2691 45.4389ZM24.4417 45.6615C24.6882 44.9156 24.9635 44.321 25.3557 43.912C25.7321 43.5195 26.2397 43.2738 27.018 43.2738V42.5608C26.0629 42.5608 25.3635 42.8737 24.8411 43.4185C24.3345 43.9468 24.019 44.6684 23.7648 45.4377L24.4417 45.6615ZM27.018 43.2738C27.5718 43.2738 28.1095 43.4205 28.4986 43.7032C28.8754 43.9771 29.1269 44.386 29.1269 44.9718H29.8399C29.8399 44.1451 29.4686 43.5268 28.9177 43.1265C28.3791 42.7351 27.6841 42.5608 27.018 42.5608V43.2738ZM29.1269 44.9718C29.1269 45.4667 28.8406 45.8958 28.2893 46.3514C27.7317 46.8122 26.9953 47.2285 26.1973 47.7368C24.6512 48.7216 22.9378 50.0157 22.9378 52.3936H23.6508C23.6508 50.4314 25.032 49.3243 26.5803 48.3381C27.3297 47.8608 28.1406 47.3992 28.7434 46.901C29.3526 46.3976 29.8399 45.7866 29.8399 44.9718H29.1269ZM30.8533 47.5655C30.8533 48.9527 31.0982 50.2573 31.7184 51.2263C32.3535 52.2184 33.3635 52.8271 34.7922 52.8271V52.1141C33.6015 52.1141 32.8202 51.625 32.3189 50.8419C31.8028 50.0357 31.5662 48.8877 31.5662 47.5655H30.8533ZM34.7922 52.8271C36.2209 52.8271 37.2309 52.2184 37.866 51.2263C38.4863 50.2573 38.7312 48.9527 38.7312 47.5655H38.0182C38.0182 48.8877 37.7816 50.0357 37.2655 50.8419C36.7642 51.625 35.983 52.1141 34.7922 52.1141V52.8271ZM38.7312 47.5655C38.7312 46.1784 38.4863 44.8767 37.8657 43.9107C37.2302 42.9216 36.2201 42.3168 34.7922 42.3168V43.0298C35.9838 43.0298 36.765 43.5165 37.2658 44.2961C37.7816 45.0989 38.0182 46.2434 38.0182 47.5655H38.7312ZM34.7922 42.3168C33.3644 42.3168 32.3543 42.9216 31.7188 43.9107C31.0982 44.8767 30.8533 46.1784 30.8533 47.5655H31.5662C31.5662 46.2434 31.8028 45.0989 32.3186 44.2961C32.8195 43.5165 33.6006 43.0298 34.7922 43.0298V42.3168ZM34.7922 43.2481C35.5392 43.2481 36.1699 43.4925 36.6282 44.1077C37.1014 44.7428 37.4276 45.8209 37.4276 47.5655H38.1405C38.1405 45.7534 37.8055 44.4945 37.2 43.6818C36.5798 42.8493 35.7145 42.5351 34.7922 42.5351V43.2481ZM37.4276 47.5655C37.4276 49.3101 37.1014 50.3918 36.6278 51.0304C36.1689 51.6491 35.538 51.8958 34.7922 51.8958V52.6088C35.7157 52.6088 36.5808 52.2905 37.2004 51.4551C37.8054 50.6394 38.1405 49.3778 38.1405 47.5655H37.4276ZM34.7922 51.8958C34.0465 51.8958 33.4156 51.6491 32.9567 51.0304C32.483 50.3918 32.1569 49.3101 32.1569 47.5655H31.4439C31.4439 49.3778 31.779 50.6394 32.384 51.4551C33.0037 52.2905 33.8687 52.6088 34.7922 52.6088V51.8958ZM32.1569 47.5655C32.1569 45.8209 32.4831 44.7428 32.9562 44.1077C33.4146 43.4925 34.0452 43.2481 34.7922 43.2481V42.5351C33.87 42.5351 33.0047 42.8493 32.3845 43.6818C31.779 44.4945 31.4439 45.7534 31.4439 47.5655H32.1569ZM39.2696 52.3936H38.9132V52.75H39.2696V52.3936ZM45.8183 52.3936V52.75H46.1054L46.1666 52.4695L45.8183 52.3936ZM46.3447 49.9795L46.693 50.0555L46.7687 49.7086L46.4221 49.6316L46.3447 49.9795ZM46.1136 49.9282L46.1909 49.5802L45.8488 49.5042L45.767 49.845L46.1136 49.9282ZM39.5521 51.9185H39.1956V52.2749H39.5521V51.9185ZM39.4366 45.1387L39.1097 44.9964L38.9883 45.2751L39.2444 45.4389L39.4366 45.1387ZM40.0786 45.5496L39.8864 45.8498L40.273 46.0973L40.4171 45.6615L40.0786 45.5496ZM39.2696 52.75H45.8183V52.0371H39.2696V52.75ZM46.1666 52.4695L46.693 50.0555L45.9964 49.9036L45.47 52.3176L46.1666 52.4695ZM46.4221 49.6316L46.1909 49.5802L46.0363 50.2762L46.2674 50.3275L46.4221 49.6316ZM45.767 49.845C45.5808 50.6207 45.3508 51.015 45.0445 51.2363C44.7306 51.4631 44.2649 51.562 43.4685 51.562V52.2749C44.2899 52.2749 44.9542 52.1812 45.4621 51.8142C45.9776 51.4416 46.2612 50.8407 46.4602 50.0114L45.767 49.845ZM43.4685 51.562H39.5521V52.2749H43.4685V51.562ZM39.9086 51.9185C39.9086 51.3574 40.222 50.838 40.7883 50.3102C41.3547 49.7823 42.1185 49.2969 42.9193 48.7954C43.7048 48.3035 44.5291 47.7942 45.1527 47.2366C45.7738 46.6811 46.2646 46.0178 46.2646 45.2029H45.5517C45.5517 45.7106 45.248 46.1948 44.6774 46.7051C44.1092 47.2133 43.3445 47.6879 42.5409 48.1911C41.7528 48.6847 40.9276 49.2057 40.3022 49.7886C39.6768 50.3715 39.1956 51.067 39.1956 51.9185H39.9086ZM46.2646 45.2029C46.2646 44.2346 45.8686 43.5 45.2413 43.0169C44.6256 42.5427 43.8138 42.3297 42.9934 42.3297V43.0426C43.701 43.0426 44.3465 43.2277 44.8063 43.5817C45.2543 43.9268 45.5517 44.4506 45.5517 45.2029H46.2646ZM42.9934 42.3297C42.0588 42.3297 41.2679 42.561 40.614 43.0245C39.9629 43.486 39.4747 44.1583 39.1097 44.9964L39.7634 45.281C40.0918 44.5268 40.5088 43.9729 41.0263 43.6062C41.5409 43.2414 42.1817 43.0426 42.9934 43.0426V42.3297ZM39.2444 45.4389L39.8864 45.8498L40.2707 45.2493L39.6287 44.8384L39.2444 45.4389ZM40.4171 45.6615C40.6636 44.9156 40.9388 44.321 41.331 43.912C41.7074 43.5195 42.2151 43.2738 42.9934 43.2738V42.5608C42.0382 42.5608 41.3389 42.8737 40.8164 43.4185C40.3098 43.9468 39.9944 44.6684 39.7401 45.4377L40.4171 45.6615ZM42.9934 43.2738C43.5471 43.2738 44.0848 43.4205 44.4739 43.7032C44.8508 43.9771 45.1023 44.386 45.1023 44.9718H45.8152C45.8152 44.1451 45.4439 43.5268 44.893 43.1265C44.3544 42.7351 43.6594 42.5608 42.9934 42.5608V43.2738ZM45.1023 44.9718C45.1023 45.4667 44.8159 45.8958 44.2646 46.3514C43.707 46.8122 42.9706 47.2285 42.1727 47.7368C40.6265 48.7216 38.9132 50.0157 38.9132 52.3936H39.6261C39.6261 50.4314 41.0073 49.3243 42.5557 48.3381C43.305 47.8608 44.1159 47.3992 44.7188 46.901C45.3279 46.3976 45.8152 45.7866 45.8152 44.9718H45.1023ZM47.0567 52.3936H46.7002V52.75H47.0567V52.3936ZM53.6053 52.3936V52.75H53.8924L53.9536 52.4695L53.6053 52.3936ZM54.1318 49.9795L54.4801 50.0555L54.5557 49.7086L54.2091 49.6316L54.1318 49.9795ZM53.9006 49.9282L53.978 49.5802L53.6358 49.5042L53.554 49.845L53.9006 49.9282ZM47.3392 51.9185H46.9827V52.2749H47.3392V51.9185ZM47.2236 45.1387L46.8968 44.9964L46.7754 45.2751L47.0314 45.4389L47.2236 45.1387ZM47.8656 45.5496L47.6735 45.8498L48.0601 46.0973L48.2041 45.6615L47.8656 45.5496ZM47.0567 52.75H53.6053V52.0371H47.0567V52.75ZM53.9536 52.4695L54.4801 50.0555L53.7835 49.9036L53.257 52.3176L53.9536 52.4695ZM54.2091 49.6316L53.978 49.5802L53.8233 50.2762L54.0544 50.3275L54.2091 49.6316ZM53.554 49.845C53.3678 50.6207 53.1378 51.015 52.8315 51.2363C52.5176 51.4631 52.052 51.562 51.2555 51.562V52.2749C52.0769 52.2749 52.7413 52.1812 53.2491 51.8142C53.7647 51.4416 54.0482 50.8407 54.2473 50.0114L53.554 49.845ZM51.2555 51.562H47.3392V52.2749H51.2555V51.562ZM47.6956 51.9185C47.6956 51.3574 48.009 50.838 48.5753 50.3102C49.1417 49.7823 49.9055 49.2969 50.7064 48.7954C51.4919 48.3035 52.3162 47.7942 52.9397 47.2366C53.5608 46.6811 54.0517 46.0178 54.0517 45.2029H53.3387C53.3387 45.7106 53.0351 46.1948 52.4644 46.7051C51.8962 47.2133 51.1315 47.6879 50.328 48.1911C49.5398 48.6847 48.7146 49.2057 48.0892 49.7886C47.4638 50.3715 46.9827 51.067 46.9827 51.9185H47.6956ZM54.0517 45.2029C54.0517 44.2346 53.6557 43.5 53.0283 43.0169C52.4127 42.5427 51.6008 42.3297 50.7804 42.3297V43.0426C51.488 43.0426 52.1336 43.2277 52.5933 43.5817C53.0413 43.9268 53.3387 44.4506 53.3387 45.2029H54.0517ZM50.7804 42.3297C49.8458 42.3297 49.0549 42.561 48.401 43.0245C47.75 43.486 47.2617 44.1583 46.8968 44.9964L47.5504 45.281C47.8789 44.5268 48.2958 43.9729 48.8133 43.6062C49.3279 43.2414 49.9687 43.0426 50.7804 43.0426V42.3297ZM47.0314 45.4389L47.6735 45.8498L48.0578 45.2493L47.4158 44.8384L47.0314 45.4389ZM48.2041 45.6615C48.4506 44.9156 48.7258 44.321 49.1181 43.912C49.4944 43.5195 50.0021 43.2738 50.7804 43.2738V42.5608C49.8253 42.5608 49.1259 42.8737 48.6035 43.4185C48.0968 43.9468 47.7814 44.6684 47.5271 45.4377L48.2041 45.6615ZM50.7804 43.2738C51.3342 43.2738 51.8719 43.4205 52.261 43.7032C52.6378 43.9771 52.8893 44.386 52.8893 44.9718H53.6023C53.6023 44.1451 53.231 43.5268 52.6801 43.1265C52.1415 42.7351 51.4465 42.5608 50.7804 42.5608V43.2738ZM52.8893 44.9718C52.8893 45.4667 52.603 45.8958 52.0516 46.3514C51.4941 46.8122 50.7577 47.2285 49.9597 47.7368C48.4135 48.7216 46.7002 50.0157 46.7002 52.3936H47.4132C47.4132 50.4314 48.7944 49.3243 50.3427 48.3381C51.0921 47.8608 51.9029 47.3992 52.5058 46.901C53.1149 46.3976 53.6023 45.7866 53.6023 44.9718H52.8893Z" fill="#00226D"/>
<path d="M94.4625 29.1645H96.0941V29.88H94.4625V29.1645ZM99.69 31.3982L102.447 24.8279H102.5L105.248 31.3982H104.28L102.22 26.1542L102.822 25.7615L100.519 31.3982H99.69ZM101.304 29.0074H103.651L103.931 29.7404H101.06L101.304 29.0074ZM106.236 24.6447H107.047V31.3982H106.236V24.6447ZM110.58 31.4854C110.307 31.4854 110.042 31.4215 109.786 31.2935C109.536 31.1655 109.341 30.9939 109.202 30.7787L109.254 30.5256V33.1346H108.451V27.7335H109.149L109.263 28.6584L109.175 28.4054C109.35 28.1843 109.571 28.0011 109.838 27.8556C110.106 27.7102 110.406 27.6375 110.737 27.6375C111.075 27.6375 111.377 27.7189 111.645 27.8818C111.918 28.0447 112.133 28.2716 112.29 28.5624C112.447 28.8533 112.526 29.1936 112.526 29.5833C112.526 29.973 112.442 30.3104 112.273 30.5954C112.104 30.8805 111.872 31.1015 111.575 31.2586C111.284 31.4098 110.952 31.4854 110.58 31.4854ZM110.423 30.8398C110.656 30.8398 110.868 30.7874 111.06 30.6827C111.258 30.5722 111.415 30.4238 111.531 30.2377C111.648 30.0457 111.706 29.8305 111.706 29.592C111.706 29.3477 111.65 29.1325 111.54 28.9463C111.429 28.7544 111.281 28.6031 111.095 28.4926C110.915 28.3821 110.711 28.3268 110.484 28.3268C110.275 28.3268 110.086 28.3675 109.917 28.449C109.748 28.5304 109.609 28.6438 109.498 28.7893C109.388 28.9289 109.309 29.0918 109.263 29.2779V29.88C109.292 30.0661 109.361 30.2319 109.472 30.3773C109.583 30.5227 109.719 30.6362 109.882 30.7176C110.051 30.799 110.231 30.8398 110.423 30.8398ZM113.623 31.3982V24.6447H114.417V28.6235L114.4 28.4752C114.522 28.2367 114.708 28.0389 114.958 27.8818C115.214 27.7248 115.514 27.6462 115.857 27.6462C116.2 27.6462 116.479 27.748 116.695 27.9516C116.916 28.1494 117.029 28.4083 117.035 28.7282V31.3982H116.215V29.0161C116.209 28.8184 116.151 28.6584 116.04 28.5362C115.936 28.4083 115.77 28.3443 115.543 28.3443C115.334 28.3443 115.144 28.4054 114.976 28.5275C114.807 28.6438 114.673 28.8038 114.574 29.0074C114.481 29.211 114.435 29.4437 114.435 29.7054V31.3982H113.623ZM119.947 31.4854C119.61 31.4854 119.301 31.4127 119.022 31.2673C118.749 31.1219 118.531 30.9096 118.368 30.6304C118.211 30.3453 118.132 29.9992 118.132 29.592C118.132 29.1906 118.216 28.8445 118.385 28.5537C118.554 28.257 118.778 28.0302 119.057 27.8731C119.342 27.716 119.653 27.6375 119.991 27.6375C120.328 27.6375 120.613 27.716 120.846 27.8731C121.078 28.0243 121.256 28.2047 121.378 28.4141L121.326 28.5537L121.404 27.7858H122.155V31.3982H121.343V30.4558L121.43 30.6653C121.407 30.7234 121.355 30.799 121.273 30.8921C121.198 30.9794 121.093 31.0695 120.959 31.1626C120.831 31.2557 120.683 31.3342 120.514 31.3982C120.345 31.4564 120.156 31.4854 119.947 31.4854ZM120.165 30.8136C120.369 30.8136 120.552 30.7758 120.715 30.7002C120.878 30.6245 121.012 30.5198 121.116 30.386C121.227 30.2464 121.302 30.0806 121.343 29.8887V29.1819C121.297 29.0074 121.215 28.8562 121.099 28.7282C120.982 28.5944 120.843 28.4926 120.68 28.4228C120.517 28.3472 120.337 28.3094 120.139 28.3094C119.924 28.3094 119.726 28.3617 119.546 28.4664C119.365 28.5711 119.22 28.7166 119.109 28.9027C119.005 29.0888 118.952 29.307 118.952 29.5571C118.952 29.7898 119.008 30.0021 119.118 30.1941C119.229 30.386 119.377 30.5373 119.563 30.6478C119.749 30.7583 119.95 30.8136 120.165 30.8136ZM131.459 30.8572C131.372 30.9328 131.25 31.0085 131.092 31.0841C130.935 31.1539 130.761 31.2179 130.569 31.276C130.383 31.3342 130.188 31.3807 129.984 31.4156C129.787 31.4505 129.6 31.468 129.426 31.468C128.92 31.468 128.463 31.3895 128.056 31.2324C127.655 31.0754 127.308 30.8572 127.018 30.578C126.733 30.2988 126.512 29.9701 126.355 29.592C126.203 29.2139 126.128 28.8038 126.128 28.3617C126.128 27.8382 126.212 27.3699 126.381 26.9569C126.555 26.5381 126.791 26.1862 127.087 25.9011C127.39 25.6103 127.736 25.3921 128.126 25.2467C128.516 25.0955 128.929 25.0199 129.365 25.0199C129.731 25.0199 130.072 25.0635 130.386 25.1507C130.7 25.238 130.976 25.3485 131.215 25.4823L130.927 26.2589C130.81 26.1891 130.665 26.1251 130.49 26.0669C130.322 26.0088 130.147 25.9622 129.967 25.9273C129.787 25.8866 129.618 25.8662 129.461 25.8662C129.088 25.8662 128.751 25.9244 128.449 26.0407C128.146 26.1513 127.887 26.3141 127.672 26.5294C127.457 26.7388 127.291 26.9947 127.175 27.2972C127.058 27.5939 127 27.9284 127 28.3006C127 28.6438 127.058 28.958 127.175 29.243C127.291 29.528 127.457 29.7753 127.672 29.9847C127.887 30.1883 128.143 30.3482 128.44 30.4646C128.742 30.5751 129.074 30.6304 129.435 30.6304C129.65 30.6304 129.862 30.61 130.072 30.5693C130.281 30.5227 130.461 30.4587 130.613 30.3773V29.1208H129.356V28.3094H131.459V30.8572ZM134.373 31.4854C134.036 31.4854 133.727 31.4127 133.448 31.2673C133.175 31.1219 132.957 30.9096 132.794 30.6304C132.637 30.3453 132.558 29.9992 132.558 29.592C132.558 29.1906 132.642 28.8445 132.811 28.5537C132.98 28.257 133.204 28.0302 133.483 27.8731C133.768 27.716 134.079 27.6375 134.417 27.6375C134.754 27.6375 135.039 27.716 135.272 27.8731C135.504 28.0243 135.682 28.2047 135.804 28.4141L135.752 28.5537L135.83 27.7858H136.581V31.3982H135.769V30.4558L135.856 30.6653C135.833 30.7234 135.781 30.799 135.699 30.8921C135.624 30.9794 135.519 31.0695 135.385 31.1626C135.257 31.2557 135.109 31.3342 134.94 31.3982C134.771 31.4564 134.582 31.4854 134.373 31.4854ZM134.591 30.8136C134.795 30.8136 134.978 30.7758 135.141 30.7002C135.304 30.6245 135.438 30.5198 135.542 30.386C135.653 30.2464 135.728 30.0806 135.769 29.8887V29.1819C135.723 29.0074 135.641 28.8562 135.525 28.7282C135.408 28.5944 135.269 28.4926 135.106 28.4228C134.943 28.3472 134.763 28.3094 134.565 28.3094C134.35 28.3094 134.152 28.3617 133.972 28.4664C133.791 28.5711 133.646 28.7166 133.535 28.9027C133.431 29.0888 133.378 29.307 133.378 29.5571C133.378 29.7898 133.434 30.0021 133.544 30.1941C133.655 30.386 133.803 30.5373 133.989 30.6478C134.175 30.7583 134.376 30.8136 134.591 30.8136ZM138.709 27.7858L138.779 28.5973L138.744 28.5275C138.878 28.2541 139.067 28.0389 139.311 27.8818C139.561 27.7248 139.846 27.6462 140.166 27.6462C140.37 27.6462 140.55 27.6782 140.707 27.7422C140.864 27.8062 140.992 27.8993 141.091 28.0214C141.196 28.1378 141.263 28.2832 141.292 28.4577L141.248 28.4839C141.388 28.2221 141.58 28.0185 141.824 27.8731C142.074 27.7219 142.336 27.6462 142.609 27.6462C142.964 27.6462 143.243 27.748 143.447 27.9516C143.656 28.1494 143.764 28.4083 143.77 28.7282V31.3982H142.958V29.0161C142.953 28.83 142.906 28.6758 142.819 28.5537C142.737 28.4257 142.592 28.3559 142.382 28.3443C142.173 28.3443 141.984 28.4083 141.815 28.5362C141.652 28.6642 141.524 28.83 141.431 29.0336C141.338 29.2314 141.289 29.4466 141.283 29.6793V31.3982H140.472V29.0161C140.466 28.83 140.416 28.6758 140.323 28.5537C140.236 28.4257 140.088 28.3559 139.878 28.3443C139.663 28.3443 139.474 28.4083 139.311 28.5362C139.148 28.6642 139.02 28.83 138.927 29.0336C138.84 29.2372 138.796 29.4553 138.796 29.688V31.3982H137.985V27.7858H138.709ZM146.86 31.4854C146.447 31.4854 146.093 31.404 145.796 31.2411C145.499 31.0724 145.269 30.8456 145.107 30.5605C144.949 30.2697 144.871 29.9381 144.871 29.5658C144.871 29.211 144.961 28.8882 145.141 28.5973C145.322 28.3065 145.563 28.0738 145.866 27.8993C146.168 27.7248 146.506 27.6375 146.878 27.6375C147.355 27.6375 147.75 27.7771 148.064 28.0563C148.379 28.3355 148.591 28.7195 148.701 29.2081L145.726 30.2552L145.534 29.7753L147.977 28.8853L147.803 28.9987C147.733 28.8067 147.617 28.6409 147.454 28.5013C147.291 28.3559 147.078 28.2832 146.817 28.2832C146.596 28.2832 146.398 28.3385 146.223 28.449C146.049 28.5537 145.912 28.6991 145.813 28.8853C145.714 29.0714 145.665 29.2837 145.665 29.5222C145.665 29.7723 145.717 29.9934 145.822 30.1854C145.927 30.3715 146.069 30.5198 146.25 30.6304C146.436 30.7351 146.645 30.7874 146.878 30.7874C147.035 30.7874 147.186 30.7583 147.332 30.7002C147.483 30.642 147.622 30.5664 147.75 30.4733L148.126 31.0754C147.945 31.1975 147.742 31.2964 147.515 31.372C147.294 31.4476 147.076 31.4854 146.86 31.4854ZM151.847 31.4854C151.574 31.4854 151.309 31.4215 151.053 31.2935C150.803 31.1655 150.608 30.9939 150.469 30.7787L150.521 30.5256V33.1346H149.718V27.7335H150.416L150.53 28.6584L150.442 28.4054C150.617 28.1843 150.838 28.0011 151.106 27.8556C151.373 27.7102 151.673 27.6375 152.004 27.6375C152.342 27.6375 152.644 27.7189 152.912 27.8818C153.185 28.0447 153.4 28.2716 153.557 28.5624C153.715 28.8533 153.793 29.1936 153.793 29.5833C153.793 29.973 153.709 30.3104 153.54 30.5954C153.371 30.8805 153.139 31.1015 152.842 31.2586C152.551 31.4098 152.22 31.4854 151.847 31.4854ZM151.69 30.8398C151.923 30.8398 152.135 30.7874 152.327 30.6827C152.525 30.5722 152.682 30.4238 152.798 30.2377C152.915 30.0457 152.973 29.8305 152.973 29.592C152.973 29.3477 152.918 29.1325 152.807 28.9463C152.697 28.7544 152.548 28.6031 152.362 28.4926C152.182 28.3821 151.978 28.3268 151.751 28.3268C151.542 28.3268 151.353 28.3675 151.184 28.449C151.015 28.5304 150.876 28.6438 150.765 28.7893C150.655 28.9289 150.576 29.0918 150.53 29.2779V29.88C150.559 30.0661 150.629 30.2319 150.739 30.3773C150.85 30.5227 150.986 30.6362 151.149 30.7176C151.318 30.799 151.498 30.8398 151.69 30.8398ZM154.89 24.6447H155.702V31.3982H154.89V24.6447ZM158.607 31.4854C158.269 31.4854 157.961 31.4127 157.682 31.2673C157.408 31.1219 157.19 30.9096 157.027 30.6304C156.87 30.3453 156.792 29.9992 156.792 29.592C156.792 29.1906 156.876 28.8445 157.045 28.5537C157.214 28.257 157.437 28.0302 157.717 27.8731C158.002 27.716 158.313 27.6375 158.65 27.6375C158.988 27.6375 159.273 27.716 159.505 27.8731C159.738 28.0243 159.916 28.2047 160.038 28.4141L159.985 28.5537L160.064 27.7858H160.814V31.3982H160.003V30.4558L160.09 30.6653C160.067 30.7234 160.014 30.799 159.933 30.8921C159.857 30.9794 159.753 31.0695 159.619 31.1626C159.491 31.2557 159.343 31.3342 159.174 31.3982C159.005 31.4564 158.816 31.4854 158.607 31.4854ZM158.825 30.8136C159.028 30.8136 159.212 30.7758 159.375 30.7002C159.537 30.6245 159.671 30.5198 159.776 30.386C159.886 30.2464 159.962 30.0806 160.003 29.8887V29.1819C159.956 29.0074 159.875 28.8562 159.758 28.7282C159.642 28.5944 159.503 28.4926 159.34 28.4228C159.177 28.3472 158.996 28.3094 158.799 28.3094C158.583 28.3094 158.386 28.3617 158.205 28.4664C158.025 28.5711 157.88 28.7166 157.769 28.9027C157.664 29.0888 157.612 29.307 157.612 29.5571C157.612 29.7898 157.667 30.0021 157.778 30.1941C157.888 30.386 158.037 30.5373 158.223 30.6478C158.409 30.7583 158.61 30.8136 158.825 30.8136ZM162.524 33.1346L164.906 27.7858H165.656L163.327 33.1346H162.524ZM163.414 31.4244L161.678 27.7858H162.594L164.051 31.0143L163.414 31.4244ZM169.029 25.0897H173.217V25.9011H171.525V31.3982H170.678V25.9011H169.029V25.0897ZM174.565 27.7858L174.644 28.8329L174.6 28.6933C174.693 28.4722 174.827 28.2861 175.002 28.1349C175.182 27.9778 175.368 27.8586 175.56 27.7771C175.758 27.6899 175.929 27.6462 176.075 27.6462L176.031 28.449C175.758 28.4315 175.516 28.4839 175.307 28.606C175.103 28.7282 174.941 28.8911 174.818 29.0947C174.702 29.2983 174.644 29.5164 174.644 29.7491V31.3982H173.841V27.7858H174.565ZM178.537 31.4854C178.2 31.4854 177.892 31.4127 177.612 31.2673C177.339 31.1219 177.121 30.9096 176.958 30.6304C176.801 30.3453 176.722 29.9992 176.722 29.592C176.722 29.1906 176.807 28.8445 176.975 28.5537C177.144 28.257 177.368 28.0302 177.647 27.8731C177.932 27.716 178.244 27.6375 178.581 27.6375C178.918 27.6375 179.203 27.716 179.436 27.8731C179.669 28.0243 179.846 28.2047 179.968 28.4141L179.916 28.5537L179.994 27.7858H180.745V31.3982H179.933V30.4558L180.021 30.6653C179.997 30.7234 179.945 30.799 179.864 30.8921C179.788 30.9794 179.683 31.0695 179.549 31.1626C179.421 31.2557 179.273 31.3342 179.104 31.3982C178.936 31.4564 178.747 31.4854 178.537 31.4854ZM178.755 30.8136C178.959 30.8136 179.142 30.7758 179.305 30.7002C179.468 30.6245 179.602 30.5198 179.707 30.386C179.817 30.2464 179.893 30.0806 179.933 29.8887V29.1819C179.887 29.0074 179.805 28.8562 179.689 28.7282C179.573 28.5944 179.433 28.4926 179.27 28.4228C179.107 28.3472 178.927 28.3094 178.729 28.3094C178.514 28.3094 178.316 28.3617 178.136 28.4664C177.956 28.5711 177.81 28.7166 177.7 28.9027C177.595 29.0888 177.543 29.307 177.543 29.5571C177.543 29.7898 177.598 30.0021 177.708 30.1941C177.819 30.386 177.967 30.5373 178.153 30.6478C178.34 30.7583 178.54 30.8136 178.755 30.8136ZM182.149 27.7858H182.961V31.3982H182.149V27.7858ZM182.088 26.477C182.088 26.349 182.137 26.2414 182.236 26.1542C182.341 26.0669 182.454 26.0233 182.577 26.0233C182.699 26.0233 182.806 26.0669 182.899 26.1542C182.998 26.2414 183.048 26.349 183.048 26.477C183.048 26.6108 182.998 26.7213 182.899 26.8086C182.806 26.89 182.699 26.9307 182.577 26.9307C182.454 26.9307 182.341 26.8871 182.236 26.7999C182.137 26.7126 182.088 26.605 182.088 26.477ZM184.365 24.6447H185.176V31.3982H184.365V24.6447ZM188.255 31.4854C187.842 31.4854 187.487 31.404 187.191 31.2411C186.894 31.0724 186.664 30.8456 186.501 30.5605C186.344 30.2697 186.266 29.9381 186.266 29.5658C186.266 29.211 186.356 28.8882 186.536 28.5973C186.717 28.3065 186.958 28.0738 187.261 27.8993C187.563 27.7248 187.9 27.6375 188.273 27.6375C188.75 27.6375 189.145 27.7771 189.459 28.0563C189.774 28.3355 189.986 28.7195 190.096 29.2081L187.121 30.2552L186.929 29.7753L189.372 28.8853L189.198 28.9987C189.128 28.8067 189.012 28.6409 188.849 28.5013C188.686 28.3559 188.473 28.2832 188.212 28.2832C187.991 28.2832 187.793 28.3385 187.618 28.449C187.444 28.5537 187.307 28.6991 187.208 28.8853C187.109 29.0714 187.06 29.2837 187.06 29.5222C187.06 29.7723 187.112 29.9934 187.217 30.1854C187.322 30.3715 187.464 30.5198 187.645 30.6304C187.831 30.7351 188.04 30.7874 188.273 30.7874C188.43 30.7874 188.581 30.7583 188.726 30.7002C188.878 30.642 189.017 30.5664 189.145 30.4733L189.52 31.0754C189.34 31.1975 189.137 31.2964 188.91 31.372C188.689 31.4476 188.471 31.4854 188.255 31.4854ZM191.837 27.7858L191.916 28.8329L191.872 28.6933C191.965 28.4722 192.099 28.2861 192.274 28.1349C192.454 27.9778 192.64 27.8586 192.832 27.7771C193.03 27.6899 193.201 27.6462 193.347 27.6462L193.303 28.449C193.03 28.4315 192.788 28.4839 192.579 28.606C192.375 28.7282 192.213 28.8911 192.09 29.0947C191.974 29.2983 191.916 29.5164 191.916 29.7491V31.3982H191.113V27.7858H191.837Z" fill="white"/>
<path d="M94.6254 40.4597H96.8025V41.8726H94.6254V40.4597ZM101.445 43.8181L105.289 34.959H105.382L109.227 43.8181H107.281L104.826 37.5878L106.042 36.754L103.101 43.8181H101.445ZM104.073 40.7377H106.633L107.223 42.1505H103.552L104.073 40.7377ZM110.203 34.681H111.824V43.8181H110.203V34.681ZM116.667 43.9571C116.366 43.9571 116.069 43.903 115.775 43.795C115.49 43.6791 115.25 43.517 115.057 43.3086L115.104 42.8338V46.25H113.494V38.6416H114.884L115.115 39.6259L114.988 39.2785C115.25 39.0546 115.544 38.8693 115.868 38.7227C116.192 38.576 116.567 38.5026 116.991 38.5026C117.462 38.5026 117.883 38.6146 118.254 38.8385C118.624 39.0546 118.914 39.3712 119.122 39.7881C119.338 40.1972 119.446 40.6914 119.446 41.2704C119.446 41.8417 119.327 42.3281 119.087 42.7295C118.848 43.131 118.52 43.436 118.103 43.6444C117.686 43.8529 117.207 43.9571 116.667 43.9571ZM116.343 42.6832C116.605 42.6832 116.845 42.6253 117.061 42.5095C117.285 42.3937 117.462 42.2316 117.593 42.0231C117.732 41.807 117.802 41.5638 117.802 41.2935C117.802 41.0079 117.74 40.7608 117.617 40.5524C117.501 40.3362 117.339 40.1702 117.13 40.0544C116.93 39.9309 116.706 39.8691 116.459 39.8691C116.242 39.8691 116.049 39.9 115.88 39.9618C115.717 40.0158 115.571 40.1007 115.439 40.2165C115.316 40.3246 115.208 40.4636 115.115 40.6335V41.8726C115.177 42.0347 115.266 42.1775 115.382 42.3011C115.497 42.4246 115.636 42.5211 115.798 42.5906C115.968 42.6523 116.15 42.6832 116.343 42.6832ZM120.721 43.8181V34.681H122.307V39.7765L122.295 39.5796C122.473 39.2631 122.724 39.0083 123.048 38.8153C123.372 38.6146 123.77 38.5142 124.241 38.5142C124.72 38.5142 125.117 38.657 125.434 38.9427C125.758 39.2206 125.924 39.5835 125.932 40.0313V43.8181H124.31V40.6335C124.303 40.4096 124.241 40.232 124.125 40.1007C124.017 39.9618 123.832 39.8923 123.569 39.8923C123.322 39.8923 123.106 39.9734 122.921 40.1355C122.736 40.2976 122.593 40.5176 122.492 40.7956C122.392 41.0735 122.342 41.3939 122.342 41.7568V43.8181H120.721ZM129.727 43.9571C129.256 43.9571 128.828 43.8644 128.442 43.6791C128.064 43.4861 127.762 43.1928 127.539 42.799C127.315 42.4053 127.203 41.9035 127.203 41.2935C127.203 40.7222 127.319 40.2281 127.55 39.8112C127.782 39.3943 128.087 39.0739 128.465 38.85C128.843 38.6184 129.245 38.5026 129.669 38.5026C130.171 38.5026 130.55 38.5875 130.804 38.7574C131.067 38.9195 131.283 39.101 131.453 39.3017L131.383 39.4986L131.534 38.7574H133.039V43.8181H131.418V42.718L131.545 43.0654C131.53 43.0654 131.484 43.1117 131.407 43.2043C131.329 43.2893 131.213 43.3935 131.059 43.517C130.912 43.6328 130.727 43.7332 130.503 43.8181C130.287 43.9108 130.028 43.9571 129.727 43.9571ZM130.191 42.6369C130.384 42.6369 130.557 42.6099 130.712 42.5558C130.866 42.4941 131.001 42.4091 131.117 42.3011C131.233 42.1853 131.333 42.0424 131.418 41.8726V40.6335C131.356 40.4636 131.264 40.3208 131.14 40.205C131.017 40.0814 130.87 39.9888 130.7 39.927C130.53 39.8576 130.341 39.8228 130.133 39.8228C129.901 39.8228 129.685 39.8846 129.484 40.0081C129.291 40.1239 129.137 40.286 129.021 40.4945C128.905 40.7029 128.847 40.9423 128.847 41.2125C128.847 41.4827 128.909 41.7259 129.032 41.9421C129.156 42.1582 129.318 42.3281 129.519 42.4516C129.727 42.5751 129.951 42.6369 130.191 42.6369ZM140.028 35.2948L142.518 41.4325L141.545 41.2356L143.803 35.2948H145.795L141.904 44.2119L138.013 35.2948H140.028ZM148.045 43.9571C147.428 43.9571 146.903 43.8413 146.47 43.6097C146.046 43.3781 145.721 43.0577 145.498 42.6485C145.274 42.2393 145.162 41.7683 145.162 41.2356C145.162 40.7261 145.293 40.2667 145.555 39.8576C145.818 39.4484 146.169 39.1241 146.609 38.8848C147.049 38.6377 147.54 38.5142 148.08 38.5142C148.806 38.5142 149.4 38.7265 149.863 39.1511C150.334 39.568 150.639 40.1741 150.778 40.9693L146.841 42.22L146.482 41.3399L149.331 40.3787L148.995 40.5292C148.933 40.3285 148.821 40.1548 148.659 40.0081C148.505 39.8537 148.269 39.7765 147.953 39.7765C147.713 39.7765 147.501 39.8344 147.316 39.9502C147.138 40.0583 146.999 40.2165 146.899 40.425C146.806 40.6257 146.76 40.8651 146.76 41.143C146.76 41.4595 146.818 41.7259 146.934 41.9421C147.049 42.1505 147.208 42.3088 147.408 42.4169C147.609 42.5249 147.833 42.579 148.08 42.579C148.258 42.579 148.427 42.5481 148.59 42.4863C148.759 42.4246 148.925 42.3435 149.088 42.2432L149.806 43.4475C149.535 43.6019 149.242 43.7255 148.925 43.8181C148.617 43.9108 148.323 43.9571 148.045 43.9571ZM153.416 38.7574L153.566 40.1471L153.531 39.9386C153.678 39.6375 153.879 39.3827 154.134 39.1743C154.388 38.9581 154.639 38.7921 154.886 38.6763C155.141 38.5605 155.334 38.5026 155.465 38.5026L155.384 40.1239C155.006 40.0776 154.682 40.1393 154.412 40.3092C154.141 40.479 153.933 40.7029 153.786 40.9809C153.639 41.2588 153.566 41.5445 153.566 41.8378V43.8181H151.956V38.7574H153.416ZM158.351 43.9223C157.934 43.9223 157.544 43.849 157.181 43.7023C156.826 43.5556 156.525 43.351 156.278 43.0885L156.949 42.1968C157.197 42.4207 157.424 42.5829 157.633 42.6832C157.849 42.7759 158.042 42.8222 158.212 42.8222C158.343 42.8222 158.459 42.8106 158.559 42.7874C158.667 42.7566 158.752 42.7141 158.814 42.6601C158.876 42.5983 158.907 42.5211 158.907 42.4284C158.907 42.2972 158.853 42.193 158.744 42.1158C158.644 42.0386 158.513 41.9768 158.351 41.9305C158.189 41.8764 158.015 41.8224 157.83 41.7683C157.366 41.6217 157.031 41.4094 156.822 41.1314C156.621 40.8458 156.521 40.5369 156.521 40.205C156.521 39.9502 156.587 39.6954 156.718 39.4406C156.857 39.1782 157.073 38.962 157.366 38.7921C157.667 38.6146 158.054 38.5258 158.524 38.5258C158.949 38.5258 159.308 38.5682 159.601 38.6532C159.895 38.7381 160.173 38.8771 160.435 39.0701L159.821 40.0197C159.675 39.9039 159.509 39.8074 159.324 39.7302C159.146 39.6452 158.98 39.5989 158.826 39.5912C158.687 39.5835 158.567 39.5989 158.467 39.6375C158.374 39.6761 158.301 39.7263 158.247 39.7881C158.192 39.8498 158.165 39.9155 158.165 39.9849C158.158 40.1316 158.212 40.2474 158.328 40.3324C158.451 40.4173 158.606 40.4829 158.791 40.5292C158.976 40.5755 159.158 40.6296 159.335 40.6914C159.582 40.7686 159.794 40.8728 159.972 41.004C160.15 41.1353 160.285 41.2935 160.377 41.4788C160.478 41.6564 160.528 41.8726 160.528 42.1273C160.528 42.4362 160.447 42.7295 160.285 43.0075C160.13 43.2777 159.891 43.4977 159.567 43.6676C159.25 43.8374 158.845 43.9223 158.351 43.9223ZM161.886 38.7574H163.507V43.8181H161.886V38.7574ZM161.851 36.9624C161.851 36.7231 161.944 36.5262 162.129 36.3718C162.322 36.2174 162.527 36.1402 162.743 36.1402C162.959 36.1402 163.156 36.2174 163.333 36.3718C163.519 36.5262 163.611 36.7231 163.611 36.9624C163.611 37.2017 163.519 37.3986 163.333 37.553C163.156 37.6997 162.959 37.773 162.743 37.773C162.527 37.773 162.322 37.6997 162.129 37.553C161.944 37.3986 161.851 37.2017 161.851 36.9624ZM164.783 41.2241C164.783 40.7068 164.903 40.2436 165.142 39.8344C165.389 39.4252 165.733 39.1048 166.173 38.8732C166.613 38.6339 167.119 38.5142 167.69 38.5142C168.269 38.5142 168.771 38.6339 169.195 38.8732C169.62 39.1048 169.944 39.4252 170.168 39.8344C170.4 40.2436 170.516 40.7068 170.516 41.2241C170.516 41.7413 170.4 42.2084 170.168 42.6253C169.944 43.0345 169.62 43.3588 169.195 43.5981C168.771 43.8374 168.261 43.9571 167.667 43.9571C167.111 43.9571 166.613 43.849 166.173 43.6328C165.74 43.4167 165.401 43.104 165.154 42.6948C164.907 42.2856 164.783 41.7954 164.783 41.2241ZM166.416 41.2356C166.416 41.4981 166.47 41.7375 166.578 41.9536C166.686 42.1621 166.833 42.3281 167.018 42.4516C167.203 42.5751 167.412 42.6369 167.644 42.6369C167.898 42.6369 168.118 42.5751 168.304 42.4516C168.489 42.3281 168.632 42.1621 168.732 41.9536C168.832 41.7375 168.883 41.4981 168.883 41.2356C168.883 40.9654 168.832 40.7261 168.732 40.5176C168.632 40.3092 168.489 40.1432 168.304 40.0197C168.118 39.8962 167.898 39.8344 167.644 39.8344C167.412 39.8344 167.203 39.8962 167.018 40.0197C166.833 40.1432 166.686 40.3092 166.578 40.5176C166.47 40.7261 166.416 40.9654 166.416 41.2356ZM173.263 38.7574L173.391 39.6607L173.368 39.5796C173.545 39.2631 173.796 39.0083 174.12 38.8153C174.445 38.6146 174.842 38.5142 175.313 38.5142C175.792 38.5142 176.19 38.657 176.506 38.9427C176.83 39.2206 176.996 39.5835 177.004 40.0313V43.8181H175.383V40.6335C175.375 40.4096 175.313 40.232 175.197 40.1007C175.089 39.9618 174.904 39.8923 174.642 39.8923C174.395 39.8923 174.178 39.9734 173.993 40.1355C173.808 40.2976 173.665 40.5176 173.565 40.7956C173.464 41.0735 173.414 41.3939 173.414 41.7568V43.8181H171.793V38.7574H173.263ZM182.701 35.2948H184.38V42.1968H188.387V43.8181H182.701V35.2948ZM191.984 43.9571C191.513 43.9571 191.085 43.8644 190.699 43.6791C190.321 43.4861 190.019 43.1928 189.796 42.799C189.572 42.4053 189.46 41.9035 189.46 41.2935C189.46 40.7222 189.576 40.2281 189.807 39.8112C190.039 39.3943 190.344 39.0739 190.722 38.85C191.1 38.6184 191.502 38.5026 191.926 38.5026C192.428 38.5026 192.807 38.5875 193.061 38.7574C193.324 38.9195 193.54 39.101 193.71 39.3017L193.64 39.4986L193.791 38.7574H195.296V43.8181H193.675V42.718L193.802 43.0654C193.787 43.0654 193.741 43.1117 193.664 43.2043C193.586 43.2893 193.471 43.3935 193.316 43.517C193.169 43.6328 192.984 43.7332 192.76 43.8181C192.544 43.9108 192.285 43.9571 191.984 43.9571ZM192.448 42.6369C192.641 42.6369 192.814 42.6099 192.969 42.5558C193.123 42.4941 193.258 42.4091 193.374 42.3011C193.49 42.1853 193.59 42.0424 193.675 41.8726V40.6335C193.613 40.4636 193.521 40.3208 193.397 40.205C193.274 40.0814 193.127 39.9888 192.957 39.927C192.787 39.8576 192.598 39.8228 192.39 39.8228C192.158 39.8228 191.942 39.8846 191.741 40.0081C191.548 40.1239 191.394 40.286 191.278 40.4945C191.162 40.7029 191.104 40.9423 191.104 41.2125C191.104 41.4827 191.166 41.7259 191.289 41.9421C191.413 42.1582 191.575 42.3281 191.776 42.4516C191.984 42.5751 192.208 42.6369 192.448 42.6369ZM198.6 44.0613C198.144 44.0613 197.762 43.9223 197.453 43.6444C197.145 43.3588 196.982 42.992 196.967 42.5442V38.7574H198.588V41.9421C198.604 42.166 198.662 42.3474 198.762 42.4863C198.862 42.6176 199.032 42.6832 199.272 42.6832C199.511 42.6832 199.715 42.6022 199.885 42.44C200.063 42.2779 200.198 42.0579 200.291 41.7799C200.391 41.4943 200.441 41.1739 200.441 40.8187V38.7574H202.062V43.8181H200.592L200.464 42.8917L200.487 42.9959C200.372 43.2043 200.225 43.3896 200.047 43.5518C199.87 43.7139 199.658 43.8374 199.41 43.9223C199.171 44.015 198.901 44.0613 198.6 44.0613ZM205.201 38.7574L205.328 39.6607L205.305 39.5796C205.482 39.2631 205.733 39.0083 206.058 38.8153C206.382 38.6146 206.779 38.5142 207.25 38.5142C207.729 38.5142 208.127 38.657 208.443 38.9427C208.767 39.2206 208.933 39.5835 208.941 40.0313V43.8181H207.32V40.6335C207.312 40.4096 207.25 40.232 207.135 40.1007C207.026 39.9618 206.841 39.8923 206.579 39.8923C206.332 39.8923 206.115 39.9734 205.93 40.1355C205.745 40.2976 205.602 40.5176 205.502 40.7956C205.401 41.0735 205.351 41.3939 205.351 41.7568V43.8181H203.73V38.7574H205.201ZM214.902 43.3665C214.678 43.544 214.397 43.6869 214.057 43.795C213.725 43.903 213.397 43.9571 213.073 43.9571C212.493 43.9571 211.988 43.8529 211.555 43.6444C211.131 43.4282 210.799 43.1233 210.56 42.7295C210.328 42.3281 210.212 41.8456 210.212 41.282C210.212 40.7184 210.339 40.2397 210.594 39.846C210.849 39.4445 211.181 39.1396 211.59 38.9311C212.007 38.7227 212.443 38.6184 212.899 38.6184C213.354 38.6184 213.748 38.6802 214.08 38.8037C214.42 38.9272 214.709 39.0894 214.949 39.2901L214.161 40.3324C214.053 40.2474 213.902 40.1625 213.709 40.0776C213.524 39.9849 213.304 39.9386 213.049 39.9386C212.825 39.9386 212.621 39.9965 212.436 40.1123C212.25 40.2281 212.104 40.3864 211.996 40.5871C211.887 40.7879 211.833 41.0195 211.833 41.282C211.833 41.529 211.891 41.7568 212.007 41.9652C212.123 42.1737 212.281 42.3397 212.482 42.4632C212.69 42.579 212.934 42.6369 213.211 42.6369C213.389 42.6369 213.551 42.6137 213.698 42.5674C213.852 42.5134 213.984 42.44 214.092 42.3474L214.902 43.3665ZM216.147 43.8181V34.681H217.734V39.7765L217.722 39.5796C217.9 39.2631 218.151 39.0083 218.475 38.8153C218.799 38.6146 219.197 38.5142 219.668 38.5142C220.146 38.5142 220.544 38.657 220.861 38.9427C221.185 39.2206 221.351 39.5835 221.359 40.0313V43.8181H219.737V40.6335C219.73 40.4096 219.668 40.232 219.552 40.1007C219.444 39.9618 219.259 39.8923 218.996 39.8923C218.749 39.8923 218.533 39.9734 218.348 40.1355C218.162 40.2976 218.02 40.5176 217.919 40.7956C217.819 41.0735 217.769 41.3939 217.769 41.7568V43.8181H216.147Z" fill="#00DDFF"/>
<defs>
<linearGradient id="paint0_linear_1286_20549" x1="38.4864" y1="94.9514" x2="38.4864" y2="33.5095" gradientUnits="userSpaceOnUse">
<stop stop-color="#4D7F80"/>
<stop offset="0.0425567" stop-color="#618D8E"/>
<stop offset="0.1456" stop-color="#8AABAC"/>
<stop offset="0.2544" stop-color="#AEC5C6"/>
<stop offset="0.3681" stop-color="#CCDADA"/>
<stop offset="0.4884" stop-color="#E2EAEB"/>
<stop offset="0.6182" stop-color="#F3F6F6"/>
<stop offset="0.7643" stop-color="#FCFDFD"/>
<stop offset="0.961" stop-color="white"/>
</linearGradient>
<linearGradient id="paint1_linear_1286_20549" x1="38.4864" y1="58.7908" x2="38.4864" y2="4.40724" gradientUnits="userSpaceOnUse">
<stop stop-color="#4D7F80"/>
<stop offset="0.0425567" stop-color="#618D8E"/>
<stop offset="0.1456" stop-color="#8AABAC"/>
<stop offset="0.2544" stop-color="#AEC5C6"/>
<stop offset="0.3681" stop-color="#CCDADA"/>
<stop offset="0.4884" stop-color="#E2EAEB"/>
<stop offset="0.6182" stop-color="#F3F6F6"/>
<stop offset="0.7643" stop-color="#FCFDFD"/>
<stop offset="0.961" stop-color="white"/>
</linearGradient>
<linearGradient id="paint2_linear_1286_20549" x1="-nan" y1="-nan" x2="-nan" y2="-nan" gradientUnits="userSpaceOnUse">
<stop stop-color="#A8805F"/>
<stop offset="0.2455" stop-color="#804E03"/>
<stop offset="0.37" stop-color="#806D05"/>
<stop offset="0.4749" stop-color="#A8805F"/>
<stop offset="0.617" stop-color="#C0B284"/>
<stop offset="0.7375" stop-color="#BFB083"/>
<stop offset="0.7809" stop-color="#BCA97E"/>
<stop offset="0.8118" stop-color="#B69E75"/>
<stop offset="0.8367" stop-color="#AE8D68"/>
<stop offset="0.8501" stop-color="#A8805F"/>
<stop offset="1" stop-color="#804E03"/>
</linearGradient>
<linearGradient id="paint3_linear_1286_20549" x1="7.85665" y1="37.6335" x2="69.1162" y2="37.6335" gradientUnits="userSpaceOnUse">
<stop stop-color="#A8805F"/>
<stop offset="0.2455" stop-color="#804E03"/>
<stop offset="0.37" stop-color="#806D05"/>
<stop offset="0.4749" stop-color="#A8805F"/>
<stop offset="0.617" stop-color="#C0B284"/>
<stop offset="0.7375" stop-color="#BFB083"/>
<stop offset="0.7809" stop-color="#BCA97E"/>
<stop offset="0.8118" stop-color="#B69E75"/>
<stop offset="0.8367" stop-color="#AE8D68"/>
<stop offset="0.8501" stop-color="#A8805F"/>
<stop offset="1" stop-color="#804E03"/>
</linearGradient>
<linearGradient id="paint4_linear_1286_20549" x1="3.01768" y1="37.6333" x2="73.9552" y2="37.6333" gradientUnits="userSpaceOnUse">
<stop stop-color="#A8805F"/>
<stop offset="0.2455" stop-color="#804E03"/>
<stop offset="0.37" stop-color="#806D05"/>
<stop offset="0.4749" stop-color="#A8805F"/>
<stop offset="0.617" stop-color="#C0B284"/>
<stop offset="0.7375" stop-color="#BFB083"/>
<stop offset="0.7809" stop-color="#BCA97E"/>
<stop offset="0.8118" stop-color="#B69E75"/>
<stop offset="0.8367" stop-color="#AE8D68"/>
<stop offset="0.8501" stop-color="#A8805F"/>
<stop offset="1" stop-color="#804E03"/>
</linearGradient>
<linearGradient id="paint5_linear_1286_20549" x1="-0.300423" y1="19.7057" x2="77.2731" y2="19.7057" gradientUnits="userSpaceOnUse">
<stop stop-color="#A8805F"/>
<stop offset="0.2455" stop-color="#804E03"/>
<stop offset="0.37" stop-color="#806D05"/>
<stop offset="0.4749" stop-color="#A8805F"/>
<stop offset="0.617" stop-color="#C0B284"/>
<stop offset="0.7375" stop-color="#BFB083"/>
<stop offset="0.7809" stop-color="#BCA97E"/>
<stop offset="0.8118" stop-color="#B69E75"/>
<stop offset="0.8367" stop-color="#AE8D68"/>
<stop offset="0.8501" stop-color="#A8805F"/>
<stop offset="1" stop-color="#804E03"/>
</linearGradient>
<clipPath id="clip0_1286_20549">
<rect width="77" height="67.7315" fill="white" transform="translate(0 0.398193)"/>
</clipPath>
</defs>
</svg>
