<svg width="364" height="273" viewBox="0 0 364 273" fill="none" xmlns="http://www.w3.org/2000/svg">
<g clip-path="url(#clip0_1286_20346)">
<path d="M107.914 188.273C154.386 188.273 192.059 150.767 192.059 104.5C192.059 58.2339 154.386 20.7275 107.914 20.7275C61.4423 20.7275 23.7695 58.2339 23.7695 104.5C23.7695 150.767 61.4423 188.273 107.914 188.273Z" fill="url(#paint0_linear_1286_20346)"/>
<path d="M107.914 20.5547C61.4177 20.5547 23.7695 58.0365 23.7695 104.327H192.232C192.232 58.2092 154.41 20.5547 107.914 20.5547Z" fill="url(#paint1_linear_1286_20346)"/>
<path d="M23.7695 104.5H192.232" stroke="url(#paint2_linear_1286_20346)" stroke-width="0.5668" stroke-miterlimit="10"/>
<path d="M107.914 188.273C154.386 188.273 192.059 150.767 192.059 104.5C192.059 58.2339 154.386 20.7275 107.914 20.7275C61.4423 20.7275 23.7695 58.2339 23.7695 104.5C23.7695 150.767 61.4423 188.273 107.914 188.273Z" stroke="url(#paint3_linear_1286_20346)" stroke-width="1.9536" stroke-miterlimit="10"/>
<path d="M107.914 171.173C162.338 171.173 206.458 141.322 206.458 104.5C206.458 67.6775 162.338 37.8271 107.914 37.8271C53.4891 37.8271 9.36914 67.6775 9.36914 104.5C9.36914 141.322 53.4891 171.173 107.914 171.173Z" stroke="url(#paint4_linear_1286_20346)" stroke-width="1.0011" stroke-miterlimit="10"/>
<path d="M0.000320029 108.3C-0.173174 94.3091 2.42924 80.1455 7.80755 67.0182C13.1859 53.8909 21.1666 41.9727 31.2292 31.7818C41.1184 21.7636 53.263 13.8182 66.275 8.29091C79.4606 2.76364 93.6871 0 107.914 0C122.14 0 136.367 2.76364 149.552 8.29091C162.738 13.8182 174.709 21.7636 184.771 31.7818C194.834 41.8 202.815 53.8909 208.193 67.0182C213.571 80.1455 216.174 94.3091 216 108.3C215.827 80.1455 204.029 52.3364 183.904 32.8182C173.841 22.9727 162.044 15.0273 149.032 9.67273C136.02 4.31818 121.967 1.72727 107.914 1.72727C93.8606 1.72727 79.8075 4.49091 66.969 9.84545C53.9569 15.0273 42.1594 22.9727 32.0967 32.8182C11.9714 52.3364 0.173814 80.1455 0.000320029 108.3Z" fill="url(#paint5_linear_1286_20346)"/>
</g>
<path d="M77.6168 64.9374C77.6168 74.5267 84.2347 82.2701 93.959 82.2701V81.5048C87.3861 81.5048 79.9128 76.9127 79.9128 64.9374C79.9128 53.0071 87.3861 48.4601 93.959 48.4601C100.532 48.4601 108.005 53.0071 108.005 64.9374C108.005 80.3343 91.3479 85.5116 82.4339 89.1132L82.659 89.7885C88.8718 87.8526 91.4829 87.4024 95.3096 87.4024C99.5865 87.4024 102.378 91.7243 105.979 91.7243C107.555 91.7243 109.671 91.004 111.382 88.1677L110.932 87.8976C109.446 89.4733 108.275 89.9685 106.745 89.9685C104.539 89.9685 100.397 85.5566 96.3451 85.5566C93.959 85.5566 92.5184 85.8717 91.1678 86.3219C100.847 82.9454 110.301 75.6072 110.301 64.9374C110.301 55.3932 103.683 47.6948 93.959 47.6948C84.2347 47.6948 77.6168 55.3932 77.6168 64.9374ZM126.997 82.2701C133.074 82.2701 138.972 79.3438 138.972 72.5458C138.972 63.2717 132.399 62.6864 124.881 62.6864L136.856 49.9458V48.235H117.723L115.877 56.6988L116.687 56.8788C118.038 51.2964 120.244 49.9007 125.781 49.9007L135.55 49.9458L123.71 62.7314L124.205 63.5868C131.229 63.5868 136.946 64.2621 136.946 72.5908C136.946 78.6235 132.714 81.5048 126.997 81.5048C120.739 81.5048 118.578 77.498 116.777 72.2307L114.301 73.6713C116.822 79.2538 120.784 82.2701 126.997 82.2701Z" fill="#00226D"/>
<path d="M93.959 82.2701V83.2701H94.959V82.2701H93.959ZM93.959 81.5048H94.959V80.5048H93.959V81.5048ZM82.4339 89.1132L82.0593 88.186L81.1881 88.538L81.4852 89.4294L82.4339 89.1132ZM82.659 89.7885L81.7103 90.1047L82.0204 91.0349L82.9565 90.7432L82.659 89.7885ZM111.382 88.1677L112.238 88.6842L112.756 87.8259L111.896 87.3102L111.382 88.1677ZM110.932 87.8976L111.446 87.0401L110.756 86.6261L110.204 87.2116L110.932 87.8976ZM91.1678 86.3219L90.8384 85.3777L91.484 87.2706L91.1678 86.3219ZM76.6168 64.9374C76.6168 74.9942 83.6013 83.2701 93.959 83.2701V81.2701C84.8681 81.2701 78.6168 74.0592 78.6168 64.9374H76.6168ZM94.959 82.2701V81.5048H92.959V82.2701H94.959ZM93.959 80.5048C90.8974 80.5048 87.6499 79.4351 85.1722 76.9988C82.7069 74.5748 80.9128 70.7078 80.9128 64.9374H78.9128C78.9128 71.1423 80.8553 75.559 83.7699 78.4249C86.6721 81.2784 90.4478 82.5048 93.959 82.5048V80.5048ZM80.9128 64.9374C80.9128 59.1907 82.7061 55.3473 85.1699 52.9402C87.6468 50.5203 90.8947 49.4601 93.959 49.4601V47.4601C90.4505 47.4601 86.6752 48.6734 83.7722 51.5096C80.8561 54.3586 78.9128 58.7539 78.9128 64.9374H80.9128ZM93.959 49.4601C97.0234 49.4601 100.271 50.5203 102.748 52.9402C105.212 55.3473 107.005 59.1907 107.005 64.9374H109.005C109.005 58.7539 107.062 54.3586 104.146 51.5096C101.243 48.6734 97.4676 47.4601 93.959 47.4601V49.4601ZM107.005 64.9374C107.005 72.1982 103.107 77.0719 97.9916 80.6274C92.8317 84.214 86.5886 86.356 82.0593 88.186L82.8085 90.0403C87.1932 88.2688 93.7357 86.0213 99.1331 82.2696C104.575 78.4868 109.005 73.0735 109.005 64.9374H107.005ZM81.4852 89.4294L81.7103 90.1047L83.6077 89.4722L83.3826 88.7969L81.4852 89.4294ZM82.9565 90.7432C89.1196 88.8228 91.6232 88.4024 95.3096 88.4024V86.4024C91.3427 86.4024 88.6239 86.8824 82.3615 88.8337L82.9565 90.7432ZM95.3096 88.4024C97.1166 88.4024 98.6513 89.3093 100.357 90.4048C101.953 91.4291 103.822 92.7243 105.979 92.7243V90.7243C104.535 90.7243 103.208 89.8585 101.438 88.7219C99.7789 87.6565 97.7796 86.4024 95.3096 86.4024V88.4024ZM105.979 92.7243C107.91 92.7243 110.349 91.8164 112.238 88.6842L110.525 87.6512C108.993 90.1916 107.2 90.7243 105.979 90.7243V92.7243ZM111.896 87.3102L111.446 87.0401L110.417 88.7551L110.867 89.0252L111.896 87.3102ZM110.204 87.2116C109.512 87.9455 108.945 88.3722 108.423 88.6221C107.914 88.8659 107.392 88.9685 106.745 88.9685V90.9685C107.628 90.9685 108.457 90.8236 109.287 90.4258C110.105 90.0342 110.865 89.4254 111.659 88.5836L110.204 87.2116ZM106.745 88.9685C106.47 88.9685 105.995 88.8125 105.236 88.4003C104.502 88.0017 103.703 87.4824 102.756 86.9076C100.957 85.8164 98.6857 84.5566 96.3451 84.5566V86.5566C98.0562 86.5566 99.8813 87.5028 101.718 88.6175C102.589 89.1457 103.492 89.7294 104.282 90.158C105.046 90.5731 105.917 90.9685 106.745 90.9685V88.9685ZM96.3451 84.5566C93.8502 84.5566 92.3029 84.8895 90.8516 85.3732L91.484 87.2706C92.7339 86.854 94.0678 86.5566 96.3451 86.5566V84.5566ZM91.4972 87.2661C101.294 83.8486 111.301 76.2704 111.301 64.9374H109.301C109.301 74.9439 100.4 82.0422 90.8384 85.3777L91.4972 87.2661ZM111.301 64.9374C111.301 54.9204 104.312 46.6948 93.959 46.6948V48.6948C103.055 48.6948 109.301 55.8659 109.301 64.9374H111.301ZM93.959 46.6948C83.6061 46.6948 76.6168 54.9204 76.6168 64.9374H78.6168C78.6168 55.8659 84.8633 48.6948 93.959 48.6948V46.6948ZM124.881 62.6864L124.152 62.0015L122.568 63.6864H124.881V62.6864ZM136.856 49.9458L137.585 50.6306L137.856 50.342V49.9458H136.856ZM136.856 48.235H137.856V47.235H136.856V48.235ZM117.723 48.235V47.235H116.917L116.746 48.0219L117.723 48.235ZM115.877 56.6988L114.9 56.4857L114.687 57.4589L115.66 57.6749L115.877 56.6988ZM116.687 56.8788L116.47 57.855L117.428 58.0679L117.659 57.114L116.687 56.8788ZM125.781 49.9007L125.786 48.9007H125.781V49.9007ZM135.55 49.9458L136.284 50.6252L137.83 48.9563L135.555 48.9458L135.55 49.9458ZM123.71 62.7314L122.976 62.052L122.475 62.5936L122.845 63.2325L123.71 62.7314ZM124.205 63.5868L123.34 64.0879L123.629 64.5868H124.205V63.5868ZM116.777 72.2307L117.723 71.9072L117.329 70.7528L116.274 71.3663L116.777 72.2307ZM114.301 73.6713L113.798 72.807L113.018 73.2607L113.39 74.0829L114.301 73.6713ZM126.997 83.2701C130.177 83.2701 133.391 82.5074 135.841 80.7734C138.331 79.011 139.972 76.2801 139.972 72.5458H137.972C137.972 75.6095 136.664 77.7408 134.686 79.141C132.667 80.5697 129.894 81.2701 126.997 81.2701V83.2701ZM139.972 72.5458C139.972 70.1138 139.542 68.1627 138.707 66.6177C137.866 65.0592 136.649 63.9801 135.197 63.2458C132.367 61.8157 128.601 61.6864 124.881 61.6864V63.6864C128.679 63.6864 131.958 63.8498 134.295 65.0308C135.425 65.6022 136.322 66.4082 136.948 67.5678C137.581 68.7409 137.972 70.3408 137.972 72.5458H139.972ZM125.609 63.3713L137.585 50.6306L136.127 49.2609L124.152 62.0015L125.609 63.3713ZM137.856 49.9458V48.235H135.856V49.9458H137.856ZM136.856 47.235H117.723V49.235H136.856V47.235ZM116.746 48.0219L114.9 56.4857L116.854 56.9118L118.7 48.4481L116.746 48.0219ZM115.66 57.6749L116.47 57.855L116.904 55.9027L116.094 55.7226L115.66 57.6749ZM117.659 57.114C118.317 54.3944 119.133 52.9346 120.259 52.0998C121.4 51.2547 123.055 50.9007 125.781 50.9007V48.9007C122.97 48.9007 120.753 49.2446 119.069 50.4929C117.37 51.7516 116.408 53.7808 115.715 56.6437L117.659 57.114ZM125.777 50.9007L135.546 50.9457L135.555 48.9458L125.786 48.9007L125.777 50.9007ZM134.817 49.2663L122.976 62.052L124.444 63.4109L136.284 50.6252L134.817 49.2663ZM122.845 63.2325L123.34 64.0879L125.071 63.0858L124.576 62.2304L122.845 63.2325ZM124.205 64.5868C127.75 64.5868 130.688 64.7725 132.745 65.8512C133.736 66.3709 134.514 67.0965 135.057 68.1338C135.607 69.1853 135.946 70.618 135.946 72.5908H137.946C137.946 70.3993 137.571 68.6243 136.829 67.2068C136.08 65.7749 134.99 64.7701 133.674 64.0799C131.116 62.7388 127.684 62.5868 124.205 62.5868V64.5868ZM135.946 72.5908C135.946 75.3533 134.989 77.2829 133.476 78.5412C131.936 79.8223 129.701 80.5048 126.997 80.5048V82.5048C130.01 82.5048 132.75 81.7466 134.755 80.0789C136.787 78.3884 137.946 75.861 137.946 72.5908H135.946ZM126.997 80.5048C124.117 80.5048 122.287 79.5984 120.947 78.1611C119.556 76.6684 118.62 74.5291 117.723 71.9072L115.831 72.5542C116.735 75.1995 117.78 77.6973 119.484 79.5248C121.239 81.4078 123.619 82.5048 126.997 82.5048V80.5048ZM116.274 71.3663L113.798 72.807L114.804 74.5356L117.28 73.095L116.274 71.3663ZM113.39 74.0829C114.702 76.9896 116.424 79.3025 118.693 80.8844C120.969 82.4717 123.721 83.2701 126.997 83.2701V81.2701C124.06 81.2701 121.724 80.5603 119.836 79.2439C117.941 77.922 116.421 75.9355 115.212 73.2597L113.39 74.0829Z" fill="#00226D"/>
<path d="M64.5783 146H82.9485L84.4254 139.228L83.777 139.084C82.6964 143.587 80.8954 144.667 76.3569 144.667H65.3708C65.3708 136.743 83.2007 133.249 83.2007 125.829C83.2007 121.002 79.3105 118.769 75.0241 118.769C70.1254 118.769 66.9917 121.182 65.0466 125.649L66.8476 126.801C68.2524 122.551 70.1614 119.417 75.0241 119.417C78.446 119.417 81.94 121.218 81.94 125.18C81.94 132.529 64.5783 133.825 64.5783 146ZM86.7827 132.456C86.7827 140.057 89.4842 146.216 96.8323 146.216C104.18 146.216 106.882 140.057 106.882 132.456C106.882 124.856 104.18 118.733 96.8323 118.733C89.4842 118.733 86.7827 124.856 86.7827 132.456ZM96.8323 119.345C101.515 119.345 105.225 122.479 105.225 132.456C105.225 142.434 101.515 145.604 96.8323 145.604C92.1497 145.604 88.4396 142.434 88.4396 132.456C88.4396 122.479 92.1497 119.345 96.8323 119.345ZM109.392 146H127.762L129.239 139.228L128.591 139.084C127.51 143.587 125.709 144.667 121.171 144.667H110.185C110.185 136.743 128.015 133.249 128.015 125.829C128.015 121.002 124.124 118.769 119.838 118.769C114.939 118.769 111.806 121.182 109.861 125.649L111.662 126.801C113.066 122.551 114.975 119.417 119.838 119.417C123.26 119.417 126.754 121.218 126.754 125.18C126.754 132.529 109.392 133.825 109.392 146ZM131.236 146H149.607L151.083 139.228L150.435 139.084C149.355 143.587 147.553 144.667 143.015 144.667H132.029C132.029 136.743 149.859 133.249 149.859 125.829C149.859 121.002 145.969 118.769 141.682 118.769C136.784 118.769 133.65 121.182 131.705 125.649L133.506 126.801C134.91 122.551 136.82 119.417 141.682 119.417C145.104 119.417 148.598 121.218 148.598 125.18C148.598 132.529 131.236 133.825 131.236 146Z" fill="#00226D"/>
<path d="M64.5783 146H63.5783V147H64.5783V146ZM82.9485 146V147H83.754L83.9256 146.213L82.9485 146ZM84.4254 139.228L85.4024 139.441L85.6146 138.468L84.6423 138.252L84.4254 139.228ZM83.777 139.084L83.9939 138.108L83.0341 137.895L82.8046 138.851L83.777 139.084ZM65.3708 144.667H64.3708V145.667H65.3708V144.667ZM65.0466 125.649L64.1298 125.249L63.7893 126.031L64.5075 126.491L65.0466 125.649ZM66.8476 126.801L66.3085 127.644L67.393 128.338L67.7971 127.115L66.8476 126.801ZM64.5783 147H82.9485V145H64.5783V147ZM83.9256 146.213L85.4024 139.441L83.4483 139.015L81.9715 145.787L83.9256 146.213ZM84.6423 138.252L83.9939 138.108L83.5601 140.06L84.2084 140.204L84.6423 138.252ZM82.8046 138.851C82.2823 141.027 81.6371 142.133 80.7779 142.754C79.8973 143.39 78.5912 143.667 76.3569 143.667V145.667C78.6611 145.667 80.5247 145.404 81.9494 144.375C83.3955 143.33 84.191 141.644 84.7494 139.318L82.8046 138.851ZM76.3569 143.667H65.3708V145.667H76.3569V143.667ZM66.3708 144.667C66.3708 143.093 67.2498 141.636 68.8385 140.156C70.4273 138.675 72.57 137.313 74.8165 135.906C77.0199 134.527 79.3322 133.098 81.0814 131.534C82.8237 129.976 84.2007 128.115 84.2007 125.829H82.2007C82.2007 127.253 81.3489 128.611 79.7481 130.043C78.1542 131.468 76.009 132.8 73.755 134.211C71.544 135.596 69.2292 137.058 67.4749 138.693C65.7205 140.328 64.3708 142.279 64.3708 144.667H66.3708ZM84.2007 125.829C84.2007 123.112 83.0898 121.052 81.33 119.697C79.6029 118.366 77.3255 117.769 75.0241 117.769V119.769C77.0092 119.769 78.82 120.288 80.1096 121.281C81.3665 122.249 82.2007 123.719 82.2007 125.829H84.2007ZM75.0241 117.769C72.4024 117.769 70.1838 118.418 68.3495 119.718C66.5232 121.012 65.1535 122.899 64.1298 125.249L65.9634 126.048C66.8848 123.932 68.0545 122.379 69.506 121.35C70.9495 120.327 72.7471 119.769 75.0241 119.769V117.769ZM64.5075 126.491L66.3085 127.644L67.3866 125.959L65.5856 124.806L64.5075 126.491ZM67.7971 127.115C68.4885 125.023 69.2607 123.355 70.3609 122.208C71.4167 121.106 72.8408 120.417 75.0241 120.417V118.417C72.3448 118.417 70.3829 119.295 68.9174 120.823C67.4962 122.305 66.6114 124.329 65.8981 126.488L67.7971 127.115ZM75.0241 120.417C76.5775 120.417 78.0859 120.829 79.1774 121.622C80.2345 122.39 80.94 123.537 80.94 125.18H82.94C82.94 122.861 81.8985 121.127 80.3531 120.004C78.8422 118.906 76.8926 118.417 75.0241 118.417V120.417ZM80.94 125.18C80.94 126.569 80.1368 127.772 78.5902 129.051C77.0261 130.343 74.9604 131.511 72.7219 132.937C68.3846 135.699 63.5783 139.33 63.5783 146H65.5783C65.5783 140.496 69.4529 137.39 73.7964 134.624C75.8984 133.285 78.173 131.99 79.8643 130.592C81.5729 129.18 82.94 127.466 82.94 125.18H80.94ZM85.7827 132.456C85.7827 136.348 86.4697 140.007 88.2097 142.726C89.9913 145.509 92.8244 147.216 96.8323 147.216V145.216C93.492 145.216 91.3004 143.844 89.8942 141.647C88.4464 139.386 87.7827 136.165 87.7827 132.456H85.7827ZM96.8323 147.216C100.84 147.216 103.673 145.509 105.455 142.726C107.195 140.007 107.882 136.348 107.882 132.456H105.882C105.882 136.165 105.218 139.386 103.77 141.647C102.364 143.844 100.173 145.216 96.8323 145.216V147.216ZM107.882 132.456C107.882 128.565 107.195 124.914 105.454 122.204C103.671 119.429 100.838 117.733 96.8323 117.733V119.733C100.175 119.733 102.366 121.098 103.771 123.285C105.218 125.537 105.882 128.748 105.882 132.456H107.882ZM96.8323 117.733C92.8269 117.733 89.9933 119.429 88.2106 122.204C86.4697 124.914 85.7827 128.565 85.7827 132.456H87.7827C87.7827 128.748 88.4464 125.537 89.8933 123.285C91.2984 121.098 93.4896 119.733 96.8323 119.733V117.733ZM96.8323 120.345C98.9278 120.345 100.697 121.031 101.983 122.757C103.31 124.538 104.225 127.562 104.225 132.456H106.225C106.225 127.373 105.285 123.842 103.586 121.562C101.847 119.226 99.4193 118.345 96.8323 118.345V120.345ZM104.225 132.456C104.225 137.35 103.31 140.385 101.981 142.176C100.694 143.912 98.9243 144.604 96.8323 144.604V146.604C99.4229 146.604 101.849 145.711 103.588 143.367C105.285 141.079 106.225 137.54 106.225 132.456H104.225ZM96.8323 144.604C94.7403 144.604 92.9706 143.912 91.6831 142.176C90.3546 140.385 89.4396 137.35 89.4396 132.456H87.4396C87.4396 137.54 88.3797 141.079 90.0768 143.367C91.8151 145.711 94.2417 146.604 96.8323 146.604V144.604ZM89.4396 132.456C89.4396 127.562 90.3547 124.538 91.6819 122.757C92.9677 121.031 94.7367 120.345 96.8323 120.345V118.345C94.2452 118.345 91.8179 119.226 90.0781 121.562C88.3796 123.842 87.4396 127.373 87.4396 132.456H89.4396ZM109.392 146H108.392V147H109.392V146ZM127.762 146V147H128.568L128.74 146.213L127.762 146ZM129.239 139.228L130.216 139.441L130.429 138.468L129.456 138.252L129.239 139.228ZM128.591 139.084L128.808 138.108L127.848 137.895L127.619 138.851L128.591 139.084ZM110.185 144.667H109.185V145.667H110.185V144.667ZM109.861 125.649L108.944 125.249L108.603 126.031L109.321 126.491L109.861 125.649ZM111.662 126.801L111.122 127.644L112.207 128.338L112.611 127.115L111.662 126.801ZM109.392 147H127.762V145H109.392V147ZM128.74 146.213L130.216 139.441L128.262 139.015L126.785 145.787L128.74 146.213ZM129.456 138.252L128.808 138.108L128.374 140.06L129.022 140.204L129.456 138.252ZM127.619 138.851C127.096 141.027 126.451 142.133 125.592 142.754C124.711 143.39 123.405 143.667 121.171 143.667V145.667C123.475 145.667 125.339 145.404 126.763 144.375C128.209 143.33 129.005 141.644 129.563 139.318L127.619 138.851ZM121.171 143.667H110.185V145.667H121.171V143.667ZM111.185 144.667C111.185 143.093 112.064 141.636 113.652 140.156C115.241 138.675 117.384 137.313 119.63 135.906C121.834 134.527 124.146 133.098 125.895 131.534C127.638 129.976 129.015 128.115 129.015 125.829H127.015C127.015 127.253 126.163 128.611 124.562 130.043C122.968 131.468 120.823 132.8 118.569 134.211C116.358 135.596 114.043 137.058 112.289 138.693C110.534 140.328 109.185 142.279 109.185 144.667H111.185ZM129.015 125.829C129.015 123.112 127.904 121.052 126.144 119.697C124.417 118.366 122.139 117.769 119.838 117.769V119.769C121.823 119.769 123.634 120.288 124.924 121.281C126.18 122.249 127.015 123.719 127.015 125.829H129.015ZM119.838 117.769C117.216 117.769 114.998 118.418 113.163 119.718C111.337 121.012 109.967 122.899 108.944 125.249L110.777 126.048C111.699 123.932 112.868 122.379 114.32 121.35C115.763 120.327 117.561 119.769 119.838 119.769V117.769ZM109.321 126.491L111.122 127.644L112.201 125.959L110.4 124.806L109.321 126.491ZM112.611 127.115C113.302 125.023 114.075 123.355 115.175 122.208C116.231 121.106 117.655 120.417 119.838 120.417V118.417C117.159 118.417 115.197 119.295 113.731 120.823C112.31 122.305 111.425 124.329 110.712 126.488L112.611 127.115ZM119.838 120.417C121.391 120.417 122.9 120.829 123.991 121.622C125.048 122.39 125.754 123.537 125.754 125.18H127.754C127.754 122.861 126.712 121.127 125.167 120.004C123.656 118.906 121.707 118.417 119.838 118.417V120.417ZM125.754 125.18C125.754 126.569 124.951 127.772 123.404 129.051C121.84 130.343 119.774 131.511 117.536 132.937C113.199 135.699 108.392 139.33 108.392 146H110.392C110.392 140.496 114.267 137.39 118.61 134.624C120.712 133.285 122.987 131.99 124.678 130.592C126.387 129.18 127.754 127.466 127.754 125.18H125.754ZM131.236 146H130.236V147H131.236V146ZM149.607 146V147H150.412L150.584 146.213L149.607 146ZM151.083 139.228L152.06 139.441L152.273 138.468L151.3 138.252L151.083 139.228ZM150.435 139.084L150.652 138.108L149.692 137.895L149.463 138.851L150.435 139.084ZM132.029 144.667H131.029V145.667H132.029V144.667ZM131.705 125.649L130.788 125.249L130.447 126.031L131.166 126.491L131.705 125.649ZM133.506 126.801L132.967 127.644L134.051 128.338L134.455 127.115L133.506 126.801ZM131.236 147H149.607V145H131.236V147ZM150.584 146.213L152.06 139.441L150.106 139.015L148.63 145.787L150.584 146.213ZM151.3 138.252L150.652 138.108L150.218 140.06L150.867 140.204L151.3 138.252ZM149.463 138.851C148.94 141.027 148.295 142.133 147.436 142.754C146.555 143.39 145.249 143.667 143.015 143.667V145.667C145.319 145.667 147.183 145.404 148.607 144.375C150.054 143.33 150.849 141.644 151.407 139.318L149.463 138.851ZM143.015 143.667H132.029V145.667H143.015V143.667ZM133.029 144.667C133.029 143.093 133.908 141.636 135.497 140.156C137.085 138.675 139.228 137.313 141.475 135.906C143.678 134.527 145.99 133.098 147.739 131.534C149.482 129.976 150.859 128.115 150.859 125.829H148.859C148.859 127.253 148.007 128.611 146.406 130.043C144.812 131.468 142.667 132.8 140.413 134.211C138.202 135.596 135.887 137.058 134.133 138.693C132.379 140.328 131.029 142.279 131.029 144.667H133.029ZM150.859 125.829C150.859 123.112 149.748 121.052 147.988 119.697C146.261 118.366 143.984 117.769 141.682 117.769V119.769C143.667 119.769 145.478 120.288 146.768 121.281C148.025 122.249 148.859 123.719 148.859 125.829H150.859ZM141.682 117.769C139.061 117.769 136.842 118.418 135.008 119.718C133.181 121.012 131.812 122.899 130.788 125.249L132.622 126.048C133.543 123.932 134.713 122.379 136.164 121.35C137.608 120.327 139.405 119.769 141.682 119.769V117.769ZM131.166 126.491L132.967 127.644L134.045 125.959L132.244 124.806L131.166 126.491ZM134.455 127.115C135.147 125.023 135.919 123.355 137.019 122.208C138.075 121.106 139.499 120.417 141.682 120.417V118.417C139.003 118.417 137.041 119.295 135.575 120.823C134.154 122.305 133.27 124.329 132.556 126.488L134.455 127.115ZM141.682 120.417C143.236 120.417 144.744 120.829 145.836 121.622C146.893 122.39 147.598 123.537 147.598 125.18H149.598C149.598 122.861 148.557 121.127 147.011 120.004C145.5 118.906 143.551 118.417 141.682 118.417V120.417ZM147.598 125.18C147.598 126.569 146.795 127.772 145.248 129.051C143.684 130.343 141.618 131.511 139.38 132.937C135.043 135.699 130.236 139.33 130.236 146H132.236C132.236 140.496 136.111 137.39 140.454 134.624C142.556 133.285 144.831 131.99 146.522 130.592C148.231 129.18 149.598 127.466 149.598 125.18H147.598Z" fill="#00226D"/>
<path d="M3.29903 223.725H7.8824V225.735H3.29903V223.725ZM17.9834 230L25.7286 211.544H25.8756L33.5963 230H30.8757L25.0913 215.269L26.7825 214.167L20.3118 230H17.9834ZM22.5177 223.284H29.1109L29.8953 225.343H21.8315L22.5177 223.284ZM36.3701 211.029H38.6495V230H36.3701V211.029ZM48.5738 230.245C47.8058 230.245 47.0623 230.065 46.3434 229.706C45.6408 229.346 45.0934 228.864 44.7012 228.26L44.8483 227.549V234.877H42.5933V219.706H44.5541L44.8728 222.304L44.6277 221.593C45.1179 220.972 45.7388 220.457 46.4904 220.049C47.2421 219.64 48.0836 219.436 49.015 219.436C49.9627 219.436 50.8124 219.665 51.564 220.122C52.332 220.58 52.9366 221.217 53.3777 222.034C53.8189 222.851 54.0395 223.807 54.0395 224.902C54.0395 225.997 53.8026 226.944 53.3287 227.745C52.8549 228.546 52.2013 229.167 51.3679 229.608C50.5509 230.033 49.6195 230.245 48.5738 230.245ZM48.1326 228.431C48.7862 228.431 49.3826 228.284 49.9218 227.99C50.4774 227.68 50.9186 227.263 51.2454 226.74C51.5722 226.201 51.7356 225.596 51.7356 224.926C51.7356 224.24 51.5803 223.636 51.2699 223.113C50.9594 222.573 50.5428 222.149 50.0199 221.838C49.5133 221.528 48.9414 221.372 48.3042 221.372C47.7159 221.372 47.1849 221.487 46.711 221.716C46.2372 221.944 45.845 222.263 45.5345 222.672C45.2241 223.064 45.0035 223.521 44.8728 224.044V225.735C44.9545 226.258 45.1506 226.724 45.461 227.132C45.7715 227.541 46.1555 227.859 46.613 228.088C47.0868 228.317 47.5934 228.431 48.1326 228.431ZM57.1222 230V211.029H59.3526V222.206L59.3036 221.789C59.6468 221.119 60.1696 220.564 60.8723 220.122C61.5912 219.681 62.4327 219.461 63.3968 219.461C64.3608 219.461 65.1452 219.747 65.7497 220.319C66.3707 220.874 66.6893 221.601 66.7056 222.5V230H64.4017V223.309C64.3854 222.753 64.222 222.304 63.9115 221.961C63.6174 221.601 63.1517 221.421 62.5144 221.421C61.9262 221.421 61.3951 221.593 60.9213 221.936C60.4474 222.263 60.0716 222.712 59.7938 223.284C59.5324 223.856 59.4017 224.51 59.4017 225.245V230H57.1222ZM74.8855 230.245C73.9377 230.245 73.0717 230.041 72.2874 229.632C71.5194 229.224 70.9067 228.627 70.4492 227.843C70.008 227.042 69.7874 226.07 69.7874 224.926C69.7874 223.799 70.0243 222.827 70.4982 222.01C70.972 221.176 71.6011 220.539 72.3854 220.098C73.1861 219.657 74.0603 219.436 75.008 219.436C75.9557 219.436 76.7564 219.657 77.41 220.098C78.0636 220.523 78.562 221.029 78.9051 221.618L78.758 222.01L78.9786 219.853H81.0865V230H78.8071V227.353L79.0522 227.941C78.9868 228.105 78.8397 228.317 78.611 228.578C78.3986 228.824 78.1044 229.077 77.7286 229.338C77.3691 229.6 76.9525 229.82 76.4786 230C76.0048 230.163 75.4737 230.245 74.8855 230.245ZM75.4982 228.358C76.0701 228.358 76.5848 228.252 77.0423 228.039C77.4999 227.827 77.8757 227.533 78.1698 227.157C78.4803 226.765 78.6927 226.299 78.8071 225.76V223.774C78.6763 223.284 78.4476 222.859 78.1208 222.5C77.794 222.124 77.4018 221.838 76.9443 221.642C76.4868 221.43 75.9802 221.323 75.4247 221.323C74.8201 221.323 74.2645 221.471 73.758 221.765C73.2515 222.059 72.843 222.467 72.5325 222.99C72.2384 223.513 72.0913 224.126 72.0913 224.828C72.0913 225.482 72.2466 226.078 72.557 226.618C72.8675 227.157 73.2841 227.582 73.807 227.892C74.3299 228.203 74.8936 228.358 75.4982 228.358ZM107.223 228.48C106.977 228.693 106.634 228.905 106.193 229.118C105.752 229.314 105.262 229.493 104.723 229.657C104.2 229.82 103.652 229.951 103.08 230.049C102.525 230.147 102.002 230.196 101.512 230.196C100.09 230.196 98.8075 229.975 97.6637 229.534C96.5362 229.093 95.564 228.48 94.747 227.696C93.9463 226.912 93.3254 225.989 92.8842 224.926C92.4594 223.864 92.247 222.712 92.247 221.471C92.247 220 92.4839 218.685 92.9578 217.524C93.448 216.348 94.1097 215.359 94.9431 214.559C95.7928 213.742 96.765 213.129 97.8598 212.72C98.9545 212.296 100.115 212.083 101.34 212.083C102.37 212.083 103.325 212.206 104.208 212.451C105.09 212.696 105.866 213.006 106.536 213.382L105.727 215.564C105.401 215.368 104.992 215.188 104.502 215.024C104.028 214.861 103.538 214.73 103.031 214.632C102.525 214.518 102.051 214.461 101.61 214.461C100.564 214.461 99.6163 214.624 98.7666 214.951C97.917 215.261 97.1898 215.719 96.5852 216.323C95.9807 216.912 95.515 217.631 95.1882 218.48C94.8614 219.314 94.698 220.253 94.698 221.299C94.698 222.263 94.8614 223.145 95.1882 223.946C95.515 224.747 95.9807 225.441 96.5852 226.029C97.1898 226.601 97.9088 227.051 98.7421 227.377C99.5918 227.688 100.523 227.843 101.536 227.843C102.141 227.843 102.737 227.786 103.325 227.672C103.914 227.541 104.42 227.361 104.845 227.132V223.603H101.316V221.323H107.223V228.48ZM115.408 230.245C114.461 230.245 113.595 230.041 112.81 229.632C112.042 229.224 111.43 228.627 110.972 227.843C110.531 227.042 110.31 226.07 110.31 224.926C110.31 223.799 110.547 222.827 111.021 222.01C111.495 221.176 112.124 220.539 112.908 220.098C113.709 219.657 114.583 219.436 115.531 219.436C116.479 219.436 117.279 219.657 117.933 220.098C118.586 220.523 119.085 221.029 119.428 221.618L119.281 222.01L119.502 219.853H121.609V230H119.33V227.353L119.575 227.941C119.51 228.105 119.363 228.317 119.134 228.578C118.921 228.824 118.627 229.077 118.252 229.338C117.892 229.6 117.475 229.82 117.001 230C116.528 230.163 115.997 230.245 115.408 230.245ZM116.021 228.358C116.593 228.358 117.108 228.252 117.565 228.039C118.023 227.827 118.399 227.533 118.693 227.157C119.003 226.765 119.216 226.299 119.33 225.76V223.774C119.199 223.284 118.97 222.859 118.644 222.5C118.317 222.124 117.925 221.838 117.467 221.642C117.01 221.43 116.503 221.323 115.948 221.323C115.343 221.323 114.787 221.471 114.281 221.765C113.774 222.059 113.366 222.467 113.055 222.99C112.761 223.513 112.614 224.126 112.614 224.828C112.614 225.482 112.769 226.078 113.08 226.618C113.39 227.157 113.807 227.582 114.33 227.892C114.853 228.203 115.417 228.358 116.021 228.358ZM127.588 219.853L127.784 222.132L127.686 221.936C128.062 221.168 128.593 220.564 129.279 220.122C129.982 219.681 130.783 219.461 131.681 219.461C132.253 219.461 132.76 219.551 133.201 219.73C133.642 219.91 134.002 220.171 134.28 220.515C134.574 220.841 134.762 221.25 134.843 221.74L134.721 221.814C135.113 221.078 135.652 220.506 136.338 220.098C137.041 219.673 137.776 219.461 138.544 219.461C139.541 219.461 140.325 219.747 140.897 220.319C141.485 220.874 141.788 221.601 141.804 222.5V230H139.525V223.309C139.508 222.786 139.378 222.353 139.132 222.01C138.904 221.65 138.495 221.454 137.907 221.421C137.319 221.421 136.788 221.601 136.314 221.961C135.856 222.32 135.497 222.786 135.235 223.358C134.974 223.913 134.835 224.518 134.819 225.172V230H132.539V223.309C132.523 222.786 132.384 222.353 132.123 222.01C131.878 221.65 131.461 221.454 130.873 221.421C130.268 221.421 129.737 221.601 129.279 221.961C128.822 222.32 128.462 222.786 128.201 223.358C127.956 223.93 127.833 224.542 127.833 225.196V230H125.554V219.853H127.588ZM150.485 230.245C149.325 230.245 148.329 230.016 147.495 229.559C146.662 229.085 146.016 228.448 145.559 227.647C145.118 226.83 144.897 225.899 144.897 224.853C144.897 223.856 145.15 222.949 145.657 222.132C146.163 221.315 146.842 220.662 147.691 220.171C148.541 219.681 149.489 219.436 150.534 219.436C151.874 219.436 152.985 219.828 153.868 220.613C154.75 221.397 155.347 222.475 155.657 223.848L147.299 226.789L146.76 225.441L153.623 222.941L153.132 223.26C152.936 222.721 152.61 222.255 152.152 221.863C151.695 221.454 151.098 221.25 150.363 221.25C149.742 221.25 149.186 221.405 148.696 221.716C148.206 222.01 147.822 222.418 147.544 222.941C147.266 223.464 147.128 224.06 147.128 224.73C147.128 225.433 147.275 226.054 147.569 226.593C147.863 227.116 148.263 227.533 148.77 227.843C149.293 228.137 149.881 228.284 150.534 228.284C150.976 228.284 151.4 228.203 151.809 228.039C152.234 227.876 152.626 227.663 152.985 227.402L154.039 229.093C153.533 229.436 152.961 229.714 152.324 229.926C151.703 230.139 151.09 230.245 150.485 230.245ZM164.494 230.245C163.726 230.245 162.982 230.065 162.263 229.706C161.561 229.346 161.013 228.864 160.621 228.26L160.768 227.549V234.877H158.513V219.706H160.474L160.793 222.304L160.548 221.593C161.038 220.972 161.659 220.457 162.41 220.049C163.162 219.64 164.003 219.436 164.935 219.436C165.883 219.436 166.732 219.665 167.484 220.122C168.252 220.58 168.856 221.217 169.298 222.034C169.739 222.851 169.959 223.807 169.959 224.902C169.959 225.997 169.722 226.944 169.249 227.745C168.775 228.546 168.121 229.167 167.288 229.608C166.471 230.033 165.539 230.245 164.494 230.245ZM164.052 228.431C164.706 228.431 165.302 228.284 165.842 227.99C166.397 227.68 166.838 227.263 167.165 226.74C167.492 226.201 167.655 225.596 167.655 224.926C167.655 224.24 167.5 223.636 167.19 223.113C166.879 222.573 166.463 222.149 165.94 221.838C165.433 221.528 164.861 221.372 164.224 221.372C163.636 221.372 163.105 221.487 162.631 221.716C162.157 221.944 161.765 222.263 161.454 222.672C161.144 223.064 160.923 223.521 160.793 224.044V225.735C160.874 226.258 161.07 226.724 161.381 227.132C161.691 227.541 162.075 227.859 162.533 228.088C163.007 228.317 163.513 228.431 164.052 228.431ZM173.042 211.029H175.322V230H173.042V211.029ZM183.481 230.245C182.533 230.245 181.667 230.041 180.883 229.632C180.115 229.224 179.502 228.627 179.045 227.843C178.604 227.042 178.383 226.07 178.383 224.926C178.383 223.799 178.62 222.827 179.094 222.01C179.568 221.176 180.197 220.539 180.981 220.098C181.782 219.657 182.656 219.436 183.604 219.436C184.551 219.436 185.352 219.657 186.006 220.098C186.659 220.523 187.158 221.029 187.501 221.618L187.354 222.01L187.574 219.853H189.682V230H187.403V227.353L187.648 227.941C187.582 228.105 187.435 228.317 187.207 228.578C186.994 228.824 186.7 229.077 186.324 229.338C185.965 229.6 185.548 229.82 185.074 230C184.6 230.163 184.069 230.245 183.481 230.245ZM184.094 228.358C184.666 228.358 185.18 228.252 185.638 228.039C186.095 227.827 186.471 227.533 186.765 227.157C187.076 226.765 187.288 226.299 187.403 225.76V223.774C187.272 223.284 187.043 222.859 186.716 222.5C186.39 222.124 185.997 221.838 185.54 221.642C185.082 221.43 184.576 221.323 184.02 221.323C183.416 221.323 182.86 221.471 182.354 221.765C181.847 222.059 181.439 222.467 181.128 222.99C180.834 223.513 180.687 224.126 180.687 224.828C180.687 225.482 180.842 226.078 181.153 226.618C181.463 227.157 181.88 227.582 182.403 227.892C182.925 228.203 183.489 228.358 184.094 228.358ZM194.485 234.877L201.176 219.853H203.284L196.739 234.877H194.485ZM196.985 230.074L192.107 219.853H194.681L198.774 228.922L196.985 230.074ZM212.758 212.279H224.523V214.559H219.768V230H217.39V214.559H212.758V212.279ZM228.309 219.853L228.53 222.794L228.407 222.402C228.669 221.781 229.044 221.258 229.535 220.833C230.041 220.392 230.564 220.057 231.103 219.828C231.659 219.583 232.141 219.461 232.549 219.461L232.427 221.716C231.659 221.667 230.981 221.814 230.392 222.157C229.821 222.5 229.363 222.957 229.02 223.529C228.693 224.101 228.53 224.714 228.53 225.368V230H226.275V219.853H228.309ZM239.466 230.245C238.519 230.245 237.653 230.041 236.868 229.632C236.1 229.224 235.487 228.627 235.03 227.843C234.589 227.042 234.368 226.07 234.368 224.926C234.368 223.799 234.605 222.827 235.079 222.01C235.553 221.176 236.182 220.539 236.966 220.098C237.767 219.657 238.641 219.436 239.589 219.436C240.537 219.436 241.337 219.657 241.991 220.098C242.644 220.523 243.143 221.029 243.486 221.618L243.339 222.01L243.559 219.853H245.667V230H243.388V227.353L243.633 227.941C243.568 228.105 243.421 228.317 243.192 228.578C242.979 228.824 242.685 229.077 242.309 229.338C241.95 229.6 241.533 229.82 241.059 230C240.586 230.163 240.055 230.245 239.466 230.245ZM240.079 228.358C240.651 228.358 241.166 228.252 241.623 228.039C242.081 227.827 242.457 227.533 242.751 227.157C243.061 226.765 243.274 226.299 243.388 225.76V223.774C243.257 223.284 243.028 222.859 242.702 222.5C242.375 222.124 241.983 221.838 241.525 221.642C241.068 221.43 240.561 221.323 240.006 221.323C239.401 221.323 238.845 221.471 238.339 221.765C237.832 222.059 237.424 222.467 237.113 222.99C236.819 223.513 236.672 224.126 236.672 224.828C236.672 225.482 236.827 226.078 237.138 226.618C237.448 227.157 237.865 227.582 238.388 227.892C238.911 228.203 239.474 228.358 240.079 228.358ZM249.612 219.853H251.891V230H249.612V219.853ZM249.44 216.176C249.44 215.817 249.579 215.515 249.857 215.269C250.151 215.024 250.47 214.902 250.813 214.902C251.156 214.902 251.458 215.024 251.72 215.269C251.998 215.515 252.136 215.817 252.136 216.176C252.136 216.552 251.998 216.863 251.72 217.108C251.458 217.336 251.156 217.451 250.813 217.451C250.47 217.451 250.151 217.328 249.857 217.083C249.579 216.838 249.44 216.536 249.44 216.176ZM255.835 211.029H258.115V230H255.835V211.029ZM266.764 230.245C265.604 230.245 264.607 230.016 263.774 229.559C262.941 229.085 262.295 228.448 261.838 227.647C261.397 226.83 261.176 225.899 261.176 224.853C261.176 223.856 261.429 222.949 261.936 222.132C262.442 221.315 263.12 220.662 263.97 220.171C264.82 219.681 265.768 219.436 266.813 219.436C268.153 219.436 269.264 219.828 270.147 220.613C271.029 221.397 271.625 222.475 271.936 223.848L263.578 226.789L263.039 225.441L269.902 222.941L269.411 223.26C269.215 222.721 268.888 222.255 268.431 221.863C267.973 221.454 267.377 221.25 266.642 221.25C266.021 221.25 265.465 221.405 264.975 221.716C264.485 222.01 264.101 222.418 263.823 222.941C263.545 223.464 263.406 224.06 263.406 224.73C263.406 225.433 263.553 226.054 263.848 226.593C264.142 227.116 264.542 227.533 265.049 227.843C265.571 228.137 266.16 228.284 266.813 228.284C267.254 228.284 267.679 228.203 268.088 228.039C268.513 227.876 268.905 227.663 269.264 227.402L270.318 229.093C269.812 229.436 269.24 229.714 268.603 229.926C267.982 230.139 267.369 230.245 266.764 230.245ZM276.826 219.853L277.047 222.794L276.924 222.402C277.186 221.781 277.562 221.258 278.052 220.833C278.558 220.392 279.081 220.057 279.621 219.828C280.176 219.583 280.658 219.461 281.067 219.461L280.944 221.716C280.176 221.667 279.498 221.814 278.91 222.157C278.338 222.5 277.88 222.957 277.537 223.529C277.21 224.101 277.047 224.714 277.047 225.368V230H274.792V219.853H276.826Z" fill="white"/>
<path d="M3.76472 255.523H9.90856V259.51H3.76472V255.523ZM23.0086 265L33.8584 240H34.1198L44.9696 265H39.4794L32.5512 247.418L35.9826 245.065L27.6819 265H23.0086ZM30.427 256.307H37.6493L39.316 260.294H28.9564L30.427 256.307ZM47.7242 239.215H52.2994V265H47.7242V239.215ZM65.9655 265.392C65.1158 265.392 64.277 265.24 63.4491 264.935C62.643 264.608 61.9676 264.15 61.423 263.562L61.5537 262.222V271.863H57.0112V250.392H60.9328L61.5864 253.17L61.2269 252.189C61.9676 251.558 62.7955 251.035 63.7106 250.621C64.6256 250.207 65.6823 250 66.8805 250C68.2095 250 69.3969 250.316 70.4426 250.948C71.4884 251.558 72.3054 252.451 72.8936 253.627C73.5037 254.782 73.8087 256.176 73.8087 257.81C73.8087 259.423 73.471 260.795 72.7956 261.928C72.1202 263.061 71.1943 263.922 70.0178 264.51C68.8413 265.098 67.4906 265.392 65.9655 265.392ZM65.0504 261.797C65.7912 261.797 66.4666 261.634 67.0766 261.307C67.7084 260.98 68.2095 260.523 68.5799 259.935C68.972 259.325 69.1681 258.638 69.1681 257.876C69.1681 257.07 68.9938 256.372 68.6452 255.784C68.3184 255.174 67.8609 254.706 67.2727 254.379C66.7062 254.03 66.0744 253.856 65.3772 253.856C64.7672 253.856 64.2226 253.943 63.7432 254.118C63.2857 254.27 62.8718 254.51 62.5014 254.837C62.1528 255.142 61.8478 255.534 61.5864 256.013V259.51C61.7607 259.967 62.0112 260.37 62.338 260.719C62.6648 261.068 63.057 261.34 63.5145 261.536C63.9938 261.71 64.5058 261.797 65.0504 261.797ZM77.4042 265V239.215H81.8814V253.595L81.8487 253.039C82.3498 252.146 83.0579 251.427 83.9729 250.882C84.888 250.316 86.01 250.033 87.339 250.033C88.6897 250.033 89.8118 250.436 90.705 251.242C91.62 252.026 92.0885 253.05 92.1102 254.314V265H87.535V256.013C87.5133 255.381 87.339 254.88 87.0122 254.51C86.7072 254.118 86.1843 253.921 85.4435 253.921C84.7464 253.921 84.1363 254.15 83.6134 254.608C83.0906 255.065 82.6875 255.686 82.4043 256.471C82.1211 257.255 81.9794 258.159 81.9794 259.183V265H77.4042ZM102.821 265.392C101.492 265.392 100.283 265.131 99.1936 264.608C98.1261 264.063 97.2764 263.235 96.6446 262.124C96.0128 261.013 95.6969 259.597 95.6969 257.876C95.6969 256.264 96.0237 254.869 96.6773 253.693C97.3309 252.516 98.1915 251.612 99.259 250.98C100.327 250.327 101.459 250 102.658 250C104.074 250 105.141 250.24 105.86 250.719C106.601 251.176 107.211 251.688 107.69 252.255L107.494 252.81L107.919 250.719H112.168V265H107.592V261.895L107.952 262.876C107.908 262.876 107.778 263.007 107.56 263.268C107.342 263.508 107.015 263.802 106.579 264.15C106.165 264.477 105.642 264.76 105.011 265C104.401 265.261 103.671 265.392 102.821 265.392ZM104.128 261.667C104.673 261.667 105.163 261.59 105.599 261.438C106.035 261.264 106.416 261.024 106.743 260.719C107.07 260.392 107.353 259.989 107.592 259.51V256.013C107.418 255.534 107.157 255.131 106.808 254.804C106.459 254.455 106.046 254.194 105.566 254.02C105.087 253.823 104.553 253.725 103.965 253.725C103.311 253.725 102.701 253.9 102.135 254.248C101.59 254.575 101.154 255.033 100.828 255.621C100.501 256.209 100.337 256.884 100.337 257.647C100.337 258.41 100.512 259.096 100.86 259.706C101.209 260.316 101.666 260.795 102.233 261.144C102.821 261.492 103.453 261.667 104.128 261.667ZM131.888 240.948L138.915 258.268L136.17 257.712L142.542 240.948H148.163L137.183 266.111L126.202 240.948H131.888ZM154.514 265.392C152.771 265.392 151.289 265.065 150.069 264.412C148.871 263.758 147.956 262.854 147.324 261.699C146.692 260.545 146.376 259.216 146.376 257.712C146.376 256.274 146.747 254.978 147.488 253.823C148.228 252.669 149.22 251.754 150.461 251.078C151.703 250.381 153.087 250.033 154.612 250.033C156.66 250.033 158.337 250.632 159.644 251.83C160.973 253.006 161.834 254.717 162.226 256.961L151.115 260.49L150.102 258.006L158.141 255.294L157.193 255.719C157.019 255.152 156.703 254.662 156.246 254.248C155.81 253.813 155.146 253.595 154.252 253.595C153.577 253.595 152.978 253.758 152.455 254.085C151.954 254.39 151.562 254.837 151.278 255.425C151.017 255.991 150.886 256.667 150.886 257.451C150.886 258.344 151.05 259.096 151.376 259.706C151.703 260.294 152.15 260.741 152.716 261.046C153.283 261.351 153.915 261.503 154.612 261.503C155.113 261.503 155.592 261.416 156.05 261.242C156.529 261.068 156.997 260.839 157.455 260.556L159.481 263.954C158.719 264.39 157.891 264.739 156.997 265C156.126 265.261 155.298 265.392 154.514 265.392ZM169.669 250.719L170.093 254.64L169.995 254.052C170.409 253.203 170.976 252.484 171.695 251.895C172.414 251.285 173.122 250.817 173.819 250.49C174.538 250.163 175.083 250 175.453 250L175.224 254.575C174.157 254.444 173.242 254.619 172.479 255.098C171.717 255.577 171.128 256.209 170.714 256.993C170.3 257.778 170.093 258.584 170.093 259.412V265H165.551V250.719H169.669ZM183.595 265.294C182.419 265.294 181.319 265.087 180.295 264.673C179.292 264.259 178.443 263.682 177.746 262.941L179.641 260.425C180.338 261.057 180.981 261.514 181.569 261.797C182.179 262.059 182.724 262.19 183.203 262.19C183.574 262.19 183.9 262.157 184.184 262.091C184.489 262.004 184.728 261.885 184.903 261.732C185.077 261.558 185.164 261.34 185.164 261.078C185.164 260.708 185.011 260.414 184.706 260.196C184.423 259.978 184.053 259.804 183.595 259.673C183.138 259.521 182.648 259.368 182.125 259.216C180.818 258.802 179.87 258.203 179.282 257.418C178.715 256.612 178.432 255.741 178.432 254.804C178.432 254.085 178.617 253.366 178.987 252.647C179.38 251.906 179.99 251.296 180.818 250.817C181.667 250.316 182.757 250.065 184.086 250.065C185.284 250.065 186.297 250.185 187.125 250.425C187.953 250.664 188.737 251.057 189.478 251.601L187.746 254.281C187.332 253.954 186.863 253.682 186.34 253.464C185.839 253.224 185.371 253.094 184.935 253.072C184.543 253.05 184.205 253.094 183.922 253.203C183.661 253.311 183.454 253.453 183.301 253.627C183.149 253.802 183.072 253.987 183.072 254.183C183.051 254.597 183.203 254.924 183.53 255.163C183.879 255.403 184.314 255.588 184.837 255.719C185.36 255.85 185.872 256.002 186.373 256.176C187.07 256.394 187.669 256.688 188.171 257.059C188.672 257.429 189.053 257.876 189.314 258.399C189.598 258.9 189.739 259.51 189.739 260.229C189.739 261.1 189.51 261.928 189.053 262.712C188.617 263.475 187.942 264.096 187.027 264.575C186.134 265.054 184.99 265.294 183.595 265.294ZM193.571 250.719H198.147V265H193.571V250.719ZM193.473 245.653C193.473 244.978 193.735 244.422 194.258 243.987C194.802 243.551 195.38 243.333 195.99 243.333C196.6 243.333 197.155 243.551 197.656 243.987C198.179 244.422 198.441 244.978 198.441 245.653C198.441 246.329 198.179 246.884 197.656 247.32C197.155 247.734 196.6 247.941 195.99 247.941C195.38 247.941 194.802 247.734 194.258 247.32C193.735 246.884 193.473 246.329 193.473 245.653ZM201.747 257.68C201.747 256.22 202.085 254.913 202.76 253.758C203.458 252.603 204.427 251.699 205.669 251.046C206.911 250.37 208.338 250.033 209.95 250.033C211.584 250.033 213 250.37 214.198 251.046C215.397 251.699 216.312 252.603 216.944 253.758C217.597 254.913 217.924 256.22 217.924 257.68C217.924 259.139 217.597 260.457 216.944 261.634C216.312 262.789 215.397 263.704 214.198 264.379C213 265.054 211.562 265.392 209.885 265.392C208.316 265.392 206.911 265.087 205.669 264.477C204.449 263.867 203.49 262.985 202.793 261.83C202.096 260.675 201.747 259.292 201.747 257.68ZM206.355 257.712C206.355 258.453 206.508 259.128 206.813 259.739C207.118 260.327 207.532 260.795 208.055 261.144C208.577 261.492 209.166 261.667 209.819 261.667C210.538 261.667 211.159 261.492 211.682 261.144C212.205 260.795 212.608 260.327 212.891 259.739C213.174 259.128 213.316 258.453 213.316 257.712C213.316 256.95 213.174 256.274 212.891 255.686C212.608 255.098 212.205 254.63 211.682 254.281C211.159 253.932 210.538 253.758 209.819 253.758C209.166 253.758 208.577 253.932 208.055 254.281C207.532 254.63 207.118 255.098 206.813 255.686C206.508 256.274 206.355 256.95 206.355 257.712ZM225.679 250.719L226.038 253.268L225.973 253.039C226.474 252.146 227.182 251.427 228.097 250.882C229.012 250.316 230.134 250.033 231.463 250.033C232.814 250.033 233.936 250.436 234.829 251.242C235.744 252.026 236.212 253.05 236.234 254.314V265H231.659V256.013C231.637 255.381 231.463 254.88 231.136 254.51C230.831 254.118 230.308 253.921 229.567 253.921C228.87 253.921 228.26 254.15 227.737 254.608C227.214 255.065 226.811 255.686 226.528 256.471C226.245 257.255 226.103 258.159 226.103 259.183V265H221.528V250.719H225.679ZM252.311 240.948H257.05V260.425H268.357V265H252.311V240.948ZM278.508 265.392C277.179 265.392 275.97 265.131 274.881 264.608C273.813 264.063 272.963 263.235 272.332 262.124C271.7 261.013 271.384 259.597 271.384 257.876C271.384 256.264 271.711 254.869 272.364 253.693C273.018 252.516 273.878 251.612 274.946 250.98C276.013 250.327 277.146 250 278.345 250C279.761 250 280.828 250.24 281.547 250.719C282.288 251.176 282.898 251.688 283.377 252.255L283.181 252.81L283.606 250.719H287.855V265H283.279V261.895L283.639 262.876C283.595 262.876 283.465 263.007 283.247 263.268C283.029 263.508 282.702 263.802 282.266 264.15C281.852 264.477 281.329 264.76 280.698 265C280.088 265.261 279.358 265.392 278.508 265.392ZM279.815 261.667C280.36 261.667 280.85 261.59 281.286 261.438C281.722 261.264 282.103 261.024 282.43 260.719C282.756 260.392 283.04 259.989 283.279 259.51V256.013C283.105 255.534 282.844 255.131 282.495 254.804C282.146 254.455 281.732 254.194 281.253 254.02C280.774 253.823 280.24 253.725 279.652 253.725C278.998 253.725 278.388 253.9 277.822 254.248C277.277 254.575 276.841 255.033 276.515 255.621C276.188 256.209 276.024 256.884 276.024 257.647C276.024 258.41 276.199 259.096 276.547 259.706C276.896 260.316 277.353 260.795 277.92 261.144C278.508 261.492 279.14 261.667 279.815 261.667ZM297.177 265.686C295.891 265.686 294.813 265.294 293.941 264.51C293.07 263.704 292.612 262.669 292.569 261.405V250.719H297.144V259.706C297.188 260.338 297.351 260.85 297.634 261.242C297.917 261.612 298.397 261.797 299.072 261.797C299.748 261.797 300.325 261.569 300.804 261.111C301.305 260.654 301.687 260.033 301.948 259.248C302.231 258.442 302.373 257.538 302.373 256.536V250.719H306.948V265H302.798L302.438 262.386L302.504 262.68C302.177 263.268 301.763 263.791 301.262 264.248C300.761 264.706 300.162 265.054 299.464 265.294C298.789 265.556 298.026 265.686 297.177 265.686ZM315.804 250.719L316.163 253.268L316.098 253.039C316.599 252.146 317.307 251.427 318.222 250.882C319.137 250.316 320.259 250.033 321.588 250.033C322.939 250.033 324.061 250.436 324.954 251.242C325.869 252.026 326.338 253.05 326.359 254.314V265H321.784V256.013C321.762 255.381 321.588 254.88 321.261 254.51C320.956 254.118 320.433 253.921 319.693 253.921C318.996 253.921 318.386 254.15 317.863 254.608C317.34 255.065 316.937 255.686 316.654 256.471C316.37 257.255 316.229 258.159 316.229 259.183V265H311.653V250.719H315.804ZM343.181 263.725C342.55 264.227 341.754 264.63 340.796 264.935C339.859 265.24 338.933 265.392 338.018 265.392C336.384 265.392 334.957 265.098 333.737 264.51C332.539 263.9 331.602 263.039 330.926 261.928C330.273 260.795 329.946 259.434 329.946 257.843C329.946 256.253 330.306 254.902 331.025 253.791C331.743 252.658 332.68 251.797 333.835 251.209C335.011 250.621 336.242 250.327 337.528 250.327C338.813 250.327 339.924 250.501 340.861 250.85C341.82 251.198 342.637 251.656 343.312 252.222L341.09 255.163C340.785 254.924 340.36 254.684 339.815 254.444C339.293 254.183 338.672 254.052 337.953 254.052C337.321 254.052 336.744 254.216 336.221 254.542C335.698 254.869 335.284 255.316 334.979 255.882C334.674 256.449 334.521 257.102 334.521 257.843C334.521 258.54 334.685 259.183 335.011 259.771C335.338 260.359 335.785 260.828 336.351 261.176C336.94 261.503 337.626 261.667 338.41 261.667C338.911 261.667 339.369 261.601 339.783 261.471C340.219 261.318 340.589 261.111 340.894 260.85L343.181 263.725ZM346.695 265V239.215H351.172V253.595L351.14 253.039C351.641 252.146 352.349 251.427 353.264 250.882C354.179 250.316 355.301 250.033 356.63 250.033C357.981 250.033 359.103 250.436 359.996 251.242C360.911 252.026 361.379 253.05 361.401 254.314V265H356.826V256.013C356.804 255.381 356.63 254.88 356.303 254.51C355.998 254.118 355.475 253.921 354.734 253.921C354.037 253.921 353.427 254.15 352.904 254.608C352.381 255.065 351.978 255.686 351.695 256.471C351.412 257.255 351.27 258.159 351.27 259.183V265H346.695Z" fill="#00DDFF"/>
<defs>
<linearGradient id="paint0_linear_1286_20346" x1="107.963" y1="265.24" x2="107.963" y2="92.8838" gradientUnits="userSpaceOnUse">
<stop stop-color="#4D7F80"/>
<stop offset="0.0425567" stop-color="#618D8E"/>
<stop offset="0.1456" stop-color="#8AABAC"/>
<stop offset="0.2544" stop-color="#AEC5C6"/>
<stop offset="0.3681" stop-color="#CCDADA"/>
<stop offset="0.4884" stop-color="#E2EAEB"/>
<stop offset="0.6182" stop-color="#F3F6F6"/>
<stop offset="0.7643" stop-color="#FCFDFD"/>
<stop offset="0.961" stop-color="white"/>
</linearGradient>
<linearGradient id="paint1_linear_1286_20346" x1="107.963" y1="163.803" x2="107.963" y2="11.2468" gradientUnits="userSpaceOnUse">
<stop stop-color="#4D7F80"/>
<stop offset="0.0425567" stop-color="#618D8E"/>
<stop offset="0.1456" stop-color="#8AABAC"/>
<stop offset="0.2544" stop-color="#AEC5C6"/>
<stop offset="0.3681" stop-color="#CCDADA"/>
<stop offset="0.4884" stop-color="#E2EAEB"/>
<stop offset="0.6182" stop-color="#F3F6F6"/>
<stop offset="0.7643" stop-color="#FCFDFD"/>
<stop offset="0.961" stop-color="white"/>
</linearGradient>
<linearGradient id="paint2_linear_1286_20346" x1="-nan" y1="-nan" x2="-nan" y2="-nan" gradientUnits="userSpaceOnUse">
<stop stop-color="#A8805F"/>
<stop offset="0.2455" stop-color="#804E03"/>
<stop offset="0.37" stop-color="#806D05"/>
<stop offset="0.4749" stop-color="#A8805F"/>
<stop offset="0.617" stop-color="#C0B284"/>
<stop offset="0.7375" stop-color="#BFB083"/>
<stop offset="0.7809" stop-color="#BCA97E"/>
<stop offset="0.8118" stop-color="#B69E75"/>
<stop offset="0.8367" stop-color="#AE8D68"/>
<stop offset="0.8501" stop-color="#A8805F"/>
<stop offset="1" stop-color="#804E03"/>
</linearGradient>
<linearGradient id="paint3_linear_1286_20346" x1="22.0401" y1="104.452" x2="193.885" y2="104.452" gradientUnits="userSpaceOnUse">
<stop stop-color="#A8805F"/>
<stop offset="0.2455" stop-color="#804E03"/>
<stop offset="0.37" stop-color="#806D05"/>
<stop offset="0.4749" stop-color="#A8805F"/>
<stop offset="0.617" stop-color="#C0B284"/>
<stop offset="0.7375" stop-color="#BFB083"/>
<stop offset="0.7809" stop-color="#BCA97E"/>
<stop offset="0.8118" stop-color="#B69E75"/>
<stop offset="0.8367" stop-color="#AE8D68"/>
<stop offset="0.8501" stop-color="#A8805F"/>
<stop offset="1" stop-color="#804E03"/>
</linearGradient>
<linearGradient id="paint4_linear_1286_20346" x1="8.46541" y1="104.452" x2="207.459" y2="104.452" gradientUnits="userSpaceOnUse">
<stop stop-color="#A8805F"/>
<stop offset="0.2455" stop-color="#804E03"/>
<stop offset="0.37" stop-color="#806D05"/>
<stop offset="0.4749" stop-color="#A8805F"/>
<stop offset="0.617" stop-color="#C0B284"/>
<stop offset="0.7375" stop-color="#BFB083"/>
<stop offset="0.7809" stop-color="#BCA97E"/>
<stop offset="0.8118" stop-color="#B69E75"/>
<stop offset="0.8367" stop-color="#AE8D68"/>
<stop offset="0.8501" stop-color="#A8805F"/>
<stop offset="1" stop-color="#804E03"/>
</linearGradient>
<linearGradient id="paint5_linear_1286_20346" x1="-0.84234" y1="54.1612" x2="216.766" y2="54.1612" gradientUnits="userSpaceOnUse">
<stop stop-color="#A8805F"/>
<stop offset="0.2455" stop-color="#804E03"/>
<stop offset="0.37" stop-color="#806D05"/>
<stop offset="0.4749" stop-color="#A8805F"/>
<stop offset="0.617" stop-color="#C0B284"/>
<stop offset="0.7375" stop-color="#BFB083"/>
<stop offset="0.7809" stop-color="#BCA97E"/>
<stop offset="0.8118" stop-color="#B69E75"/>
<stop offset="0.8367" stop-color="#AE8D68"/>
<stop offset="0.8501" stop-color="#A8805F"/>
<stop offset="1" stop-color="#804E03"/>
</linearGradient>
<clipPath id="clip0_1286_20346">
<rect width="216" height="190" fill="white"/>
</clipPath>
</defs>
</svg>
