<svg width="352" height="26" viewBox="0 0 352 26" fill="none" xmlns="http://www.w3.org/2000/svg">
<path d="M12.15 14.95C11.7833 15.3 11.3 15.625 10.7 15.925C10.1 16.2083 9.41667 16.3417 8.65 16.325C7.8 16.3083 7.025 16.0833 6.325 15.65C5.64167 15.2167 5.1 14.65 4.7 13.95C4.31667 13.2333 4.125 12.4583 4.125 11.625C4.125 10.6917 4.31667 9.86667 4.7 9.15C5.1 8.43333 5.65833 7.86667 6.375 7.45C7.09167 7.03333 7.91667 6.825 8.85 6.825C9.18333 6.825 9.525 6.85833 9.875 6.925C10.225 6.975 10.5667 7.06667 10.9 7.2C11.25 7.31667 11.5417 7.48333 11.775 7.7L10.85 9.475C10.5833 9.24167 10.2917 9.08333 9.975 9C9.675 8.91667 9.35833 8.875 9.025 8.875C8.54167 8.875 8.10833 9 7.725 9.25C7.35833 9.5 7.06667 9.825 6.85 10.225C6.63333 10.625 6.525 11.0667 6.525 11.55C6.525 12.0333 6.625 12.475 6.825 12.875C7.04167 13.275 7.33333 13.6 7.7 13.85C8.08333 14.1 8.525 14.225 9.025 14.225C9.39167 14.225 9.75 14.1583 10.1 14.025C10.4667 13.875 10.7917 13.65 11.075 13.35L12.15 14.95ZM8.575 20.025C7.40833 20.025 6.30833 19.8167 5.275 19.4C4.25833 18.9833 3.35833 18.4 2.575 17.65C1.79167 16.8833 1.175 15.9917 0.725 14.975C0.291667 13.9583 0.0750001 12.85 0.0750001 11.65C0.0750001 10.4333 0.291667 9.31667 0.725 8.3C1.175 7.26667 1.79167 6.375 2.575 5.625C3.35833 4.875 4.25833 4.29167 5.275 3.875C6.30833 3.45833 7.41667 3.25 8.6 3.25C9.76667 3.25 10.8583 3.45833 11.875 3.875C12.9083 4.29167 13.8167 4.875 14.6 5.625C15.3833 6.375 15.9917 7.26667 16.425 8.3C16.875 9.31667 17.1 10.4333 17.1 11.65C17.1 12.85 16.8833 13.9583 16.45 14.975C16.0167 15.9917 15.4083 16.8833 14.625 17.65C13.8583 18.4 12.9583 18.9833 11.925 19.4C10.9083 19.8167 9.79167 20.025 8.575 20.025ZM8.575 18.125C9.79167 18.125 10.8833 17.85 11.85 17.3C12.8333 16.7333 13.6083 15.9583 14.175 14.975C14.7583 13.9917 15.05 12.8917 15.05 11.675C15.05 10.3917 14.7583 9.26667 14.175 8.3C13.6083 7.31667 12.8333 6.54167 11.85 5.975C10.8833 5.40833 9.79167 5.125 8.575 5.125C7.375 5.125 6.28333 5.40833 5.3 5.975C4.31667 6.54167 3.53333 7.31667 2.95 8.3C2.38333 9.28333 2.1 10.4083 2.1 11.675C2.1 12.9083 2.36667 14.0167 2.9 15C3.45 15.9667 4.20833 16.7333 5.175 17.3C6.15833 17.85 7.29167 18.125 8.575 18.125ZM21.767 1.925H33.517V4.25H24.192V9.75H32.517V12.075H24.192V17.675H33.867V20H21.767V1.925ZM41.7006 20.3L35.9506 9.65H38.7006L42.6006 17.875L41.1756 17.825L44.7506 9.65H47.3506L41.8256 20.3H41.7006ZM54.41 20.25C53.2266 20.25 52.21 20.0167 51.36 19.55C50.51 19.0667 49.8516 18.4167 49.385 17.6C48.935 16.7667 48.71 15.8167 48.71 14.75C48.71 13.7333 48.9683 12.8083 49.485 11.975C50.0016 11.1417 50.6933 10.475 51.56 9.975C52.4266 9.475 53.3933 9.225 54.46 9.225C55.8266 9.225 56.96 9.625 57.86 10.425C58.76 11.225 59.3683 12.325 59.685 13.725L51.16 16.725L50.61 15.35L57.61 12.8L57.11 13.125C56.91 12.575 56.5766 12.1 56.11 11.7C55.6433 11.2833 55.035 11.075 54.285 11.075C53.6516 11.075 53.085 11.2333 52.585 11.55C52.085 11.85 51.6933 12.2667 51.41 12.8C51.1266 13.3333 50.985 13.9417 50.985 14.625C50.985 15.3417 51.135 15.975 51.435 16.525C51.735 17.0583 52.1433 17.4833 52.66 17.8C53.1933 18.1 53.7933 18.25 54.46 18.25C54.91 18.25 55.3433 18.1667 55.76 18C56.1933 17.8333 56.5933 17.6167 56.96 17.35L58.035 19.075C57.5183 19.425 56.935 19.7083 56.285 19.925C55.6516 20.1417 55.0266 20.25 54.41 20.25ZM64.6732 9.65L64.8982 12.65L64.7732 12.25C65.0399 11.6167 65.4232 11.0833 65.9232 10.65C66.4399 10.2 66.9732 9.85833 67.5232 9.625C68.0899 9.375 68.5816 9.25 68.9982 9.25L68.8732 11.55C68.0899 11.5 67.3982 11.65 66.7982 12C66.2149 12.35 65.7482 12.8167 65.3982 13.4C65.0649 13.9833 64.8982 14.6083 64.8982 15.275V20H62.5982V9.65H64.6732ZM74.0727 9.65L74.2727 11.975L74.1727 11.775C74.556 10.9917 75.0977 10.375 75.7977 9.925C76.5143 9.475 77.331 9.25 78.2477 9.25C78.831 9.25 79.3477 9.34167 79.7977 9.525C80.2477 9.70833 80.6143 9.975 80.8977 10.325C81.1977 10.6583 81.3893 11.075 81.4727 11.575L81.3477 11.65C81.7477 10.9 82.2977 10.3167 82.9977 9.9C83.7143 9.46667 84.4643 9.25 85.2477 9.25C86.2643 9.25 87.0643 9.54167 87.6477 10.125C88.2477 10.6917 88.556 11.4333 88.5727 12.35V20H86.2477V13.175C86.231 12.6417 86.0977 12.2 85.8477 11.85C85.6143 11.4833 85.1977 11.2833 84.5977 11.25C83.9977 11.25 83.456 11.4333 82.9727 11.8C82.506 12.1667 82.1393 12.6417 81.8727 13.225C81.606 13.7917 81.4643 14.4083 81.4477 15.075V20H79.1227V13.175C79.106 12.6417 78.9643 12.2 78.6977 11.85C78.4477 11.4833 78.0227 11.2833 77.4227 11.25C76.806 11.25 76.2643 11.4333 75.7977 11.8C75.331 12.1667 74.9643 12.6417 74.6977 13.225C74.4477 13.8083 74.3227 14.4333 74.3227 15.1V20H71.9977V9.65H74.0727ZM91.7275 14.725C91.7275 13.6917 91.9692 12.7583 92.4525 11.925C92.9525 11.0917 93.6359 10.4333 94.5025 9.95C95.3692 9.46667 96.3525 9.225 97.4525 9.225C98.5859 9.225 99.5775 9.46667 100.428 9.95C101.278 10.4333 101.936 11.0917 102.403 11.925C102.869 12.7583 103.103 13.6917 103.103 14.725C103.103 15.7583 102.869 16.7 102.403 17.55C101.936 18.3833 101.269 19.0417 100.403 19.525C99.5525 20.0083 98.5609 20.25 97.4275 20.25C96.3275 20.25 95.3442 20.025 94.4775 19.575C93.6275 19.1083 92.9525 18.4667 92.4525 17.65C91.9692 16.8167 91.7275 15.8417 91.7275 14.725ZM94.0525 14.75C94.0525 15.4167 94.2025 16.025 94.5025 16.575C94.8025 17.1083 95.2025 17.5333 95.7025 17.85C96.2192 18.1667 96.7859 18.325 97.4025 18.325C98.0525 18.325 98.6275 18.1667 99.1275 17.85C99.6442 17.5333 100.044 17.1083 100.328 16.575C100.611 16.025 100.753 15.4167 100.753 14.75C100.753 14.0833 100.611 13.4833 100.328 12.95C100.044 12.4 99.6442 11.9667 99.1275 11.65C98.6275 11.3167 98.0525 11.15 97.4025 11.15C96.7692 11.15 96.1942 11.3167 95.6775 11.65C95.1775 11.9833 94.7775 12.425 94.4775 12.975C94.1942 13.5083 94.0525 14.1 94.0525 14.75ZM105.351 14.725C105.351 13.6917 105.592 12.7583 106.076 11.925C106.576 11.0917 107.259 10.4333 108.126 9.95C108.992 9.46667 109.976 9.225 111.076 9.225C112.209 9.225 113.201 9.46667 114.051 9.95C114.901 10.4333 115.559 11.0917 116.026 11.925C116.492 12.7583 116.726 13.6917 116.726 14.725C116.726 15.7583 116.492 16.7 116.026 17.55C115.559 18.3833 114.892 19.0417 114.026 19.525C113.176 20.0083 112.184 20.25 111.051 20.25C109.951 20.25 108.967 20.025 108.101 19.575C107.251 19.1083 106.576 18.4667 106.076 17.65C105.592 16.8167 105.351 15.8417 105.351 14.725ZM107.676 14.75C107.676 15.4167 107.826 16.025 108.126 16.575C108.426 17.1083 108.826 17.5333 109.326 17.85C109.842 18.1667 110.409 18.325 111.026 18.325C111.676 18.325 112.251 18.1667 112.751 17.85C113.267 17.5333 113.667 17.1083 113.951 16.575C114.234 16.025 114.376 15.4167 114.376 14.75C114.376 14.0833 114.234 13.4833 113.951 12.95C113.667 12.4 113.267 11.9667 112.751 11.65C112.251 11.3167 111.676 11.15 111.026 11.15C110.392 11.15 109.817 11.3167 109.301 11.65C108.801 11.9833 108.401 12.425 108.101 12.975C107.817 13.5083 107.676 14.1 107.676 14.75ZM121.949 9.65L122.149 12.175L122.049 11.775C122.382 11.0083 122.924 10.4 123.674 9.95C124.424 9.48333 125.29 9.25 126.274 9.25C127.257 9.25 128.057 9.54167 128.674 10.125C129.307 10.6917 129.632 11.4333 129.649 12.35V20H127.299V13.175C127.282 12.6083 127.115 12.15 126.799 11.8C126.499 11.4333 126.024 11.25 125.374 11.25C124.774 11.25 124.232 11.4167 123.749 11.75C123.265 12.0833 122.882 12.5417 122.599 13.125C122.332 13.7083 122.199 14.3833 122.199 15.15V20H119.874V9.65H121.949ZM132.517 18.675C132.517 18.3083 132.65 18 132.917 17.75C133.2 17.4833 133.509 17.35 133.842 17.35C134.142 17.35 134.425 17.4833 134.692 17.75C134.975 18 135.117 18.3083 135.117 18.675C135.117 19.075 134.975 19.4 134.692 19.65C134.425 19.8833 134.142 20 133.842 20C133.509 20 133.2 19.8833 132.917 19.65C132.65 19.4 132.517 19.075 132.517 18.675ZM144.576 20L152.476 1.175H152.626L160.501 20H157.726L151.826 4.975L153.551 3.85L146.951 20H144.576ZM149.201 13.15H155.926L156.726 15.25H148.501L149.201 13.15ZM163.331 0.649999H165.656V20H163.331V0.649999ZM169.678 0.649999H172.003V20H169.678V0.649999ZM186.011 9.65L186.236 12.65L186.111 12.25C186.378 11.6167 186.761 11.0833 187.261 10.65C187.778 10.2 188.311 9.85833 188.861 9.625C189.428 9.375 189.919 9.25 190.336 9.25L190.211 11.55C189.428 11.5 188.736 11.65 188.136 12C187.553 12.35 187.086 12.8167 186.736 13.4C186.403 13.9833 186.236 14.6083 186.236 15.275V20H183.936V9.65H186.011ZM193.336 9.65H195.661V20H193.336V9.65ZM193.161 5.9C193.161 5.53333 193.302 5.225 193.586 4.975C193.886 4.725 194.211 4.6 194.561 4.6C194.911 4.6 195.219 4.725 195.486 4.975C195.769 5.225 195.911 5.53333 195.911 5.9C195.911 6.28333 195.769 6.6 195.486 6.85C195.219 7.08333 194.911 7.2 194.561 7.2C194.211 7.2 193.886 7.075 193.586 6.825C193.302 6.575 193.161 6.26667 193.161 5.9ZM204.658 25.125C203.892 25.125 203.217 25.0333 202.633 24.85C202.05 24.6833 201.517 24.4417 201.033 24.125C200.567 23.8083 200.117 23.45 199.683 23.05L201.033 21.475C201.583 21.9917 202.142 22.3917 202.708 22.675C203.275 22.9583 203.908 23.1 204.608 23.1C205.392 23.1 206.05 22.9667 206.583 22.7C207.133 22.45 207.55 22.0917 207.833 21.625C208.117 21.175 208.258 20.65 208.258 20.05L208.283 17.25L208.483 17.7C208.183 18.4167 207.642 19.025 206.858 19.525C206.075 20.0083 205.125 20.25 204.008 20.25C203.058 20.25 202.183 20.0083 201.383 19.525C200.6 19.0417 199.967 18.3917 199.483 17.575C199.017 16.7417 198.783 15.8083 198.783 14.775C198.783 13.6917 199.033 12.7417 199.533 11.925C200.033 11.0917 200.692 10.4333 201.508 9.95C202.325 9.46667 203.217 9.225 204.183 9.225C205.1 9.225 205.933 9.41667 206.683 9.8C207.45 10.1667 208.008 10.6417 208.358 11.225L208.233 11.65L208.483 9.65H210.608V20.075C210.608 21.0083 210.367 21.8583 209.883 22.625C209.4 23.3917 208.717 24 207.833 24.45C206.95 24.9 205.892 25.125 204.658 25.125ZM201.108 14.725C201.108 15.3917 201.267 16 201.583 16.55C201.9 17.1 202.325 17.5333 202.858 17.85C203.408 18.1667 204.017 18.325 204.683 18.325C205.3 18.325 205.85 18.2167 206.333 18C206.833 17.7667 207.25 17.4583 207.583 17.075C207.917 16.675 208.15 16.2167 208.283 15.7V13.65C208.133 13.15 207.883 12.7167 207.533 12.35C207.183 11.9667 206.767 11.675 206.283 11.475C205.8 11.2583 205.267 11.15 204.683 11.15C204.017 11.15 203.408 11.3 202.858 11.6C202.325 11.9 201.9 12.325 201.583 12.875C201.267 13.4083 201.108 14.025 201.108 14.725ZM214.625 20V0.649999H216.9V12.05L216.85 11.625C217.2 10.9417 217.733 10.375 218.45 9.925C219.183 9.475 220.041 9.25 221.025 9.25C222.008 9.25 222.808 9.54167 223.425 10.125C224.058 10.6917 224.383 11.4333 224.4 12.35V20H222.05V13.175C222.033 12.6083 221.866 12.15 221.55 11.8C221.25 11.4333 220.775 11.25 220.125 11.25C219.525 11.25 218.983 11.425 218.5 11.775C218.016 12.1083 217.633 12.5667 217.35 13.15C217.083 13.7333 216.95 14.4 216.95 15.15V20H214.625ZM229.443 5.1H231.768V9.7H234.618V11.525H231.768V20H229.443V11.525H227.543V9.7H229.443V5.1ZM240.327 20.2C239.594 20.2 238.877 20.075 238.177 19.825C237.494 19.5583 236.927 19.1667 236.477 18.65L237.452 17.3C237.886 17.7167 238.327 18.0333 238.777 18.25C239.244 18.45 239.702 18.55 240.152 18.55C240.486 18.55 240.794 18.5083 241.077 18.425C241.361 18.3417 241.586 18.2083 241.752 18.025C241.936 17.825 242.027 17.5583 242.027 17.225C242.027 16.8583 241.902 16.5667 241.652 16.35C241.419 16.1333 241.111 15.9583 240.727 15.825C240.361 15.6917 239.969 15.5667 239.552 15.45C238.702 15.1667 238.052 14.775 237.602 14.275C237.152 13.775 236.927 13.1667 236.927 12.45C236.927 11.9 237.061 11.3917 237.327 10.925C237.611 10.4417 238.019 10.05 238.552 9.75C239.102 9.45 239.777 9.3 240.577 9.3C241.294 9.3 241.936 9.39167 242.502 9.575C243.069 9.74167 243.602 10.025 244.102 10.425L243.177 11.875C242.877 11.5583 242.519 11.325 242.102 11.175C241.686 11.025 241.311 10.9417 240.977 10.925C240.694 10.9083 240.419 10.95 240.152 11.05C239.902 11.15 239.694 11.2917 239.527 11.475C239.361 11.6583 239.277 11.875 239.277 12.125C239.277 12.475 239.394 12.7583 239.627 12.975C239.861 13.1917 240.161 13.3667 240.527 13.5C240.911 13.6167 241.286 13.7417 241.652 13.875C242.169 14.025 242.627 14.225 243.027 14.475C243.427 14.725 243.744 15.0333 243.977 15.4C244.227 15.7667 244.352 16.225 244.352 16.775C244.352 17.3917 244.202 17.9667 243.902 18.5C243.619 19.0167 243.177 19.4333 242.577 19.75C241.994 20.05 241.244 20.2 240.327 20.2ZM257.593 9.65L257.818 12.65L257.693 12.25C257.96 11.6167 258.343 11.0833 258.843 10.65C259.36 10.2 259.893 9.85833 260.443 9.625C261.01 9.375 261.501 9.25 261.918 9.25L261.793 11.55C261.01 11.5 260.318 11.65 259.718 12C259.135 12.35 258.668 12.8167 258.318 13.4C257.985 13.9833 257.818 14.6083 257.818 15.275V20H255.518V9.65H257.593ZM269.278 20.25C268.095 20.25 267.078 20.0167 266.228 19.55C265.378 19.0667 264.72 18.4167 264.253 17.6C263.803 16.7667 263.578 15.8167 263.578 14.75C263.578 13.7333 263.836 12.8083 264.353 11.975C264.87 11.1417 265.561 10.475 266.428 9.975C267.295 9.475 268.261 9.225 269.328 9.225C270.695 9.225 271.828 9.625 272.728 10.425C273.628 11.225 274.236 12.325 274.553 13.725L266.028 16.725L265.478 15.35L272.478 12.8L271.978 13.125C271.778 12.575 271.445 12.1 270.978 11.7C270.511 11.2833 269.903 11.075 269.153 11.075C268.52 11.075 267.953 11.2333 267.453 11.55C266.953 11.85 266.561 12.2667 266.278 12.8C265.995 13.3333 265.853 13.9417 265.853 14.625C265.853 15.3417 266.003 15.975 266.303 16.525C266.603 17.0583 267.011 17.4833 267.528 17.8C268.061 18.1 268.661 18.25 269.328 18.25C269.778 18.25 270.211 18.1667 270.628 18C271.061 17.8333 271.461 17.6167 271.828 17.35L272.903 19.075C272.386 19.425 271.803 19.7083 271.153 19.925C270.52 20.1417 269.895 20.25 269.278 20.25ZM280.366 20.2C279.633 20.2 278.916 20.075 278.216 19.825C277.533 19.5583 276.966 19.1667 276.516 18.65L277.491 17.3C277.925 17.7167 278.366 18.0333 278.816 18.25C279.283 18.45 279.741 18.55 280.191 18.55C280.525 18.55 280.833 18.5083 281.116 18.425C281.4 18.3417 281.625 18.2083 281.791 18.025C281.975 17.825 282.066 17.5583 282.066 17.225C282.066 16.8583 281.941 16.5667 281.691 16.35C281.458 16.1333 281.15 15.9583 280.766 15.825C280.4 15.6917 280.008 15.5667 279.591 15.45C278.741 15.1667 278.091 14.775 277.641 14.275C277.191 13.775 276.966 13.1667 276.966 12.45C276.966 11.9 277.1 11.3917 277.366 10.925C277.65 10.4417 278.058 10.05 278.591 9.75C279.141 9.45 279.816 9.3 280.616 9.3C281.333 9.3 281.975 9.39167 282.541 9.575C283.108 9.74167 283.641 10.025 284.141 10.425L283.216 11.875C282.916 11.5583 282.558 11.325 282.141 11.175C281.725 11.025 281.35 10.9417 281.016 10.925C280.733 10.9083 280.458 10.95 280.191 11.05C279.941 11.15 279.733 11.2917 279.566 11.475C279.4 11.6583 279.316 11.875 279.316 12.125C279.316 12.475 279.433 12.7583 279.666 12.975C279.9 13.1917 280.2 13.3667 280.566 13.5C280.95 13.6167 281.325 13.7417 281.691 13.875C282.208 14.025 282.666 14.225 283.066 14.475C283.466 14.725 283.783 15.0333 284.016 15.4C284.266 15.7667 284.391 16.225 284.391 16.775C284.391 17.3917 284.241 17.9667 283.941 18.5C283.658 19.0167 283.216 19.4333 282.616 19.75C282.033 20.05 281.283 20.2 280.366 20.2ZM292.447 20.25C291.264 20.25 290.247 20.0167 289.397 19.55C288.547 19.0667 287.889 18.4167 287.422 17.6C286.972 16.7667 286.747 15.8167 286.747 14.75C286.747 13.7333 287.005 12.8083 287.522 11.975C288.039 11.1417 288.73 10.475 289.597 9.975C290.464 9.475 291.43 9.225 292.497 9.225C293.864 9.225 294.997 9.625 295.897 10.425C296.797 11.225 297.405 12.325 297.722 13.725L289.197 16.725L288.647 15.35L295.647 12.8L295.147 13.125C294.947 12.575 294.614 12.1 294.147 11.7C293.68 11.2833 293.072 11.075 292.322 11.075C291.689 11.075 291.122 11.2333 290.622 11.55C290.122 11.85 289.73 12.2667 289.447 12.8C289.164 13.3333 289.022 13.9417 289.022 14.625C289.022 15.3417 289.172 15.975 289.472 16.525C289.772 17.0583 290.18 17.4833 290.697 17.8C291.23 18.1 291.83 18.25 292.497 18.25C292.947 18.25 293.38 18.1667 293.797 18C294.23 17.8333 294.63 17.6167 294.997 17.35L296.072 19.075C295.555 19.425 294.972 19.7083 294.322 19.925C293.689 20.1417 293.064 20.25 292.447 20.25ZM302.71 9.65L302.935 12.65L302.81 12.25C303.077 11.6167 303.46 11.0833 303.96 10.65C304.477 10.2 305.01 9.85833 305.56 9.625C306.127 9.375 306.619 9.25 307.035 9.25L306.91 11.55C306.127 11.5 305.435 11.65 304.835 12C304.252 12.35 303.785 12.8167 303.435 13.4C303.102 13.9833 302.935 14.6083 302.935 15.275V20H300.635V9.65H302.71ZM314.235 20.3L308.485 9.65H311.235L315.135 17.875L313.71 17.825L317.285 9.65H319.885L314.36 20.3H314.235ZM326.944 20.25C325.761 20.25 324.744 20.0167 323.894 19.55C323.044 19.0667 322.386 18.4167 321.919 17.6C321.469 16.7667 321.244 15.8167 321.244 14.75C321.244 13.7333 321.502 12.8083 322.019 11.975C322.536 11.1417 323.227 10.475 324.094 9.975C324.961 9.475 325.927 9.225 326.994 9.225C328.361 9.225 329.494 9.625 330.394 10.425C331.294 11.225 331.902 12.325 332.219 13.725L323.694 16.725L323.144 15.35L330.144 12.8L329.644 13.125C329.444 12.575 329.111 12.1 328.644 11.7C328.177 11.2833 327.569 11.075 326.819 11.075C326.186 11.075 325.619 11.2333 325.119 11.55C324.619 11.85 324.227 12.2667 323.944 12.8C323.661 13.3333 323.519 13.9417 323.519 14.625C323.519 15.3417 323.669 15.975 323.969 16.525C324.269 17.0583 324.677 17.4833 325.194 17.8C325.727 18.1 326.327 18.25 326.994 18.25C327.444 18.25 327.877 18.1667 328.294 18C328.727 17.8333 329.127 17.6167 329.494 17.35L330.569 19.075C330.052 19.425 329.469 19.7083 328.819 19.925C328.186 20.1417 327.561 20.25 326.944 20.25ZM339.332 20.25C338.382 20.25 337.516 20.025 336.732 19.575C335.966 19.1083 335.357 18.4583 334.907 17.625C334.457 16.775 334.232 15.8 334.232 14.7C334.232 13.55 334.466 12.5667 334.932 11.75C335.416 10.9333 336.066 10.3083 336.882 9.875C337.699 9.44167 338.616 9.225 339.632 9.225C340.449 9.225 341.224 9.4 341.957 9.75C342.707 10.1 343.291 10.5833 343.707 11.2L343.607 12.025V0.649999H345.907V20H343.582V17.425L343.832 18.075C343.349 18.7083 342.724 19.2333 341.957 19.65C341.191 20.05 340.316 20.25 339.332 20.25ZM340.057 18.275C340.674 18.275 341.224 18.1667 341.707 17.95C342.191 17.7167 342.591 17.4 342.907 17C343.224 16.6 343.449 16.125 343.582 15.575V13.625C343.449 13.125 343.207 12.6917 342.857 12.325C342.524 11.9417 342.116 11.6417 341.632 11.425C341.166 11.1917 340.641 11.075 340.057 11.075C339.424 11.075 338.841 11.2333 338.307 11.55C337.791 11.85 337.374 12.2667 337.057 12.8C336.741 13.3333 336.582 13.95 336.582 14.65C336.582 15.3333 336.741 15.95 337.057 16.5C337.374 17.0333 337.799 17.4667 338.332 17.8C338.866 18.1167 339.441 18.275 340.057 18.275ZM348.777 18.675C348.777 18.3083 348.91 18 349.177 17.75C349.46 17.4833 349.768 17.35 350.102 17.35C350.402 17.35 350.685 17.4833 350.952 17.75C351.235 18 351.377 18.3083 351.377 18.675C351.377 19.075 351.235 19.4 350.952 19.65C350.685 19.8833 350.402 20 350.102 20C349.768 20 349.46 19.8833 349.177 19.65C348.91 19.4 348.777 19.075 348.777 18.675Z" fill="white"/>
</svg>
