<svg width="64" height="64" viewBox="0 0 64 64" fill="none" xmlns="http://www.w3.org/2000/svg">
<rect x="1.5" y="1.5" width="61" height="61" rx="9.5" stroke="url(#paint0_linear_186_418)" stroke-width="3" stroke-linejoin="round"/>
<path d="M42.0483 21.5053C41.6512 21.4292 41.2454 21.3869 40.8569 21.2855C39.7692 20.9896 38.8713 20.3811 38.1721 19.5189C37.5246 18.7244 37.1361 17.8199 37.0325 16.8141C36.9116 15.7068 37.1275 14.6502 37.6886 13.6782C38.2757 12.6554 39.1217 11.9116 40.2181 11.4383C40.9778 11.1086 41.7807 10.9649 42.6181 11.0072C43.5246 11.0495 44.3706 11.2946 45.1476 11.7679C46.3908 12.5202 47.2023 13.5937 47.5649 14.9799C47.6512 15.2926 47.6771 15.6223 47.7375 15.9435C47.7375 16.1548 47.7375 16.3661 47.7375 16.5774C47.7289 16.6112 47.7203 16.6366 47.7116 16.6704C47.6253 17.727 47.2454 18.6737 46.5721 19.502C45.8641 20.3726 44.9577 20.9812 43.8613 21.2855C43.4814 21.3869 43.0929 21.4292 42.7044 21.5053C42.4886 21.5053 42.2728 21.5053 42.0483 21.5053Z" stroke="url(#paint1_linear_186_418)" stroke-width="2" stroke-miterlimit="10"/>
<path d="M41.8835 18.6822C41.8835 18.7921 41.8835 18.9442 41.8835 19.1048C41.8921 19.4007 42.0821 19.6035 42.3583 19.6035C42.6346 19.612 42.8331 19.4176 42.8504 19.1217C42.859 18.9949 42.859 18.8682 42.8504 18.7414C42.8418 18.6315 42.8849 18.5892 42.9885 18.5554C43.4893 18.3948 43.8432 18.0821 43.9295 17.5496C44.0331 16.9325 43.8864 16.3916 43.3252 16.0366C42.9972 15.8252 42.6259 15.6815 42.2806 15.4956C42.1684 15.4364 42.0562 15.3688 41.9612 15.2843C41.8058 15.1406 41.8144 14.9293 41.9871 14.8194C42.108 14.7433 42.2634 14.7011 42.4101 14.6757C42.7036 14.6334 42.9713 14.7264 43.2389 14.8532C43.3511 14.9039 43.472 14.9377 43.5929 14.8786C43.895 14.718 43.9295 14.1939 43.636 14.0333C43.4375 13.9234 43.1957 13.8812 42.9626 13.822C42.8763 13.7966 42.8504 13.7713 42.8504 13.6867C42.8504 13.5346 42.859 13.3825 42.8331 13.2303C42.7986 12.9936 42.5741 12.8246 42.3324 12.8415C42.0821 12.8584 41.9008 13.0359 41.8835 13.281C41.8749 13.4078 41.8662 13.5346 41.8835 13.6614C41.9008 13.822 41.8317 13.8896 41.6849 13.9403C41.2964 14.0756 40.9943 14.3122 40.8821 14.7264C40.6835 15.4111 40.9684 16.0619 41.6159 16.3831C41.8749 16.5099 42.1425 16.6282 42.4015 16.7635C42.5482 16.8395 42.695 16.9325 42.8072 17.0424C43.0317 17.2622 42.9626 17.5665 42.6691 17.6848C42.3238 17.82 41.9871 17.7693 41.6849 17.5665C41.5813 17.4904 41.4864 17.4059 41.3741 17.3382C41.1756 17.2115 40.9857 17.2453 40.8475 17.4312C40.6144 17.7355 40.6662 18.0652 41.0116 18.2765C41.2705 18.4286 41.5641 18.5301 41.8835 18.6822Z" fill="url(#paint2_linear_186_418)"/>
<path d="M48.5577 33.0013C46.3131 29.8908 40.2613 29.2399 35.5045 29.1047C34.8138 27.8537 33.4671 27 31.9131 27C30.3592 27 29.0038 27.8537 28.3218 29.1047C23.5649 29.2399 17.5045 29.8908 15.2685 33.0013C11.9448 37.6079 10.9779 48.8583 13.1966 51.2926C15.4153 53.7354 21.7779 51.1573 25.1016 46.686C25.6973 45.8914 26.2239 45.0715 26.716 44.2685C29.0815 40.4142 34.762 40.4142 37.1361 44.2685C37.6282 45.0715 38.1635 45.883 38.7505 46.686C42.0743 51.1573 48.4369 53.7354 50.6556 51.2926C52.8484 48.8583 51.8728 37.6079 48.5577 33.0013Z" stroke="url(#paint3_linear_186_418)" stroke-width="2.5" stroke-miterlimit="10"/>
<path d="M20.8979 42.316C20.3454 42.316 19.8965 41.8765 19.8965 41.3355V35.5117C19.8965 34.9708 20.3454 34.5312 20.8979 34.5312C21.4504 34.5312 21.8994 34.9708 21.8994 35.5117V41.3355C21.8994 41.8765 21.4504 42.316 20.8979 42.316Z" fill="url(#paint4_linear_186_418)"/>
<path d="M16.918 38.4195C16.918 37.8785 17.3669 37.439 17.9194 37.439H23.8676C24.4201 37.439 24.869 37.8785 24.869 38.4195C24.869 38.9604 24.4201 39.4 23.8676 39.4H17.9194C17.3669 39.4 16.918 38.9604 16.918 38.4195Z" fill="url(#paint5_linear_186_418)"/>
<path d="M42.3324 36.5937C43.038 36.5937 43.6101 36.0337 43.6101 35.3428C43.6101 34.6519 43.038 34.0918 42.3324 34.0918C41.6267 34.0918 41.0547 34.6519 41.0547 35.3428C41.0547 36.0337 41.6267 36.5937 42.3324 36.5937Z" fill="url(#paint6_linear_186_418)"/>
<path d="M42.3324 42.147C43.038 42.147 43.6101 41.5869 43.6101 40.896C43.6101 40.2051 43.038 39.645 42.3324 39.645C41.6267 39.645 41.0547 40.2051 41.0547 40.896C41.0547 41.5869 41.6267 42.147 42.3324 42.147Z" fill="url(#paint7_linear_186_418)"/>
<path d="M45.1644 39.3662C45.8701 39.3662 46.4421 38.8061 46.4421 38.1152C46.4421 37.4243 45.8701 36.8643 45.1644 36.8643C44.4588 36.8643 43.8867 37.4243 43.8867 38.1152C43.8867 38.8061 44.4588 39.3662 45.1644 39.3662Z" fill="url(#paint8_linear_186_418)"/>
<path d="M39.4925 39.3662C38.7846 39.3662 38.2148 38.8083 38.2148 38.1152C38.2148 37.4221 38.7846 36.8643 39.4925 36.8643C40.2005 36.8643 40.7702 37.4221 40.7702 38.1152C40.7702 38.8083 40.2005 39.3662 39.4925 39.3662Z" fill="url(#paint9_linear_186_418)"/>
<defs>
<linearGradient id="paint0_linear_186_418" x1="32" y1="0" x2="32" y2="64" gradientUnits="userSpaceOnUse">
<stop stop-color="#F9D390"/>
<stop offset="1" stop-color="#E2B15B"/>
</linearGradient>
<linearGradient id="paint1_linear_186_418" x1="42.3688" y1="11" x2="42.3688" y2="21.5053" gradientUnits="userSpaceOnUse">
<stop stop-color="#F9D390"/>
<stop offset="1" stop-color="#E2B15B"/>
</linearGradient>
<linearGradient id="paint2_linear_186_418" x1="42.3327" y1="12.8403" x2="42.3327" y2="19.6038" gradientUnits="userSpaceOnUse">
<stop stop-color="#F9D390"/>
<stop offset="1" stop-color="#E2B15B"/>
</linearGradient>
<linearGradient id="paint3_linear_186_418" x1="31.9154" y1="27" x2="31.9154" y2="52.235" gradientUnits="userSpaceOnUse">
<stop stop-color="#F9D390"/>
<stop offset="1" stop-color="#E2B15B"/>
</linearGradient>
<linearGradient id="paint4_linear_186_418" x1="20.8979" y1="34.5312" x2="20.8979" y2="42.316" gradientUnits="userSpaceOnUse">
<stop stop-color="#F9D390"/>
<stop offset="1" stop-color="#E2B15B"/>
</linearGradient>
<linearGradient id="paint5_linear_186_418" x1="20.8935" y1="37.439" x2="20.8935" y2="39.4" gradientUnits="userSpaceOnUse">
<stop stop-color="#F9D390"/>
<stop offset="1" stop-color="#E2B15B"/>
</linearGradient>
<linearGradient id="paint6_linear_186_418" x1="42.3324" y1="34.0918" x2="42.3324" y2="36.5937" gradientUnits="userSpaceOnUse">
<stop stop-color="#F9D390"/>
<stop offset="1" stop-color="#E2B15B"/>
</linearGradient>
<linearGradient id="paint7_linear_186_418" x1="42.3324" y1="39.645" x2="42.3324" y2="42.147" gradientUnits="userSpaceOnUse">
<stop stop-color="#F9D390"/>
<stop offset="1" stop-color="#E2B15B"/>
</linearGradient>
<linearGradient id="paint8_linear_186_418" x1="45.1644" y1="36.8643" x2="45.1644" y2="39.3662" gradientUnits="userSpaceOnUse">
<stop stop-color="#F9D390"/>
<stop offset="1" stop-color="#E2B15B"/>
</linearGradient>
<linearGradient id="paint9_linear_186_418" x1="39.4925" y1="36.8643" x2="39.4925" y2="39.3662" gradientUnits="userSpaceOnUse">
<stop stop-color="#F9D390"/>
<stop offset="1" stop-color="#E2B15B"/>
</linearGradient>
</defs>
</svg>
