<svg width="64" height="64" viewBox="0 0 64 64" fill="none" xmlns="http://www.w3.org/2000/svg">
<rect x="1.5" y="1.5" width="61" height="61" rx="9.5" stroke="url(#paint0_linear_186_433)" stroke-width="3" stroke-linejoin="round"/>
<path d="M32.1315 17.0832C32.1349 17.3065 32.1349 17.4453 32.1349 17.5874C32.1894 23.8687 32.2404 30.1499 32.2949 36.4311C32.2983 37.0267 32.1383 37.3347 31.7469 37.4802C31.2533 37.663 30.7292 37.3889 30.6169 36.8711C30.5794 36.6985 30.5794 36.5191 30.576 36.3431C30.5216 30.1093 30.4705 23.8754 30.416 17.645C30.416 17.4927 30.4126 17.3438 30.4126 17.1103C30.2595 17.2355 30.1608 17.3099 30.0689 17.3911C28.3806 18.8735 26.6924 20.3558 25.0042 21.8381C24.9327 21.9024 24.8612 21.9667 24.7898 22.0242C24.3813 22.3457 23.8946 22.3153 23.5713 21.9565C23.2513 21.5978 23.2751 21.0969 23.6597 20.7517C24.3201 20.1527 24.9974 19.5706 25.6645 18.9818C27.2745 17.5604 28.881 16.1491 30.4875 14.7379C31.0832 14.2133 31.4133 14.2065 32.0124 14.7142C34.2894 16.6432 36.5631 18.5756 38.8401 20.5047C39.1158 20.7382 39.3269 20.9988 39.2724 21.3846C39.1703 22.0818 38.3977 22.3559 37.8258 21.8855C37.0294 21.2255 36.2465 20.5487 35.4569 19.8786C34.4426 19.0156 33.4249 18.156 32.4106 17.2964C32.3425 17.2355 32.2676 17.1847 32.1315 17.0832Z" fill="url(#paint1_linear_186_433)" stroke="url(#paint2_linear_186_433)" stroke-miterlimit="10"/>
<path d="M31.5019 44.5296C26.1139 44.5736 20.7293 44.621 15.3413 44.665C14.6843 44.6718 14.2657 44.2589 14.3508 43.6971C14.4121 43.3011 14.7048 43.0135 15.1132 42.9661C15.2426 42.9525 15.3753 42.9559 15.5046 42.9559C26.1581 42.8679 36.8116 42.7766 47.4652 42.6886C47.6081 42.6886 47.7511 42.6784 47.894 42.6953C48.3569 42.7461 48.6701 43.1116 48.6564 43.5685C48.6462 44.0084 48.3229 44.3469 47.8702 44.3875C47.7511 44.3976 47.6319 44.3942 47.5128 44.3942C42.1792 44.4382 36.8389 44.4822 31.5019 44.5296Z" fill="url(#paint3_linear_186_433)" stroke="url(#paint4_linear_186_433)" stroke-miterlimit="10"/>
<defs>
<linearGradient id="paint0_linear_186_433" x1="32" y1="0" x2="32" y2="64" gradientUnits="userSpaceOnUse">
<stop stop-color="#F9D390"/>
<stop offset="1" stop-color="#E2B15B"/>
</linearGradient>
<linearGradient id="paint1_linear_186_433" x1="31.3153" y1="14.3389" x2="31.3153" y2="37.5369" gradientUnits="userSpaceOnUse">
<stop stop-color="#F9D390"/>
<stop offset="1" stop-color="#E2B15B"/>
</linearGradient>
<linearGradient id="paint2_linear_186_433" x1="31.3153" y1="14.3389" x2="31.3153" y2="37.5369" gradientUnits="userSpaceOnUse">
<stop stop-color="#F9D390"/>
<stop offset="1" stop-color="#E2B15B"/>
</linearGradient>
<linearGradient id="paint3_linear_186_433" x1="31.4984" y1="42.6855" x2="31.4984" y2="44.6651" gradientUnits="userSpaceOnUse">
<stop stop-color="#F9D390"/>
<stop offset="1" stop-color="#E2B15B"/>
</linearGradient>
<linearGradient id="paint4_linear_186_433" x1="31.4984" y1="42.6855" x2="31.4984" y2="44.6651" gradientUnits="userSpaceOnUse">
<stop stop-color="#F9D390"/>
<stop offset="1" stop-color="#E2B15B"/>
</linearGradient>
</defs>
</svg>
