<svg width="64" height="64" viewBox="0 0 64 64" fill="none" xmlns="http://www.w3.org/2000/svg">
<rect x="1.5" y="1.5" width="61" height="61" rx="9.5" stroke="url(#paint0_linear_186_439)" stroke-width="3" stroke-linejoin="round"/>
<g clip-path="url(#clip0_186_439)">
<path d="M47.4089 22.3716L47.1361 19.3801L44.849 19.2064C44.6805 18.725 44.4558 18.2514 44.1749 17.7936L45.491 15.9624L43.3243 13.847L41.4786 15.1415C41.0132 14.8652 40.5237 14.6442 40.0181 14.4706L39.8335 12.2605L36.7841 12L36.2224 14.1469C35.6927 14.2338 35.1631 14.3679 34.6495 14.5653L33.0686 13.0024L32.9964 13.0498L30.5729 14.731L31.5439 16.728C31.1828 17.1384 30.8698 17.5804 30.613 18.0461L28.3821 17.8409L27.5957 20.7456L29.6581 21.6691C29.6501 22.1979 29.7062 22.7268 29.8105 23.2556L27.9568 24.5185L29.2568 27.2338L31.4556 26.6339C31.8007 27.0443 32.1779 27.4153 32.5952 27.731L31.9933 29.8937L34.7619 31.1566L36.0699 29.286C36.5835 29.3807 37.1131 29.4202 37.6428 29.4123L38.6057 31.4645L41.5508 30.6831L41.4385 29.5228L41.3261 28.4098C41.5428 28.2835 41.7595 28.1494 41.9762 28.0073C42.2008 27.8494 42.4095 27.6916 42.6101 27.5179L44.6966 28.4888L46.4379 26.0261L44.7848 24.4317C44.9694 23.9502 45.1058 23.4451 45.1861 22.9399L47.4089 22.3716ZM40.2669 25.6472C40.0582 25.7893 39.8496 25.9077 39.6249 26.0103C37.5063 27.0443 34.8822 26.4444 33.4859 24.4869C31.9371 22.3242 32.4668 19.3406 34.6656 17.8172C34.8582 17.6831 35.0588 17.5726 35.2594 17.4699C37.386 16.4044 40.0341 17.0043 41.4465 18.9775C42.9953 21.1403 42.4657 24.1239 40.2669 25.6472Z" fill="url(#paint1_linear_186_439)"/>
<path d="M54.9995 39.9652L54.1408 37.0842L51.8618 37.3447C51.5969 36.9026 51.284 36.4764 50.9229 36.0818L51.8537 34.0295L49.3179 32.3641L47.7611 33.9901C47.2475 33.8085 46.7259 33.6822 46.1963 33.6112L45.5783 31.4722L42.545 31.8037L42.4166 34.0138C41.911 34.1953 41.4215 34.4321 40.9561 34.7241L39.0863 33.4928L39.0301 33.556L36.9758 35.6634L38.3159 37.4394C38.0431 37.913 37.8264 38.4102 37.6659 38.9154L35.435 39.1443L35.2344 42.1358L37.4332 42.6489C37.5295 43.1698 37.6819 43.6829 37.8986 44.1801L36.3257 45.7745L38.1313 48.1977L40.1777 47.1874C40.5949 47.5268 41.0443 47.811 41.5098 48.0478L41.3493 50.2894L44.3185 50.9998L45.2333 48.916C45.7549 48.9081 46.2845 48.8529 46.7981 48.7424L48.1463 50.5736L50.8827 49.2475L50.5457 48.1346L50.2167 47.0611C50.4093 46.8954 50.5939 46.7296 50.7704 46.5481C50.955 46.3586 51.1315 46.1534 51.292 45.9482L53.5309 46.5007L54.7587 43.7539L52.8247 42.4989C52.913 41.9937 52.9451 41.4728 52.9291 40.9597L54.9995 39.9652ZM48.6278 44.5353C48.4512 44.7169 48.2667 44.8668 48.0741 45.0168C46.2043 46.4376 43.5079 46.3428 41.7505 44.6853C39.8085 42.862 39.7443 39.831 41.598 37.913C41.7585 37.7472 41.9351 37.5972 42.1116 37.4631C43.9894 36.0107 46.7018 36.0975 48.4753 37.763C50.4173 39.5942 50.4895 42.6252 48.6278 44.5353Z" fill="url(#paint2_linear_186_439)"/>
<path d="M34.5448 39.2866L34.2238 35.7347L31.5034 35.5216C31.3028 34.9454 31.0299 34.385 30.7009 33.8403L32.2657 31.6618L29.6978 29.1439L27.499 30.6831C26.9453 30.3595 26.3595 30.0911 25.7576 29.8859L25.5329 27.2575L21.9218 26.9575L21.2557 29.507C20.6217 29.6096 19.9958 29.7754 19.3859 30.0043L17.5001 28.1494L17.4198 28.2125L14.5389 30.2095L15.6865 32.5774C15.2612 33.0668 14.892 33.5956 14.5791 34.1482L11.9309 33.9114L11 37.3528L13.4476 38.4499C13.4395 39.0814 13.5037 39.7128 13.6321 40.3364L11.4253 41.8361L12.9661 45.0644L15.5822 44.354C15.9914 44.8434 16.4488 45.2775 16.9303 45.6643L16.2161 48.2374L19.5063 49.7371L21.0631 47.5191C21.673 47.6296 22.2989 47.677 22.9249 47.6691L24.0724 50.1081L27.5712 49.1767L27.4348 47.8033L27.3064 46.4851C27.5632 46.3352 27.828 46.1773 28.0768 46.0116C28.3416 45.83 28.5904 45.6327 28.8311 45.4354L31.3108 46.5878L33.3812 43.6594L31.4231 41.765C31.6398 41.1888 31.8003 40.5969 31.9046 39.997L34.5448 39.2866ZM26.0545 43.1779C25.8138 43.3437 25.557 43.4858 25.3002 43.612C22.7884 44.8434 19.6668 44.1251 18.0057 41.7966C16.168 39.2313 16.7939 35.6794 19.41 33.8719C19.6347 33.714 19.8754 33.5799 20.1162 33.4615C22.636 32.1986 25.7897 32.9011 27.4669 35.2532C29.2966 37.8264 28.6706 41.3704 26.0545 43.1779Z" fill="url(#paint3_linear_186_439)"/>
</g>
<defs>
<linearGradient id="paint0_linear_186_439" x1="32" y1="0" x2="32" y2="64" gradientUnits="userSpaceOnUse">
<stop stop-color="#F9D390"/>
<stop offset="1" stop-color="#E2B15B"/>
</linearGradient>
<linearGradient id="paint1_linear_186_439" x1="37.5023" y1="12" x2="37.5023" y2="31.4645" gradientUnits="userSpaceOnUse">
<stop stop-color="#F9D390"/>
<stop offset="1" stop-color="#E2B15B"/>
</linearGradient>
<linearGradient id="paint2_linear_186_439" x1="45.1169" y1="31.4722" x2="45.1169" y2="50.9998" gradientUnits="userSpaceOnUse">
<stop stop-color="#F9D390"/>
<stop offset="1" stop-color="#E2B15B"/>
</linearGradient>
<linearGradient id="paint3_linear_186_439" x1="22.7724" y1="26.9575" x2="22.7724" y2="50.1081" gradientUnits="userSpaceOnUse">
<stop stop-color="#F9D390"/>
<stop offset="1" stop-color="#E2B15B"/>
</linearGradient>
<clipPath id="clip0_186_439">
<rect width="44" height="39" fill="white" transform="translate(11 12)"/>
</clipPath>
</defs>
</svg>
