<svg width="67" height="67" viewBox="0 0 67 67" fill="none" xmlns="http://www.w3.org/2000/svg">
<rect x="1.5" y="1.5" width="64" height="64" rx="9.5" stroke="url(#paint0_linear_186_237)" stroke-width="3" stroke-linejoin="round"/>
<g clip-path="url(#clip0_186_237)">
<path d="M48.6483 28.6425C48.6483 36.7977 33.8769 54.1653 33.8769 54.1653C33.8769 54.1653 19.1055 36.7977 19.1055 28.6425C19.1055 20.4873 25.7217 13.8711 33.8769 13.8711C42.032 13.8711 48.6483 20.4873 48.6483 28.6425Z" stroke="url(#paint1_linear_186_237)" stroke-width="2.5" stroke-miterlimit="10"/>
<path d="M33.877 36.2951C38.0052 36.2951 41.3517 32.9485 41.3517 28.8204C41.3517 24.6922 38.0052 21.3457 33.877 21.3457C29.7489 21.3457 26.4023 24.6922 26.4023 28.8204C26.4023 32.9485 29.7489 36.2951 33.877 36.2951Z" stroke="url(#paint2_linear_186_237)" stroke-width="2.5" stroke-miterlimit="10"/>
</g>
<defs>
<linearGradient id="paint0_linear_186_237" x1="33.5" y1="0" x2="33.5" y2="67" gradientUnits="userSpaceOnUse">
<stop stop-color="#F9D390"/>
<stop offset="1" stop-color="#E2B15B"/>
</linearGradient>
<linearGradient id="paint1_linear_186_237" x1="33.8769" y1="13.8711" x2="33.8769" y2="54.1653" gradientUnits="userSpaceOnUse">
<stop stop-color="#F9D390"/>
<stop offset="1" stop-color="#E2B15B"/>
</linearGradient>
<linearGradient id="paint2_linear_186_237" x1="33.877" y1="21.3457" x2="33.877" y2="36.2951" gradientUnits="userSpaceOnUse">
<stop stop-color="#F9D390"/>
<stop offset="1" stop-color="#E2B15B"/>
</linearGradient>
<clipPath id="clip0_186_237">
<rect width="32.16" height="43.6233" fill="white" transform="translate(17.7969 12.5625)"/>
</clipPath>
</defs>
</svg>
