<svg width="67" height="67" viewBox="0 0 67 67" fill="none" xmlns="http://www.w3.org/2000/svg">
<rect x="1.5" y="1.5" width="64" height="64" rx="9.5" stroke="url(#paint0_linear_186_248)" stroke-width="3" stroke-linejoin="round"/>
<path d="M15.0664 29.0626C15.1724 28.6163 15.2554 28.1629 15.3844 27.7237C15.9927 25.6472 17.2531 24.0264 18.8707 22.6733C21.2233 20.7026 23.9538 19.5257 26.8848 18.7928C29.9771 18.02 33.1131 17.8157 36.2768 18.1351C39.9728 18.5086 43.4775 19.5046 46.6389 21.5623C48.4639 22.7509 50.01 24.2284 51.0192 26.218C51.6068 27.376 51.9179 28.6092 51.9179 29.9153C51.9202 31.785 51.8672 33.6595 51.9294 35.527C52.0216 38.3505 50.9179 40.6243 49.003 42.5598C47.1965 44.3873 44.9937 45.5477 42.6411 46.4497C39.1387 47.791 35.5095 48.2162 31.7928 48.0142C27.9585 47.8075 24.3409 46.795 21.0044 44.8736C18.631 43.5112 16.6563 41.686 15.624 39.0223C15.3637 38.3505 15.2484 37.6199 15.0664 36.9152C15.0664 34.2985 15.0664 31.6793 15.0664 29.0626ZM33.0739 40.535C36.7699 40.5256 39.9451 39.9994 42.9844 38.7474C45.2679 37.8078 47.3348 36.5323 48.927 34.5662C51.1713 31.7944 51.2704 28.4518 49.1874 25.5579C47.9661 23.8643 46.3417 22.671 44.5236 21.7338C41.7908 20.3267 38.8737 19.6079 35.8367 19.3566C32.0094 19.0371 28.2696 19.4388 24.652 20.7754C22.3155 21.6374 20.1841 22.8519 18.4674 24.7264C15.6747 27.7753 15.5618 31.5243 18.1863 34.7189C19.4329 36.2364 21.0067 37.3193 22.7372 38.1719C26.1359 39.8491 29.7512 40.5139 33.0739 40.535ZM27.9793 41.329C27.9793 42.9286 27.9793 44.5612 27.9793 46.1914C28.712 46.4826 32.1108 46.8679 32.8435 46.741C32.8435 45.092 32.8435 43.443 32.8435 41.8457C31.1983 41.6719 29.5969 41.5004 27.9793 41.329ZM34.1385 41.8481C34.1385 43.4595 34.1385 45.1085 34.1385 46.8632C35.7883 46.6752 37.399 46.492 38.9958 46.3112C38.9958 44.5659 38.9958 42.9263 38.9958 41.329C37.3667 41.5051 35.763 41.6743 34.1385 41.8481ZM21.827 39.1867C21.827 40.7417 21.8224 42.2709 21.8385 43.7977C21.8385 43.9011 21.9745 44.0491 22.0805 44.0984C23.0045 44.5306 23.9262 44.9699 24.8686 45.3551C25.4585 45.5971 26.0829 45.7544 26.712 45.9565C26.712 44.2558 26.712 42.6209 26.712 41.0119C25.8778 40.7394 25.0598 40.5045 24.2649 40.2062C23.4584 39.9031 22.675 39.5437 21.827 39.1867ZM45.1573 39.2454C43.5213 39.8562 41.9129 40.4575 40.2677 41.0706C40.2677 42.6303 40.2677 44.2652 40.2677 45.9236C41.9337 45.5008 43.4983 44.8712 44.9868 44.0444C45.0697 43.9998 45.1504 43.8612 45.1504 43.7649C45.1596 42.2521 45.1573 40.737 45.1573 39.2454ZM50.6437 34.3337C50.6114 34.3548 50.5768 34.3666 50.5607 34.3924C49.533 36.0132 48.1574 37.2605 46.5859 38.3105C46.4776 38.3833 46.3947 38.5807 46.3924 38.7216C46.3785 40.1004 46.3831 41.4816 46.3854 42.8628C46.3854 42.9498 46.4039 43.039 46.4154 43.1424C49.5215 41.2162 51.1967 37.7115 50.6437 34.3337ZM16.313 34.3313C16.2462 36.7391 16.2162 37.9088 17.4006 39.8961C18.1955 41.2256 19.2924 42.2592 20.6012 43.1776C20.6012 43.0061 20.6012 42.9122 20.6012 42.8182C20.6012 41.4629 20.5942 40.1075 20.6081 38.7521C20.6104 38.4937 20.4998 38.3763 20.3177 38.2283C19.4629 37.5424 18.5896 36.8753 17.7969 36.1213C17.2439 35.5974 16.8107 34.9421 16.313 34.3313Z" fill="url(#paint1_linear_186_248)" stroke="url(#paint2_linear_186_248)" stroke-miterlimit="10"/>
<path d="M34.1095 24.1928C35.3008 24.3548 36.4184 24.4746 37.5267 24.6696C38.582 24.8552 39.5982 25.1864 40.4969 25.8089C40.9531 26.126 41.331 26.5159 41.4416 27.0938C41.4715 27.2558 41.4715 27.4391 41.4301 27.5941C41.354 27.8736 41.1328 28.0122 40.8586 28.0099C40.5821 28.0075 40.331 27.8572 40.2964 27.5847C40.2296 27.0656 39.8862 26.7931 39.4876 26.6451C38.6374 26.328 37.7802 25.9827 36.8954 25.8206C34.2593 25.3391 31.6187 25.3673 29.0172 26.0626C28.3997 26.227 27.796 26.4971 27.2337 26.8119C26.5793 27.1783 26.5932 27.5612 27.2222 27.9699C28.1186 28.5525 29.1278 28.8461 30.1647 28.9729C31.4712 29.1327 32.7892 29.2078 34.1026 29.2713C35.9184 29.3582 37.7157 29.539 39.4162 30.2414C39.8862 30.4364 40.3517 30.6971 40.748 31.0189C41.7434 31.8223 41.7527 33.0085 40.7296 33.7743C40.1627 34.1994 39.4922 34.5189 38.824 34.7632C37.4368 35.2706 35.9783 35.4138 34.5151 35.5008C34.3976 35.5078 34.2801 35.5149 34.1119 35.5243C34.1119 35.9142 34.1119 36.2877 34.1119 36.6612C34.1119 36.8209 34.1119 36.9783 34.1119 37.138C34.1095 37.7393 33.9068 38.0212 33.4874 38.0165C33.0703 38.0118 32.8814 37.7346 32.8814 37.1192C32.8814 36.7152 32.8814 36.3112 32.8814 35.9095C32.8814 35.7897 32.8722 35.6699 32.8676 35.5524C32.0265 35.4632 31.2039 35.4021 30.3882 35.2847C29.1992 35.1132 28.031 34.8383 26.9595 34.2581C26.3236 33.9152 25.7498 33.4971 25.5609 32.7243C25.5263 32.5857 25.5033 32.4283 25.5309 32.2921C25.5885 31.9843 25.7821 31.7917 26.0978 31.7753C26.3973 31.7588 26.6554 31.9092 26.6945 32.1957C26.7706 32.729 27.1254 32.992 27.5379 33.1518C28.3167 33.4548 29.1071 33.7766 29.9205 33.934C32.5035 34.4343 35.0958 34.4085 37.6673 33.8118C38.1788 33.6944 38.6719 33.4924 39.165 33.3068C39.377 33.2269 39.5775 33.1071 39.7664 32.9803C40.3955 32.5622 40.4001 32.2239 39.7756 31.8105C39.0406 31.3219 38.2157 31.04 37.3608 30.9108C36.1787 30.7323 34.9852 30.5796 33.7916 30.5374C31.9044 30.4716 30.0311 30.3612 28.2176 29.7833C27.4941 29.5531 26.7982 29.2548 26.213 28.7451C25.2959 27.9464 25.2728 26.8776 26.1761 26.0626C27.0102 25.3109 28.0448 24.9562 29.1048 24.7495C30.2431 24.5287 31.4021 24.4183 32.5565 24.2914C32.8284 24.2609 32.8998 24.1787 32.8906 23.9179C32.8745 23.4787 32.8837 23.0371 32.886 22.5978C32.8883 22.0411 33.1118 21.7428 33.5128 21.7522C33.8999 21.7592 34.1142 22.0505 34.1188 22.5837C34.1119 23.1404 34.1095 23.6877 34.1095 24.1928Z" fill="url(#paint3_linear_186_248)" stroke="url(#paint4_linear_186_248)" stroke-miterlimit="10"/>
<defs>
<linearGradient id="paint0_linear_186_248" x1="33.5" y1="0" x2="33.5" y2="67" gradientUnits="userSpaceOnUse">
<stop stop-color="#F9D390"/>
<stop offset="1" stop-color="#E2B15B"/>
</linearGradient>
<linearGradient id="paint1_linear_186_248" x1="33.5006" y1="17.9902" x2="33.5006" y2="48.0618" gradientUnits="userSpaceOnUse">
<stop stop-color="#F9D390"/>
<stop offset="1" stop-color="#E2B15B"/>
</linearGradient>
<linearGradient id="paint2_linear_186_248" x1="33.5006" y1="17.9902" x2="33.5006" y2="48.0618" gradientUnits="userSpaceOnUse">
<stop stop-color="#F9D390"/>
<stop offset="1" stop-color="#E2B15B"/>
</linearGradient>
<linearGradient id="paint3_linear_186_248" x1="33.5037" y1="21.752" x2="33.5037" y2="38.0166" gradientUnits="userSpaceOnUse">
<stop stop-color="#F9D390"/>
<stop offset="1" stop-color="#E2B15B"/>
</linearGradient>
<linearGradient id="paint4_linear_186_248" x1="33.5037" y1="21.752" x2="33.5037" y2="38.0166" gradientUnits="userSpaceOnUse">
<stop stop-color="#F9D390"/>
<stop offset="1" stop-color="#E2B15B"/>
</linearGradient>
</defs>
</svg>
