<svg width="67" height="67" viewBox="0 0 67 67" fill="none" xmlns="http://www.w3.org/2000/svg">
<rect x="1.5" y="1.5" width="64" height="64" rx="9.5" stroke="url(#paint0_linear_186_256)" stroke-width="3" stroke-linejoin="round"/>
<path d="M34.6389 19.8856C34.6424 20.1195 34.6424 20.2647 34.6424 20.4135C34.6994 26.9892 34.7529 33.5649 34.8099 40.1405C34.8135 40.7641 34.646 41.0865 34.2362 41.2388C33.7195 41.4301 33.1708 41.1432 33.0532 40.6011C33.014 40.4204 33.014 40.2326 33.0105 40.0484C32.9534 33.5223 32.9 26.9963 32.843 20.4738C32.843 20.3143 32.8394 20.1585 32.8394 19.914C32.6791 20.0451 32.5757 20.123 32.4795 20.2081C30.7122 21.7599 28.9448 23.3116 27.1775 24.8634C27.1026 24.9308 27.0278 24.9981 26.953 25.0583C26.5254 25.3949 26.0159 25.363 25.6773 24.9874C25.3424 24.6119 25.3673 24.0875 25.77 23.7262C26.4613 23.0991 27.1703 22.4897 27.8687 21.8732C29.5541 20.3852 31.236 18.9078 32.9178 17.4304C33.5414 16.8813 33.887 16.8742 34.5141 17.4056C36.8979 19.4251 39.2782 21.4481 41.662 23.4675C41.9506 23.712 42.1715 23.9848 42.1145 24.3887C42.0076 25.1185 41.1987 25.4055 40.6001 24.913C39.7663 24.2222 38.9468 23.5136 38.1201 22.8121C37.0583 21.9087 35.9929 21.0088 34.931 20.1089C34.8598 20.0451 34.7814 19.9919 34.6389 19.8856Z" fill="url(#paint1_linear_186_256)" stroke="url(#paint2_linear_186_256)" stroke-miterlimit="10"/>
<path d="M32.9802 48.62C27.3396 48.666 21.7026 48.7156 16.062 48.7617C15.3743 48.7688 14.9361 48.3365 15.0251 47.7484C15.0893 47.3339 15.3957 47.0327 15.8233 46.9831C15.9587 46.969 16.0977 46.9725 16.2331 46.9725C27.386 46.8804 38.5388 46.7847 49.6917 46.6926C49.8414 46.6926 49.991 46.682 50.1407 46.6997C50.6253 46.7528 50.9531 47.1355 50.9389 47.6138C50.9282 48.0744 50.5897 48.4286 50.1158 48.4712C49.991 48.4818 49.8663 48.4782 49.7416 48.4782C44.158 48.5243 38.5674 48.5704 32.9802 48.62Z" fill="url(#paint3_linear_186_256)" stroke="url(#paint4_linear_186_256)" stroke-miterlimit="10"/>
<defs>
<linearGradient id="paint0_linear_186_256" x1="33.5" y1="0" x2="33.5" y2="67" gradientUnits="userSpaceOnUse">
<stop stop-color="#F9D390"/>
<stop offset="1" stop-color="#E2B15B"/>
</linearGradient>
<linearGradient id="paint1_linear_186_256" x1="33.7844" y1="17.0127" x2="33.7844" y2="41.2981" gradientUnits="userSpaceOnUse">
<stop stop-color="#F9D390"/>
<stop offset="1" stop-color="#E2B15B"/>
</linearGradient>
<linearGradient id="paint2_linear_186_256" x1="33.7844" y1="17.0127" x2="33.7844" y2="41.2981" gradientUnits="userSpaceOnUse">
<stop stop-color="#F9D390"/>
<stop offset="1" stop-color="#E2B15B"/>
</linearGradient>
<linearGradient id="paint3_linear_186_256" x1="32.9765" y1="46.6895" x2="32.9765" y2="48.7618" gradientUnits="userSpaceOnUse">
<stop stop-color="#F9D390"/>
<stop offset="1" stop-color="#E2B15B"/>
</linearGradient>
<linearGradient id="paint4_linear_186_256" x1="32.9765" y1="46.6895" x2="32.9765" y2="48.7618" gradientUnits="userSpaceOnUse">
<stop stop-color="#F9D390"/>
<stop offset="1" stop-color="#E2B15B"/>
</linearGradient>
</defs>
</svg>
