<svg width="67" height="67" viewBox="0 0 67 67" fill="none" xmlns="http://www.w3.org/2000/svg">
<path d="M44.3181 38.3097C45.0568 38.3097 45.6556 37.7233 45.6556 37C45.6556 36.2768 45.0568 35.6904 44.3181 35.6904C43.5793 35.6904 42.9805 36.2768 42.9805 37C42.9805 37.7233 43.5793 38.3097 44.3181 38.3097Z" fill="url(#paint0_linear_186_266)"/>
<path d="M21.8765 44.2991C21.2981 44.2991 20.8281 43.839 20.8281 43.2727V37.1759C20.8281 36.6095 21.2981 36.1494 21.8765 36.1494C22.4549 36.1494 22.9249 36.6095 22.9249 37.1759V43.2727C22.9249 43.839 22.4549 44.2991 21.8765 44.2991Z" fill="url(#paint1_linear_186_266)"/>
<path d="M17.7109 40.2198C17.7109 39.6535 18.1809 39.1934 18.7593 39.1934H24.9863C25.5648 39.1934 26.0347 39.6535 26.0347 40.2198C26.0347 40.7861 25.5648 41.2463 24.9863 41.2463H18.7593C18.1809 41.2463 17.7109 40.7861 17.7109 40.2198Z" fill="url(#paint2_linear_186_266)"/>
<path d="M44.3181 44.1241C45.0568 44.1241 45.6556 43.5378 45.6556 42.8145C45.6556 42.0912 45.0568 41.5049 44.3181 41.5049C43.5793 41.5049 42.9805 42.0912 42.9805 42.8145C42.9805 43.5378 43.5793 44.1241 44.3181 44.1241Z" fill="url(#paint3_linear_186_266)"/>
<path d="M47.2829 41.212C48.0216 41.212 48.6205 40.6257 48.6205 39.9024C48.6205 39.1791 48.0216 38.5928 47.2829 38.5928C46.5442 38.5928 45.9453 39.1791 45.9453 39.9024C45.9453 40.6257 46.5442 41.212 47.2829 41.212Z" fill="url(#paint4_linear_186_266)"/>
<path d="M41.3454 41.212C40.6043 41.212 40.0078 40.628 40.0078 39.9024C40.0078 39.1768 40.6043 38.5928 41.3454 38.5928C42.0865 38.5928 42.683 39.1768 42.683 39.9024C42.683 40.628 42.0865 41.212 41.3454 41.212Z" fill="url(#paint5_linear_186_266)"/>
<path d="M47.16 21.4664C46.7442 21.3868 46.3194 21.3426 45.9127 21.2364C44.774 20.9267 43.8341 20.2896 43.102 19.387C42.4242 18.5552 42.0175 17.6084 41.909 16.5554C41.7825 15.3962 42.0084 14.2901 42.5959 13.2725C43.2105 12.2018 44.0962 11.4231 45.244 10.9276C46.0393 10.5825 46.8798 10.432 47.7564 10.4763C48.7054 10.5205 49.5911 10.7771 50.4045 11.2727C51.706 12.0602 52.5555 13.184 52.9351 14.6352C53.0255 14.9626 53.0526 15.3077 53.1158 15.644C53.1158 15.8652 53.1158 16.0864 53.1158 16.3076C53.1068 16.343 53.0978 16.3696 53.0887 16.405C52.9984 17.511 52.6007 18.5021 51.8957 19.3693C51.1547 20.2807 50.2057 20.9178 49.0579 21.2364C48.6602 21.3426 48.2535 21.3868 47.8468 21.4664C47.6209 21.4664 47.3949 21.4664 47.16 21.4664Z" stroke="url(#paint6_linear_186_266)" stroke-width="2" stroke-miterlimit="10"/>
<path d="M46.9876 18.5102C46.9876 18.6253 46.9876 18.7845 46.9876 18.9527C46.9966 19.2624 47.1954 19.4747 47.4846 19.4747C47.7739 19.4836 47.9817 19.2801 47.9998 18.9704C48.0088 18.8376 48.0088 18.7049 47.9998 18.5722C47.9908 18.4571 48.0359 18.4129 48.1444 18.3775C48.6686 18.2094 49.0391 17.882 49.1295 17.3245C49.238 16.6785 49.0843 16.1122 48.4969 15.7406C48.1534 15.5194 47.7648 15.3689 47.4033 15.1743C47.2858 15.1123 47.1683 15.0415 47.0689 14.953C46.9062 14.8026 46.9153 14.5814 47.096 14.4664C47.2225 14.3867 47.3852 14.3425 47.5389 14.3159C47.8462 14.2717 48.1263 14.369 48.4065 14.5018C48.524 14.5548 48.6505 14.5902 48.777 14.5283C49.0934 14.3602 49.1295 13.8115 48.8222 13.6434C48.6144 13.5284 48.3613 13.4841 48.1173 13.4222C48.0269 13.3957 47.9998 13.3691 47.9998 13.2806C47.9998 13.1213 48.0088 12.9621 47.9817 12.8028C47.9456 12.555 47.7106 12.3781 47.4575 12.3957C47.1954 12.4134 47.0056 12.5993 46.9876 12.8559C46.9785 12.9886 46.9695 13.1213 46.9876 13.2541C47.0056 13.4222 46.9333 13.493 46.7797 13.5461C46.373 13.6877 46.0567 13.9354 45.9392 14.369C45.7313 15.0858 46.0296 15.7671 46.7074 16.1034C46.9785 16.2361 47.2587 16.36 47.5298 16.5016C47.6835 16.5812 47.8371 16.6785 47.9546 16.7936C48.1896 17.0236 48.1173 17.3422 47.81 17.4661C47.4485 17.6077 47.096 17.5546 46.7797 17.3422C46.6712 17.2626 46.5718 17.1741 46.4543 17.1033C46.2465 16.9706 46.0476 17.0059 45.903 17.2006C45.659 17.5192 45.7132 17.8643 46.0747 18.0855C46.3459 18.2448 46.6532 18.351 46.9876 18.5102Z" fill="url(#paint7_linear_186_266)"/>
<rect x="1.5" y="1.5" width="64" height="64" rx="9.5" stroke="url(#paint8_linear_186_266)" stroke-width="3" stroke-linejoin="round"/>
<path d="M50.8339 34.5482C48.4841 31.2919 42.1486 30.6105 37.1688 30.469C36.4457 29.1593 35.0359 28.2656 33.4091 28.2656C31.7823 28.2656 30.3633 29.1593 29.6493 30.469C24.6695 30.6105 18.325 31.2919 15.9842 34.5482C12.5047 39.3708 11.4925 51.1485 13.8152 53.6969C16.1379 56.2542 22.7987 53.5553 26.2783 48.8744C26.9019 48.0426 27.4532 47.1843 27.9683 46.3436C30.4447 42.3086 36.3915 42.3086 38.8769 46.3436C39.3921 47.1843 39.9524 48.0337 40.567 48.8744C44.0465 53.5553 50.7073 56.2542 53.0301 53.6969C55.3256 51.1485 54.3044 39.3708 50.8339 34.5482Z" stroke="url(#paint9_linear_186_266)" stroke-width="2.5" stroke-miterlimit="10"/>
<defs>
<linearGradient id="paint0_linear_186_266" x1="44.3181" y1="35.6904" x2="44.3181" y2="38.3097" gradientUnits="userSpaceOnUse">
<stop stop-color="#F9D390"/>
<stop offset="1" stop-color="#E2B15B"/>
</linearGradient>
<linearGradient id="paint1_linear_186_266" x1="21.8765" y1="36.1494" x2="21.8765" y2="44.2991" gradientUnits="userSpaceOnUse">
<stop stop-color="#F9D390"/>
<stop offset="1" stop-color="#E2B15B"/>
</linearGradient>
<linearGradient id="paint2_linear_186_266" x1="21.8728" y1="39.1934" x2="21.8728" y2="41.2463" gradientUnits="userSpaceOnUse">
<stop stop-color="#F9D390"/>
<stop offset="1" stop-color="#E2B15B"/>
</linearGradient>
<linearGradient id="paint3_linear_186_266" x1="44.3181" y1="41.5049" x2="44.3181" y2="44.1241" gradientUnits="userSpaceOnUse">
<stop stop-color="#F9D390"/>
<stop offset="1" stop-color="#E2B15B"/>
</linearGradient>
<linearGradient id="paint4_linear_186_266" x1="47.2829" y1="38.5928" x2="47.2829" y2="41.212" gradientUnits="userSpaceOnUse">
<stop stop-color="#F9D390"/>
<stop offset="1" stop-color="#E2B15B"/>
</linearGradient>
<linearGradient id="paint5_linear_186_266" x1="41.3454" y1="38.5928" x2="41.3454" y2="41.212" gradientUnits="userSpaceOnUse">
<stop stop-color="#F9D390"/>
<stop offset="1" stop-color="#E2B15B"/>
</linearGradient>
<linearGradient id="paint6_linear_186_266" x1="47.4954" y1="10.4688" x2="47.4954" y2="21.4664" gradientUnits="userSpaceOnUse">
<stop stop-color="#F9D390"/>
<stop offset="1" stop-color="#E2B15B"/>
</linearGradient>
<linearGradient id="paint7_linear_186_266" x1="47.4578" y1="12.3945" x2="47.4578" y2="19.475" gradientUnits="userSpaceOnUse">
<stop stop-color="#F9D390"/>
<stop offset="1" stop-color="#E2B15B"/>
</linearGradient>
<linearGradient id="paint8_linear_186_266" x1="33.5" y1="0" x2="33.5" y2="67" gradientUnits="userSpaceOnUse">
<stop stop-color="#F9D390"/>
<stop offset="1" stop-color="#E2B15B"/>
</linearGradient>
<linearGradient id="paint9_linear_186_266" x1="33.4114" y1="28.2656" x2="33.4114" y2="54.6836" gradientUnits="userSpaceOnUse">
<stop stop-color="#F9D390"/>
<stop offset="1" stop-color="#E2B15B"/>
</linearGradient>
</defs>
</svg>
