<svg width="67" height="67" viewBox="0 0 67 67" fill="none" xmlns="http://www.w3.org/2000/svg">
<rect x="1.5" y="1.5" width="64" height="64" rx="9.5" stroke="url(#paint0_linear_186_287)" stroke-width="3" stroke-linejoin="round"/>
<path d="M48.6307 23.4203L48.345 20.2885L45.9508 20.1067C45.7743 19.6027 45.5391 19.1069 45.2451 18.6276L46.6228 16.7106L44.3546 14.4961L42.4223 15.8512C41.9351 15.562 41.4226 15.3306 40.8934 15.1489L40.7001 12.8352L37.5078 12.5625L36.9197 14.8101C36.3652 14.901 35.8108 15.0414 35.2731 15.248L33.6181 13.6119L33.5425 13.6615L31.0054 15.4215L32.0219 17.5121C31.6439 17.9418 31.3163 18.4045 31.0474 18.8921L28.712 18.6772L27.8887 21.718L30.0477 22.6848C30.0393 23.2385 30.0981 23.7921 30.2073 24.3457L28.2667 25.6678L29.6277 28.5103L31.9295 27.8823C32.2908 28.312 32.6856 28.7004 33.1225 29.0309L32.4924 31.295L35.3907 32.6171L36.7601 30.6588C37.2978 30.7579 37.8522 30.7992 38.4067 30.791L39.4148 32.9394L42.498 32.1213L42.3803 30.9067L42.2627 29.7415C42.4896 29.6093 42.7164 29.4689 42.9432 29.3201C43.1784 29.1549 43.3969 28.9896 43.6069 28.8078L45.7911 29.8242L47.6141 27.2461L45.8835 25.5769C46.0768 25.0729 46.2196 24.544 46.3036 24.0152L48.6307 23.4203ZM41.1538 26.8495C40.9354 26.9982 40.7169 27.1221 40.4817 27.2296C38.2639 28.312 35.5168 27.684 34.055 25.6348C32.4336 23.3707 32.9881 20.2472 35.2899 18.6524C35.4915 18.512 35.7016 18.3963 35.9116 18.2888C38.1379 17.1733 40.9102 17.8013 42.3887 19.8671C44.0101 22.1312 43.4557 25.2547 41.1538 26.8495Z" fill="url(#paint1_linear_186_287)"/>
<path d="M56.5783 41.8384L55.6794 38.8224L53.2935 39.095C53.0163 38.6323 52.6887 38.1861 52.3106 37.7729L53.2851 35.6245L50.6304 33.881L49.0006 35.5832C48.463 35.3932 47.9169 35.2609 47.3624 35.1866L46.7156 32.9473L43.54 33.2943L43.4056 35.608C42.8763 35.798 42.3639 36.0459 41.8766 36.3517L39.9192 35.0626L39.8604 35.1287L37.7097 37.335L39.1127 39.1942C38.8271 39.69 38.6002 40.2106 38.4322 40.7394L36.0967 40.979L35.8867 44.1108L38.1886 44.6479C38.2894 45.1932 38.449 45.7303 38.6758 46.2509L37.0292 47.9201L38.9195 50.4568L41.0617 49.3992C41.4986 49.7545 41.969 50.0519 42.4563 50.2998L42.2883 52.6466L45.3966 53.3903L46.3543 51.2088C46.9004 51.2005 47.4549 51.1427 47.9925 51.027L49.4039 52.944L52.2686 51.5558L51.9158 50.3907L51.5713 49.2669C51.7729 49.0934 51.9662 48.9199 52.151 48.7298C52.3442 48.5315 52.529 48.3167 52.6971 48.1018L55.0409 48.6803L56.3263 45.8047L54.3016 44.4909C54.3941 43.962 54.4277 43.4167 54.4109 42.8795L56.5783 41.8384ZM49.9079 46.6227C49.7231 46.8128 49.5299 46.9698 49.3283 47.1268C47.3708 48.6142 44.5481 48.515 42.7083 46.7797C40.6753 44.871 40.6081 41.6979 42.5487 39.69C42.7167 39.5165 42.9015 39.3595 43.0863 39.219C45.0522 37.6986 47.8917 37.7895 49.7483 39.533C51.7814 41.45 51.857 44.6231 49.9079 46.6227Z" fill="url(#paint2_linear_186_287)"/>
<path d="M35.1641 41.1277L34.828 37.4093L31.9801 37.1862C31.7701 36.583 31.4844 35.9963 31.14 35.4262L32.7782 33.1455L30.0899 30.5096L27.788 32.1209C27.2083 31.7821 26.5951 31.5012 25.965 31.2863L25.7298 28.5347L21.9493 28.2207L21.2521 30.8897C20.5884 30.9971 19.9331 31.1706 19.2946 31.4103L17.3204 29.4684L17.2364 29.5345L14.2205 31.6251L15.4218 34.1041C14.9765 34.6164 14.5901 35.17 14.2625 35.7484L11.4901 35.5005L10.5156 39.1032L13.0779 40.2518C13.0695 40.9129 13.1367 41.5739 13.2711 42.2267L10.9609 43.7967L12.5739 47.1763L15.3126 46.4326C15.741 46.945 16.2199 47.3994 16.7239 47.8043L15.9763 50.4981L19.4206 52.0681L21.0504 49.7462C21.6889 49.8618 22.3442 49.9114 22.9995 49.9032L24.2008 52.4565L27.8636 51.4814L27.7208 50.0436L27.5864 48.6637C27.8552 48.5067 28.1325 48.3414 28.3929 48.1679C28.6701 47.9778 28.9305 47.7713 29.1826 47.5647L31.7785 48.7711L33.9459 45.7055L31.8961 43.7223C32.1229 43.1191 32.2909 42.4994 32.4001 41.8714L35.1641 41.1277ZM26.2758 45.2014C26.0238 45.375 25.755 45.5237 25.4861 45.6559C22.8566 46.945 19.5887 46.193 17.8497 43.7554C15.9258 41.0699 16.5811 37.3515 19.3198 35.4592C19.5551 35.2939 19.8071 35.1535 20.0591 35.0295C22.697 33.7074 25.9986 34.4428 27.7544 36.9053C29.6698 39.599 29.0146 43.3092 26.2758 45.2014Z" fill="url(#paint3_linear_186_287)"/>
<defs>
<linearGradient id="paint0_linear_186_287" x1="33.5" y1="0" x2="33.5" y2="67" gradientUnits="userSpaceOnUse">
<stop stop-color="#F9D390"/>
<stop offset="1" stop-color="#E2B15B"/>
</linearGradient>
<linearGradient id="paint1_linear_186_287" x1="38.2597" y1="12.5625" x2="38.2597" y2="32.9394" gradientUnits="userSpaceOnUse">
<stop stop-color="#F9D390"/>
<stop offset="1" stop-color="#E2B15B"/>
</linearGradient>
<linearGradient id="paint2_linear_186_287" x1="46.2325" y1="32.9473" x2="46.2325" y2="53.3903" gradientUnits="userSpaceOnUse">
<stop stop-color="#F9D390"/>
<stop offset="1" stop-color="#E2B15B"/>
</linearGradient>
<linearGradient id="paint3_linear_186_287" x1="22.8398" y1="28.2207" x2="22.8398" y2="52.4565" gradientUnits="userSpaceOnUse">
<stop stop-color="#F9D390"/>
<stop offset="1" stop-color="#E2B15B"/>
</linearGradient>
</defs>
</svg>
