<?xml version="1.0" encoding="utf-8"?>
<!-- Generator: Adobe Illustrator 24.3.0, SVG Export Plug-In . SVG Version: 6.00 Build 0)  -->
<svg version="1.1" id="Layer_1" xmlns="http://www.w3.org/2000/svg" xmlns:xlink="http://www.w3.org/1999/xlink" x="0px" y="0px"
	 viewBox="0 0 309 197" style="enable-background:new 0 0 309 197;" xml:space="preserve">
<style type="text/css">
	.st0{fill-rule:evenodd;clip-rule:evenodd;fill:url(#SVGID_1_);}
	.st1{fill:url(#SVGID_2_);}
	.st2{fill:#EFA443;}
	.st3{fill-rule:evenodd;clip-rule:evenodd;fill:url(#SVGID_3_);}
	.st4{fill-rule:evenodd;clip-rule:evenodd;fill:url(#SVGID_4_);}
	.st5{fill-rule:evenodd;clip-rule:evenodd;fill:url(#SVGID_5_);}
	.st6{fill-rule:evenodd;clip-rule:evenodd;fill:#AA7518;}
	.st7{fill-rule:evenodd;clip-rule:evenodd;fill:url(#SVGID_6_);}
	.st8{fill-rule:evenodd;clip-rule:evenodd;fill:url(#SVGID_7_);}
	.st9{fill-rule:evenodd;clip-rule:evenodd;fill:url(#SVGID_8_);}
	.st10{fill-rule:evenodd;clip-rule:evenodd;fill:url(#SVGID_9_);}
</style>
<linearGradient id="SVGID_1_" gradientUnits="userSpaceOnUse" x1="88.297" y1="9.464" x2="88.297" y2="1.702" gradientTransform="matrix(1 0 0 -1 0 198)">
	<stop  offset="0" style="stop-color:#F9D390"/>
	<stop  offset="1" style="stop-color:#E2B15B"/>
</linearGradient>
<path class="st0" d="M154.4,188.5l-7.2,7.8h-125l7.2-7.8H154.4z"/>
<linearGradient id="SVGID_2_" gradientUnits="userSpaceOnUse" x1="154.4942" y1="191.8618" x2="154.4942" y2="7.839" gradientTransform="matrix(1 0 0 -1 0 198)">
	<stop  offset="0" style="stop-color:#F9D390"/>
	<stop  offset="1" style="stop-color:#E2B15B"/>
</linearGradient>
<path class="st1" d="M11.5,6.1h296.8h0.7v0.8v170.8v0.3l-0.2,0.2L298,189.9l-0.2,0.2h-0.3H0.7H0v-0.8V18.5L0.2,18L10.9,6.4l0.2-0.2
	H11.5L11.5,6.1z M307.5,7.8H11.8L1.5,18.9v169.7h295.7l10.3-11.1V7.8z"/>
<path class="st2" d="M13.1,11.3l-8.4,9V185h291.1l8.4-9V11.3H13.1z M4.1,19.9l8.6-9.3l0.1-0.1H13h291.6h0.4v0.4v165.3v0.2l-0.1,0.1
	l-8.6,9.3l-0.1,0.1H296H4.4H4v-0.4V20.2L4.1,19.9z"/>
<linearGradient id="SVGID_3_" gradientUnits="userSpaceOnUse" x1="5.5809" y1="190.2378" x2="5.5809" y2="181.4243" gradientTransform="matrix(1 0 0 -1 0 198)">
	<stop  offset="0" style="stop-color:#F9D390"/>
	<stop  offset="1" style="stop-color:#E2B15B"/>
</linearGradient>
<path class="st3" d="M1.5,16.6l8.2-8.8L1.5,16.6z M7.5,7.8H1.5v6.5L7.5,7.8z"/>
<linearGradient id="SVGID_4_" gradientUnits="userSpaceOnUse" x1="304.7935" y1="15.941" x2="304.7935" y2="9.405" gradientTransform="matrix(1 0 0 -1 0 198)">
	<stop  offset="0" style="stop-color:#F9D390"/>
	<stop  offset="1" style="stop-color:#E2B15B"/>
</linearGradient>
<path class="st4" d="M307.8,182.1v6.5h-6L307.8,182.1z"/>
<linearGradient id="SVGID_5_" gradientUnits="userSpaceOnUse" x1="287.8764" y1="195.0024" x2="287.8764" y2="186.7124" gradientTransform="matrix(1 0 0 -1 0 198)">
	<stop  offset="0" style="stop-color:#F9D390"/>
	<stop  offset="1" style="stop-color:#E2B15B"/>
</linearGradient>
<path class="st5" d="M286.3,11.3h-4.6l7.7-8.3h4.6L286.3,11.3z"/>
<path class="st6" d="M291.1,6.1h5.8L294,3L291.1,6.1z"/>
<linearGradient id="SVGID_6_" gradientUnits="userSpaceOnUse" x1="21.1131" y1="195.0024" x2="21.1131" y2="186.7124" gradientTransform="matrix(1 0 0 -1 0 198)">
	<stop  offset="0" style="stop-color:#F9D390"/>
	<stop  offset="1" style="stop-color:#E2B15B"/>
</linearGradient>
<path class="st7" d="M22.6,11.3h4.6L19.6,3H15L22.6,11.3z"/>
<path class="st6" d="M17.9,6.1H12L15,3L17.9,6.1z"/>
<linearGradient id="SVGID_7_" gradientUnits="userSpaceOnUse" x1="287.8764" y1="12.984" x2="287.8764" y2="4.699" gradientTransform="matrix(1 0 0 -1 0 198)">
	<stop  offset="0" style="stop-color:#F9D390"/>
	<stop  offset="1" style="stop-color:#E2B15B"/>
</linearGradient>
<path class="st8" d="M286.3,185h-4.6l7.7,8.3h4.6L286.3,185z"/>
<path class="st6" d="M291.1,190.2h5.8l-2.9,3.1L291.1,190.2z"/>
<linearGradient id="SVGID_8_" gradientUnits="userSpaceOnUse" x1="21.1131" y1="12.984" x2="21.1131" y2="4.699" gradientTransform="matrix(1 0 0 -1 0 198)">
	<stop  offset="0" style="stop-color:#F9D390"/>
	<stop  offset="1" style="stop-color:#E2B15B"/>
</linearGradient>
<path class="st9" d="M22.6,185h4.6l-7.7,8.3H15L22.6,185z"/>
<path class="st6" d="M17.9,190.2H12l2.9,3.1L17.9,190.2z"/>
<linearGradient id="SVGID_9_" gradientUnits="userSpaceOnUse" x1="220.3087" y1="198" x2="220.3087" y2="190.2334" gradientTransform="matrix(1 0 0 -1 0 198)">
	<stop  offset="0" style="stop-color:#F9D390"/>
	<stop  offset="1" style="stop-color:#E2B15B"/>
</linearGradient>
<path class="st10" d="M286.4,0l-7.2,7.8h-125l7.2-7.8H286.4z"/>
</svg>
