<svg width="309" height="63" viewBox="0 0 309 63" fill="none" xmlns="http://www.w3.org/2000/svg">
<path d="M289.267 57.6936H1.89844V24.5811C8.63343 17.7141 12.4066 13.8633 19.1416 7C131.366 7 194.286 7 306.51 7V40.1124C299.775 46.9794 296.002 50.8266 289.267 57.6936Z" fill="url(#paint0_linear_399_5415)"/>
<path d="M123.968 61H34.9518C34.0715 61 33.3633 61.45 33.3633 62C33.3633 62.5542 34.0781 63 34.9518 63H123.968C124.848 63 125.556 62.55 125.556 62C125.563 61.45 124.848 61 123.968 61Z" fill="url(#paint1_linear_399_5415)"/>
<path d="M307.144 6.15317L45.014 5.66648C44.5365 5.66648 44.1523 6.05815 44.1523 6.54499C44.1523 7.03183 44.5401 7.4235 45.014 7.4235L306.279 7.91018V39.778L289.542 56.8467H272.4C271.922 56.8467 271.538 57.242 271.538 57.7252C271.538 58.2121 271.926 58.6037 272.4 58.6037H289.898C290.127 58.6037 290.346 58.5122 290.508 58.3475L307.751 40.7663C307.913 40.6016 308.002 40.3783 308.002 40.1441V7.03167C308.006 6.54849 307.618 6.15317 307.144 6.15317Z" fill="url(#paint2_linear_399_5415)"/>
<path d="M168.575 2H270.849C271.86 2 272.674 1.55417 272.674 1C272.674 0.445833 271.86 0 270.849 0H168.575C167.564 0 166.75 0.445833 166.75 1C166.75 1.55417 167.571 2 168.575 2Z" fill="url(#paint3_linear_399_5415)"/>
<path d="M2.73565 56.8505C2.72847 56.8505 2.72129 56.8432 2.72129 56.8359V24.9863C2.72129 24.9827 2.72129 24.979 2.72488 24.9754L19.4547 7.91766C19.4582 7.91766 19.4618 7.914 19.4654 7.914H28.3006H32.6338H33.4344C33.894 7.914 34.314 7.57724 34.3535 7.11236C34.3966 6.59257 33.9945 6.15332 33.4955 6.15332H19.1028C18.8731 6.15332 18.6541 6.24483 18.4925 6.40955L1.24935 23.9944C1.0878 24.1591 0.998047 24.3824 0.998047 24.6166V57.7144C0.998047 58.2086 1.38937 58.6076 1.87403 58.6076H260.92C261.398 58.6076 261.782 58.2122 261.782 57.7291C261.782 57.2422 261.394 56.8505 260.92 56.8505H2.73565Z" fill="url(#paint4_linear_399_5415)"/>
<path d="M97.3405 34.442H97.8625C98.2105 34.442 98.4685 34.394 98.6365 34.298C98.8165 34.19 98.9065 34.022 98.9065 33.794V23.624C98.9065 23.18 98.5585 22.958 97.8625 22.958H97.3405V22.4H101.102L105.152 31.778L109.256 22.4H113.234V22.958H112.694C112.01 22.958 111.668 23.18 111.668 23.624V33.794C111.668 34.226 112.01 34.442 112.694 34.442H113.234V35H107.942V34.442H108.464C108.812 34.442 109.07 34.394 109.238 34.298C109.418 34.19 109.508 34.022 109.508 33.794V24.182L105.314 33.632H104.036L99.9145 24.272V33.794C99.9145 34.226 100.256 34.442 100.94 34.442H101.48V35H97.3405V34.442ZM116.508 35.18C115.764 35.18 115.17 35.012 114.726 34.676C114.282 34.328 114.06 33.86 114.06 33.272C114.06 32.372 114.522 31.646 115.446 31.094C116.37 30.53 117.792 30.116 119.712 29.852V28.988C119.712 28.388 119.526 27.938 119.154 27.638C118.794 27.338 118.308 27.188 117.696 27.188C117.252 27.188 116.844 27.278 116.472 27.458C116.112 27.626 115.932 27.806 115.932 27.998C115.932 28.082 115.944 28.184 115.968 28.304C115.992 28.412 116.004 28.496 116.004 28.556C116.004 28.736 115.938 28.898 115.806 29.042C115.686 29.186 115.494 29.258 115.23 29.258C115.002 29.258 114.804 29.174 114.636 29.006C114.48 28.838 114.402 28.604 114.402 28.304C114.402 27.68 114.756 27.2 115.464 26.864C116.172 26.528 117.06 26.36 118.128 26.36C119.316 26.36 120.222 26.618 120.846 27.134C121.482 27.638 121.8 28.334 121.8 29.222V33.848C121.8 34.232 121.944 34.424 122.232 34.424C122.412 34.424 122.634 34.376 122.898 34.28V34.658C122.682 34.826 122.418 34.952 122.106 35.036C121.794 35.132 121.47 35.18 121.134 35.18C120.762 35.18 120.438 35.114 120.162 34.982C119.886 34.838 119.748 34.598 119.748 34.262V33.83C119.292 34.334 118.776 34.688 118.2 34.892C117.624 35.084 117.06 35.18 116.508 35.18ZM117.516 34.352C117.912 34.352 118.326 34.22 118.758 33.956C119.19 33.692 119.508 33.386 119.712 33.038V30.5C118.524 30.764 117.624 31.13 117.012 31.598C116.412 32.066 116.112 32.57 116.112 33.11C116.112 33.506 116.238 33.812 116.49 34.028C116.742 34.244 117.084 34.352 117.516 34.352ZM129.474 26.36C129.858 26.36 130.182 26.432 130.446 26.576C130.722 26.708 130.86 26.924 130.86 27.224C130.86 27.5 130.788 27.71 130.644 27.854C130.512 27.986 130.326 28.052 130.086 28.052C129.942 28.052 129.828 28.028 129.744 27.98C129.66 27.932 129.57 27.86 129.474 27.764C129.39 27.668 129.306 27.596 129.222 27.548C129.138 27.5 129.03 27.476 128.898 27.476C128.61 27.476 128.322 27.596 128.034 27.836C127.758 28.064 127.524 28.394 127.332 28.826C127.14 29.258 127.032 29.756 127.008 30.32V33.848C127.008 34.052 127.092 34.208 127.26 34.316C127.44 34.412 127.68 34.46 127.98 34.46H128.322V35H123.588V34.46H123.984C124.272 34.46 124.5 34.412 124.668 34.316C124.848 34.22 124.938 34.07 124.938 33.866V28.124C124.938 27.836 124.8 27.692 124.524 27.692C124.416 27.692 124.248 27.734 124.02 27.818L123.894 27.35L126.576 26.45H127.008V28.25C127.188 27.674 127.512 27.218 127.98 26.882C128.448 26.534 128.946 26.36 129.474 26.36ZM141.938 34.46V35H138.734L134.9 31.382L134.756 31.508V33.848C134.756 34.052 134.84 34.208 135.008 34.316C135.188 34.412 135.422 34.46 135.71 34.46H136.052V35H131.336V34.46H131.714C132.014 34.46 132.248 34.412 132.416 34.316C132.596 34.22 132.686 34.07 132.686 33.866V23.768C132.686 23.48 132.542 23.336 132.254 23.336C132.158 23.336 131.996 23.378 131.768 23.462L131.624 22.994L134.252 22.094H134.756V30.464L138.122 27.746C138.242 27.662 138.302 27.566 138.302 27.458C138.302 27.35 138.236 27.26 138.104 27.188C137.984 27.116 137.84 27.08 137.672 27.08H137.222V26.54H141.074V27.08H140.624C140.468 27.08 140.276 27.134 140.048 27.242C139.832 27.35 139.628 27.482 139.436 27.638L136.214 30.302L139.976 33.866C140.168 34.046 140.402 34.19 140.678 34.298C140.966 34.406 141.218 34.46 141.434 34.46H141.938ZM144.098 30.41C144.086 30.494 144.08 30.62 144.08 30.788C144.08 31.88 144.338 32.762 144.854 33.434C145.37 34.106 146.054 34.442 146.906 34.442C147.698 34.442 148.346 34.244 148.85 33.848C149.354 33.44 149.684 32.816 149.84 31.976H150.434C150.338 32.924 149.966 33.698 149.318 34.298C148.67 34.886 147.77 35.18 146.618 35.18C145.142 35.18 143.996 34.802 143.18 34.046C142.376 33.278 141.974 32.186 141.974 30.77C141.974 29.402 142.376 28.328 143.18 27.548C143.984 26.756 145.094 26.36 146.51 26.36C147.818 26.36 148.808 26.696 149.48 27.368C150.152 28.028 150.488 28.892 150.488 29.96V30.41H144.098ZM146.582 27.134C145.934 27.134 145.406 27.362 144.998 27.818C144.59 28.262 144.32 28.862 144.188 29.618H148.67C148.658 28.994 148.484 28.424 148.148 27.908C147.824 27.392 147.302 27.134 146.582 27.134ZM158.161 33.236C158.101 33.908 157.837 34.4 157.369 34.712C156.913 35.024 156.325 35.18 155.605 35.18C154.645 35.18 153.907 34.994 153.391 34.622C152.875 34.25 152.617 33.614 152.617 32.714V27.332H151.285V26.54H152.617V24.974L154.219 24.128H154.705V26.54H157.225V27.332H154.705V32.678C154.705 33.278 154.813 33.722 155.029 34.01C155.245 34.298 155.581 34.442 156.037 34.442C156.409 34.442 156.733 34.346 157.009 34.154C157.285 33.962 157.447 33.656 157.495 33.236H158.161ZM158.899 38.51H159.277C159.577 38.51 159.811 38.462 159.979 38.366C160.159 38.27 160.249 38.12 160.249 37.916V28.124C160.249 27.836 160.105 27.692 159.817 27.692C159.721 27.692 159.559 27.734 159.331 27.818L159.187 27.35L161.815 26.45H162.319V27.746C162.655 27.254 163.081 26.9 163.597 26.684C164.125 26.468 164.671 26.36 165.235 26.36C166.411 26.36 167.341 26.726 168.025 27.458C168.721 28.178 169.069 29.21 169.069 30.554C169.069 32.186 168.703 33.368 167.971 34.1C167.239 34.82 166.171 35.18 164.767 35.18C164.227 35.18 163.729 35.072 163.273 34.856C162.817 34.628 162.499 34.352 162.319 34.028V37.898C162.319 38.102 162.403 38.252 162.571 38.348C162.751 38.456 162.985 38.51 163.273 38.51H163.615V39.05H158.899V38.51ZM164.587 34.388C166.207 34.388 167.017 33.14 167.017 30.644C167.017 29.48 166.819 28.61 166.423 28.034C166.027 27.458 165.403 27.17 164.551 27.17C164.227 27.17 163.891 27.272 163.543 27.476C163.195 27.668 162.901 27.944 162.661 28.304C162.433 28.664 162.319 29.078 162.319 29.546V32.084C162.319 32.732 162.517 33.278 162.913 33.722C163.321 34.166 163.879 34.388 164.587 34.388ZM170.083 34.46H170.461C170.761 34.46 170.995 34.412 171.163 34.316C171.343 34.22 171.433 34.07 171.433 33.866V23.768C171.433 23.48 171.289 23.336 171.001 23.336C170.905 23.336 170.743 23.378 170.515 23.462L170.371 22.994L172.999 22.094H173.503V33.848C173.503 34.052 173.587 34.208 173.755 34.316C173.935 34.412 174.169 34.46 174.457 34.46H174.799V35H170.083V34.46ZM178.242 35.18C177.498 35.18 176.904 35.012 176.46 34.676C176.016 34.328 175.794 33.86 175.794 33.272C175.794 32.372 176.256 31.646 177.18 31.094C178.104 30.53 179.526 30.116 181.446 29.852V28.988C181.446 28.388 181.26 27.938 180.888 27.638C180.528 27.338 180.042 27.188 179.43 27.188C178.986 27.188 178.578 27.278 178.206 27.458C177.846 27.626 177.666 27.806 177.666 27.998C177.666 28.082 177.678 28.184 177.702 28.304C177.726 28.412 177.738 28.496 177.738 28.556C177.738 28.736 177.672 28.898 177.54 29.042C177.42 29.186 177.228 29.258 176.964 29.258C176.736 29.258 176.538 29.174 176.37 29.006C176.214 28.838 176.136 28.604 176.136 28.304C176.136 27.68 176.49 27.2 177.198 26.864C177.906 26.528 178.794 26.36 179.862 26.36C181.05 26.36 181.956 26.618 182.58 27.134C183.216 27.638 183.534 28.334 183.534 29.222V33.848C183.534 34.232 183.678 34.424 183.966 34.424C184.146 34.424 184.368 34.376 184.632 34.28V34.658C184.416 34.826 184.152 34.952 183.84 35.036C183.528 35.132 183.204 35.18 182.868 35.18C182.496 35.18 182.172 35.114 181.896 34.982C181.62 34.838 181.482 34.598 181.482 34.262V33.83C181.026 34.334 180.51 34.688 179.934 34.892C179.358 35.084 178.794 35.18 178.242 35.18ZM179.25 34.352C179.646 34.352 180.06 34.22 180.492 33.956C180.924 33.692 181.242 33.386 181.446 33.038V30.5C180.258 30.764 179.358 31.13 178.746 31.598C178.146 32.066 177.846 32.57 177.846 33.11C177.846 33.506 177.972 33.812 178.224 34.028C178.476 34.244 178.818 34.352 179.25 34.352ZM189.93 35.18C188.454 35.18 187.314 34.802 186.51 34.046C185.718 33.29 185.322 32.198 185.322 30.77C185.322 29.414 185.724 28.34 186.528 27.548C187.332 26.756 188.454 26.36 189.894 26.36C190.482 26.36 191.046 26.444 191.586 26.612C192.126 26.768 192.576 27.044 192.936 27.44L193.116 26.36H193.638V29.456H193.134C193.014 28.676 192.72 28.094 192.252 27.71C191.784 27.326 191.196 27.134 190.488 27.134C189.504 27.134 188.748 27.476 188.22 28.16C187.692 28.832 187.428 29.708 187.428 30.788C187.428 31.88 187.674 32.762 188.166 33.434C188.67 34.106 189.348 34.442 190.2 34.442C191.832 34.442 192.798 33.62 193.098 31.976H193.692C193.596 32.936 193.23 33.71 192.594 34.298C191.97 34.886 191.082 35.18 189.93 35.18ZM196.956 30.41C196.944 30.494 196.938 30.62 196.938 30.788C196.938 31.88 197.196 32.762 197.712 33.434C198.228 34.106 198.912 34.442 199.764 34.442C200.556 34.442 201.204 34.244 201.708 33.848C202.212 33.44 202.542 32.816 202.698 31.976H203.292C203.196 32.924 202.824 33.698 202.176 34.298C201.528 34.886 200.628 35.18 199.476 35.18C198 35.18 196.854 34.802 196.038 34.046C195.234 33.278 194.832 32.186 194.832 30.77C194.832 29.402 195.234 28.328 196.038 27.548C196.842 26.756 197.952 26.36 199.368 26.36C200.676 26.36 201.666 26.696 202.338 27.368C203.01 28.028 203.346 28.892 203.346 29.96V30.41H196.956ZM199.44 27.134C198.792 27.134 198.264 27.362 197.856 27.818C197.448 28.262 197.178 28.862 197.046 29.618H201.528C201.516 28.994 201.342 28.424 201.006 27.908C200.682 27.392 200.16 27.134 199.44 27.134Z" fill="#767676"/>
<path d="M100.36 48.12C99.8138 48.12 99.3238 47.9867 98.8905 47.72C98.4638 47.4467 98.1238 47.0567 97.8705 46.55C97.6238 46.0433 97.5005 45.4333 97.5005 44.72C97.5005 44.0133 97.6271 43.4067 97.8805 42.9C98.1338 42.3933 98.4805 42.0033 98.9205 41.73C99.3605 41.4567 99.8571 41.32 100.41 41.32C100.81 41.32 101.164 41.4033 101.47 41.57C101.777 41.73 102.024 41.9167 102.21 42.13L101.76 42.67C101.587 42.4833 101.39 42.3333 101.17 42.22C100.95 42.1067 100.7 42.05 100.42 42.05C100.007 42.05 99.6438 42.16 99.3305 42.38C99.0238 42.5933 98.7838 42.8967 98.6105 43.29C98.4438 43.6833 98.3605 44.1533 98.3605 44.7C98.3605 45.2467 98.4438 45.7233 98.6105 46.13C98.7771 46.53 99.0105 46.84 99.3105 47.06C99.6171 47.28 99.9771 47.39 100.39 47.39C100.704 47.39 100.984 47.3233 101.23 47.19C101.477 47.0567 101.704 46.8767 101.91 46.65L102.37 47.17C102.11 47.47 101.817 47.7033 101.49 47.87C101.164 48.0367 100.787 48.12 100.36 48.12ZM105.72 48.12C105.174 48.12 104.687 47.98 104.26 47.7C103.84 47.42 103.51 47.0233 103.27 46.51C103.037 45.9967 102.92 45.39 102.92 44.69C102.92 43.99 103.037 43.39 103.27 42.89C103.51 42.3833 103.84 41.9967 104.26 41.73C104.687 41.4567 105.174 41.32 105.72 41.32C106.274 41.32 106.76 41.4567 107.18 41.73C107.6 41.9967 107.93 42.3833 108.17 42.89C108.41 43.39 108.53 43.99 108.53 44.69C108.53 45.39 108.41 45.9967 108.17 46.51C107.93 47.0233 107.6 47.42 107.18 47.7C106.76 47.98 106.274 48.12 105.72 48.12ZM105.72 47.39C106.114 47.39 106.454 47.28 106.74 47.06C107.034 46.8333 107.26 46.52 107.42 46.12C107.58 45.7133 107.66 45.2367 107.66 44.69C107.66 43.8767 107.484 43.2333 107.13 42.76C106.777 42.2867 106.307 42.05 105.72 42.05C105.134 42.05 104.664 42.2867 104.31 42.76C103.957 43.2333 103.78 43.8767 103.78 44.69C103.78 45.2367 103.86 45.7133 104.02 46.12C104.18 46.52 104.407 46.8333 104.7 47.06C104.994 47.28 105.334 47.39 105.72 47.39ZM109.941 48V41.44H110.941L112.201 44.94C112.281 45.1667 112.358 45.3967 112.431 45.63C112.511 45.8567 112.591 46.0833 112.671 46.31H112.711C112.791 46.0833 112.864 45.8567 112.931 45.63C113.004 45.3967 113.081 45.1667 113.161 44.94L114.401 41.44H115.411V48H114.631V44.39C114.631 44.0967 114.644 43.7733 114.671 43.42C114.698 43.06 114.721 42.7367 114.741 42.45H114.701L114.181 43.94L112.941 47.34H112.391L111.151 43.94L110.631 42.45H110.591C110.611 42.7367 110.631 43.06 110.651 43.42C110.678 43.7733 110.691 44.0967 110.691 44.39V48H109.941ZM117.207 48V41.44H118.037V48H117.207ZM119.834 48V41.44H120.694L123.064 45.56L123.774 46.92H123.814C123.794 46.5867 123.77 46.2433 123.744 45.89C123.724 45.53 123.714 45.1767 123.714 44.83V41.44H124.504V48H123.644L121.264 43.87L120.554 42.52H120.514C120.54 42.8467 120.564 43.1833 120.584 43.53C120.61 43.8767 120.624 44.2233 120.624 44.57V48H119.834ZM128.888 48.12C128.315 48.12 127.805 47.9867 127.358 47.72C126.912 47.4467 126.562 47.0567 126.308 46.55C126.055 46.0433 125.928 45.4333 125.928 44.72C125.928 44.0133 126.058 43.4067 126.318 42.9C126.578 42.3933 126.935 42.0033 127.388 41.73C127.842 41.4567 128.358 41.32 128.938 41.32C129.392 41.32 129.772 41.4067 130.078 41.58C130.392 41.7467 130.642 41.93 130.828 42.13L130.368 42.67C130.202 42.4967 130.008 42.35 129.788 42.23C129.568 42.11 129.292 42.05 128.958 42.05C128.518 42.05 128.135 42.16 127.808 42.38C127.482 42.5933 127.228 42.8967 127.048 43.29C126.875 43.6833 126.788 44.1533 126.788 44.7C126.788 45.5267 126.975 46.1833 127.348 46.67C127.728 47.15 128.268 47.39 128.968 47.39C129.202 47.39 129.425 47.3567 129.638 47.29C129.852 47.2167 130.022 47.12 130.148 47V45.29H128.758V44.6H130.908V47.36C130.702 47.58 130.422 47.7633 130.068 47.91C129.722 48.05 129.328 48.12 128.888 48.12ZM136.302 48.12C135.842 48.12 135.415 48.0333 135.022 47.86C134.629 47.68 134.289 47.4433 134.002 47.15L134.502 46.57C134.735 46.8167 135.009 47.0167 135.322 47.17C135.642 47.3167 135.972 47.39 136.312 47.39C136.745 47.39 137.082 47.2933 137.322 47.1C137.562 46.9 137.682 46.64 137.682 46.32C137.682 46.0933 137.632 45.9133 137.532 45.78C137.439 45.6467 137.309 45.5333 137.142 45.44C136.982 45.3467 136.799 45.2533 136.592 45.16L135.652 44.75C135.445 44.6633 135.239 44.55 135.032 44.41C134.832 44.27 134.662 44.09 134.522 43.87C134.389 43.65 134.322 43.38 134.322 43.06C134.322 42.7267 134.409 42.43 134.582 42.17C134.762 41.9033 135.009 41.6967 135.322 41.55C135.635 41.3967 135.989 41.32 136.382 41.32C136.775 41.32 137.139 41.3967 137.472 41.55C137.805 41.6967 138.089 41.89 138.322 42.13L137.872 42.67C137.672 42.4767 137.449 42.3267 137.202 42.22C136.962 42.1067 136.689 42.05 136.382 42.05C136.015 42.05 135.719 42.1367 135.492 42.31C135.272 42.4833 135.162 42.7167 135.162 43.01C135.162 43.2167 135.215 43.39 135.322 43.53C135.435 43.6633 135.575 43.7733 135.742 43.86C135.909 43.9467 136.079 44.0267 136.252 44.1L137.182 44.5C137.435 44.6067 137.662 44.7367 137.862 44.89C138.069 45.0367 138.232 45.22 138.352 45.44C138.472 45.6533 138.532 45.9233 138.532 46.25C138.532 46.5967 138.442 46.9133 138.262 47.2C138.082 47.48 137.825 47.7033 137.492 47.87C137.159 48.0367 136.762 48.12 136.302 48.12ZM142.244 48.12C141.697 48.12 141.21 47.98 140.784 47.7C140.364 47.42 140.034 47.0233 139.794 46.51C139.56 45.9967 139.444 45.39 139.444 44.69C139.444 43.99 139.56 43.39 139.794 42.89C140.034 42.3833 140.364 41.9967 140.784 41.73C141.21 41.4567 141.697 41.32 142.244 41.32C142.797 41.32 143.284 41.4567 143.704 41.73C144.124 41.9967 144.454 42.3833 144.694 42.89C144.934 43.39 145.054 43.99 145.054 44.69C145.054 45.39 144.934 45.9967 144.694 46.51C144.454 47.0233 144.124 47.42 143.704 47.7C143.284 47.98 142.797 48.12 142.244 48.12ZM142.244 47.39C142.637 47.39 142.977 47.28 143.264 47.06C143.557 46.8333 143.784 46.52 143.944 46.12C144.104 45.7133 144.184 45.2367 144.184 44.69C144.184 43.8767 144.007 43.2333 143.654 42.76C143.3 42.2867 142.83 42.05 142.244 42.05C141.657 42.05 141.187 42.2867 140.834 42.76C140.48 43.2333 140.304 43.8767 140.304 44.69C140.304 45.2367 140.384 45.7133 140.544 46.12C140.704 46.52 140.93 46.8333 141.224 47.06C141.517 47.28 141.857 47.39 142.244 47.39ZM148.884 48.12C148.338 48.12 147.851 47.98 147.424 47.7C147.004 47.42 146.674 47.0233 146.434 46.51C146.201 45.9967 146.084 45.39 146.084 44.69C146.084 43.99 146.201 43.39 146.434 42.89C146.674 42.3833 147.004 41.9967 147.424 41.73C147.851 41.4567 148.338 41.32 148.884 41.32C149.438 41.32 149.924 41.4567 150.344 41.73C150.764 41.9967 151.094 42.3833 151.334 42.89C151.574 43.39 151.694 43.99 151.694 44.69C151.694 45.39 151.574 45.9967 151.334 46.51C151.094 47.0233 150.764 47.42 150.344 47.7C149.924 47.98 149.438 48.12 148.884 48.12ZM148.884 47.39C149.278 47.39 149.618 47.28 149.904 47.06C150.198 46.8333 150.424 46.52 150.584 46.12C150.744 45.7133 150.824 45.2367 150.824 44.69C150.824 43.8767 150.648 43.2333 150.294 42.76C149.941 42.2867 149.471 42.05 148.884 42.05C148.298 42.05 147.828 42.2867 147.474 42.76C147.121 43.2333 146.944 43.8767 146.944 44.69C146.944 45.2367 147.024 45.7133 147.184 46.12C147.344 46.52 147.571 46.8333 147.864 47.06C148.158 47.28 148.498 47.39 148.884 47.39ZM153.105 48V41.44H153.965L156.335 45.56L157.045 46.92H157.085C157.065 46.5867 157.042 46.2433 157.015 45.89C156.995 45.53 156.985 45.1767 156.985 44.83V41.44H157.775V48H156.915L154.535 43.87L153.825 42.52H153.785C153.812 42.8467 153.835 43.1833 153.855 43.53C153.882 43.8767 153.895 44.2233 153.895 44.57V48H153.105Z" fill="url(#paint5_linear_399_5415)"/>
<defs>
<linearGradient id="paint0_linear_399_5415" x1="226.22" y1="7" x2="226.22" y2="57.6936" gradientUnits="userSpaceOnUse">
<stop/>
<stop offset="1" stop-color="#001734" stop-opacity="0.2"/>
</linearGradient>
<linearGradient id="paint1_linear_399_5415" x1="79.4597" y1="61" x2="79.4597" y2="63" gradientUnits="userSpaceOnUse">
<stop stop-color="#F9D390"/>
<stop offset="1" stop-color="#E2B15B"/>
</linearGradient>
<linearGradient id="paint2_linear_399_5415" x1="176.077" y1="5.6665" x2="176.077" y2="58.6037" gradientUnits="userSpaceOnUse">
<stop stop-color="#F9D390"/>
<stop offset="1" stop-color="#E2B15B"/>
</linearGradient>
<linearGradient id="paint3_linear_399_5415" x1="219.712" y1="0" x2="219.712" y2="2" gradientUnits="userSpaceOnUse">
<stop stop-color="#F9D390"/>
<stop offset="1" stop-color="#E2B15B"/>
</linearGradient>
<linearGradient id="paint4_linear_399_5415" x1="131.39" y1="6.15332" x2="131.39" y2="58.6076" gradientUnits="userSpaceOnUse">
<stop stop-color="#F9D390"/>
<stop offset="1" stop-color="#E2B15B"/>
</linearGradient>
<linearGradient id="paint5_linear_399_5415" x1="127.98" y1="34" x2="127.98" y2="54" gradientUnits="userSpaceOnUse">
<stop stop-color="#F9D390"/>
<stop offset="1" stop-color="#E2B15B"/>
</linearGradient>
</defs>
</svg>
