<svg width="201" height="164" viewBox="0 0 201 164" fill="none" xmlns="http://www.w3.org/2000/svg">
<path fill-rule="evenodd" clip-rule="evenodd" d="M171 158L162.782 164H20L28.1993 158H171Z" fill="url(#paint0_linear_186_842)"/>
<path fill-rule="evenodd" clip-rule="evenodd" d="M183 0L174.782 6H32L40.1993 0H183Z" fill="url(#paint1_linear_186_842)"/>
<path d="M7.46661 10H200.515H201V10.6345V145.239V145.507L200.854 145.68L193.884 154.81L193.738 155H193.533H0.485195H0V154.365V19.7647L0.145558 19.3205L7.11619 10.1904L7.26175 10H7.46661ZM200.03 11.2832H7.67416L0.970389 20.0326V153.72H193.339L200.03 144.971V11.2832Z" fill="url(#paint2_linear_186_842)"/>
<mask id="path-4-inside-1_186_842" fill="white">
<path d="M13.6112 15.62L8.46866 22.5746V149.38H187.389L192.531 142.425V15.62H13.6112ZM8.06877 22.2336L13.359 15.093L13.4278 15H13.5195H192.761H193V15.31V142.549V142.673L192.931 142.766L187.638 149.907L187.57 150H187.478H8.23942H8V149.69V22.4506L8.06877 22.2336Z"/>
</mask>
<path d="M13.6112 15.62V5.62002H8.56862L5.57057 9.67452L13.6112 15.62ZM8.46866 22.5746L0.428077 16.6291L-1.53134 19.279V22.5746H8.46866ZM8.46866 149.38H-1.53134V159.38H8.46866V149.38ZM187.389 149.38V159.38H192.431L195.429 155.325L187.389 149.38ZM192.531 142.425L200.572 148.371L202.531 145.721V142.425H192.531ZM192.531 15.62H202.531V5.62002H192.531V15.62ZM8.06877 22.2336L0.0336728 16.2807L-0.959833 17.6217L-1.46401 19.2127L8.06877 22.2336ZM13.359 15.093L21.3941 21.0459L21.3996 21.0385L13.359 15.093ZM13.4278 15V5H8.38523L5.38718 9.0545L13.4278 15ZM193 15H203V5H193V15ZM193 142.673L201.041 148.619L203 145.969V142.673H193ZM192.931 142.766L200.965 148.721L200.972 148.712L192.931 142.766ZM187.638 149.907L179.605 143.952L179.598 143.961L187.638 149.907ZM187.57 150V160H192.612L195.61 155.946L187.57 150ZM8 150H-2V160H8V150ZM8 22.4506L-1.53278 19.4297L-2 20.904V22.4506H8ZM5.57057 9.67452L0.428077 16.6291L16.5092 28.5201L21.6517 21.5655L5.57057 9.67452ZM-1.53134 22.5746V149.38H18.4687V22.5746H-1.53134ZM8.46866 159.38H187.389V139.38H8.46866V159.38ZM195.429 155.325L200.572 148.371L184.491 136.48L179.348 143.434L195.429 155.325ZM202.531 142.425V15.62H182.531V142.425H202.531ZM192.531 5.62002H13.6112V25.62H192.531V5.62002ZM16.1039 28.1865L21.3941 21.0459L5.3239 9.14009L0.0336728 16.2807L16.1039 28.1865ZM21.3996 21.0385L21.4684 20.9455L5.38718 9.0545L5.31841 9.1475L21.3996 21.0385ZM13.4278 25H13.5195V5H13.4278V25ZM13.5195 25H192.761V5H13.5195V25ZM192.761 25H193V5H192.761V25ZM183 15V15.31H203V15H183ZM183 15.31V142.549H203V15.31H183ZM183 142.549V142.673H203V142.549H183ZM184.959 136.728L184.891 136.821L200.972 148.712L201.041 148.619L184.959 136.728ZM184.898 136.812L179.605 143.952L195.672 155.862L200.965 148.721L184.898 136.812ZM179.598 143.961L179.53 144.054L195.61 155.946L195.679 155.853L179.598 143.961ZM187.57 140H187.478V160H187.57V140ZM187.478 140H8.23942V160H187.478V140ZM8.23942 140H8V160H8.23942V140ZM18 150V149.69H-2V150H18ZM18 149.69V22.4506H-2V149.69H18ZM17.5328 25.4716L17.6016 25.2546L-1.46401 19.2127L-1.53278 19.4297L17.5328 25.4716Z" fill="#A16E15" mask="url(#path-4-inside-1_186_842)"/>
<path fill-rule="evenodd" clip-rule="evenodd" d="M0 18L13 6L0 18ZM9.62158 6.00609H0V14.8812L9.62158 6.00609Z" fill="url(#paint3_linear_186_842)"/>
<path fill-rule="evenodd" clip-rule="evenodd" d="M201 150V160H191L201 150Z" fill="url(#paint4_linear_186_842)"/>
<path fill-rule="evenodd" clip-rule="evenodd" d="M177.386 15H171L181.636 6H188L177.386 15Z" fill="url(#paint5_linear_186_842)"/>
<path fill-rule="evenodd" clip-rule="evenodd" d="M183 10H193L187.986 6L183 10Z" fill="#A26E15"/>
<path fill-rule="evenodd" clip-rule="evenodd" d="M31.8622 15H39L27.1378 7H20L31.8622 15Z" fill="url(#paint6_linear_186_842)"/>
<path fill-rule="evenodd" clip-rule="evenodd" d="M25 10H15L20.0142 7L25 10Z" fill="#A26E15"/>
<path fill-rule="evenodd" clip-rule="evenodd" d="M178.011 150H172L182.011 159H188L178.011 150Z" fill="url(#paint7_linear_186_842)"/>
<path fill-rule="evenodd" clip-rule="evenodd" d="M183 155H193L187.986 159L183 155Z" fill="#A26E15"/>
<path fill-rule="evenodd" clip-rule="evenodd" d="M16.8622 150H24L12.1378 158H5L16.8622 150Z" fill="url(#paint8_linear_186_842)"/>
<path fill-rule="evenodd" clip-rule="evenodd" d="M10 155H0L5.0142 158L10 155Z" fill="#A26E15"/>
<path fill-rule="evenodd" clip-rule="evenodd" d="M180.861 145L185 139.268V20H19.1395L15 25.7315V145H180.861Z" fill="url(#paint9_linear_186_842)"/>
<path d="M82.7724 53.2V54.256H82.3644C82.0124 54.256 81.6764 54.336 81.3564 54.496C81.0364 54.64 80.8284 54.864 80.7324 55.168L76.0284 70.024H73.3164L69.8844 60.184L65.9004 70.024H62.5644L57.5484 55.12C57.4524 54.816 57.2844 54.6 57.0444 54.472C56.8204 54.328 56.5644 54.256 56.2764 54.256H55.7244V53.2H63.8604V54.256H63.3084C62.7164 54.256 62.4204 54.472 62.4204 54.904C62.4204 55.048 62.4364 55.168 62.4684 55.264L65.2524 65.824L68.7324 56.872L68.1084 55.12C67.9964 54.816 67.8204 54.6 67.5804 54.472C67.3564 54.328 67.1084 54.256 66.8364 54.256H66.2844V53.2H73.7964V54.256H73.2444C72.6524 54.256 72.3564 54.472 72.3564 54.904C72.3564 54.968 72.3724 55.08 72.4044 55.24L75.3804 65.824L78.1164 55.408C78.1484 55.248 78.1644 55.136 78.1644 55.072C78.1644 54.784 78.0604 54.576 77.8524 54.448C77.6604 54.32 77.4364 54.256 77.1804 54.256H76.6524V53.2H82.7724ZM102.151 54.256C101.271 54.256 100.831 54.568 100.831 55.192V68.008C100.831 68.632 101.271 68.944 102.151 68.944H102.919V70H94.3034V68.944H95.0474C95.5114 68.944 95.8474 68.872 96.0554 68.728C96.2634 68.568 96.3674 68.328 96.3674 68.008V62.176H89.8634V68.008C89.8634 68.328 89.9674 68.568 90.1754 68.728C90.3834 68.872 90.7114 68.944 91.1594 68.944H91.9274V70H83.3114V68.944H84.0794C84.9594 68.944 85.3994 68.632 85.3994 68.008V55.192C85.3994 54.568 84.9594 54.256 84.0794 54.256H83.3114V53.2H91.9274V54.256H91.1594C90.7114 54.256 90.3834 54.336 90.1754 54.496C89.9674 54.64 89.8634 54.872 89.8634 55.192V60.664H96.3674V55.192C96.3674 54.872 96.2634 54.64 96.0554 54.496C95.8474 54.336 95.5114 54.256 95.0474 54.256H94.3034V53.2H102.919V54.256H102.151ZM103.635 68.944H104.379C105.259 68.944 105.699 68.632 105.699 68.008V55.192C105.699 54.568 105.259 54.256 104.379 54.256H103.635V53.2H112.227V54.256H111.483C110.603 54.256 110.163 54.568 110.163 55.192V68.008C110.163 68.632 110.603 68.944 111.483 68.944H112.227V70H103.635V68.944ZM117.184 68.944H117.928C118.392 68.944 118.728 68.872 118.936 68.728C119.144 68.568 119.248 68.328 119.248 68.008V54.712H116.176C115.712 54.712 115.336 54.992 115.048 55.552C114.776 56.096 114.584 56.704 114.472 57.376C114.36 58.048 114.304 58.592 114.304 59.008H113.224V53.2H129.76V59.008H128.68C128.664 58.576 128.6 58.024 128.488 57.352C128.376 56.68 128.176 56.072 127.888 55.528C127.616 54.984 127.256 54.712 126.808 54.712H123.712V68.008C123.712 68.632 124.152 68.944 125.032 68.944H125.8V70H117.184V68.944ZM145.776 65.248L145.272 70H130.608V68.944H131.352C131.816 68.944 132.152 68.872 132.36 68.728C132.568 68.568 132.672 68.328 132.672 68.008V55.192C132.672 54.872 132.568 54.64 132.36 54.496C132.152 54.336 131.816 54.256 131.352 54.256H130.608V53.2H145.296V57.952H144.216C144.152 57.168 143.936 56.432 143.568 55.744C143.216 55.056 142.552 54.712 141.576 54.712H137.136V60.544H140.304C140.784 60.544 141.104 60.368 141.264 60.016C141.424 59.648 141.536 59.112 141.6 58.408H142.464V64.192H141.6C141.536 63.488 141.424 62.96 141.264 62.608C141.104 62.24 140.784 62.056 140.304 62.056H137.136V68.512H142.224C143.008 68.512 143.576 68.224 143.928 67.648C144.296 67.056 144.552 66.256 144.696 65.248H145.776ZM59.5458 109.944H60.3138C61.1938 109.944 61.6338 109.632 61.6338 109.008V96.192C61.6338 95.568 61.1938 95.256 60.3138 95.256H59.5458V94.2H69.0978C71.1938 94.2 72.6738 94.656 73.5378 95.568C74.4178 96.48 74.8578 97.76 74.8578 99.408C74.8578 101.072 74.4178 102.36 73.5378 103.272C72.6738 104.184 71.1938 104.64 69.0978 104.64H66.0978V109.008C66.0978 109.328 66.2018 109.568 66.4098 109.728C66.6178 109.872 66.9458 109.944 67.3938 109.944H68.1618V111H59.5458V109.944ZM68.0178 103.128C68.8498 103.128 69.4578 102.816 69.8418 102.192C70.2418 101.568 70.4418 100.64 70.4418 99.408C70.4418 98.176 70.2418 97.256 69.8418 96.648C69.4578 96.024 68.8498 95.712 68.0178 95.712H66.0978V103.128H68.0178ZM92.6866 109.944V111H84.5506V109.944H85.0786C85.6866 109.944 85.9906 109.736 85.9906 109.32C85.9906 109.192 85.9506 109.008 85.8706 108.768L85.1026 106.656H78.9586L78.1666 108.744C78.1026 108.888 78.0706 109.032 78.0706 109.176C78.0706 109.432 78.1746 109.624 78.3826 109.752C78.5906 109.88 78.8226 109.944 79.0786 109.944H79.6066V111H73.4866V109.944H73.8946C74.2466 109.944 74.5746 109.872 74.8786 109.728C75.1826 109.568 75.3986 109.336 75.5266 109.032L81.2386 94.728L84.5506 93.6L90.8626 109.104C91.0866 109.664 91.5106 109.944 92.1346 109.944H92.6866ZM84.5506 105.144L82.0786 98.4L79.5346 105.144H84.5506ZM93.0614 109.944H93.8294C94.7094 109.944 95.1494 109.632 95.1494 109.008V96.192C95.1494 95.568 94.7094 95.256 93.8294 95.256H93.0614V94.2H102.613C104.709 94.2 106.189 94.656 107.053 95.568C107.933 96.48 108.373 97.76 108.373 99.408C108.373 101.072 107.933 102.36 107.053 103.272C106.189 104.184 104.709 104.64 102.613 104.64H99.6134V109.008C99.6134 109.328 99.7174 109.568 99.9254 109.728C100.133 109.872 100.461 109.944 100.909 109.944H101.677V111H93.0614V109.944ZM101.533 103.128C102.365 103.128 102.973 102.816 103.357 102.192C103.757 101.568 103.957 100.64 103.957 99.408C103.957 98.176 103.757 97.256 103.357 96.648C102.973 96.024 102.365 95.712 101.533 95.712H99.6134V103.128H101.533ZM124.26 106.248L123.756 111H109.092V109.944H109.836C110.3 109.944 110.636 109.872 110.844 109.728C111.052 109.568 111.156 109.328 111.156 109.008V96.192C111.156 95.872 111.052 95.64 110.844 95.496C110.636 95.336 110.3 95.256 109.836 95.256H109.092V94.2H123.78V98.952H122.7C122.636 98.168 122.42 97.432 122.052 96.744C121.7 96.056 121.036 95.712 120.06 95.712H115.62V101.544H118.788C119.268 101.544 119.588 101.368 119.748 101.016C119.908 100.648 120.02 100.112 120.084 99.408H120.948V105.192H120.084C120.02 104.488 119.908 103.96 119.748 103.608C119.588 103.24 119.268 103.056 118.788 103.056H115.62V109.512H120.708C121.492 109.512 122.06 109.224 122.412 108.648C122.78 108.056 123.036 107.256 123.18 106.248H124.26ZM139.568 106.704C139.776 107.408 139.968 107.968 140.144 108.384C140.336 108.8 140.584 109.16 140.888 109.464C141.208 109.752 141.616 109.912 142.112 109.944V111H138.92C137.848 111 137.064 110.824 136.568 110.472C136.088 110.12 135.704 109.496 135.416 108.6C135.336 108.312 135.224 107.808 135.08 107.088C134.952 106.352 134.808 105.76 134.648 105.312C134.488 104.848 134.224 104.472 133.856 104.184H131.84V109.008C131.84 109.328 131.944 109.568 132.152 109.728C132.36 109.872 132.688 109.944 133.136 109.944H133.904V111H125.288V109.944H126.056C126.936 109.944 127.376 109.632 127.376 109.008V96.192C127.376 95.568 126.936 95.256 126.056 95.256H125.288V94.2H134.84C136.936 94.2 138.416 94.624 139.28 95.472C140.144 96.304 140.576 97.536 140.576 99.168C140.576 100.4 140.336 101.408 139.856 102.192C139.392 102.976 138.616 103.528 137.528 103.848C138.136 104.136 138.568 104.504 138.824 104.952C139.096 105.4 139.344 105.984 139.568 106.704ZM131.84 102.672H133.736C134.584 102.672 135.2 102.392 135.584 101.832C135.984 101.256 136.184 100.368 136.184 99.168C136.184 97.968 135.984 97.096 135.584 96.552C135.2 95.992 134.584 95.712 133.736 95.712H131.84V102.672Z" fill="white"/>
<a href="https://docs.evermoon.games/evermoon/">
<rect fill="black" fill-opacity="0" x="0.484375" y="0.0279999" width="91.0354" height="40.944"/>
</a>
<a href="https://docs.evermoon.games/evermoon/">
<rect fill="black" fill-opacity="0" x="4.25781" y="41.028" width="83.4782" height="40.944"/>
</a>
<defs>
<linearGradient id="paint0_linear_186_842" x1="95.5" y1="158" x2="95.5" y2="164" gradientUnits="userSpaceOnUse">
<stop stop-color="#F9D390"/>
<stop offset="1" stop-color="#E2B15B"/>
</linearGradient>
<linearGradient id="paint1_linear_186_842" x1="107.5" y1="0" x2="107.5" y2="6" gradientUnits="userSpaceOnUse">
<stop stop-color="#F9D390"/>
<stop offset="1" stop-color="#E2B15B"/>
</linearGradient>
<linearGradient id="paint2_linear_186_842" x1="100.5" y1="10" x2="100.5" y2="155" gradientUnits="userSpaceOnUse">
<stop stop-color="#F9D390"/>
<stop offset="1" stop-color="#E2B15B"/>
</linearGradient>
<linearGradient id="paint3_linear_186_842" x1="6.5" y1="6" x2="6.5" y2="18" gradientUnits="userSpaceOnUse">
<stop stop-color="#F9D390"/>
<stop offset="1" stop-color="#E2B15B"/>
</linearGradient>
<linearGradient id="paint4_linear_186_842" x1="196" y1="150" x2="196" y2="160" gradientUnits="userSpaceOnUse">
<stop stop-color="#F9D390"/>
<stop offset="1" stop-color="#E2B15B"/>
</linearGradient>
<linearGradient id="paint5_linear_186_842" x1="179.5" y1="6" x2="179.5" y2="15" gradientUnits="userSpaceOnUse">
<stop stop-color="#F9D390"/>
<stop offset="1" stop-color="#E2B15B"/>
</linearGradient>
<linearGradient id="paint6_linear_186_842" x1="29.5" y1="7" x2="29.5" y2="15" gradientUnits="userSpaceOnUse">
<stop stop-color="#F9D390"/>
<stop offset="1" stop-color="#E2B15B"/>
</linearGradient>
<linearGradient id="paint7_linear_186_842" x1="180" y1="150" x2="180" y2="159" gradientUnits="userSpaceOnUse">
<stop stop-color="#F9D390"/>
<stop offset="1" stop-color="#E2B15B"/>
</linearGradient>
<linearGradient id="paint8_linear_186_842" x1="14.5" y1="150" x2="14.5" y2="158" gradientUnits="userSpaceOnUse">
<stop stop-color="#F9D390"/>
<stop offset="1" stop-color="#E2B15B"/>
</linearGradient>
<linearGradient id="paint9_linear_186_842" x1="100" y1="20" x2="100" y2="145" gradientUnits="userSpaceOnUse">
<stop stop-color="#00132C"/>
<stop offset="1" stop-opacity="0.6"/>
</linearGradient>
</defs>
</svg>
