<svg width="50" height="51" viewBox="0 0 50 51" fill="none" xmlns="http://www.w3.org/2000/svg">
<path d="M50 25.4116C50 11.6045 38.8071 0.411621 25 0.411621C11.1929 0.411621 0 11.6045 0 25.4116C0 39.2187 11.1929 50.4116 25 50.4116C38.8071 50.4116 50 39.2187 50 25.4116Z" fill="url(#paint0_linear_2017_129997)"/>
<path fill-rule="evenodd" clip-rule="evenodd" d="M13.9842 25.5436L31.6161 43.1756L20.3856 30.1772L25.0192 25.5436L20.3856 20.91L31.6161 7.91162L13.9842 25.5436ZM19.5017 29.2933L15.752 25.5436L19.5017 21.7938L23.2514 25.5436L19.5017 29.2933Z" fill="url(#paint1_linear_2017_129997)"/>
<path d="M19.5316 25.5432L32.0879 12.5684L25.0192 25.5436L32.0879 38.5181L19.5316 25.5432Z" fill="url(#paint2_linear_2017_129997)"/>
<path d="M25 49.4116C38.2548 49.4116 49 38.6665 49 25.4116H51C51 39.771 39.3594 51.4116 25 51.4116V49.4116ZM1 25.4116C1 38.6665 11.7452 49.4116 25 49.4116V51.4116C10.6406 51.4116 -1 39.771 -1 25.4116H1ZM25 1.41162C11.7452 1.41162 1 12.1568 1 25.4116H-1C-1 11.0522 10.6406 -0.588379 25 -0.588379V1.41162ZM25 -0.588379C39.3594 -0.588379 51 11.0522 51 25.4116H49C49 12.1568 38.2548 1.41162 25 1.41162V-0.588379Z" fill="url(#paint3_linear_2017_129997)"/>
<defs>
<linearGradient id="paint0_linear_2017_129997" x1="25" y1="0.411621" x2="25" y2="50.4116" gradientUnits="userSpaceOnUse">
<stop stop-color="#0A0910"/>
<stop offset="1" stop-color="#07162D"/>
</linearGradient>
<linearGradient id="paint1_linear_2017_129997" x1="23.036" y1="7.91162" x2="23.036" y2="43.1756" gradientUnits="userSpaceOnUse">
<stop stop-color="#F9D390"/>
<stop offset="1" stop-color="#E2B15B"/>
</linearGradient>
<linearGradient id="paint2_linear_2017_129997" x1="23.036" y1="7.91162" x2="23.036" y2="43.1756" gradientUnits="userSpaceOnUse">
<stop stop-color="#F9D390"/>
<stop offset="1" stop-color="#E2B15B"/>
</linearGradient>
<linearGradient id="paint3_linear_2017_129997" x1="25" y1="0.411621" x2="25" y2="50.4116" gradientUnits="userSpaceOnUse">
<stop stop-color="#F9D390"/>
<stop offset="1" stop-color="#E2B15B"/>
</linearGradient>
</defs>
</svg>
