<svg width="109" height="34" viewBox="0 0 109 34" fill="none" xmlns="http://www.w3.org/2000/svg">
<path d="M9.1759 2.15927C10.7469 2.15927 12.1893 2.37349 13.5032 2.80193C14.8456 3.20182 16.0024 3.81592 16.9736 4.64424C17.9733 5.444 18.7445 6.4437 19.2872 7.64335C19.8584 8.81443 20.1441 10.1854 20.1441 11.7564C20.1441 12.9846 19.9584 14.1843 19.5871 15.3553C19.2443 16.5264 18.6588 17.5975 17.8305 18.5687C17.0021 19.5112 15.9168 20.2824 14.5743 20.8823C13.2604 21.4535 11.6323 21.7391 9.69004 21.7391H5.10569V33.1357H0.949786V2.15927H9.1759ZM9.60435 17.7546C10.8326 17.7546 11.8465 17.569 12.6463 17.1976C13.4746 16.8263 14.1173 16.355 14.5743 15.7838C15.0313 15.184 15.3598 14.5413 15.5597 13.8558C15.7597 13.1703 15.8596 12.5276 15.8596 11.9278C15.8596 11.2994 15.7454 10.6567 15.5169 9.99979C15.3169 9.31428 14.9742 8.68589 14.4886 8.11463C14.0316 7.54338 13.4175 7.07209 12.6463 6.70077C11.9037 6.32945 10.9896 6.14379 9.90426 6.14379H5.10569V17.7546H9.60435ZM14.7028 20.1111L22.8004 33.1357H18.0018L9.77572 20.2396L14.7028 20.1111ZM26.1071 33.1357L39.6459 0.873938H39.903L53.399 33.1357H48.6433L38.532 7.38628L41.4883 5.45828L30.1773 33.1357H26.1071ZM34.0333 21.3964H45.5585L46.9295 24.9953H32.8337L34.0333 21.3964ZM67.4593 2.15927C69.0303 2.15927 70.4727 2.37349 71.7866 2.80193C73.129 3.20182 74.2858 3.81592 75.257 4.64424C76.2567 5.444 77.0279 6.4437 77.5706 7.64335C78.1418 8.81443 78.4275 10.1854 78.4275 11.7564C78.4275 12.9846 78.2418 14.1843 77.8705 15.3553C77.5277 16.5264 76.9422 17.5975 76.1139 18.5687C75.2855 19.5112 74.2001 20.2824 72.8577 20.8823C71.5438 21.4535 69.9157 21.7391 67.9734 21.7391H63.3891V33.1357H59.2332V2.15927H67.4593ZM67.8877 17.7546C69.1159 17.7546 70.1299 17.569 70.9297 17.1976C71.758 16.8263 72.4007 16.355 72.8577 15.7838C73.3147 15.184 73.6432 14.5413 73.8431 13.8558C74.043 13.1703 74.143 12.5276 74.143 11.9278C74.143 11.2994 74.0288 10.6567 73.8003 9.99979C73.6003 9.31428 73.2576 8.68589 72.772 8.11463C72.315 7.54338 71.7009 7.07209 70.9297 6.70077C70.1871 6.32945 69.273 6.14379 68.1877 6.14379H63.3891V17.7546H67.8877ZM72.9862 20.1111L81.0838 33.1357H76.2852L68.0591 20.2396L72.9862 20.1111ZM87.4753 2.15927H107.612V6.14379H91.6312V15.5696H105.898V19.5541H91.6312V29.1512H108.212V33.1357H87.4753V2.15927Z" fill="#C48CF7"/>
</svg>
