<svg width="269" height="44" viewBox="0 0 269 44" fill="none" xmlns="http://www.w3.org/2000/svg">
<path d="M167.176 1.58798C168.747 1.58798 170.189 1.8022 171.503 2.23064C172.846 2.63052 174.002 3.24463 174.974 4.07295C175.973 4.87271 176.744 5.87241 177.287 7.07206C177.858 8.24313 178.144 9.61415 178.144 11.1851C178.144 12.4133 177.958 13.613 177.587 14.784C177.244 15.9551 176.659 17.0262 175.83 17.9974C175.002 18.9399 173.917 19.7111 172.574 20.311C171.26 20.8822 169.632 21.1679 167.69 21.1679H163.106V32.5645H158.95V1.58798H167.176ZM167.604 17.1833C168.833 17.1833 169.847 16.9977 170.646 16.6263C171.475 16.255 172.117 15.7837 172.574 15.2125C173.031 14.6127 173.36 13.97 173.56 13.2845C173.76 12.599 173.86 11.9563 173.86 11.3565C173.86 10.7281 173.745 10.0854 173.517 9.4285C173.317 8.74299 172.974 8.1146 172.489 7.54334C172.032 6.97208 171.417 6.5008 170.646 6.12948C169.904 5.75816 168.99 5.5725 167.904 5.5725H163.106V17.1833H167.604ZM172.703 19.5398L180.8 32.5645H176.002L167.776 19.6683L172.703 19.5398ZM184.107 32.5645L197.646 0.302646H197.903L211.399 32.5645H206.643L196.532 6.81499L199.488 4.88699L188.177 32.5645H184.107ZM192.033 20.8251H203.558L204.929 24.424H190.834L192.033 20.8251ZM225.459 1.58798C227.03 1.58798 228.473 1.8022 229.787 2.23064C231.129 2.63052 232.286 3.24463 233.257 4.07295C234.257 4.87271 235.028 5.87241 235.571 7.07206C236.142 8.24313 236.427 9.61415 236.427 11.1851C236.427 12.4133 236.242 13.613 235.87 14.784C235.528 15.9551 234.942 17.0262 234.114 17.9974C233.286 18.9399 232.2 19.7111 230.858 20.311C229.544 20.8822 227.916 21.1679 225.973 21.1679H221.389V32.5645H217.233V1.58798H225.459ZM225.888 17.1833C227.116 17.1833 228.13 16.9977 228.93 16.6263C229.758 16.255 230.401 15.7837 230.858 15.2125C231.315 14.6127 231.643 13.97 231.843 13.2845C232.043 12.599 232.143 11.9563 232.143 11.3565C232.143 10.7281 232.029 10.0854 231.8 9.4285C231.6 8.74299 231.258 8.1146 230.772 7.54334C230.315 6.97208 229.701 6.5008 228.93 6.12948C228.187 5.75816 227.273 5.5725 226.188 5.5725H221.389V17.1833H225.888ZM230.986 19.5398L239.084 32.5645H234.285L226.059 19.6683L230.986 19.5398ZM245.475 1.58798H265.612V5.5725H249.631V14.9983H263.898V18.9828H249.631V28.5799H266.212V32.5645H245.475V1.58798Z" fill="#C48CF7"/>
</svg>
