<svg width="90" height="33" viewBox="0 0 90 33" fill="none" xmlns="http://www.w3.org/2000/svg">
<path d="M0.192104 1.15926H20.329V5.14379H4.34801V14.5696H18.6152V18.5541H4.34801V28.1512H20.9288V32.1357H0.192104V1.15926ZM36.4103 1.15926C38.6668 1.15926 40.5948 1.54486 42.1943 2.31606C43.7938 3.0587 45.022 4.14409 45.8789 5.57224C46.7644 7.00038 47.2071 8.72844 47.2071 10.7564C47.2071 11.9846 47.0214 13.1985 46.6501 14.3982C46.2788 15.5693 45.679 16.6404 44.8507 17.6115C44.0509 18.5541 42.9941 19.311 41.6802 19.8823C40.3663 20.4535 38.7668 20.7391 36.8816 20.7391H32.2973V32.1357H28.1414V1.15926H36.4103ZM36.8388 16.7546C38.067 16.7546 39.081 16.5547 39.8807 16.1548C40.6805 15.7549 41.3089 15.2551 41.7659 14.6552C42.2229 14.0269 42.5513 13.3699 42.7513 12.6844C42.9512 11.9989 43.0512 11.3848 43.0512 10.8421C43.0512 10.2137 42.9512 9.57104 42.7513 8.91409C42.5513 8.22858 42.2086 7.61448 41.723 7.07179C41.266 6.50053 40.6519 6.04352 39.8807 5.70077C39.1381 5.32945 38.2098 5.14379 37.0958 5.14379H32.2973V16.7546H36.8388ZM53.622 1.15926H57.7779V32.1357H53.622V1.15926ZM89.4265 29.8221C88.9124 30.1649 88.2126 30.5505 87.3272 30.9789C86.4417 31.4074 85.3992 31.7644 84.1995 32.0501C83.0284 32.3357 81.7431 32.4785 80.3435 32.4785C77.9442 32.4499 75.7735 32.0215 73.8312 31.1932C71.9175 30.3648 70.2894 29.2366 68.9469 27.8085C67.6045 26.3803 66.5619 24.7379 65.8193 22.8814C65.1052 20.9962 64.7482 18.9968 64.7482 16.8831C64.7482 14.5696 65.1195 12.4416 65.8621 10.4993C66.6333 8.5285 67.7044 6.829 69.0755 5.40086C70.4465 3.94415 72.0603 2.81592 73.9169 2.01615C75.802 1.21639 77.8586 0.816512 80.0865 0.816512C81.9431 0.816512 83.6283 1.07358 85.1421 1.58771C86.6559 2.07328 87.9555 2.65882 89.0409 3.34433L87.37 7.20032C86.5131 6.62906 85.4706 6.08637 84.2424 5.57224C83.0427 5.0581 81.7003 4.80104 80.215 4.80104C78.7012 4.80104 77.273 5.10095 75.9306 5.70077C74.5881 6.30059 73.4027 7.1432 72.3745 8.22859C71.3462 9.31398 70.5322 10.585 69.9324 12.0417C69.3611 13.4699 69.0755 15.0123 69.0755 16.6689C69.0755 18.3541 69.3325 19.9251 69.8467 21.3818C70.3894 22.81 71.1463 24.0524 72.1174 25.1093C73.1171 26.1661 74.3168 26.9944 75.7163 27.5942C77.1159 28.1941 78.6869 28.494 80.4292 28.494C82.0002 28.494 83.3998 28.2512 84.628 27.7656C85.8562 27.28 86.8702 26.7374 87.6699 26.1375L89.4265 29.8221Z" fill="#F2E19C"/>
</svg>
