<svg width="269" height="44" viewBox="0 0 269 44" fill="none" xmlns="http://www.w3.org/2000/svg">
<path d="M177.192 1.58798H197.329V5.5725H181.348V14.9983H195.615V18.9828H181.348V28.5799H197.929V32.5645H177.192V1.58798ZM213.41 1.58798C215.667 1.58798 217.595 1.97358 219.194 2.74477C220.794 3.48741 222.022 4.5728 222.879 6.00095C223.764 7.42909 224.207 9.15715 224.207 11.1851C224.207 12.4133 224.021 13.6272 223.65 14.8269C223.279 15.998 222.679 17.0691 221.851 18.0402C221.051 18.9828 219.994 19.7397 218.68 20.311C217.366 20.8822 215.767 21.1679 213.882 21.1679H209.297V32.5645H205.141V1.58798H213.41ZM213.839 17.1833C215.067 17.1833 216.081 16.9834 216.881 16.5835C217.68 16.1836 218.309 15.6838 218.766 15.084C219.223 14.4556 219.551 13.7986 219.751 13.1131C219.951 12.4276 220.051 11.8135 220.051 11.2708C220.051 10.6424 219.951 9.99975 219.751 9.34281C219.551 8.6573 219.209 8.04319 218.723 7.5005C218.266 6.92924 217.652 6.47223 216.881 6.12948C216.138 5.75816 215.21 5.5725 214.096 5.5725H209.297V17.1833H213.839ZM230.622 1.58798H234.778V32.5645H230.622V1.58798ZM266.427 30.2509C265.912 30.5936 265.213 30.9792 264.327 31.4077C263.442 31.8361 262.399 32.1931 261.2 32.4788C260.028 32.7644 258.743 32.9072 257.344 32.9072C254.944 32.8786 252.773 32.4502 250.831 31.6219C248.917 30.7936 247.289 29.6653 245.947 28.2372C244.604 26.809 243.562 25.1667 242.819 23.3101C242.105 21.4249 241.748 19.4255 241.748 17.3119C241.748 14.9983 242.12 12.8703 242.862 10.928C243.633 8.95721 244.704 7.25772 246.075 5.82957C247.446 4.37286 249.06 3.24463 250.917 2.44486C252.802 1.6451 254.859 1.24522 257.086 1.24522C258.943 1.24522 260.628 1.50229 262.142 2.01642C263.656 2.50199 264.956 3.08753 266.041 3.77304L264.37 7.62903C263.513 7.05777 262.471 6.51508 261.242 6.00095C260.043 5.48681 258.7 5.22975 257.215 5.22975C255.701 5.22975 254.273 5.52966 252.931 6.12948C251.588 6.7293 250.403 7.57191 249.374 8.6573C248.346 9.74269 247.532 11.0137 246.932 12.4704C246.361 13.8986 246.075 15.441 246.075 17.0976C246.075 18.7828 246.333 20.3538 246.847 21.8105C247.389 23.2387 248.146 24.4811 249.117 25.538C250.117 26.5948 251.317 27.4231 252.716 28.023C254.116 28.6228 255.687 28.9227 257.429 28.9227C259 28.9227 260.4 28.6799 261.628 28.1943C262.856 27.7088 263.87 27.1661 264.67 26.5662L266.427 30.2509Z" fill="#F2E19C"/>
</svg>
