<svg width="269" height="44" viewBox="0 0 269 44" fill="none" xmlns="http://www.w3.org/2000/svg">
<path d="M112.758 32.5645V0.602558H112.801L129.039 23.6528L127.282 23.3101L143.478 0.602558H143.563V32.5645H139.45V10.0283L139.707 12.1277L128.011 28.6656H127.925L116.057 12.1277L116.786 10.1997V32.5645H112.758ZM160.691 22.239L149.208 1.58798H154.307L163.518 18.6829L162.233 18.7686L171.359 1.58798H176.415L164.847 22.239V32.5645H160.691V22.239ZM197.023 7.1149C195.967 6.57221 194.81 6.10092 193.553 5.70104C192.296 5.30116 191.068 5.10122 189.868 5.10122C188.212 5.10122 186.884 5.48682 185.884 6.25801C184.913 7.02921 184.427 8.05748 184.427 9.34281C184.427 10.3139 184.741 11.1423 185.37 11.8278C185.998 12.4847 186.826 13.056 187.855 13.5416C188.883 14.0271 189.954 14.4841 191.068 14.9126C192.039 15.2839 192.996 15.6981 193.939 16.1551C194.881 16.6121 195.724 17.1833 196.466 17.8688C197.238 18.5543 197.837 19.397 198.266 20.3967C198.723 21.3964 198.951 22.6388 198.951 24.1241C198.951 25.7522 198.537 27.2375 197.709 28.5799C196.909 29.9224 195.752 30.9792 194.238 31.7504C192.725 32.5216 190.925 32.9072 188.84 32.9072C187.469 32.9072 186.155 32.7501 184.898 32.4359C183.67 32.1217 182.528 31.7218 181.471 31.2363C180.414 30.7221 179.471 30.1937 178.643 29.651L180.485 26.3949C181.171 26.8804 181.956 27.3517 182.842 27.8087C183.727 28.2372 184.656 28.5942 185.627 28.8798C186.598 29.1369 187.54 29.2654 188.454 29.2654C189.426 29.2654 190.382 29.0941 191.325 28.7513C192.296 28.38 193.096 27.823 193.724 27.0804C194.353 26.3377 194.667 25.3523 194.667 24.1241C194.667 23.0673 194.381 22.1961 193.81 21.5106C193.267 20.7965 192.539 20.1967 191.625 19.7111C190.711 19.197 189.74 18.74 188.712 18.3401C187.74 17.9688 186.755 17.5689 185.755 17.1405C184.756 16.6835 183.827 16.1408 182.97 15.5124C182.114 14.8554 181.428 14.0557 180.914 13.1131C180.4 12.1705 180.143 11.028 180.143 9.68556C180.143 8.05748 180.528 6.64361 181.299 5.44397C182.099 4.21577 183.185 3.25891 184.556 2.5734C185.927 1.85933 187.498 1.47373 189.269 1.4166C191.268 1.4166 193.025 1.65939 194.538 2.14496C196.081 2.63053 197.438 3.23035 198.609 3.94442L197.023 7.1149ZM203.456 1.58798H224.022V5.5725H215.71V32.5645H211.554V5.5725H203.456V1.58798ZM230.622 1.58798H234.778V32.5645H230.622V1.58798ZM266.427 30.2509C265.912 30.5936 265.213 30.9792 264.327 31.4077C263.442 31.8361 262.399 32.1931 261.2 32.4788C260.028 32.7644 258.743 32.9072 257.344 32.9072C254.944 32.8786 252.773 32.4502 250.831 31.6219C248.917 30.7936 247.289 29.6653 245.947 28.2372C244.604 26.809 243.562 25.1667 242.819 23.3101C242.105 21.4249 241.748 19.4255 241.748 17.3119C241.748 14.9983 242.12 12.8703 242.862 10.9281C243.633 8.95721 244.704 7.25772 246.075 5.82957C247.446 4.37286 249.06 3.24463 250.917 2.44487C252.802 1.64511 254.859 1.24523 257.086 1.24523C258.943 1.24523 260.628 1.50229 262.142 2.01642C263.656 2.50199 264.956 3.08753 266.041 3.77304L264.37 7.62903C263.513 7.05778 262.471 6.51508 261.242 6.00095C260.043 5.48682 258.7 5.22975 257.215 5.22975C255.701 5.22975 254.273 5.52966 252.931 6.12948C251.588 6.7293 250.403 7.57191 249.374 8.6573C248.346 9.74269 247.532 11.0137 246.932 12.4704C246.361 13.8986 246.075 15.441 246.075 17.0976C246.075 18.7828 246.333 20.3538 246.847 21.8105C247.389 23.2387 248.146 24.4812 249.117 25.538C250.117 26.5948 251.317 27.4231 252.716 28.023C254.116 28.6228 255.687 28.9227 257.429 28.9227C259 28.9227 260.4 28.6799 261.628 28.1943C262.856 27.7088 263.87 27.1661 264.67 26.5662L266.427 30.2509Z" fill="#FF575F"/>
</svg>
