<svg width="155" height="33" viewBox="0 0 155 33" fill="none" xmlns="http://www.w3.org/2000/svg">
<path d="M0.800037 32.1357V0.173844H0.842881L17.0809 23.2241L15.3243 22.8814L31.5194 0.173844H31.6051V32.1357H27.4921V9.59961L27.7491 11.699L16.0526 28.2369H15.9669L4.09905 11.699L4.82741 9.77098V32.1357H0.800037ZM48.7325 21.8102L37.2502 1.15926H42.3487L51.5602 18.2542L50.2749 18.3399L59.4008 1.15926H64.4564L52.8884 21.8102V32.1357H48.7325V21.8102ZM85.0234 6.68619C83.9665 6.14349 82.8097 5.67221 81.553 5.27232C80.2962 4.87244 79.068 4.6725 77.8683 4.6725C76.2117 4.6725 74.8835 5.0581 73.8838 5.8293C72.9127 6.6005 72.4271 7.62876 72.4271 8.91409C72.4271 9.88523 72.7413 10.7136 73.3697 11.3991C73.9981 12.056 74.8264 12.6273 75.8547 13.1128C76.8829 13.5984 77.954 14.0554 79.068 14.4839C80.0391 14.8552 80.996 15.2693 81.9386 15.7264C82.8811 16.1834 83.7237 16.7546 84.4664 17.4401C85.2376 18.1256 85.8374 18.9682 86.2658 19.9679C86.7228 20.9676 86.9513 22.2101 86.9513 23.6954C86.9513 25.3235 86.5372 26.8088 85.7089 28.1512C84.9091 29.4937 83.7523 30.5505 82.2385 31.3217C80.7246 32.0929 78.9252 32.4785 76.8401 32.4785C75.4691 32.4785 74.1552 32.3214 72.8984 32.0072C71.6702 31.693 70.5277 31.2931 69.4708 30.8076C68.414 30.2934 67.4714 29.765 66.6431 29.2223L68.4854 25.9662C69.1709 26.4517 69.9564 26.923 70.8419 27.38C71.7273 27.8085 72.6556 28.1655 73.6268 28.4511C74.5979 28.7082 75.5405 28.8367 76.4545 28.8367C77.4256 28.8367 78.3825 28.6653 79.3251 28.3226C80.2962 27.9513 81.096 27.3943 81.7243 26.6517C82.3527 25.909 82.6669 24.9236 82.6669 23.6954C82.6669 22.6386 82.3813 21.7674 81.81 21.0819C81.2673 20.3678 80.539 19.768 79.625 19.2824C78.711 18.7683 77.7398 18.3113 76.7115 17.9114C75.7404 17.5401 74.755 17.1402 73.7553 16.7118C72.7556 16.2548 71.8273 15.7121 70.9704 15.0837C70.1135 14.4267 69.428 13.627 68.9139 12.6844C68.3997 11.7418 68.1427 10.5993 68.1427 9.25685C68.1427 7.62876 68.5283 6.2149 69.2995 5.01526C70.0992 3.78705 71.1846 2.83019 72.5556 2.14469C73.9267 1.43061 75.4976 1.04501 77.2685 0.987887C79.2679 0.987887 81.0245 1.23067 82.5384 1.71624C84.0808 2.20181 85.4375 2.80163 86.6086 3.51571L85.0234 6.68619ZM91.4564 1.15926H112.022V5.14379H103.71V32.1357H99.5539V5.14379H91.4564V1.15926ZM118.622 1.15926H122.778V32.1357H118.622V1.15926ZM154.427 29.8221C153.912 30.1649 153.213 30.5505 152.327 30.9789C151.442 31.4074 150.399 31.7644 149.2 32.0501C148.028 32.3357 146.743 32.4785 145.344 32.4785C142.944 32.4499 140.773 32.0215 138.831 31.1932C136.917 30.3648 135.289 29.2366 133.947 27.8085C132.604 26.3803 131.562 24.7379 130.819 22.8814C130.105 20.9962 129.748 18.9968 129.748 16.8831C129.748 14.5696 130.12 12.4416 130.862 10.4993C131.633 8.5285 132.704 6.829 134.075 5.40086C135.446 3.94415 137.06 2.81592 138.917 2.01615C140.802 1.21639 142.859 0.816512 145.086 0.816512C146.943 0.816512 148.628 1.07358 150.142 1.58771C151.656 2.07328 152.956 2.65882 154.041 3.34433L152.37 7.20032C151.513 6.62906 150.471 6.08637 149.242 5.57224C148.043 5.0581 146.7 4.80104 145.215 4.80104C143.701 4.80104 142.273 5.10095 140.931 5.70077C139.588 6.30059 138.403 7.1432 137.374 8.22859C136.346 9.31398 135.532 10.585 134.932 12.0417C134.361 13.4699 134.075 15.0123 134.075 16.6689C134.075 18.3541 134.333 19.9251 134.847 21.3818C135.389 22.81 136.146 24.0524 137.117 25.1093C138.117 26.1661 139.317 26.9944 140.716 27.5942C142.116 28.1941 143.687 28.494 145.429 28.494C147 28.494 148.4 28.2512 149.628 27.7656C150.856 27.28 151.87 26.7374 152.67 26.1375L154.427 29.8221Z" fill="#FF575F"/>
</svg>
