<svg width="262" height="35" viewBox="0 0 262 35" fill="none" xmlns="http://www.w3.org/2000/svg">
<path d="M0.0238376 2.15926H4.17974V29.1512H19.9036V33.1357H0.0238376V2.15926ZM26.676 2.15926H46.8129V6.14379H30.8319V15.5696H45.0991V19.5541H30.8319V29.1512H47.4127V33.1357H26.676V2.15926ZM78.8752 30.4794C78.4468 30.8507 77.8469 31.222 77.0757 31.5933C76.3045 31.9361 75.4477 32.2503 74.5051 32.5359C73.5911 32.8216 72.6342 33.0501 71.6345 33.2214C70.6634 33.3928 69.7494 33.4785 68.8925 33.4785C66.4075 33.4785 64.1653 33.0929 62.1659 32.3217C60.1951 31.5505 58.4956 30.4794 57.0674 29.1084C55.6678 27.7374 54.5825 26.1235 53.8113 24.267C53.0686 22.4104 52.6973 20.3967 52.6973 18.2259C52.6973 15.6552 53.1115 13.3559 53.9398 11.328C54.7967 9.27143 55.9535 7.54337 57.4102 6.14379C58.8955 4.71565 60.5949 3.64454 62.5087 2.93046C64.4224 2.18783 66.4503 1.81651 68.5926 1.81651C70.392 1.81651 72.063 2.03073 73.6054 2.45918C75.1477 2.88762 76.5045 3.43031 77.6756 4.08726L76.2617 7.90041C75.6904 7.55766 74.9764 7.24346 74.1195 6.95784C73.2912 6.67221 72.4343 6.4437 71.5488 6.27232C70.6634 6.07238 69.835 5.97242 69.0638 5.97242C67.2358 5.97242 65.5792 6.25804 64.0939 6.8293C62.6086 7.372 61.3376 8.17176 60.2808 9.22859C59.2239 10.2569 58.4099 11.5136 57.8386 12.9989C57.2674 14.4556 56.9817 16.098 56.9817 17.926C56.9817 19.6112 57.2674 21.1536 57.8386 22.5532C58.4099 23.9528 59.2239 25.1667 60.2808 26.195C61.3376 27.1947 62.5943 27.9801 64.0511 28.5514C65.5363 29.0941 67.1644 29.3654 68.9353 29.3654C69.9921 29.3654 71.0347 29.2655 72.063 29.0655C73.0912 28.837 73.9767 28.5228 74.7193 28.123V21.9534H68.5497V17.9688H78.8752V30.4794ZM86.8004 2.15926H106.937V6.14379H90.9563V15.5696H105.223V19.5541H90.9563V29.1512H107.537V33.1357H86.8004V2.15926ZM141.57 34.1212L117.62 9.82841L118.82 10.1283L118.906 33.1357H114.75V1.21669H114.964L138.657 25.5951L137.671 25.3809L137.586 2.15926H141.699V34.1212H141.57ZM150.607 33.1357V2.15926H159.047C162.103 2.15926 164.703 2.63055 166.845 3.57313C169.016 4.51571 170.758 5.75819 172.072 7.30059C173.386 8.84299 174.343 10.5568 174.942 12.4419C175.571 14.2985 175.885 16.1551 175.885 18.0117C175.885 20.3538 175.471 22.4532 174.642 24.3098C173.843 26.1664 172.729 27.7516 171.301 29.0655C169.872 30.3794 168.23 31.3934 166.373 32.1075C164.545 32.793 162.603 33.1357 160.547 33.1357H150.607ZM154.763 29.1512H159.733C161.446 29.1512 163.017 28.8941 164.445 28.38C165.902 27.8659 167.159 27.1232 168.216 26.1521C169.301 25.181 170.144 23.9956 170.744 22.596C171.343 21.1679 171.643 19.5541 171.643 17.7546C171.643 15.8409 171.329 14.17 170.701 12.7418C170.072 11.2851 169.215 10.0712 168.13 9.10005C167.045 8.12891 165.816 7.40056 164.445 6.91499C163.074 6.40086 161.632 6.14379 160.118 6.14379H154.763V29.1512ZM178.107 33.1357L191.646 0.873935H191.903L205.399 33.1357H200.643L190.532 7.38628L193.488 5.45828L182.177 33.1357H178.107ZM186.033 21.3964H197.558L198.929 24.9953H184.834L186.033 21.3964ZM219.459 2.15926C221.03 2.15926 222.473 2.37349 223.787 2.80193C225.129 3.20181 226.286 3.81592 227.257 4.64424C228.257 5.444 229.028 6.4437 229.571 7.64334C230.142 8.81442 230.427 10.1854 230.427 11.7564C230.427 12.9846 230.242 14.1843 229.87 15.3553C229.528 16.5264 228.942 17.5975 228.114 18.5687C227.286 19.5112 226.2 20.2824 224.858 20.8823C223.544 21.4535 221.916 21.7391 219.973 21.7391H215.389V33.1357H211.233V2.15926H219.459ZM219.888 17.7546C221.116 17.7546 222.13 17.569 222.93 17.1976C223.758 16.8263 224.401 16.355 224.858 15.7838C225.315 15.184 225.643 14.5413 225.843 13.8558C226.043 13.1703 226.143 12.5276 226.143 11.9278C226.143 11.2994 226.029 10.6567 225.8 9.99978C225.6 9.31428 225.258 8.68589 224.772 8.11463C224.315 7.54337 223.701 7.07209 222.93 6.70077C222.187 6.32945 221.273 6.14379 220.188 6.14379H215.389V17.7546H219.888ZM224.986 20.1111L233.084 33.1357H228.285L220.059 20.2396L224.986 20.1111ZM246.028 22.8102L234.546 2.15926H239.644L248.856 19.2542L247.57 19.3399L256.696 2.15926H261.752L250.184 22.8102V33.1357H246.028V22.8102Z" fill="url(#paint0_linear_593_11159)"/>
<defs>
<linearGradient id="paint0_linear_593_11159" x1="128.969" y1="1.13574" x2="128.969" y2="44.1357" gradientUnits="userSpaceOnUse">
<stop stop-color="#87E0FD"/>
<stop offset="1" stop-color="#DF7FF4"/>
</linearGradient>
</defs>
</svg>
