<svg width="269" height="44" viewBox="0 0 269 44" fill="none" xmlns="http://www.w3.org/2000/svg">
<path d="M6.02384 1.58895H10.1797V28.5809H25.9036V32.5654H6.02384V1.58895ZM32.676 1.58895H52.8129V5.57348H36.8319V14.9992H51.0991V18.9838H36.8319V28.5809H53.4127V32.5654H32.676V1.58895ZM84.8752 29.9091C84.4468 30.2804 83.8469 30.6517 83.0757 31.023C82.3045 31.3658 81.4477 31.68 80.5051 31.9656C79.5911 32.2512 78.6342 32.4797 77.6345 32.6511C76.6634 32.8225 75.7494 32.9082 74.8925 32.9082C72.4075 32.9082 70.1653 32.5226 68.1659 31.7514C66.1951 30.9802 64.4956 29.9091 63.0674 28.5381C61.6678 27.167 60.5825 25.5532 59.8113 23.6966C59.0686 21.8401 58.6973 19.8264 58.6973 17.6556C58.6973 15.0849 59.1115 12.7856 59.9398 10.7576C60.7967 8.70112 61.9535 6.97306 63.4102 5.57348C64.8955 4.14533 66.5949 3.07422 68.5087 2.36015C70.4224 1.61752 72.4503 1.2462 74.5926 1.2462C76.392 1.2462 78.063 1.46042 79.6054 1.88886C81.1477 2.31731 82.5045 2.86 83.6756 3.51695L82.2617 7.3301C81.6904 6.98734 80.9764 6.67315 80.1195 6.38752C79.2912 6.10189 78.4343 5.87339 77.5488 5.70201C76.6634 5.50207 75.835 5.4021 75.0638 5.4021C73.2358 5.4021 71.5792 5.68773 70.0939 6.25899C68.6086 6.80168 67.3376 7.60145 66.2808 8.65827C65.2239 9.68654 64.4099 10.9433 63.8386 12.4286C63.2674 13.8853 62.9817 15.5277 62.9817 17.3557C62.9817 19.0409 63.2674 20.5833 63.8386 21.9829C64.4099 23.3825 65.2239 24.5964 66.2808 25.6246C67.3376 26.6243 68.5943 27.4098 70.0511 27.9811C71.5363 28.5238 73.1644 28.7951 74.9353 28.7951C75.9921 28.7951 77.0347 28.6952 78.063 28.4952C79.0912 28.2667 79.9767 27.9525 80.7193 27.5526V21.3831H74.5497V17.3985H84.8752V29.9091ZM92.8004 1.58895H112.937V5.57348H96.9563V14.9992H111.223V18.9838H96.9563V28.5809H113.537V32.5654H92.8004V1.58895ZM147.57 33.5509L123.62 9.25809L124.82 9.55801L124.906 32.5654H120.75V0.646376H120.964L144.657 25.0248L143.671 24.8106L143.586 1.58895H147.699V33.5509H147.57ZM156.607 32.5654V1.58895H165.047C168.103 1.58895 170.703 2.06024 172.845 3.00282C175.016 3.94539 176.758 5.18788 178.072 6.73028C179.386 8.27267 180.343 9.98645 180.942 11.8716C181.571 13.7282 181.885 15.5848 181.885 17.4414C181.885 19.7835 181.471 21.8829 180.642 23.7395C179.843 25.5961 178.729 27.1813 177.301 28.4952C175.872 29.8091 174.23 30.8231 172.373 31.5372C170.545 32.2227 168.603 32.5654 166.547 32.5654H156.607ZM160.763 28.5809H165.733C167.446 28.5809 169.017 28.3238 170.445 27.8097C171.902 27.2956 173.159 26.5529 174.216 25.5818C175.301 24.6107 176.144 23.4253 176.744 22.0257C177.343 20.5976 177.643 18.9838 177.643 17.1843C177.643 15.2706 177.329 13.5997 176.701 12.1715C176.072 10.7148 175.215 9.50088 174.13 8.52974C173.045 7.5586 171.816 6.83025 170.445 6.34468C169.074 5.83054 167.632 5.57348 166.118 5.57348H160.763V28.5809ZM184.107 32.5654L197.646 0.303623H197.903L211.399 32.5654H206.643L196.532 6.81597L199.488 4.88797L188.177 32.5654H184.107ZM192.033 20.8261H203.558L204.929 24.425H190.834L192.033 20.8261ZM225.459 1.58895C227.03 1.58895 228.473 1.80317 229.787 2.23162C231.129 2.6315 232.286 3.2456 233.257 4.07393C234.257 4.87369 235.028 5.87339 235.571 7.07303C236.142 8.24411 236.427 9.61513 236.427 11.1861C236.427 12.4143 236.242 13.6139 235.87 14.785C235.528 15.9561 234.942 17.0272 234.114 17.9983C233.286 18.9409 232.2 19.7121 230.858 20.3119C229.544 20.8832 227.916 21.1688 225.973 21.1688H221.389V32.5654H217.233V1.58895H225.459ZM225.888 17.1843C227.116 17.1843 228.13 16.9986 228.93 16.6273C229.758 16.256 230.401 15.7847 230.858 15.2135C231.315 14.6136 231.643 13.971 231.843 13.2855C232.043 12.6 232.143 11.9573 232.143 11.3575C232.143 10.7291 232.029 10.0864 231.8 9.42947C231.6 8.74396 231.258 8.11558 230.772 7.54432C230.315 6.97306 229.701 6.50177 228.93 6.13046C228.187 5.75914 227.273 5.57348 226.188 5.57348H221.389V17.1843H225.888ZM230.986 19.5407L239.084 32.5654H234.285L226.059 19.6693L230.986 19.5407ZM252.028 22.2399L240.546 1.58895H245.644L254.856 18.6839L253.57 18.7695L262.696 1.58895H267.752L256.184 22.2399V32.5654H252.028V22.2399Z" fill="url(#paint0_linear_699_11015)"/>
<defs>
<linearGradient id="paint0_linear_699_11015" x1="134.969" y1="0.56543" x2="134.969" y2="43.5654" gradientUnits="userSpaceOnUse">
<stop stop-color="#87E0FD"/>
<stop offset="1" stop-color="#DF7FF4"/>
</linearGradient>
</defs>
</svg>
