<svg width="276" height="73" viewBox="0 0 276 73" fill="none" xmlns="http://www.w3.org/2000/svg">
<path d="M58.2034 42.9277C57.9011 44.2443 57.2352 45.5276 56.2055 46.7775C56.4744 43.7807 54.9068 42.1055 54.4919 39.9463C54.2101 38.5068 54.8531 36.9238 56.4206 35.1974C55.3372 37.4412 58.6644 40.9529 58.2034 42.9277ZM23.9395 23.4175C25.945 19.0913 28.6422 16.1483 30.5172 14.4193C29.3184 15.4721 28.8343 16.9551 29.28 18.1231C29.5182 18.7532 29.9716 19.1605 30.302 19.3833C30.8553 18.9146 33.3449 16.6939 33.6216 13.0515C33.7753 10.9922 33.1605 9.37849 32.7686 8.55628C32.4382 8.99428 31.931 9.57059 31.201 10.1162C30.5018 10.631 29.8333 10.9461 29.3338 11.1382C30.8399 9.90102 31.4239 8.69459 31.6775 7.81091C32.1693 6.06659 31.6314 4.67575 32.6457 3.18502C33.076 2.54723 33.6139 2.15533 33.9904 1.9248C33.66 2.89302 33.3142 4.33765 33.5217 6.02817C33.7061 7.51123 34.2286 8.4948 34.4822 9.08649C35.8577 12.237 34.8049 15.9101 34.2824 17.7235C32.953 22.3494 29.9946 22.9795 26.4138 27.6592C24.6848 29.9184 22.5717 33.53 21.4959 39.1164C21.1578 36.3116 20.8197 30.1412 23.9395 23.4175ZM37.1102 53.2861C37.3023 53.3168 38.4319 53.4935 39.1081 54.4925C39.7152 55.3915 39.6614 56.5134 39.3079 57.2358C38.5087 58.8494 35.8577 59.0646 34.4592 58.9416C30.2405 58.5651 26.6827 54.1621 25.4917 49.9358C24.4697 46.2858 25.3226 43.1967 26.0987 40.3689C26.6136 38.5016 27.843 34.7979 31.6467 29.6725C34.1441 26.3068 38.6086 21.1661 45.9086 16.5018C41.398 20.6205 40.837 23.3945 41.1521 25.1619C41.5363 27.3058 43.2653 28.3431 43.4881 31.0787C43.6725 33.2841 42.7581 35.1513 42.0281 36.3116C42.7888 35.7661 44.2642 34.5366 45.1786 32.4311C46.6386 29.0731 45.5859 25.9841 45.3169 25.2541C46.2928 26.0916 47.7144 27.5132 48.844 29.6187C51.2953 34.1985 50.5806 38.6246 50.3501 39.9616C50.0197 41.8289 49.0361 47.3769 45.194 49.1135C44.9788 49.2134 45.0941 49.1443 39.4539 50.2124C36.8259 50.7119 35.3889 51.0039 34.4745 52.241C34.3132 52.4485 33.5985 53.4244 33.8752 54.4925C34.2056 55.7834 35.8577 56.7747 37.0103 56.3213C37.479 56.1446 38.0169 55.6759 38.0938 54.992C38.1629 54.3234 37.7787 53.6472 37.1102 53.2861ZM20.4047 43.4426C20.3125 43.9805 18.914 53.3552 25.8067 59.249C31.7082 64.3052 41.0215 64.5204 46.9691 59.4334C53.1318 54.1544 52.4556 45.9092 52.3711 45.064C52.7322 45.7171 53.224 46.7468 53.5314 48.0839C54.4842 52.1719 52.8552 55.3378 53.7773 55.8603C54.0923 56.037 54.7608 55.9294 56.3438 54.431C56.0441 55.8526 55.3602 58.0887 53.6697 60.2556C52.2174 62.1306 50.6652 63.1142 48.4828 64.4743C46.8307 65.504 44.4409 66.8026 41.3365 67.8861L44.7406 64.8815C41.1982 66.6643 38.3166 66.9332 36.165 66.7411C33.2681 66.4799 30.909 65.3119 30.4096 66.0649C30.0254 66.6412 31.0089 67.9936 32.0617 69.2001C33.5883 69.8251 35.1123 70.4475 36.6338 71.0673C35.2353 71.1211 32.8685 71.0366 30.2252 69.9762C27.2206 68.7774 25.4302 66.964 24.3852 65.8882C23.7166 65.1966 21.0733 62.3688 19.6594 57.7352C19.0984 55.868 18.8909 54.2543 18.8141 53.1093C18.7142 52.1027 18.5989 50.5428 18.622 48.5987C18.645 47.3308 18.7065 46.6853 18.3915 46.5393C18.3915 46.5393 17.8613 46.3011 14.7568 49.9434L20.3048 40.9913L20.4047 43.4426Z" fill="url(#paint0_linear_66_2090)"/>
<path d="M86.328 51.5V27.628H86.36L98.488 44.844L97.176 44.588L109.272 27.628H109.336V51.5H106.264V34.668L106.456 36.236L97.72 48.588H97.656L88.792 36.236L89.336 34.796V51.5H86.328ZM113.68 51.5L123.792 27.404H123.984L134.064 51.5H130.512L122.96 32.268L125.168 30.828L116.72 51.5H113.68ZM119.6 42.732H128.208L129.232 45.42H118.704L119.6 42.732ZM155.69 49.516C155.37 49.7933 154.922 50.0707 154.346 50.348C153.77 50.604 153.13 50.8387 152.426 51.052C151.743 51.2653 151.029 51.436 150.282 51.564C149.557 51.692 148.874 51.756 148.234 51.756C146.378 51.756 144.703 51.468 143.21 50.892C141.738 50.316 140.469 49.516 139.402 48.492C138.357 47.468 137.546 46.2627 136.97 44.876C136.415 43.4893 136.138 41.9853 136.138 40.364C136.138 38.444 136.447 36.7267 137.066 35.212C137.706 33.676 138.57 32.3853 139.658 31.34C140.767 30.2733 142.037 29.4733 143.466 28.94C144.895 28.3853 146.41 28.108 148.01 28.108C149.354 28.108 150.602 28.268 151.754 28.588C152.906 28.908 153.919 29.3133 154.794 29.804L153.738 32.652C153.311 32.396 152.778 32.1613 152.138 31.948C151.519 31.7347 150.879 31.564 150.218 31.436C149.557 31.2867 148.938 31.212 148.362 31.212C146.997 31.212 145.759 31.4253 144.65 31.852C143.541 32.2573 142.591 32.8547 141.802 33.644C141.013 34.412 140.405 35.3507 139.978 36.46C139.551 37.548 139.338 38.7747 139.338 40.14C139.338 41.3987 139.551 42.5507 139.978 43.596C140.405 44.6413 141.013 45.548 141.802 46.316C142.591 47.0627 143.53 47.6493 144.618 48.076C145.727 48.4813 146.943 48.684 148.266 48.684C149.055 48.684 149.834 48.6093 150.602 48.46C151.37 48.2893 152.031 48.0547 152.586 47.756V43.148H147.978V40.172H155.69V49.516ZM161.609 28.364H176.649V31.34H164.713V38.38H175.369V41.356H164.713V48.524H177.097V51.5H161.609V28.364Z" fill="#F1E3B5"/>
<defs>
<linearGradient id="paint0_linear_66_2090" x1="36.5022" y1="1.9248" x2="36.5022" y2="71.0795" gradientUnits="userSpaceOnUse">
<stop offset="0.213542" stop-color="#EFD99F"/>
<stop offset="0.770833" stop-color="#D9AE5F"/>
<stop offset="1" stop-color="#BB9A45"/>
</linearGradient>
</defs>
</svg>
