<svg width="276" height="73" viewBox="0 0 276 73" fill="none" xmlns="http://www.w3.org/2000/svg">
<path d="M71.0827 61.6546C69.4536 61.9312 66.9255 62.3539 63.8057 62.8072C59.7408 63.4066 57.7352 63.6679 54.4925 64.2749C52.3486 64.6745 50.6043 65.0587 49.4593 65.32C52.1642 55.684 53.9546 49.5136 54.262 48.9296C54.2927 48.8681 54.4771 48.5607 54.3849 48.2226C54.2927 47.8614 53.9315 47.6693 53.8624 47.6232C52.9019 47.0546 48.86 41.6219 47.9609 40.4078C44.1956 35.3515 44.2571 32.5391 42.582 30.7564C42.2208 30.3645 41.8443 30.2723 40.999 29.6268C37.7793 27.1679 37.7025 26.0536 36.596 26.0306C35.5125 26.0075 35.3895 27.0756 32.0085 29.6268C31.1171 30.303 30.7944 30.3491 30.4255 30.7564C28.7504 32.5391 28.8119 35.3515 25.0466 40.4078C24.1475 41.6219 20.1056 47.0546 19.1451 47.6232C19.076 47.6693 18.7148 47.8614 18.6226 48.2226C18.5304 48.5607 18.7148 48.8681 18.7455 48.9296C19.0529 49.5136 20.8433 55.684 23.5482 65.32C22.4032 65.0587 20.6589 64.6745 18.515 64.2749C15.2723 63.6679 13.2667 63.4066 9.20175 62.8072C6.08196 62.3539 3.55386 61.9312 1.9248 61.6546C2.8008 61.6469 7.14238 61.524 9.73965 58.312C10.3698 57.5282 10.777 56.7137 11.0383 55.9913C12.6366 56.519 14.2375 57.0466 15.8409 57.5743C15.2415 56.9135 14.2964 56.0144 12.9516 55.269C10.8385 54.1087 9.50144 54.3008 8.99428 53.3864C8.31807 52.1877 9.79344 50.3281 11.0152 48.5684C13.9275 44.3805 15.4106 40.7228 17.0781 36.6041C18.9223 32.0781 20.121 27.529 20.121 27.529C20.6205 25.6848 21.0124 23.9559 22.2495 21.7812C22.8489 20.7285 23.2101 20.3443 24.7546 18.1696C27.0061 14.9961 26.6987 15.1882 28.151 13.1903C31.3015 8.87943 33.2533 7.31954 35.3281 6.59722C35.6508 6.48196 35.8199 6.42817 36.0734 6.38975C36.2118 6.36925 36.3552 6.35901 36.5037 6.35901C36.6523 6.35901 36.7957 6.36925 36.9341 6.38975C37.1876 6.42817 37.3567 6.48196 37.6794 6.59722C39.7542 7.31954 41.706 8.87943 44.8565 13.1903C46.3088 15.1882 46.0014 14.9961 48.2529 18.1696C49.7974 20.3443 50.1586 20.7285 50.758 21.7812C51.9951 23.9559 52.387 25.6848 52.8865 27.529C52.8865 27.529 54.0852 32.0781 55.9294 36.6041C57.5969 40.7228 59.08 44.3805 61.9923 48.5684C63.2141 50.3281 64.6894 52.1877 64.0132 53.3864C63.5061 54.3008 62.169 54.1087 60.0559 55.269C58.7111 56.0144 57.766 56.9135 57.1666 57.5743C58.77 57.0466 60.3709 56.519 61.9692 55.9913C62.2305 56.7137 62.6377 57.5282 63.2679 58.312C65.8651 61.524 70.2067 61.6469 71.0827 61.6546ZM20.7281 49.5136C25.7894 51.4295 28.5224 52.8101 28.9271 53.6553C29.3369 54.5006 29.7801 58.8268 30.2565 66.634L25.3693 65.4276L20.7281 49.5136ZM47.6382 65.4199L42.751 66.634C43.2274 58.8217 43.6706 54.4929 44.0804 53.6477C44.4851 52.8024 47.2181 51.4244 52.2794 49.5136L47.6382 65.4199Z" fill="url(#paint0_linear_232_5360)"/>
<path d="M84.024 51.5L94.136 27.404H94.328L104.408 51.5H100.856L93.304 32.268L95.512 30.828L87.064 51.5H84.024ZM89.944 42.732H98.552L99.576 45.42H89.048L89.944 42.732ZM120.734 32.492C119.944 32.0867 119.08 31.7347 118.142 31.436C117.203 31.1373 116.286 30.988 115.39 30.988C114.152 30.988 113.16 31.276 112.414 31.852C111.688 32.428 111.326 33.196 111.326 34.156C111.326 34.8813 111.56 35.5 112.03 36.012C112.499 36.5027 113.118 36.9293 113.885 37.292C114.654 37.6547 115.454 37.996 116.286 38.316C117.011 38.5933 117.726 38.9027 118.43 39.244C119.134 39.5853 119.763 40.012 120.318 40.524C120.894 41.036 121.342 41.6653 121.662 42.412C122.003 43.1587 122.174 44.0867 122.174 45.196C122.174 46.412 121.864 47.5213 121.246 48.524C120.648 49.5267 119.784 50.316 118.654 50.892C117.523 51.468 116.179 51.756 114.622 51.756C113.598 51.756 112.616 51.6387 111.678 51.404C110.76 51.1693 109.907 50.8707 109.118 50.508C108.328 50.124 107.624 49.7293 107.006 49.324L108.382 46.892C108.894 47.2547 109.48 47.6067 110.141 47.948C110.803 48.268 111.496 48.5347 112.222 48.748C112.947 48.94 113.651 49.036 114.334 49.036C115.059 49.036 115.774 48.908 116.478 48.652C117.203 48.3747 117.8 47.9587 118.27 47.404C118.739 46.8493 118.974 46.1133 118.974 45.196C118.974 44.4067 118.76 43.756 118.334 43.244C117.928 42.7107 117.384 42.2627 116.702 41.9C116.019 41.516 115.294 41.1747 114.526 40.876C113.8 40.5987 113.064 40.3 112.318 39.98C111.571 39.6387 110.878 39.2333 110.238 38.764C109.598 38.2733 109.086 37.676 108.702 36.972C108.318 36.268 108.126 35.4147 108.126 34.412C108.126 33.196 108.414 32.14 108.99 31.244C109.587 30.3267 110.398 29.612 111.422 29.1C112.446 28.5667 113.619 28.2787 114.942 28.236C116.435 28.236 117.747 28.4173 118.878 28.78C120.03 29.1427 121.043 29.5907 121.918 30.124L120.734 32.492ZM139.359 32.492C138.569 32.0867 137.705 31.7347 136.767 31.436C135.828 31.1373 134.911 30.988 134.015 30.988C132.777 30.988 131.785 31.276 131.039 31.852C130.313 32.428 129.951 33.196 129.951 34.156C129.951 34.8813 130.185 35.5 130.655 36.012C131.124 36.5027 131.743 36.9293 132.51 37.292C133.279 37.6547 134.079 37.996 134.911 38.316C135.636 38.5933 136.351 38.9027 137.055 39.244C137.759 39.5853 138.388 40.012 138.943 40.524C139.519 41.036 139.967 41.6653 140.287 42.412C140.628 43.1587 140.799 44.0867 140.799 45.196C140.799 46.412 140.489 47.5213 139.871 48.524C139.273 49.5267 138.409 50.316 137.279 50.892C136.148 51.468 134.804 51.756 133.247 51.756C132.223 51.756 131.241 51.6387 130.303 51.404C129.385 51.1693 128.532 50.8707 127.743 50.508C126.953 50.124 126.249 49.7293 125.631 49.324L127.007 46.892C127.519 47.2547 128.105 47.6067 128.766 47.948C129.428 48.268 130.121 48.5347 130.847 48.748C131.572 48.94 132.276 49.036 132.959 49.036C133.684 49.036 134.399 48.908 135.103 48.652C135.828 48.3747 136.425 47.9587 136.895 47.404C137.364 46.8493 137.599 46.1133 137.599 45.196C137.599 44.4067 137.385 43.756 136.959 43.244C136.553 42.7107 136.009 42.2627 135.327 41.9C134.644 41.516 133.919 41.1747 133.151 40.876C132.425 40.5987 131.689 40.3 130.943 39.98C130.196 39.6387 129.503 39.2333 128.863 38.764C128.223 38.2733 127.711 37.676 127.327 36.972C126.943 36.268 126.751 35.4147 126.751 34.412C126.751 33.196 127.039 32.14 127.615 31.244C128.212 30.3267 129.023 29.612 130.047 29.1C131.071 28.5667 132.244 28.2787 133.567 28.236C135.06 28.236 136.372 28.4173 137.503 28.78C138.655 29.1427 139.668 29.5907 140.543 30.124L139.359 32.492ZM143.712 51.5L153.824 27.404H154.016L164.096 51.5H160.544L152.992 32.268L155.2 30.828L146.752 51.5H143.712ZM149.632 42.732H158.24L159.264 45.42H148.736L149.632 42.732ZM180.421 32.492C179.632 32.0867 178.768 31.7347 177.829 31.436C176.89 31.1373 175.973 30.988 175.077 30.988C173.84 30.988 172.848 31.276 172.101 31.852C171.376 32.428 171.013 33.196 171.013 34.156C171.013 34.8813 171.248 35.5 171.717 36.012C172.186 36.5027 172.805 36.9293 173.573 37.292C174.341 37.6547 175.141 37.996 175.973 38.316C176.698 38.5933 177.413 38.9027 178.117 39.244C178.821 39.5853 179.45 40.012 180.005 40.524C180.581 41.036 181.029 41.6653 181.349 42.412C181.69 43.1587 181.861 44.0867 181.861 45.196C181.861 46.412 181.552 47.5213 180.933 48.524C180.336 49.5267 179.472 50.316 178.341 50.892C177.21 51.468 175.866 51.756 174.309 51.756C173.285 51.756 172.304 51.6387 171.365 51.404C170.448 51.1693 169.594 50.8707 168.805 50.508C168.016 50.124 167.312 49.7293 166.693 49.324L168.069 46.892C168.581 47.2547 169.168 47.6067 169.829 47.948C170.49 48.268 171.184 48.5347 171.909 48.748C172.634 48.94 173.338 49.036 174.021 49.036C174.746 49.036 175.461 48.908 176.165 48.652C176.89 48.3747 177.488 47.9587 177.957 47.404C178.426 46.8493 178.661 46.1133 178.661 45.196C178.661 44.4067 178.448 43.756 178.021 43.244C177.616 42.7107 177.072 42.2627 176.389 41.9C175.706 41.516 174.981 41.1747 174.213 40.876C173.488 40.5987 172.752 40.3 172.005 39.98C171.258 39.6387 170.565 39.2333 169.925 38.764C169.285 38.2733 168.773 37.676 168.389 36.972C168.005 36.268 167.813 35.4147 167.813 34.412C167.813 33.196 168.101 32.14 168.677 31.244C169.274 30.3267 170.085 29.612 171.109 29.1C172.133 28.5667 173.306 28.2787 174.629 28.236C176.122 28.236 177.434 28.4173 178.565 28.78C179.717 29.1427 180.73 29.5907 181.605 30.124L180.421 32.492ZM199.046 32.492C198.257 32.0867 197.393 31.7347 196.454 31.436C195.515 31.1373 194.598 30.988 193.702 30.988C192.465 30.988 191.473 31.276 190.726 31.852C190.001 32.428 189.638 33.196 189.638 34.156C189.638 34.8813 189.873 35.5 190.342 36.012C190.811 36.5027 191.43 36.9293 192.198 37.292C192.966 37.6547 193.766 37.996 194.598 38.316C195.323 38.5933 196.038 38.9027 196.742 39.244C197.446 39.5853 198.075 40.012 198.63 40.524C199.206 41.036 199.654 41.6653 199.974 42.412C200.315 43.1587 200.486 44.0867 200.486 45.196C200.486 46.412 200.177 47.5213 199.558 48.524C198.961 49.5267 198.097 50.316 196.966 50.892C195.835 51.468 194.491 51.756 192.934 51.756C191.91 51.756 190.929 51.6387 189.99 51.404C189.073 51.1693 188.219 50.8707 187.43 50.508C186.641 50.124 185.937 49.7293 185.318 49.324L186.694 46.892C187.206 47.2547 187.793 47.6067 188.454 47.948C189.115 48.268 189.809 48.5347 190.534 48.748C191.259 48.94 191.963 49.036 192.646 49.036C193.371 49.036 194.086 48.908 194.79 48.652C195.515 48.3747 196.113 47.9587 196.582 47.404C197.051 46.8493 197.286 46.1133 197.286 45.196C197.286 44.4067 197.073 43.756 196.646 43.244C196.241 42.7107 195.697 42.2627 195.014 41.9C194.331 41.516 193.606 41.1747 192.838 40.876C192.113 40.5987 191.377 40.3 190.63 39.98C189.883 39.6387 189.19 39.2333 188.55 38.764C187.91 38.2733 187.398 37.676 187.014 36.972C186.63 36.268 186.438 35.4147 186.438 34.412C186.438 33.196 186.726 32.14 187.302 31.244C187.899 30.3267 188.71 29.612 189.734 29.1C190.758 28.5667 191.931 28.2787 193.254 28.236C194.747 28.236 196.059 28.4173 197.19 28.78C198.342 29.1427 199.355 29.5907 200.23 30.124L199.046 32.492ZM205.703 28.364H208.807V51.5H205.703V28.364ZM235.485 52.236L217.597 34.092L218.493 34.316L218.557 51.5H215.453V27.66H215.613L233.309 45.868L232.573 45.708L232.509 28.364H235.581V52.236H235.485Z" fill="#F1E3B5"/>
<defs>
<linearGradient id="paint0_linear_232_5360" x1="36.5037" y1="6.35901" x2="36.5037" y2="66.634" gradientUnits="userSpaceOnUse">
<stop offset="0.213542" stop-color="#EFD99F"/>
<stop offset="0.770833" stop-color="#D9AE5F"/>
<stop offset="1" stop-color="#BB9A45"/>
</linearGradient>
</defs>
</svg>
