<svg width="276" height="73" viewBox="0 0 276 73" fill="none" xmlns="http://www.w3.org/2000/svg">
<path fill-rule="evenodd" clip-rule="evenodd" d="M66.0835 12.2985L58.9064 51.6801L36.4993 71.0827L14.0921 51.6801L6.91504 12.2985C19.1688 14.3476 29.0302 10.8897 36.4993 1.9248C43.9683 10.8897 53.8297 14.3476 66.0835 12.2985ZM61.9878 16.1175H61.1656C49.4702 16.0945 40.9715 10.3851 36.9449 6.9887L36.4993 6.61217L36.0536 6.9887C32.027 10.3851 23.5283 16.0945 11.8406 16.1175H11.0107L17.1811 49.9742L36.4993 66.7027L55.8174 49.9742L61.9878 16.1175ZM56.3937 20.6512L51.568 47.1618L36.4993 60.2095L21.4305 47.1618L16.6048 20.6512C26.0334 20.4284 32.9645 15.9715 36.4993 13.0746C40.0263 15.9715 46.9652 20.4284 56.3937 20.6512Z" fill="url(#paint0_linear_66_2093)"/>
<path d="M86.632 28.364H101.992V31.34H95.784V51.5H92.68V31.34H86.632V28.364ZM102.837 51.5L112.949 27.404H113.141L123.221 51.5H119.669L112.117 32.268L114.325 30.828L105.877 51.5H102.837ZM108.757 42.732H117.365L118.389 45.42H107.861L108.757 42.732ZM147.61 52.236L129.722 34.092L130.618 34.316L130.682 51.5H127.578V27.66H127.738L145.434 45.868L144.698 45.708L144.634 28.364H147.706V52.236H147.61ZM157.495 37.676L157.399 38.828L157.815 38.252L167.287 28.364H171.287L161.719 38.284L171.831 51.5H167.895L159.447 40.268L157.495 42.156V51.5H154.359V28.364H157.495V37.676Z" fill="#F1E3B5"/>
<defs>
<linearGradient id="paint0_linear_66_2093" x1="36.4993" y1="1.9248" x2="36.4993" y2="71.0827" gradientUnits="userSpaceOnUse">
<stop offset="0.213542" stop-color="#EFD99F"/>
<stop offset="0.770833" stop-color="#D9AE5F"/>
<stop offset="1" stop-color="#BB9A45"/>
</linearGradient>
</defs>
</svg>
