<svg width="222" height="73" viewBox="0 0 222 73" fill="none" xmlns="http://www.w3.org/2000/svg">
<path d="M30.3961 6.06659L36.4897 1.9248L42.5832 6.06659V7.66491C40.1627 6.97333 38.0342 6.81965 36.4897 6.81965C33.9692 6.81965 31.8791 7.24228 30.3961 7.66491V6.06659ZM39.3098 23.3176H33.6696C34.0384 21.3274 34.3842 18.6533 34.3842 15.4951C34.3842 13.4358 34.2382 10.7309 33.6696 7.66491H39.3098C38.9409 9.6628 38.5951 12.3292 38.5951 15.4951C38.5951 17.5468 38.7411 20.2516 39.3098 23.3176ZM42.5295 45.1485C42.5295 49.4465 42.5295 56.3777 42.5295 65.942L36.4897 71.0827H36.482L36.628 39.0395L33.4851 33.1073L36.4743 27.0138L32.0866 33.238L35.3293 38.9396L36.4282 71.0289L30.4499 65.942C30.4499 56.3777 30.4499 49.4465 30.4499 45.1485C30.4499 40.8453 28.6953 37.1953 25.1862 34.1985L33.8386 24.501H36.4897H39.1407L47.7931 34.1985C44.284 37.1953 42.5295 40.8453 42.5295 45.1485ZM56.0076 36.304L56.484 31.8318L49.0534 30.172L50.2828 32.1545L48.1389 32.9844L41.9378 26.0609L58.6356 30.2027L57.8595 35.0822L56.0076 36.304ZM15.1199 35.0899L14.3438 30.2104L31.0416 26.0609L24.8404 32.9844L22.6965 32.1545L23.926 30.172L16.4953 31.8318L16.9718 36.304L15.1199 35.0899Z" fill="url(#paint0_linear_103_16278)"/>
<path d="M86.328 28.364H100.056V31.34H89.432V38.732H98.744V41.676H89.432V51.5H86.328V28.364ZM105.172 28.364H108.276V51.5H105.172V28.364ZM133.034 49.516C132.714 49.7933 132.266 50.0707 131.69 50.348C131.114 50.604 130.474 50.8387 129.77 51.052C129.087 51.2653 128.372 51.436 127.626 51.564C126.9 51.692 126.218 51.756 125.578 51.756C123.722 51.756 122.047 51.468 120.554 50.892C119.082 50.316 117.812 49.516 116.746 48.492C115.7 47.468 114.89 46.2627 114.314 44.876C113.759 43.4893 113.482 41.9853 113.482 40.364C113.482 38.444 113.791 36.7267 114.41 35.212C115.05 33.676 115.914 32.3853 117.002 31.34C118.111 30.2733 119.38 29.4733 120.81 28.94C122.239 28.3853 123.754 28.108 125.354 28.108C126.698 28.108 127.946 28.268 129.098 28.588C130.25 28.908 131.263 29.3133 132.138 29.804L131.082 32.652C130.655 32.396 130.122 32.1613 129.482 31.948C128.863 31.7347 128.223 31.564 127.562 31.436C126.9 31.2867 126.282 31.212 125.706 31.212C124.34 31.212 123.103 31.4253 121.994 31.852C120.884 32.2573 119.935 32.8547 119.146 33.644C118.356 34.412 117.748 35.3507 117.322 36.46C116.895 37.548 116.682 38.7747 116.682 40.14C116.682 41.3987 116.895 42.5507 117.322 43.596C117.748 44.6413 118.356 45.548 119.146 46.316C119.935 47.0627 120.874 47.6493 121.962 48.076C123.071 48.4813 124.287 48.684 125.61 48.684C126.399 48.684 127.178 48.6093 127.946 48.46C128.714 48.2893 129.375 48.0547 129.93 47.756V43.148H125.322V40.172H133.034V49.516ZM157.257 28.364V51.5H154.185V41.356H142.057V51.5H138.953V28.364H142.057V38.412H154.185V28.364H157.257ZM162.226 28.364H177.586V31.34H171.378V51.5H168.274V31.34H162.226V28.364ZM182.516 28.364H197.556V31.34H185.62V38.38H196.276V41.356H185.62V48.524H198.003V51.5H182.516V28.364ZM209.535 28.364C210.708 28.364 211.785 28.524 212.767 28.844C213.769 29.1427 214.633 29.6013 215.359 30.22C216.105 30.8173 216.681 31.564 217.087 32.46C217.513 33.3347 217.727 34.3587 217.727 35.532C217.727 36.4493 217.588 37.3453 217.311 38.22C217.055 39.0947 216.617 39.8947 215.999 40.62C215.38 41.324 214.569 41.9 213.567 42.348C212.585 42.7747 211.369 42.988 209.919 42.988H206.495V51.5H203.391V28.364H209.535ZM209.855 40.012C210.772 40.012 211.529 39.8733 212.127 39.596C212.745 39.3187 213.225 38.9667 213.567 38.54C213.908 38.092 214.153 37.612 214.303 37.1C214.452 36.588 214.527 36.108 214.527 35.66C214.527 35.1907 214.441 34.7107 214.271 34.22C214.121 33.708 213.865 33.2387 213.503 32.812C213.161 32.3853 212.703 32.0333 212.127 31.756C211.572 31.4787 210.889 31.34 210.079 31.34H206.495V40.012H209.855ZM213.663 41.772L219.711 51.5H216.127L209.983 41.868L213.663 41.772Z" fill="#F1E3B5"/>
<defs>
<linearGradient id="paint0_linear_103_16278" x1="36.4897" y1="1.9248" x2="36.4897" y2="71.0827" gradientUnits="userSpaceOnUse">
<stop offset="0.213542" stop-color="#EFD99F"/>
<stop offset="0.770833" stop-color="#D9AE5F"/>
<stop offset="1" stop-color="#BB9A45"/>
</linearGradient>
</defs>
</svg>
