<svg width="276" height="73" viewBox="0 0 276 73" fill="none" xmlns="http://www.w3.org/2000/svg">
<path d="M13.8291 63.6922C15.3659 57.1401 19.2106 53.7667 25.3631 53.572C25.3682 53.5567 25.3733 53.5362 25.3785 53.5106C22.7197 52.1658 19.5231 51.0132 15.6963 50.4292C13.4526 48.8104 11.196 46.0902 8.92656 42.2685C17.2153 43.5851 22.6787 45.7213 25.317 48.6772C22.1588 43.5979 10.9859 37.2584 5.19972 34.2078C3.01741 28.0143 1.5113 19.8306 2.02615 9.30322C3.41699 13.0454 6.02193 18.6165 11.0705 23.6727C17.7788 30.381 23.2115 30.6039 28.1909 35.5372C32.1098 39.4177 36.267 46.7254 35.391 61.8172C35.1912 61.5559 34.9683 61.287 34.7455 61.0104C33.6082 60.2342 22.1127 52.8343 13.8291 63.6922ZM38.2649 61.0104C38.042 61.287 37.8192 61.5559 37.6194 61.8172C36.7434 46.7254 40.9005 39.4177 44.8195 35.5372C49.7989 30.6039 55.2316 30.381 61.9399 23.6727C66.9884 18.6165 69.5934 13.0454 70.9842 9.30322C71.4991 19.8306 69.993 28.0143 67.8106 34.2078C62.0244 37.2584 50.8516 43.5979 47.6934 48.6772C50.3316 45.7213 55.7951 43.5851 64.0838 42.2685C61.8144 46.0902 59.5578 48.8104 57.314 50.4292C53.4873 51.0132 50.2906 52.1658 47.6319 53.5106C47.637 53.5362 47.6422 53.5567 47.6473 53.572C53.7998 53.7667 57.6444 57.1401 59.1813 63.6922C50.8977 52.8343 39.4021 60.2342 38.2649 61.0104Z" fill="url(#paint0_linear_232_5380)"/>
<path d="M100.296 32.492C99.5067 32.0867 98.6427 31.7347 97.704 31.436C96.7653 31.1373 95.848 30.988 94.952 30.988C93.7147 30.988 92.7227 31.276 91.976 31.852C91.2507 32.428 90.888 33.196 90.888 34.156C90.888 34.8813 91.1227 35.5 91.592 36.012C92.0613 36.5027 92.68 36.9293 93.448 37.292C94.216 37.6547 95.016 37.996 95.848 38.316C96.5733 38.5933 97.288 38.9027 97.992 39.244C98.696 39.5853 99.3253 40.012 99.88 40.524C100.456 41.036 100.904 41.6653 101.224 42.412C101.565 43.1587 101.736 44.0867 101.736 45.196C101.736 46.412 101.427 47.5213 100.808 48.524C100.211 49.5267 99.3467 50.316 98.216 50.892C97.0853 51.468 95.7413 51.756 94.184 51.756C93.16 51.756 92.1787 51.6387 91.24 51.404C90.3227 51.1693 89.4693 50.8707 88.68 50.508C87.8907 50.124 87.1867 49.7293 86.568 49.324L87.944 46.892C88.456 47.2547 89.0427 47.6067 89.704 47.948C90.3653 48.268 91.0587 48.5347 91.784 48.748C92.5093 48.94 93.2133 49.036 93.896 49.036C94.6213 49.036 95.336 48.908 96.04 48.652C96.7653 48.3747 97.3627 47.9587 97.832 47.404C98.3013 46.8493 98.536 46.1133 98.536 45.196C98.536 44.4067 98.3227 43.756 97.896 43.244C97.4907 42.7107 96.9467 42.2627 96.264 41.9C95.5813 41.516 94.856 41.1747 94.088 40.876C93.3627 40.5987 92.6267 40.3 91.88 39.98C91.1333 39.6387 90.44 39.2333 89.8 38.764C89.16 38.2733 88.648 37.676 88.264 36.972C87.88 36.268 87.688 35.4147 87.688 34.412C87.688 33.196 87.976 32.14 88.552 31.244C89.1493 30.3267 89.96 29.612 90.984 29.1C92.008 28.5667 93.1813 28.2787 94.504 28.236C95.9973 28.236 97.3093 28.4173 98.44 28.78C99.592 29.1427 100.605 29.5907 101.48 30.124L100.296 32.492ZM109.737 43.308C109.737 44.3533 109.982 45.292 110.473 46.124C110.985 46.9347 111.657 47.5747 112.489 48.044C113.321 48.5133 114.26 48.748 115.305 48.748C116.393 48.748 117.364 48.5133 118.217 48.044C119.07 47.5747 119.742 46.9347 120.233 46.124C120.724 45.292 120.969 44.3533 120.969 43.308V28.364H124.009V43.404C124.009 45.0893 123.614 46.5613 122.825 47.82C122.057 49.0787 121.012 50.0493 119.689 50.732C118.388 51.4147 116.926 51.756 115.305 51.756C113.684 51.756 112.222 51.4147 110.921 50.732C109.62 50.0493 108.585 49.0787 107.817 47.82C107.049 46.5613 106.665 45.0893 106.665 43.404V28.364H109.737V43.308ZM136.535 28.364C138.221 28.364 139.661 28.652 140.855 29.228C142.05 29.7827 142.967 30.5933 143.607 31.66C144.269 32.7267 144.599 34.0173 144.599 35.532C144.599 36.4493 144.461 37.356 144.183 38.252C143.906 39.1267 143.458 39.9267 142.839 40.652C142.242 41.356 141.453 41.9213 140.471 42.348C139.49 42.7747 138.295 42.988 136.887 42.988H133.463V51.5H130.359V28.364H136.535ZM136.855 40.012C137.773 40.012 138.53 39.8627 139.127 39.564C139.725 39.2653 140.194 38.892 140.535 38.444C140.877 37.9747 141.122 37.484 141.271 36.972C141.421 36.46 141.495 36.0013 141.495 35.596C141.495 35.1267 141.421 34.6467 141.271 34.156C141.122 33.644 140.866 33.1853 140.503 32.78C140.162 32.3533 139.703 32.012 139.127 31.756C138.573 31.4787 137.879 31.34 137.047 31.34H133.463V40.012H136.855ZM155.567 28.364C157.252 28.364 158.692 28.652 159.887 29.228C161.081 29.7827 161.999 30.5933 162.639 31.66C163.3 32.7267 163.631 34.0173 163.631 35.532C163.631 36.4493 163.492 37.356 163.215 38.252C162.937 39.1267 162.489 39.9267 161.871 40.652C161.273 41.356 160.484 41.9213 159.503 42.348C158.521 42.7747 157.327 42.988 155.919 42.988H152.495V51.5H149.391V28.364H155.567ZM155.887 40.012C156.804 40.012 157.561 39.8627 158.159 39.564C158.756 39.2653 159.225 38.892 159.567 38.444C159.908 37.9747 160.153 37.484 160.303 36.972C160.452 36.46 160.527 36.0013 160.527 35.596C160.527 35.1267 160.452 34.6467 160.303 34.156C160.153 33.644 159.897 33.1853 159.535 32.78C159.193 32.3533 158.735 32.012 158.159 31.756C157.604 31.4787 156.911 31.34 156.079 31.34H152.495V40.012H155.887ZM166.982 39.948C166.982 38.348 167.28 36.844 167.878 35.436C168.496 34.0067 169.35 32.748 170.438 31.66C171.526 30.5507 172.774 29.6867 174.182 29.068C175.611 28.428 177.147 28.108 178.79 28.108C180.411 28.108 181.926 28.428 183.334 29.068C184.763 29.6867 186.022 30.5507 187.11 31.66C188.219 32.748 189.083 34.0067 189.702 35.436C190.32 36.844 190.63 38.348 190.63 39.948C190.63 41.5907 190.32 43.1267 189.702 44.556C189.083 45.9853 188.219 47.244 187.11 48.332C186.022 49.3987 184.763 50.2413 183.334 50.86C181.926 51.4573 180.411 51.756 178.79 51.756C177.147 51.756 175.611 51.4573 174.182 50.86C172.774 50.2627 171.526 49.4307 170.438 48.364C169.35 47.2973 168.496 46.0493 167.878 44.62C167.28 43.1907 166.982 41.6333 166.982 39.948ZM170.182 39.98C170.182 41.196 170.406 42.3373 170.854 43.404C171.302 44.4493 171.92 45.3773 172.71 46.188C173.499 46.9987 174.416 47.6387 175.462 48.108C176.507 48.556 177.638 48.78 178.854 48.78C180.048 48.78 181.168 48.556 182.214 48.108C183.259 47.6387 184.166 46.9987 184.934 46.188C185.702 45.3773 186.31 44.4493 186.758 43.404C187.206 42.3373 187.43 41.1853 187.43 39.948C187.43 38.732 187.206 37.5907 186.758 36.524C186.31 35.436 185.691 34.4867 184.902 33.676C184.112 32.8653 183.195 32.236 182.15 31.788C181.104 31.3187 179.984 31.084 178.79 31.084C177.574 31.084 176.443 31.3187 175.398 31.788C174.352 32.2573 173.435 32.8973 172.646 33.708C171.856 34.5187 171.248 35.468 170.822 36.556C170.395 37.6227 170.182 38.764 170.182 39.98ZM202.003 28.364C203.177 28.364 204.254 28.524 205.235 28.844C206.238 29.1427 207.102 29.6013 207.827 30.22C208.574 30.8173 209.15 31.564 209.555 32.46C209.982 33.3347 210.195 34.3587 210.195 35.532C210.195 36.4493 210.057 37.3453 209.779 38.22C209.523 39.0947 209.086 39.8947 208.467 40.62C207.849 41.324 207.038 41.9 206.035 42.348C205.054 42.7747 203.838 42.988 202.387 42.988H198.963V51.5H195.859V28.364H202.003ZM202.323 40.012C203.241 40.012 203.998 39.8733 204.595 39.596C205.214 39.3187 205.694 38.9667 206.035 38.54C206.377 38.092 206.622 37.612 206.771 37.1C206.921 36.588 206.995 36.108 206.995 35.66C206.995 35.1907 206.91 34.7107 206.739 34.22C206.59 33.708 206.334 33.2387 205.971 32.812C205.63 32.3853 205.171 32.0333 204.595 31.756C204.041 31.4787 203.358 31.34 202.547 31.34H198.963V40.012H202.323ZM206.131 41.772L212.179 51.5H208.595L202.451 41.868L206.131 41.772ZM214.945 28.364H230.305V31.34H224.097V51.5H220.993V31.34H214.945V28.364Z" fill="#F1E3B5"/>
<defs>
<linearGradient id="paint0_linear_232_5380" x1="36.5052" y1="9.30322" x2="36.5052" y2="63.6921" gradientUnits="userSpaceOnUse">
<stop offset="0.213542" stop-color="#EFD99F"/>
<stop offset="0.770833" stop-color="#D9AE5F"/>
<stop offset="1" stop-color="#BB9A45"/>
</linearGradient>
</defs>
</svg>
