<svg width="276" height="73" viewBox="0 0 276 73" fill="none" xmlns="http://www.w3.org/2000/svg">
<path fill-rule="evenodd" clip-rule="evenodd" d="M66.0835 12.2985L58.9064 51.6801L36.4993 71.0827L14.0921 51.6801L6.91504 12.2985C19.1688 14.3476 29.0302 10.8897 36.4993 1.9248C43.9683 10.8897 53.8297 14.3476 66.0835 12.2985ZM61.9878 16.1175H61.1656C49.4702 16.0945 40.9715 10.3851 36.9449 6.9887L36.4993 6.61217L36.0536 6.9887C32.027 10.3851 23.5283 16.0945 11.8406 16.1175H11.0107L17.1811 49.9742L36.4993 66.7027L55.8174 49.9742L61.9878 16.1175ZM56.3937 20.6512L51.568 47.1618L36.4993 60.2095L21.4305 47.1618L16.6048 20.6512C26.0334 20.4284 32.9645 15.9715 36.4993 13.0746C40.0263 15.9715 46.9652 20.4284 56.3937 20.6512Z" fill="url(#paint0_linear_232_5780)"/>
<path d="M86.632 28.364H101.992V31.34H95.784V51.5H92.68V31.34H86.632V28.364ZM102.805 51.5L112.917 27.404H113.109L123.189 51.5H119.637L112.085 32.268L114.293 30.828L105.845 51.5H102.805ZM108.725 42.732H117.333L118.357 45.42H107.829L108.725 42.732ZM147.579 52.236L129.691 34.092L130.587 34.316L130.651 51.5H127.547V27.66H127.707L145.403 45.868L144.667 45.708L144.603 28.364H147.675V52.236H147.579ZM157.464 37.676L157.368 38.828L157.784 38.252L167.256 28.364H171.256L161.688 38.284L171.8 51.5H167.864L159.416 40.268L157.464 42.156V51.5H154.328V28.364H157.464V37.676Z" fill="#F1E3B5"/>
<defs>
<linearGradient id="paint0_linear_232_5780" x1="36.4993" y1="1.9248" x2="36.4993" y2="71.0827" gradientUnits="userSpaceOnUse">
<stop offset="0.213542" stop-color="#EFD99F"/>
<stop offset="0.770833" stop-color="#D9AE5F"/>
<stop offset="1" stop-color="#BB9A45"/>
</linearGradient>
</defs>
</svg>
