<svg width="276" height="73" viewBox="0 0 276 73" fill="none" xmlns="http://www.w3.org/2000/svg">
<path fill-rule="evenodd" clip-rule="evenodd" d="M66.6505 34.2062L63.3693 26.3683L56.4074 23.6173L37.5888 18.4459C37.7271 20.7204 37.9192 22.7721 38.3418 25.3002C38.5647 26.6372 38.9489 28.735 39.6174 31.3015C39.0539 31.4706 38.4929 31.6422 37.9346 31.8164C37.9653 32.508 38.0268 33.53 38.1036 34.7594C38.3572 38.6015 38.4955 40.5456 38.9028 41.6829C39.894 44.4262 41.7767 46.0552 42.3146 46.4855C44.0973 47.9455 45.9261 48.4911 46.9251 48.714C45.9799 48.8907 45.3498 49.2595 44.2971 50.1048C43.6823 50.5889 42.937 51.2421 41.8996 52.1027C37.7962 55.5222 36.7512 59.9944 36.4822 61.3852C36.2133 59.9944 35.1759 55.5222 31.0879 52.0873C28.2678 49.7283 27.5609 48.9599 26.0701 48.6832C27.0614 48.4681 28.8749 47.9302 30.6499 46.5009C30.6653 46.4907 30.6781 46.4804 30.6883 46.4702C31.2262 46.0399 33.1165 44.4185 34.1078 41.6752C34.5228 40.538 34.6611 38.5939 34.93 34.7594C35.0145 33.5223 35.076 32.508 35.1068 31.8087C34.5484 31.6345 33.99 31.4603 33.4316 31.2862C34.1001 28.7273 34.492 26.6372 34.7225 25.2925C35.1452 22.7567 35.345 20.705 35.491 18.4151L16.5878 23.6173L9.62589 26.3683L6.34473 34.2062C6.75967 32.6283 7.3488 29.2447 8.1121 24.0553L19.8228 15.9562L17.2102 20.8818L29.6125 13.9122L35.6831 15.0341C35.783 12.944 35.9059 10.5158 36.1288 7.38828C36.2978 4.9908 36.4592 3.05438 36.5668 1.9248C36.659 3.05438 36.8203 4.9908 36.9894 7.38828C37.1969 10.5081 37.3121 12.9363 37.412 15.0187L43.3827 13.9122L55.785 20.8818L53.1724 15.9562L64.8831 24.0553C65.6464 29.2447 66.2355 32.6283 66.6505 34.2062ZM36.5053 44.9103C35.6062 44.9103 34.7763 45.2253 34.1309 45.7479C33.2702 46.4394 32.717 47.4999 32.717 48.6909C32.7093 50.781 34.3998 52.4715 36.4899 52.4792C37.389 52.4792 38.2189 52.1642 38.8643 51.6416C39.725 50.9501 40.2782 49.8896 40.2782 48.6986C40.2859 46.6085 38.5954 44.918 36.5053 44.9103ZM54.3557 47.9148H58.8894V49.4747H54.325C53.7564 58.5421 46.3949 65.796 37.2814 66.1955V71.0827H35.7138V66.1955C26.6003 65.796 19.2388 58.5421 18.6702 49.4747H14.1058V47.9148H18.6395C18.8239 40.4304 23.6189 34.0832 30.2811 31.6012L29.8431 33.2764L31.6104 33.8296C25.6782 35.8275 21.3674 41.3602 21.183 47.9148H22.3433V49.4747H21.2214C21.7823 57.1435 28.0065 63.2602 35.7138 63.6521V62.8452H37.2814V63.6521C44.9887 63.2602 51.2129 57.1435 51.7738 49.4747H50.6519V47.9148H51.8123C51.6278 41.3755 47.3324 35.8583 41.4309 33.845L43.1982 33.2994L42.7602 31.6166C49.3994 34.114 54.1713 40.4534 54.3557 47.9148Z" fill="url(#paint0_linear_103_15854)"/>
<path d="M86.328 51.5V27.628H86.36L98.488 44.844L97.176 44.588L109.272 27.628H109.336V51.5H106.264V34.668L106.456 36.236L97.72 48.588H97.656L88.792 36.236L89.336 34.796V51.5H86.328ZM113.68 51.5L123.792 27.404H123.984L134.064 51.5H130.512L122.96 32.268L125.168 30.828L116.72 51.5H113.68ZM119.6 42.732H128.208L129.232 45.42H118.704L119.6 42.732ZM144.566 28.364C145.739 28.364 146.816 28.524 147.798 28.844C148.8 29.1427 149.664 29.6013 150.39 30.22C151.136 30.8173 151.712 31.564 152.118 32.46C152.544 33.3347 152.758 34.3587 152.758 35.532C152.758 36.4493 152.619 37.3453 152.342 38.22C152.086 39.0947 151.648 39.8947 151.03 40.62C150.411 41.324 149.6 41.9 148.598 42.348C147.616 42.7747 146.4 42.988 144.95 42.988H141.526V51.5H138.422V28.364H144.566ZM144.886 40.012C145.803 40.012 146.56 39.8733 147.158 39.596C147.776 39.3187 148.256 38.9667 148.598 38.54C148.939 38.092 149.184 37.612 149.334 37.1C149.483 36.588 149.558 36.108 149.558 35.66C149.558 35.1907 149.472 34.7107 149.302 34.22C149.152 33.708 148.896 33.2387 148.534 32.812C148.192 32.3853 147.734 32.0333 147.158 31.756C146.603 31.4787 145.92 31.34 145.11 31.34H141.526V40.012H144.886ZM148.694 41.772L154.742 51.5H151.158L145.014 41.868L148.694 41.772ZM162.652 37.676L162.556 38.828L162.972 38.252L172.444 28.364H176.444L166.876 38.284L176.988 51.5H173.052L164.604 40.268L162.652 42.156V51.5H159.516V28.364H162.652V37.676ZM193.202 32.492C192.413 32.0867 191.549 31.7347 190.61 31.436C189.672 31.1373 188.754 30.988 187.858 30.988C186.621 30.988 185.629 31.276 184.882 31.852C184.157 32.428 183.794 33.196 183.794 34.156C183.794 34.8813 184.029 35.5 184.498 36.012C184.968 36.5027 185.586 36.9293 186.354 37.292C187.122 37.6547 187.922 37.996 188.754 38.316C189.48 38.5933 190.194 38.9027 190.898 39.244C191.602 39.5853 192.232 40.012 192.786 40.524C193.362 41.036 193.81 41.6653 194.13 42.412C194.472 43.1587 194.642 44.0867 194.642 45.196C194.642 46.412 194.333 47.5213 193.714 48.524C193.117 49.5267 192.253 50.316 191.122 50.892C189.992 51.468 188.648 51.756 187.09 51.756C186.066 51.756 185.085 51.6387 184.146 51.404C183.229 51.1693 182.376 50.8707 181.586 50.508C180.797 50.124 180.093 49.7293 179.474 49.324L180.85 46.892C181.362 47.2547 181.949 47.6067 182.61 47.948C183.272 48.268 183.965 48.5347 184.69 48.748C185.416 48.94 186.12 49.036 186.802 49.036C187.528 49.036 188.242 48.908 188.946 48.652C189.672 48.3747 190.269 47.9587 190.738 47.404C191.208 46.8493 191.442 46.1133 191.442 45.196C191.442 44.4067 191.229 43.756 190.802 43.244C190.397 42.7107 189.853 42.2627 189.17 41.9C188.488 41.516 187.762 41.1747 186.994 40.876C186.269 40.5987 185.533 40.3 184.786 39.98C184.04 39.6387 183.346 39.2333 182.706 38.764C182.066 38.2733 181.554 37.676 181.17 36.972C180.786 36.268 180.594 35.4147 180.594 34.412C180.594 33.196 180.882 32.14 181.458 31.244C182.056 30.3267 182.866 29.612 183.89 29.1C184.914 28.5667 186.088 28.2787 187.41 28.236C188.904 28.236 190.216 28.4173 191.346 28.78C192.498 29.1427 193.512 29.5907 194.386 30.124L193.202 32.492ZM199.859 51.5V27.628H199.891L212.019 44.844L210.707 44.588L222.803 27.628H222.867V51.5H219.795V34.668L219.987 36.236L211.251 48.588H211.187L202.323 36.236L202.867 34.796V51.5H199.859ZM227.212 51.5L237.324 27.404H237.516L247.596 51.5H244.044L236.492 32.268L238.7 30.828L230.252 51.5H227.212ZM233.132 42.732H241.74L242.764 45.42H232.236L233.132 42.732ZM271.985 52.236L254.097 34.092L254.993 34.316L255.057 51.5H251.953V27.66H252.113L269.809 45.868L269.073 45.708L269.009 28.364H272.081V52.236H271.985Z" fill="#F1E3B5"/>
<defs>
<linearGradient id="paint0_linear_103_15854" x1="36.4976" y1="1.9248" x2="36.4976" y2="71.0827" gradientUnits="userSpaceOnUse">
<stop offset="0.213542" stop-color="#EFD99F"/>
<stop offset="0.770833" stop-color="#D9AE5F"/>
<stop offset="1" stop-color="#BB9A45"/>
</linearGradient>
</defs>
</svg>
