<svg width="587" height="143" viewBox="0 0 587 143" fill="none" xmlns="http://www.w3.org/2000/svg">
<g clip-path="url(#clip0_103_17414)">
<path d="M587 63.5498H586.92C584.262 63.5472 581.638 64.1527 579.25 65.3198C576.862 66.4825 574.785 68.1963 573.19 70.3198C572.79 70.847 572.423 71.398 572.09 71.9698C571.92 72.2498 571.77 72.5398 571.61 72.8298C571.45 73.1198 571.31 73.4298 571.19 73.6998L569.61 77.0698L566.75 83.1998L507.8 83.3198L448.17 83.5198L388.54 83.8198C368.667 83.9265 348.79 84.0698 328.91 84.2498C348.79 84.4231 368.667 84.5665 388.54 84.6798L448.17 84.9698L507.8 85.1798L567.43 85.2998H568.09L568.38 84.6898L571.57 77.9998L573.16 74.6398C573.29 74.3498 573.42 74.1098 573.55 73.8498C573.68 73.5898 573.82 73.3398 573.97 73.0898C574.276 72.5916 574.61 72.1109 574.97 71.6498C576.364 69.8035 578.177 68.3157 580.26 67.3098C582.346 66.3005 584.633 65.7774 586.95 65.7798H587V63.5498Z" fill="url(#paint0_linear_103_17414)"/>
<path d="M587 27.4599V20.3499L586.92 20.1699L585.55 23.0899L572.45 50.9999C570.256 55.6666 568.08 60.3333 565.92 64.9999L559.77 78.2099L527.24 78.2799L493.85 78.3999L427.07 78.6699L360.29 78.9999C338.03 79.1399 315.77 79.3099 293.51 79.5099C315.77 79.7233 338.03 79.8966 360.29 80.0299L427.07 80.3999L493.85 80.6699L527.24 80.7899L560.63 80.8599H561.48L561.85 80.0899L568.49 66.1699C570.71 61.5299 572.9 56.8799 575.1 52.2299L586.92 27.2299L587 27.4599Z" fill="url(#paint1_linear_103_17414)"/>
<path d="M587 53.42L586.91 53.61L575.09 28.61L571.8 21.61L568.48 14.61L561.84 0.77L561.47 0H560.63L493.84 0.19L460.45 0.3L427.06 0.46L360.28 0.82C338.02 0.966667 315.76 1.14 293.5 1.34C315.76 1.54667 338.02 1.72 360.28 1.86L427.06 2.22L460.45 2.38L493.84 2.49L559.77 2.68L565.92 15.9L569.17 22.9L572.44 29.9L585.54 57.83L586.91 60.75L587 60.56V53.42Z" fill="url(#paint2_linear_103_17414)"/>
<path d="M0 63.5498H0.08C2.73819 63.5472 5.36175 64.1527 7.75 65.3198C10.1378 66.4825 12.215 68.1963 13.81 70.3198C14.2108 70.8567 14.5782 71.4178 14.91 71.9998C15.08 72.2798 15.23 72.5698 15.39 72.8598C15.55 73.1498 15.69 73.4598 15.81 73.7298L17.39 77.0998L20.25 83.2298L79.25 83.3498L138.88 83.5498L198.51 83.8498C218.383 83.9565 238.26 84.0998 258.14 84.2798C238.26 84.4531 218.383 84.5965 198.51 84.7098L138.83 84.9998L79.2 85.1998L19.57 85.3198H18.91L18.62 84.7098L15.43 77.9998L13.84 74.6398C13.71 74.3498 13.58 74.1098 13.45 73.8498C13.32 73.5898 13.18 73.3398 13.03 73.0898C12.7236 72.5916 12.3898 72.1109 12.03 71.6498C10.6365 69.8035 8.82306 68.3157 6.74 67.3098C4.6627 66.3083 2.38611 65.7888 0.08 65.7898H0V63.5498Z" fill="url(#paint3_linear_103_17414)"/>
<path d="M0 27.4599V20.3499L0.08 20.1699L1.45 23.0899L14.55 50.9999C16.7367 55.6666 18.9133 60.3333 21.08 64.9999L27.23 78.2099L59.76 78.2799L93.15 78.3999L159.93 78.6699L226.71 79.0399C248.97 79.1799 271.23 79.3499 293.49 79.5499C271.23 79.7633 248.97 79.9366 226.71 80.0699L159.93 80.4399L93.15 80.7099L59.76 80.8299L26.37 80.8999H25.52L25.15 80.1299L18.51 66.2099C16.29 61.5699 14.1 56.9199 11.9 52.2699L0.08 27.2799L0 27.4599Z" fill="url(#paint4_linear_103_17414)"/>
<path d="M0 53.42L0.09 53.61L11.91 28.61L15.2 21.61L18.52 14.61L25.16 0.77L25.53 0H26.37L93.16 0.19L126.55 0.3L159.94 0.46L226.72 0.82C248.98 0.966667 271.24 1.14 293.5 1.34C271.24 1.54667 248.98 1.72 226.72 1.86L159.94 2.22L126.55 2.38L93.16 2.49L27.23 2.68L21.08 15.9L17.83 22.9L14.56 29.9L1.46 57.8L0.09 60.72L0 60.53V53.42Z" fill="url(#paint5_linear_103_17414)"/>
<path d="M164.736 27.249C167.424 27.249 169.533 27.804 171.063 28.914C172.617 29.9993 173.394 31.7013 173.394 34.02C173.394 35.426 173.073 36.647 172.432 37.683C171.79 38.719 170.89 39.533 169.731 40.125C168.596 40.717 167.252 41.05 165.698 41.124L165.18 39.274C166.98 39.3233 168.596 39.644 170.027 40.236C171.457 40.828 172.592 41.6543 173.431 42.715C174.269 43.7757 174.689 45.0337 174.689 46.489C174.689 47.821 174.442 48.968 173.949 49.93C173.455 50.8673 172.789 51.6443 171.951 52.261C171.112 52.853 170.162 53.297 169.102 53.593C168.041 53.8643 166.943 54 165.809 54H157.854V27.249H164.736ZM165.476 38.978C166.956 38.978 168.029 38.571 168.695 37.757C169.361 36.9183 169.694 35.907 169.694 34.723C169.694 33.317 169.262 32.2933 168.399 31.652C167.535 31.0107 166.376 30.69 164.921 30.69H161.443V38.978H165.476ZM165.624 50.67C166.61 50.67 167.511 50.522 168.325 50.226C169.163 49.93 169.817 49.4737 170.286 48.857C170.779 48.2403 171.026 47.4633 171.026 46.526C171.026 45.49 170.742 44.676 170.175 44.084C169.632 43.492 168.929 43.0727 168.066 42.826C167.202 42.5547 166.314 42.419 165.402 42.419H161.443V50.67H165.624ZM179.246 40.643C179.246 38.793 179.591 37.054 180.282 35.426C180.997 33.7733 181.984 32.318 183.242 31.06C184.5 29.7773 185.943 28.7783 187.571 28.063C189.223 27.323 190.999 26.953 192.899 26.953C194.773 26.953 196.525 27.323 198.153 28.063C199.805 28.7783 201.261 29.7773 202.519 31.06C203.801 32.318 204.8 33.7733 205.516 35.426C206.231 37.054 206.589 38.793 206.589 40.643C206.589 42.5423 206.231 44.3183 205.516 45.971C204.8 47.6237 203.801 49.079 202.519 50.337C201.261 51.5703 199.805 52.5447 198.153 53.26C196.525 53.9507 194.773 54.296 192.899 54.296C190.999 54.296 189.223 53.9507 187.571 53.26C185.943 52.5693 184.5 51.6073 183.242 50.374C181.984 49.1407 180.997 47.6977 180.282 46.045C179.591 44.3923 179.246 42.5917 179.246 40.643ZM182.946 40.68C182.946 42.086 183.205 43.4057 183.723 44.639C184.241 45.8477 184.956 46.9207 185.869 47.858C186.781 48.7953 187.842 49.5353 189.051 50.078C190.259 50.596 191.567 50.855 192.973 50.855C194.354 50.855 195.649 50.596 196.858 50.078C198.066 49.5353 199.115 48.7953 200.003 47.858C200.891 46.9207 201.594 45.8477 202.112 44.639C202.63 43.4057 202.889 42.0737 202.889 40.643C202.889 39.237 202.63 37.9173 202.112 36.684C201.594 35.426 200.878 34.3283 199.966 33.391C199.053 32.4537 197.992 31.726 196.784 31.208C195.575 30.6653 194.28 30.394 192.899 30.394C191.493 30.394 190.185 30.6653 188.977 31.208C187.768 31.7507 186.707 32.4907 185.795 33.428C184.882 34.3653 184.179 35.463 183.686 36.721C183.192 37.9543 182.946 39.274 182.946 40.68ZM209.739 27.249H227.499V30.69H220.321V54H216.732V30.69H209.739V27.249ZM231.423 27.249H249.183V30.69H242.005V54H238.416V30.69H231.423V27.249ZM252.283 40.643C252.283 38.793 252.628 37.054 253.319 35.426C254.034 33.7733 255.021 32.318 256.279 31.06C257.537 29.7773 258.98 28.7783 260.608 28.063C262.261 27.323 264.037 26.953 265.936 26.953C267.811 26.953 269.562 27.323 271.19 28.063C272.843 28.7783 274.298 29.7773 275.556 31.06C276.839 32.318 277.838 33.7733 278.553 35.426C279.268 37.054 279.626 38.793 279.626 40.643C279.626 42.5423 279.268 44.3183 278.553 45.971C277.838 47.6237 276.839 49.079 275.556 50.337C274.298 51.5703 272.843 52.5447 271.19 53.26C269.562 53.9507 267.811 54.296 265.936 54.296C264.037 54.296 262.261 53.9507 260.608 53.26C258.98 52.5693 257.537 51.6073 256.279 50.374C255.021 49.1407 254.034 47.6977 253.319 46.045C252.628 44.3923 252.283 42.5917 252.283 40.643ZM255.983 40.68C255.983 42.086 256.242 43.4057 256.76 44.639C257.278 45.8477 257.993 46.9207 258.906 47.858C259.819 48.7953 260.879 49.5353 262.088 50.078C263.297 50.596 264.604 50.855 266.01 50.855C267.391 50.855 268.686 50.596 269.895 50.078C271.104 49.5353 272.152 48.7953 273.04 47.858C273.928 46.9207 274.631 45.8477 275.149 44.639C275.667 43.4057 275.926 42.0737 275.926 40.643C275.926 39.237 275.667 37.9173 275.149 36.684C274.631 35.426 273.916 34.3283 273.003 33.391C272.09 32.4537 271.03 31.726 269.821 31.208C268.612 30.6653 267.317 30.394 265.936 30.394C264.53 30.394 263.223 30.6653 262.014 31.208C260.805 31.7507 259.745 32.4907 258.832 33.428C257.919 34.3653 257.216 35.463 256.723 36.721C256.23 37.9543 255.983 39.274 255.983 40.68ZM285.858 54V26.398H285.895L299.918 46.304L298.401 46.008L312.387 26.398H312.461V54H308.909V34.538L309.131 36.351L299.03 50.633H298.956L288.707 36.351L289.336 34.686V54H285.858ZM332.225 27.249H335.814V50.559H349.393V54H332.225V27.249ZM352.762 54L364.454 26.139H364.676L376.331 54H372.224L363.492 31.763L366.045 30.098L356.277 54H352.762ZM359.607 43.862H369.56L370.744 46.97H358.571L359.607 43.862ZM404.717 54.851L384.034 33.872L385.07 34.131L385.144 54H381.555V26.435H381.74L402.201 47.488L401.35 47.303L401.276 27.249H404.828V54.851H404.717ZM412.706 27.249H430.096V30.69H416.295V38.83H428.616V42.271H416.295V50.559H430.614V54H412.706V27.249Z" fill="white"/>
</g>
<path fill-rule="evenodd" clip-rule="evenodd" d="M237.803 114.303L235.376 108.505L230.226 106.47L216.305 102.645C216.408 104.327 216.55 105.845 216.862 107.715C217.027 108.704 217.311 110.256 217.806 112.155C217.389 112.28 216.974 112.407 216.561 112.535C216.584 113.047 216.629 113.803 216.686 114.712C216.874 117.555 216.976 118.993 217.277 119.834C218.011 121.863 219.403 123.068 219.801 123.387C221.12 124.467 222.473 124.87 223.212 125.035C222.513 125.166 222.046 125.439 221.268 126.064C220.813 126.422 220.262 126.905 219.494 127.542C216.459 130.071 215.686 133.379 215.487 134.408C215.288 133.379 214.521 130.071 211.497 127.53C209.41 125.785 208.887 125.217 207.785 125.012C208.518 124.853 209.859 124.455 211.173 123.398C211.184 123.39 211.193 123.383 211.201 123.375C211.599 123.057 212.997 121.858 213.73 119.828C214.037 118.987 214.14 117.549 214.339 114.712C214.401 113.797 214.447 113.047 214.469 112.53C214.056 112.401 213.643 112.272 213.23 112.143C213.725 110.25 214.015 108.704 214.185 107.71C214.498 105.834 214.646 104.316 214.754 102.622L200.77 106.47L195.621 108.505L193.193 114.303C193.5 113.136 193.936 110.633 194.501 106.794L203.163 100.803L201.231 104.447L210.405 99.2912L214.896 100.121C214.97 98.575 215.061 96.7788 215.225 94.4653C215.35 92.6918 215.47 91.2594 215.549 90.4238C215.618 91.2594 215.737 92.6918 215.862 94.4653C216.015 96.7731 216.101 98.5693 216.175 100.11L220.591 99.2912L229.766 104.447L227.833 100.803L236.496 106.794C237.06 110.633 237.496 113.136 237.803 114.303ZM215.504 122.221C214.839 122.221 214.225 122.454 213.747 122.841C213.111 123.352 212.702 124.137 212.702 125.018C212.696 126.564 213.946 127.815 215.493 127.82C216.158 127.82 216.771 127.587 217.249 127.201C217.886 126.689 218.295 125.905 218.295 125.024C218.301 123.478 217.05 122.227 215.504 122.221ZM228.708 124.444H232.062V125.598H228.686C228.265 132.305 222.819 137.671 216.078 137.967V141.582H214.918V137.967C208.177 137.671 202.731 132.305 202.311 125.598H198.934V124.444H202.288C202.425 118.907 205.971 114.212 210.9 112.376L210.576 113.615L211.883 114.025C207.495 115.503 204.306 119.595 204.17 124.444H205.028V125.598H204.198C204.613 131.271 209.217 135.795 214.918 136.085V135.488H216.078V136.085C221.779 135.795 226.383 131.271 226.798 125.598H225.969V124.444H226.827C226.69 119.607 223.513 115.525 219.147 114.036L220.455 113.632L220.131 112.388C225.042 114.235 228.572 118.924 228.708 124.444Z" fill="url(#paint6_linear_103_17414)"/>
<path d="M250.1 122.5V103.85H250.125L259.6 117.3L258.575 117.1L268.025 103.85H268.075V122.5H265.675V109.35L265.825 110.575L259 120.225H258.95L252.025 110.575L252.45 109.45V122.5H250.1ZM271.469 122.5L279.369 103.675H279.519L287.394 122.5H284.619L278.719 107.475L280.444 106.35L273.844 122.5H271.469ZM276.094 115.65H282.819L283.619 117.75H275.394L276.094 115.65ZM295.598 104.425C296.515 104.425 297.357 104.55 298.123 104.8C298.907 105.033 299.582 105.392 300.148 105.875C300.732 106.342 301.182 106.925 301.498 107.625C301.832 108.308 301.998 109.108 301.998 110.025C301.998 110.742 301.89 111.442 301.673 112.125C301.473 112.808 301.132 113.433 300.648 114C300.165 114.55 299.532 115 298.748 115.35C297.982 115.683 297.032 115.85 295.898 115.85H293.223V122.5H290.798V104.425H295.598ZM295.848 113.525C296.565 113.525 297.157 113.417 297.623 113.2C298.107 112.983 298.482 112.708 298.748 112.375C299.015 112.025 299.207 111.65 299.323 111.25C299.44 110.85 299.498 110.475 299.498 110.125C299.498 109.758 299.432 109.383 299.298 109C299.182 108.6 298.982 108.233 298.698 107.9C298.432 107.567 298.073 107.292 297.623 107.075C297.19 106.858 296.657 106.75 296.023 106.75H293.223V113.525H295.848ZM298.823 114.9L303.548 122.5H300.748L295.948 114.975L298.823 114.9ZM309.728 111.7L309.653 112.6L309.978 112.15L317.378 104.425H320.503L313.028 112.175L320.928 122.5H317.853L311.253 113.725L309.728 115.2V122.5H307.278V104.425H309.728V111.7ZM333.596 107.65C332.979 107.333 332.304 107.058 331.571 106.825C330.837 106.592 330.121 106.475 329.421 106.475C328.454 106.475 327.679 106.7 327.096 107.15C326.529 107.6 326.246 108.2 326.246 108.95C326.246 109.517 326.429 110 326.796 110.4C327.162 110.783 327.646 111.117 328.246 111.4C328.846 111.683 329.471 111.95 330.121 112.2C330.687 112.417 331.246 112.658 331.796 112.925C332.346 113.192 332.837 113.525 333.271 113.925C333.721 114.325 334.071 114.817 334.321 115.4C334.587 115.983 334.721 116.708 334.721 117.575C334.721 118.525 334.479 119.392 333.996 120.175C333.529 120.958 332.854 121.575 331.971 122.025C331.087 122.475 330.037 122.7 328.821 122.7C328.021 122.7 327.254 122.608 326.521 122.425C325.804 122.242 325.137 122.008 324.521 121.725C323.904 121.425 323.354 121.117 322.871 120.8L323.946 118.9C324.346 119.183 324.804 119.458 325.321 119.725C325.837 119.975 326.379 120.183 326.946 120.35C327.512 120.5 328.062 120.575 328.596 120.575C329.162 120.575 329.721 120.475 330.271 120.275C330.837 120.058 331.304 119.733 331.671 119.3C332.037 118.867 332.221 118.292 332.221 117.575C332.221 116.958 332.054 116.45 331.721 116.05C331.404 115.633 330.979 115.283 330.446 115C329.912 114.7 329.346 114.433 328.746 114.2C328.179 113.983 327.604 113.75 327.021 113.5C326.437 113.233 325.896 112.917 325.396 112.55C324.896 112.167 324.496 111.7 324.196 111.15C323.896 110.6 323.746 109.933 323.746 109.15C323.746 108.2 323.971 107.375 324.421 106.675C324.887 105.958 325.521 105.4 326.321 105C327.121 104.583 328.037 104.358 329.071 104.325C330.237 104.325 331.262 104.467 332.146 104.75C333.046 105.033 333.837 105.383 334.521 105.8L333.596 107.65ZM338.796 122.5V103.85H338.821L348.296 117.3L347.271 117.1L356.721 103.85H356.771V122.5H354.371V109.35L354.521 110.575L347.696 120.225H347.646L340.721 110.575L341.146 109.45V122.5H338.796ZM360.165 122.5L368.065 103.675H368.215L376.09 122.5H373.315L367.415 107.475L369.14 106.35L362.54 122.5H360.165ZM364.79 115.65H371.515L372.315 117.75H364.09L364.79 115.65ZM395.145 123.075L381.17 108.9L381.87 109.075L381.92 122.5H379.495V103.875H379.62L393.445 118.1L392.87 117.975L392.82 104.425H395.22V123.075H395.145Z" fill="#F1E3B5"/>
<defs>
<linearGradient id="paint0_linear_103_17414" x1="328.91" y1="74.4398" x2="587" y2="74.4398" gradientUnits="userSpaceOnUse">
<stop stop-color="#663500"/>
<stop offset="0.26" stop-color="#B28A4C"/>
<stop offset="0.39" stop-color="#D0AD6A"/>
<stop offset="0.42" stop-color="#DABB7F"/>
<stop offset="0.47" stop-color="#E9D19F"/>
<stop offset="0.53" stop-color="#F4E0B6"/>
<stop offset="0.58" stop-color="#FBEAC4"/>
<stop offset="0.62" stop-color="#FDEDC9"/>
<stop offset="0.72" stop-color="#FCEBC6"/>
<stop offset="0.79" stop-color="#F7E4BC"/>
<stop offset="0.86" stop-color="#EFD9AC"/>
<stop offset="0.92" stop-color="#E4CA95"/>
<stop offset="0.98" stop-color="#D6B678"/>
<stop offset="1" stop-color="#D0AD6A"/>
</linearGradient>
<linearGradient id="paint1_linear_103_17414" x1="293.51" y1="50.5399" x2="0.999759" y2="50.5399" gradientUnits="userSpaceOnUse">
<stop stop-color="#663500"/>
<stop offset="0.26" stop-color="#B28A4C"/>
<stop offset="0.39" stop-color="#D0AD6A"/>
<stop offset="0.42" stop-color="#DABB7F"/>
<stop offset="0.47" stop-color="#E9D19F"/>
<stop offset="0.53" stop-color="#F4E0B6"/>
<stop offset="0.58" stop-color="#FBEAC4"/>
<stop offset="0.62" stop-color="#FDEDC9"/>
<stop offset="0.72" stop-color="#FCEBC6"/>
<stop offset="0.79" stop-color="#F7E4BC"/>
<stop offset="0.86" stop-color="#EFD9AC"/>
<stop offset="0.92" stop-color="#E4CA95"/>
<stop offset="0.98" stop-color="#D6B678"/>
<stop offset="1" stop-color="#D0AD6A"/>
</linearGradient>
<linearGradient id="paint2_linear_103_17414" x1="265.73" y1="30.36" x2="843.39" y2="30.36" gradientUnits="userSpaceOnUse">
<stop stop-color="#663500"/>
<stop offset="0.26" stop-color="#B28A4C"/>
<stop offset="0.39" stop-color="#D0AD6A"/>
<stop offset="0.42" stop-color="#DABB7F"/>
<stop offset="0.47" stop-color="#E9D19F"/>
<stop offset="0.53" stop-color="#F4E0B6"/>
<stop offset="0.58" stop-color="#FBEAC4"/>
<stop offset="0.62" stop-color="#FDEDC9"/>
<stop offset="0.72" stop-color="#FCEBC6"/>
<stop offset="0.79" stop-color="#F7E4BC"/>
<stop offset="0.86" stop-color="#EFD9AC"/>
<stop offset="0.92" stop-color="#E4CA95"/>
<stop offset="0.98" stop-color="#D6B678"/>
<stop offset="1" stop-color="#D0AD6A"/>
</linearGradient>
<linearGradient id="paint3_linear_103_17414" x1="258.09" y1="74.4398" x2="0" y2="74.4398" gradientUnits="userSpaceOnUse">
<stop stop-color="#663500"/>
<stop offset="0.26" stop-color="#B28A4C"/>
<stop offset="0.39" stop-color="#D0AD6A"/>
<stop offset="0.42" stop-color="#DABB7F"/>
<stop offset="0.47" stop-color="#E9D19F"/>
<stop offset="0.53" stop-color="#F4E0B6"/>
<stop offset="0.58" stop-color="#FBEAC4"/>
<stop offset="0.62" stop-color="#FDEDC9"/>
<stop offset="0.72" stop-color="#FCEBC6"/>
<stop offset="0.79" stop-color="#F7E4BC"/>
<stop offset="0.86" stop-color="#EFD9AC"/>
<stop offset="0.92" stop-color="#E4CA95"/>
<stop offset="0.98" stop-color="#D6B678"/>
<stop offset="1" stop-color="#D0AD6A"/>
</linearGradient>
<linearGradient id="paint4_linear_103_17414" x1="293.5" y1="50.5399" x2="0" y2="50.5399" gradientUnits="userSpaceOnUse">
<stop stop-color="#663500"/>
<stop offset="0.26" stop-color="#B28A4C"/>
<stop offset="0.39" stop-color="#D0AD6A"/>
<stop offset="0.42" stop-color="#DABB7F"/>
<stop offset="0.47" stop-color="#E9D19F"/>
<stop offset="0.53" stop-color="#F4E0B6"/>
<stop offset="0.58" stop-color="#FBEAC4"/>
<stop offset="0.62" stop-color="#FDEDC9"/>
<stop offset="0.72" stop-color="#FCEBC6"/>
<stop offset="0.79" stop-color="#F7E4BC"/>
<stop offset="0.86" stop-color="#EFD9AC"/>
<stop offset="0.92" stop-color="#E4CA95"/>
<stop offset="0.98" stop-color="#D6B678"/>
<stop offset="1" stop-color="#D0AD6A"/>
</linearGradient>
<linearGradient id="paint5_linear_103_17414" x1="321.27" y1="30.36" x2="-256.39" y2="30.36" gradientUnits="userSpaceOnUse">
<stop stop-color="#663500"/>
<stop offset="0.26" stop-color="#B28A4C"/>
<stop offset="0.39" stop-color="#D0AD6A"/>
<stop offset="0.42" stop-color="#DABB7F"/>
<stop offset="0.47" stop-color="#E9D19F"/>
<stop offset="0.53" stop-color="#F4E0B6"/>
<stop offset="0.58" stop-color="#FBEAC4"/>
<stop offset="0.62" stop-color="#FDEDC9"/>
<stop offset="0.72" stop-color="#FCEBC6"/>
<stop offset="0.79" stop-color="#F7E4BC"/>
<stop offset="0.86" stop-color="#EFD9AC"/>
<stop offset="0.92" stop-color="#E4CA95"/>
<stop offset="0.98" stop-color="#D6B678"/>
<stop offset="1" stop-color="#D0AD6A"/>
</linearGradient>
<linearGradient id="paint6_linear_103_17414" x1="215.498" y1="90.4238" x2="215.498" y2="141.582" gradientUnits="userSpaceOnUse">
<stop offset="0.213542" stop-color="#EFD99F"/>
<stop offset="0.770833" stop-color="#D9AE5F"/>
<stop offset="1" stop-color="#BB9A45"/>
</linearGradient>
<clipPath id="clip0_103_17414">
<rect width="587" height="86" fill="white"/>
</clipPath>
</defs>
</svg>
