<svg width="587" height="143" viewBox="0 0 587 143" fill="none" xmlns="http://www.w3.org/2000/svg">
<g clip-path="url(#clip0_103_17384)">
<path d="M587 63.5498H586.92C584.262 63.5472 581.638 64.1527 579.25 65.3198C576.862 66.4825 574.785 68.1963 573.19 70.3198C572.79 70.847 572.423 71.398 572.09 71.9698C571.92 72.2498 571.77 72.5398 571.61 72.8298C571.45 73.1198 571.31 73.4298 571.19 73.6998L569.61 77.0698L566.75 83.1998L507.8 83.3198L448.17 83.5198L388.54 83.8198C368.667 83.9265 348.79 84.0698 328.91 84.2498C348.79 84.4231 368.667 84.5665 388.54 84.6798L448.17 84.9698L507.8 85.1798L567.43 85.2998H568.09L568.38 84.6898L571.57 77.9998L573.16 74.6398C573.29 74.3498 573.42 74.1098 573.55 73.8498C573.68 73.5898 573.82 73.3398 573.97 73.0898C574.276 72.5916 574.61 72.1109 574.97 71.6498C576.364 69.8035 578.177 68.3157 580.26 67.3098C582.346 66.3005 584.633 65.7774 586.95 65.7798H587V63.5498Z" fill="url(#paint0_linear_103_17384)"/>
<path d="M587 27.4599V20.3499L586.92 20.1699L585.55 23.0899L572.45 50.9999C570.256 55.6666 568.08 60.3333 565.92 64.9999L559.77 78.2099L527.24 78.2799L493.85 78.3999L427.07 78.6699L360.29 78.9999C338.03 79.1399 315.77 79.3099 293.51 79.5099C315.77 79.7233 338.03 79.8966 360.29 80.0299L427.07 80.3999L493.85 80.6699L527.24 80.7899L560.63 80.8599H561.48L561.85 80.0899L568.49 66.1699C570.71 61.5299 572.9 56.8799 575.1 52.2299L586.92 27.2299L587 27.4599Z" fill="url(#paint1_linear_103_17384)"/>
<path d="M587 53.42L586.91 53.61L575.09 28.61L571.8 21.61L568.48 14.61L561.84 0.77L561.47 0H560.63L493.84 0.19L460.45 0.3L427.06 0.46L360.28 0.82C338.02 0.966667 315.76 1.14 293.5 1.34C315.76 1.54667 338.02 1.72 360.28 1.86L427.06 2.22L460.45 2.38L493.84 2.49L559.77 2.68L565.92 15.9L569.17 22.9L572.44 29.9L585.54 57.83L586.91 60.75L587 60.56V53.42Z" fill="url(#paint2_linear_103_17384)"/>
<path d="M0 63.5498H0.08C2.73819 63.5472 5.36175 64.1527 7.75 65.3198C10.1378 66.4825 12.215 68.1963 13.81 70.3198C14.2108 70.8567 14.5782 71.4178 14.91 71.9998C15.08 72.2798 15.23 72.5698 15.39 72.8598C15.55 73.1498 15.69 73.4598 15.81 73.7298L17.39 77.0998L20.25 83.2298L79.25 83.3498L138.88 83.5498L198.51 83.8498C218.383 83.9565 238.26 84.0998 258.14 84.2798C238.26 84.4531 218.383 84.5965 198.51 84.7098L138.83 84.9998L79.2 85.1998L19.57 85.3198H18.91L18.62 84.7098L15.43 77.9998L13.84 74.6398C13.71 74.3498 13.58 74.1098 13.45 73.8498C13.32 73.5898 13.18 73.3398 13.03 73.0898C12.7236 72.5916 12.3898 72.1109 12.03 71.6498C10.6365 69.8035 8.82306 68.3157 6.74 67.3098C4.6627 66.3083 2.38611 65.7888 0.08 65.7898H0V63.5498Z" fill="url(#paint3_linear_103_17384)"/>
<path d="M0 27.4599V20.3499L0.08 20.1699L1.45 23.0899L14.55 50.9999C16.7367 55.6666 18.9133 60.3333 21.08 64.9999L27.23 78.2099L59.76 78.2799L93.15 78.3999L159.93 78.6699L226.71 79.0399C248.97 79.1799 271.23 79.3499 293.49 79.5499C271.23 79.7633 248.97 79.9366 226.71 80.0699L159.93 80.4399L93.15 80.7099L59.76 80.8299L26.37 80.8999H25.52L25.15 80.1299L18.51 66.2099C16.29 61.5699 14.1 56.9199 11.9 52.2699L0.08 27.2799L0 27.4599Z" fill="url(#paint4_linear_103_17384)"/>
<path d="M0 53.42L0.09 53.61L11.91 28.61L15.2 21.61L18.52 14.61L25.16 0.77L25.53 0H26.37L93.16 0.19L126.55 0.3L159.94 0.46L226.72 0.82C248.98 0.966667 271.24 1.14 293.5 1.34C271.24 1.54667 248.98 1.72 226.72 1.86L159.94 2.22L126.55 2.38L93.16 2.49L27.23 2.68L21.08 15.9L17.83 22.9L14.56 29.9L1.46 57.8L0.09 60.72L0 60.53V53.42Z" fill="url(#paint5_linear_103_17384)"/>
<path d="M202.105 54V26.398H202.142L216.165 46.304L214.648 46.008L228.634 26.398H228.708V54H225.156V34.538L225.378 36.351L215.277 50.633H215.203L204.954 36.351L205.583 34.686V54H202.105ZM236.58 27.249H240.169V54H236.58V27.249ZM248.038 54V27.249H255.327C257.967 27.249 260.211 27.656 262.061 28.47C263.936 29.284 265.441 30.357 266.575 31.689C267.71 33.021 268.536 34.501 269.054 36.129C269.597 37.7323 269.868 39.3357 269.868 40.939C269.868 42.9617 269.511 44.7747 268.795 46.378C268.105 47.9813 267.143 49.3503 265.909 50.485C264.676 51.6197 263.258 52.4953 261.654 53.112C260.076 53.704 258.398 54 256.622 54H248.038ZM251.627 50.559H255.919C257.399 50.559 258.756 50.337 259.989 49.893C261.247 49.449 262.333 48.8077 263.245 47.969C264.183 47.1303 264.91 46.1067 265.428 44.898C265.946 43.6647 266.205 42.271 266.205 40.717C266.205 39.0643 265.934 37.6213 265.391 36.388C264.849 35.13 264.109 34.0817 263.171 33.243C262.234 32.4043 261.173 31.7753 259.989 31.356C258.805 30.912 257.56 30.69 256.252 30.69H251.627V50.559ZM287.974 27.249H291.563V50.559H305.142V54H287.974V27.249ZM308.511 54L320.203 26.139H320.425L332.08 54H327.973L319.241 31.763L321.794 30.098L312.026 54H308.511ZM315.356 43.862H325.309L326.493 46.97H314.32L315.356 43.862ZM360.466 54.851L339.783 33.872L340.819 34.131L340.893 54H337.304V26.435H337.489L357.95 47.488L357.099 47.303L357.025 27.249H360.577V54.851H360.466ZM368.455 27.249H385.845V30.69H372.044V38.83H384.365V42.271H372.044V50.559H386.363V54H368.455V27.249Z" fill="white"/>
</g>
<path d="M269.055 120.755C268.831 121.729 268.338 122.678 267.577 123.603C267.776 121.386 266.616 120.147 266.309 118.549C266.101 117.484 266.576 116.314 267.736 115.036C266.934 116.696 269.396 119.294 269.055 120.755ZM243.709 106.323C245.192 103.122 247.187 100.945 248.574 99.6664C247.688 100.445 247.329 101.542 247.659 102.406C247.835 102.872 248.171 103.174 248.415 103.338C248.824 102.992 250.666 101.349 250.871 98.6546C250.984 97.1312 250.53 95.9375 250.24 95.3293C249.995 95.6533 249.62 96.0796 249.08 96.4832C248.563 96.864 248.068 97.0971 247.699 97.2392C248.813 96.324 249.245 95.4316 249.433 94.7779C249.796 93.4876 249.399 92.4588 250.149 91.356C250.467 90.8842 250.865 90.5944 251.144 90.4238C250.899 91.14 250.643 92.2087 250.797 93.4592C250.933 94.5562 251.32 95.2838 251.507 95.7215C252.525 98.052 251.746 100.769 251.36 102.111C250.376 105.532 248.188 105.999 245.539 109.46C244.26 111.131 242.697 113.803 241.901 117.935C241.651 115.861 241.401 111.296 243.709 106.323ZM253.451 128.417C253.593 128.44 254.429 128.571 254.929 129.31C255.378 129.975 255.339 130.804 255.077 131.339C254.486 132.532 252.525 132.692 251.49 132.601C248.37 132.322 245.738 129.065 244.857 125.939C244.101 123.239 244.732 120.954 245.306 118.862C245.687 117.481 246.596 114.741 249.41 110.95C251.257 108.46 254.56 104.657 259.96 101.207C256.623 104.254 256.208 106.306 256.441 107.613C256.725 109.199 258.004 109.966 258.169 111.99C258.306 113.621 257.629 115.002 257.089 115.861C257.652 115.457 258.743 114.548 259.42 112.99C260.5 110.506 259.721 108.221 259.522 107.681C260.244 108.301 261.296 109.352 262.131 110.91C263.944 114.298 263.416 117.572 263.245 118.561C263.001 119.942 262.273 124.046 259.431 125.331C259.272 125.404 259.357 125.353 255.185 126.143C253.241 126.513 252.178 126.729 251.502 127.644C251.382 127.798 250.854 128.519 251.058 129.31C251.303 130.264 252.525 130.998 253.377 130.662C253.724 130.532 254.122 130.185 254.179 129.679C254.23 129.184 253.946 128.684 253.451 128.417ZM241.094 121.136C241.026 121.534 239.991 128.468 245.09 132.828C249.455 136.568 256.345 136.727 260.744 132.964C265.303 129.059 264.803 122.96 264.74 122.335C265.007 122.818 265.371 123.58 265.599 124.569C266.303 127.593 265.098 129.935 265.78 130.321C266.013 130.452 266.508 130.372 267.679 129.264C267.457 130.316 266.951 131.97 265.701 133.573C264.627 134.96 263.478 135.687 261.864 136.693C260.642 137.455 258.874 138.416 256.578 139.217L259.096 136.995C256.475 138.313 254.344 138.512 252.752 138.37C250.609 138.177 248.864 137.313 248.495 137.87C248.211 138.296 248.938 139.297 249.717 140.189C250.846 140.651 251.973 141.112 253.099 141.57C252.064 141.61 250.314 141.548 248.358 140.763C246.136 139.876 244.811 138.535 244.038 137.739C243.544 137.228 241.588 135.136 240.543 131.708C240.128 130.327 239.974 129.133 239.917 128.286C239.843 127.542 239.758 126.388 239.775 124.95C239.792 124.012 239.838 123.534 239.605 123.426C239.605 123.426 239.212 123.25 236.916 125.944L241.02 119.322L241.094 121.136Z" fill="url(#paint6_linear_103_17384)"/>
<path d="M287.6 122.5V103.85H287.625L297.1 117.3L296.075 117.1L305.525 103.85H305.575V122.5H303.175V109.35L303.325 110.575L296.5 120.225H296.45L289.525 110.575L289.95 109.45V122.5H287.6ZM308.969 122.5L316.869 103.675H317.019L324.894 122.5H322.119L316.219 107.475L317.944 106.35L311.344 122.5H308.969ZM313.594 115.65H320.319L321.119 117.75H312.894L313.594 115.65ZM341.765 120.95C341.515 121.167 341.165 121.383 340.715 121.6C340.265 121.8 339.765 121.983 339.215 122.15C338.681 122.317 338.123 122.45 337.54 122.55C336.973 122.65 336.44 122.7 335.94 122.7C334.49 122.7 333.181 122.475 332.015 122.025C330.865 121.575 329.873 120.95 329.04 120.15C328.223 119.35 327.59 118.408 327.14 117.325C326.706 116.242 326.49 115.067 326.49 113.8C326.49 112.3 326.731 110.958 327.215 109.775C327.715 108.575 328.39 107.567 329.24 106.75C330.106 105.917 331.098 105.292 332.215 104.875C333.331 104.442 334.515 104.225 335.765 104.225C336.815 104.225 337.79 104.35 338.69 104.6C339.59 104.85 340.381 105.167 341.065 105.55L340.24 107.775C339.906 107.575 339.49 107.392 338.99 107.225C338.506 107.058 338.006 106.925 337.49 106.825C336.973 106.708 336.49 106.65 336.04 106.65C334.973 106.65 334.006 106.817 333.14 107.15C332.273 107.467 331.531 107.933 330.915 108.55C330.298 109.15 329.823 109.883 329.49 110.75C329.156 111.6 328.99 112.558 328.99 113.625C328.99 114.608 329.156 115.508 329.49 116.325C329.823 117.142 330.298 117.85 330.915 118.45C331.531 119.033 332.265 119.492 333.115 119.825C333.981 120.142 334.931 120.3 335.965 120.3C336.581 120.3 337.19 120.242 337.79 120.125C338.39 119.992 338.906 119.808 339.34 119.575V115.975H335.74V113.65H341.765V120.95ZM346.389 104.425H358.139V106.75H348.814V112.25H357.139V114.575H348.814V120.175H358.489V122.5H346.389V104.425Z" fill="#F1E3B5"/>
<defs>
<linearGradient id="paint0_linear_103_17384" x1="328.91" y1="74.4398" x2="587" y2="74.4398" gradientUnits="userSpaceOnUse">
<stop stop-color="#663500"/>
<stop offset="0.26" stop-color="#B28A4C"/>
<stop offset="0.39" stop-color="#D0AD6A"/>
<stop offset="0.42" stop-color="#DABB7F"/>
<stop offset="0.47" stop-color="#E9D19F"/>
<stop offset="0.53" stop-color="#F4E0B6"/>
<stop offset="0.58" stop-color="#FBEAC4"/>
<stop offset="0.62" stop-color="#FDEDC9"/>
<stop offset="0.72" stop-color="#FCEBC6"/>
<stop offset="0.79" stop-color="#F7E4BC"/>
<stop offset="0.86" stop-color="#EFD9AC"/>
<stop offset="0.92" stop-color="#E4CA95"/>
<stop offset="0.98" stop-color="#D6B678"/>
<stop offset="1" stop-color="#D0AD6A"/>
</linearGradient>
<linearGradient id="paint1_linear_103_17384" x1="293.51" y1="50.5399" x2="0.999759" y2="50.5399" gradientUnits="userSpaceOnUse">
<stop stop-color="#663500"/>
<stop offset="0.26" stop-color="#B28A4C"/>
<stop offset="0.39" stop-color="#D0AD6A"/>
<stop offset="0.42" stop-color="#DABB7F"/>
<stop offset="0.47" stop-color="#E9D19F"/>
<stop offset="0.53" stop-color="#F4E0B6"/>
<stop offset="0.58" stop-color="#FBEAC4"/>
<stop offset="0.62" stop-color="#FDEDC9"/>
<stop offset="0.72" stop-color="#FCEBC6"/>
<stop offset="0.79" stop-color="#F7E4BC"/>
<stop offset="0.86" stop-color="#EFD9AC"/>
<stop offset="0.92" stop-color="#E4CA95"/>
<stop offset="0.98" stop-color="#D6B678"/>
<stop offset="1" stop-color="#D0AD6A"/>
</linearGradient>
<linearGradient id="paint2_linear_103_17384" x1="265.73" y1="30.36" x2="843.39" y2="30.36" gradientUnits="userSpaceOnUse">
<stop stop-color="#663500"/>
<stop offset="0.26" stop-color="#B28A4C"/>
<stop offset="0.39" stop-color="#D0AD6A"/>
<stop offset="0.42" stop-color="#DABB7F"/>
<stop offset="0.47" stop-color="#E9D19F"/>
<stop offset="0.53" stop-color="#F4E0B6"/>
<stop offset="0.58" stop-color="#FBEAC4"/>
<stop offset="0.62" stop-color="#FDEDC9"/>
<stop offset="0.72" stop-color="#FCEBC6"/>
<stop offset="0.79" stop-color="#F7E4BC"/>
<stop offset="0.86" stop-color="#EFD9AC"/>
<stop offset="0.92" stop-color="#E4CA95"/>
<stop offset="0.98" stop-color="#D6B678"/>
<stop offset="1" stop-color="#D0AD6A"/>
</linearGradient>
<linearGradient id="paint3_linear_103_17384" x1="258.09" y1="74.4398" x2="0" y2="74.4398" gradientUnits="userSpaceOnUse">
<stop stop-color="#663500"/>
<stop offset="0.26" stop-color="#B28A4C"/>
<stop offset="0.39" stop-color="#D0AD6A"/>
<stop offset="0.42" stop-color="#DABB7F"/>
<stop offset="0.47" stop-color="#E9D19F"/>
<stop offset="0.53" stop-color="#F4E0B6"/>
<stop offset="0.58" stop-color="#FBEAC4"/>
<stop offset="0.62" stop-color="#FDEDC9"/>
<stop offset="0.72" stop-color="#FCEBC6"/>
<stop offset="0.79" stop-color="#F7E4BC"/>
<stop offset="0.86" stop-color="#EFD9AC"/>
<stop offset="0.92" stop-color="#E4CA95"/>
<stop offset="0.98" stop-color="#D6B678"/>
<stop offset="1" stop-color="#D0AD6A"/>
</linearGradient>
<linearGradient id="paint4_linear_103_17384" x1="293.5" y1="50.5399" x2="0" y2="50.5399" gradientUnits="userSpaceOnUse">
<stop stop-color="#663500"/>
<stop offset="0.26" stop-color="#B28A4C"/>
<stop offset="0.39" stop-color="#D0AD6A"/>
<stop offset="0.42" stop-color="#DABB7F"/>
<stop offset="0.47" stop-color="#E9D19F"/>
<stop offset="0.53" stop-color="#F4E0B6"/>
<stop offset="0.58" stop-color="#FBEAC4"/>
<stop offset="0.62" stop-color="#FDEDC9"/>
<stop offset="0.72" stop-color="#FCEBC6"/>
<stop offset="0.79" stop-color="#F7E4BC"/>
<stop offset="0.86" stop-color="#EFD9AC"/>
<stop offset="0.92" stop-color="#E4CA95"/>
<stop offset="0.98" stop-color="#D6B678"/>
<stop offset="1" stop-color="#D0AD6A"/>
</linearGradient>
<linearGradient id="paint5_linear_103_17384" x1="321.27" y1="30.36" x2="-256.39" y2="30.36" gradientUnits="userSpaceOnUse">
<stop stop-color="#663500"/>
<stop offset="0.26" stop-color="#B28A4C"/>
<stop offset="0.39" stop-color="#D0AD6A"/>
<stop offset="0.42" stop-color="#DABB7F"/>
<stop offset="0.47" stop-color="#E9D19F"/>
<stop offset="0.53" stop-color="#F4E0B6"/>
<stop offset="0.58" stop-color="#FBEAC4"/>
<stop offset="0.62" stop-color="#FDEDC9"/>
<stop offset="0.72" stop-color="#FCEBC6"/>
<stop offset="0.79" stop-color="#F7E4BC"/>
<stop offset="0.86" stop-color="#EFD9AC"/>
<stop offset="0.92" stop-color="#E4CA95"/>
<stop offset="0.98" stop-color="#D6B678"/>
<stop offset="1" stop-color="#D0AD6A"/>
</linearGradient>
<linearGradient id="paint6_linear_103_17384" x1="253.002" y1="90.4238" x2="253.002" y2="141.579" gradientUnits="userSpaceOnUse">
<stop offset="0.213542" stop-color="#EFD99F"/>
<stop offset="0.770833" stop-color="#D9AE5F"/>
<stop offset="1" stop-color="#BB9A45"/>
</linearGradient>
<clipPath id="clip0_103_17384">
<rect width="587" height="86" fill="white"/>
</clipPath>
</defs>
</svg>
