<svg width="587" height="143" viewBox="0 0 587 143" fill="none" xmlns="http://www.w3.org/2000/svg">
<g clip-path="url(#clip0_103_17474)">
<path d="M587 63.5498H586.92C584.262 63.5472 581.638 64.1527 579.25 65.3198C576.862 66.4825 574.785 68.1963 573.19 70.3198C572.79 70.847 572.423 71.398 572.09 71.9698C571.92 72.2498 571.77 72.5398 571.61 72.8298C571.45 73.1198 571.31 73.4298 571.19 73.6998L569.61 77.0698L566.75 83.1998L507.8 83.3198L448.17 83.5198L388.54 83.8198C368.667 83.9265 348.79 84.0698 328.91 84.2498C348.79 84.4231 368.667 84.5665 388.54 84.6798L448.17 84.9698L507.8 85.1798L567.43 85.2998H568.09L568.38 84.6898L571.57 77.9998L573.16 74.6398C573.29 74.3498 573.42 74.1098 573.55 73.8498C573.68 73.5898 573.82 73.3398 573.97 73.0898C574.276 72.5916 574.61 72.1109 574.97 71.6498C576.364 69.8035 578.177 68.3157 580.26 67.3098C582.346 66.3005 584.633 65.7774 586.95 65.7798H587V63.5498Z" fill="url(#paint0_linear_103_17474)"/>
<path d="M587 27.4599V20.3499L586.92 20.1699L585.55 23.0899L572.45 50.9999C570.256 55.6666 568.08 60.3333 565.92 64.9999L559.77 78.2099L527.24 78.2799L493.85 78.3999L427.07 78.6699L360.29 78.9999C338.03 79.1399 315.77 79.3099 293.51 79.5099C315.77 79.7233 338.03 79.8966 360.29 80.0299L427.07 80.3999L493.85 80.6699L527.24 80.7899L560.63 80.8599H561.48L561.85 80.0899L568.49 66.1699C570.71 61.5299 572.9 56.8799 575.1 52.2299L586.92 27.2299L587 27.4599Z" fill="url(#paint1_linear_103_17474)"/>
<path d="M587 53.42L586.91 53.61L575.09 28.61L571.8 21.61L568.48 14.61L561.84 0.77L561.47 0H560.63L493.84 0.19L460.45 0.3L427.06 0.46L360.28 0.82C338.02 0.966667 315.76 1.14 293.5 1.34C315.76 1.54667 338.02 1.72 360.28 1.86L427.06 2.22L460.45 2.38L493.84 2.49L559.77 2.68L565.92 15.9L569.17 22.9L572.44 29.9L585.54 57.83L586.91 60.75L587 60.56V53.42Z" fill="url(#paint2_linear_103_17474)"/>
<path d="M0 63.5498H0.08C2.73819 63.5472 5.36175 64.1527 7.75 65.3198C10.1378 66.4825 12.215 68.1963 13.81 70.3198C14.2108 70.8567 14.5782 71.4178 14.91 71.9998C15.08 72.2798 15.23 72.5698 15.39 72.8598C15.55 73.1498 15.69 73.4598 15.81 73.7298L17.39 77.0998L20.25 83.2298L79.25 83.3498L138.88 83.5498L198.51 83.8498C218.383 83.9565 238.26 84.0998 258.14 84.2798C238.26 84.4531 218.383 84.5965 198.51 84.7098L138.83 84.9998L79.2 85.1998L19.57 85.3198H18.91L18.62 84.7098L15.43 77.9998L13.84 74.6398C13.71 74.3498 13.58 74.1098 13.45 73.8498C13.32 73.5898 13.18 73.3398 13.03 73.0898C12.7236 72.5916 12.3898 72.1109 12.03 71.6498C10.6365 69.8035 8.82306 68.3157 6.74 67.3098C4.6627 66.3083 2.38611 65.7888 0.08 65.7898H0V63.5498Z" fill="url(#paint3_linear_103_17474)"/>
<path d="M0 27.4599V20.3499L0.08 20.1699L1.45 23.0899L14.55 50.9999C16.7367 55.6666 18.9133 60.3333 21.08 64.9999L27.23 78.2099L59.76 78.2799L93.15 78.3999L159.93 78.6699L226.71 79.0399C248.97 79.1799 271.23 79.3499 293.49 79.5499C271.23 79.7633 248.97 79.9366 226.71 80.0699L159.93 80.4399L93.15 80.7099L59.76 80.8299L26.37 80.8999H25.52L25.15 80.1299L18.51 66.2099C16.29 61.5699 14.1 56.9199 11.9 52.2699L0.08 27.2799L0 27.4599Z" fill="url(#paint4_linear_103_17474)"/>
<path d="M0 53.42L0.09 53.61L11.91 28.61L15.2 21.61L18.52 14.61L25.16 0.77L25.53 0H26.37L93.16 0.19L126.55 0.3L159.94 0.46L226.72 0.82C248.98 0.966667 271.24 1.14 293.5 1.34C271.24 1.54667 248.98 1.72 226.72 1.86L159.94 2.22L126.55 2.38L93.16 2.49L27.23 2.68L21.08 15.9L17.83 22.9L14.56 29.9L1.46 57.8L0.09 60.72L0 60.53V53.42Z" fill="url(#paint5_linear_103_17474)"/>
<path d="M225.701 32.022C224.788 31.5533 223.789 31.1463 222.704 30.801C221.618 30.4557 220.558 30.283 219.522 30.283C218.091 30.283 216.944 30.616 216.081 31.282C215.242 31.948 214.823 32.836 214.823 33.946C214.823 34.7847 215.094 35.5 215.637 36.092C216.179 36.6593 216.895 37.1527 217.783 37.572C218.671 37.9913 219.596 38.386 220.558 38.756C221.396 39.0767 222.223 39.4343 223.037 39.829C223.851 40.2237 224.578 40.717 225.22 41.309C225.886 41.901 226.404 42.6287 226.774 43.492C227.168 44.3553 227.366 45.4283 227.366 46.711C227.366 48.117 227.008 49.3997 226.293 50.559C225.602 51.7183 224.603 52.631 223.296 53.297C221.988 53.963 220.434 54.296 218.634 54.296C217.45 54.296 216.315 54.1603 215.23 53.889C214.169 53.6177 213.182 53.2723 212.27 52.853C211.357 52.409 210.543 51.9527 209.828 51.484L211.419 48.672C212.011 49.0913 212.689 49.4983 213.454 49.893C214.218 50.263 215.02 50.5713 215.859 50.818C216.697 51.04 217.511 51.151 218.301 51.151C219.139 51.151 219.966 51.003 220.78 50.707C221.618 50.3863 222.309 49.9053 222.852 49.264C223.394 48.6227 223.666 47.7717 223.666 46.711C223.666 45.7983 223.419 45.046 222.926 44.454C222.457 43.8373 221.828 43.3193 221.039 42.9C220.249 42.456 219.411 42.0613 218.523 41.716C217.684 41.3953 216.833 41.05 215.97 40.68C215.106 40.2853 214.305 39.8167 213.565 39.274C212.825 38.7067 212.233 38.016 211.789 37.202C211.345 36.388 211.123 35.4013 211.123 34.242C211.123 32.836 211.456 31.615 212.122 30.579C212.812 29.5183 213.75 28.692 214.934 28.1C216.118 27.4833 217.474 27.1503 219.004 27.101C220.73 27.101 222.247 27.3107 223.555 27.73C224.887 28.1493 226.058 28.6673 227.07 29.284L225.701 32.022ZM236.802 44.528C236.802 45.7367 237.086 46.822 237.653 47.784C238.245 48.7213 239.022 49.4613 239.984 50.004C240.946 50.5467 242.031 50.818 243.24 50.818C244.498 50.818 245.62 50.5467 246.607 50.004C247.594 49.4613 248.371 48.7213 248.938 47.784C249.505 46.822 249.789 45.7367 249.789 44.528V27.249H253.304V44.639C253.304 46.5877 252.848 48.2897 251.935 49.745C251.047 51.2003 249.838 52.3227 248.309 53.112C246.804 53.9013 245.115 54.296 243.24 54.296C241.365 54.296 239.676 53.9013 238.171 53.112C236.666 52.3227 235.47 51.2003 234.582 49.745C233.694 48.2897 233.25 46.5877 233.25 44.639V27.249H236.802V44.528ZM267.972 27.249C269.921 27.249 271.586 27.582 272.967 28.248C274.349 28.8893 275.409 29.8267 276.149 31.06C276.914 32.2933 277.296 33.7857 277.296 35.537C277.296 36.5977 277.136 37.646 276.815 38.682C276.495 39.6933 275.977 40.6183 275.261 41.457C274.571 42.271 273.658 42.9247 272.523 43.418C271.389 43.9113 270.007 44.158 268.379 44.158H264.42V54H260.831V27.249H267.972ZM268.342 40.717C269.403 40.717 270.279 40.5443 270.969 40.199C271.66 39.8537 272.203 39.422 272.597 38.904C272.992 38.3613 273.276 37.794 273.448 37.202C273.621 36.61 273.707 36.0797 273.707 35.611C273.707 35.0683 273.621 34.5133 273.448 33.946C273.276 33.354 272.98 32.8237 272.56 32.355C272.166 31.8617 271.635 31.467 270.969 31.171C270.328 30.8503 269.526 30.69 268.564 30.69H264.42V40.717H268.342ZM290.162 27.249C292.111 27.249 293.776 27.582 295.157 28.248C296.539 28.8893 297.599 29.8267 298.339 31.06C299.104 32.2933 299.486 33.7857 299.486 35.537C299.486 36.5977 299.326 37.646 299.005 38.682C298.685 39.6933 298.167 40.6183 297.451 41.457C296.761 42.271 295.848 42.9247 294.713 43.418C293.579 43.9113 292.197 44.158 290.569 44.158H286.61V54H283.021V27.249H290.162ZM290.532 40.717C291.593 40.717 292.469 40.5443 293.159 40.199C293.85 39.8537 294.393 39.422 294.787 38.904C295.182 38.3613 295.466 37.794 295.638 37.202C295.811 36.61 295.897 36.0797 295.897 35.611C295.897 35.0683 295.811 34.5133 295.638 33.946C295.466 33.354 295.17 32.8237 294.75 32.355C294.356 31.8617 293.825 31.467 293.159 31.171C292.518 30.8503 291.716 30.69 290.754 30.69H286.61V40.717H290.532ZM303.546 40.643C303.546 38.793 303.892 37.054 304.582 35.426C305.298 33.7733 306.284 32.318 307.542 31.06C308.8 29.7773 310.243 28.7783 311.871 28.063C313.524 27.323 315.3 26.953 317.199 26.953C319.074 26.953 320.825 27.323 322.453 28.063C324.106 28.7783 325.561 29.7773 326.819 31.06C328.102 32.318 329.101 33.7733 329.816 35.426C330.532 37.054 330.889 38.793 330.889 40.643C330.889 42.5423 330.532 44.3183 329.816 45.971C329.101 47.6237 328.102 49.079 326.819 50.337C325.561 51.5703 324.106 52.5447 322.453 53.26C320.825 53.9507 319.074 54.296 317.199 54.296C315.3 54.296 313.524 53.9507 311.871 53.26C310.243 52.5693 308.8 51.6073 307.542 50.374C306.284 49.1407 305.298 47.6977 304.582 46.045C303.892 44.3923 303.546 42.5917 303.546 40.643ZM307.246 40.68C307.246 42.086 307.505 43.4057 308.023 44.639C308.541 45.8477 309.257 46.9207 310.169 47.858C311.082 48.7953 312.143 49.5353 313.351 50.078C314.56 50.596 315.867 50.855 317.273 50.855C318.655 50.855 319.95 50.596 321.158 50.078C322.367 49.5353 323.415 48.7953 324.303 47.858C325.191 46.9207 325.894 45.8477 326.412 44.639C326.93 43.4057 327.189 42.0737 327.189 40.643C327.189 39.237 326.93 37.9173 326.412 36.684C325.894 35.426 325.179 34.3283 324.266 33.391C323.354 32.4537 322.293 31.726 321.084 31.208C319.876 30.6653 318.581 30.394 317.199 30.394C315.793 30.394 314.486 30.6653 313.277 31.208C312.069 31.7507 311.008 32.4907 310.095 33.428C309.183 34.3653 308.48 35.463 307.986 36.721C307.493 37.9543 307.246 39.274 307.246 40.68ZM344.225 27.249C345.581 27.249 346.827 27.434 347.962 27.804C349.121 28.1493 350.12 28.6797 350.959 29.395C351.822 30.0857 352.488 30.949 352.957 31.985C353.45 32.9963 353.697 34.1803 353.697 35.537C353.697 36.5977 353.536 37.6337 353.216 38.645C352.92 39.6563 352.414 40.5813 351.699 41.42C350.983 42.234 350.046 42.9 348.887 43.418C347.752 43.9113 346.346 44.158 344.669 44.158H340.71V54H337.121V27.249H344.225ZM344.595 40.717C345.655 40.717 346.531 40.5567 347.222 40.236C347.937 39.9153 348.492 39.5083 348.887 39.015C349.281 38.497 349.565 37.942 349.738 37.35C349.91 36.758 349.997 36.203 349.997 35.685C349.997 35.1423 349.898 34.5873 349.701 34.02C349.528 33.428 349.232 32.8853 348.813 32.392C348.418 31.8987 347.888 31.4917 347.222 31.171C346.58 30.8503 345.791 30.69 344.854 30.69H340.71V40.717H344.595ZM348.998 42.752L355.991 54H351.847L344.743 42.863L348.998 42.752ZM359.373 27.249H377.133V30.69H369.955V54H366.366V30.69H359.373V27.249Z" fill="white"/>
</g>
<path d="M132.73 136.115C133.867 131.268 136.711 128.773 141.262 128.629C141.266 128.617 141.269 128.602 141.273 128.583C139.306 127.588 136.942 126.736 134.111 126.304C132.451 125.106 130.782 123.094 129.103 120.267C135.235 121.241 139.276 122.821 141.228 125.008C138.891 121.251 130.627 116.561 126.346 114.304C124.732 109.723 123.618 103.669 123.999 95.8818C125.028 98.6501 126.955 102.771 130.689 106.511C135.651 111.474 139.67 111.638 143.354 115.288C146.252 118.158 149.328 123.564 148.68 134.728C148.532 134.535 148.367 134.336 148.202 134.131C147.361 133.557 138.857 128.083 132.73 136.115ZM150.806 134.131C150.641 134.336 150.476 134.535 150.328 134.728C149.68 123.564 152.755 118.158 155.654 115.288C159.338 111.638 163.356 111.474 168.319 106.511C172.053 102.771 173.98 98.6501 175.009 95.8818C175.39 103.669 174.276 109.723 172.661 114.304C168.381 116.561 160.116 121.251 157.78 125.008C159.732 122.821 163.773 121.241 169.904 120.267C168.226 123.094 166.556 125.106 164.897 126.304C162.066 126.736 159.701 127.588 157.735 128.583C157.738 128.602 157.742 128.617 157.746 128.629C162.297 128.773 165.141 131.268 166.278 136.115C160.15 128.083 151.647 133.557 150.806 134.131Z" fill="url(#paint6_linear_103_17474)"/>
<path d="M193.45 107.65C192.833 107.333 192.158 107.058 191.425 106.825C190.692 106.592 189.975 106.475 189.275 106.475C188.308 106.475 187.533 106.7 186.95 107.15C186.383 107.6 186.1 108.2 186.1 108.95C186.1 109.517 186.283 110 186.65 110.4C187.017 110.783 187.5 111.117 188.1 111.4C188.7 111.683 189.325 111.95 189.975 112.2C190.542 112.417 191.1 112.658 191.65 112.925C192.2 113.192 192.692 113.525 193.125 113.925C193.575 114.325 193.925 114.817 194.175 115.4C194.442 115.983 194.575 116.708 194.575 117.575C194.575 118.525 194.333 119.392 193.85 120.175C193.383 120.958 192.708 121.575 191.825 122.025C190.942 122.475 189.892 122.7 188.675 122.7C187.875 122.7 187.108 122.608 186.375 122.425C185.658 122.242 184.992 122.008 184.375 121.725C183.758 121.425 183.208 121.117 182.725 120.8L183.8 118.9C184.2 119.183 184.658 119.458 185.175 119.725C185.692 119.975 186.233 120.183 186.8 120.35C187.367 120.5 187.917 120.575 188.45 120.575C189.017 120.575 189.575 120.475 190.125 120.275C190.692 120.058 191.158 119.733 191.525 119.3C191.892 118.867 192.075 118.292 192.075 117.575C192.075 116.958 191.908 116.45 191.575 116.05C191.258 115.633 190.833 115.283 190.3 115C189.767 114.7 189.2 114.433 188.6 114.2C188.033 113.983 187.458 113.75 186.875 113.5C186.292 113.233 185.75 112.917 185.25 112.55C184.75 112.167 184.35 111.7 184.05 111.15C183.75 110.6 183.6 109.933 183.6 109.15C183.6 108.2 183.825 107.375 184.275 106.675C184.742 105.958 185.375 105.4 186.175 105C186.975 104.583 187.892 104.358 188.925 104.325C190.092 104.325 191.117 104.467 192 104.75C192.9 105.033 193.692 105.383 194.375 105.8L193.45 107.65ZM200.826 116.1C200.826 116.917 201.017 117.65 201.401 118.3C201.801 118.933 202.326 119.433 202.976 119.8C203.626 120.167 204.359 120.35 205.176 120.35C206.026 120.35 206.784 120.167 207.451 119.8C208.117 119.433 208.642 118.933 209.026 118.3C209.409 117.65 209.601 116.917 209.601 116.1V104.425H211.976V116.175C211.976 117.492 211.667 118.642 211.051 119.625C210.451 120.608 209.634 121.367 208.601 121.9C207.584 122.433 206.442 122.7 205.176 122.7C203.909 122.7 202.767 122.433 201.751 121.9C200.734 121.367 199.926 120.608 199.326 119.625C198.726 118.642 198.426 117.492 198.426 116.175V104.425H200.826V116.1ZM221.762 104.425C223.079 104.425 224.204 104.65 225.137 105.1C226.07 105.533 226.787 106.167 227.287 107C227.804 107.833 228.062 108.842 228.062 110.025C228.062 110.742 227.954 111.45 227.737 112.15C227.52 112.833 227.17 113.458 226.687 114.025C226.22 114.575 225.604 115.017 224.837 115.35C224.07 115.683 223.137 115.85 222.037 115.85H219.362V122.5H216.937V104.425H221.762ZM222.012 113.525C222.729 113.525 223.32 113.408 223.787 113.175C224.254 112.942 224.62 112.65 224.887 112.3C225.154 111.933 225.345 111.55 225.462 111.15C225.579 110.75 225.637 110.392 225.637 110.075C225.637 109.708 225.579 109.333 225.462 108.95C225.345 108.55 225.145 108.192 224.862 107.875C224.595 107.542 224.237 107.275 223.787 107.075C223.354 106.858 222.812 106.75 222.162 106.75H219.362V113.525H222.012ZM236.63 104.425C237.947 104.425 239.072 104.65 240.005 105.1C240.938 105.533 241.655 106.167 242.155 107C242.672 107.833 242.93 108.842 242.93 110.025C242.93 110.742 242.822 111.45 242.605 112.15C242.388 112.833 242.038 113.458 241.555 114.025C241.088 114.575 240.472 115.017 239.705 115.35C238.938 115.683 238.005 115.85 236.905 115.85H234.23V122.5H231.805V104.425H236.63ZM236.88 113.525C237.597 113.525 238.188 113.408 238.655 113.175C239.122 112.942 239.488 112.65 239.755 112.3C240.022 111.933 240.213 111.55 240.33 111.15C240.447 110.75 240.505 110.392 240.505 110.075C240.505 109.708 240.447 109.333 240.33 108.95C240.213 108.55 240.013 108.192 239.73 107.875C239.463 107.542 239.105 107.275 238.655 107.075C238.222 106.858 237.68 106.75 237.03 106.75H234.23V113.525H236.88ZM245.548 113.475C245.548 112.225 245.782 111.05 246.248 109.95C246.732 108.833 247.398 107.85 248.248 107C249.098 106.133 250.073 105.458 251.173 104.975C252.29 104.475 253.49 104.225 254.773 104.225C256.04 104.225 257.223 104.475 258.323 104.975C259.44 105.458 260.423 106.133 261.273 107C262.14 107.85 262.815 108.833 263.298 109.95C263.782 111.05 264.023 112.225 264.023 113.475C264.023 114.758 263.782 115.958 263.298 117.075C262.815 118.192 262.14 119.175 261.273 120.025C260.423 120.858 259.44 121.517 258.323 122C257.223 122.467 256.04 122.7 254.773 122.7C253.49 122.7 252.29 122.467 251.173 122C250.073 121.533 249.098 120.883 248.248 120.05C247.398 119.217 246.732 118.242 246.248 117.125C245.782 116.008 245.548 114.792 245.548 113.475ZM248.048 113.5C248.048 114.45 248.223 115.342 248.573 116.175C248.923 116.992 249.407 117.717 250.023 118.35C250.64 118.983 251.357 119.483 252.173 119.85C252.99 120.2 253.873 120.375 254.823 120.375C255.757 120.375 256.632 120.2 257.448 119.85C258.265 119.483 258.973 118.983 259.573 118.35C260.173 117.717 260.648 116.992 260.998 116.175C261.348 115.342 261.523 114.442 261.523 113.475C261.523 112.525 261.348 111.633 260.998 110.8C260.648 109.95 260.165 109.208 259.548 108.575C258.932 107.942 258.215 107.45 257.398 107.1C256.582 106.733 255.707 106.55 254.773 106.55C253.823 106.55 252.94 106.733 252.123 107.1C251.307 107.467 250.59 107.967 249.973 108.6C249.357 109.233 248.882 109.975 248.548 110.825C248.215 111.658 248.048 112.55 248.048 113.5ZM272.909 104.425C273.825 104.425 274.667 104.55 275.434 104.8C276.217 105.033 276.892 105.392 277.459 105.875C278.042 106.342 278.492 106.925 278.809 107.625C279.142 108.308 279.309 109.108 279.309 110.025C279.309 110.742 279.2 111.442 278.984 112.125C278.784 112.808 278.442 113.433 277.959 114C277.475 114.55 276.842 115 276.059 115.35C275.292 115.683 274.342 115.85 273.209 115.85H270.534V122.5H268.109V104.425H272.909ZM273.159 113.525C273.875 113.525 274.467 113.417 274.934 113.2C275.417 112.983 275.792 112.708 276.059 112.375C276.325 112.025 276.517 111.65 276.634 111.25C276.75 110.85 276.809 110.475 276.809 110.125C276.809 109.758 276.742 109.383 276.609 109C276.492 108.6 276.292 108.233 276.009 107.9C275.742 107.567 275.384 107.292 274.934 107.075C274.5 106.858 273.967 106.75 273.334 106.75H270.534V113.525H273.159ZM276.134 114.9L280.859 122.5H278.059L273.259 114.975L276.134 114.9ZM283.019 104.425H295.019V106.75H290.169V122.5H287.744V106.75H283.019V104.425Z" fill="#F1E3B5"/>
<path fill-rule="evenodd" clip-rule="evenodd" d="M385.384 98.0975L380.075 127.229L363.499 141.582L346.924 127.229L341.615 98.0975C350.68 99.6133 357.974 97.0554 363.499 90.4238C369.024 97.0554 376.319 99.6133 385.384 98.0975ZM382.354 100.923H381.746C373.094 100.906 366.808 96.6821 363.829 94.1697L363.499 93.8912L363.17 94.1697C360.191 96.6821 353.904 100.906 345.259 100.923H344.645L349.209 125.967L363.499 138.342L377.79 125.967L382.354 100.923ZM378.216 104.276L374.646 123.887L363.499 133.539L352.353 123.887L348.783 104.276C355.758 104.111 360.885 100.815 363.499 98.6716C366.108 100.815 371.241 104.111 378.216 104.276Z" fill="url(#paint7_linear_103_17474)"/>
<path d="M396.775 104.425H408.775V106.75H403.925V122.5H401.5V106.75H396.775V104.425ZM409.41 122.5L417.31 103.675H417.46L425.335 122.5H422.56L416.66 107.475L418.385 106.35L411.785 122.5H409.41ZM414.035 115.65H420.76L421.56 117.75H413.335L414.035 115.65ZM444.39 123.075L430.415 108.9L431.115 109.075L431.165 122.5H428.74V103.875H428.865L442.69 118.1L442.115 117.975L442.065 104.425H444.465V123.075H444.39ZM452.113 111.7L452.038 112.6L452.363 112.15L459.763 104.425H462.888L455.413 112.175L463.313 122.5H460.238L453.638 113.725L452.113 115.2V122.5H449.663V104.425H452.113V111.7Z" fill="#F1E3B5"/>
<defs>
<linearGradient id="paint0_linear_103_17474" x1="328.91" y1="74.4398" x2="587" y2="74.4398" gradientUnits="userSpaceOnUse">
<stop stop-color="#663500"/>
<stop offset="0.26" stop-color="#B28A4C"/>
<stop offset="0.39" stop-color="#D0AD6A"/>
<stop offset="0.42" stop-color="#DABB7F"/>
<stop offset="0.47" stop-color="#E9D19F"/>
<stop offset="0.53" stop-color="#F4E0B6"/>
<stop offset="0.58" stop-color="#FBEAC4"/>
<stop offset="0.62" stop-color="#FDEDC9"/>
<stop offset="0.72" stop-color="#FCEBC6"/>
<stop offset="0.79" stop-color="#F7E4BC"/>
<stop offset="0.86" stop-color="#EFD9AC"/>
<stop offset="0.92" stop-color="#E4CA95"/>
<stop offset="0.98" stop-color="#D6B678"/>
<stop offset="1" stop-color="#D0AD6A"/>
</linearGradient>
<linearGradient id="paint1_linear_103_17474" x1="293.51" y1="50.5399" x2="0.999759" y2="50.5399" gradientUnits="userSpaceOnUse">
<stop stop-color="#663500"/>
<stop offset="0.26" stop-color="#B28A4C"/>
<stop offset="0.39" stop-color="#D0AD6A"/>
<stop offset="0.42" stop-color="#DABB7F"/>
<stop offset="0.47" stop-color="#E9D19F"/>
<stop offset="0.53" stop-color="#F4E0B6"/>
<stop offset="0.58" stop-color="#FBEAC4"/>
<stop offset="0.62" stop-color="#FDEDC9"/>
<stop offset="0.72" stop-color="#FCEBC6"/>
<stop offset="0.79" stop-color="#F7E4BC"/>
<stop offset="0.86" stop-color="#EFD9AC"/>
<stop offset="0.92" stop-color="#E4CA95"/>
<stop offset="0.98" stop-color="#D6B678"/>
<stop offset="1" stop-color="#D0AD6A"/>
</linearGradient>
<linearGradient id="paint2_linear_103_17474" x1="265.73" y1="30.36" x2="843.39" y2="30.36" gradientUnits="userSpaceOnUse">
<stop stop-color="#663500"/>
<stop offset="0.26" stop-color="#B28A4C"/>
<stop offset="0.39" stop-color="#D0AD6A"/>
<stop offset="0.42" stop-color="#DABB7F"/>
<stop offset="0.47" stop-color="#E9D19F"/>
<stop offset="0.53" stop-color="#F4E0B6"/>
<stop offset="0.58" stop-color="#FBEAC4"/>
<stop offset="0.62" stop-color="#FDEDC9"/>
<stop offset="0.72" stop-color="#FCEBC6"/>
<stop offset="0.79" stop-color="#F7E4BC"/>
<stop offset="0.86" stop-color="#EFD9AC"/>
<stop offset="0.92" stop-color="#E4CA95"/>
<stop offset="0.98" stop-color="#D6B678"/>
<stop offset="1" stop-color="#D0AD6A"/>
</linearGradient>
<linearGradient id="paint3_linear_103_17474" x1="258.09" y1="74.4398" x2="0" y2="74.4398" gradientUnits="userSpaceOnUse">
<stop stop-color="#663500"/>
<stop offset="0.26" stop-color="#B28A4C"/>
<stop offset="0.39" stop-color="#D0AD6A"/>
<stop offset="0.42" stop-color="#DABB7F"/>
<stop offset="0.47" stop-color="#E9D19F"/>
<stop offset="0.53" stop-color="#F4E0B6"/>
<stop offset="0.58" stop-color="#FBEAC4"/>
<stop offset="0.62" stop-color="#FDEDC9"/>
<stop offset="0.72" stop-color="#FCEBC6"/>
<stop offset="0.79" stop-color="#F7E4BC"/>
<stop offset="0.86" stop-color="#EFD9AC"/>
<stop offset="0.92" stop-color="#E4CA95"/>
<stop offset="0.98" stop-color="#D6B678"/>
<stop offset="1" stop-color="#D0AD6A"/>
</linearGradient>
<linearGradient id="paint4_linear_103_17474" x1="293.5" y1="50.5399" x2="0" y2="50.5399" gradientUnits="userSpaceOnUse">
<stop stop-color="#663500"/>
<stop offset="0.26" stop-color="#B28A4C"/>
<stop offset="0.39" stop-color="#D0AD6A"/>
<stop offset="0.42" stop-color="#DABB7F"/>
<stop offset="0.47" stop-color="#E9D19F"/>
<stop offset="0.53" stop-color="#F4E0B6"/>
<stop offset="0.58" stop-color="#FBEAC4"/>
<stop offset="0.62" stop-color="#FDEDC9"/>
<stop offset="0.72" stop-color="#FCEBC6"/>
<stop offset="0.79" stop-color="#F7E4BC"/>
<stop offset="0.86" stop-color="#EFD9AC"/>
<stop offset="0.92" stop-color="#E4CA95"/>
<stop offset="0.98" stop-color="#D6B678"/>
<stop offset="1" stop-color="#D0AD6A"/>
</linearGradient>
<linearGradient id="paint5_linear_103_17474" x1="321.27" y1="30.36" x2="-256.39" y2="30.36" gradientUnits="userSpaceOnUse">
<stop stop-color="#663500"/>
<stop offset="0.26" stop-color="#B28A4C"/>
<stop offset="0.39" stop-color="#D0AD6A"/>
<stop offset="0.42" stop-color="#DABB7F"/>
<stop offset="0.47" stop-color="#E9D19F"/>
<stop offset="0.53" stop-color="#F4E0B6"/>
<stop offset="0.58" stop-color="#FBEAC4"/>
<stop offset="0.62" stop-color="#FDEDC9"/>
<stop offset="0.72" stop-color="#FCEBC6"/>
<stop offset="0.79" stop-color="#F7E4BC"/>
<stop offset="0.86" stop-color="#EFD9AC"/>
<stop offset="0.92" stop-color="#E4CA95"/>
<stop offset="0.98" stop-color="#D6B678"/>
<stop offset="1" stop-color="#D0AD6A"/>
</linearGradient>
<linearGradient id="paint6_linear_103_17474" x1="149.504" y1="95.8818" x2="149.504" y2="136.115" gradientUnits="userSpaceOnUse">
<stop offset="0.213542" stop-color="#EFD99F"/>
<stop offset="0.770833" stop-color="#D9AE5F"/>
<stop offset="1" stop-color="#BB9A45"/>
</linearGradient>
<linearGradient id="paint7_linear_103_17474" x1="363.499" y1="90.4238" x2="363.499" y2="141.582" gradientUnits="userSpaceOnUse">
<stop offset="0.213542" stop-color="#EFD99F"/>
<stop offset="0.770833" stop-color="#D9AE5F"/>
<stop offset="1" stop-color="#BB9A45"/>
</linearGradient>
<clipPath id="clip0_103_17474">
<rect width="587" height="86" fill="white"/>
</clipPath>
</defs>
</svg>
