<svg width="587" height="143" viewBox="0 0 587 143" fill="none" xmlns="http://www.w3.org/2000/svg">
<g clip-path="url(#clip0_103_17354)">
<path d="M587 63.5498H586.92C584.262 63.5472 581.638 64.1527 579.25 65.3198C576.862 66.4825 574.785 68.1963 573.19 70.3198C572.79 70.847 572.423 71.398 572.09 71.9698C571.92 72.2498 571.77 72.5398 571.61 72.8298C571.45 73.1198 571.31 73.4298 571.19 73.6998L569.61 77.0698L566.75 83.1998L507.8 83.3198L448.17 83.5198L388.54 83.8198C368.667 83.9265 348.79 84.0698 328.91 84.2498C348.79 84.4231 368.667 84.5665 388.54 84.6798L448.17 84.9698L507.8 85.1798L567.43 85.2998H568.09L568.38 84.6898L571.57 77.9998L573.16 74.6398C573.29 74.3498 573.42 74.1098 573.55 73.8498C573.68 73.5898 573.82 73.3398 573.97 73.0898C574.276 72.5916 574.61 72.1109 574.97 71.6498C576.364 69.8035 578.177 68.3157 580.26 67.3098C582.346 66.3005 584.633 65.7774 586.95 65.7798H587V63.5498Z" fill="url(#paint0_linear_103_17354)"/>
<path d="M587 27.4599V20.3499L586.92 20.1699L585.55 23.0899L572.45 50.9999C570.256 55.6666 568.08 60.3333 565.92 64.9999L559.77 78.2099L527.24 78.2799L493.85 78.3999L427.07 78.6699L360.29 78.9999C338.03 79.1399 315.77 79.3099 293.51 79.5099C315.77 79.7233 338.03 79.8966 360.29 80.0299L427.07 80.3999L493.85 80.6699L527.24 80.7899L560.63 80.8599H561.48L561.85 80.0899L568.49 66.1699C570.71 61.5299 572.9 56.8799 575.1 52.2299L586.92 27.2299L587 27.4599Z" fill="url(#paint1_linear_103_17354)"/>
<path d="M587 53.42L586.91 53.61L575.09 28.61L571.8 21.61L568.48 14.61L561.84 0.77L561.47 0H560.63L493.84 0.19L460.45 0.3L427.06 0.46L360.28 0.82C338.02 0.966667 315.76 1.14 293.5 1.34C315.76 1.54667 338.02 1.72 360.28 1.86L427.06 2.22L460.45 2.38L493.84 2.49L559.77 2.68L565.92 15.9L569.17 22.9L572.44 29.9L585.54 57.83L586.91 60.75L587 60.56V53.42Z" fill="url(#paint2_linear_103_17354)"/>
<path d="M0 63.5498H0.08C2.73819 63.5472 5.36175 64.1527 7.75 65.3198C10.1378 66.4825 12.215 68.1963 13.81 70.3198C14.2108 70.8567 14.5782 71.4178 14.91 71.9998C15.08 72.2798 15.23 72.5698 15.39 72.8598C15.55 73.1498 15.69 73.4598 15.81 73.7298L17.39 77.0998L20.25 83.2298L79.25 83.3498L138.88 83.5498L198.51 83.8498C218.383 83.9565 238.26 84.0998 258.14 84.2798C238.26 84.4531 218.383 84.5965 198.51 84.7098L138.83 84.9998L79.2 85.1998L19.57 85.3198H18.91L18.62 84.7098L15.43 77.9998L13.84 74.6398C13.71 74.3498 13.58 74.1098 13.45 73.8498C13.32 73.5898 13.18 73.3398 13.03 73.0898C12.7236 72.5916 12.3898 72.1109 12.03 71.6498C10.6365 69.8035 8.82306 68.3157 6.74 67.3098C4.6627 66.3083 2.38611 65.7888 0.08 65.7898H0V63.5498Z" fill="url(#paint3_linear_103_17354)"/>
<path d="M0 27.4599V20.3499L0.08 20.1699L1.45 23.0899L14.55 50.9999C16.7367 55.6666 18.9133 60.3333 21.08 64.9999L27.23 78.2099L59.76 78.2799L93.15 78.3999L159.93 78.6699L226.71 79.0399C248.97 79.1799 271.23 79.3499 293.49 79.5499C271.23 79.7633 248.97 79.9366 226.71 80.0699L159.93 80.4399L93.15 80.7099L59.76 80.8299L26.37 80.8999H25.52L25.15 80.1299L18.51 66.2099C16.29 61.5699 14.1 56.9199 11.9 52.2699L0.08 27.2799L0 27.4599Z" fill="url(#paint4_linear_103_17354)"/>
<path d="M0 53.42L0.09 53.61L11.91 28.61L15.2 21.61L18.52 14.61L25.16 0.77L25.53 0H26.37L93.16 0.19L126.55 0.3L159.94 0.46L226.72 0.82C248.98 0.966667 271.24 1.14 293.5 1.34C271.24 1.54667 248.98 1.72 226.72 1.86L159.94 2.22L126.55 2.38L93.16 2.49L27.23 2.68L21.08 15.9L17.83 22.9L14.56 29.9L1.46 57.8L0.09 60.72L0 60.53V53.42Z" fill="url(#paint5_linear_103_17354)"/>
<path d="M199.819 27.249H217.579V30.69H210.401V54H206.812V30.69H199.819V27.249ZM220.642 40.643C220.642 38.793 220.988 37.054 221.678 35.426C222.394 33.7733 223.38 32.318 224.638 31.06C225.896 29.7773 227.339 28.7783 228.967 28.063C230.62 27.323 232.396 26.953 234.295 26.953C236.17 26.953 237.921 27.323 239.549 28.063C241.202 28.7783 242.657 29.7773 243.915 31.06C245.198 32.318 246.197 33.7733 246.912 35.426C247.628 37.054 247.985 38.793 247.985 40.643C247.985 42.5423 247.628 44.3183 246.912 45.971C246.197 47.6237 245.198 49.079 243.915 50.337C242.657 51.5703 241.202 52.5447 239.549 53.26C237.921 53.9507 236.17 54.296 234.295 54.296C232.396 54.296 230.62 53.9507 228.967 53.26C227.339 52.5693 225.896 51.6073 224.638 50.374C223.38 49.1407 222.394 47.6977 221.678 46.045C220.988 44.3923 220.642 42.5917 220.642 40.643ZM224.342 40.68C224.342 42.086 224.601 43.4057 225.119 44.639C225.637 45.8477 226.353 46.9207 227.265 47.858C228.178 48.7953 229.239 49.5353 230.447 50.078C231.656 50.596 232.963 50.855 234.369 50.855C235.751 50.855 237.046 50.596 238.254 50.078C239.463 49.5353 240.511 48.7953 241.399 47.858C242.287 46.9207 242.99 45.8477 243.508 44.639C244.026 43.4057 244.285 42.0737 244.285 40.643C244.285 39.237 244.026 37.9173 243.508 36.684C242.99 35.426 242.275 34.3283 241.362 33.391C240.45 32.4537 239.389 31.726 238.18 31.208C236.972 30.6653 235.677 30.394 234.295 30.394C232.889 30.394 231.582 30.6653 230.373 31.208C229.165 31.7507 228.104 32.4907 227.191 33.428C226.279 34.3653 225.576 35.463 225.082 36.721C224.589 37.9543 224.342 39.274 224.342 40.68ZM261.358 27.249C263.307 27.249 264.972 27.582 266.353 28.248C267.734 28.8893 268.795 29.8267 269.535 31.06C270.3 32.2933 270.682 33.7857 270.682 35.537C270.682 36.5977 270.522 37.646 270.201 38.682C269.88 39.6933 269.362 40.6183 268.647 41.457C267.956 42.271 267.044 42.9247 265.909 43.418C264.774 43.9113 263.393 44.158 261.765 44.158H257.806V54H254.217V27.249H261.358ZM261.728 40.717C262.789 40.717 263.664 40.5443 264.355 40.199C265.046 39.8537 265.588 39.422 265.983 38.904C266.378 38.3613 266.661 37.794 266.834 37.202C267.007 36.61 267.093 36.0797 267.093 35.611C267.093 35.0683 267.007 34.5133 266.834 33.946C266.661 33.354 266.365 32.8237 265.946 32.355C265.551 31.8617 265.021 31.467 264.355 31.171C263.714 30.8503 262.912 30.69 261.95 30.69H257.806V40.717H261.728ZM288.299 27.249H291.888V50.559H305.467V54H288.299V27.249ZM308.837 54L320.529 26.139H320.751L332.406 54H328.299L319.567 31.763L322.12 30.098L312.352 54H308.837ZM315.682 43.862H325.635L326.819 46.97H314.646L315.682 43.862ZM360.791 54.851L340.108 33.872L341.144 34.131L341.218 54H337.629V26.435H337.814L358.275 47.488L357.424 47.303L357.35 27.249H360.902V54.851H360.791ZM368.78 27.249H386.17V30.69H372.369V38.83H384.69V42.271H372.369V50.559H386.688V54H368.78V27.249Z" fill="white"/>
</g>
<path d="M152.082 134.608C150.877 134.812 149.007 135.125 146.699 135.46C143.692 135.904 142.208 136.097 139.81 136.546C138.224 136.842 136.933 137.126 136.086 137.319C138.087 130.191 139.412 125.627 139.639 125.195C139.662 125.149 139.798 124.922 139.73 124.672C139.662 124.405 139.395 124.262 139.343 124.228C138.633 123.808 135.643 119.789 134.978 118.891C132.193 115.151 132.238 113.07 130.999 111.751C130.732 111.462 130.453 111.393 129.828 110.916C127.446 109.097 127.39 108.273 126.571 108.256C125.77 108.239 125.679 109.029 123.178 110.916C122.518 111.416 122.279 111.45 122.007 111.751C120.767 113.07 120.813 115.151 118.028 118.891C117.363 119.789 114.373 123.808 113.662 124.228C113.611 124.262 113.344 124.405 113.276 124.672C113.207 124.922 113.344 125.149 113.367 125.195C113.594 125.627 114.918 130.191 116.919 137.319C116.072 137.126 114.782 136.842 113.196 136.546C110.797 136.097 109.314 135.904 106.307 135.46C103.999 135.125 102.129 134.812 100.924 134.608C101.572 134.602 104.783 134.511 106.705 132.135C107.171 131.555 107.472 130.953 107.665 130.418C108.848 130.809 110.032 131.199 111.218 131.589C110.775 131.101 110.075 130.435 109.081 129.884C107.518 129.026 106.528 129.168 106.153 128.491C105.653 127.605 106.744 126.229 107.648 124.927C109.803 121.83 110.9 119.124 112.133 116.077C113.497 112.729 114.384 109.364 114.384 109.364C114.754 108 115.043 106.721 115.959 105.112C116.402 104.334 116.669 104.049 117.812 102.441C119.477 100.093 119.25 100.235 120.324 98.7574C122.655 95.5685 124.098 94.4146 125.633 93.8803C125.872 93.795 125.997 93.7553 126.184 93.7268C126.287 93.7117 126.393 93.7041 126.503 93.7041C126.613 93.7041 126.719 93.7117 126.821 93.7268C127.009 93.7553 127.134 93.795 127.372 93.8803C128.907 94.4146 130.351 95.5685 132.682 98.7574C133.756 100.235 133.528 100.093 135.194 102.441C136.336 104.049 136.604 104.334 137.047 105.112C137.962 106.721 138.252 108 138.622 109.364C138.622 109.364 139.508 112.729 140.872 116.077C142.106 119.124 143.203 121.83 145.357 124.927C146.261 126.229 147.352 127.605 146.852 128.491C146.477 129.168 145.488 129.026 143.925 129.884C142.93 130.435 142.231 131.101 141.788 131.589C142.974 131.199 144.158 130.809 145.34 130.418C145.534 130.953 145.835 131.555 146.301 132.135C148.222 134.511 151.434 134.602 152.082 134.608ZM114.833 125.627C118.577 127.044 120.599 128.065 120.898 128.69C121.201 129.316 121.529 132.516 121.882 138.291L118.266 137.399L114.833 125.627ZM134.739 137.393L131.124 138.291C131.476 132.512 131.804 129.31 132.107 128.685C132.407 128.059 134.428 127.04 138.172 125.627L134.739 137.393Z" fill="url(#paint6_linear_103_17354)"/>
<path d="M159.3 122.5L167.2 103.675H167.35L175.225 122.5H172.45L166.55 107.475L168.275 106.35L161.675 122.5H159.3ZM163.925 115.65H170.65L171.45 117.75H163.225L163.925 115.65ZM187.979 107.65C187.363 107.333 186.688 107.058 185.954 106.825C185.221 106.592 184.504 106.475 183.804 106.475C182.838 106.475 182.063 106.7 181.479 107.15C180.913 107.6 180.629 108.2 180.629 108.95C180.629 109.517 180.813 110 181.179 110.4C181.546 110.783 182.029 111.117 182.629 111.4C183.229 111.683 183.854 111.95 184.504 112.2C185.071 112.417 185.629 112.658 186.179 112.925C186.729 113.192 187.221 113.525 187.654 113.925C188.104 114.325 188.454 114.817 188.704 115.4C188.971 115.983 189.104 116.708 189.104 117.575C189.104 118.525 188.863 119.392 188.379 120.175C187.913 120.958 187.238 121.575 186.354 122.025C185.471 122.475 184.421 122.7 183.204 122.7C182.404 122.7 181.638 122.608 180.904 122.425C180.188 122.242 179.521 122.008 178.904 121.725C178.288 121.425 177.738 121.117 177.254 120.8L178.329 118.9C178.729 119.183 179.188 119.458 179.704 119.725C180.221 119.975 180.763 120.183 181.329 120.35C181.896 120.5 182.446 120.575 182.979 120.575C183.546 120.575 184.104 120.475 184.654 120.275C185.221 120.058 185.688 119.733 186.054 119.3C186.421 118.867 186.604 118.292 186.604 117.575C186.604 116.958 186.438 116.45 186.104 116.05C185.788 115.633 185.363 115.283 184.829 115C184.296 114.7 183.729 114.433 183.129 114.2C182.563 113.983 181.988 113.75 181.404 113.5C180.821 113.233 180.279 112.917 179.779 112.55C179.279 112.167 178.879 111.7 178.579 111.15C178.279 110.6 178.129 109.933 178.129 109.15C178.129 108.2 178.354 107.375 178.804 106.675C179.271 105.958 179.904 105.4 180.704 105C181.504 104.583 182.421 104.358 183.454 104.325C184.621 104.325 185.646 104.467 186.529 104.75C187.429 105.033 188.221 105.383 188.904 105.8L187.979 107.65ZM202.53 107.65C201.913 107.333 201.238 107.058 200.505 106.825C199.772 106.592 199.055 106.475 198.355 106.475C197.388 106.475 196.613 106.7 196.03 107.15C195.463 107.6 195.18 108.2 195.18 108.95C195.18 109.517 195.363 110 195.73 110.4C196.097 110.783 196.58 111.117 197.18 111.4C197.78 111.683 198.405 111.95 199.055 112.2C199.622 112.417 200.18 112.658 200.73 112.925C201.28 113.192 201.772 113.525 202.205 113.925C202.655 114.325 203.005 114.817 203.255 115.4C203.522 115.983 203.655 116.708 203.655 117.575C203.655 118.525 203.413 119.392 202.93 120.175C202.463 120.958 201.788 121.575 200.905 122.025C200.022 122.475 198.972 122.7 197.755 122.7C196.955 122.7 196.188 122.608 195.455 122.425C194.738 122.242 194.072 122.008 193.455 121.725C192.838 121.425 192.288 121.117 191.805 120.8L192.88 118.9C193.28 119.183 193.738 119.458 194.255 119.725C194.772 119.975 195.313 120.183 195.88 120.35C196.447 120.5 196.997 120.575 197.53 120.575C198.097 120.575 198.655 120.475 199.205 120.275C199.772 120.058 200.238 119.733 200.605 119.3C200.972 118.867 201.155 118.292 201.155 117.575C201.155 116.958 200.988 116.45 200.655 116.05C200.338 115.633 199.913 115.283 199.38 115C198.847 114.7 198.28 114.433 197.68 114.2C197.113 113.983 196.538 113.75 195.955 113.5C195.372 113.233 194.83 112.917 194.33 112.55C193.83 112.167 193.43 111.7 193.13 111.15C192.83 110.6 192.68 109.933 192.68 109.15C192.68 108.2 192.905 107.375 193.355 106.675C193.822 105.958 194.455 105.4 195.255 105C196.055 104.583 196.972 104.358 198.005 104.325C199.172 104.325 200.197 104.467 201.08 104.75C201.98 105.033 202.772 105.383 203.455 105.8L202.53 107.65ZM205.931 122.5L213.831 103.675H213.981L221.856 122.5H219.081L213.181 107.475L214.906 106.35L208.306 122.5H205.931ZM210.556 115.65H217.281L218.081 117.75H209.856L210.556 115.65ZM234.61 107.65C233.993 107.333 233.318 107.058 232.585 106.825C231.852 106.592 231.135 106.475 230.435 106.475C229.468 106.475 228.693 106.7 228.11 107.15C227.543 107.6 227.26 108.2 227.26 108.95C227.26 109.517 227.443 110 227.81 110.4C228.177 110.783 228.66 111.117 229.26 111.4C229.86 111.683 230.485 111.95 231.135 112.2C231.702 112.417 232.26 112.658 232.81 112.925C233.36 113.192 233.852 113.525 234.285 113.925C234.735 114.325 235.085 114.817 235.335 115.4C235.602 115.983 235.735 116.708 235.735 117.575C235.735 118.525 235.493 119.392 235.01 120.175C234.543 120.958 233.868 121.575 232.985 122.025C232.102 122.475 231.052 122.7 229.835 122.7C229.035 122.7 228.268 122.608 227.535 122.425C226.818 122.242 226.152 122.008 225.535 121.725C224.918 121.425 224.368 121.117 223.885 120.8L224.96 118.9C225.36 119.183 225.818 119.458 226.335 119.725C226.852 119.975 227.393 120.183 227.96 120.35C228.527 120.5 229.077 120.575 229.61 120.575C230.177 120.575 230.735 120.475 231.285 120.275C231.852 120.058 232.318 119.733 232.685 119.3C233.052 118.867 233.235 118.292 233.235 117.575C233.235 116.958 233.068 116.45 232.735 116.05C232.418 115.633 231.993 115.283 231.46 115C230.927 114.7 230.36 114.433 229.76 114.2C229.193 113.983 228.618 113.75 228.035 113.5C227.452 113.233 226.91 112.917 226.41 112.55C225.91 112.167 225.51 111.7 225.21 111.15C224.91 110.6 224.76 109.933 224.76 109.15C224.76 108.2 224.985 107.375 225.435 106.675C225.902 105.958 226.535 105.4 227.335 105C228.135 104.583 229.052 104.358 230.085 104.325C231.252 104.325 232.277 104.467 233.16 104.75C234.06 105.033 234.852 105.383 235.535 105.8L234.61 107.65ZM249.161 107.65C248.544 107.333 247.869 107.058 247.136 106.825C246.403 106.592 245.686 106.475 244.986 106.475C244.019 106.475 243.244 106.7 242.661 107.15C242.094 107.6 241.811 108.2 241.811 108.95C241.811 109.517 241.994 110 242.361 110.4C242.728 110.783 243.211 111.117 243.811 111.4C244.411 111.683 245.036 111.95 245.686 112.2C246.253 112.417 246.811 112.658 247.361 112.925C247.911 113.192 248.403 113.525 248.836 113.925C249.286 114.325 249.636 114.817 249.886 115.4C250.153 115.983 250.286 116.708 250.286 117.575C250.286 118.525 250.044 119.392 249.561 120.175C249.094 120.958 248.419 121.575 247.536 122.025C246.653 122.475 245.603 122.7 244.386 122.7C243.586 122.7 242.819 122.608 242.086 122.425C241.369 122.242 240.703 122.008 240.086 121.725C239.469 121.425 238.919 121.117 238.436 120.8L239.511 118.9C239.911 119.183 240.369 119.458 240.886 119.725C241.403 119.975 241.944 120.183 242.511 120.35C243.078 120.5 243.628 120.575 244.161 120.575C244.728 120.575 245.286 120.475 245.836 120.275C246.403 120.058 246.869 119.733 247.236 119.3C247.603 118.867 247.786 118.292 247.786 117.575C247.786 116.958 247.619 116.45 247.286 116.05C246.969 115.633 246.544 115.283 246.011 115C245.478 114.7 244.911 114.433 244.311 114.2C243.744 113.983 243.169 113.75 242.586 113.5C242.003 113.233 241.461 112.917 240.961 112.55C240.461 112.167 240.061 111.7 239.761 111.15C239.461 110.6 239.311 109.933 239.311 109.15C239.311 108.2 239.536 107.375 239.986 106.675C240.453 105.958 241.086 105.4 241.886 105C242.686 104.583 243.603 104.358 244.636 104.325C245.803 104.325 246.828 104.467 247.711 104.75C248.611 105.033 249.403 105.383 250.086 105.8L249.161 107.65ZM254.362 104.425H256.787V122.5H254.362V104.425ZM277.629 123.075L263.654 108.9L264.354 109.075L264.404 122.5H261.979V103.875H262.104L275.929 118.1L275.354 117.975L275.304 104.425H277.704V123.075H277.629Z" fill="#F1E3B5"/>
<path d="M342.985 93.4876L347.492 90.4238L352 93.4876V94.6699C350.209 94.1584 348.635 94.0447 347.492 94.0447C345.628 94.0447 344.082 94.3573 342.985 94.6699V93.4876ZM349.578 106.249H345.406C345.679 104.776 345.935 102.798 345.935 100.462C345.935 98.9388 345.827 96.9379 345.406 94.6699H349.578C349.306 96.1478 349.05 98.1202 349.05 100.462C349.05 101.98 349.158 103.981 349.578 106.249ZM351.96 122.398C351.96 125.577 351.96 130.704 351.96 137.779L347.492 141.582H347.487L347.595 117.879L345.27 113.49L347.481 108.983L344.235 113.587L346.634 117.805L347.447 141.542L343.024 137.779C343.024 130.704 343.024 125.577 343.024 122.398C343.024 119.214 341.727 116.514 339.131 114.298L345.531 107.124H347.492H349.453L355.854 114.298C353.258 116.514 351.96 119.214 351.96 122.398ZM361.93 115.855L362.283 112.547L356.786 111.319L357.695 112.786L356.11 113.399L351.522 108.278L363.874 111.342L363.3 114.951L361.93 115.855ZM331.684 114.957L331.11 111.347L343.462 108.278L338.875 113.399L337.289 112.786L338.199 111.319L332.702 112.547L333.054 115.855L331.684 114.957Z" fill="url(#paint7_linear_103_17354)"/>
<path d="M382.1 104.425H392.825V106.75H384.525V112.525H391.8V114.825H384.525V122.5H382.1V104.425ZM396.822 104.425H399.247V122.5H396.822V104.425ZM418.589 120.95C418.339 121.167 417.989 121.383 417.539 121.6C417.089 121.8 416.589 121.983 416.039 122.15C415.506 122.317 414.947 122.45 414.364 122.55C413.797 122.65 413.264 122.7 412.764 122.7C411.314 122.7 410.006 122.475 408.839 122.025C407.689 121.575 406.697 120.95 405.864 120.15C405.047 119.35 404.414 118.408 403.964 117.325C403.531 116.242 403.314 115.067 403.314 113.8C403.314 112.3 403.556 110.958 404.039 109.775C404.539 108.575 405.214 107.567 406.064 106.75C406.931 105.917 407.922 105.292 409.039 104.875C410.156 104.442 411.339 104.225 412.589 104.225C413.639 104.225 414.614 104.35 415.514 104.6C416.414 104.85 417.206 105.167 417.889 105.55L417.064 107.775C416.731 107.575 416.314 107.392 415.814 107.225C415.331 107.058 414.831 106.925 414.314 106.825C413.797 106.708 413.314 106.65 412.864 106.65C411.797 106.65 410.831 106.817 409.964 107.15C409.097 107.467 408.356 107.933 407.739 108.55C407.122 109.15 406.647 109.883 406.314 110.75C405.981 111.6 405.814 112.558 405.814 113.625C405.814 114.608 405.981 115.508 406.314 116.325C406.647 117.142 407.122 117.85 407.739 118.45C408.356 119.033 409.089 119.492 409.939 119.825C410.806 120.142 411.756 120.3 412.789 120.3C413.406 120.3 414.014 120.242 414.614 120.125C415.214 119.992 415.731 119.808 416.164 119.575V115.975H412.564V113.65H418.589V120.95ZM437.513 104.425V122.5H435.113V114.575H425.638V122.5H423.213V104.425H425.638V112.275H435.113V104.425H437.513ZM441.395 104.425H453.395V106.75H448.545V122.5H446.12V106.75H441.395V104.425ZM457.246 104.425H468.996V106.75H459.671V112.25H467.996V114.575H459.671V120.175H469.346V122.5H457.246V104.425ZM478.355 104.425C479.272 104.425 480.113 104.55 480.88 104.8C481.663 105.033 482.338 105.392 482.905 105.875C483.488 106.342 483.938 106.925 484.255 107.625C484.588 108.308 484.755 109.108 484.755 110.025C484.755 110.742 484.647 111.442 484.43 112.125C484.23 112.808 483.888 113.433 483.405 114C482.922 114.55 482.288 115 481.505 115.35C480.738 115.683 479.788 115.85 478.655 115.85H475.98V122.5H473.555V104.425H478.355ZM478.605 113.525C479.322 113.525 479.913 113.417 480.38 113.2C480.863 112.983 481.238 112.708 481.505 112.375C481.772 112.025 481.963 111.65 482.08 111.25C482.197 110.85 482.255 110.475 482.255 110.125C482.255 109.758 482.188 109.383 482.055 109C481.938 108.6 481.738 108.233 481.455 107.9C481.188 107.567 480.83 107.292 480.38 107.075C479.947 106.858 479.413 106.75 478.78 106.75H475.98V113.525H478.605ZM481.58 114.9L486.305 122.5H483.505L478.705 114.975L481.58 114.9Z" fill="#F1E3B5"/>
<defs>
<linearGradient id="paint0_linear_103_17354" x1="328.91" y1="74.4398" x2="587" y2="74.4398" gradientUnits="userSpaceOnUse">
<stop stop-color="#663500"/>
<stop offset="0.26" stop-color="#B28A4C"/>
<stop offset="0.39" stop-color="#D0AD6A"/>
<stop offset="0.42" stop-color="#DABB7F"/>
<stop offset="0.47" stop-color="#E9D19F"/>
<stop offset="0.53" stop-color="#F4E0B6"/>
<stop offset="0.58" stop-color="#FBEAC4"/>
<stop offset="0.62" stop-color="#FDEDC9"/>
<stop offset="0.72" stop-color="#FCEBC6"/>
<stop offset="0.79" stop-color="#F7E4BC"/>
<stop offset="0.86" stop-color="#EFD9AC"/>
<stop offset="0.92" stop-color="#E4CA95"/>
<stop offset="0.98" stop-color="#D6B678"/>
<stop offset="1" stop-color="#D0AD6A"/>
</linearGradient>
<linearGradient id="paint1_linear_103_17354" x1="293.51" y1="50.5399" x2="0.999759" y2="50.5399" gradientUnits="userSpaceOnUse">
<stop stop-color="#663500"/>
<stop offset="0.26" stop-color="#B28A4C"/>
<stop offset="0.39" stop-color="#D0AD6A"/>
<stop offset="0.42" stop-color="#DABB7F"/>
<stop offset="0.47" stop-color="#E9D19F"/>
<stop offset="0.53" stop-color="#F4E0B6"/>
<stop offset="0.58" stop-color="#FBEAC4"/>
<stop offset="0.62" stop-color="#FDEDC9"/>
<stop offset="0.72" stop-color="#FCEBC6"/>
<stop offset="0.79" stop-color="#F7E4BC"/>
<stop offset="0.86" stop-color="#EFD9AC"/>
<stop offset="0.92" stop-color="#E4CA95"/>
<stop offset="0.98" stop-color="#D6B678"/>
<stop offset="1" stop-color="#D0AD6A"/>
</linearGradient>
<linearGradient id="paint2_linear_103_17354" x1="265.73" y1="30.36" x2="843.39" y2="30.36" gradientUnits="userSpaceOnUse">
<stop stop-color="#663500"/>
<stop offset="0.26" stop-color="#B28A4C"/>
<stop offset="0.39" stop-color="#D0AD6A"/>
<stop offset="0.42" stop-color="#DABB7F"/>
<stop offset="0.47" stop-color="#E9D19F"/>
<stop offset="0.53" stop-color="#F4E0B6"/>
<stop offset="0.58" stop-color="#FBEAC4"/>
<stop offset="0.62" stop-color="#FDEDC9"/>
<stop offset="0.72" stop-color="#FCEBC6"/>
<stop offset="0.79" stop-color="#F7E4BC"/>
<stop offset="0.86" stop-color="#EFD9AC"/>
<stop offset="0.92" stop-color="#E4CA95"/>
<stop offset="0.98" stop-color="#D6B678"/>
<stop offset="1" stop-color="#D0AD6A"/>
</linearGradient>
<linearGradient id="paint3_linear_103_17354" x1="258.09" y1="74.4398" x2="0" y2="74.4398" gradientUnits="userSpaceOnUse">
<stop stop-color="#663500"/>
<stop offset="0.26" stop-color="#B28A4C"/>
<stop offset="0.39" stop-color="#D0AD6A"/>
<stop offset="0.42" stop-color="#DABB7F"/>
<stop offset="0.47" stop-color="#E9D19F"/>
<stop offset="0.53" stop-color="#F4E0B6"/>
<stop offset="0.58" stop-color="#FBEAC4"/>
<stop offset="0.62" stop-color="#FDEDC9"/>
<stop offset="0.72" stop-color="#FCEBC6"/>
<stop offset="0.79" stop-color="#F7E4BC"/>
<stop offset="0.86" stop-color="#EFD9AC"/>
<stop offset="0.92" stop-color="#E4CA95"/>
<stop offset="0.98" stop-color="#D6B678"/>
<stop offset="1" stop-color="#D0AD6A"/>
</linearGradient>
<linearGradient id="paint4_linear_103_17354" x1="293.5" y1="50.5399" x2="0" y2="50.5399" gradientUnits="userSpaceOnUse">
<stop stop-color="#663500"/>
<stop offset="0.26" stop-color="#B28A4C"/>
<stop offset="0.39" stop-color="#D0AD6A"/>
<stop offset="0.42" stop-color="#DABB7F"/>
<stop offset="0.47" stop-color="#E9D19F"/>
<stop offset="0.53" stop-color="#F4E0B6"/>
<stop offset="0.58" stop-color="#FBEAC4"/>
<stop offset="0.62" stop-color="#FDEDC9"/>
<stop offset="0.72" stop-color="#FCEBC6"/>
<stop offset="0.79" stop-color="#F7E4BC"/>
<stop offset="0.86" stop-color="#EFD9AC"/>
<stop offset="0.92" stop-color="#E4CA95"/>
<stop offset="0.98" stop-color="#D6B678"/>
<stop offset="1" stop-color="#D0AD6A"/>
</linearGradient>
<linearGradient id="paint5_linear_103_17354" x1="321.27" y1="30.36" x2="-256.39" y2="30.36" gradientUnits="userSpaceOnUse">
<stop stop-color="#663500"/>
<stop offset="0.26" stop-color="#B28A4C"/>
<stop offset="0.39" stop-color="#D0AD6A"/>
<stop offset="0.42" stop-color="#DABB7F"/>
<stop offset="0.47" stop-color="#E9D19F"/>
<stop offset="0.53" stop-color="#F4E0B6"/>
<stop offset="0.58" stop-color="#FBEAC4"/>
<stop offset="0.62" stop-color="#FDEDC9"/>
<stop offset="0.72" stop-color="#FCEBC6"/>
<stop offset="0.79" stop-color="#F7E4BC"/>
<stop offset="0.86" stop-color="#EFD9AC"/>
<stop offset="0.92" stop-color="#E4CA95"/>
<stop offset="0.98" stop-color="#D6B678"/>
<stop offset="1" stop-color="#D0AD6A"/>
</linearGradient>
<linearGradient id="paint6_linear_103_17354" x1="126.503" y1="93.7041" x2="126.503" y2="138.291" gradientUnits="userSpaceOnUse">
<stop offset="0.213542" stop-color="#EFD99F"/>
<stop offset="0.770833" stop-color="#D9AE5F"/>
<stop offset="1" stop-color="#BB9A45"/>
</linearGradient>
<linearGradient id="paint7_linear_103_17354" x1="347.492" y1="90.4238" x2="347.492" y2="141.582" gradientUnits="userSpaceOnUse">
<stop offset="0.213542" stop-color="#EFD99F"/>
<stop offset="0.770833" stop-color="#D9AE5F"/>
<stop offset="1" stop-color="#BB9A45"/>
</linearGradient>
<clipPath id="clip0_103_17354">
<rect width="587" height="86" fill="white"/>
</clipPath>
</defs>
</svg>
