<svg width="32" height="196" viewBox="0 0 32 196" fill="none" xmlns="http://www.w3.org/2000/svg">
<mask id="path-1-inside-1_2207_93572" fill="white">
<path fill-rule="evenodd" clip-rule="evenodd" d="M24.1686 15.0845L-4.37114e-06 0.734374L-1.23384e-05 95.7344L-1.28949e-05 195.734L24.1686 181.384C29.0238 178.501 32 173.273 32 167.627L32 100.734L32 28.8422C32 23.1957 29.0238 17.9672 24.1686 15.0845Z"/>
</mask>
<path fill-rule="evenodd" clip-rule="evenodd" d="M24.1686 15.0845L-4.37114e-06 0.734374L-1.23384e-05 95.7344L-1.28949e-05 195.734L24.1686 181.384C29.0238 178.501 32 173.273 32 167.627L32 100.734L32 28.8422C32 23.1957 29.0238 17.9672 24.1686 15.0845Z" fill="url(#paint0_linear_2207_93572)"/>
<path d="M-4.37114e-06 0.734374L1.10084 -1.11969L-2.15625 -3.05359L-2.15625 0.734373L-4.37114e-06 0.734374ZM24.1686 15.0845L23.0678 16.9386L23.0678 16.9386L24.1686 15.0845ZM-1.23384e-05 95.7344L-2.15626 95.7344V95.7344L-1.23384e-05 95.7344ZM-1.28949e-05 195.734L-2.15626 195.734L-2.15626 199.522L1.10084 197.588L-1.28949e-05 195.734ZM24.1686 181.384L25.2695 183.238L25.2695 183.238L24.1686 181.384ZM32 167.627L29.8437 167.627L29.8437 167.627L32 167.627ZM32 100.734L34.1562 100.734L34.1562 100.734L32 100.734ZM32 28.8422L29.8437 28.8422V28.8422L32 28.8422ZM-1.10085 2.58844L23.0678 16.9386L25.2695 13.2304L1.10084 -1.11969L-1.10085 2.58844ZM2.15624 95.7344L2.15625 0.734374L-2.15625 0.734373L-2.15626 95.7344L2.15624 95.7344ZM-2.15626 95.7344L-2.15626 195.734L2.15624 195.734L2.15624 95.7344L-2.15626 95.7344ZM1.10084 197.588L25.2695 183.238L23.0678 179.53L-1.10086 193.88L1.10084 197.588ZM25.2695 183.238C30.7789 179.967 34.1562 174.034 34.1562 167.627L29.8437 167.627C29.8437 172.512 27.2686 177.036 23.0678 179.53L25.2695 183.238ZM34.1562 167.627L34.1562 100.734L29.8437 100.734L29.8437 167.627L34.1562 167.627ZM29.8437 28.8422L29.8437 100.734L34.1562 100.734L34.1562 28.8422L29.8437 28.8422ZM23.0678 16.9386C27.2686 19.4328 29.8437 23.9566 29.8437 28.8422L34.1562 28.8422C34.1562 22.4347 30.7789 16.5017 25.2695 13.2304L23.0678 16.9386Z" fill="url(#paint1_linear_2207_93572)" mask="url(#path-1-inside-1_2207_93572)"/>
<path d="M20.316 48.4264C20.4933 48.081 20.6473 47.703 20.778 47.2924C20.9087 46.8817 20.974 46.4804 20.974 46.0884C20.974 45.547 20.848 45.113 20.596 44.7864C20.344 44.469 20.008 44.3104 19.588 44.3104C19.2707 44.3104 19 44.413 18.776 44.6184C18.5613 44.8237 18.3747 45.0944 18.216 45.4304C18.0573 45.7664 17.908 46.1164 17.768 46.4804C17.6467 46.7977 17.5113 47.1104 17.362 47.4184C17.2127 47.7264 17.026 48.0017 16.802 48.2444C16.578 48.4964 16.3027 48.6924 15.976 48.8324C15.6493 48.9817 15.2433 49.0564 14.758 49.0564C14.226 49.0564 13.7407 48.921 13.302 48.6504C12.8633 48.389 12.518 48.011 12.266 47.5164C12.014 47.0217 11.888 46.4337 11.888 45.7524C11.888 45.3044 11.9393 44.875 12.042 44.4644C12.1447 44.063 12.2753 43.6897 12.434 43.3444C12.602 42.999 12.7747 42.691 12.952 42.4204L14.016 43.0224C13.8573 43.2464 13.7033 43.503 13.554 43.7924C13.414 44.0817 13.2973 44.385 13.204 44.7024C13.12 45.0197 13.078 45.3277 13.078 45.6264C13.078 45.9437 13.134 46.2564 13.246 46.5644C13.3673 46.8817 13.5493 47.143 13.792 47.3484C14.0347 47.5537 14.3567 47.6564 14.758 47.6564C15.1033 47.6564 15.388 47.563 15.612 47.3764C15.8453 47.199 16.0413 46.961 16.2 46.6624C16.368 46.3637 16.5173 46.0464 16.648 45.7104C16.7693 45.393 16.9 45.071 17.04 44.7444C17.1893 44.4177 17.3667 44.1144 17.572 43.8344C17.7867 43.5544 18.048 43.3304 18.356 43.1624C18.664 42.9944 19.0373 42.9104 19.476 42.9104C20.008 42.9104 20.47 43.0364 20.862 43.2884C21.2633 43.5497 21.576 43.9044 21.8 44.3524C22.0333 44.8004 22.1593 45.3137 22.178 45.8924C22.178 46.5457 22.0987 47.1197 21.94 47.6144C21.7813 48.1184 21.5853 48.5617 21.352 48.9444L20.316 48.4264ZM14.954 50.5128C15.5327 50.5128 16.0553 50.6481 16.522 50.9188C16.9887 51.1988 17.3573 51.5815 17.628 52.0668C17.8987 52.5521 18.034 53.1028 18.034 53.7188C18.034 54.3535 17.8987 54.9088 17.628 55.3848C17.3573 55.8608 16.9887 56.2295 16.522 56.4908C16.0553 56.7521 15.5327 56.8828 14.954 56.8828C14.3753 56.8828 13.848 56.7521 13.372 56.4908C12.9053 56.2295 12.5367 55.8561 12.266 55.3708C11.9953 54.8948 11.86 54.3395 11.86 53.7048C11.86 53.0888 11.986 52.5381 12.238 52.0528C12.4993 51.5768 12.8587 51.1988 13.316 50.9188C13.7827 50.6481 14.3287 50.5128 14.954 50.5128ZM14.94 51.8148C14.5667 51.8148 14.226 51.8988 13.918 52.0668C13.6193 52.2348 13.3813 52.4588 13.204 52.7388C13.0267 53.0281 12.938 53.3455 12.938 53.6908C12.938 54.0548 13.0267 54.3768 13.204 54.6568C13.3813 54.9461 13.6193 55.1701 13.918 55.3288C14.226 55.4875 14.5667 55.5668 14.94 55.5668C15.3133 55.5668 15.6493 55.4875 15.948 55.3288C16.256 55.1701 16.4987 54.9461 16.676 54.6568C16.8627 54.3768 16.956 54.0548 16.956 53.6908C16.956 53.3361 16.8627 53.0141 16.676 52.7248C16.4893 52.4448 16.242 52.2208 15.934 52.0528C15.6353 51.8941 15.304 51.8148 14.94 51.8148ZM12.532 63.3497C12.3267 63.0884 12.1633 62.7757 12.042 62.4117C11.9207 62.0477 11.86 61.6837 11.86 61.3197C11.86 60.6851 11.986 60.1297 12.238 59.6537C12.49 59.1777 12.84 58.8044 13.288 58.5337C13.7453 58.2724 14.282 58.1417 14.898 58.1417C15.514 58.1417 16.0507 58.2817 16.508 58.5617C16.9653 58.8511 17.3153 59.2244 17.558 59.6817C17.81 60.1484 17.936 60.6477 17.936 61.1797C17.936 61.6464 17.8707 62.0617 17.74 62.4257C17.6093 62.7991 17.432 63.1164 17.208 63.3777L16.368 62.7337C16.4987 62.5657 16.6153 62.3604 16.718 62.1177C16.8207 61.8751 16.872 61.5997 16.872 61.2917C16.872 60.9557 16.7833 60.6431 16.606 60.3537C16.438 60.0737 16.2047 59.8497 15.906 59.6817C15.6073 59.5231 15.2713 59.4437 14.898 59.4437C14.5433 59.4437 14.212 59.5277 13.904 59.6957C13.6053 59.8637 13.3673 60.0971 13.19 60.3957C13.022 60.6944 12.938 61.0351 12.938 61.4177C12.938 61.6697 12.9753 61.8984 13.05 62.1037C13.1247 62.3184 13.2273 62.5097 13.358 62.6777L12.532 63.3497ZM17.796 65.0305L17.796 66.3325L12 66.3325L12 65.0305L17.796 65.0305ZM19.896 64.9325C20.1013 64.9325 20.274 65.0118 20.414 65.1705C20.554 65.3385 20.624 65.5205 20.624 65.7165C20.624 65.9125 20.554 66.0852 20.414 66.2345C20.274 66.3932 20.1013 66.4725 19.896 66.4725C19.6813 66.4725 19.504 66.3932 19.364 66.2345C19.2333 66.0852 19.168 65.9125 19.168 65.7165C19.168 65.5205 19.238 65.3385 19.378 65.1705C19.518 65.0118 19.6907 64.9325 19.896 64.9325ZM11.86 70.9932C11.86 70.4518 11.9767 69.9572 12.21 69.5092C12.4433 69.0705 12.784 68.7205 13.232 68.4592C13.6893 68.2072 14.2447 68.0812 14.898 68.0812C15.542 68.0812 16.0973 68.2165 16.564 68.4872C17.04 68.7578 17.404 69.1172 17.656 69.5652C17.908 70.0225 18.034 70.5218 18.034 71.0632C18.034 71.6045 17.908 72.0618 17.656 72.4352C17.4133 72.8085 17.124 73.0932 16.788 73.2892L16.564 73.2052L17.796 73.3312L17.796 74.5352L12 74.5352L12 73.2332L13.512 73.2332L13.176 73.3732C13.0827 73.3358 12.9613 73.2518 12.812 73.1212C12.672 72.9998 12.5273 72.8318 12.378 72.6172C12.2287 72.4118 12.1027 72.1738 12 71.9032C11.9067 71.6325 11.86 71.3292 11.86 70.9932ZM12.938 71.3432C12.938 71.6698 12.9987 71.9638 13.12 72.2252C13.2413 72.4865 13.4093 72.7012 13.624 72.8692C13.848 73.0465 14.114 73.1678 14.422 73.2332L15.556 73.2332C15.836 73.1585 16.0787 73.0278 16.284 72.8412C16.4987 72.6545 16.662 72.4305 16.774 72.1692C16.8953 71.9078 16.956 71.6185 16.956 71.3012C16.956 70.9558 16.872 70.6385 16.704 70.3492C16.536 70.0598 16.3027 69.8265 16.004 69.6492C15.7053 69.4812 15.3553 69.3972 14.954 69.3972C14.5807 69.3972 14.24 69.4858 13.932 69.6632C13.624 69.8405 13.3813 70.0785 13.204 70.3772C13.0267 70.6758 12.938 70.9978 12.938 71.3432ZM22.836 76.7883L22.836 78.0903L12 78.0903L12 76.7883L22.836 76.7883ZM12 85.0947L22.444 85.0947L22.444 85.1087L14.912 90.4147L15.024 89.8407L22.444 95.1327L22.444 95.1607L12 95.1607L12 93.8167L19.364 93.8167L18.678 93.9007L13.274 90.0787L13.274 90.0507L18.678 86.1727L19.308 86.4107L12 86.4107L12 85.0947ZM11.86 100.435C11.86 99.7726 11.9907 99.2033 12.252 98.7273C12.5227 98.2513 12.8867 97.8826 13.344 97.6213C13.8107 97.3693 14.3427 97.2433 14.94 97.2433C15.5093 97.2433 16.0273 97.3879 16.494 97.6773C16.9607 97.9666 17.334 98.3539 17.614 98.8393C17.894 99.3246 18.034 99.8659 18.034 100.463C18.034 101.229 17.81 101.863 17.362 102.367C16.914 102.871 16.298 103.212 15.514 103.389L13.834 98.6153L14.604 98.3073L16.032 102.227L15.85 101.947C16.158 101.835 16.424 101.649 16.648 101.387C16.8813 101.126 16.998 100.785 16.998 100.365C16.998 100.011 16.9093 99.6933 16.732 99.4133C16.564 99.1333 16.3307 98.9139 16.032 98.7553C15.7333 98.5966 15.3927 98.5173 15.01 98.5173C14.6087 98.5173 14.254 98.6013 13.946 98.7693C13.6473 98.9373 13.4093 99.1659 13.232 99.4553C13.064 99.7539 12.98 100.09 12.98 100.463C12.98 100.715 13.0267 100.958 13.12 101.191C13.2133 101.434 13.3347 101.658 13.484 101.863L12.518 102.465C12.322 102.176 12.1633 101.849 12.042 101.485C11.9207 101.131 11.86 100.781 11.86 100.435ZM11.86 107.373C11.86 106.841 11.986 106.355 12.238 105.917C12.4993 105.487 12.8633 105.147 13.33 104.895C13.806 104.643 14.352 104.517 14.968 104.517C15.612 104.517 16.1627 104.647 16.62 104.909C17.0773 105.179 17.4273 105.543 17.67 106.001C17.9127 106.458 18.034 106.971 18.034 107.541C18.034 107.998 17.936 108.432 17.74 108.843C17.544 109.263 17.2733 109.589 16.928 109.823L16.466 109.767L22.836 109.767L22.836 111.055L12 111.055L12 109.753L13.442 109.753L13.078 109.893C12.7233 109.622 12.4293 109.272 12.196 108.843C11.972 108.413 11.86 107.923 11.86 107.373ZM12.966 107.779C12.966 108.124 13.0267 108.432 13.148 108.703C13.2787 108.973 13.456 109.197 13.68 109.375C13.904 109.552 14.17 109.678 14.478 109.753L15.57 109.753C15.85 109.678 16.0927 109.543 16.298 109.347C16.5127 109.16 16.6807 108.931 16.802 108.661C16.9327 108.399 16.998 108.105 16.998 107.779C16.998 107.424 16.9093 107.097 16.732 106.799C16.564 106.509 16.3307 106.276 16.032 106.099C15.7333 105.921 15.388 105.833 14.996 105.833C14.6133 105.833 14.268 105.921 13.96 106.099C13.6613 106.276 13.4187 106.514 13.232 106.813C13.0547 107.111 12.966 107.433 12.966 107.779ZM17.796 113.32L17.796 114.622L12 114.622L12 113.32L17.796 113.32ZM19.896 113.222C20.1013 113.222 20.274 113.301 20.414 113.46C20.554 113.628 20.624 113.81 20.624 114.006C20.624 114.202 20.554 114.374 20.414 114.524C20.274 114.682 20.1013 114.762 19.896 114.762C19.6813 114.762 19.504 114.682 19.364 114.524C19.2333 114.374 19.168 114.202 19.168 114.006C19.168 113.81 19.238 113.628 19.378 113.46C19.518 113.301 19.6907 113.222 19.896 113.222ZM11.86 119.282C11.86 118.741 11.9767 118.246 12.21 117.798C12.4433 117.36 12.784 117.01 13.232 116.748C13.6893 116.496 14.2447 116.37 14.898 116.37C15.542 116.37 16.0973 116.506 16.564 116.776C17.04 117.047 17.404 117.406 17.656 117.854C17.908 118.312 18.034 118.811 18.034 119.352C18.034 119.894 17.908 120.351 17.656 120.724C17.4133 121.098 17.124 121.382 16.788 121.578L16.564 121.494L17.796 121.62L17.796 122.824L12 122.824L12 121.522L13.512 121.522L13.176 121.662C13.0827 121.625 12.9613 121.541 12.812 121.41C12.672 121.289 12.5273 121.121 12.378 120.906C12.2287 120.701 12.1027 120.463 12 120.192C11.9067 119.922 11.86 119.618 11.86 119.282ZM12.938 119.632C12.938 119.959 12.9987 120.253 13.12 120.514C13.2413 120.776 13.4093 120.99 13.624 121.158C13.848 121.336 14.114 121.457 14.422 121.522L15.556 121.522C15.836 121.448 16.0787 121.317 16.284 121.13C16.4987 120.944 16.662 120.72 16.774 120.458C16.8953 120.197 16.956 119.908 16.956 119.59C16.956 119.245 16.872 118.928 16.704 118.638C16.536 118.349 16.3027 118.116 16.004 117.938C15.7053 117.77 15.3553 117.686 14.954 117.686C14.5807 117.686 14.24 117.775 13.932 117.952C13.624 118.13 13.3813 118.368 13.204 118.666C13.0267 118.965 12.938 119.287 12.938 119.632Z" fill="white"/>
<path fill-rule="evenodd" clip-rule="evenodd" d="M9.77826 142.907L20.137 132.548L13.5391 140.185L16.2613 142.907L13.5391 145.629L20.137 153.266L9.77826 142.907ZM13.0198 140.704L10.8168 142.907L13.0198 145.11L15.2228 142.907L13.0198 140.704Z" fill="url(#paint2_linear_2207_93572)"/>
<path d="M13.0374 142.907L20.4142 150.53L16.2613 142.907L20.4142 135.284L13.0374 142.907Z" fill="url(#paint3_linear_2207_93572)"/>
<defs>
<linearGradient id="paint0_linear_2207_93572" x1="32" y1="98.2344" x2="-4.26186e-06" y2="98.2344" gradientUnits="userSpaceOnUse">
<stop stop-color="#283A7B"/>
<stop offset="1" stop-color="#13294A"/>
</linearGradient>
<linearGradient id="paint1_linear_2207_93572" x1="32" y1="98.2344" x2="-4.26186e-06" y2="98.2344" gradientUnits="userSpaceOnUse">
<stop stop-color="#EEC377"/>
<stop offset="0.526042" stop-color="#D9B26C" stop-opacity="0.8"/>
<stop offset="1" stop-opacity="0"/>
</linearGradient>
<linearGradient id="paint2_linear_2207_93572" x1="15.0962" y1="153.266" x2="15.0962" y2="132.548" gradientUnits="userSpaceOnUse">
<stop stop-color="#F9D390"/>
<stop offset="1" stop-color="#E2B15B"/>
</linearGradient>
<linearGradient id="paint3_linear_2207_93572" x1="15.0962" y1="153.266" x2="15.0962" y2="132.548" gradientUnits="userSpaceOnUse">
<stop stop-color="#F9D390"/>
<stop offset="1" stop-color="#E2B15B"/>
</linearGradient>
</defs>
</svg>
