<svg width="69" height="421" viewBox="0 0 69 421" fill="none" xmlns="http://www.w3.org/2000/svg">
<mask id="path-1-inside-1_2276_139804" fill="white">
<path fill-rule="evenodd" clip-rule="evenodd" d="M52.1136 389.526L-1.573e-05 420.469L-2.20348e-05 215.625L-1.39342e-05 204.844L-2.02389e-05 -3.01609e-06L52.1136 30.9424C62.5825 37.1584 69 48.4322 69 60.6074L69 204.844L69 359.861C69 372.037 62.5825 383.31 52.1136 389.526Z"/>
</mask>
<path fill-rule="evenodd" clip-rule="evenodd" d="M52.1136 389.526L-1.573e-05 420.469L-2.20348e-05 215.625L-1.39342e-05 204.844L-2.02389e-05 -3.01609e-06L52.1136 30.9424C62.5825 37.1584 69 48.4322 69 60.6074L69 204.844L69 359.861C69 372.037 62.5825 383.31 52.1136 389.526Z" fill="url(#paint0_linear_2276_139804)"/>
<path d="M-1.573e-05 420.469L-2.15627 420.469L-2.15627 424.257L1.10083 422.323L-1.573e-05 420.469ZM52.1136 389.526L53.2144 391.38L53.2144 391.38L52.1136 389.526ZM-2.20348e-05 215.625L-2.15627 215.625L-2.15627 215.625L-2.20348e-05 215.625ZM-1.39342e-05 204.844L2.15624 204.844L2.15624 204.844L-1.39342e-05 204.844ZM-2.02389e-05 -3.01609e-06L1.10083 -1.85406L-2.15627 -3.78797L-2.15627 -2.94972e-06L-2.02389e-05 -3.01609e-06ZM52.1136 30.9424L51.0127 32.7965L51.0127 32.7965L52.1136 30.9424ZM69 60.6074L66.8437 60.6074V60.6074L69 60.6074ZM69 204.844L71.1562 204.844V204.844L69 204.844ZM69 359.861H71.1562H69ZM1.10083 422.323L53.2144 391.38L51.0127 387.672L-1.10086 418.615L1.10083 422.323ZM-2.15627 215.625L-2.15627 420.469L2.15623 420.469L2.15623 215.625L-2.15627 215.625ZM-2.15626 204.844L-2.15627 215.625L2.15623 215.625L2.15624 204.844L-2.15626 204.844ZM2.15624 204.844L2.15623 -3.08245e-06L-2.15627 -2.94972e-06L-2.15626 204.844L2.15624 204.844ZM-1.10087 1.85406L51.0127 32.7965L53.2144 29.0884L1.10083 -1.85406L-1.10087 1.85406ZM51.0127 32.7965C60.8274 38.6239 66.8437 49.1931 66.8437 60.6074L71.1562 60.6074C71.1562 47.6712 64.3377 35.6928 53.2144 29.0884L51.0127 32.7965ZM66.8437 60.6074L66.8437 204.844L71.1562 204.844L71.1562 60.6074L66.8437 60.6074ZM71.1562 359.861L71.1562 204.844L66.8437 204.844L66.8437 359.861H71.1562ZM53.2144 391.38C64.3377 384.776 71.1562 372.797 71.1562 359.861H66.8437C66.8437 371.276 60.8274 381.845 51.0127 387.672L53.2144 391.38Z" fill="url(#paint1_linear_2276_139804)" mask="url(#path-1-inside-1_2276_139804)"/>
<rect opacity="0.5" x="27.1002" y="38.4135" width="249.646" height="234.007" transform="rotate(46.8368 27.1002 38.4135)" stroke="url(#paint2_linear_2276_139804)" stroke-width="2"/>
<rect opacity="0.5" x="26.4511" y="72.5337" width="134.51" height="201.42" transform="rotate(46.8368 26.4511 72.5337)" stroke="url(#paint3_linear_2276_139804)" stroke-width="5"/>
<defs>
<linearGradient id="paint0_linear_2276_139804" x1="69" y1="210.234" x2="-9.18964e-06" y2="210.234" gradientUnits="userSpaceOnUse">
<stop stop-color="#283A7B"/>
<stop offset="1" stop-color="#13294A"/>
</linearGradient>
<linearGradient id="paint1_linear_2276_139804" x1="69" y1="210.234" x2="-9.18964e-06" y2="210.234" gradientUnits="userSpaceOnUse">
<stop stop-color="#EEC377"/>
<stop offset="0.526042" stop-color="#D9B26C" stop-opacity="0.8"/>
<stop offset="1" stop-opacity="0"/>
</linearGradient>
<linearGradient id="paint2_linear_2276_139804" x1="152.968" y1="37" x2="152.968" y2="273.007" gradientUnits="userSpaceOnUse">
<stop stop-color="#E39A1B"/>
<stop offset="0.354167" stop-color="#F9D390"/>
<stop offset="1" stop-color="#DE8D00"/>
</linearGradient>
<linearGradient id="paint3_linear_2276_139804" x1="96.3195" y1="69" x2="96.3195" y2="275.42" gradientUnits="userSpaceOnUse">
<stop stop-color="#E39A1B"/>
<stop offset="0.354167" stop-color="#F9D390"/>
<stop offset="1" stop-color="#DE8D00"/>
</linearGradient>
</defs>
</svg>
