<svg width="297" height="370" viewBox="0 0 297 370" fill="none" xmlns="http://www.w3.org/2000/svg">
<path d="M219.53 326.96V43.63L148.58 2.66003L77.6301 43.63V326.96L148.58 367.93L219.53 326.96Z" stroke="url(#paint0_linear_41_166)" stroke-width="1.15" stroke-miterlimit="10"/>
<path d="M211.09 331.43V39.16" stroke="url(#paint1_linear_41_166)" stroke-width="1.01" stroke-miterlimit="10"/>
<path d="M86.0701 39.16V331.43" stroke="url(#paint2_linear_41_166)" stroke-width="1.01" stroke-miterlimit="10"/>
<path d="M287.72 265.63V104.96L148.58 24.63L9.44006 104.96V265.63L148.58 345.96L287.72 265.63Z" fill="url(#paint3_radial_41_166)" stroke="url(#paint4_linear_41_166)" stroke-width="4.21" stroke-miterlimit="10"/>
<path d="M278.68 260.4V110.19L148.58 35.08L18.4901 110.19V260.4L148.58 335.52L278.68 260.4Z" stroke="url(#paint5_linear_41_166)" stroke-width="2.11" stroke-miterlimit="10"/>
<path d="M1.58008 140.99V229.6" stroke="url(#paint6_linear_41_166)" stroke-width="1.16" stroke-miterlimit="10"/>
<path d="M295.58 140.99V229.6" stroke="url(#paint7_linear_41_166)" stroke-width="1.16" stroke-miterlimit="10"/>
<path d="M149 97.7211C151.664 97.7211 153.822 95.5634 153.822 92.899C153.822 90.2346 151.664 88.0769 149 88.0769C146.336 88.0769 144.178 90.2346 144.178 92.899C144.178 95.5553 146.336 97.7211 149 97.7211Z" fill="url(#paint8_linear_41_166)"/>
<path d="M173.184 118.857C173.209 118.832 173.233 118.808 173.258 118.775C177.728 113.561 179.191 108.64 177.361 104.913C175.53 101.187 170.74 99.3312 163.883 99.6908C162.11 99.7807 160.246 100.026 158.309 100.394C157.23 99.4947 155.841 98.9471 154.329 98.9471H143.679C142.167 98.9471 140.778 99.4947 139.699 100.394C137.77 100.026 135.899 99.7807 134.125 99.6908C127.268 99.3312 122.478 101.187 120.648 104.913C118.817 108.64 120.272 113.561 124.75 118.775C124.775 118.799 124.799 118.824 124.824 118.857C124.799 118.881 124.775 118.906 124.75 118.938C120.28 124.153 118.817 129.073 120.648 132.8C122.331 136.224 126.499 138.063 132.49 138.063C133.022 138.063 133.569 138.047 134.133 138.023C136.83 137.884 139.74 137.401 142.764 136.633C142.764 140.581 142.764 143.49 142.764 144.103C142.764 145.664 144.047 146.931 145.6 146.931C147.161 146.931 148.428 145.664 148.428 144.103C148.428 143.139 148.428 139.167 148.428 134.876C148.624 134.802 148.812 134.729 149.008 134.655C149.204 134.729 149.392 134.802 149.588 134.876C149.588 139.167 149.588 143.139 149.588 144.103C149.588 145.664 150.855 146.931 152.416 146.931C153.977 146.931 155.261 145.664 155.261 144.103C155.261 143.49 155.261 140.581 155.261 136.633C158.285 137.41 161.194 137.884 163.891 138.023C164.455 138.055 165.003 138.063 165.534 138.063C171.517 138.063 175.693 136.224 177.377 132.8C179.208 129.073 177.753 124.153 173.274 118.938C173.233 118.906 173.209 118.881 173.184 118.857ZM165.461 103.124C170.021 103.124 173.225 104.317 174.263 106.434C175.391 108.722 174.108 112.351 170.781 116.323C167.945 113.585 164.455 110.962 160.524 108.616V105.134C160.524 104.595 160.442 104.072 160.312 103.573C162.167 103.271 163.891 103.124 165.461 103.124ZM139.552 122.183C140.721 122.183 141.661 121.243 141.661 120.074C141.661 119.2 141.661 113.879 141.661 110.193C142.02 109.997 142.38 109.801 142.748 109.613C142.748 113.65 142.748 121.129 142.748 128.109C137.272 125.264 132.825 122.028 129.573 118.865C131.706 116.789 134.346 114.68 137.468 112.678V120.083C137.476 121.235 138.391 122.183 139.552 122.183ZM148.42 130.724C148.42 126.212 148.42 122.322 148.42 122.322H149.58C149.58 122.322 149.58 126.212 149.58 130.724C149.384 130.806 149.196 130.879 149 130.953C148.812 130.879 148.616 130.806 148.42 130.724ZM155.244 109.605C155.612 109.793 155.972 109.989 156.331 110.185C156.331 113.871 156.331 119.2 156.331 120.066C156.331 121.235 157.279 122.175 158.44 122.175C159.609 122.175 160.524 121.235 160.524 120.066V112.662C163.638 114.672 166.286 116.773 168.419 118.849C165.174 122.012 160.728 125.248 155.244 128.092C155.244 121.129 155.244 113.65 155.244 109.605ZM123.737 106.434C124.791 104.284 127.938 103.099 132.474 103.099C132.948 103.099 133.438 103.115 133.945 103.14C135.147 103.205 136.397 103.344 137.688 103.549C137.549 104.055 137.476 104.587 137.476 105.134V108.616C133.545 110.962 130.055 113.593 127.219 116.323C123.892 112.351 122.609 108.722 123.737 106.434ZM133.945 134.574C128.633 134.851 124.906 133.65 123.737 131.28C122.609 128.991 123.892 125.362 127.219 121.39C131.232 125.264 136.569 128.918 142.592 131.885C142.641 131.909 142.699 131.934 142.748 131.958C142.748 132.326 142.748 132.694 142.748 133.062C139.65 133.912 136.675 134.435 133.945 134.574ZM174.263 131.28C172.555 134.745 165.052 135.726 155.244 133.053C155.244 132.694 155.244 132.326 155.244 131.958C155.293 131.934 155.35 131.909 155.399 131.885C161.423 128.926 166.76 125.264 170.773 121.39C174.108 125.354 175.391 128.983 174.263 131.28Z" fill="url(#paint9_linear_41_166)"/>
<path d="M64.298 190.52L53.118 179.68L53.798 179.96L53.858 190H51.498V174.94H51.618L62.618 185.78L62.078 185.62L62.038 175.44H64.358V190.52H64.298ZM68.373 175.44H77.213V177.68H70.713V181.78H76.373V184H70.713V190H68.373V175.44ZM79.1885 175.44H88.9285V177.68H85.1685V190H82.8485V177.68H79.1885V175.44ZM110.115 175.44V190H107.795V183.8H100.635V190H98.2949V175.44H100.635V181.58H107.795V175.44H110.115ZM114.135 175.44H123.795V177.68H116.475V181.56H122.995V183.8H116.475V187.76H124.075V190H114.135V175.44ZM131.399 175.44C132.199 175.44 132.932 175.547 133.599 175.76C134.265 175.96 134.832 176.26 135.299 176.66C135.765 177.06 136.125 177.553 136.379 178.14C136.645 178.713 136.779 179.373 136.779 180.12C136.779 180.693 136.692 181.267 136.519 181.84C136.345 182.413 136.059 182.933 135.659 183.4C135.272 183.853 134.759 184.227 134.119 184.52C133.479 184.8 132.685 184.94 131.739 184.94H129.639V190H127.299V175.44H131.399ZM131.719 182.7C132.239 182.7 132.672 182.62 133.019 182.46C133.365 182.287 133.632 182.073 133.819 181.82C134.019 181.567 134.159 181.3 134.239 181.02C134.332 180.727 134.379 180.453 134.379 180.2C134.379 179.96 134.339 179.7 134.259 179.42C134.179 179.127 134.039 178.853 133.839 178.6C133.652 178.333 133.392 178.113 133.059 177.94C132.725 177.767 132.305 177.68 131.799 177.68H129.639V182.7H131.719ZM134.239 184.08L137.959 190H135.259L131.459 184.14L134.239 184.08ZM139.407 182.74C139.407 181.727 139.6 180.773 139.987 179.88C140.373 178.987 140.907 178.193 141.587 177.5C142.267 176.807 143.053 176.267 143.947 175.88C144.853 175.48 145.82 175.28 146.847 175.28C147.86 175.28 148.813 175.48 149.707 175.88C150.613 176.267 151.407 176.807 152.087 177.5C152.78 178.193 153.32 178.987 153.707 179.88C154.107 180.773 154.307 181.727 154.307 182.74C154.307 183.767 154.107 184.733 153.707 185.64C153.32 186.533 152.78 187.32 152.087 188C151.407 188.68 150.613 189.213 149.707 189.6C148.813 189.973 147.86 190.16 146.847 190.16C145.807 190.16 144.84 189.973 143.947 189.6C143.053 189.213 142.267 188.687 141.587 188.02C140.907 187.34 140.373 186.553 139.987 185.66C139.6 184.753 139.407 183.78 139.407 182.74ZM141.807 182.74C141.807 183.46 141.933 184.133 142.187 184.76C142.453 185.387 142.82 185.94 143.287 186.42C143.753 186.887 144.293 187.253 144.907 187.52C145.52 187.787 146.187 187.92 146.907 187.92C147.6 187.92 148.247 187.787 148.847 187.52C149.46 187.253 149.993 186.887 150.447 186.42C150.9 185.94 151.253 185.387 151.507 184.76C151.773 184.133 151.907 183.46 151.907 182.74C151.907 182.007 151.773 181.327 151.507 180.7C151.24 180.073 150.88 179.52 150.427 179.04C149.973 178.56 149.44 178.187 148.827 177.92C148.213 177.653 147.553 177.52 146.847 177.52C146.14 177.52 145.48 177.653 144.867 177.92C144.253 178.187 143.713 178.56 143.247 179.04C142.793 179.52 142.44 180.08 142.187 180.72C141.933 181.347 141.807 182.02 141.807 182.74ZM157.416 175.44H167.076V177.68H159.756V181.56H166.276V183.8H159.756V187.76H167.356V190H157.416V175.44ZM178.22 178.4C177.7 178.133 177.147 177.907 176.56 177.72C175.973 177.52 175.413 177.42 174.88 177.42C174.16 177.42 173.587 177.58 173.16 177.9C172.747 178.22 172.54 178.66 172.54 179.22C172.54 179.62 172.68 179.973 172.96 180.28C173.253 180.573 173.627 180.833 174.08 181.06C174.547 181.273 175.033 181.48 175.54 181.68C175.98 181.84 176.413 182.033 176.84 182.26C177.28 182.473 177.673 182.74 178.02 183.06C178.367 183.38 178.64 183.78 178.84 184.26C179.04 184.727 179.14 185.307 179.14 186C179.14 186.76 178.947 187.46 178.56 188.1C178.187 188.727 177.64 189.227 176.92 189.6C176.2 189.973 175.327 190.16 174.3 190.16C173.687 190.16 173.087 190.093 172.5 189.96C171.927 189.827 171.38 189.647 170.86 189.42C170.34 189.18 169.86 188.913 169.42 188.62L170.46 186.8C170.78 187.04 171.147 187.26 171.56 187.46C171.973 187.66 172.4 187.82 172.84 187.94C173.28 188.06 173.693 188.12 174.08 188.12C174.493 188.12 174.9 188.053 175.3 187.92C175.713 187.773 176.053 187.547 176.32 187.24C176.6 186.933 176.74 186.527 176.74 186.02C176.74 185.607 176.62 185.253 176.38 184.96C176.153 184.667 175.847 184.413 175.46 184.2C175.073 183.973 174.653 183.773 174.2 183.6C173.747 183.427 173.287 183.233 172.82 183.02C172.353 182.807 171.913 182.547 171.5 182.24C171.1 181.92 170.773 181.533 170.52 181.08C170.267 180.627 170.14 180.067 170.14 179.4C170.14 178.6 170.327 177.907 170.7 177.32C171.073 176.733 171.587 176.267 172.24 175.92C172.907 175.573 173.673 175.387 174.54 175.36C175.567 175.36 176.44 175.487 177.16 175.74C177.893 175.98 178.54 176.273 179.1 176.62L178.22 178.4ZM188.241 175.04C187.294 177.6 186.347 180.16 185.401 182.72C184.467 185.267 183.527 187.82 182.581 190.38H180.561C181.507 187.82 182.447 185.267 183.381 182.72C184.327 180.16 185.274 177.6 186.221 175.04H188.241ZM197.849 178.4C197.329 178.133 196.776 177.907 196.189 177.72C195.602 177.52 195.042 177.42 194.509 177.42C193.789 177.42 193.216 177.58 192.789 177.9C192.376 178.22 192.169 178.66 192.169 179.22C192.169 179.62 192.309 179.973 192.589 180.28C192.882 180.573 193.256 180.833 193.709 181.06C194.176 181.273 194.662 181.48 195.169 181.68C195.609 181.84 196.042 182.033 196.469 182.26C196.909 182.473 197.302 182.74 197.649 183.06C197.996 183.38 198.269 183.78 198.469 184.26C198.669 184.727 198.769 185.307 198.769 186C198.769 186.76 198.576 187.46 198.189 188.1C197.816 188.727 197.269 189.227 196.549 189.6C195.829 189.973 194.956 190.16 193.929 190.16C193.316 190.16 192.716 190.093 192.129 189.96C191.556 189.827 191.009 189.647 190.489 189.42C189.969 189.18 189.489 188.913 189.049 188.62L190.089 186.8C190.409 187.04 190.776 187.26 191.189 187.46C191.602 187.66 192.029 187.82 192.469 187.94C192.909 188.06 193.322 188.12 193.709 188.12C194.122 188.12 194.529 188.053 194.929 187.92C195.342 187.773 195.682 187.547 195.949 187.24C196.229 186.933 196.369 186.527 196.369 186.02C196.369 185.607 196.249 185.253 196.009 184.96C195.782 184.667 195.476 184.413 195.089 184.2C194.702 183.973 194.282 183.773 193.829 183.6C193.376 183.427 192.916 183.233 192.449 183.02C191.982 182.807 191.542 182.547 191.129 182.24C190.729 181.92 190.402 181.533 190.149 181.08C189.896 180.627 189.769 180.067 189.769 179.4C189.769 178.6 189.956 177.907 190.329 177.32C190.702 176.733 191.216 176.267 191.869 175.92C192.536 175.573 193.302 175.387 194.169 175.36C195.196 175.36 196.069 175.487 196.789 175.74C197.522 175.98 198.169 176.273 198.729 176.62L197.849 178.4ZM204.21 181.02L204.15 181.76L204.47 181.3L209.95 175.44H212.95L206.93 181.8L213.17 190H210.21L205.23 183.28L204.21 184.28V190H201.85V175.44H204.21V181.02ZM215.639 175.44H217.979V190H215.639V175.44ZM234.786 190.52L223.606 179.68L224.286 179.96L224.346 190H221.986V174.94H222.106L233.106 185.78L232.566 185.62L232.526 175.44H234.846V190.52H234.786ZM246.501 178.4C245.981 178.133 245.428 177.907 244.841 177.72C244.255 177.52 243.695 177.42 243.161 177.42C242.441 177.42 241.868 177.58 241.441 177.9C241.028 178.22 240.821 178.66 240.821 179.22C240.821 179.62 240.961 179.973 241.241 180.28C241.535 180.573 241.908 180.833 242.361 181.06C242.828 181.273 243.315 181.48 243.821 181.68C244.261 181.84 244.695 182.033 245.121 182.26C245.561 182.473 245.955 182.74 246.301 183.06C246.648 183.38 246.921 183.78 247.121 184.26C247.321 184.727 247.421 185.307 247.421 186C247.421 186.76 247.228 187.46 246.841 188.1C246.468 188.727 245.921 189.227 245.201 189.6C244.481 189.973 243.608 190.16 242.581 190.16C241.968 190.16 241.368 190.093 240.781 189.96C240.208 189.827 239.661 189.647 239.141 189.42C238.621 189.18 238.141 188.913 237.701 188.62L238.741 186.8C239.061 187.04 239.428 187.26 239.841 187.46C240.255 187.66 240.681 187.82 241.121 187.94C241.561 188.06 241.975 188.12 242.361 188.12C242.775 188.12 243.181 188.053 243.581 187.92C243.995 187.773 244.335 187.547 244.601 187.24C244.881 186.933 245.021 186.527 245.021 186.02C245.021 185.607 244.901 185.253 244.661 184.96C244.435 184.667 244.128 184.413 243.741 184.2C243.355 183.973 242.935 183.773 242.481 183.6C242.028 183.427 241.568 183.233 241.101 183.02C240.635 182.807 240.195 182.547 239.781 182.24C239.381 181.92 239.055 181.533 238.801 181.08C238.548 180.627 238.421 180.067 238.421 179.4C238.421 178.6 238.608 177.907 238.981 177.32C239.355 176.733 239.868 176.267 240.521 175.92C241.188 175.573 241.955 175.387 242.821 175.36C243.848 175.36 244.721 175.487 245.441 175.74C246.175 175.98 246.821 176.273 247.381 176.62L246.501 178.4Z" fill="white"/>
<path d="M66.1005 210.155V221H64.6604V216.245H58.9754V221H57.5204V210.155H58.9754V214.865H64.6604V210.155H66.1005ZM69.2246 210.155H76.2746V211.55H70.6796V214.85H75.6746V216.245H70.6796V219.605H76.4846V221H69.2246V210.155ZM81.8897 210.155C82.4397 210.155 82.9447 210.23 83.4047 210.38C83.8747 210.52 84.2797 210.735 84.6197 211.025C84.9697 211.305 85.2397 211.655 85.4297 212.075C85.6297 212.485 85.7297 212.965 85.7297 213.515C85.7297 213.945 85.6647 214.365 85.5347 214.775C85.4147 215.185 85.2097 215.56 84.9197 215.9C84.6297 216.23 84.2497 216.5 83.7797 216.71C83.3197 216.91 82.7497 217.01 82.0697 217.01H80.4647V221H79.0097V210.155H81.8897ZM82.0397 215.615C82.4697 215.615 82.8247 215.55 83.1047 215.42C83.3947 215.29 83.6197 215.125 83.7797 214.925C83.9397 214.715 84.0547 214.49 84.1247 214.25C84.1947 214.01 84.2297 213.785 84.2297 213.575C84.2297 213.355 84.1897 213.13 84.1097 212.9C84.0397 212.66 83.9197 212.44 83.7497 212.24C83.5897 212.04 83.3747 211.875 83.1047 211.745C82.8447 211.615 82.5247 211.55 82.1447 211.55H80.4647V215.615H82.0397ZM83.8247 216.44L86.6597 221H84.9797L82.0997 216.485L83.8247 216.44ZM87.988 215.585C87.988 214.835 88.128 214.13 88.408 213.47C88.698 212.8 89.098 212.21 89.608 211.7C90.118 211.18 90.703 210.775 91.363 210.485C92.033 210.185 92.753 210.035 93.523 210.035C94.283 210.035 94.993 210.185 95.653 210.485C96.323 210.775 96.913 211.18 97.423 211.7C97.943 212.21 98.348 212.8 98.638 213.47C98.928 214.13 99.073 214.835 99.073 215.585C99.073 216.355 98.928 217.075 98.638 217.745C98.348 218.415 97.943 219.005 97.423 219.515C96.913 220.015 96.323 220.41 95.653 220.7C94.993 220.98 94.283 221.12 93.523 221.12C92.753 221.12 92.033 220.98 91.363 220.7C90.703 220.42 90.118 220.03 89.608 219.53C89.098 219.03 88.698 218.445 88.408 217.775C88.128 217.105 87.988 216.375 87.988 215.585ZM89.488 215.6C89.488 216.17 89.593 216.705 89.803 217.205C90.013 217.695 90.303 218.13 90.673 218.51C91.043 218.89 91.473 219.19 91.963 219.41C92.453 219.62 92.983 219.725 93.553 219.725C94.113 219.725 94.638 219.62 95.128 219.41C95.618 219.19 96.043 218.89 96.403 218.51C96.763 218.13 97.048 217.695 97.258 217.205C97.468 216.705 97.573 216.165 97.573 215.585C97.573 215.015 97.468 214.48 97.258 213.98C97.048 213.47 96.758 213.025 96.388 212.645C96.018 212.265 95.588 211.97 95.098 211.76C94.608 211.54 94.083 211.43 93.523 211.43C92.953 211.43 92.423 211.54 91.933 211.76C91.443 211.98 91.013 212.28 90.643 212.66C90.273 213.04 89.988 213.485 89.788 213.995C89.588 214.495 89.488 215.03 89.488 215.6ZM101.524 210.155H108.574V211.55H102.979V214.85H107.974V216.245H102.979V219.605H108.784V221H101.524V210.155ZM116.92 212.09C116.55 211.9 116.145 211.735 115.705 211.595C115.265 211.455 114.835 211.385 114.415 211.385C113.835 211.385 113.37 211.52 113.02 211.79C112.68 212.06 112.51 212.42 112.51 212.87C112.51 213.21 112.62 213.5 112.84 213.74C113.06 213.97 113.35 214.17 113.71 214.34C114.07 214.51 114.445 214.67 114.835 214.82C115.175 214.95 115.51 215.095 115.84 215.255C116.17 215.415 116.465 215.615 116.725 215.855C116.995 216.095 117.205 216.39 117.355 216.74C117.515 217.09 117.595 217.525 117.595 218.045C117.595 218.615 117.45 219.135 117.16 219.605C116.88 220.075 116.475 220.445 115.945 220.715C115.415 220.985 114.785 221.12 114.055 221.12C113.575 221.12 113.115 221.065 112.675 220.955C112.245 220.845 111.845 220.705 111.475 220.535C111.105 220.355 110.775 220.17 110.485 219.98L111.13 218.84C111.37 219.01 111.645 219.175 111.955 219.335C112.265 219.485 112.59 219.61 112.93 219.71C113.27 219.8 113.6 219.845 113.92 219.845C114.26 219.845 114.595 219.785 114.925 219.665C115.265 219.535 115.545 219.34 115.765 219.08C115.985 218.82 116.095 218.475 116.095 218.045C116.095 217.675 115.995 217.37 115.795 217.13C115.605 216.88 115.35 216.67 115.03 216.5C114.71 216.32 114.37 216.16 114.01 216.02C113.67 215.89 113.325 215.75 112.975 215.6C112.625 215.44 112.3 215.25 112 215.03C111.7 214.8 111.46 214.52 111.28 214.19C111.1 213.86 111.01 213.46 111.01 212.99C111.01 212.42 111.145 211.925 111.415 211.505C111.695 211.075 112.075 210.74 112.555 210.5C113.035 210.25 113.585 210.115 114.205 210.095C114.905 210.095 115.52 210.18 116.05 210.35C116.59 210.52 117.065 210.73 117.475 210.98L116.92 212.09ZM123.706 221L128.446 209.705H128.536L133.261 221H131.596L128.056 211.985L129.091 211.31L125.131 221H123.706ZM126.481 216.89H130.516L130.996 218.15H126.061L126.481 216.89ZM144.694 221.345L136.309 212.84L136.729 212.945L136.759 221H135.304V209.825H135.379L143.674 218.36L143.329 218.285L143.299 210.155H144.739V221.345H144.694ZM147.857 221V210.155H150.812C151.882 210.155 152.792 210.32 153.542 210.65C154.302 210.98 154.912 211.415 155.372 211.955C155.832 212.495 156.167 213.095 156.377 213.755C156.597 214.405 156.707 215.055 156.707 215.705C156.707 216.525 156.562 217.26 156.272 217.91C155.992 218.56 155.602 219.115 155.102 219.575C154.602 220.035 154.027 220.39 153.377 220.64C152.737 220.88 152.057 221 151.337 221H147.857ZM149.312 219.605H151.052C151.652 219.605 152.202 219.515 152.702 219.335C153.212 219.155 153.652 218.895 154.022 218.555C154.402 218.215 154.697 217.8 154.907 217.31C155.117 216.81 155.222 216.245 155.222 215.615C155.222 214.945 155.112 214.36 154.892 213.86C154.672 213.35 154.372 212.925 153.992 212.585C153.612 212.245 153.182 211.99 152.702 211.82C152.222 211.64 151.717 211.55 151.187 211.55H149.312V219.605ZM169.507 212.09C169.137 211.9 168.732 211.735 168.292 211.595C167.852 211.455 167.422 211.385 167.002 211.385C166.422 211.385 165.957 211.52 165.607 211.79C165.267 212.06 165.097 212.42 165.097 212.87C165.097 213.21 165.207 213.5 165.427 213.74C165.647 213.97 165.937 214.17 166.297 214.34C166.657 214.51 167.032 214.67 167.422 214.82C167.762 214.95 168.097 215.095 168.427 215.255C168.757 215.415 169.052 215.615 169.312 215.855C169.582 216.095 169.792 216.39 169.942 216.74C170.102 217.09 170.182 217.525 170.182 218.045C170.182 218.615 170.037 219.135 169.747 219.605C169.467 220.075 169.062 220.445 168.532 220.715C168.002 220.985 167.372 221.12 166.642 221.12C166.162 221.12 165.702 221.065 165.262 220.955C164.832 220.845 164.432 220.705 164.062 220.535C163.692 220.355 163.362 220.17 163.072 219.98L163.717 218.84C163.957 219.01 164.232 219.175 164.542 219.335C164.852 219.485 165.177 219.61 165.517 219.71C165.857 219.8 166.187 219.845 166.507 219.845C166.847 219.845 167.182 219.785 167.512 219.665C167.852 219.535 168.132 219.34 168.352 219.08C168.572 218.82 168.682 218.475 168.682 218.045C168.682 217.675 168.582 217.37 168.382 217.13C168.192 216.88 167.937 216.67 167.617 216.5C167.297 216.32 166.957 216.16 166.597 216.02C166.257 215.89 165.912 215.75 165.562 215.6C165.212 215.44 164.887 215.25 164.587 215.03C164.287 214.8 164.047 214.52 163.867 214.19C163.687 213.86 163.597 213.46 163.597 212.99C163.597 212.42 163.732 211.925 164.002 211.505C164.282 211.075 164.662 210.74 165.142 210.5C165.622 210.25 166.172 210.115 166.792 210.095C167.492 210.095 168.107 210.18 168.637 210.35C169.177 210.52 169.652 210.73 170.062 210.98L169.507 212.09ZM174.098 214.52L174.053 215.06L174.248 214.79L178.688 210.155H180.563L176.078 214.805L180.818 221H178.973L175.013 215.735L174.098 216.62V221H172.628V210.155H174.098V214.52ZM182.809 210.155H184.264V221H182.809V210.155ZM196.769 221.345L188.384 212.84L188.804 212.945L188.834 221H187.379V209.825H187.454L195.749 218.36L195.404 218.285L195.374 210.155H196.814V221.345H196.769ZM205.543 212.09C205.173 211.9 204.768 211.735 204.328 211.595C203.888 211.455 203.458 211.385 203.038 211.385C202.458 211.385 201.993 211.52 201.643 211.79C201.303 212.06 201.133 212.42 201.133 212.87C201.133 213.21 201.243 213.5 201.463 213.74C201.683 213.97 201.973 214.17 202.333 214.34C202.693 214.51 203.068 214.67 203.458 214.82C203.798 214.95 204.133 215.095 204.463 215.255C204.793 215.415 205.088 215.615 205.348 215.855C205.618 216.095 205.828 216.39 205.978 216.74C206.138 217.09 206.218 217.525 206.218 218.045C206.218 218.615 206.073 219.135 205.783 219.605C205.503 220.075 205.098 220.445 204.568 220.715C204.038 220.985 203.408 221.12 202.678 221.12C202.198 221.12 201.738 221.065 201.298 220.955C200.868 220.845 200.468 220.705 200.098 220.535C199.728 220.355 199.398 220.17 199.108 219.98L199.753 218.84C199.993 219.01 200.268 219.175 200.578 219.335C200.888 219.485 201.213 219.61 201.553 219.71C201.893 219.8 202.223 219.845 202.543 219.845C202.883 219.845 203.218 219.785 203.548 219.665C203.888 219.535 204.168 219.34 204.388 219.08C204.608 218.82 204.718 218.475 204.718 218.045C204.718 217.675 204.618 217.37 204.418 217.13C204.228 216.88 203.973 216.67 203.653 216.5C203.333 216.32 202.993 216.16 202.633 216.02C202.293 215.89 201.948 215.75 201.598 215.6C201.248 215.44 200.923 215.25 200.623 215.03C200.323 214.8 200.083 214.52 199.903 214.19C199.723 213.86 199.633 213.46 199.633 212.99C199.633 212.42 199.768 211.925 200.038 211.505C200.318 211.075 200.698 210.74 201.178 210.5C201.658 210.25 202.208 210.115 202.828 210.095C203.528 210.095 204.143 210.18 204.673 210.35C205.213 210.52 205.688 210.73 206.098 210.98L205.543 212.09ZM212.329 221L217.069 209.705H217.159L221.884 221H220.219L216.679 211.985L217.714 211.31L213.754 221H212.329ZM215.104 216.89H219.139L219.619 218.15H214.684L215.104 216.89ZM226.807 210.155C227.357 210.155 227.862 210.23 228.322 210.38C228.792 210.52 229.197 210.735 229.537 211.025C229.887 211.305 230.157 211.655 230.347 212.075C230.547 212.485 230.647 212.965 230.647 213.515C230.647 213.945 230.582 214.365 230.452 214.775C230.332 215.185 230.127 215.56 229.837 215.9C229.547 216.23 229.167 216.5 228.697 216.71C228.237 216.91 227.667 217.01 226.987 217.01H225.382V221H223.927V210.155H226.807ZM226.957 215.615C227.387 215.615 227.742 215.55 228.022 215.42C228.312 215.29 228.537 215.125 228.697 214.925C228.857 214.715 228.972 214.49 229.042 214.25C229.112 214.01 229.147 213.785 229.147 213.575C229.147 213.355 229.107 213.13 229.027 212.9C228.957 212.66 228.837 212.44 228.667 212.24C228.507 212.04 228.292 211.875 228.022 211.745C227.762 211.615 227.442 211.55 227.062 211.55H225.382V215.615H226.957ZM228.742 216.44L231.577 221H229.897L227.017 216.485L228.742 216.44ZM233.814 210.155H240.864V211.55H235.269V214.85H240.264V216.245H235.269V219.605H241.074V221H233.814V210.155ZM69.2901 227.09C68.9201 226.9 68.5151 226.735 68.0751 226.595C67.6351 226.455 67.2051 226.385 66.7851 226.385C66.2051 226.385 65.7401 226.52 65.3901 226.79C65.0501 227.06 64.8801 227.42 64.8801 227.87C64.8801 228.21 64.9901 228.5 65.2101 228.74C65.4301 228.97 65.7201 229.17 66.0801 229.34C66.4401 229.51 66.8151 229.67 67.2051 229.82C67.5451 229.95 67.8801 230.095 68.2101 230.255C68.5401 230.415 68.8351 230.615 69.0951 230.855C69.3651 231.095 69.5751 231.39 69.7251 231.74C69.8851 232.09 69.9651 232.525 69.9651 233.045C69.9651 233.615 69.8201 234.135 69.5301 234.605C69.2501 235.075 68.8451 235.445 68.3151 235.715C67.7851 235.985 67.1551 236.12 66.4251 236.12C65.9451 236.12 65.4851 236.065 65.0451 235.955C64.6151 235.845 64.2151 235.705 63.8451 235.535C63.4751 235.355 63.1451 235.17 62.8551 234.98L63.5001 233.84C63.7401 234.01 64.0151 234.175 64.3251 234.335C64.6351 234.485 64.9601 234.61 65.3001 234.71C65.6401 234.8 65.9701 234.845 66.2901 234.845C66.6301 234.845 66.9651 234.785 67.2951 234.665C67.6351 234.535 67.9151 234.34 68.1351 234.08C68.3551 233.82 68.4651 233.475 68.4651 233.045C68.4651 232.675 68.3651 232.37 68.1651 232.13C67.9751 231.88 67.7201 231.67 67.4001 231.5C67.0801 231.32 66.7401 231.16 66.3801 231.02C66.0401 230.89 65.6951 230.75 65.3451 230.6C64.9951 230.44 64.6701 230.25 64.3701 230.03C64.0701 229.8 63.8301 229.52 63.6501 229.19C63.4701 228.86 63.3801 228.46 63.3801 227.99C63.3801 227.42 63.5151 226.925 63.7851 226.505C64.0651 226.075 64.4451 225.74 64.9251 225.5C65.4051 225.25 65.9551 225.115 66.5751 225.095C67.2751 225.095 67.8901 225.18 68.4201 225.35C68.9601 225.52 69.4351 225.73 69.8451 225.98L69.2901 227.09ZM71.5423 225.155H78.7423V226.55H75.8323V236H74.3773V226.55H71.5423V225.155ZM79.9094 230.585C79.9094 229.835 80.0494 229.13 80.3294 228.47C80.6194 227.8 81.0194 227.21 81.5294 226.7C82.0394 226.18 82.6244 225.775 83.2844 225.485C83.9544 225.185 84.6744 225.035 85.4444 225.035C86.2044 225.035 86.9144 225.185 87.5744 225.485C88.2444 225.775 88.8344 226.18 89.3444 226.7C89.8644 227.21 90.2694 227.8 90.5594 228.47C90.8494 229.13 90.9944 229.835 90.9944 230.585C90.9944 231.355 90.8494 232.075 90.5594 232.745C90.2694 233.415 89.8644 234.005 89.3444 234.515C88.8344 235.015 88.2444 235.41 87.5744 235.7C86.9144 235.98 86.2044 236.12 85.4444 236.12C84.6744 236.12 83.9544 235.98 83.2844 235.7C82.6244 235.42 82.0394 235.03 81.5294 234.53C81.0194 234.03 80.6194 233.445 80.3294 232.775C80.0494 232.105 79.9094 231.375 79.9094 230.585ZM81.4094 230.6C81.4094 231.17 81.5144 231.705 81.7244 232.205C81.9344 232.695 82.2244 233.13 82.5944 233.51C82.9644 233.89 83.3944 234.19 83.8844 234.41C84.3744 234.62 84.9044 234.725 85.4744 234.725C86.0344 234.725 86.5594 234.62 87.0494 234.41C87.5394 234.19 87.9644 233.89 88.3244 233.51C88.6844 233.13 88.9694 232.695 89.1794 232.205C89.3894 231.705 89.4944 231.165 89.4944 230.585C89.4944 230.015 89.3894 229.48 89.1794 228.98C88.9694 228.47 88.6794 228.025 88.3094 227.645C87.9394 227.265 87.5094 226.97 87.0194 226.76C86.5294 226.54 86.0044 226.43 85.4444 226.43C84.8744 226.43 84.3444 226.54 83.8544 226.76C83.3644 226.98 82.9344 227.28 82.5644 227.66C82.1944 228.04 81.9094 228.485 81.7094 228.995C81.5094 229.495 81.4094 230.03 81.4094 230.6ZM96.3257 225.155C96.8757 225.155 97.3807 225.23 97.8407 225.38C98.3107 225.52 98.7157 225.735 99.0557 226.025C99.4057 226.305 99.6757 226.655 99.8657 227.075C100.066 227.485 100.166 227.965 100.166 228.515C100.166 228.945 100.101 229.365 99.9707 229.775C99.8507 230.185 99.6457 230.56 99.3557 230.9C99.0657 231.23 98.6857 231.5 98.2157 231.71C97.7557 231.91 97.1857 232.01 96.5057 232.01H94.9007V236H93.4457V225.155H96.3257ZM96.4757 230.615C96.9057 230.615 97.2607 230.55 97.5407 230.42C97.8307 230.29 98.0557 230.125 98.2157 229.925C98.3757 229.715 98.4907 229.49 98.5607 229.25C98.6307 229.01 98.6657 228.785 98.6657 228.575C98.6657 228.355 98.6257 228.13 98.5457 227.9C98.4757 227.66 98.3557 227.44 98.1857 227.24C98.0257 227.04 97.8107 226.875 97.5407 226.745C97.2807 226.615 96.9607 226.55 96.5807 226.55H94.9007V230.615H96.4757ZM98.2607 231.44L101.096 236H99.4157L96.5357 231.485L98.2607 231.44ZM103.333 225.155H110.383V226.55H104.788V229.85H109.783V231.245H104.788V234.605H110.593V236H103.333V225.155ZM113.119 236V225.155H116.074C117.144 225.155 118.054 225.32 118.804 225.65C119.564 225.98 120.174 226.415 120.634 226.955C121.094 227.495 121.429 228.095 121.639 228.755C121.859 229.405 121.969 230.055 121.969 230.705C121.969 231.525 121.824 232.26 121.534 232.91C121.254 233.56 120.864 234.115 120.364 234.575C119.864 235.035 119.289 235.39 118.639 235.64C117.999 235.88 117.319 236 116.599 236H113.119ZM114.574 234.605H116.314C116.914 234.605 117.464 234.515 117.964 234.335C118.474 234.155 118.914 233.895 119.284 233.555C119.664 233.215 119.959 232.8 120.169 232.31C120.379 231.81 120.484 231.245 120.484 230.615C120.484 229.945 120.374 229.36 120.154 228.86C119.934 228.35 119.634 227.925 119.254 227.585C118.874 227.245 118.444 226.99 117.964 226.82C117.484 226.64 116.979 226.55 116.449 226.55H114.574V234.605ZM134.769 227.09C134.399 226.9 133.994 226.735 133.554 226.595C133.114 226.455 132.684 226.385 132.264 226.385C131.684 226.385 131.219 226.52 130.869 226.79C130.529 227.06 130.359 227.42 130.359 227.87C130.359 228.21 130.469 228.5 130.689 228.74C130.909 228.97 131.199 229.17 131.559 229.34C131.919 229.51 132.294 229.67 132.684 229.82C133.024 229.95 133.359 230.095 133.689 230.255C134.019 230.415 134.314 230.615 134.574 230.855C134.844 231.095 135.054 231.39 135.204 231.74C135.364 232.09 135.444 232.525 135.444 233.045C135.444 233.615 135.299 234.135 135.009 234.605C134.729 235.075 134.324 235.445 133.794 235.715C133.264 235.985 132.634 236.12 131.904 236.12C131.424 236.12 130.964 236.065 130.524 235.955C130.094 235.845 129.694 235.705 129.324 235.535C128.954 235.355 128.624 235.17 128.334 234.98L128.979 233.84C129.219 234.01 129.494 234.175 129.804 234.335C130.114 234.485 130.439 234.61 130.779 234.71C131.119 234.8 131.449 234.845 131.769 234.845C132.109 234.845 132.444 234.785 132.774 234.665C133.114 234.535 133.394 234.34 133.614 234.08C133.834 233.82 133.944 233.475 133.944 233.045C133.944 232.675 133.844 232.37 133.644 232.13C133.454 231.88 133.199 231.67 132.879 231.5C132.559 231.32 132.219 231.16 131.859 231.02C131.519 230.89 131.174 230.75 130.824 230.6C130.474 230.44 130.149 230.25 129.849 230.03C129.549 229.8 129.309 229.52 129.129 229.19C128.949 228.86 128.859 228.46 128.859 227.99C128.859 227.42 128.994 226.925 129.264 226.505C129.544 226.075 129.924 225.74 130.404 225.5C130.884 225.25 131.434 225.115 132.054 225.095C132.754 225.095 133.369 225.18 133.899 225.35C134.439 225.52 134.914 225.73 135.324 225.98L134.769 227.09ZM137.889 225.155H144.939V226.55H139.344V229.85H144.339V231.245H139.344V234.605H145.149V236H137.889V225.155ZM155.639 235.19C155.459 235.31 155.214 235.445 154.904 235.595C154.594 235.745 154.229 235.87 153.809 235.97C153.399 236.07 152.949 236.12 152.459 236.12C151.619 236.11 150.859 235.96 150.179 235.67C149.509 235.38 148.939 234.985 148.469 234.485C147.999 233.985 147.634 233.41 147.374 232.76C147.124 232.1 146.999 231.4 146.999 230.66C146.999 229.85 147.129 229.105 147.389 228.425C147.659 227.735 148.034 227.14 148.514 226.64C148.994 226.13 149.559 225.735 150.209 225.455C150.869 225.175 151.589 225.035 152.369 225.035C153.019 225.035 153.609 225.125 154.139 225.305C154.669 225.475 155.124 225.68 155.504 225.92L154.919 227.27C154.619 227.07 154.254 226.88 153.824 226.7C153.404 226.52 152.934 226.43 152.414 226.43C151.884 226.43 151.384 226.535 150.914 226.745C150.444 226.955 150.029 227.25 149.669 227.63C149.309 228.01 149.024 228.455 148.814 228.965C148.614 229.465 148.514 230.005 148.514 230.585C148.514 231.175 148.604 231.725 148.784 232.235C148.974 232.735 149.239 233.17 149.579 233.54C149.929 233.91 150.349 234.2 150.839 234.41C151.329 234.62 151.879 234.725 152.489 234.725C153.039 234.725 153.529 234.64 153.959 234.47C154.389 234.3 154.744 234.11 155.024 233.9L155.639 235.19ZM159.394 232.16C159.394 232.65 159.509 233.09 159.739 233.48C159.979 233.86 160.294 234.16 160.684 234.38C161.074 234.6 161.514 234.71 162.004 234.71C162.514 234.71 162.969 234.6 163.369 234.38C163.769 234.16 164.084 233.86 164.314 233.48C164.544 233.09 164.659 232.65 164.659 232.16V225.155H166.084V232.205C166.084 232.995 165.899 233.685 165.529 234.275C165.169 234.865 164.679 235.32 164.059 235.64C163.449 235.96 162.764 236.12 162.004 236.12C161.244 236.12 160.559 235.96 159.949 235.64C159.339 235.32 158.854 234.865 158.494 234.275C158.134 233.685 157.954 232.995 157.954 232.205V225.155H159.394V232.16ZM171.941 225.155C172.491 225.155 172.996 225.23 173.456 225.38C173.926 225.52 174.331 225.735 174.671 226.025C175.021 226.305 175.291 226.655 175.481 227.075C175.681 227.485 175.781 227.965 175.781 228.515C175.781 228.945 175.716 229.365 175.586 229.775C175.466 230.185 175.261 230.56 174.971 230.9C174.681 231.23 174.301 231.5 173.831 231.71C173.371 231.91 172.801 232.01 172.121 232.01H170.516V236H169.061V225.155H171.941ZM172.091 230.615C172.521 230.615 172.876 230.55 173.156 230.42C173.446 230.29 173.671 230.125 173.831 229.925C173.991 229.715 174.106 229.49 174.176 229.25C174.246 229.01 174.281 228.785 174.281 228.575C174.281 228.355 174.241 228.13 174.161 227.9C174.091 227.66 173.971 227.44 173.801 227.24C173.641 227.04 173.426 226.875 173.156 226.745C172.896 226.615 172.576 226.55 172.196 226.55H170.516V230.615H172.091ZM173.876 231.44L176.711 236H175.031L172.151 231.485L173.876 231.44ZM178.949 225.155H185.999V226.55H180.404V229.85H185.399V231.245H180.404V234.605H186.209V236H178.949V225.155ZM188.734 225.155H190.189V234.605H195.694V236H188.734V225.155ZM199.788 232.385L195.768 225.155H197.553L200.778 231.14L200.328 231.17L203.523 225.155H205.293L201.243 232.385V236H199.788V232.385ZM211.35 230.585C211.35 229.835 211.49 229.13 211.77 228.47C212.06 227.8 212.46 227.21 212.97 226.7C213.48 226.18 214.065 225.775 214.725 225.485C215.395 225.185 216.115 225.035 216.885 225.035C217.645 225.035 218.355 225.185 219.015 225.485C219.685 225.775 220.275 226.18 220.785 226.7C221.305 227.21 221.71 227.8 222 228.47C222.29 229.13 222.435 229.835 222.435 230.585C222.435 231.355 222.29 232.075 222 232.745C221.71 233.415 221.305 234.005 220.785 234.515C220.275 235.015 219.685 235.41 219.015 235.7C218.355 235.98 217.645 236.12 216.885 236.12C216.115 236.12 215.395 235.98 214.725 235.7C214.065 235.42 213.48 235.03 212.97 234.53C212.46 234.03 212.06 233.445 211.77 232.775C211.49 232.105 211.35 231.375 211.35 230.585ZM212.85 230.6C212.85 231.17 212.955 231.705 213.165 232.205C213.375 232.695 213.665 233.13 214.035 233.51C214.405 233.89 214.835 234.19 215.325 234.41C215.815 234.62 216.345 234.725 216.915 234.725C217.475 234.725 218 234.62 218.49 234.41C218.98 234.19 219.405 233.89 219.765 233.51C220.125 233.13 220.41 232.695 220.62 232.205C220.83 231.705 220.935 231.165 220.935 230.585C220.935 230.015 220.83 229.48 220.62 228.98C220.41 228.47 220.12 228.025 219.75 227.645C219.38 227.265 218.95 226.97 218.46 226.76C217.97 226.54 217.445 226.43 216.885 226.43C216.315 226.43 215.785 226.54 215.295 226.76C214.805 226.98 214.375 227.28 214.005 227.66C213.635 228.04 213.35 228.485 213.15 228.995C212.95 229.495 212.85 230.03 212.85 230.6ZM234.276 236.345L225.891 227.84L226.311 227.945L226.341 236H224.886V224.825H224.961L233.256 233.36L232.911 233.285L232.881 225.155H234.321V236.345H234.276ZM61.8266 240.155C62.9166 240.155 63.7716 240.38 64.3916 240.83C65.0216 241.27 65.3366 241.96 65.3366 242.9C65.3366 243.47 65.2066 243.965 64.9466 244.385C64.6866 244.805 64.3216 245.135 63.8516 245.375C63.3916 245.615 62.8466 245.75 62.2166 245.78L62.0066 245.03C62.7366 245.05 63.3916 245.18 63.9716 245.42C64.5516 245.66 65.0116 245.995 65.3516 246.425C65.6916 246.855 65.8616 247.365 65.8616 247.955C65.8616 248.495 65.7616 248.96 65.5616 249.35C65.3616 249.73 65.0916 250.045 64.7516 250.295C64.4116 250.535 64.0266 250.715 63.5966 250.835C63.1666 250.945 62.7216 251 62.2616 251H59.0366V240.155H61.8266ZM62.1266 244.91C62.7266 244.91 63.1616 244.745 63.4316 244.415C63.7016 244.075 63.8366 243.665 63.8366 243.185C63.8366 242.615 63.6616 242.2 63.3116 241.94C62.9616 241.68 62.4916 241.55 61.9016 241.55H60.4916V244.91H62.1266ZM62.1866 249.65C62.5866 249.65 62.9516 249.59 63.2816 249.47C63.6216 249.35 63.8866 249.165 64.0766 248.915C64.2766 248.665 64.3766 248.35 64.3766 247.97C64.3766 247.55 64.2616 247.22 64.0316 246.98C63.8116 246.74 63.5266 246.57 63.1766 246.47C62.8266 246.36 62.4666 246.305 62.0966 246.305H60.4916V249.65H62.1866ZM68.309 240.155H69.764V251H68.309V240.155ZM82.2693 251.345L73.8843 242.84L74.3043 242.945L74.3343 251H72.8793V239.825H72.9543L81.2493 248.36L80.9043 248.285L80.8743 240.155H82.3143V251.345H82.2693ZM84.353 251L89.093 239.705H89.183L93.908 251H92.243L88.703 241.985L89.738 241.31L85.778 251H84.353ZM87.128 246.89H91.163L91.643 248.15H86.708L87.128 246.89ZM105.341 251.345L96.9556 242.84L97.3756 242.945L97.4056 251H95.9506V239.825H96.0256L104.321 248.36L103.976 248.285L103.946 240.155H105.386V251.345H105.341ZM116.469 250.19C116.289 250.31 116.044 250.445 115.734 250.595C115.424 250.745 115.059 250.87 114.639 250.97C114.229 251.07 113.779 251.12 113.289 251.12C112.449 251.11 111.689 250.96 111.009 250.67C110.339 250.38 109.769 249.985 109.299 249.485C108.829 248.985 108.464 248.41 108.204 247.76C107.954 247.1 107.829 246.4 107.829 245.66C107.829 244.85 107.959 244.105 108.219 243.425C108.489 242.735 108.864 242.14 109.344 241.64C109.824 241.13 110.389 240.735 111.039 240.455C111.699 240.175 112.419 240.035 113.199 240.035C113.849 240.035 114.439 240.125 114.969 240.305C115.499 240.475 115.954 240.68 116.334 240.92L115.749 242.27C115.449 242.07 115.084 241.88 114.654 241.7C114.234 241.52 113.764 241.43 113.244 241.43C112.714 241.43 112.214 241.535 111.744 241.745C111.274 241.955 110.859 242.25 110.499 242.63C110.139 243.01 109.854 243.455 109.644 243.965C109.444 244.465 109.344 245.005 109.344 245.585C109.344 246.175 109.434 246.725 109.614 247.235C109.804 247.735 110.069 248.17 110.409 248.54C110.759 248.91 111.179 249.2 111.669 249.41C112.159 249.62 112.709 249.725 113.319 249.725C113.869 249.725 114.359 249.64 114.789 249.47C115.219 249.3 115.574 249.11 115.854 248.9L116.469 250.19ZM118.919 240.155H125.969V241.55H120.374V244.85H125.369V246.245H120.374V249.605H126.179V251H118.919V240.155ZM139.061 242.09C138.691 241.9 138.286 241.735 137.846 241.595C137.406 241.455 136.976 241.385 136.556 241.385C135.976 241.385 135.511 241.52 135.161 241.79C134.821 242.06 134.651 242.42 134.651 242.87C134.651 243.21 134.761 243.5 134.981 243.74C135.201 243.97 135.491 244.17 135.851 244.34C136.211 244.51 136.586 244.67 136.976 244.82C137.316 244.95 137.651 245.095 137.981 245.255C138.311 245.415 138.606 245.615 138.866 245.855C139.136 246.095 139.346 246.39 139.496 246.74C139.656 247.09 139.736 247.525 139.736 248.045C139.736 248.615 139.591 249.135 139.301 249.605C139.021 250.075 138.616 250.445 138.086 250.715C137.556 250.985 136.926 251.12 136.196 251.12C135.716 251.12 135.256 251.065 134.816 250.955C134.386 250.845 133.986 250.705 133.616 250.535C133.246 250.355 132.916 250.17 132.626 249.98L133.271 248.84C133.511 249.01 133.786 249.175 134.096 249.335C134.406 249.485 134.731 249.61 135.071 249.71C135.411 249.8 135.741 249.845 136.061 249.845C136.401 249.845 136.736 249.785 137.066 249.665C137.406 249.535 137.686 249.34 137.906 249.08C138.126 248.82 138.236 248.475 138.236 248.045C138.236 247.675 138.136 247.37 137.936 247.13C137.746 246.88 137.491 246.67 137.171 246.5C136.851 246.32 136.511 246.16 136.151 246.02C135.811 245.89 135.466 245.75 135.116 245.6C134.766 245.44 134.441 245.25 134.141 245.03C133.841 244.8 133.601 244.52 133.421 244.19C133.241 243.86 133.151 243.46 133.151 242.99C133.151 242.42 133.286 241.925 133.556 241.505C133.836 241.075 134.216 240.74 134.696 240.5C135.176 240.25 135.726 240.115 136.346 240.095C137.046 240.095 137.661 240.18 138.191 240.35C138.731 240.52 139.206 240.73 139.616 240.98L139.061 242.09ZM142.181 251V239.81H142.196L147.881 247.88L147.266 247.76L152.936 239.81H152.966V251H151.526V243.11L151.616 243.845L147.521 249.635H147.491L143.336 243.845L143.591 243.17V251H142.181ZM155.002 251L159.742 239.705H159.832L164.557 251H162.892L159.352 241.985L160.387 241.31L156.427 251H155.002ZM157.777 246.89H161.812L162.292 248.15H157.357L157.777 246.89ZM169.48 240.155C170.03 240.155 170.535 240.23 170.995 240.38C171.465 240.52 171.87 240.735 172.21 241.025C172.56 241.305 172.83 241.655 173.02 242.075C173.22 242.485 173.32 242.965 173.32 243.515C173.32 243.945 173.255 244.365 173.125 244.775C173.005 245.185 172.8 245.56 172.51 245.9C172.22 246.23 171.84 246.5 171.37 246.71C170.91 246.91 170.34 247.01 169.66 247.01H168.055V251H166.6V240.155H169.48ZM169.63 245.615C170.06 245.615 170.415 245.55 170.695 245.42C170.985 245.29 171.21 245.125 171.37 244.925C171.53 244.715 171.645 244.49 171.715 244.25C171.785 244.01 171.82 243.785 171.82 243.575C171.82 243.355 171.78 243.13 171.7 242.9C171.63 242.66 171.51 242.44 171.34 242.24C171.18 242.04 170.965 241.875 170.695 241.745C170.435 241.615 170.115 241.55 169.735 241.55H168.055V245.615H169.63ZM171.415 246.44L174.25 251H172.57L169.69 246.485L171.415 246.44ZM175.546 240.155H182.746V241.55H179.836V251H178.381V241.55H175.546V240.155ZM197.768 250.19C197.588 250.31 197.343 250.445 197.033 250.595C196.723 250.745 196.358 250.87 195.938 250.97C195.528 251.07 195.078 251.12 194.588 251.12C193.748 251.11 192.988 250.96 192.308 250.67C191.638 250.38 191.068 249.985 190.598 249.485C190.128 248.985 189.763 248.41 189.503 247.76C189.253 247.1 189.128 246.4 189.128 245.66C189.128 244.85 189.258 244.105 189.518 243.425C189.788 242.735 190.163 242.14 190.643 241.64C191.123 241.13 191.688 240.735 192.338 240.455C192.998 240.175 193.718 240.035 194.498 240.035C195.148 240.035 195.738 240.125 196.268 240.305C196.798 240.475 197.253 240.68 197.633 240.92L197.048 242.27C196.748 242.07 196.383 241.88 195.953 241.7C195.533 241.52 195.063 241.43 194.543 241.43C194.013 241.43 193.513 241.535 193.043 241.745C192.573 241.955 192.158 242.25 191.798 242.63C191.438 243.01 191.153 243.455 190.943 243.965C190.743 244.465 190.643 245.005 190.643 245.585C190.643 246.175 190.733 246.725 190.913 247.235C191.103 247.735 191.368 248.17 191.708 248.54C192.058 248.91 192.478 249.2 192.968 249.41C193.458 249.62 194.008 249.725 194.618 249.725C195.168 249.725 195.658 249.64 196.088 249.47C196.518 249.3 196.873 249.11 197.153 248.9L197.768 250.19ZM208.798 240.155V251H207.358V246.245H201.673V251H200.218V240.155H201.673V244.865H207.358V240.155H208.798ZM210.842 251L215.582 239.705H215.672L220.397 251H218.732L215.192 241.985L216.227 241.31L212.267 251H210.842ZM213.617 246.89H217.652L218.132 248.15H213.197L213.617 246.89ZM222.44 240.155H223.895V251H222.44V240.155ZM236.4 251.345L228.015 242.84L228.435 242.945L228.465 251H227.01V239.825H227.085L235.38 248.36L235.035 248.285L235.005 240.155H236.445V251.345H236.4ZM238.514 250.205C238.514 249.985 238.594 249.8 238.754 249.65C238.924 249.49 239.109 249.41 239.309 249.41C239.489 249.41 239.659 249.49 239.819 249.65C239.989 249.8 240.074 249.985 240.074 250.205C240.074 250.445 239.989 250.64 239.819 250.79C239.659 250.93 239.489 251 239.309 251C239.109 251 238.924 250.93 238.754 250.79C238.594 250.64 238.514 250.445 238.514 250.205Z" fill="white"/>
<defs>
<linearGradient id="paint0_linear_41_166" x1="148.58" y1="2.00003" x2="148.58" y2="368.59" gradientUnits="userSpaceOnUse">
<stop stop-color="#FFEED6"/>
<stop offset="0.65" stop-color="#DFC28D"/>
<stop offset="1" stop-color="#D0AD6A"/>
</linearGradient>
<linearGradient id="paint1_linear_41_166" x1="-nan" y1="-nan" x2="-nan" y2="-nan" gradientUnits="userSpaceOnUse">
<stop stop-color="#FFEED6"/>
<stop offset="0.65" stop-color="#DFC28D"/>
<stop offset="1" stop-color="#D0AD6A"/>
</linearGradient>
<linearGradient id="paint2_linear_41_166" x1="-nan" y1="-nan" x2="-nan" y2="-nan" gradientUnits="userSpaceOnUse">
<stop stop-color="#FFEED6"/>
<stop offset="0.65" stop-color="#DFC28D"/>
<stop offset="1" stop-color="#D0AD6A"/>
</linearGradient>
<radialGradient id="paint3_radial_41_166" cx="0" cy="0" r="1" gradientUnits="userSpaceOnUse" gradientTransform="translate(148.98 359.5) scale(271.7 271.7)">
<stop stop-color="#A2743D"/>
<stop offset="1"/>
</radialGradient>
<linearGradient id="paint4_linear_41_166" x1="148.58" y1="22.2" x2="148.58" y2="348.39" gradientUnits="userSpaceOnUse">
<stop stop-color="#FFEED6"/>
<stop offset="0.65" stop-color="#DFC28D"/>
<stop offset="1" stop-color="#D0AD6A"/>
</linearGradient>
<linearGradient id="paint5_linear_41_166" x1="148.58" y1="33.86" x2="148.58" y2="336.73" gradientUnits="userSpaceOnUse">
<stop stop-color="#FFEED6"/>
<stop offset="0.65" stop-color="#DFC28D"/>
<stop offset="1" stop-color="#D0AD6A"/>
</linearGradient>
<linearGradient id="paint6_linear_41_166" x1="-nan" y1="-nan" x2="-nan" y2="-nan" gradientUnits="userSpaceOnUse">
<stop stop-color="#FFEED6"/>
<stop offset="0.65" stop-color="#DFC28D"/>
<stop offset="1" stop-color="#D0AD6A"/>
</linearGradient>
<linearGradient id="paint7_linear_41_166" x1="-nan" y1="-nan" x2="-nan" y2="-nan" gradientUnits="userSpaceOnUse">
<stop stop-color="#FFEED6"/>
<stop offset="0.65" stop-color="#DFC28D"/>
<stop offset="1" stop-color="#D0AD6A"/>
</linearGradient>
<linearGradient id="paint8_linear_41_166" x1="149" y1="161.789" x2="149" y2="75.4401" gradientUnits="userSpaceOnUse">
<stop stop-color="#CDA25F"/>
<stop offset="0.0146738" stop-color="#CEA462"/>
<stop offset="0.2168" stop-color="#D8BA81"/>
<stop offset="0.4135" stop-color="#DFCA97"/>
<stop offset="0.6008" stop-color="#E4D4A4"/>
<stop offset="0.7684" stop-color="#E5D7A9"/>
</linearGradient>
<linearGradient id="paint9_linear_41_166" x1="149" y1="161.729" x2="149" y2="75.5396" gradientUnits="userSpaceOnUse">
<stop stop-color="#CDA25F"/>
<stop offset="0.0146738" stop-color="#CEA462"/>
<stop offset="0.2168" stop-color="#D8BA81"/>
<stop offset="0.4135" stop-color="#DFCA97"/>
<stop offset="0.6008" stop-color="#E4D4A4"/>
<stop offset="0.7684" stop-color="#E5D7A9"/>
</linearGradient>
</defs>
</svg>
