<svg width="297" height="370" viewBox="0 0 297 370" fill="none" xmlns="http://www.w3.org/2000/svg">
<g clip-path="url(#clip0_385_19116)">
<path d="M219.53 326.96V43.6302L148.58 2.66016L77.6299 43.6302V326.96L148.58 367.93L219.53 326.96Z" stroke="url(#paint0_linear_385_19116)" stroke-width="1.15" stroke-miterlimit="10"/>
<path d="M211.09 331.43V39.1602" stroke="url(#paint1_linear_385_19116)" stroke-width="1.01" stroke-miterlimit="10"/>
<path d="M86.0703 39.1602V331.43" stroke="url(#paint2_linear_385_19116)" stroke-width="1.01" stroke-miterlimit="10"/>
<path d="M287.72 265.63V104.96L148.58 24.6299L9.44043 104.96V265.63L148.58 345.96L287.72 265.63Z" fill="url(#paint3_radial_385_19116)" stroke="url(#paint4_linear_385_19116)" stroke-width="4.21" stroke-miterlimit="10"/>
<path d="M278.68 260.4V110.19L148.58 35.0801L18.4902 110.19V260.4L148.58 335.52L278.68 260.4Z" stroke="url(#paint5_linear_385_19116)" stroke-width="2.11" stroke-miterlimit="10"/>
<path d="M1.58008 140.99V229.6" stroke="url(#paint6_linear_385_19116)" stroke-width="1.16" stroke-miterlimit="10"/>
<path d="M295.58 140.99V229.6" stroke="url(#paint7_linear_385_19116)" stroke-width="1.16" stroke-miterlimit="10"/>
<path d="M165.918 115.236H153.479C152.498 115.236 151.705 116.029 151.705 117.009V129.449C151.705 130.43 152.498 131.222 153.479 131.222H165.918C166.899 131.222 167.692 130.43 167.692 129.449V117.018C167.692 116.037 166.899 115.236 165.918 115.236ZM164.145 127.683H155.252V118.791H164.145V127.683Z" fill="url(#paint8_linear_385_19116)"/>
<path d="M176.65 92.6538H121.351C120.37 92.6538 119.577 93.4466 119.577 94.4274V105.159C119.577 107.7 121.106 109.891 123.288 110.872V140.564C123.288 141.545 124.081 142.338 125.061 142.338H172.939C173.92 142.338 174.713 141.545 174.713 140.564V110.872C176.895 109.891 178.423 107.7 178.423 105.159V94.4274C178.423 93.4466 177.631 92.6538 176.65 92.6538ZM144.611 138.791H134.575V118.791H144.619V138.791H144.611ZM171.166 138.791H148.167V117.018C148.167 116.037 147.374 115.244 146.393 115.244H132.793C131.812 115.244 131.019 116.037 131.019 117.018V138.799H126.835V111.337C128.192 111.117 129.393 110.463 130.308 109.523C131.444 110.692 133.03 111.419 134.787 111.419H135.041C136.798 111.419 138.383 110.692 139.519 109.523C140.656 110.692 142.241 111.419 143.998 111.419H144.252C146.009 111.419 147.594 110.692 148.731 109.523C149.867 110.692 151.452 111.419 153.209 111.419H153.463C155.22 111.419 156.806 110.692 157.942 109.523C159.078 110.692 160.663 111.419 162.42 111.419H162.674C164.431 111.419 166.017 110.692 167.153 109.523C168.182 110.577 169.58 111.28 171.141 111.403V138.791H171.166Z" fill="url(#paint9_linear_385_19116)"/>
<path d="M76.1465 190V174.92H76.1665L84.0065 186.02L83.0065 185.8L90.8065 174.92H90.8465V190H88.5265V180.18L88.6865 181.36L83.4065 188.82H83.3665L78.0065 181.36L78.4065 180.28V190H76.1465ZM93.3179 190L99.7579 174.84H99.8979L106.338 190H103.658L99.1379 178.48L100.798 177.36L95.5979 190H93.3179ZM97.3579 184.58H102.338L103.138 186.58H96.6579L97.3579 184.58ZM112.922 175.44C113.722 175.44 114.456 175.547 115.122 175.76C115.789 175.96 116.356 176.26 116.822 176.66C117.289 177.06 117.649 177.553 117.902 178.14C118.169 178.713 118.302 179.373 118.302 180.12C118.302 180.693 118.216 181.267 118.042 181.84C117.869 182.413 117.582 182.933 117.182 183.4C116.796 183.853 116.282 184.227 115.642 184.52C115.002 184.8 114.209 184.94 113.262 184.94H111.162V190H108.822V175.44H112.922ZM113.242 182.7C113.762 182.7 114.196 182.62 114.542 182.46C114.889 182.287 115.156 182.073 115.342 181.82C115.542 181.567 115.682 181.3 115.762 181.02C115.856 180.727 115.902 180.453 115.902 180.2C115.902 179.96 115.862 179.7 115.782 179.42C115.702 179.127 115.562 178.853 115.362 178.6C115.176 178.333 114.916 178.113 114.582 177.94C114.249 177.767 113.829 177.68 113.322 177.68H111.162V182.7H113.242ZM115.762 184.08L119.482 190H116.782L112.982 184.14L115.762 184.08ZM124.581 181.02L124.521 181.76L124.841 181.3L130.321 175.44H133.321L127.301 181.8L133.541 190H130.581L125.601 183.28L124.581 184.28V190H122.221V175.44H124.581V181.02ZM136.01 175.44H145.67V177.68H138.35V181.56H144.87V183.8H138.35V187.76H145.95V190H136.01V175.44ZM148.134 175.44H157.874V177.68H154.114V190H151.794V177.68H148.134V175.44ZM164.954 175.44C166.061 175.44 167.007 175.627 167.794 176C168.581 176.373 169.181 176.907 169.594 177.6C170.021 178.293 170.234 179.133 170.234 180.12C170.234 180.693 170.141 181.267 169.954 181.84C169.781 182.413 169.501 182.933 169.114 183.4C168.741 183.867 168.234 184.24 167.594 184.52C166.967 184.8 166.194 184.94 165.274 184.94H163.174V190H160.834V175.44H164.954ZM165.274 182.7C165.781 182.7 166.207 182.613 166.554 182.44C166.901 182.267 167.167 182.047 167.354 181.78C167.554 181.513 167.694 181.233 167.774 180.94C167.867 180.647 167.914 180.387 167.914 180.16C167.914 179.933 167.874 179.68 167.794 179.4C167.714 179.107 167.581 178.833 167.394 178.58C167.207 178.313 166.947 178.1 166.614 177.94C166.281 177.767 165.854 177.68 165.334 177.68H163.174V182.7H165.274ZM173.061 175.44H175.401V187.76H182.561V190H173.061V175.44ZM184.138 190L190.578 174.84H190.718L197.158 190H194.478L189.958 178.48L191.618 177.36L186.418 190H184.138ZM188.178 184.58H193.158L193.958 186.58H187.478L188.178 184.58ZM209.583 188.86C209.37 189.007 209.05 189.187 208.623 189.4C208.21 189.613 207.71 189.8 207.123 189.96C206.55 190.107 205.91 190.173 205.203 190.16C204.07 190.147 203.05 189.947 202.143 189.56C201.237 189.16 200.47 188.627 199.843 187.96C199.217 187.28 198.73 186.507 198.383 185.64C198.05 184.76 197.883 183.827 197.883 182.84C197.883 181.733 198.057 180.72 198.403 179.8C198.75 178.88 199.243 178.087 199.883 177.42C200.523 176.74 201.283 176.213 202.163 175.84C203.043 175.467 204.003 175.28 205.043 175.28C205.963 175.28 206.783 175.407 207.503 175.66C208.237 175.9 208.85 176.173 209.343 176.48L208.423 178.66C208.05 178.407 207.583 178.153 207.023 177.9C206.463 177.647 205.83 177.52 205.123 177.52C204.483 177.52 203.87 177.653 203.283 177.92C202.697 178.173 202.183 178.54 201.743 179.02C201.303 179.487 200.95 180.033 200.683 180.66C200.43 181.287 200.303 181.967 200.303 182.7C200.303 183.46 200.417 184.16 200.643 184.8C200.883 185.44 201.217 185.993 201.643 186.46C202.083 186.913 202.603 187.273 203.203 187.54C203.817 187.793 204.503 187.92 205.263 187.92C206.01 187.92 206.663 187.807 207.223 187.58C207.797 187.34 208.257 187.073 208.603 186.78L209.583 188.86ZM212.689 175.44H222.349V177.68H215.029V181.56H221.549V183.8H215.029V187.76H222.629V190H212.689V175.44Z" fill="white"/>
<path d="M63.2294 210.155H70.4294V211.55H67.5194V221H66.0644V211.55H63.2294V210.155ZM75.6202 210.155C76.1702 210.155 76.6752 210.23 77.1352 210.38C77.6052 210.52 78.0102 210.735 78.3502 211.025C78.7002 211.305 78.9702 211.655 79.1602 212.075C79.3602 212.485 79.4602 212.965 79.4602 213.515C79.4602 213.945 79.3952 214.365 79.2652 214.775C79.1452 215.185 78.9402 215.56 78.6502 215.9C78.3602 216.23 77.9802 216.5 77.5102 216.71C77.0502 216.91 76.4802 217.01 75.8002 217.01H74.1952V221H72.7402V210.155H75.6202ZM75.7702 215.615C76.2002 215.615 76.5552 215.55 76.8352 215.42C77.1252 215.29 77.3502 215.125 77.5102 214.925C77.6702 214.715 77.7852 214.49 77.8552 214.25C77.9252 214.01 77.9602 213.785 77.9602 213.575C77.9602 213.355 77.9202 213.13 77.8402 212.9C77.7702 212.66 77.6502 212.44 77.4802 212.24C77.3202 212.04 77.1052 211.875 76.8352 211.745C76.5752 211.615 76.2552 211.55 75.8752 211.55H74.1952V215.615H75.7702ZM77.5552 216.44L80.3902 221H78.7102L75.8302 216.485L77.5552 216.44ZM81.5479 221L86.2879 209.705H86.3779L91.1029 221H89.4379L85.8979 211.985L86.9329 211.31L82.9729 221H81.5479ZM84.3229 216.89H88.3579L88.8379 218.15H83.9029L84.3229 216.89ZM93.1454 221V210.155H96.1004C97.1704 210.155 98.0804 210.32 98.8304 210.65C99.5904 210.98 100.2 211.415 100.66 211.955C101.12 212.495 101.455 213.095 101.665 213.755C101.885 214.405 101.995 215.055 101.995 215.705C101.995 216.525 101.85 217.26 101.56 217.91C101.28 218.56 100.89 219.115 100.39 219.575C99.8904 220.035 99.3154 220.39 98.6654 220.64C98.0254 220.88 97.3454 221 96.6254 221H93.1454ZM94.6004 219.605H96.3404C96.9404 219.605 97.4904 219.515 97.9904 219.335C98.5004 219.155 98.9404 218.895 99.3104 218.555C99.6904 218.215 99.9854 217.8 100.195 217.31C100.405 216.81 100.51 216.245 100.51 215.615C100.51 214.945 100.4 214.36 100.18 213.86C99.9604 213.35 99.6604 212.925 99.2804 212.585C98.9004 212.245 98.4704 211.99 97.9904 211.82C97.5104 211.64 97.0054 211.55 96.4754 211.55H94.6004V219.605ZM104.439 210.155H111.489V211.55H105.894V214.85H110.889V216.245H105.894V219.605H111.699V221H104.439V210.155ZM127.551 210.155V221H126.111V216.245H120.426V221H118.971V210.155H120.426V214.865H126.111V210.155H127.551ZM130.675 210.155H137.725V211.55H132.13V214.85H137.125V216.245H132.13V219.605H137.935V221H130.675V210.155ZM143.34 210.155C143.89 210.155 144.395 210.23 144.855 210.38C145.325 210.52 145.73 210.735 146.07 211.025C146.42 211.305 146.69 211.655 146.88 212.075C147.08 212.485 147.18 212.965 147.18 213.515C147.18 213.945 147.115 214.365 146.985 214.775C146.865 215.185 146.66 215.56 146.37 215.9C146.08 216.23 145.7 216.5 145.23 216.71C144.77 216.91 144.2 217.01 143.52 217.01H141.915V221H140.46V210.155H143.34ZM143.49 215.615C143.92 215.615 144.275 215.55 144.555 215.42C144.845 215.29 145.07 215.125 145.23 214.925C145.39 214.715 145.505 214.49 145.575 214.25C145.645 214.01 145.68 213.785 145.68 213.575C145.68 213.355 145.64 213.13 145.56 212.9C145.49 212.66 145.37 212.44 145.2 212.24C145.04 212.04 144.825 211.875 144.555 211.745C144.295 211.615 143.975 211.55 143.595 211.55H141.915V215.615H143.49ZM145.275 216.44L148.11 221H146.43L143.55 216.485L145.275 216.44ZM149.438 215.585C149.438 214.835 149.578 214.13 149.858 213.47C150.148 212.8 150.548 212.21 151.058 211.7C151.568 211.18 152.153 210.775 152.813 210.485C153.483 210.185 154.203 210.035 154.973 210.035C155.733 210.035 156.443 210.185 157.103 210.485C157.773 210.775 158.363 211.18 158.873 211.7C159.393 212.21 159.798 212.8 160.088 213.47C160.378 214.13 160.523 214.835 160.523 215.585C160.523 216.355 160.378 217.075 160.088 217.745C159.798 218.415 159.393 219.005 158.873 219.515C158.363 220.015 157.773 220.41 157.103 220.7C156.443 220.98 155.733 221.12 154.973 221.12C154.203 221.12 153.483 220.98 152.813 220.7C152.153 220.42 151.568 220.03 151.058 219.53C150.548 219.03 150.148 218.445 149.858 217.775C149.578 217.105 149.438 216.375 149.438 215.585ZM150.938 215.6C150.938 216.17 151.043 216.705 151.253 217.205C151.463 217.695 151.753 218.13 152.123 218.51C152.493 218.89 152.923 219.19 153.413 219.41C153.903 219.62 154.433 219.725 155.003 219.725C155.563 219.725 156.088 219.62 156.578 219.41C157.068 219.19 157.493 218.89 157.853 218.51C158.213 218.13 158.498 217.695 158.708 217.205C158.918 216.705 159.023 216.165 159.023 215.585C159.023 215.015 158.918 214.48 158.708 213.98C158.498 213.47 158.208 213.025 157.838 212.645C157.468 212.265 157.038 211.97 156.548 211.76C156.058 211.54 155.533 211.43 154.973 211.43C154.403 211.43 153.873 211.54 153.383 211.76C152.893 211.98 152.463 212.28 152.093 212.66C151.723 213.04 151.438 213.485 151.238 213.995C151.038 214.495 150.938 215.03 150.938 215.6ZM162.975 210.155H170.025V211.55H164.43V214.85H169.425V216.245H164.43V219.605H170.235V221H162.975V210.155ZM178.37 212.09C178 211.9 177.595 211.735 177.155 211.595C176.715 211.455 176.285 211.385 175.865 211.385C175.285 211.385 174.82 211.52 174.47 211.79C174.13 212.06 173.96 212.42 173.96 212.87C173.96 213.21 174.07 213.5 174.29 213.74C174.51 213.97 174.8 214.17 175.16 214.34C175.52 214.51 175.895 214.67 176.285 214.82C176.625 214.95 176.96 215.095 177.29 215.255C177.62 215.415 177.915 215.615 178.175 215.855C178.445 216.095 178.655 216.39 178.805 216.74C178.965 217.09 179.045 217.525 179.045 218.045C179.045 218.615 178.9 219.135 178.61 219.605C178.33 220.075 177.925 220.445 177.395 220.715C176.865 220.985 176.235 221.12 175.505 221.12C175.025 221.12 174.565 221.065 174.125 220.955C173.695 220.845 173.295 220.705 172.925 220.535C172.555 220.355 172.225 220.17 171.935 219.98L172.58 218.84C172.82 219.01 173.095 219.175 173.405 219.335C173.715 219.485 174.04 219.61 174.38 219.71C174.72 219.8 175.05 219.845 175.37 219.845C175.71 219.845 176.045 219.785 176.375 219.665C176.715 219.535 176.995 219.34 177.215 219.08C177.435 218.82 177.545 218.475 177.545 218.045C177.545 217.675 177.445 217.37 177.245 217.13C177.055 216.88 176.8 216.67 176.48 216.5C176.16 216.32 175.82 216.16 175.46 216.02C175.12 215.89 174.775 215.75 174.425 215.6C174.075 215.44 173.75 215.25 173.45 215.03C173.15 214.8 172.91 214.52 172.73 214.19C172.55 213.86 172.46 213.46 172.46 212.99C172.46 212.42 172.595 211.925 172.865 211.505C173.145 211.075 173.525 210.74 174.005 210.5C174.485 210.25 175.035 210.115 175.655 210.095C176.355 210.095 176.97 210.18 177.5 210.35C178.04 210.52 178.515 210.73 178.925 210.98L178.37 212.09ZM182.405 219.695C182.185 220.215 181.965 220.73 181.745 221.24C181.535 221.76 181.32 222.285 181.1 222.815H179.975C180.175 222.285 180.37 221.76 180.56 221.24C180.75 220.73 180.945 220.215 181.145 219.695H182.405ZM194.893 212.09C194.523 211.9 194.118 211.735 193.678 211.595C193.238 211.455 192.808 211.385 192.388 211.385C191.808 211.385 191.343 211.52 190.993 211.79C190.653 212.06 190.483 212.42 190.483 212.87C190.483 213.21 190.593 213.5 190.813 213.74C191.033 213.97 191.323 214.17 191.683 214.34C192.043 214.51 192.418 214.67 192.808 214.82C193.148 214.95 193.483 215.095 193.813 215.255C194.143 215.415 194.438 215.615 194.698 215.855C194.968 216.095 195.178 216.39 195.328 216.74C195.488 217.09 195.568 217.525 195.568 218.045C195.568 218.615 195.423 219.135 195.133 219.605C194.853 220.075 194.448 220.445 193.918 220.715C193.388 220.985 192.758 221.12 192.028 221.12C191.548 221.12 191.088 221.065 190.648 220.955C190.218 220.845 189.818 220.705 189.448 220.535C189.078 220.355 188.748 220.17 188.458 219.98L189.103 218.84C189.343 219.01 189.618 219.175 189.928 219.335C190.238 219.485 190.563 219.61 190.903 219.71C191.243 219.8 191.573 219.845 191.893 219.845C192.233 219.845 192.568 219.785 192.898 219.665C193.238 219.535 193.518 219.34 193.738 219.08C193.958 218.82 194.068 218.475 194.068 218.045C194.068 217.675 193.968 217.37 193.768 217.13C193.578 216.88 193.323 216.67 193.003 216.5C192.683 216.32 192.343 216.16 191.983 216.02C191.643 215.89 191.298 215.75 190.948 215.6C190.598 215.44 190.273 215.25 189.973 215.03C189.673 214.8 189.433 214.52 189.253 214.19C189.073 213.86 188.983 213.46 188.983 212.99C188.983 212.42 189.118 211.925 189.388 211.505C189.668 211.075 190.048 210.74 190.528 210.5C191.008 210.25 191.558 210.115 192.178 210.095C192.878 210.095 193.493 210.18 194.023 210.35C194.563 210.52 195.038 210.73 195.448 210.98L194.893 212.09ZM199.484 214.52L199.439 215.06L199.634 214.79L204.074 210.155H205.949L201.464 214.805L206.204 221H204.359L200.399 215.735L199.484 216.62V221H198.014V210.155H199.484V214.52ZM208.194 210.155H209.649V221H208.194V210.155ZM222.155 221.345L213.77 212.84L214.19 212.945L214.22 221H212.765V209.825H212.84L221.135 218.36L220.79 218.285L220.76 210.155H222.2V221.345H222.155ZM230.928 212.09C230.558 211.9 230.153 211.735 229.713 211.595C229.273 211.455 228.843 211.385 228.423 211.385C227.843 211.385 227.378 211.52 227.028 211.79C226.688 212.06 226.518 212.42 226.518 212.87C226.518 213.21 226.628 213.5 226.848 213.74C227.068 213.97 227.358 214.17 227.718 214.34C228.078 214.51 228.453 214.67 228.843 214.82C229.183 214.95 229.518 215.095 229.848 215.255C230.178 215.415 230.473 215.615 230.733 215.855C231.003 216.095 231.213 216.39 231.363 216.74C231.523 217.09 231.603 217.525 231.603 218.045C231.603 218.615 231.458 219.135 231.168 219.605C230.888 220.075 230.483 220.445 229.953 220.715C229.423 220.985 228.793 221.12 228.063 221.12C227.583 221.12 227.123 221.065 226.683 220.955C226.253 220.845 225.853 220.705 225.483 220.535C225.113 220.355 224.783 220.17 224.493 219.98L225.138 218.84C225.378 219.01 225.653 219.175 225.963 219.335C226.273 219.485 226.598 219.61 226.938 219.71C227.278 219.8 227.608 219.845 227.928 219.845C228.268 219.845 228.603 219.785 228.933 219.665C229.273 219.535 229.553 219.34 229.773 219.08C229.993 218.82 230.103 218.475 230.103 218.045C230.103 217.675 230.003 217.37 229.803 217.13C229.613 216.88 229.358 216.67 229.038 216.5C228.718 216.32 228.378 216.16 228.018 216.02C227.678 215.89 227.333 215.75 226.983 215.6C226.633 215.44 226.308 215.25 226.008 215.03C225.708 214.8 225.468 214.52 225.288 214.19C225.108 213.86 225.018 213.46 225.018 212.99C225.018 212.42 225.153 211.925 225.423 211.505C225.703 211.075 226.083 210.74 226.563 210.5C227.043 210.25 227.593 210.115 228.213 210.095C228.913 210.095 229.528 210.18 230.058 210.35C230.598 210.52 231.073 210.73 231.483 210.98L230.928 212.09ZM234.964 219.695C234.744 220.215 234.524 220.73 234.304 221.24C234.094 221.76 233.879 222.285 233.659 222.815H232.534C232.734 222.285 232.929 221.76 233.119 221.24C233.309 220.73 233.504 220.215 233.704 219.695H234.964ZM71.9928 227.09C71.6228 226.9 71.2178 226.735 70.7778 226.595C70.3378 226.455 69.9078 226.385 69.4878 226.385C68.9078 226.385 68.4428 226.52 68.0928 226.79C67.7528 227.06 67.5828 227.42 67.5828 227.87C67.5828 228.21 67.6928 228.5 67.9128 228.74C68.1328 228.97 68.4228 229.17 68.7828 229.34C69.1428 229.51 69.5178 229.67 69.9078 229.82C70.2478 229.95 70.5828 230.095 70.9128 230.255C71.2428 230.415 71.5378 230.615 71.7978 230.855C72.0678 231.095 72.2778 231.39 72.4278 231.74C72.5878 232.09 72.6678 232.525 72.6678 233.045C72.6678 233.615 72.5228 234.135 72.2328 234.605C71.9528 235.075 71.5478 235.445 71.0178 235.715C70.4878 235.985 69.8578 236.12 69.1278 236.12C68.6478 236.12 68.1878 236.065 67.7478 235.955C67.3178 235.845 66.9178 235.705 66.5478 235.535C66.1778 235.355 65.8478 235.17 65.5578 234.98L66.2028 233.84C66.4428 234.01 66.7178 234.175 67.0278 234.335C67.3378 234.485 67.6628 234.61 68.0028 234.71C68.3428 234.8 68.6728 234.845 68.9928 234.845C69.3328 234.845 69.6678 234.785 69.9978 234.665C70.3378 234.535 70.6178 234.34 70.8378 234.08C71.0578 233.82 71.1678 233.475 71.1678 233.045C71.1678 232.675 71.0678 232.37 70.8678 232.13C70.6778 231.88 70.4228 231.67 70.1028 231.5C69.7828 231.32 69.4428 231.16 69.0828 231.02C68.7428 230.89 68.3978 230.75 68.0478 230.6C67.6978 230.44 67.3728 230.25 67.0728 230.03C66.7728 229.8 66.5328 229.52 66.3528 229.19C66.1728 228.86 66.0828 228.46 66.0828 227.99C66.0828 227.42 66.2178 226.925 66.4878 226.505C66.7678 226.075 67.1478 225.74 67.6278 225.5C68.1078 225.25 68.6578 225.115 69.2778 225.095C69.9778 225.095 70.5928 225.18 71.1228 225.35C71.6628 225.52 72.1378 225.73 72.5478 225.98L71.9928 227.09ZM83.6932 225.155V236H82.2532V231.245H76.5682V236H75.1132V225.155H76.5682V229.865H82.2532V225.155H83.6932ZM85.7373 236L90.4773 224.705H90.5673L95.2923 236H93.6273L90.0873 226.985L91.1223 226.31L87.1623 236H85.7373ZM88.5123 231.89H92.5473L93.0273 233.15H88.0923L88.5123 231.89ZM100.215 225.155C100.765 225.155 101.27 225.23 101.73 225.38C102.2 225.52 102.605 225.735 102.945 226.025C103.295 226.305 103.565 226.655 103.755 227.075C103.955 227.485 104.055 227.965 104.055 228.515C104.055 228.945 103.99 229.365 103.86 229.775C103.74 230.185 103.535 230.56 103.245 230.9C102.955 231.23 102.575 231.5 102.105 231.71C101.645 231.91 101.075 232.01 100.395 232.01H98.7899V236H97.3349V225.155H100.215ZM100.365 230.615C100.795 230.615 101.15 230.55 101.43 230.42C101.72 230.29 101.945 230.125 102.105 229.925C102.265 229.715 102.38 229.49 102.45 229.25C102.52 229.01 102.555 228.785 102.555 228.575C102.555 228.355 102.515 228.13 102.435 227.9C102.365 227.66 102.245 227.44 102.075 227.24C101.915 227.04 101.7 226.875 101.43 226.745C101.17 226.615 100.85 226.55 100.47 226.55H98.7899V230.615H100.365ZM102.15 231.44L104.985 236H103.305L100.425 231.485L102.15 231.44ZM107.223 236V225.155H110.178C111.248 225.155 112.158 225.32 112.908 225.65C113.668 225.98 114.278 226.415 114.738 226.955C115.198 227.495 115.533 228.095 115.743 228.755C115.963 229.405 116.073 230.055 116.073 230.705C116.073 231.525 115.928 232.26 115.638 232.91C115.358 233.56 114.968 234.115 114.468 234.575C113.968 235.035 113.393 235.39 112.743 235.64C112.103 235.88 111.423 236 110.703 236H107.223ZM108.678 234.605H110.418C111.018 234.605 111.568 234.515 112.068 234.335C112.578 234.155 113.018 233.895 113.388 233.555C113.768 233.215 114.063 232.8 114.273 232.31C114.483 231.81 114.588 231.245 114.588 230.615C114.588 229.945 114.478 229.36 114.258 228.86C114.038 228.35 113.738 227.925 113.358 227.585C112.978 227.245 112.548 226.99 112.068 226.82C111.588 226.64 111.083 226.55 110.553 226.55H108.678V234.605ZM124.127 227.09C123.757 226.9 123.352 226.735 122.912 226.595C122.472 226.455 122.042 226.385 121.622 226.385C121.042 226.385 120.577 226.52 120.227 226.79C119.887 227.06 119.717 227.42 119.717 227.87C119.717 228.21 119.827 228.5 120.047 228.74C120.267 228.97 120.557 229.17 120.917 229.34C121.277 229.51 121.652 229.67 122.042 229.82C122.382 229.95 122.717 230.095 123.047 230.255C123.377 230.415 123.672 230.615 123.932 230.855C124.202 231.095 124.412 231.39 124.562 231.74C124.722 232.09 124.802 232.525 124.802 233.045C124.802 233.615 124.657 234.135 124.367 234.605C124.087 235.075 123.682 235.445 123.152 235.715C122.622 235.985 121.992 236.12 121.262 236.12C120.782 236.12 120.322 236.065 119.882 235.955C119.452 235.845 119.052 235.705 118.682 235.535C118.312 235.355 117.982 235.17 117.692 234.98L118.337 233.84C118.577 234.01 118.852 234.175 119.162 234.335C119.472 234.485 119.797 234.61 120.137 234.71C120.477 234.8 120.807 234.845 121.127 234.845C121.467 234.845 121.802 234.785 122.132 234.665C122.472 234.535 122.752 234.34 122.972 234.08C123.192 233.82 123.302 233.475 123.302 233.045C123.302 232.675 123.202 232.37 123.002 232.13C122.812 231.88 122.557 231.67 122.237 231.5C121.917 231.32 121.577 231.16 121.217 231.02C120.877 230.89 120.532 230.75 120.182 230.6C119.832 230.44 119.507 230.25 119.207 230.03C118.907 229.8 118.667 229.52 118.487 229.19C118.307 228.86 118.217 228.46 118.217 227.99C118.217 227.42 118.352 226.925 118.622 226.505C118.902 226.075 119.282 225.74 119.762 225.5C120.242 225.25 120.792 225.115 121.412 225.095C122.112 225.095 122.727 225.18 123.257 225.35C123.797 225.52 124.272 225.73 124.682 225.98L124.127 227.09ZM130.913 236L135.653 224.705H135.743L140.468 236H138.803L135.263 226.985L136.298 226.31L132.338 236H130.913ZM133.688 231.89H137.723L138.203 233.15H133.268L133.688 231.89ZM151.901 236.345L143.516 227.84L143.936 227.945L143.966 236H142.511V224.825H142.586L150.881 233.36L150.536 233.285L150.506 225.155H151.946V236.345H151.901ZM155.064 236V225.155H158.019C159.089 225.155 159.999 225.32 160.749 225.65C161.509 225.98 162.119 226.415 162.579 226.955C163.039 227.495 163.374 228.095 163.584 228.755C163.804 229.405 163.914 230.055 163.914 230.705C163.914 231.525 163.769 232.26 163.479 232.91C163.199 233.56 162.809 234.115 162.309 234.575C161.809 235.035 161.234 235.39 160.584 235.64C159.944 235.88 159.264 236 158.544 236H155.064ZM156.519 234.605H158.259C158.859 234.605 159.409 234.515 159.909 234.335C160.419 234.155 160.859 233.895 161.229 233.555C161.609 233.215 161.904 232.8 162.114 232.31C162.324 231.81 162.429 231.245 162.429 230.615C162.429 229.945 162.319 229.36 162.099 228.86C161.879 228.35 161.579 227.925 161.199 227.585C160.819 227.245 160.389 226.99 159.909 226.82C159.429 226.64 158.924 226.55 158.394 226.55H156.519V234.605ZM170.309 225.155H177.509V226.55H174.599V236H173.144V226.55H170.309V225.155ZM179.82 225.155H181.275V236H179.82V225.155ZM192.356 235.19C192.176 235.31 191.931 235.445 191.621 235.595C191.311 235.745 190.946 235.87 190.526 235.97C190.116 236.07 189.666 236.12 189.176 236.12C188.336 236.11 187.576 235.96 186.896 235.67C186.226 235.38 185.656 234.985 185.186 234.485C184.716 233.985 184.351 233.41 184.091 232.76C183.841 232.1 183.716 231.4 183.716 230.66C183.716 229.85 183.846 229.105 184.106 228.425C184.376 227.735 184.751 227.14 185.231 226.64C185.711 226.13 186.276 225.735 186.926 225.455C187.586 225.175 188.306 225.035 189.086 225.035C189.736 225.035 190.326 225.125 190.856 225.305C191.386 225.475 191.841 225.68 192.221 225.92L191.636 227.27C191.336 227.07 190.971 226.88 190.541 226.7C190.121 226.52 189.651 226.43 189.131 226.43C188.601 226.43 188.101 226.535 187.631 226.745C187.161 226.955 186.746 227.25 186.386 227.63C186.026 228.01 185.741 228.455 185.531 228.965C185.331 229.465 185.231 230.005 185.231 230.585C185.231 231.175 185.321 231.725 185.501 232.235C185.691 232.735 185.956 233.17 186.296 233.54C186.646 233.91 187.066 234.2 187.556 234.41C188.046 234.62 188.596 234.725 189.206 234.725C189.756 234.725 190.246 234.64 190.676 234.47C191.106 234.3 191.461 234.11 191.741 233.9L192.356 235.19ZM196.276 229.52L196.231 230.06L196.426 229.79L200.866 225.155H202.741L198.256 229.805L202.996 236H201.151L197.191 230.735L196.276 231.62V236H194.806V225.155H196.276V229.52ZM204.986 225.155H212.036V226.55H206.441V229.85H211.436V231.245H206.441V234.605H212.246V236H204.986V225.155ZM213.976 225.155H221.176V226.55H218.266V236H216.811V226.55H213.976V225.155ZM229.097 227.09C228.727 226.9 228.322 226.735 227.882 226.595C227.442 226.455 227.012 226.385 226.592 226.385C226.012 226.385 225.547 226.52 225.197 226.79C224.857 227.06 224.687 227.42 224.687 227.87C224.687 228.21 224.797 228.5 225.017 228.74C225.237 228.97 225.527 229.17 225.887 229.34C226.247 229.51 226.622 229.67 227.012 229.82C227.352 229.95 227.687 230.095 228.017 230.255C228.347 230.415 228.642 230.615 228.902 230.855C229.172 231.095 229.382 231.39 229.532 231.74C229.692 232.09 229.772 232.525 229.772 233.045C229.772 233.615 229.627 234.135 229.337 234.605C229.057 235.075 228.652 235.445 228.122 235.715C227.592 235.985 226.962 236.12 226.232 236.12C225.752 236.12 225.292 236.065 224.852 235.955C224.422 235.845 224.022 235.705 223.652 235.535C223.282 235.355 222.952 235.17 222.662 234.98L223.307 233.84C223.547 234.01 223.822 234.175 224.132 234.335C224.442 234.485 224.767 234.61 225.107 234.71C225.447 234.8 225.777 234.845 226.097 234.845C226.437 234.845 226.772 234.785 227.102 234.665C227.442 234.535 227.722 234.34 227.942 234.08C228.162 233.82 228.272 233.475 228.272 233.045C228.272 232.675 228.172 232.37 227.972 232.13C227.782 231.88 227.527 231.67 227.207 231.5C226.887 231.32 226.547 231.16 226.187 231.02C225.847 230.89 225.502 230.75 225.152 230.6C224.802 230.44 224.477 230.25 224.177 230.03C223.877 229.8 223.637 229.52 223.457 229.19C223.277 228.86 223.187 228.46 223.187 227.99C223.187 227.42 223.322 226.925 223.592 226.505C223.872 226.075 224.252 225.74 224.732 225.5C225.212 225.25 225.762 225.115 226.382 225.095C227.082 225.095 227.697 225.18 228.227 225.35C228.767 225.52 229.242 225.73 229.652 225.98L229.097 227.09ZM231.168 235.205C231.168 234.985 231.248 234.8 231.408 234.65C231.578 234.49 231.763 234.41 231.963 234.41C232.143 234.41 232.313 234.49 232.473 234.65C232.643 234.8 232.728 234.985 232.728 235.205C232.728 235.445 232.643 235.64 232.473 235.79C232.313 235.93 232.143 236 231.963 236C231.763 236 231.578 235.93 231.408 235.79C231.248 235.64 231.168 235.445 231.168 235.205Z" fill="white"/>
</g>
<defs>
<linearGradient id="paint0_linear_385_19116" x1="148.58" y1="2.00016" x2="148.58" y2="368.59" gradientUnits="userSpaceOnUse">
<stop stop-color="#FFEED6"/>
<stop offset="0.65" stop-color="#DFC28D"/>
<stop offset="1" stop-color="#D0AD6A"/>
</linearGradient>
<linearGradient id="paint1_linear_385_19116" x1="-nan" y1="-nan" x2="-nan" y2="-nan" gradientUnits="userSpaceOnUse">
<stop stop-color="#FFEED6"/>
<stop offset="0.65" stop-color="#DFC28D"/>
<stop offset="1" stop-color="#D0AD6A"/>
</linearGradient>
<linearGradient id="paint2_linear_385_19116" x1="-nan" y1="-nan" x2="-nan" y2="-nan" gradientUnits="userSpaceOnUse">
<stop stop-color="#FFEED6"/>
<stop offset="0.65" stop-color="#DFC28D"/>
<stop offset="1" stop-color="#D0AD6A"/>
</linearGradient>
<radialGradient id="paint3_radial_385_19116" cx="0" cy="0" r="1" gradientUnits="userSpaceOnUse" gradientTransform="translate(148.98 359.5) scale(271.7 271.7)">
<stop stop-color="#A2743D"/>
<stop offset="1"/>
</radialGradient>
<linearGradient id="paint4_linear_385_19116" x1="148.58" y1="22.1999" x2="148.58" y2="348.39" gradientUnits="userSpaceOnUse">
<stop stop-color="#FFEED6"/>
<stop offset="0.65" stop-color="#DFC28D"/>
<stop offset="1" stop-color="#D0AD6A"/>
</linearGradient>
<linearGradient id="paint5_linear_385_19116" x1="148.58" y1="33.8601" x2="148.58" y2="336.73" gradientUnits="userSpaceOnUse">
<stop stop-color="#FFEED6"/>
<stop offset="0.65" stop-color="#DFC28D"/>
<stop offset="1" stop-color="#D0AD6A"/>
</linearGradient>
<linearGradient id="paint6_linear_385_19116" x1="-nan" y1="-nan" x2="-nan" y2="-nan" gradientUnits="userSpaceOnUse">
<stop stop-color="#FFEED6"/>
<stop offset="0.65" stop-color="#DFC28D"/>
<stop offset="1" stop-color="#D0AD6A"/>
</linearGradient>
<linearGradient id="paint7_linear_385_19116" x1="-nan" y1="-nan" x2="-nan" y2="-nan" gradientUnits="userSpaceOnUse">
<stop stop-color="#FFEED6"/>
<stop offset="0.65" stop-color="#DFC28D"/>
<stop offset="1" stop-color="#D0AD6A"/>
</linearGradient>
<linearGradient id="paint8_linear_385_19116" x1="159.698" y1="162.517" x2="159.698" y2="76.8589" gradientUnits="userSpaceOnUse">
<stop stop-color="#CDA25F"/>
<stop offset="0.0146738" stop-color="#CEA462"/>
<stop offset="0.2168" stop-color="#D8BA81"/>
<stop offset="0.4135" stop-color="#DFCA97"/>
<stop offset="0.6008" stop-color="#E4D4A4"/>
<stop offset="0.7684" stop-color="#E5D7A9"/>
</linearGradient>
<linearGradient id="paint9_linear_385_19116" x1="149" y1="162.26" x2="149" y2="76.8306" gradientUnits="userSpaceOnUse">
<stop stop-color="#CDA25F"/>
<stop offset="0.0146738" stop-color="#CEA462"/>
<stop offset="0.2168" stop-color="#D8BA81"/>
<stop offset="0.4135" stop-color="#DFCA97"/>
<stop offset="0.6008" stop-color="#E4D4A4"/>
<stop offset="0.7684" stop-color="#E5D7A9"/>
</linearGradient>
<clipPath id="clip0_385_19116">
<rect width="297" height="370" fill="white"/>
</clipPath>
</defs>
</svg>
