<svg width="297" height="370" viewBox="0 0 297 370" fill="none" xmlns="http://www.w3.org/2000/svg">
<g clip-path="url(#clip0_385_19133)">
<path d="M219.53 326.96V43.6302L148.58 2.66016L77.6299 43.6302V326.96L148.58 367.93L219.53 326.96Z" stroke="url(#paint0_linear_385_19133)" stroke-width="1.15" stroke-miterlimit="10"/>
<path d="M211.09 331.43V39.1602" stroke="url(#paint1_linear_385_19133)" stroke-width="1.01" stroke-miterlimit="10"/>
<path d="M86.0703 39.1602V331.43" stroke="url(#paint2_linear_385_19133)" stroke-width="1.01" stroke-miterlimit="10"/>
<path d="M287.72 265.63V104.96L148.58 24.6299L9.44043 104.96V265.63L148.58 345.96L287.72 265.63Z" fill="url(#paint3_radial_385_19133)" stroke="url(#paint4_linear_385_19133)" stroke-width="4.21" stroke-miterlimit="10"/>
<path d="M278.68 260.4V110.19L148.58 35.0801L18.4902 110.19V260.4L148.58 335.52L278.68 260.4Z" stroke="url(#paint5_linear_385_19133)" stroke-width="2.11" stroke-miterlimit="10"/>
<path d="M1.58008 140.99V229.6" stroke="url(#paint6_linear_385_19133)" stroke-width="1.16" stroke-miterlimit="10"/>
<path d="M295.58 140.99V229.6" stroke="url(#paint7_linear_385_19133)" stroke-width="1.16" stroke-miterlimit="10"/>
<path d="M174.899 124.251C173.575 122.584 171.156 122.289 169.481 123.605L158.545 132.179C158.006 132.604 157.336 132.833 156.641 132.833L148.803 132.841C147.732 132.841 146.874 131.975 146.866 130.912C146.866 129.85 147.732 128.983 148.795 128.983L155.358 128.975C157.491 128.975 159.215 127.242 159.215 125.109C159.215 122.976 157.483 121.251 155.349 121.251L148.075 121.26L143.114 121.268H140.319H139.306C137.23 121.268 135.219 121.971 133.585 123.246L128.231 127.455C127.896 127.716 127.839 128.207 128.1 128.542L138.521 141.717C138.668 141.897 138.889 142.011 139.118 142.011L151.721 142.117L155.202 142.15C157.319 142.166 159.371 141.463 161.03 140.156L174.262 129.694C175.937 128.362 176.223 125.926 174.899 124.251Z" fill="url(#paint8_linear_385_19133)"/>
<path d="M125.068 130.937C124.806 130.602 124.316 130.544 123.981 130.806L121.553 132.718C121.218 132.98 121.161 133.47 121.423 133.805L131.59 146.67C131.852 147.005 132.342 147.062 132.677 146.801L135.104 144.888C135.44 144.627 135.497 144.136 135.235 143.801L125.068 130.937Z" fill="url(#paint9_linear_385_19133)"/>
<path d="M135.187 103.107C135.187 111.436 141.937 118.178 150.258 118.178C151.214 118.178 152.137 118.089 153.045 117.925C146.049 116.617 140.761 110.479 140.761 103.107C140.761 95.7352 146.057 89.5972 153.045 88.2895C152.137 88.1179 151.214 88.0361 150.258 88.0361C141.937 88.0361 135.187 94.7789 135.187 103.107Z" fill="url(#paint10_linear_385_19133)"/>
<path d="M151.941 111.436L152.988 114.746L154.026 111.436L152.988 110.39L151.941 111.436Z" fill="url(#paint11_linear_385_19133)"/>
<path d="M158.709 105.682L157.564 105.445L157.475 105.821C156.919 108.101 156.159 108.444 153.821 108.444H150.111C150.503 107.938 150.724 107.308 150.724 106.622V103.279C150.724 102.903 150.625 102.568 150.446 102.274H153.363C153.658 102.274 153.748 102.364 153.772 102.396C153.96 102.584 153.952 103.066 153.952 103.491V104.08H155.088V99.3558H153.952V99.9443C153.952 100.361 153.96 100.835 153.78 101.023C153.748 101.056 153.658 101.146 153.363 101.146H150.724V95.6779H154.483C155.922 95.6779 156.379 95.9313 156.379 96.7241C156.379 97.1818 156.281 97.6395 156.183 98.0318L156.085 98.4241L157.188 98.6856L158.153 94.5664H147.258V95.6861H147.569C148.484 95.6861 148.631 95.8659 148.631 96.2909V101.154H147.275V102.274H147.675C148.631 102.274 148.631 102.274 148.631 103.565V107.055C148.631 108.224 148.468 108.461 147.65 108.461H147.25V109.572H157.736L158.709 105.682Z" fill="url(#paint12_linear_385_19133)"/>
<path d="M135.187 103.107C135.187 111.436 141.937 118.178 150.258 118.178C151.214 118.178 152.137 118.089 153.045 117.925C146.049 116.617 140.761 110.479 140.761 103.107C140.761 95.7352 146.057 89.5972 153.045 88.2895C152.137 88.1179 151.214 88.0361 150.258 88.0361C141.937 88.0361 135.187 94.7789 135.187 103.107Z" fill="url(#paint13_linear_385_19133)"/>
<path d="M155.407 88.9922L153.314 89.3845C159.591 90.7984 164.291 96.4133 164.291 103.107C164.291 109.801 159.591 115.416 153.314 116.83L155.407 117.222C161.161 115.105 165.255 109.588 165.255 103.107C165.255 96.6258 161.152 91.109 155.407 88.9922Z" fill="url(#paint14_linear_385_19133)"/>
<path d="M77.3179 191.36V182.64L77.8779 181.88V174.1H79.2379V182.26L78.6979 183.24V191.36H77.3179ZM81.9779 178.4C81.4579 178.133 80.9046 177.907 80.3179 177.72C79.7312 177.52 79.1712 177.42 78.6379 177.42C77.9179 177.42 77.3446 177.58 76.9179 177.9C76.5046 178.22 76.2979 178.66 76.2979 179.22C76.2979 179.62 76.4379 179.973 76.7179 180.28C77.0112 180.573 77.3846 180.833 77.8379 181.06C78.3046 181.273 78.7912 181.48 79.2979 181.68C79.7379 181.84 80.1712 182.033 80.5979 182.26C81.0379 182.473 81.4312 182.74 81.7779 183.06C82.1246 183.38 82.3979 183.78 82.5979 184.26C82.7979 184.727 82.8979 185.307 82.8979 186C82.8979 186.76 82.7046 187.46 82.3179 188.1C81.9446 188.727 81.3979 189.227 80.6779 189.6C79.9579 189.973 79.0846 190.16 78.0579 190.16C77.4446 190.16 76.8446 190.093 76.2579 189.96C75.6846 189.827 75.1379 189.647 74.6179 189.42C74.0979 189.18 73.6179 188.913 73.1779 188.62L74.2179 186.8C74.5379 187.04 74.9046 187.26 75.3179 187.46C75.7312 187.66 76.1579 187.82 76.5979 187.94C77.0379 188.06 77.4512 188.12 77.8379 188.12C78.2512 188.12 78.6579 188.053 79.0579 187.92C79.4712 187.773 79.8112 187.547 80.0779 187.24C80.3579 186.933 80.4979 186.527 80.4979 186.02C80.4979 185.607 80.3779 185.253 80.1379 184.96C79.9112 184.667 79.6046 184.413 79.2179 184.2C78.8312 183.973 78.4112 183.773 77.9579 183.6C77.5046 183.427 77.0446 183.233 76.5779 183.02C76.1112 182.807 75.6712 182.547 75.2579 182.24C74.8579 181.92 74.5312 181.533 74.2779 181.08C74.0246 180.627 73.8979 180.067 73.8979 179.4C73.8979 178.6 74.0846 177.907 74.4579 177.32C74.8312 176.733 75.3446 176.267 75.9979 175.92C76.6646 175.573 77.4312 175.387 78.2979 175.36C79.3246 175.36 80.1979 175.487 80.9179 175.74C81.6512 175.98 82.2979 176.273 82.8579 176.62L81.9779 178.4ZM85.6855 175.44H95.3455V177.68H88.0255V181.56H94.5455V183.8H88.0255V187.76H95.6255V190H85.6855V175.44ZM100.37 175.44L104.95 186.84L103.61 186.58L107.89 175.44H110.63L104.11 190.68L97.5896 175.44H100.37ZM113.361 190V174.92H113.381L121.221 186.02L120.221 185.8L128.021 174.92H128.061V190H125.741V180.18L125.901 181.36L120.621 188.82H120.581L115.221 181.36L115.621 180.28V190H113.361ZM146.099 178.4C145.579 178.133 145.026 177.907 144.439 177.72C143.852 177.52 143.292 177.42 142.759 177.42C142.039 177.42 141.466 177.58 141.039 177.9C140.626 178.22 140.419 178.66 140.419 179.22C140.419 179.62 140.559 179.973 140.839 180.28C141.132 180.573 141.506 180.833 141.959 181.06C142.426 181.273 142.912 181.48 143.419 181.68C143.859 181.84 144.292 182.033 144.719 182.26C145.159 182.473 145.552 182.74 145.899 183.06C146.246 183.38 146.519 183.78 146.719 184.26C146.919 184.727 147.019 185.307 147.019 186C147.019 186.76 146.826 187.46 146.439 188.1C146.066 188.727 145.519 189.227 144.799 189.6C144.079 189.973 143.206 190.16 142.179 190.16C141.566 190.16 140.966 190.093 140.379 189.96C139.806 189.827 139.259 189.647 138.739 189.42C138.219 189.18 137.739 188.913 137.299 188.62L138.339 186.8C138.659 187.04 139.026 187.26 139.439 187.46C139.852 187.66 140.279 187.82 140.719 187.94C141.159 188.06 141.572 188.12 141.959 188.12C142.372 188.12 142.779 188.053 143.179 187.92C143.592 187.773 143.932 187.547 144.199 187.24C144.479 186.933 144.619 186.527 144.619 186.02C144.619 185.607 144.499 185.253 144.259 184.96C144.032 184.667 143.726 184.413 143.339 184.2C142.952 183.973 142.532 183.773 142.079 183.6C141.626 183.427 141.166 183.233 140.699 183.02C140.232 182.807 139.792 182.547 139.379 182.24C138.979 181.92 138.652 181.533 138.399 181.08C138.146 180.627 138.019 180.067 138.019 179.4C138.019 178.6 138.206 177.907 138.579 177.32C138.952 176.733 139.466 176.267 140.119 175.92C140.786 175.573 141.552 175.387 142.419 175.36C143.446 175.36 144.319 175.487 145.039 175.74C145.772 175.98 146.419 176.273 146.979 176.62L146.099 178.4ZM149.001 175.44H158.741V177.68H154.981V190H152.661V177.68H149.001V175.44ZM159.029 190L165.469 174.84H165.609L172.049 190H169.369L164.849 178.48L166.509 177.36L161.309 190H159.029ZM163.069 184.58H168.049L168.849 186.58H162.369L163.069 184.58ZM176.893 181.02L176.833 181.76L177.153 181.3L182.633 175.44H185.633L179.613 181.8L185.853 190H182.893L177.913 183.28L176.893 184.28V190H174.533V175.44H176.893V181.02ZM188.322 175.44H190.662V190H188.322V175.44ZM207.47 190.52L196.29 179.68L196.97 179.96L197.03 190H194.67V174.94H194.79L205.79 185.78L205.25 185.62L205.21 175.44H207.53V190.52H207.47ZM223.125 188.66C222.938 188.847 222.658 189.027 222.285 189.2C221.925 189.373 221.518 189.533 221.065 189.68C220.612 189.827 220.145 189.94 219.665 190.02C219.185 190.113 218.732 190.16 218.305 190.16C217.132 190.16 216.072 189.98 215.125 189.62C214.192 189.26 213.392 188.767 212.725 188.14C212.058 187.5 211.545 186.747 211.185 185.88C210.825 185.013 210.645 184.073 210.645 183.06C210.645 181.793 210.845 180.68 211.245 179.72C211.645 178.747 212.192 177.933 212.885 177.28C213.578 176.613 214.372 176.113 215.265 175.78C216.172 175.447 217.125 175.28 218.125 175.28C219.005 175.28 219.818 175.38 220.565 175.58C221.325 175.78 221.972 176.033 222.505 176.34L221.745 178.5C221.492 178.353 221.165 178.213 220.765 178.08C220.365 177.933 219.958 177.82 219.545 177.74C219.132 177.66 218.758 177.62 218.425 177.62C217.585 177.62 216.832 177.74 216.165 177.98C215.512 178.207 214.952 178.547 214.485 179C214.018 179.453 213.658 180.007 213.405 180.66C213.165 181.3 213.045 182.033 213.045 182.86C213.045 183.607 213.172 184.287 213.425 184.9C213.692 185.513 214.058 186.04 214.525 186.48C214.992 186.92 215.552 187.26 216.205 187.5C216.858 187.727 217.578 187.84 218.365 187.84C218.818 187.84 219.258 187.8 219.685 187.72C220.112 187.64 220.478 187.513 220.785 187.34V184.92H218.045V182.68H223.125V188.66Z" fill="white"/>
<path d="M87.9506 210.155H89.4056V221H87.9506V210.155ZM101.911 221.345L93.5259 212.84L93.9459 212.945L93.9759 221H92.5209V209.825H92.5959L100.891 218.36L100.546 218.285L100.516 210.155H101.956V221.345H101.911ZM113.04 220.19C112.86 220.31 112.615 220.445 112.305 220.595C111.995 220.745 111.63 220.87 111.21 220.97C110.8 221.07 110.35 221.12 109.86 221.12C109.02 221.11 108.26 220.96 107.58 220.67C106.91 220.38 106.34 219.985 105.87 219.485C105.4 218.985 105.035 218.41 104.775 217.76C104.525 217.1 104.4 216.4 104.4 215.66C104.4 214.85 104.53 214.105 104.79 213.425C105.06 212.735 105.435 212.14 105.915 211.64C106.395 211.13 106.96 210.735 107.61 210.455C108.27 210.175 108.99 210.035 109.77 210.035C110.42 210.035 111.01 210.125 111.54 210.305C112.07 210.475 112.525 210.68 112.905 210.92L112.32 212.27C112.02 212.07 111.655 211.88 111.225 211.7C110.805 211.52 110.335 211.43 109.815 211.43C109.285 211.43 108.785 211.535 108.315 211.745C107.845 211.955 107.43 212.25 107.07 212.63C106.71 213.01 106.425 213.455 106.215 213.965C106.015 214.465 105.915 215.005 105.915 215.585C105.915 216.175 106.005 216.725 106.185 217.235C106.375 217.735 106.64 218.17 106.98 218.54C107.33 218.91 107.75 219.2 108.24 219.41C108.73 219.62 109.28 219.725 109.89 219.725C110.44 219.725 110.93 219.64 111.36 219.47C111.79 219.3 112.145 219.11 112.425 218.9L113.04 220.19ZM118.37 210.155C118.92 210.155 119.425 210.23 119.885 210.38C120.355 210.52 120.76 210.735 121.1 211.025C121.45 211.305 121.72 211.655 121.91 212.075C122.11 212.485 122.21 212.965 122.21 213.515C122.21 213.945 122.145 214.365 122.015 214.775C121.895 215.185 121.69 215.56 121.4 215.9C121.11 216.23 120.73 216.5 120.26 216.71C119.8 216.91 119.23 217.01 118.55 217.01H116.945V221H115.49V210.155H118.37ZM118.52 215.615C118.95 215.615 119.305 215.55 119.585 215.42C119.875 215.29 120.1 215.125 120.26 214.925C120.42 214.715 120.535 214.49 120.605 214.25C120.675 214.01 120.71 213.785 120.71 213.575C120.71 213.355 120.67 213.13 120.59 212.9C120.52 212.66 120.4 212.44 120.23 212.24C120.07 212.04 119.855 211.875 119.585 211.745C119.325 211.615 119.005 211.55 118.625 211.55H116.945V215.615H118.52ZM120.305 216.44L123.14 221H121.46L118.58 216.485L120.305 216.44ZM125.377 210.155H132.427V211.55H126.832V214.85H131.827V216.245H126.832V219.605H132.637V221H125.377V210.155ZM134.083 221L138.823 209.705H138.913L143.638 221H141.973L138.433 211.985L139.468 211.31L135.508 221H134.083ZM136.858 216.89H140.893L141.373 218.15H136.438L136.858 216.89ZM151.29 212.09C150.92 211.9 150.515 211.735 150.075 211.595C149.635 211.455 149.205 211.385 148.785 211.385C148.205 211.385 147.74 211.52 147.39 211.79C147.05 212.06 146.88 212.42 146.88 212.87C146.88 213.21 146.99 213.5 147.21 213.74C147.43 213.97 147.72 214.17 148.08 214.34C148.44 214.51 148.815 214.67 149.205 214.82C149.545 214.95 149.88 215.095 150.21 215.255C150.54 215.415 150.835 215.615 151.095 215.855C151.365 216.095 151.575 216.39 151.725 216.74C151.885 217.09 151.965 217.525 151.965 218.045C151.965 218.615 151.82 219.135 151.53 219.605C151.25 220.075 150.845 220.445 150.315 220.715C149.785 220.985 149.155 221.12 148.425 221.12C147.945 221.12 147.485 221.065 147.045 220.955C146.615 220.845 146.215 220.705 145.845 220.535C145.475 220.355 145.145 220.17 144.855 219.98L145.5 218.84C145.74 219.01 146.015 219.175 146.325 219.335C146.635 219.485 146.96 219.61 147.3 219.71C147.64 219.8 147.97 219.845 148.29 219.845C148.63 219.845 148.965 219.785 149.295 219.665C149.635 219.535 149.915 219.34 150.135 219.08C150.355 218.82 150.465 218.475 150.465 218.045C150.465 217.675 150.365 217.37 150.165 217.13C149.975 216.88 149.72 216.67 149.4 216.5C149.08 216.32 148.74 216.16 148.38 216.02C148.04 215.89 147.695 215.75 147.345 215.6C146.995 215.44 146.67 215.25 146.37 215.03C146.07 214.8 145.83 214.52 145.65 214.19C145.47 213.86 145.38 213.46 145.38 212.99C145.38 212.42 145.515 211.925 145.785 211.505C146.065 211.075 146.445 210.74 146.925 210.5C147.405 210.25 147.955 210.115 148.575 210.095C149.275 210.095 149.89 210.18 150.42 210.35C150.96 210.52 151.435 210.73 151.845 210.98L151.29 212.09ZM154.411 210.155H161.461V211.55H155.866V214.85H160.861V216.245H155.866V219.605H161.671V221H154.411V210.155ZM171.822 217.385L167.802 210.155H169.587L172.812 216.14L172.362 216.17L175.557 210.155H177.327L173.277 217.385V221H171.822V217.385ZM177.774 215.585C177.774 214.835 177.914 214.13 178.194 213.47C178.484 212.8 178.884 212.21 179.394 211.7C179.904 211.18 180.489 210.775 181.149 210.485C181.819 210.185 182.539 210.035 183.309 210.035C184.069 210.035 184.779 210.185 185.439 210.485C186.109 210.775 186.699 211.18 187.209 211.7C187.729 212.21 188.134 212.8 188.424 213.47C188.714 214.13 188.859 214.835 188.859 215.585C188.859 216.355 188.714 217.075 188.424 217.745C188.134 218.415 187.729 219.005 187.209 219.515C186.699 220.015 186.109 220.41 185.439 220.7C184.779 220.98 184.069 221.12 183.309 221.12C182.539 221.12 181.819 220.98 181.149 220.7C180.489 220.42 179.904 220.03 179.394 219.53C178.884 219.03 178.484 218.445 178.194 217.775C177.914 217.105 177.774 216.375 177.774 215.585ZM179.274 215.6C179.274 216.17 179.379 216.705 179.589 217.205C179.799 217.695 180.089 218.13 180.459 218.51C180.829 218.89 181.259 219.19 181.749 219.41C182.239 219.62 182.769 219.725 183.339 219.725C183.899 219.725 184.424 219.62 184.914 219.41C185.404 219.19 185.829 218.89 186.189 218.51C186.549 218.13 186.834 217.695 187.044 217.205C187.254 216.705 187.359 216.165 187.359 215.585C187.359 215.015 187.254 214.48 187.044 213.98C186.834 213.47 186.544 213.025 186.174 212.645C185.804 212.265 185.374 211.97 184.884 211.76C184.394 211.54 183.869 211.43 183.309 211.43C182.739 211.43 182.209 211.54 181.719 211.76C181.229 211.98 180.799 212.28 180.429 212.66C180.059 213.04 179.774 213.485 179.574 213.995C179.374 214.495 179.274 215.03 179.274 215.6ZM192.615 217.16C192.615 217.65 192.73 218.09 192.96 218.48C193.2 218.86 193.515 219.16 193.905 219.38C194.295 219.6 194.735 219.71 195.225 219.71C195.735 219.71 196.19 219.6 196.59 219.38C196.99 219.16 197.305 218.86 197.535 218.48C197.765 218.09 197.88 217.65 197.88 217.16V210.155H199.305V217.205C199.305 217.995 199.12 218.685 198.75 219.275C198.39 219.865 197.9 220.32 197.28 220.64C196.67 220.96 195.985 221.12 195.225 221.12C194.465 221.12 193.78 220.96 193.17 220.64C192.56 220.32 192.075 219.865 191.715 219.275C191.355 218.685 191.175 217.995 191.175 217.205V210.155H192.615V217.16ZM205.162 210.155C205.712 210.155 206.217 210.23 206.677 210.38C207.147 210.52 207.552 210.735 207.892 211.025C208.242 211.305 208.512 211.655 208.702 212.075C208.902 212.485 209.002 212.965 209.002 213.515C209.002 213.945 208.937 214.365 208.807 214.775C208.687 215.185 208.482 215.56 208.192 215.9C207.902 216.23 207.522 216.5 207.052 216.71C206.592 216.91 206.022 217.01 205.342 217.01H203.737V221H202.282V210.155H205.162ZM205.312 215.615C205.742 215.615 206.097 215.55 206.377 215.42C206.667 215.29 206.892 215.125 207.052 214.925C207.212 214.715 207.327 214.49 207.397 214.25C207.467 214.01 207.502 213.785 207.502 213.575C207.502 213.355 207.462 213.13 207.382 212.9C207.312 212.66 207.192 212.44 207.022 212.24C206.862 212.04 206.647 211.875 206.377 211.745C206.117 211.615 205.797 211.55 205.417 211.55H203.737V215.615H205.312ZM207.097 216.44L209.932 221H208.252L205.372 216.485L207.097 216.44ZM72.3097 237.02V230.45L72.6097 229.97V224.165H73.4797V230.165L73.1947 230.795V237.02H72.3097ZM75.5797 227.09C75.2097 226.9 74.8047 226.735 74.3647 226.595C73.9247 226.455 73.4947 226.385 73.0747 226.385C72.4947 226.385 72.0297 226.52 71.6797 226.79C71.3397 227.06 71.1697 227.42 71.1697 227.87C71.1697 228.21 71.2797 228.5 71.4997 228.74C71.7197 228.97 72.0097 229.17 72.3697 229.34C72.7297 229.51 73.1047 229.67 73.4947 229.82C73.8347 229.95 74.1697 230.095 74.4997 230.255C74.8297 230.415 75.1247 230.615 75.3847 230.855C75.6547 231.095 75.8647 231.39 76.0147 231.74C76.1747 232.09 76.2547 232.525 76.2547 233.045C76.2547 233.615 76.1097 234.135 75.8197 234.605C75.5397 235.075 75.1347 235.445 74.6047 235.715C74.0747 235.985 73.4447 236.12 72.7147 236.12C72.2347 236.12 71.7747 236.065 71.3347 235.955C70.9047 235.845 70.5047 235.705 70.1347 235.535C69.7647 235.355 69.4347 235.17 69.1447 234.98L69.7897 233.84C70.0297 234.01 70.3047 234.175 70.6147 234.335C70.9247 234.485 71.2497 234.61 71.5897 234.71C71.9297 234.8 72.2597 234.845 72.5797 234.845C72.9197 234.845 73.2547 234.785 73.5847 234.665C73.9247 234.535 74.2047 234.34 74.4247 234.08C74.6447 233.82 74.7547 233.475 74.7547 233.045C74.7547 232.675 74.6547 232.37 74.4547 232.13C74.2647 231.88 74.0097 231.67 73.6897 231.5C73.3697 231.32 73.0297 231.16 72.6697 231.02C72.3297 230.89 71.9847 230.75 71.6347 230.6C71.2847 230.44 70.9597 230.25 70.6597 230.03C70.3597 229.8 70.1197 229.52 69.9397 229.19C69.7597 228.86 69.6697 228.46 69.6697 227.99C69.6697 227.42 69.8047 226.925 70.0747 226.505C70.3547 226.075 70.7347 225.74 71.2147 225.5C71.6947 225.25 72.2447 225.115 72.8647 225.095C73.5647 225.095 74.1797 225.18 74.7097 225.35C75.2497 225.52 75.7247 225.73 76.1347 225.98L75.5797 227.09ZM78.4804 225.155H85.5304V226.55H79.9354V229.85H84.9304V231.245H79.9354V234.605H85.7404V236H78.4804V225.155ZM89.0456 225.155L92.6156 234.125L91.7906 233.96L95.1806 225.155H96.8756L92.0906 236.495L87.3206 225.155H89.0456ZM99.0468 236V224.81H99.0618L104.747 232.88L104.132 232.76L109.802 224.81H109.832V236H108.392V228.11L108.482 228.845L104.387 234.635H104.357L100.202 228.845L100.457 228.17V236H99.0468ZM116.899 225.155H124.099V226.55H121.189V236H119.734V226.55H116.899V225.155ZM125.266 230.585C125.266 229.835 125.406 229.13 125.686 228.47C125.976 227.8 126.376 227.21 126.886 226.7C127.396 226.18 127.981 225.775 128.641 225.485C129.311 225.185 130.031 225.035 130.801 225.035C131.561 225.035 132.271 225.185 132.931 225.485C133.601 225.775 134.191 226.18 134.701 226.7C135.221 227.21 135.626 227.8 135.916 228.47C136.206 229.13 136.351 229.835 136.351 230.585C136.351 231.355 136.206 232.075 135.916 232.745C135.626 233.415 135.221 234.005 134.701 234.515C134.191 235.015 133.601 235.41 132.931 235.7C132.271 235.98 131.561 236.12 130.801 236.12C130.031 236.12 129.311 235.98 128.641 235.7C127.981 235.42 127.396 235.03 126.886 234.53C126.376 234.03 125.976 233.445 125.686 232.775C125.406 232.105 125.266 231.375 125.266 230.585ZM126.766 230.6C126.766 231.17 126.871 231.705 127.081 232.205C127.291 232.695 127.581 233.13 127.951 233.51C128.321 233.89 128.751 234.19 129.241 234.41C129.731 234.62 130.261 234.725 130.831 234.725C131.391 234.725 131.916 234.62 132.406 234.41C132.896 234.19 133.321 233.89 133.681 233.51C134.041 233.13 134.326 232.695 134.536 232.205C134.746 231.705 134.851 231.165 134.851 230.585C134.851 230.015 134.746 229.48 134.536 228.98C134.326 228.47 134.036 228.025 133.666 227.645C133.296 227.265 132.866 226.97 132.376 226.76C131.886 226.54 131.361 226.43 130.801 226.43C130.231 226.43 129.701 226.54 129.211 226.76C128.721 226.98 128.291 227.28 127.921 227.66C127.551 228.04 127.266 228.485 127.066 228.995C126.866 229.495 126.766 230.03 126.766 230.6ZM140.273 229.52L140.228 230.06L140.423 229.79L144.863 225.155H146.738L142.253 229.805L146.993 236H145.148L141.188 230.735L140.273 231.62V236H138.803V225.155H140.273V229.52ZM148.983 225.155H156.033V226.55H150.438V229.85H155.433V231.245H150.438V234.605H156.243V236H148.983V225.155ZM168.158 236.345L159.773 227.84L160.193 227.945L160.223 236H158.768V224.825H158.843L167.138 233.36L166.793 233.285L166.763 225.155H168.203V236.345H168.158ZM178.948 232.385L174.928 225.155H176.713L179.938 231.14L179.488 231.17L182.683 225.155H184.453L180.403 232.385V236H178.948V232.385ZM186.439 225.155H193.489V226.55H187.894V229.85H192.889V231.245H187.894V234.605H193.699V236H186.439V225.155ZM196.225 225.155H197.68V236H196.225V225.155ZM200.795 225.155H202.25V234.605H207.755V236H200.795V225.155ZM210.126 236V225.155H213.081C214.151 225.155 215.061 225.32 215.811 225.65C216.571 225.98 217.181 226.415 217.641 226.955C218.101 227.495 218.436 228.095 218.646 228.755C218.866 229.405 218.976 230.055 218.976 230.705C218.976 231.525 218.831 232.26 218.541 232.91C218.261 233.56 217.871 234.115 217.371 234.575C216.871 235.035 216.296 235.39 215.646 235.64C215.006 235.88 214.326 236 213.606 236H210.126ZM211.581 234.605H213.321C213.921 234.605 214.471 234.515 214.971 234.335C215.481 234.155 215.921 233.895 216.291 233.555C216.671 233.215 216.966 232.8 217.176 232.31C217.386 231.81 217.491 231.245 217.491 230.615C217.491 229.945 217.381 229.36 217.161 228.86C216.941 228.35 216.641 227.925 216.261 227.585C215.881 227.245 215.451 226.99 214.971 226.82C214.491 226.64 213.986 226.55 213.456 226.55H211.581V234.605ZM227.03 227.09C226.66 226.9 226.255 226.735 225.815 226.595C225.375 226.455 224.945 226.385 224.525 226.385C223.945 226.385 223.48 226.52 223.13 226.79C222.79 227.06 222.62 227.42 222.62 227.87C222.62 228.21 222.73 228.5 222.95 228.74C223.17 228.97 223.46 229.17 223.82 229.34C224.18 229.51 224.555 229.67 224.945 229.82C225.285 229.95 225.62 230.095 225.95 230.255C226.28 230.415 226.575 230.615 226.835 230.855C227.105 231.095 227.315 231.39 227.465 231.74C227.625 232.09 227.705 232.525 227.705 233.045C227.705 233.615 227.56 234.135 227.27 234.605C226.99 235.075 226.585 235.445 226.055 235.715C225.525 235.985 224.895 236.12 224.165 236.12C223.685 236.12 223.225 236.065 222.785 235.955C222.355 235.845 221.955 235.705 221.585 235.535C221.215 235.355 220.885 235.17 220.595 234.98L221.24 233.84C221.48 234.01 221.755 234.175 222.065 234.335C222.375 234.485 222.7 234.61 223.04 234.71C223.38 234.8 223.71 234.845 224.03 234.845C224.37 234.845 224.705 234.785 225.035 234.665C225.375 234.535 225.655 234.34 225.875 234.08C226.095 233.82 226.205 233.475 226.205 233.045C226.205 232.675 226.105 232.37 225.905 232.13C225.715 231.88 225.46 231.67 225.14 231.5C224.82 231.32 224.48 231.16 224.12 231.02C223.78 230.89 223.435 230.75 223.085 230.6C222.735 230.44 222.41 230.25 222.11 230.03C221.81 229.8 221.57 229.52 221.39 229.19C221.21 228.86 221.12 228.46 221.12 227.99C221.12 227.42 221.255 226.925 221.525 226.505C221.805 226.075 222.185 225.74 222.665 225.5C223.145 225.25 223.695 225.115 224.315 225.095C225.015 225.095 225.63 225.18 226.16 225.35C226.7 225.52 227.175 225.73 227.585 225.98L227.03 227.09ZM86.9101 240.155C88.0001 240.155 88.8551 240.38 89.4751 240.83C90.1051 241.27 90.4201 241.96 90.4201 242.9C90.4201 243.47 90.2901 243.965 90.0301 244.385C89.7701 244.805 89.4051 245.135 88.9351 245.375C88.4751 245.615 87.9301 245.75 87.3001 245.78L87.0901 245.03C87.8201 245.05 88.4751 245.18 89.0551 245.42C89.6351 245.66 90.0951 245.995 90.4351 246.425C90.7751 246.855 90.9451 247.365 90.9451 247.955C90.9451 248.495 90.8451 248.96 90.6451 249.35C90.4451 249.73 90.1751 250.045 89.8351 250.295C89.4951 250.535 89.1101 250.715 88.6801 250.835C88.2501 250.945 87.8051 251 87.3451 251H84.1201V240.155H86.9101ZM87.2101 244.91C87.8101 244.91 88.2451 244.745 88.5151 244.415C88.7851 244.075 88.9201 243.665 88.9201 243.185C88.9201 242.615 88.7451 242.2 88.3951 241.94C88.0451 241.68 87.5751 241.55 86.9851 241.55H85.5751V244.91H87.2101ZM87.2701 249.65C87.6701 249.65 88.0351 249.59 88.3651 249.47C88.7051 249.35 88.9701 249.165 89.1601 248.915C89.3601 248.665 89.4601 248.35 89.4601 247.97C89.4601 247.55 89.3451 247.22 89.1151 246.98C88.8951 246.74 88.6101 246.57 88.2601 246.47C87.9101 246.36 87.5501 246.305 87.1801 246.305H85.5751V249.65H87.2701ZM95.8917 247.385L91.8717 240.155H93.6567L96.8817 246.14L96.4317 246.17L99.6267 240.155H101.397L97.3467 247.385V251H95.8917V247.385ZM116.709 240.155V251H115.269V246.245H109.584V251H108.129V240.155H109.584V244.865H115.269V240.155H116.709ZM119.158 245.585C119.158 244.835 119.298 244.13 119.578 243.47C119.868 242.8 120.268 242.21 120.778 241.7C121.288 241.18 121.873 240.775 122.533 240.485C123.203 240.185 123.923 240.035 124.693 240.035C125.453 240.035 126.163 240.185 126.823 240.485C127.493 240.775 128.083 241.18 128.593 241.7C129.113 242.21 129.518 242.8 129.808 243.47C130.098 244.13 130.243 244.835 130.243 245.585C130.243 246.355 130.098 247.075 129.808 247.745C129.518 248.415 129.113 249.005 128.593 249.515C128.083 250.015 127.493 250.41 126.823 250.7C126.163 250.98 125.453 251.12 124.693 251.12C123.923 251.12 123.203 250.98 122.533 250.7C121.873 250.42 121.288 250.03 120.778 249.53C120.268 249.03 119.868 248.445 119.578 247.775C119.298 247.105 119.158 246.375 119.158 245.585ZM120.658 245.6C120.658 246.17 120.763 246.705 120.973 247.205C121.183 247.695 121.473 248.13 121.843 248.51C122.213 248.89 122.643 249.19 123.133 249.41C123.623 249.62 124.153 249.725 124.723 249.725C125.283 249.725 125.808 249.62 126.298 249.41C126.788 249.19 127.213 248.89 127.573 248.51C127.933 248.13 128.218 247.695 128.428 247.205C128.638 246.705 128.743 246.165 128.743 245.585C128.743 245.015 128.638 244.48 128.428 243.98C128.218 243.47 127.928 243.025 127.558 242.645C127.188 242.265 126.758 241.97 126.268 241.76C125.778 241.54 125.253 241.43 124.693 241.43C124.123 241.43 123.593 241.54 123.103 241.76C122.613 241.98 122.183 242.28 121.813 242.66C121.443 243.04 121.158 243.485 120.958 243.995C120.758 244.495 120.658 245.03 120.658 245.6ZM132.694 240.155H134.149V249.605H139.654V251H132.694V240.155ZM142.025 251V240.155H144.98C146.05 240.155 146.96 240.32 147.71 240.65C148.47 240.98 149.08 241.415 149.54 241.955C150 242.495 150.335 243.095 150.545 243.755C150.765 244.405 150.875 245.055 150.875 245.705C150.875 246.525 150.73 247.26 150.44 247.91C150.16 248.56 149.77 249.115 149.27 249.575C148.77 250.035 148.195 250.39 147.545 250.64C146.905 250.88 146.225 251 145.505 251H142.025ZM143.48 249.605H145.22C145.82 249.605 146.37 249.515 146.87 249.335C147.38 249.155 147.82 248.895 148.19 248.555C148.57 248.215 148.865 247.8 149.075 247.31C149.285 246.81 149.39 246.245 149.39 245.615C149.39 244.945 149.28 244.36 149.06 243.86C148.84 243.35 148.54 242.925 148.16 242.585C147.78 242.245 147.35 241.99 146.87 241.82C146.39 241.64 145.885 241.55 145.355 241.55H143.48V249.605ZM153.319 240.155H154.774V251H153.319V240.155ZM167.28 251.345L158.895 242.84L159.315 242.945L159.345 251H157.89V239.825H157.965L166.26 248.36L165.915 248.285L165.885 240.155H167.325V251.345H167.28ZM178.933 250.07C178.783 250.2 178.573 250.33 178.303 250.46C178.033 250.58 177.733 250.69 177.403 250.79C177.083 250.89 176.748 250.97 176.398 251.03C176.058 251.09 175.738 251.12 175.438 251.12C174.568 251.12 173.783 250.985 173.083 250.715C172.393 250.445 171.798 250.07 171.298 249.59C170.808 249.11 170.428 248.545 170.158 247.895C169.898 247.245 169.768 246.54 169.768 245.78C169.768 244.88 169.913 244.075 170.203 243.365C170.503 242.645 170.908 242.04 171.418 241.55C171.938 241.05 172.533 240.675 173.203 240.425C173.873 240.165 174.583 240.035 175.333 240.035C175.963 240.035 176.548 240.11 177.088 240.26C177.628 240.41 178.103 240.6 178.513 240.83L178.018 242.165C177.818 242.045 177.568 241.935 177.268 241.835C176.978 241.735 176.678 241.655 176.368 241.595C176.058 241.525 175.768 241.49 175.498 241.49C174.858 241.49 174.278 241.59 173.758 241.79C173.238 241.98 172.793 242.26 172.423 242.63C172.053 242.99 171.768 243.43 171.568 243.95C171.368 244.46 171.268 245.035 171.268 245.675C171.268 246.265 171.368 246.805 171.568 247.295C171.768 247.785 172.053 248.21 172.423 248.57C172.793 248.92 173.233 249.195 173.743 249.395C174.263 249.585 174.833 249.68 175.453 249.68C175.823 249.68 176.188 249.645 176.548 249.575C176.908 249.495 177.218 249.385 177.478 249.245V247.085H175.318V245.69H178.933V250.07ZM188.794 252.02V245.45L189.094 244.97V239.165H189.964V245.165L189.679 245.795V252.02H188.794ZM192.064 242.09C191.694 241.9 191.289 241.735 190.849 241.595C190.409 241.455 189.979 241.385 189.559 241.385C188.979 241.385 188.514 241.52 188.164 241.79C187.824 242.06 187.654 242.42 187.654 242.87C187.654 243.21 187.764 243.5 187.984 243.74C188.204 243.97 188.494 244.17 188.854 244.34C189.214 244.51 189.589 244.67 189.979 244.82C190.319 244.95 190.654 245.095 190.984 245.255C191.314 245.415 191.609 245.615 191.869 245.855C192.139 246.095 192.349 246.39 192.499 246.74C192.659 247.09 192.739 247.525 192.739 248.045C192.739 248.615 192.594 249.135 192.304 249.605C192.024 250.075 191.619 250.445 191.089 250.715C190.559 250.985 189.929 251.12 189.199 251.12C188.719 251.12 188.259 251.065 187.819 250.955C187.389 250.845 186.989 250.705 186.619 250.535C186.249 250.355 185.919 250.17 185.629 249.98L186.274 248.84C186.514 249.01 186.789 249.175 187.099 249.335C187.409 249.485 187.734 249.61 188.074 249.71C188.414 249.8 188.744 249.845 189.064 249.845C189.404 249.845 189.739 249.785 190.069 249.665C190.409 249.535 190.689 249.34 190.909 249.08C191.129 248.82 191.239 248.475 191.239 248.045C191.239 247.675 191.139 247.37 190.939 247.13C190.749 246.88 190.494 246.67 190.174 246.5C189.854 246.32 189.514 246.16 189.154 246.02C188.814 245.89 188.469 245.75 188.119 245.6C187.769 245.44 187.444 245.25 187.144 245.03C186.844 244.8 186.604 244.52 186.424 244.19C186.244 243.86 186.154 243.46 186.154 242.99C186.154 242.42 186.289 241.925 186.559 241.505C186.839 241.075 187.219 240.74 187.699 240.5C188.179 240.25 188.729 240.115 189.349 240.095C190.049 240.095 190.664 240.18 191.194 240.35C191.734 240.52 192.209 240.73 192.619 240.98L192.064 242.09ZM194.965 240.155H202.015V241.55H196.42V244.85H201.415V246.245H196.42V249.605H202.225V251H194.965V240.155ZM210.36 242.09C209.99 241.9 209.585 241.735 209.145 241.595C208.705 241.455 208.275 241.385 207.855 241.385C207.275 241.385 206.81 241.52 206.46 241.79C206.12 242.06 205.95 242.42 205.95 242.87C205.95 243.21 206.06 243.5 206.28 243.74C206.5 243.97 206.79 244.17 207.15 244.34C207.51 244.51 207.885 244.67 208.275 244.82C208.615 244.95 208.95 245.095 209.28 245.255C209.61 245.415 209.905 245.615 210.165 245.855C210.435 246.095 210.645 246.39 210.795 246.74C210.955 247.09 211.035 247.525 211.035 248.045C211.035 248.615 210.89 249.135 210.6 249.605C210.32 250.075 209.915 250.445 209.385 250.715C208.855 250.985 208.225 251.12 207.495 251.12C207.015 251.12 206.555 251.065 206.115 250.955C205.685 250.845 205.285 250.705 204.915 250.535C204.545 250.355 204.215 250.17 203.925 249.98L204.57 248.84C204.81 249.01 205.085 249.175 205.395 249.335C205.705 249.485 206.03 249.61 206.37 249.71C206.71 249.8 207.04 249.845 207.36 249.845C207.7 249.845 208.035 249.785 208.365 249.665C208.705 249.535 208.985 249.34 209.205 249.08C209.425 248.82 209.535 248.475 209.535 248.045C209.535 247.675 209.435 247.37 209.235 247.13C209.045 246.88 208.79 246.67 208.47 246.5C208.15 246.32 207.81 246.16 207.45 246.02C207.11 245.89 206.765 245.75 206.415 245.6C206.065 245.44 205.74 245.25 205.44 245.03C205.14 244.8 204.9 244.52 204.72 244.19C204.54 243.86 204.45 243.46 204.45 242.99C204.45 242.42 204.585 241.925 204.855 241.505C205.135 241.075 205.515 240.74 205.995 240.5C206.475 240.25 207.025 240.115 207.645 240.095C208.345 240.095 208.96 240.18 209.49 240.35C210.03 240.52 210.505 240.73 210.915 240.98L210.36 242.09ZM212.43 250.205C212.43 249.985 212.51 249.8 212.67 249.65C212.84 249.49 213.025 249.41 213.225 249.41C213.405 249.41 213.575 249.49 213.735 249.65C213.905 249.8 213.99 249.985 213.99 250.205C213.99 250.445 213.905 250.64 213.735 250.79C213.575 250.93 213.405 251 213.225 251C213.025 251 212.84 250.93 212.67 250.79C212.51 250.64 212.43 250.445 212.43 250.205Z" fill="white"/>
</g>
<defs>
<linearGradient id="paint0_linear_385_19133" x1="148.58" y1="2.00016" x2="148.58" y2="368.59" gradientUnits="userSpaceOnUse">
<stop stop-color="#FFEED6"/>
<stop offset="0.65" stop-color="#DFC28D"/>
<stop offset="1" stop-color="#D0AD6A"/>
</linearGradient>
<linearGradient id="paint1_linear_385_19133" x1="-nan" y1="-nan" x2="-nan" y2="-nan" gradientUnits="userSpaceOnUse">
<stop stop-color="#FFEED6"/>
<stop offset="0.65" stop-color="#DFC28D"/>
<stop offset="1" stop-color="#D0AD6A"/>
</linearGradient>
<linearGradient id="paint2_linear_385_19133" x1="-nan" y1="-nan" x2="-nan" y2="-nan" gradientUnits="userSpaceOnUse">
<stop stop-color="#FFEED6"/>
<stop offset="0.65" stop-color="#DFC28D"/>
<stop offset="1" stop-color="#D0AD6A"/>
</linearGradient>
<radialGradient id="paint3_radial_385_19133" cx="0" cy="0" r="1" gradientUnits="userSpaceOnUse" gradientTransform="translate(148.98 359.5) scale(271.7 271.7)">
<stop stop-color="#A2743D"/>
<stop offset="1"/>
</radialGradient>
<linearGradient id="paint4_linear_385_19133" x1="148.58" y1="22.1999" x2="148.58" y2="348.39" gradientUnits="userSpaceOnUse">
<stop stop-color="#FFEED6"/>
<stop offset="0.65" stop-color="#DFC28D"/>
<stop offset="1" stop-color="#D0AD6A"/>
</linearGradient>
<linearGradient id="paint5_linear_385_19133" x1="148.58" y1="33.8601" x2="148.58" y2="336.73" gradientUnits="userSpaceOnUse">
<stop stop-color="#FFEED6"/>
<stop offset="0.65" stop-color="#DFC28D"/>
<stop offset="1" stop-color="#D0AD6A"/>
</linearGradient>
<linearGradient id="paint6_linear_385_19133" x1="-nan" y1="-nan" x2="-nan" y2="-nan" gradientUnits="userSpaceOnUse">
<stop stop-color="#FFEED6"/>
<stop offset="0.65" stop-color="#DFC28D"/>
<stop offset="1" stop-color="#D0AD6A"/>
</linearGradient>
<linearGradient id="paint7_linear_385_19133" x1="-nan" y1="-nan" x2="-nan" y2="-nan" gradientUnits="userSpaceOnUse">
<stop stop-color="#FFEED6"/>
<stop offset="0.65" stop-color="#DFC28D"/>
<stop offset="1" stop-color="#D0AD6A"/>
</linearGradient>
<linearGradient id="paint8_linear_385_19133" x1="151.834" y1="163.66" x2="151.834" y2="77.446" gradientUnits="userSpaceOnUse">
<stop stop-color="#CDA25F"/>
<stop offset="0.0146738" stop-color="#CEA462"/>
<stop offset="0.2168" stop-color="#D8BA81"/>
<stop offset="0.4135" stop-color="#DFCA97"/>
<stop offset="0.6008" stop-color="#E4D4A4"/>
<stop offset="0.7684" stop-color="#E5D7A9"/>
</linearGradient>
<linearGradient id="paint9_linear_385_19133" x1="128.336" y1="163.569" x2="128.336" y2="76.7873" gradientUnits="userSpaceOnUse">
<stop stop-color="#CDA25F"/>
<stop offset="0.0146738" stop-color="#CEA462"/>
<stop offset="0.2168" stop-color="#D8BA81"/>
<stop offset="0.4135" stop-color="#DFCA97"/>
<stop offset="0.6008" stop-color="#E4D4A4"/>
<stop offset="0.7684" stop-color="#E5D7A9"/>
</linearGradient>
<linearGradient id="paint10_linear_385_19133" x1="144.119" y1="163.672" x2="144.119" y2="77.3233" gradientUnits="userSpaceOnUse">
<stop stop-color="#CDA25F"/>
<stop offset="0.0146738" stop-color="#CEA462"/>
<stop offset="0.2168" stop-color="#D8BA81"/>
<stop offset="0.4135" stop-color="#DFCA97"/>
<stop offset="0.6008" stop-color="#E4D4A4"/>
<stop offset="0.7684" stop-color="#E5D7A9"/>
</linearGradient>
<linearGradient id="paint11_linear_385_19133" x1="152.984" y1="163.704" x2="152.984" y2="77.3504" gradientUnits="userSpaceOnUse">
<stop stop-color="#CDA25F"/>
<stop offset="0.0146738" stop-color="#CEA462"/>
<stop offset="0.2168" stop-color="#D8BA81"/>
<stop offset="0.4135" stop-color="#DFCA97"/>
<stop offset="0.6008" stop-color="#E4D4A4"/>
<stop offset="0.7684" stop-color="#E5D7A9"/>
</linearGradient>
<linearGradient id="paint12_linear_385_19133" x1="152.984" y1="163.238" x2="152.984" y2="77.5326" gradientUnits="userSpaceOnUse">
<stop stop-color="#CDA25F"/>
<stop offset="0.0146738" stop-color="#CEA462"/>
<stop offset="0.2168" stop-color="#D8BA81"/>
<stop offset="0.4135" stop-color="#DFCA97"/>
<stop offset="0.6008" stop-color="#E4D4A4"/>
<stop offset="0.7684" stop-color="#E5D7A9"/>
</linearGradient>
<linearGradient id="paint13_linear_385_19133" x1="144.119" y1="163.672" x2="144.119" y2="77.3233" gradientUnits="userSpaceOnUse">
<stop stop-color="#CDA25F"/>
<stop offset="0.0146738" stop-color="#CEA462"/>
<stop offset="0.2168" stop-color="#D8BA81"/>
<stop offset="0.4135" stop-color="#DFCA97"/>
<stop offset="0.6008" stop-color="#E4D4A4"/>
<stop offset="0.7684" stop-color="#E5D7A9"/>
</linearGradient>
<linearGradient id="paint14_linear_385_19133" x1="159.287" y1="163.729" x2="159.287" y2="77.3753" gradientUnits="userSpaceOnUse">
<stop stop-color="#CDA25F"/>
<stop offset="0.0146738" stop-color="#CEA462"/>
<stop offset="0.2168" stop-color="#D8BA81"/>
<stop offset="0.4135" stop-color="#DFCA97"/>
<stop offset="0.6008" stop-color="#E4D4A4"/>
<stop offset="0.7684" stop-color="#E5D7A9"/>
</linearGradient>
<clipPath id="clip0_385_19133">
<rect width="297" height="370" fill="white"/>
</clipPath>
</defs>
</svg>
