<svg width="297" height="370" viewBox="0 0 297 370" fill="none" xmlns="http://www.w3.org/2000/svg">
<g clip-path="url(#clip0_385_19160)">
<path d="M219.53 326.96V43.6302L148.58 2.66016L77.6299 43.6302V326.96L148.58 367.93L219.53 326.96Z" stroke="url(#paint0_linear_385_19160)" stroke-width="1.15" stroke-miterlimit="10"/>
<path d="M211.09 331.43V39.1602" stroke="url(#paint1_linear_385_19160)" stroke-width="1.01" stroke-miterlimit="10"/>
<path d="M86.0703 39.1602V331.43" stroke="url(#paint2_linear_385_19160)" stroke-width="1.01" stroke-miterlimit="10"/>
<path d="M287.72 265.63V104.96L148.58 24.6299L9.44043 104.96V265.63L148.58 345.96L287.72 265.63Z" fill="url(#paint3_radial_385_19160)" stroke="url(#paint4_linear_385_19160)" stroke-width="4.21" stroke-miterlimit="10"/>
<path d="M278.68 260.4V110.19L148.58 35.0801L18.4902 110.19V260.4L148.58 335.52L278.68 260.4Z" stroke="url(#paint5_linear_385_19160)" stroke-width="2.11" stroke-miterlimit="10"/>
<path d="M1.58008 140.99V229.6" stroke="url(#paint6_linear_385_19160)" stroke-width="1.16" stroke-miterlimit="10"/>
<path d="M295.58 140.99V229.6" stroke="url(#paint7_linear_385_19160)" stroke-width="1.16" stroke-miterlimit="10"/>
<path d="M176.779 91.5752C176.771 91.567 170.69 95.9233 164.658 100.255C164.871 100.778 165.067 101.318 165.255 101.865L176.395 93.8718C177.13 93.3406 177.302 92.319 176.779 91.5752Z" fill="url(#paint8_linear_385_19160)"/>
<path d="M166.342 105.576L174.85 100.582C177.155 99.2333 178.242 96.6588 177.85 94.1987L165.623 102.968C165.885 103.818 166.13 104.685 166.342 105.576Z" fill="url(#paint9_linear_385_19160)"/>
<path d="M175.48 105.486C176.665 105.175 177.368 103.884 176.894 102.756C176.886 102.74 171.45 104.897 166.62 106.818C167.029 108.796 167.29 110.831 167.388 112.866L173.445 110.659C175.382 109.948 176.722 108.346 177.18 106.491L167.209 108.305L175.48 105.486Z" fill="url(#paint10_linear_385_19160)"/>
<path d="M167.421 114.174C167.438 116.282 167.258 118.375 166.857 120.385L168.304 120.393C170.838 120.402 173.036 119.012 174.197 116.961L167.462 115.661L172.832 115.547C174.033 115.645 175.104 114.697 175.071 113.487C175.071 113.463 175.071 113.438 175.071 113.414L167.421 114.174Z" fill="url(#paint11_linear_385_19160)"/>
<path d="M132.342 100.255C126.311 95.9315 120.23 91.567 120.222 91.5752C119.699 92.319 119.87 93.3406 120.606 93.8718L131.746 101.865C131.934 101.318 132.138 100.778 132.342 100.255Z" fill="url(#paint12_linear_385_19160)"/>
<path d="M122.158 100.574L130.666 105.567C130.879 104.685 131.116 103.81 131.386 102.96L119.159 94.1987C118.766 96.6507 119.853 99.2252 122.158 100.574Z" fill="url(#paint13_linear_385_19160)"/>
<path d="M129.579 114.174L121.929 113.405C121.929 113.43 121.929 113.454 121.929 113.479C121.897 114.688 122.967 115.637 124.169 115.538L129.539 115.653L122.804 116.952C123.965 119.004 126.163 120.393 128.697 120.385L130.143 120.377C129.743 118.375 129.563 116.282 129.579 114.174Z" fill="url(#paint14_linear_385_19160)"/>
<path d="M129.62 112.858C129.71 110.823 129.972 108.787 130.389 106.81C125.55 104.889 120.115 102.739 120.115 102.748C119.641 103.884 120.336 105.167 121.529 105.477L129.8 108.281L119.829 106.466C120.287 108.322 121.627 109.924 123.564 110.635L129.62 112.858Z" fill="url(#paint15_linear_385_19160)"/>
<path fill-rule="evenodd" clip-rule="evenodd" d="M148.5 88.4692C130.854 88.2976 121.847 133.617 148.5 133.642C175.152 133.625 166.145 88.2976 148.5 88.4692ZM156.583 114.86C154.67 114.108 153.118 113.675 151.785 113.601L157.098 119.551L151.091 114.313C151.181 115.645 151.638 117.189 152.415 119.086C151.328 117.181 150.339 115.825 149.268 114.934L148.59 126.85L147.772 114.95C146.726 115.857 145.745 117.23 144.691 119.135C145.443 117.222 145.876 115.669 145.95 114.337L140 119.65L145.239 113.642C143.907 113.732 142.362 114.19 140.466 114.966C142.37 113.879 143.727 112.89 144.618 111.82L132.701 111.141L144.601 110.324C143.694 109.278 142.321 108.297 140.417 107.243C142.329 107.995 143.882 108.428 145.214 108.501L139.902 102.551L145.909 107.79C145.819 106.458 145.361 104.913 144.585 103.017C145.672 104.922 146.661 106.278 147.732 107.169L148.41 95.2529L149.227 107.153C150.273 106.246 151.254 104.873 152.308 102.968C151.557 104.881 151.123 106.434 151.05 107.766L157 102.453L151.761 108.461C153.093 108.371 154.638 107.913 156.534 107.137C154.63 108.224 153.273 109.213 152.382 110.283L164.298 110.962L152.398 111.779C153.297 112.833 154.67 113.806 156.583 114.86Z" fill="url(#paint16_linear_385_19160)"/>
<path d="M166.015 135.334C166.146 135.048 166.22 134.745 166.22 134.427C166.22 132.759 164.34 131.59 161.675 130.798C161.079 131.403 160.409 131.983 159.665 132.522C162.395 133.152 163.931 133.912 164.062 134.427C164.037 134.533 163.947 134.647 163.8 134.77C161.945 134.361 159.877 134.042 157.703 133.814C156.101 134.631 154.221 135.252 152.023 135.571C155.014 135.685 157.646 135.939 159.91 136.274C157.246 136.911 153.38 137.418 148.492 137.418C143.605 137.418 139.739 136.911 137.074 136.274C139.428 135.922 142.183 135.661 145.321 135.554C143.122 135.228 141.243 134.598 139.649 133.773C137.336 134.01 135.137 134.337 133.176 134.77C133.037 134.647 132.955 134.533 132.931 134.427C133.045 133.903 134.614 133.127 137.418 132.49C136.674 131.95 136.004 131.362 135.407 130.757C132.694 131.55 130.773 132.727 130.773 134.41C130.773 134.729 130.846 135.031 130.977 135.317C127.308 136.388 124.896 137.916 124.896 139.919C124.896 144.447 137.132 146.506 148.492 146.506C159.853 146.506 172.088 144.447 172.088 139.919C172.096 137.933 169.685 136.404 166.015 135.334ZM148.5 144.373C134.631 144.373 127.062 141.447 127.062 139.943C127.062 139.175 129.057 138.023 132.873 137.091C136.421 138.995 143.678 139.576 148.5 139.576C153.322 139.576 160.58 138.995 164.127 137.083C167.944 138.015 169.938 139.167 169.938 139.935C169.938 141.439 162.37 144.373 148.5 144.373Z" fill="url(#paint17_linear_385_19160)"/>
<path d="M83.2279 178.4C82.7079 178.133 82.1546 177.907 81.5679 177.72C80.9812 177.52 80.4212 177.42 79.8879 177.42C79.1679 177.42 78.5946 177.58 78.1679 177.9C77.7546 178.22 77.5479 178.66 77.5479 179.22C77.5479 179.62 77.6879 179.973 77.9679 180.28C78.2612 180.573 78.6346 180.833 79.0879 181.06C79.5546 181.273 80.0412 181.48 80.5479 181.68C80.9879 181.84 81.4212 182.033 81.8479 182.26C82.2879 182.473 82.6812 182.74 83.0279 183.06C83.3746 183.38 83.6479 183.78 83.8479 184.26C84.0479 184.727 84.1479 185.307 84.1479 186C84.1479 186.76 83.9546 187.46 83.5679 188.1C83.1946 188.727 82.6479 189.227 81.9279 189.6C81.2079 189.973 80.3346 190.16 79.3079 190.16C78.6946 190.16 78.0946 190.093 77.5079 189.96C76.9346 189.827 76.3879 189.647 75.8679 189.42C75.3479 189.18 74.8679 188.913 74.4279 188.62L75.4679 186.8C75.7879 187.04 76.1546 187.26 76.5679 187.46C76.9812 187.66 77.4079 187.82 77.8479 187.94C78.2879 188.06 78.7012 188.12 79.0879 188.12C79.5012 188.12 79.9079 188.053 80.3079 187.92C80.7212 187.773 81.0612 187.547 81.3279 187.24C81.6079 186.933 81.7479 186.527 81.7479 186.02C81.7479 185.607 81.6279 185.253 81.3879 184.96C81.1612 184.667 80.8546 184.413 80.4679 184.2C80.0812 183.973 79.6612 183.773 79.2079 183.6C78.7546 183.427 78.2946 183.233 77.8279 183.02C77.3612 182.807 76.9212 182.547 76.5079 182.24C76.1079 181.92 75.7812 181.533 75.5279 181.08C75.2746 180.627 75.1479 180.067 75.1479 179.4C75.1479 178.6 75.3346 177.907 75.7079 177.32C76.0812 176.733 76.5946 176.267 77.2479 175.92C77.9146 175.573 78.6812 175.387 79.5479 175.36C80.5746 175.36 81.4479 175.487 82.1679 175.74C82.9012 175.98 83.5479 176.273 84.1079 176.62L83.2279 178.4ZM85.7085 190L92.1485 174.84H92.2885L98.7285 190H96.0485L91.5285 178.48L93.1885 177.36L87.9885 190H85.7085ZM89.7485 184.58H94.7285L95.5285 186.58H89.0485L89.7485 184.58ZM111.154 188.86C110.94 189.007 110.62 189.187 110.194 189.4C109.78 189.613 109.28 189.8 108.694 189.96C108.12 190.107 107.48 190.173 106.774 190.16C105.64 190.147 104.62 189.947 103.714 189.56C102.807 189.16 102.04 188.627 101.414 187.96C100.787 187.28 100.3 186.507 99.9535 185.64C99.6202 184.76 99.4535 183.827 99.4535 182.84C99.4535 181.733 99.6268 180.72 99.9735 179.8C100.32 178.88 100.814 178.087 101.454 177.42C102.094 176.74 102.854 176.213 103.734 175.84C104.614 175.467 105.574 175.28 106.614 175.28C107.534 175.28 108.354 175.407 109.074 175.66C109.807 175.9 110.42 176.173 110.914 176.48L109.994 178.66C109.62 178.407 109.154 178.153 108.594 177.9C108.034 177.647 107.4 177.52 106.694 177.52C106.054 177.52 105.44 177.653 104.854 177.92C104.267 178.173 103.754 178.54 103.314 179.02C102.874 179.487 102.52 180.033 102.254 180.66C102 181.287 101.874 181.967 101.874 182.7C101.874 183.46 101.987 184.16 102.214 184.8C102.454 185.44 102.787 185.993 103.214 186.46C103.654 186.913 104.174 187.273 104.774 187.54C105.387 187.793 106.074 187.92 106.834 187.92C107.58 187.92 108.234 187.807 108.794 187.58C109.367 187.34 109.827 187.073 110.174 186.78L111.154 188.86ZM118.36 175.44C119.16 175.44 119.893 175.547 120.56 175.76C121.226 175.96 121.793 176.26 122.26 176.66C122.726 177.06 123.086 177.553 123.34 178.14C123.606 178.713 123.74 179.373 123.74 180.12C123.74 180.693 123.653 181.267 123.48 181.84C123.306 182.413 123.02 182.933 122.62 183.4C122.233 183.853 121.72 184.227 121.08 184.52C120.44 184.8 119.646 184.94 118.7 184.94H116.6V190H114.26V175.44H118.36ZM118.68 182.7C119.2 182.7 119.633 182.62 119.98 182.46C120.326 182.287 120.593 182.073 120.78 181.82C120.98 181.567 121.12 181.3 121.2 181.02C121.293 180.727 121.34 180.453 121.34 180.2C121.34 179.96 121.3 179.7 121.22 179.42C121.14 179.127 121 178.853 120.8 178.6C120.613 178.333 120.353 178.113 120.02 177.94C119.686 177.767 119.266 177.68 118.76 177.68H116.6V182.7H118.68ZM121.2 184.08L124.92 190H122.22L118.42 184.14L121.2 184.08ZM127.658 175.44H137.318V177.68H129.998V181.56H136.518V183.8H129.998V187.76H137.598V190H127.658V175.44ZM140.822 190V175.44H144.962C146.402 175.44 147.629 175.66 148.642 176.1C149.669 176.54 150.496 177.12 151.122 177.84C151.749 178.56 152.202 179.367 152.482 180.26C152.776 181.14 152.922 182.027 152.922 182.92C152.922 184.013 152.729 184.993 152.342 185.86C151.956 186.727 151.422 187.473 150.742 188.1C150.076 188.713 149.302 189.187 148.422 189.52C147.556 189.84 146.636 190 145.662 190H140.822ZM143.162 187.76H145.242C146.016 187.76 146.722 187.653 147.362 187.44C148.002 187.213 148.556 186.893 149.022 186.48C149.502 186.053 149.869 185.527 150.122 184.9C150.389 184.273 150.522 183.56 150.522 182.76C150.522 181.853 150.369 181.08 150.062 180.44C149.769 179.787 149.376 179.26 148.882 178.86C148.402 178.447 147.876 178.147 147.302 177.96C146.729 177.76 146.162 177.66 145.602 177.66H143.162V187.76ZM166.404 175.44C167.884 175.44 169.05 175.74 169.904 176.34C170.77 176.94 171.204 177.86 171.204 179.1C171.204 179.927 171.01 180.633 170.624 181.22C170.237 181.793 169.704 182.24 169.024 182.56C168.357 182.867 167.57 183.033 166.664 183.06L166.304 181.82C167.384 181.833 168.344 182.007 169.184 182.34C170.024 182.66 170.684 183.12 171.164 183.72C171.657 184.307 171.904 185.007 171.904 185.82C171.904 186.58 171.764 187.227 171.484 187.76C171.217 188.28 170.85 188.707 170.384 189.04C169.917 189.373 169.39 189.62 168.804 189.78C168.217 189.927 167.604 190 166.964 190H162.424V175.44H166.404ZM166.764 181.64C167.47 181.64 167.984 181.44 168.304 181.04C168.637 180.627 168.804 180.147 168.804 179.6C168.804 178.933 168.597 178.447 168.184 178.14C167.77 177.833 167.21 177.68 166.504 177.68H164.764V181.64H166.764ZM166.864 187.84C167.357 187.84 167.804 187.773 168.204 187.64C168.604 187.493 168.924 187.273 169.164 186.98C169.404 186.673 169.524 186.293 169.524 185.84C169.524 185.333 169.384 184.94 169.104 184.66C168.824 184.38 168.47 184.18 168.044 184.06C167.617 183.94 167.17 183.88 166.704 183.88H164.764V187.84H166.864ZM175.021 175.44H184.681V177.68H177.361V181.56H183.881V183.8H177.361V187.76H184.961V190H175.021V175.44ZM186.666 190L193.106 174.84H193.246L199.686 190H197.006L192.486 178.48L194.146 177.36L188.946 190H186.666ZM190.706 184.58H195.686L196.486 186.58H190.006L190.706 184.58ZM209.81 178.4C209.29 178.133 208.737 177.907 208.15 177.72C207.563 177.52 207.003 177.42 206.47 177.42C205.75 177.42 205.177 177.58 204.75 177.9C204.337 178.22 204.13 178.66 204.13 179.22C204.13 179.62 204.27 179.973 204.55 180.28C204.843 180.573 205.217 180.833 205.67 181.06C206.137 181.273 206.623 181.48 207.13 181.68C207.57 181.84 208.003 182.033 208.43 182.26C208.87 182.473 209.263 182.74 209.61 183.06C209.957 183.38 210.23 183.78 210.43 184.26C210.63 184.727 210.73 185.307 210.73 186C210.73 186.76 210.537 187.46 210.15 188.1C209.777 188.727 209.23 189.227 208.51 189.6C207.79 189.973 206.917 190.16 205.89 190.16C205.277 190.16 204.677 190.093 204.09 189.96C203.517 189.827 202.97 189.647 202.45 189.42C201.93 189.18 201.45 188.913 201.01 188.62L202.05 186.8C202.37 187.04 202.737 187.26 203.15 187.46C203.563 187.66 203.99 187.82 204.43 187.94C204.87 188.06 205.283 188.12 205.67 188.12C206.083 188.12 206.49 188.053 206.89 187.92C207.303 187.773 207.643 187.547 207.91 187.24C208.19 186.933 208.33 186.527 208.33 186.02C208.33 185.607 208.21 185.253 207.97 184.96C207.743 184.667 207.437 184.413 207.05 184.2C206.663 183.973 206.243 183.773 205.79 183.6C205.337 183.427 204.877 183.233 204.41 183.02C203.943 182.807 203.503 182.547 203.09 182.24C202.69 181.92 202.363 181.533 202.11 181.08C201.857 180.627 201.73 180.067 201.73 179.4C201.73 178.6 201.917 177.907 202.29 177.32C202.663 176.733 203.177 176.267 203.83 175.92C204.497 175.573 205.263 175.387 206.13 175.36C207.157 175.36 208.03 175.487 208.75 175.74C209.483 175.98 210.13 176.273 210.69 176.62L209.81 178.4ZM212.712 175.44H222.452V177.68H218.692V190H216.372V177.68H212.712V175.44Z" fill="white"/>
<path d="M60.8217 210.155H67.2567V211.55H62.2767V215.015H66.6417V216.395H62.2767V221H60.8217V210.155ZM69.6547 210.155H76.7047V211.55H71.1097V214.85H76.1047V216.245H71.1097V219.605H76.9147V221H69.6547V210.155ZM79.4399 210.155H86.4899V211.55H80.8949V214.85H85.8899V216.245H80.8949V219.605H86.6999V221H79.4399V210.155ZM89.225 221V210.155H92.18C93.25 210.155 94.16 210.32 94.91 210.65C95.67 210.98 96.28 211.415 96.74 211.955C97.2 212.495 97.535 213.095 97.745 213.755C97.965 214.405 98.075 215.055 98.075 215.705C98.075 216.525 97.93 217.26 97.64 217.91C97.36 218.56 96.97 219.115 96.47 219.575C95.97 220.035 95.395 220.39 94.745 220.64C94.105 220.88 93.425 221 92.705 221H89.225ZM90.68 219.605H92.42C93.02 219.605 93.57 219.515 94.07 219.335C94.58 219.155 95.02 218.895 95.39 218.555C95.77 218.215 96.065 217.8 96.275 217.31C96.485 216.81 96.59 216.245 96.59 215.615C96.59 214.945 96.48 214.36 96.26 213.86C96.04 213.35 95.74 212.925 95.36 212.585C94.98 212.245 94.55 211.99 94.07 211.82C93.59 211.64 93.085 211.55 92.555 211.55H90.68V219.605ZM108.145 217.385L104.125 210.155H105.91L109.135 216.14L108.685 216.17L111.88 210.155H113.65L109.6 217.385V221H108.145V217.385ZM114.097 215.585C114.097 214.835 114.237 214.13 114.517 213.47C114.807 212.8 115.207 212.21 115.717 211.7C116.227 211.18 116.812 210.775 117.472 210.485C118.142 210.185 118.862 210.035 119.632 210.035C120.392 210.035 121.102 210.185 121.762 210.485C122.432 210.775 123.022 211.18 123.532 211.7C124.052 212.21 124.457 212.8 124.747 213.47C125.037 214.13 125.182 214.835 125.182 215.585C125.182 216.355 125.037 217.075 124.747 217.745C124.457 218.415 124.052 219.005 123.532 219.515C123.022 220.015 122.432 220.41 121.762 220.7C121.102 220.98 120.392 221.12 119.632 221.12C118.862 221.12 118.142 220.98 117.472 220.7C116.812 220.42 116.227 220.03 115.717 219.53C115.207 219.03 114.807 218.445 114.517 217.775C114.237 217.105 114.097 216.375 114.097 215.585ZM115.597 215.6C115.597 216.17 115.702 216.705 115.912 217.205C116.122 217.695 116.412 218.13 116.782 218.51C117.152 218.89 117.582 219.19 118.072 219.41C118.562 219.62 119.092 219.725 119.662 219.725C120.222 219.725 120.747 219.62 121.237 219.41C121.727 219.19 122.152 218.89 122.512 218.51C122.872 218.13 123.157 217.695 123.367 217.205C123.577 216.705 123.682 216.165 123.682 215.585C123.682 215.015 123.577 214.48 123.367 213.98C123.157 213.47 122.867 213.025 122.497 212.645C122.127 212.265 121.697 211.97 121.207 211.76C120.717 211.54 120.192 211.43 119.632 211.43C119.062 211.43 118.532 211.54 118.042 211.76C117.552 211.98 117.122 212.28 116.752 212.66C116.382 213.04 116.097 213.485 115.897 213.995C115.697 214.495 115.597 215.03 115.597 215.6ZM128.938 217.16C128.938 217.65 129.053 218.09 129.283 218.48C129.523 218.86 129.838 219.16 130.228 219.38C130.618 219.6 131.058 219.71 131.548 219.71C132.058 219.71 132.513 219.6 132.913 219.38C133.313 219.16 133.628 218.86 133.858 218.48C134.088 218.09 134.203 217.65 134.203 217.16V210.155H135.628V217.205C135.628 217.995 135.443 218.685 135.073 219.275C134.713 219.865 134.223 220.32 133.603 220.64C132.993 220.96 132.308 221.12 131.548 221.12C130.788 221.12 130.103 220.96 129.493 220.64C128.883 220.32 128.398 219.865 128.038 219.275C127.678 218.685 127.498 217.995 127.498 217.205V210.155H128.938V217.16ZM141.485 210.155C142.035 210.155 142.54 210.23 143 210.38C143.47 210.52 143.875 210.735 144.215 211.025C144.565 211.305 144.835 211.655 145.025 212.075C145.225 212.485 145.325 212.965 145.325 213.515C145.325 213.945 145.26 214.365 145.13 214.775C145.01 215.185 144.805 215.56 144.515 215.9C144.225 216.23 143.845 216.5 143.375 216.71C142.915 216.91 142.345 217.01 141.665 217.01H140.06V221H138.605V210.155H141.485ZM141.635 215.615C142.065 215.615 142.42 215.55 142.7 215.42C142.99 215.29 143.215 215.125 143.375 214.925C143.535 214.715 143.65 214.49 143.72 214.25C143.79 214.01 143.825 213.785 143.825 213.575C143.825 213.355 143.785 213.13 143.705 212.9C143.635 212.66 143.515 212.44 143.345 212.24C143.185 212.04 142.97 211.875 142.7 211.745C142.44 211.615 142.12 211.55 141.74 211.55H140.06V215.615H141.635ZM143.42 216.44L146.255 221H144.575L141.695 216.485L143.42 216.44ZM156.029 210.155C157.119 210.155 157.974 210.38 158.594 210.83C159.224 211.27 159.539 211.96 159.539 212.9C159.539 213.47 159.409 213.965 159.149 214.385C158.889 214.805 158.524 215.135 158.054 215.375C157.594 215.615 157.049 215.75 156.419 215.78L156.209 215.03C156.939 215.05 157.594 215.18 158.174 215.42C158.754 215.66 159.214 215.995 159.554 216.425C159.894 216.855 160.064 217.365 160.064 217.955C160.064 218.495 159.964 218.96 159.764 219.35C159.564 219.73 159.294 220.045 158.954 220.295C158.614 220.535 158.229 220.715 157.799 220.835C157.369 220.945 156.924 221 156.464 221H153.239V210.155H156.029ZM156.329 214.91C156.929 214.91 157.364 214.745 157.634 214.415C157.904 214.075 158.039 213.665 158.039 213.185C158.039 212.615 157.864 212.2 157.514 211.94C157.164 211.68 156.694 211.55 156.104 211.55H154.694V214.91H156.329ZM156.389 219.65C156.789 219.65 157.154 219.59 157.484 219.47C157.824 219.35 158.089 219.165 158.279 218.915C158.479 218.665 158.579 218.35 158.579 217.97C158.579 217.55 158.464 217.22 158.234 216.98C158.014 216.74 157.729 216.57 157.379 216.47C157.029 216.36 156.669 216.305 156.299 216.305H154.694V219.65H156.389ZM162.511 210.155H169.561V211.55H163.966V214.85H168.961V216.245H163.966V219.605H169.771V221H162.511V210.155ZM171.216 221L175.956 209.705H176.046L180.771 221H179.106L175.566 211.985L176.601 211.31L172.641 221H171.216ZM173.991 216.89H178.026L178.506 218.15H173.571L173.991 216.89ZM188.424 212.09C188.054 211.9 187.649 211.735 187.209 211.595C186.769 211.455 186.339 211.385 185.919 211.385C185.339 211.385 184.874 211.52 184.524 211.79C184.184 212.06 184.014 212.42 184.014 212.87C184.014 213.21 184.124 213.5 184.344 213.74C184.564 213.97 184.854 214.17 185.214 214.34C185.574 214.51 185.949 214.67 186.339 214.82C186.679 214.95 187.014 215.095 187.344 215.255C187.674 215.415 187.969 215.615 188.229 215.855C188.499 216.095 188.709 216.39 188.859 216.74C189.019 217.09 189.099 217.525 189.099 218.045C189.099 218.615 188.954 219.135 188.664 219.605C188.384 220.075 187.979 220.445 187.449 220.715C186.919 220.985 186.289 221.12 185.559 221.12C185.079 221.12 184.619 221.065 184.179 220.955C183.749 220.845 183.349 220.705 182.979 220.535C182.609 220.355 182.279 220.17 181.989 219.98L182.634 218.84C182.874 219.01 183.149 219.175 183.459 219.335C183.769 219.485 184.094 219.61 184.434 219.71C184.774 219.8 185.104 219.845 185.424 219.845C185.764 219.845 186.099 219.785 186.429 219.665C186.769 219.535 187.049 219.34 187.269 219.08C187.489 218.82 187.599 218.475 187.599 218.045C187.599 217.675 187.499 217.37 187.299 217.13C187.109 216.88 186.854 216.67 186.534 216.5C186.214 216.32 185.874 216.16 185.514 216.02C185.174 215.89 184.829 215.75 184.479 215.6C184.129 215.44 183.804 215.25 183.504 215.03C183.204 214.8 182.964 214.52 182.784 214.19C182.604 213.86 182.514 213.46 182.514 212.99C182.514 212.42 182.649 211.925 182.919 211.505C183.199 211.075 183.579 210.74 184.059 210.5C184.539 210.25 185.089 210.115 185.709 210.095C186.409 210.095 187.024 210.18 187.554 210.35C188.094 210.52 188.569 210.73 188.979 210.98L188.424 212.09ZM190.676 210.155H197.876V211.55H194.966V221H193.511V211.55H190.676V210.155ZM203.853 221L208.593 209.705H208.683L213.408 221H211.743L208.203 211.985L209.238 211.31L205.278 221H203.853ZM206.628 216.89H210.663L211.143 218.15H206.208L206.628 216.89ZM224.841 221.345L216.456 212.84L216.876 212.945L216.906 221H215.451V209.825H215.526L223.821 218.36L223.476 218.285L223.446 210.155H224.886V221.345H224.841ZM228.004 221V210.155H230.959C232.029 210.155 232.939 210.32 233.689 210.65C234.449 210.98 235.059 211.415 235.519 211.955C235.979 212.495 236.314 213.095 236.524 213.755C236.744 214.405 236.854 215.055 236.854 215.705C236.854 216.525 236.709 217.26 236.419 217.91C236.139 218.56 235.749 219.115 235.249 219.575C234.749 220.035 234.174 220.39 233.524 220.64C232.884 220.88 232.204 221 231.484 221H228.004ZM229.459 219.605H231.199C231.799 219.605 232.349 219.515 232.849 219.335C233.359 219.155 233.799 218.895 234.169 218.555C234.549 218.215 234.844 217.8 235.054 217.31C235.264 216.81 235.369 216.245 235.369 215.615C235.369 214.945 235.259 214.36 235.039 213.86C234.819 213.35 234.519 212.925 234.139 212.585C233.759 212.245 233.329 211.99 232.849 211.82C232.369 211.64 231.864 211.55 231.334 211.55H229.459V219.605ZM77.3375 227.09C76.9675 226.9 76.5625 226.735 76.1225 226.595C75.6825 226.455 75.2525 226.385 74.8325 226.385C74.2525 226.385 73.7875 226.52 73.4375 226.79C73.0975 227.06 72.9275 227.42 72.9275 227.87C72.9275 228.21 73.0375 228.5 73.2575 228.74C73.4775 228.97 73.7675 229.17 74.1275 229.34C74.4875 229.51 74.8625 229.67 75.2525 229.82C75.5925 229.95 75.9275 230.095 76.2575 230.255C76.5875 230.415 76.8825 230.615 77.1425 230.855C77.4125 231.095 77.6225 231.39 77.7725 231.74C77.9325 232.09 78.0125 232.525 78.0125 233.045C78.0125 233.615 77.8675 234.135 77.5775 234.605C77.2975 235.075 76.8925 235.445 76.3625 235.715C75.8325 235.985 75.2025 236.12 74.4725 236.12C73.9925 236.12 73.5325 236.065 73.0925 235.955C72.6625 235.845 72.2625 235.705 71.8925 235.535C71.5225 235.355 71.1925 235.17 70.9025 234.98L71.5475 233.84C71.7875 234.01 72.0625 234.175 72.3725 234.335C72.6825 234.485 73.0075 234.61 73.3475 234.71C73.6875 234.8 74.0175 234.845 74.3375 234.845C74.6775 234.845 75.0125 234.785 75.3425 234.665C75.6825 234.535 75.9625 234.34 76.1825 234.08C76.4025 233.82 76.5125 233.475 76.5125 233.045C76.5125 232.675 76.4125 232.37 76.2125 232.13C76.0225 231.88 75.7675 231.67 75.4475 231.5C75.1275 231.32 74.7875 231.16 74.4275 231.02C74.0875 230.89 73.7425 230.75 73.3925 230.6C73.0425 230.44 72.7175 230.25 72.4175 230.03C72.1175 229.8 71.8775 229.52 71.6975 229.19C71.5175 228.86 71.4275 228.46 71.4275 227.99C71.4275 227.42 71.5625 226.925 71.8325 226.505C72.1125 226.075 72.4925 225.74 72.9725 225.5C73.4525 225.25 74.0025 225.115 74.6225 225.095C75.3225 225.095 75.9375 225.18 76.4675 225.35C77.0075 225.52 77.4825 225.73 77.8925 225.98L77.3375 227.09ZM80.4579 225.155H87.5079V226.55H81.9129V229.85H86.9079V231.245H81.9129V234.605H87.7179V236H80.4579V225.155ZM90.2431 225.155H97.2931V226.55H91.6981V229.85H96.6931V231.245H91.6981V234.605H97.5031V236H90.2431V225.155ZM103.829 225.215H105.509L108.449 233.495L108.194 233.39L110.339 227.84L111.014 229.805L108.149 236.495L103.829 225.215ZM109.034 225.215H110.489L113.669 233.375L113.369 233.315L116.174 225.215H117.719L113.459 236.48L109.034 225.215ZM128.472 225.155V236H127.032V231.245H121.347V236H119.892V225.155H121.347V229.865H127.032V225.155H128.472ZM130.516 236L135.256 224.705H135.346L140.071 236H138.406L134.866 226.985L135.901 226.31L131.941 236H130.516ZM133.291 231.89H137.326L137.806 233.15H132.871L133.291 231.89ZM140.483 225.155H147.683V226.55H144.773V236H143.318V226.55H140.483V225.155ZM163.32 225.155V236H161.88V231.245H156.195V236H154.74V225.155H156.195V229.865H161.88V225.155H163.32ZM165.364 236L170.104 224.705H170.194L174.919 236H173.254L169.714 226.985L170.749 226.31L166.789 236H165.364ZM168.139 231.89H172.174L172.654 233.15H167.719L168.139 231.89ZM179.857 225.155C180.647 225.155 181.322 225.29 181.882 225.56C182.442 225.82 182.872 226.2 183.172 226.7C183.482 227.2 183.637 227.805 183.637 228.515C183.637 228.945 183.572 229.37 183.442 229.79C183.312 230.2 183.102 230.575 182.812 230.915C182.532 231.245 182.162 231.51 181.702 231.71C181.242 231.91 180.682 232.01 180.022 232.01H178.417V236H176.962V225.155H179.857ZM180.007 230.615C180.437 230.615 180.792 230.545 181.072 230.405C181.352 230.265 181.572 230.09 181.732 229.88C181.892 229.66 182.007 229.43 182.077 229.19C182.147 228.95 182.182 228.735 182.182 228.545C182.182 228.325 182.147 228.1 182.077 227.87C182.007 227.63 181.887 227.415 181.717 227.225C181.557 227.025 181.342 226.865 181.072 226.745C180.812 226.615 180.487 226.55 180.097 226.55H178.417V230.615H180.007ZM188.778 225.155C189.568 225.155 190.243 225.29 190.803 225.56C191.363 225.82 191.793 226.2 192.093 226.7C192.403 227.2 192.558 227.805 192.558 228.515C192.558 228.945 192.493 229.37 192.363 229.79C192.233 230.2 192.023 230.575 191.733 230.915C191.453 231.245 191.083 231.51 190.623 231.71C190.163 231.91 189.603 232.01 188.943 232.01H187.338V236H185.883V225.155H188.778ZM188.928 230.615C189.358 230.615 189.713 230.545 189.993 230.405C190.273 230.265 190.493 230.09 190.653 229.88C190.813 229.66 190.928 229.43 190.998 229.19C191.068 228.95 191.103 228.735 191.103 228.545C191.103 228.325 191.068 228.1 190.998 227.87C190.928 227.63 190.808 227.415 190.638 227.225C190.478 227.025 190.263 226.865 189.993 226.745C189.733 226.615 189.408 226.55 189.018 226.55H187.338V230.615H188.928ZM194.804 225.155H201.854V226.55H196.259V229.85H201.254V231.245H196.259V234.605H202.064V236H194.804V225.155ZM213.979 236.345L205.594 227.84L206.014 227.945L206.044 236H204.589V224.825H204.664L212.959 233.36L212.614 233.285L212.584 225.155H214.024V236.345H213.979ZM222.753 227.09C222.383 226.9 221.978 226.735 221.538 226.595C221.098 226.455 220.668 226.385 220.248 226.385C219.668 226.385 219.203 226.52 218.853 226.79C218.513 227.06 218.343 227.42 218.343 227.87C218.343 228.21 218.453 228.5 218.673 228.74C218.893 228.97 219.183 229.17 219.543 229.34C219.903 229.51 220.278 229.67 220.668 229.82C221.008 229.95 221.343 230.095 221.673 230.255C222.003 230.415 222.298 230.615 222.558 230.855C222.828 231.095 223.038 231.39 223.188 231.74C223.348 232.09 223.428 232.525 223.428 233.045C223.428 233.615 223.283 234.135 222.993 234.605C222.713 235.075 222.308 235.445 221.778 235.715C221.248 235.985 220.618 236.12 219.888 236.12C219.408 236.12 218.948 236.065 218.508 235.955C218.078 235.845 217.678 235.705 217.308 235.535C216.938 235.355 216.608 235.17 216.318 234.98L216.963 233.84C217.203 234.01 217.478 234.175 217.788 234.335C218.098 234.485 218.423 234.61 218.763 234.71C219.103 234.8 219.433 234.845 219.753 234.845C220.093 234.845 220.428 234.785 220.758 234.665C221.098 234.535 221.378 234.34 221.598 234.08C221.818 233.82 221.928 233.475 221.928 233.045C221.928 232.675 221.828 232.37 221.628 232.13C221.438 231.88 221.183 231.67 220.863 231.5C220.543 231.32 220.203 231.16 219.843 231.02C219.503 230.89 219.158 230.75 218.808 230.6C218.458 230.44 218.133 230.25 217.833 230.03C217.533 229.8 217.293 229.52 217.113 229.19C216.933 228.86 216.843 228.46 216.843 227.99C216.843 227.42 216.978 226.925 217.248 226.505C217.528 226.075 217.908 225.74 218.388 225.5C218.868 225.25 219.418 225.115 220.038 225.095C220.738 225.095 221.353 225.18 221.883 225.35C222.423 225.52 222.898 225.73 223.308 225.98L222.753 227.09ZM224.823 235.205C224.823 234.985 224.903 234.8 225.063 234.65C225.233 234.49 225.418 234.41 225.618 234.41C225.798 234.41 225.968 234.49 226.128 234.65C226.298 234.8 226.383 234.985 226.383 235.205C226.383 235.445 226.298 235.64 226.128 235.79C225.968 235.93 225.798 236 225.618 236C225.418 236 225.233 235.93 225.063 235.79C224.903 235.64 224.823 235.445 224.823 235.205Z" fill="white"/>
</g>
<defs>
<linearGradient id="paint0_linear_385_19160" x1="148.58" y1="2.00016" x2="148.58" y2="368.59" gradientUnits="userSpaceOnUse">
<stop stop-color="#FFEED6"/>
<stop offset="0.65" stop-color="#DFC28D"/>
<stop offset="1" stop-color="#D0AD6A"/>
</linearGradient>
<linearGradient id="paint1_linear_385_19160" x1="-nan" y1="-nan" x2="-nan" y2="-nan" gradientUnits="userSpaceOnUse">
<stop stop-color="#FFEED6"/>
<stop offset="0.65" stop-color="#DFC28D"/>
<stop offset="1" stop-color="#D0AD6A"/>
</linearGradient>
<linearGradient id="paint2_linear_385_19160" x1="-nan" y1="-nan" x2="-nan" y2="-nan" gradientUnits="userSpaceOnUse">
<stop stop-color="#FFEED6"/>
<stop offset="0.65" stop-color="#DFC28D"/>
<stop offset="1" stop-color="#D0AD6A"/>
</linearGradient>
<radialGradient id="paint3_radial_385_19160" cx="0" cy="0" r="1" gradientUnits="userSpaceOnUse" gradientTransform="translate(148.98 359.5) scale(271.7 271.7)">
<stop stop-color="#A2743D"/>
<stop offset="1"/>
</radialGradient>
<linearGradient id="paint4_linear_385_19160" x1="148.58" y1="22.1999" x2="148.58" y2="348.39" gradientUnits="userSpaceOnUse">
<stop stop-color="#FFEED6"/>
<stop offset="0.65" stop-color="#DFC28D"/>
<stop offset="1" stop-color="#D0AD6A"/>
</linearGradient>
<linearGradient id="paint5_linear_385_19160" x1="148.58" y1="33.8601" x2="148.58" y2="336.73" gradientUnits="userSpaceOnUse">
<stop stop-color="#FFEED6"/>
<stop offset="0.65" stop-color="#DFC28D"/>
<stop offset="1" stop-color="#D0AD6A"/>
</linearGradient>
<linearGradient id="paint6_linear_385_19160" x1="-nan" y1="-nan" x2="-nan" y2="-nan" gradientUnits="userSpaceOnUse">
<stop stop-color="#FFEED6"/>
<stop offset="0.65" stop-color="#DFC28D"/>
<stop offset="1" stop-color="#D0AD6A"/>
</linearGradient>
<linearGradient id="paint7_linear_385_19160" x1="-nan" y1="-nan" x2="-nan" y2="-nan" gradientUnits="userSpaceOnUse">
<stop stop-color="#FFEED6"/>
<stop offset="0.65" stop-color="#DFC28D"/>
<stop offset="1" stop-color="#D0AD6A"/>
</linearGradient>
<linearGradient id="paint8_linear_385_19160" x1="170.869" y1="164.038" x2="170.869" y2="78.6808" gradientUnits="userSpaceOnUse">
<stop stop-color="#CDA25F"/>
<stop offset="0.0146738" stop-color="#CEA462"/>
<stop offset="0.2168" stop-color="#D8BA81"/>
<stop offset="0.4135" stop-color="#DFCA97"/>
<stop offset="0.6008" stop-color="#E4D4A4"/>
<stop offset="0.7684" stop-color="#E5D7A9"/>
</linearGradient>
<linearGradient id="paint9_linear_385_19160" x1="171.772" y1="164.158" x2="171.772" y2="78.7047" gradientUnits="userSpaceOnUse">
<stop stop-color="#CDA25F"/>
<stop offset="0.0146738" stop-color="#CEA462"/>
<stop offset="0.2168" stop-color="#D8BA81"/>
<stop offset="0.4135" stop-color="#DFCA97"/>
<stop offset="0.6008" stop-color="#E4D4A4"/>
<stop offset="0.7684" stop-color="#E5D7A9"/>
</linearGradient>
<linearGradient id="paint10_linear_385_19160" x1="171.897" y1="164.282" x2="171.897" y2="78.7666" gradientUnits="userSpaceOnUse">
<stop stop-color="#CDA25F"/>
<stop offset="0.0146738" stop-color="#CEA462"/>
<stop offset="0.2168" stop-color="#D8BA81"/>
<stop offset="0.4135" stop-color="#DFCA97"/>
<stop offset="0.6008" stop-color="#E4D4A4"/>
<stop offset="0.7684" stop-color="#E5D7A9"/>
</linearGradient>
<linearGradient id="paint11_linear_385_19160" x1="170.961" y1="164.276" x2="170.961" y2="78.9121" gradientUnits="userSpaceOnUse">
<stop stop-color="#CDA25F"/>
<stop offset="0.0146738" stop-color="#CEA462"/>
<stop offset="0.2168" stop-color="#D8BA81"/>
<stop offset="0.4135" stop-color="#DFCA97"/>
<stop offset="0.6008" stop-color="#E4D4A4"/>
<stop offset="0.7684" stop-color="#E5D7A9"/>
</linearGradient>
<linearGradient id="paint12_linear_385_19160" x1="126.131" y1="165.153" x2="126.131" y2="77.7802" gradientUnits="userSpaceOnUse">
<stop stop-color="#CDA25F"/>
<stop offset="0.0146738" stop-color="#CEA462"/>
<stop offset="0.2168" stop-color="#D8BA81"/>
<stop offset="0.4135" stop-color="#DFCA97"/>
<stop offset="0.6008" stop-color="#E4D4A4"/>
<stop offset="0.7684" stop-color="#E5D7A9"/>
</linearGradient>
<linearGradient id="paint13_linear_385_19160" x1="125.228" y1="165.03" x2="125.228" y2="77.7568" gradientUnits="userSpaceOnUse">
<stop stop-color="#CDA25F"/>
<stop offset="0.0146738" stop-color="#CEA462"/>
<stop offset="0.2168" stop-color="#D8BA81"/>
<stop offset="0.4135" stop-color="#DFCA97"/>
<stop offset="0.6008" stop-color="#E4D4A4"/>
<stop offset="0.7684" stop-color="#E5D7A9"/>
</linearGradient>
<linearGradient id="paint14_linear_385_19160" x1="126.04" y1="164.826" x2="126.04" y2="77.6008" gradientUnits="userSpaceOnUse">
<stop stop-color="#CDA25F"/>
<stop offset="0.0146738" stop-color="#CEA462"/>
<stop offset="0.2168" stop-color="#D8BA81"/>
<stop offset="0.4135" stop-color="#DFCA97"/>
<stop offset="0.6008" stop-color="#E4D4A4"/>
<stop offset="0.7684" stop-color="#E5D7A9"/>
</linearGradient>
<linearGradient id="paint15_linear_385_19160" x1="125.104" y1="164.902" x2="125.104" y2="77.6942" gradientUnits="userSpaceOnUse">
<stop stop-color="#CDA25F"/>
<stop offset="0.0146738" stop-color="#CEA462"/>
<stop offset="0.2168" stop-color="#D8BA81"/>
<stop offset="0.4135" stop-color="#DFCA97"/>
<stop offset="0.6008" stop-color="#E4D4A4"/>
<stop offset="0.7684" stop-color="#E5D7A9"/>
</linearGradient>
<linearGradient id="paint16_linear_385_19160" x1="148.5" y1="164.586" x2="148.5" y2="78.2378" gradientUnits="userSpaceOnUse">
<stop stop-color="#CDA25F"/>
<stop offset="0.0146738" stop-color="#CEA462"/>
<stop offset="0.2168" stop-color="#D8BA81"/>
<stop offset="0.4135" stop-color="#DFCA97"/>
<stop offset="0.6008" stop-color="#E4D4A4"/>
<stop offset="0.7684" stop-color="#E5D7A9"/>
</linearGradient>
<linearGradient id="paint17_linear_385_19160" x1="148.5" y1="164.451" x2="148.5" y2="78.7315" gradientUnits="userSpaceOnUse">
<stop stop-color="#CDA25F"/>
<stop offset="0.0146738" stop-color="#CEA462"/>
<stop offset="0.2168" stop-color="#D8BA81"/>
<stop offset="0.4135" stop-color="#DFCA97"/>
<stop offset="0.6008" stop-color="#E4D4A4"/>
<stop offset="0.7684" stop-color="#E5D7A9"/>
</linearGradient>
<clipPath id="clip0_385_19160">
<rect width="297" height="370" fill="white"/>
</clipPath>
</defs>
</svg>
