<svg width="297" height="370" viewBox="0 0 297 370" fill="none" xmlns="http://www.w3.org/2000/svg">
<g clip-path="url(#clip0_385_19191)">
<path d="M219.53 326.96V43.6302L148.58 2.66016L77.6299 43.6302V326.96L148.58 367.93L219.53 326.96Z" stroke="url(#paint0_linear_385_19191)" stroke-width="1.15" stroke-miterlimit="10"/>
<path d="M211.09 331.43V39.1602" stroke="url(#paint1_linear_385_19191)" stroke-width="1.01" stroke-miterlimit="10"/>
<path d="M86.0703 39.1602V331.43" stroke="url(#paint2_linear_385_19191)" stroke-width="1.01" stroke-miterlimit="10"/>
<path d="M287.72 265.63V104.96L148.58 24.6299L9.44043 104.96V265.63L148.58 345.96L287.72 265.63Z" fill="url(#paint3_radial_385_19191)" stroke="url(#paint4_linear_385_19191)" stroke-width="4.21" stroke-miterlimit="10"/>
<path d="M278.68 260.4V110.19L148.58 35.0801L18.4902 110.19V260.4L148.58 335.52L278.68 260.4Z" stroke="url(#paint5_linear_385_19191)" stroke-width="2.11" stroke-miterlimit="10"/>
<path d="M1.58008 140.99V229.6" stroke="url(#paint6_linear_385_19191)" stroke-width="1.16" stroke-miterlimit="10"/>
<path d="M295.58 140.99V229.6" stroke="url(#paint7_linear_385_19191)" stroke-width="1.16" stroke-miterlimit="10"/>
<path d="M131.73 140.695L129.94 142.485V100.917L132.188 98.6694L133.447 99.9281L131.73 101.653V140.695Z" fill="url(#paint8_linear_385_19191)"/>
<path d="M168.06 142.485L166.27 140.695V101.653L164.554 99.9281L165.812 98.6694L168.06 100.917V142.485Z" fill="url(#paint9_linear_385_19191)"/>
<path d="M149.702 135.334C147.169 134.851 144.978 137.042 145.461 139.575C145.73 140.989 146.875 142.134 148.289 142.403C150.822 142.886 153.021 140.695 152.53 138.162C152.261 136.748 151.125 135.603 149.702 135.334Z" fill="url(#paint10_linear_385_19191)"/>
<path d="M163.998 145.583L162.943 144.651L161.75 137.827H154.28C154.394 138.391 154.419 138.995 154.337 139.608C153.969 142.24 151.665 144.267 149.008 144.267C146.033 144.275 143.606 141.856 143.606 138.881C143.606 138.521 143.647 138.17 143.712 137.827H136.242L135.049 144.651L133.994 145.583L130.537 146.923H136.324H138.04H159.96H161.677H167.463L163.998 145.583Z" fill="url(#paint11_linear_385_19191)"/>
<path d="M163.286 93.4713C162.698 92.654 161.75 92.1636 160.744 92.1636H159.772C159.788 92.1881 159.804 92.2044 159.821 92.2208L162.109 95.4083H135.898L138.187 92.2208C138.203 92.1963 138.219 92.1799 138.236 92.1636H137.263C136.258 92.1636 135.31 92.6458 134.721 93.4713L131.697 97.6804H166.31L163.286 93.4713Z" fill="url(#paint12_linear_385_19191)"/>
<path d="M154.378 88.0771H155.718C156.298 88.0771 156.838 88.355 157.173 88.8291L158.906 91.2401H139.086L140.819 88.8291C141.154 88.3632 141.701 88.0771 142.273 88.0771H143.614H154.378Z" fill="url(#paint13_linear_385_19191)"/>
<path d="M149 105.895C150.422 105.895 151.575 104.742 151.575 103.32C151.575 101.898 150.422 100.746 149 100.746C147.578 100.746 146.426 101.898 146.426 103.32C146.426 104.742 147.578 105.895 149 105.895ZM151.844 106.557H146.156C144.333 106.557 142.846 108.036 142.846 109.85V117.827C142.846 118.448 143.336 118.955 143.957 118.955C144.578 118.955 145.085 118.448 145.085 117.827C145.085 117.1 145.085 110.635 145.085 110.635H145.665C145.665 110.635 145.665 129.425 145.665 130.659C145.665 131.493 146.352 132.171 147.186 132.171C148.019 132.171 148.698 131.493 148.698 130.659C148.698 129.425 148.698 119.029 148.698 119.029H149.319C149.319 119.029 149.319 129.425 149.319 130.659C149.319 131.493 149.997 132.171 150.831 132.171C151.664 132.171 152.351 131.493 152.351 130.659C152.351 129.425 152.351 110.635 152.351 110.635H152.931C152.931 110.635 152.931 117.108 152.931 117.827C152.931 118.448 153.438 118.955 154.059 118.955C154.68 118.955 155.171 118.448 155.171 117.827V109.85C155.154 108.028 153.659 106.557 151.844 106.557Z" fill="url(#paint14_linear_385_19191)"/>
<path d="M137.607 98.6694H136.267V135.955H137.607V98.6694Z" fill="url(#paint15_linear_385_19191)"/>
<path d="M161.734 98.6694H160.394V135.955H161.734V98.6694Z" fill="url(#paint16_linear_385_19191)"/>
<path d="M38.2027 175.44C39.6827 175.44 40.8493 175.74 41.7027 176.34C42.5693 176.94 43.0027 177.86 43.0027 179.1C43.0027 179.927 42.8093 180.633 42.4227 181.22C42.036 181.793 41.5027 182.24 40.8227 182.56C40.156 182.867 39.3693 183.033 38.4627 183.06L38.1027 181.82C39.1827 181.833 40.1427 182.007 40.9827 182.34C41.8227 182.66 42.4827 183.12 42.9627 183.72C43.456 184.307 43.7027 185.007 43.7027 185.82C43.7027 186.58 43.5627 187.227 43.2827 187.76C43.016 188.28 42.6493 188.707 42.1827 189.04C41.716 189.373 41.1893 189.62 40.6027 189.78C40.016 189.927 39.4027 190 38.7627 190H34.2227V175.44H38.2027ZM38.5627 181.64C39.2693 181.64 39.7827 181.44 40.1027 181.04C40.436 180.627 40.6027 180.147 40.6027 179.6C40.6027 178.933 40.396 178.447 39.9827 178.14C39.5693 177.833 39.0093 177.68 38.3027 177.68H36.5627V181.64H38.5627ZM38.6627 187.84C39.156 187.84 39.6027 187.773 40.0027 187.64C40.4027 187.493 40.7227 187.273 40.9627 186.98C41.2027 186.673 41.3227 186.293 41.3227 185.84C41.3227 185.333 41.1827 184.94 40.9027 184.66C40.6227 184.38 40.2693 184.18 39.8427 184.06C39.416 183.94 38.9693 183.88 38.5027 183.88H36.5627V187.84H38.6627ZM48.9203 184.76C48.9203 185.333 49.067 185.86 49.3603 186.34C49.667 186.82 50.067 187.2 50.5603 187.48C51.0536 187.76 51.607 187.9 52.2203 187.9C52.8603 187.9 53.4336 187.76 53.9403 187.48C54.447 187.2 54.847 186.82 55.1403 186.34C55.4336 185.86 55.5803 185.333 55.5803 184.76V175.44H57.8803V184.82C57.8803 185.873 57.627 186.807 57.1203 187.62C56.6136 188.42 55.9336 189.047 55.0803 189.5C54.227 189.94 53.2736 190.16 52.2203 190.16C51.1803 190.16 50.2336 189.94 49.3803 189.5C48.527 189.047 47.847 188.42 47.3403 187.62C46.847 186.807 46.6003 185.873 46.6003 184.82V175.44H48.9203V184.76ZM61.6445 175.44H63.9845V190H61.6445V175.44ZM67.9922 175.44H70.3322V187.76H77.4922V190H67.9922V175.44ZM80.5898 190V175.44H84.7298C86.1698 175.44 87.3965 175.66 88.4098 176.1C89.4365 176.54 90.2632 177.12 90.8898 177.84C91.5165 178.56 91.9698 179.367 92.2498 180.26C92.5432 181.14 92.6898 182.027 92.6898 182.92C92.6898 184.013 92.4965 184.993 92.1098 185.86C91.7232 186.727 91.1898 187.473 90.5098 188.1C89.8432 188.713 89.0698 189.187 88.1898 189.52C87.3232 189.84 86.4032 190 85.4298 190H80.5898ZM82.9298 187.76H85.0098C85.7832 187.76 86.4898 187.653 87.1298 187.44C87.7698 187.213 88.3232 186.893 88.7898 186.48C89.2698 186.053 89.6365 185.527 89.8898 184.9C90.1565 184.273 90.2898 183.56 90.2898 182.76C90.2898 181.853 90.1365 181.08 89.8298 180.44C89.5365 179.787 89.1432 179.26 88.6498 178.86C88.1698 178.447 87.6432 178.147 87.0698 177.96C86.4965 177.76 85.9298 177.66 85.3698 177.66H82.9298V187.76ZM95.7852 175.44H98.1252V190H95.7852V175.44ZM114.933 190.52L103.753 179.68L104.433 179.96L104.493 190H102.133V174.94H102.253L113.253 185.78L112.713 185.62L112.673 175.44H114.993V190.52H114.933ZM130.588 188.66C130.401 188.847 130.121 189.027 129.748 189.2C129.388 189.373 128.981 189.533 128.528 189.68C128.074 189.827 127.608 189.94 127.128 190.02C126.648 190.113 126.194 190.16 125.768 190.16C124.594 190.16 123.534 189.98 122.588 189.62C121.654 189.26 120.854 188.767 120.188 188.14C119.521 187.5 119.008 186.747 118.648 185.88C118.288 185.013 118.108 184.073 118.108 183.06C118.108 181.793 118.308 180.68 118.708 179.72C119.108 178.747 119.654 177.933 120.348 177.28C121.041 176.613 121.834 176.113 122.728 175.78C123.634 175.447 124.588 175.28 125.588 175.28C126.468 175.28 127.281 175.38 128.028 175.58C128.788 175.78 129.434 176.033 129.968 176.34L129.208 178.5C128.954 178.353 128.628 178.213 128.228 178.08C127.828 177.933 127.421 177.82 127.008 177.74C126.594 177.66 126.221 177.62 125.888 177.62C125.048 177.62 124.294 177.74 123.628 177.98C122.974 178.207 122.414 178.547 121.948 179C121.481 179.453 121.121 180.007 120.868 180.66C120.628 181.3 120.508 182.033 120.508 182.86C120.508 183.607 120.634 184.287 120.888 184.9C121.154 185.513 121.521 186.04 121.988 186.48C122.454 186.92 123.014 187.26 123.668 187.5C124.321 187.727 125.041 187.84 125.828 187.84C126.281 187.84 126.721 187.8 127.148 187.72C127.574 187.64 127.941 187.513 128.248 187.34V184.92H125.508V182.68H130.588V188.66ZM151.331 188.86C151.118 189.007 150.798 189.187 150.371 189.4C149.958 189.613 149.458 189.8 148.871 189.96C148.298 190.107 147.658 190.173 146.951 190.16C145.818 190.147 144.798 189.947 143.891 189.56C142.985 189.16 142.218 188.627 141.591 187.96C140.965 187.28 140.478 186.507 140.131 185.64C139.798 184.76 139.631 183.827 139.631 182.84C139.631 181.733 139.805 180.72 140.151 179.8C140.498 178.88 140.991 178.087 141.631 177.42C142.271 176.74 143.031 176.213 143.911 175.84C144.791 175.467 145.751 175.28 146.791 175.28C147.711 175.28 148.531 175.407 149.251 175.66C149.985 175.9 150.598 176.173 151.091 176.48L150.171 178.66C149.798 178.407 149.331 178.153 148.771 177.9C148.211 177.647 147.578 177.52 146.871 177.52C146.231 177.52 145.618 177.653 145.031 177.92C144.445 178.173 143.931 178.54 143.491 179.02C143.051 179.487 142.698 180.033 142.431 180.66C142.178 181.287 142.051 181.967 142.051 182.7C142.051 183.46 142.165 184.16 142.391 184.8C142.631 185.44 142.965 185.993 143.391 186.46C143.831 186.913 144.351 187.273 144.951 187.54C145.565 187.793 146.251 187.92 147.011 187.92C147.758 187.92 148.411 187.807 148.971 187.58C149.545 187.34 150.005 187.073 150.351 186.78L151.331 188.86ZM166.258 175.44V190H163.938V183.8H156.778V190H154.438V175.44H156.778V181.58H163.938V175.44H166.258ZM168.757 190L175.197 174.84H175.337L181.777 190H179.097L174.577 178.48L176.237 177.36L171.037 190H168.757ZM172.797 184.58H177.777L178.577 186.58H172.097L172.797 184.58ZM184.262 175.44H186.602V187.76H193.762V190H184.262V175.44ZM196.859 175.44H199.199V187.76H206.359V190H196.859V175.44ZM209.457 175.44H219.117V177.68H211.797V181.56H218.317V183.8H211.797V187.76H219.397V190H209.457V175.44ZM235.421 190.52L224.241 179.68L224.921 179.96L224.981 190H222.621V174.94H222.741L233.741 185.78L233.201 185.62L233.161 175.44H235.481V190.52H235.421ZM251.076 188.66C250.889 188.847 250.609 189.027 250.236 189.2C249.876 189.373 249.469 189.533 249.016 189.68C248.563 189.827 248.096 189.94 247.616 190.02C247.136 190.113 246.683 190.16 246.256 190.16C245.083 190.16 244.023 189.98 243.076 189.62C242.143 189.26 241.343 188.767 240.676 188.14C240.009 187.5 239.496 186.747 239.136 185.88C238.776 185.013 238.596 184.073 238.596 183.06C238.596 181.793 238.796 180.68 239.196 179.72C239.596 178.747 240.143 177.933 240.836 177.28C241.529 176.613 242.323 176.113 243.216 175.78C244.123 175.447 245.076 175.28 246.076 175.28C246.956 175.28 247.769 175.38 248.516 175.58C249.276 175.78 249.923 176.033 250.456 176.34L249.696 178.5C249.443 178.353 249.116 178.213 248.716 178.08C248.316 177.933 247.909 177.82 247.496 177.74C247.083 177.66 246.709 177.62 246.376 177.62C245.536 177.62 244.783 177.74 244.116 177.98C243.463 178.207 242.903 178.547 242.436 179C241.969 179.453 241.609 180.007 241.356 180.66C241.116 181.3 240.996 182.033 240.996 182.86C240.996 183.607 241.123 184.287 241.376 184.9C241.643 185.513 242.009 186.04 242.476 186.48C242.943 186.92 243.503 187.26 244.156 187.5C244.809 187.727 245.529 187.84 246.316 187.84C246.769 187.84 247.209 187.8 247.636 187.72C248.063 187.64 248.429 187.513 248.736 187.34V184.92H245.996V182.68H251.076V188.66ZM254.613 175.44H264.273V177.68H256.953V181.56H263.473V183.8H256.953V187.76H264.553V190H254.613V175.44Z" fill="white"/>
<path d="M43.7769 221L48.5169 209.705H48.6069L53.3319 221H51.6669L48.1269 211.985L49.1619 211.31L45.2019 221H43.7769ZM46.5519 216.89H50.5869L51.0669 218.15H46.1319L46.5519 216.89ZM60.9845 212.09C60.6145 211.9 60.2095 211.735 59.7695 211.595C59.3295 211.455 58.8995 211.385 58.4795 211.385C57.8995 211.385 57.4345 211.52 57.0845 211.79C56.7445 212.06 56.5745 212.42 56.5745 212.87C56.5745 213.21 56.6845 213.5 56.9045 213.74C57.1245 213.97 57.4145 214.17 57.7745 214.34C58.1345 214.51 58.5095 214.67 58.8995 214.82C59.2395 214.95 59.5745 215.095 59.9045 215.255C60.2345 215.415 60.5295 215.615 60.7895 215.855C61.0595 216.095 61.2695 216.39 61.4195 216.74C61.5795 217.09 61.6595 217.525 61.6595 218.045C61.6595 218.615 61.5145 219.135 61.2245 219.605C60.9445 220.075 60.5395 220.445 60.0095 220.715C59.4795 220.985 58.8495 221.12 58.1195 221.12C57.6395 221.12 57.1795 221.065 56.7395 220.955C56.3095 220.845 55.9095 220.705 55.5395 220.535C55.1695 220.355 54.8395 220.17 54.5495 219.98L55.1945 218.84C55.4345 219.01 55.7095 219.175 56.0195 219.335C56.3295 219.485 56.6545 219.61 56.9945 219.71C57.3345 219.8 57.6645 219.845 57.9845 219.845C58.3245 219.845 58.6595 219.785 58.9895 219.665C59.3295 219.535 59.6095 219.34 59.8295 219.08C60.0495 218.82 60.1595 218.475 60.1595 218.045C60.1595 217.675 60.0595 217.37 59.8595 217.13C59.6695 216.88 59.4145 216.67 59.0945 216.5C58.7745 216.32 58.4345 216.16 58.0745 216.02C57.7345 215.89 57.3895 215.75 57.0395 215.6C56.6895 215.44 56.3645 215.25 56.0645 215.03C55.7645 214.8 55.5245 214.52 55.3445 214.19C55.1645 213.86 55.0745 213.46 55.0745 212.99C55.0745 212.42 55.2095 211.925 55.4795 211.505C55.7595 211.075 56.1395 210.74 56.6195 210.5C57.0995 210.25 57.6495 210.115 58.2695 210.095C58.9695 210.095 59.5845 210.18 60.1145 210.35C60.6545 210.52 61.1295 210.73 61.5395 210.98L60.9845 212.09ZM69.7149 212.09C69.3449 211.9 68.9399 211.735 68.4999 211.595C68.0599 211.455 67.6299 211.385 67.2099 211.385C66.6299 211.385 66.1649 211.52 65.8149 211.79C65.4749 212.06 65.3049 212.42 65.3049 212.87C65.3049 213.21 65.4149 213.5 65.6349 213.74C65.8549 213.97 66.1449 214.17 66.5049 214.34C66.8649 214.51 67.2399 214.67 67.6299 214.82C67.9699 214.95 68.3049 215.095 68.6349 215.255C68.9649 215.415 69.2599 215.615 69.5199 215.855C69.7899 216.095 69.9999 216.39 70.1499 216.74C70.3099 217.09 70.3899 217.525 70.3899 218.045C70.3899 218.615 70.2449 219.135 69.9549 219.605C69.6749 220.075 69.2699 220.445 68.7399 220.715C68.2099 220.985 67.5799 221.12 66.8499 221.12C66.3699 221.12 65.9099 221.065 65.4699 220.955C65.0399 220.845 64.6399 220.705 64.2699 220.535C63.8999 220.355 63.5699 220.17 63.2799 219.98L63.9249 218.84C64.1649 219.01 64.4399 219.175 64.7499 219.335C65.0599 219.485 65.3849 219.61 65.7249 219.71C66.0649 219.8 66.3949 219.845 66.7149 219.845C67.0549 219.845 67.3899 219.785 67.7199 219.665C68.0599 219.535 68.3399 219.34 68.5599 219.08C68.7799 218.82 68.8899 218.475 68.8899 218.045C68.8899 217.675 68.7899 217.37 68.5899 217.13C68.3999 216.88 68.1449 216.67 67.8249 216.5C67.5049 216.32 67.1649 216.16 66.8049 216.02C66.4649 215.89 66.1199 215.75 65.7699 215.6C65.4199 215.44 65.0949 215.25 64.7949 215.03C64.4949 214.8 64.2549 214.52 64.0749 214.19C63.8949 213.86 63.8049 213.46 63.8049 212.99C63.8049 212.42 63.9399 211.925 64.2099 211.505C64.4899 211.075 64.8699 210.74 65.3499 210.5C65.8299 210.25 66.3799 210.115 66.9999 210.095C67.6999 210.095 68.3149 210.18 68.8449 210.35C69.3849 210.52 69.8599 210.73 70.2699 210.98L69.7149 212.09ZM72.8354 210.155H74.2904V221H72.8354V210.155ZM77.4057 221V209.81H77.4207L83.1057 217.88L82.4907 217.76L88.1607 209.81H88.1907V221H86.7507V213.11L86.8407 213.845L82.7457 219.635H82.7157L78.5607 213.845L78.8157 213.17V221H77.4057ZM91.3071 210.155H92.7621V221H91.3071V210.155ZM95.8774 210.155H97.3324V219.605H102.837V221H95.8774V210.155ZM104.128 221L108.868 209.705H108.958L113.683 221H112.018L108.478 211.985L109.513 211.31L105.553 221H104.128ZM106.903 216.89H110.938L111.418 218.15H106.483L106.903 216.89ZM114.096 210.155H121.296V211.55H118.386V221H116.931V211.55H114.096V210.155ZM123.607 210.155H130.657V211.55H125.062V214.85H130.057V216.245H125.062V219.605H130.867V221H123.607V210.155ZM146.718 210.155V221H145.278V216.245H139.593V221H138.138V210.155H139.593V214.865H145.278V210.155H146.718ZM149.842 210.155H156.892V211.55H151.297V214.85H156.292V216.245H151.297V219.605H157.102V221H149.842V210.155ZM162.507 210.155C163.057 210.155 163.562 210.23 164.022 210.38C164.492 210.52 164.897 210.735 165.237 211.025C165.587 211.305 165.857 211.655 166.047 212.075C166.247 212.485 166.347 212.965 166.347 213.515C166.347 213.945 166.282 214.365 166.152 214.775C166.032 215.185 165.827 215.56 165.537 215.9C165.247 216.23 164.867 216.5 164.397 216.71C163.937 216.91 163.367 217.01 162.687 217.01H161.082V221H159.627V210.155H162.507ZM162.657 215.615C163.087 215.615 163.442 215.55 163.722 215.42C164.012 215.29 164.237 215.125 164.397 214.925C164.557 214.715 164.672 214.49 164.742 214.25C164.812 214.01 164.847 213.785 164.847 213.575C164.847 213.355 164.807 213.13 164.727 212.9C164.657 212.66 164.537 212.44 164.367 212.24C164.207 212.04 163.992 211.875 163.722 211.745C163.462 211.615 163.142 211.55 162.762 211.55H161.082V215.615H162.657ZM164.442 216.44L167.277 221H165.597L162.717 216.485L164.442 216.44ZM168.606 215.585C168.606 214.835 168.746 214.13 169.026 213.47C169.316 212.8 169.716 212.21 170.226 211.7C170.736 211.18 171.321 210.775 171.981 210.485C172.651 210.185 173.371 210.035 174.141 210.035C174.901 210.035 175.611 210.185 176.271 210.485C176.941 210.775 177.531 211.18 178.041 211.7C178.561 212.21 178.966 212.8 179.256 213.47C179.546 214.13 179.691 214.835 179.691 215.585C179.691 216.355 179.546 217.075 179.256 217.745C178.966 218.415 178.561 219.005 178.041 219.515C177.531 220.015 176.941 220.41 176.271 220.7C175.611 220.98 174.901 221.12 174.141 221.12C173.371 221.12 172.651 220.98 171.981 220.7C171.321 220.42 170.736 220.03 170.226 219.53C169.716 219.03 169.316 218.445 169.026 217.775C168.746 217.105 168.606 216.375 168.606 215.585ZM170.106 215.6C170.106 216.17 170.211 216.705 170.421 217.205C170.631 217.695 170.921 218.13 171.291 218.51C171.661 218.89 172.091 219.19 172.581 219.41C173.071 219.62 173.601 219.725 174.171 219.725C174.731 219.725 175.256 219.62 175.746 219.41C176.236 219.19 176.661 218.89 177.021 218.51C177.381 218.13 177.666 217.695 177.876 217.205C178.086 216.705 178.191 216.165 178.191 215.585C178.191 215.015 178.086 214.48 177.876 213.98C177.666 213.47 177.376 213.025 177.006 212.645C176.636 212.265 176.206 211.97 175.716 211.76C175.226 211.54 174.701 211.43 174.141 211.43C173.571 211.43 173.041 211.54 172.551 211.76C172.061 211.98 171.631 212.28 171.261 212.66C170.891 213.04 170.606 213.485 170.406 213.995C170.206 214.495 170.106 215.03 170.106 215.6ZM182.142 210.155H189.192V211.55H183.597V214.85H188.592V216.245H183.597V219.605H189.402V221H182.142V210.155ZM197.537 212.09C197.167 211.9 196.762 211.735 196.322 211.595C195.882 211.455 195.452 211.385 195.032 211.385C194.452 211.385 193.987 211.52 193.637 211.79C193.297 212.06 193.127 212.42 193.127 212.87C193.127 213.21 193.237 213.5 193.457 213.74C193.677 213.97 193.967 214.17 194.327 214.34C194.687 214.51 195.062 214.67 195.452 214.82C195.792 214.95 196.127 215.095 196.457 215.255C196.787 215.415 197.082 215.615 197.342 215.855C197.612 216.095 197.822 216.39 197.972 216.74C198.132 217.09 198.212 217.525 198.212 218.045C198.212 218.615 198.067 219.135 197.777 219.605C197.497 220.075 197.092 220.445 196.562 220.715C196.032 220.985 195.402 221.12 194.672 221.12C194.192 221.12 193.732 221.065 193.292 220.955C192.862 220.845 192.462 220.705 192.092 220.535C191.722 220.355 191.392 220.17 191.102 219.98L191.747 218.84C191.987 219.01 192.262 219.175 192.572 219.335C192.882 219.485 193.207 219.61 193.547 219.71C193.887 219.8 194.217 219.845 194.537 219.845C194.877 219.845 195.212 219.785 195.542 219.665C195.882 219.535 196.162 219.34 196.382 219.08C196.602 218.82 196.712 218.475 196.712 218.045C196.712 217.675 196.612 217.37 196.412 217.13C196.222 216.88 195.967 216.67 195.647 216.5C195.327 216.32 194.987 216.16 194.627 216.02C194.287 215.89 193.942 215.75 193.592 215.6C193.242 215.44 192.917 215.25 192.617 215.03C192.317 214.8 192.077 214.52 191.897 214.19C191.717 213.86 191.627 213.46 191.627 212.99C191.627 212.42 191.762 211.925 192.032 211.505C192.312 211.075 192.692 210.74 193.172 210.5C193.652 210.25 194.202 210.115 194.822 210.095C195.522 210.095 196.137 210.18 196.667 210.35C197.207 210.52 197.682 210.73 198.092 210.98L197.537 212.09ZM201.573 219.695C201.353 220.215 201.133 220.73 200.913 221.24C200.703 221.76 200.488 222.285 200.268 222.815H199.143C199.343 222.285 199.538 221.76 199.728 221.24C199.918 220.73 200.113 220.215 200.313 219.695H201.573ZM214.061 212.09C213.691 211.9 213.286 211.735 212.846 211.595C212.406 211.455 211.976 211.385 211.556 211.385C210.976 211.385 210.511 211.52 210.161 211.79C209.821 212.06 209.651 212.42 209.651 212.87C209.651 213.21 209.761 213.5 209.981 213.74C210.201 213.97 210.491 214.17 210.851 214.34C211.211 214.51 211.586 214.67 211.976 214.82C212.316 214.95 212.651 215.095 212.981 215.255C213.311 215.415 213.606 215.615 213.866 215.855C214.136 216.095 214.346 216.39 214.496 216.74C214.656 217.09 214.736 217.525 214.736 218.045C214.736 218.615 214.591 219.135 214.301 219.605C214.021 220.075 213.616 220.445 213.086 220.715C212.556 220.985 211.926 221.12 211.196 221.12C210.716 221.12 210.256 221.065 209.816 220.955C209.386 220.845 208.986 220.705 208.616 220.535C208.246 220.355 207.916 220.17 207.626 219.98L208.271 218.84C208.511 219.01 208.786 219.175 209.096 219.335C209.406 219.485 209.731 219.61 210.071 219.71C210.411 219.8 210.741 219.845 211.061 219.845C211.401 219.845 211.736 219.785 212.066 219.665C212.406 219.535 212.686 219.34 212.906 219.08C213.126 218.82 213.236 218.475 213.236 218.045C213.236 217.675 213.136 217.37 212.936 217.13C212.746 216.88 212.491 216.67 212.171 216.5C211.851 216.32 211.511 216.16 211.151 216.02C210.811 215.89 210.466 215.75 210.116 215.6C209.766 215.44 209.441 215.25 209.141 215.03C208.841 214.8 208.601 214.52 208.421 214.19C208.241 213.86 208.151 213.46 208.151 212.99C208.151 212.42 208.286 211.925 208.556 211.505C208.836 211.075 209.216 210.74 209.696 210.5C210.176 210.25 210.726 210.115 211.346 210.095C212.046 210.095 212.661 210.18 213.191 210.35C213.731 210.52 214.206 210.73 214.616 210.98L214.061 212.09ZM218.651 214.52L218.606 215.06L218.801 214.79L223.241 210.155H225.116L220.631 214.805L225.371 221H223.526L219.566 215.735L218.651 216.62V221H217.181V210.155H218.651V214.52ZM227.362 210.155H228.817V221H227.362V210.155ZM241.322 221.345L232.937 212.84L233.357 212.945L233.387 221H231.932V209.825H232.007L240.302 218.36L239.957 218.285L239.927 210.155H241.367V221.345H241.322ZM250.096 212.09C249.726 211.9 249.321 211.735 248.881 211.595C248.441 211.455 248.011 211.385 247.591 211.385C247.011 211.385 246.546 211.52 246.196 211.79C245.856 212.06 245.686 212.42 245.686 212.87C245.686 213.21 245.796 213.5 246.016 213.74C246.236 213.97 246.526 214.17 246.886 214.34C247.246 214.51 247.621 214.67 248.011 214.82C248.351 214.95 248.686 215.095 249.016 215.255C249.346 215.415 249.641 215.615 249.901 215.855C250.171 216.095 250.381 216.39 250.531 216.74C250.691 217.09 250.771 217.525 250.771 218.045C250.771 218.615 250.626 219.135 250.336 219.605C250.056 220.075 249.651 220.445 249.121 220.715C248.591 220.985 247.961 221.12 247.231 221.12C246.751 221.12 246.291 221.065 245.851 220.955C245.421 220.845 245.021 220.705 244.651 220.535C244.281 220.355 243.951 220.17 243.661 219.98L244.306 218.84C244.546 219.01 244.821 219.175 245.131 219.335C245.441 219.485 245.766 219.61 246.106 219.71C246.446 219.8 246.776 219.845 247.096 219.845C247.436 219.845 247.771 219.785 248.101 219.665C248.441 219.535 248.721 219.34 248.941 219.08C249.161 218.82 249.271 218.475 249.271 218.045C249.271 217.675 249.171 217.37 248.971 217.13C248.781 216.88 248.526 216.67 248.206 216.5C247.886 216.32 247.546 216.16 247.186 216.02C246.846 215.89 246.501 215.75 246.151 215.6C245.801 215.44 245.476 215.25 245.176 215.03C244.876 214.8 244.636 214.52 244.456 214.19C244.276 213.86 244.186 213.46 244.186 212.99C244.186 212.42 244.321 211.925 244.591 211.505C244.871 211.075 245.251 210.74 245.731 210.5C246.211 210.25 246.761 210.115 247.381 210.095C248.081 210.095 248.696 210.18 249.226 210.35C249.766 210.52 250.241 210.73 250.651 210.98L250.096 212.09ZM254.131 219.695C253.911 220.215 253.691 220.73 253.471 221.24C253.261 221.76 253.046 222.285 252.826 222.815H251.701C251.901 222.285 252.096 221.76 252.286 221.24C252.476 220.73 252.671 220.215 252.871 219.695H254.131ZM67.2876 236L72.0276 224.705H72.1176L76.8426 236H75.1776L71.6376 226.985L72.6726 226.31L68.7126 236H67.2876ZM70.0626 231.89H74.0976L74.5776 233.15H69.6426L70.0626 231.89ZM88.2752 236.345L79.8902 227.84L80.3102 227.945L80.3402 236H78.8852V224.825H78.9602L87.2552 233.36L86.9102 233.285L86.8802 225.155H88.3202V236.345H88.2752ZM91.4389 236V225.155H94.3939C95.4639 225.155 96.3739 225.32 97.1239 225.65C97.8839 225.98 98.4939 226.415 98.9539 226.955C99.4139 227.495 99.7489 228.095 99.9589 228.755C100.179 229.405 100.289 230.055 100.289 230.705C100.289 231.525 100.144 232.26 99.8539 232.91C99.5739 233.56 99.1839 234.115 98.6839 234.575C98.1839 235.035 97.6089 235.39 96.9589 235.64C96.3189 235.88 95.6389 236 94.9189 236H91.4389ZM92.8939 234.605H94.6339C95.2339 234.605 95.7839 234.515 96.2839 234.335C96.7939 234.155 97.2339 233.895 97.6039 233.555C97.9839 233.215 98.2789 232.8 98.4889 232.31C98.6989 231.81 98.8039 231.245 98.8039 230.615C98.8039 229.945 98.6939 229.36 98.4739 228.86C98.2539 228.35 97.9539 227.925 97.5739 227.585C97.1939 227.245 96.7639 226.99 96.2839 226.82C95.8039 226.64 95.2989 226.55 94.7689 226.55H92.8939V234.605ZM110.359 225.155C110.909 225.155 111.414 225.23 111.874 225.38C112.344 225.52 112.749 225.735 113.089 226.025C113.439 226.305 113.709 226.655 113.899 227.075C114.099 227.485 114.199 227.965 114.199 228.515C114.199 228.945 114.134 229.365 114.004 229.775C113.884 230.185 113.679 230.56 113.389 230.9C113.099 231.23 112.719 231.5 112.249 231.71C111.789 231.91 111.219 232.01 110.539 232.01H108.934V236H107.479V225.155H110.359ZM110.509 230.615C110.939 230.615 111.294 230.55 111.574 230.42C111.864 230.29 112.089 230.125 112.249 229.925C112.409 229.715 112.524 229.49 112.594 229.25C112.664 229.01 112.699 228.785 112.699 228.575C112.699 228.355 112.659 228.13 112.579 227.9C112.509 227.66 112.389 227.44 112.219 227.24C112.059 227.04 111.844 226.875 111.574 226.745C111.314 226.615 110.994 226.55 110.614 226.55H108.934V230.615H110.509ZM112.294 231.44L115.129 236H113.449L110.569 231.485L112.294 231.44ZM118.672 232.16C118.672 232.65 118.787 233.09 119.017 233.48C119.257 233.86 119.572 234.16 119.962 234.38C120.352 234.6 120.792 234.71 121.282 234.71C121.792 234.71 122.247 234.6 122.647 234.38C123.047 234.16 123.362 233.86 123.592 233.48C123.822 233.09 123.937 232.65 123.937 232.16V225.155H125.362V232.205C125.362 232.995 125.177 233.685 124.807 234.275C124.447 234.865 123.957 235.32 123.337 235.64C122.727 235.96 122.042 236.12 121.282 236.12C120.522 236.12 119.837 235.96 119.227 235.64C118.617 235.32 118.132 234.865 117.772 234.275C117.412 233.685 117.232 232.995 117.232 232.205V225.155H118.672V232.16ZM137.728 236.345L129.343 227.84L129.763 227.945L129.793 236H128.338V224.825H128.413L136.708 233.36L136.363 233.285L136.333 225.155H137.773V236.345H137.728ZM140.892 225.155H147.942V226.55H142.347V229.85H147.342V231.245H142.347V234.605H148.152V236H140.892V225.155ZM156.287 227.09C155.917 226.9 155.512 226.735 155.072 226.595C154.632 226.455 154.202 226.385 153.782 226.385C153.202 226.385 152.737 226.52 152.387 226.79C152.047 227.06 151.877 227.42 151.877 227.87C151.877 228.21 151.987 228.5 152.207 228.74C152.427 228.97 152.717 229.17 153.077 229.34C153.437 229.51 153.812 229.67 154.202 229.82C154.542 229.95 154.877 230.095 155.207 230.255C155.537 230.415 155.832 230.615 156.092 230.855C156.362 231.095 156.572 231.39 156.722 231.74C156.882 232.09 156.962 232.525 156.962 233.045C156.962 233.615 156.817 234.135 156.527 234.605C156.247 235.075 155.842 235.445 155.312 235.715C154.782 235.985 154.152 236.12 153.422 236.12C152.942 236.12 152.482 236.065 152.042 235.955C151.612 235.845 151.212 235.705 150.842 235.535C150.472 235.355 150.142 235.17 149.852 234.98L150.497 233.84C150.737 234.01 151.012 234.175 151.322 234.335C151.632 234.485 151.957 234.61 152.297 234.71C152.637 234.8 152.967 234.845 153.287 234.845C153.627 234.845 153.962 234.785 154.292 234.665C154.632 234.535 154.912 234.34 155.132 234.08C155.352 233.82 155.462 233.475 155.462 233.045C155.462 232.675 155.362 232.37 155.162 232.13C154.972 231.88 154.717 231.67 154.397 231.5C154.077 231.32 153.737 231.16 153.377 231.02C153.037 230.89 152.692 230.75 152.342 230.6C151.992 230.44 151.667 230.25 151.367 230.03C151.067 229.8 150.827 229.52 150.647 229.19C150.467 228.86 150.377 228.46 150.377 227.99C150.377 227.42 150.512 226.925 150.782 226.505C151.062 226.075 151.442 225.74 151.922 225.5C152.402 225.25 152.952 225.115 153.572 225.095C154.272 225.095 154.887 225.18 155.417 225.35C155.957 225.52 156.432 225.73 156.842 225.98L156.287 227.09ZM163.359 225.155H170.559V226.55H167.649V236H166.194V226.55H163.359V225.155ZM171.726 230.585C171.726 229.835 171.866 229.13 172.146 228.47C172.436 227.8 172.836 227.21 173.346 226.7C173.856 226.18 174.441 225.775 175.101 225.485C175.771 225.185 176.491 225.035 177.261 225.035C178.021 225.035 178.731 225.185 179.391 225.485C180.061 225.775 180.651 226.18 181.161 226.7C181.681 227.21 182.086 227.8 182.376 228.47C182.666 229.13 182.811 229.835 182.811 230.585C182.811 231.355 182.666 232.075 182.376 232.745C182.086 233.415 181.681 234.005 181.161 234.515C180.651 235.015 180.061 235.41 179.391 235.7C178.731 235.98 178.021 236.12 177.261 236.12C176.491 236.12 175.771 235.98 175.101 235.7C174.441 235.42 173.856 235.03 173.346 234.53C172.836 234.03 172.436 233.445 172.146 232.775C171.866 232.105 171.726 231.375 171.726 230.585ZM173.226 230.6C173.226 231.17 173.331 231.705 173.541 232.205C173.751 232.695 174.041 233.13 174.411 233.51C174.781 233.89 175.211 234.19 175.701 234.41C176.191 234.62 176.721 234.725 177.291 234.725C177.851 234.725 178.376 234.62 178.866 234.41C179.356 234.19 179.781 233.89 180.141 233.51C180.501 233.13 180.786 232.695 180.996 232.205C181.206 231.705 181.311 231.165 181.311 230.585C181.311 230.015 181.206 229.48 180.996 228.98C180.786 228.47 180.496 228.025 180.126 227.645C179.756 227.265 179.326 226.97 178.836 226.76C178.346 226.54 177.821 226.43 177.261 226.43C176.691 226.43 176.161 226.54 175.671 226.76C175.181 226.98 174.751 227.28 174.381 227.66C174.011 228.04 173.726 228.485 173.526 228.995C173.326 229.495 173.226 230.03 173.226 230.6ZM190.008 225.155H197.058V226.55H191.463V229.85H196.458V231.245H191.463V234.605H197.268V236H190.008V225.155ZM198.713 236L203.453 224.705H203.543L208.268 236H206.603L203.063 226.985L204.098 226.31L200.138 236H198.713ZM201.488 231.89H205.523L206.003 233.15H201.068L201.488 231.89ZM213.191 225.155C213.741 225.155 214.246 225.23 214.706 225.38C215.176 225.52 215.581 225.735 215.921 226.025C216.271 226.305 216.541 226.655 216.731 227.075C216.931 227.485 217.031 227.965 217.031 228.515C217.031 228.945 216.966 229.365 216.836 229.775C216.716 230.185 216.511 230.56 216.221 230.9C215.931 231.23 215.551 231.5 215.081 231.71C214.621 231.91 214.051 232.01 213.371 232.01H211.766V236H210.311V225.155H213.191ZM213.341 230.615C213.771 230.615 214.126 230.55 214.406 230.42C214.696 230.29 214.921 230.125 215.081 229.925C215.241 229.715 215.356 229.49 215.426 229.25C215.496 229.01 215.531 228.785 215.531 228.575C215.531 228.355 215.491 228.13 215.411 227.9C215.341 227.66 215.221 227.44 215.051 227.24C214.891 227.04 214.676 226.875 214.406 226.745C214.146 226.615 213.826 226.55 213.446 226.55H211.766V230.615H213.341ZM215.126 231.44L217.961 236H216.281L213.401 231.485L215.126 231.44ZM229.589 236.345L221.204 227.84L221.624 227.945L221.654 236H220.199V224.825H220.274L228.569 233.36L228.224 233.285L228.194 225.155H229.634V236.345H229.589ZM50.3211 251.345L41.9361 242.84L42.3561 242.945L42.3861 251H40.9311V239.825H41.0061L49.3011 248.36L48.9561 248.285L48.9261 240.155H50.3661V251.345H50.3211ZM53.4848 240.155H60.5348V241.55H54.9398V244.85H59.9348V246.245H54.9398V249.605H60.7448V251H53.4848V240.155ZM62.325 240.215H64.005L66.945 248.495L66.69 248.39L68.835 242.84L69.51 244.805L66.645 251.495L62.325 240.215ZM67.53 240.215H68.985L72.165 248.375L71.865 248.315L74.67 240.215H76.215L71.955 251.48L67.53 240.215ZM83.9132 240.155L87.4832 249.125L86.6582 248.96L90.0482 240.155H91.7432L86.9582 251.495L82.1882 240.155H83.9132ZM91.4722 251L96.2122 239.705H96.3022L101.027 251H99.3622L95.8222 241.985L96.8572 241.31L92.8972 251H91.4722ZM94.2472 246.89H98.2822L98.7622 248.15H93.8272L94.2472 246.89ZM103.07 240.155H104.525V249.605H110.03V251H103.07V240.155ZM113.706 247.16C113.706 247.65 113.821 248.09 114.051 248.48C114.291 248.86 114.606 249.16 114.996 249.38C115.386 249.6 115.826 249.71 116.316 249.71C116.826 249.71 117.281 249.6 117.681 249.38C118.081 249.16 118.396 248.86 118.626 248.48C118.856 248.09 118.971 247.65 118.971 247.16V240.155H120.396V247.205C120.396 247.995 120.211 248.685 119.841 249.275C119.481 249.865 118.991 250.32 118.371 250.64C117.761 250.96 117.076 251.12 116.316 251.12C115.556 251.12 114.871 250.96 114.261 250.64C113.651 250.32 113.166 249.865 112.806 249.275C112.446 248.685 112.266 247.995 112.266 247.205V240.155H113.706V247.16ZM122.117 251L126.857 239.705H126.947L131.672 251H130.007L126.467 241.985L127.502 241.31L123.542 251H122.117ZM124.892 246.89H128.927L129.407 248.15H124.472L124.892 246.89ZM136.504 240.155C137.594 240.155 138.449 240.38 139.069 240.83C139.699 241.27 140.014 241.96 140.014 242.9C140.014 243.47 139.884 243.965 139.624 244.385C139.364 244.805 138.999 245.135 138.529 245.375C138.069 245.615 137.524 245.75 136.894 245.78L136.684 245.03C137.414 245.05 138.069 245.18 138.649 245.42C139.229 245.66 139.689 245.995 140.029 246.425C140.369 246.855 140.539 247.365 140.539 247.955C140.539 248.495 140.439 248.96 140.239 249.35C140.039 249.73 139.769 250.045 139.429 250.295C139.089 250.535 138.704 250.715 138.274 250.835C137.844 250.945 137.399 251 136.939 251H133.714V240.155H136.504ZM136.804 244.91C137.404 244.91 137.839 244.745 138.109 244.415C138.379 244.075 138.514 243.665 138.514 243.185C138.514 242.615 138.339 242.2 137.989 241.94C137.639 241.68 137.169 241.55 136.579 241.55H135.169V244.91H136.804ZM136.864 249.65C137.264 249.65 137.629 249.59 137.959 249.47C138.299 249.35 138.564 249.165 138.754 248.915C138.954 248.665 139.054 248.35 139.054 247.97C139.054 247.55 138.939 247.22 138.709 246.98C138.489 246.74 138.204 246.57 137.854 246.47C137.504 246.36 137.144 246.305 136.774 246.305H135.169V249.65H136.864ZM142.987 240.155H144.442V249.605H149.947V251H142.987V240.155ZM152.318 240.155H159.368V241.55H153.773V244.85H158.768V246.245H153.773V249.605H159.578V251H152.318V240.155ZM169.729 240.155C170.279 240.155 170.784 240.23 171.244 240.38C171.714 240.52 172.119 240.735 172.459 241.025C172.809 241.305 173.079 241.655 173.269 242.075C173.469 242.485 173.569 242.965 173.569 243.515C173.569 243.945 173.504 244.365 173.374 244.775C173.254 245.185 173.049 245.56 172.759 245.9C172.469 246.23 172.089 246.5 171.619 246.71C171.159 246.91 170.589 247.01 169.909 247.01H168.304V251H166.849V240.155H169.729ZM169.879 245.615C170.309 245.615 170.664 245.55 170.944 245.42C171.234 245.29 171.459 245.125 171.619 244.925C171.779 244.715 171.894 244.49 171.964 244.25C172.034 244.01 172.069 243.785 172.069 243.575C172.069 243.355 172.029 243.13 171.949 242.9C171.879 242.66 171.759 242.44 171.589 242.24C171.429 242.04 171.214 241.875 170.944 241.745C170.684 241.615 170.364 241.55 169.984 241.55H168.304V245.615H169.879ZM171.664 246.44L174.499 251H172.819L169.939 246.485L171.664 246.44ZM176.737 240.155H183.787V241.55H178.192V244.85H183.187V246.245H178.192V249.605H183.997V251H176.737V240.155ZM192.132 242.09C191.762 241.9 191.357 241.735 190.917 241.595C190.477 241.455 190.047 241.385 189.627 241.385C189.047 241.385 188.582 241.52 188.232 241.79C187.892 242.06 187.722 242.42 187.722 242.87C187.722 243.21 187.832 243.5 188.052 243.74C188.272 243.97 188.562 244.17 188.922 244.34C189.282 244.51 189.657 244.67 190.047 244.82C190.387 244.95 190.722 245.095 191.052 245.255C191.382 245.415 191.677 245.615 191.937 245.855C192.207 246.095 192.417 246.39 192.567 246.74C192.727 247.09 192.807 247.525 192.807 248.045C192.807 248.615 192.662 249.135 192.372 249.605C192.092 250.075 191.687 250.445 191.157 250.715C190.627 250.985 189.997 251.12 189.267 251.12C188.787 251.12 188.327 251.065 187.887 250.955C187.457 250.845 187.057 250.705 186.687 250.535C186.317 250.355 185.987 250.17 185.697 249.98L186.342 248.84C186.582 249.01 186.857 249.175 187.167 249.335C187.477 249.485 187.802 249.61 188.142 249.71C188.482 249.8 188.812 249.845 189.132 249.845C189.472 249.845 189.807 249.785 190.137 249.665C190.477 249.535 190.757 249.34 190.977 249.08C191.197 248.82 191.307 248.475 191.307 248.045C191.307 247.675 191.207 247.37 191.007 247.13C190.817 246.88 190.562 246.67 190.242 246.5C189.922 246.32 189.582 246.16 189.222 246.02C188.882 245.89 188.537 245.75 188.187 245.6C187.837 245.44 187.512 245.25 187.212 245.03C186.912 244.8 186.672 244.52 186.492 244.19C186.312 243.86 186.222 243.46 186.222 242.99C186.222 242.42 186.357 241.925 186.627 241.505C186.907 241.075 187.287 240.74 187.767 240.5C188.247 240.25 188.797 240.115 189.417 240.095C190.117 240.095 190.732 240.18 191.262 240.35C191.802 240.52 192.277 240.73 192.687 240.98L192.132 242.09ZM194.577 245.585C194.577 244.835 194.717 244.13 194.997 243.47C195.287 242.8 195.687 242.21 196.197 241.7C196.707 241.18 197.292 240.775 197.952 240.485C198.622 240.185 199.342 240.035 200.112 240.035C200.872 240.035 201.582 240.185 202.242 240.485C202.912 240.775 203.502 241.18 204.012 241.7C204.532 242.21 204.937 242.8 205.227 243.47C205.517 244.13 205.662 244.835 205.662 245.585C205.662 246.355 205.517 247.075 205.227 247.745C204.937 248.415 204.532 249.005 204.012 249.515C203.502 250.015 202.912 250.41 202.242 250.7C201.582 250.98 200.872 251.12 200.112 251.12C199.342 251.12 198.622 250.98 197.952 250.7C197.292 250.42 196.707 250.03 196.197 249.53C195.687 249.03 195.287 248.445 194.997 247.775C194.717 247.105 194.577 246.375 194.577 245.585ZM196.077 245.6C196.077 246.17 196.182 246.705 196.392 247.205C196.602 247.695 196.892 248.13 197.262 248.51C197.632 248.89 198.062 249.19 198.552 249.41C199.042 249.62 199.572 249.725 200.142 249.725C200.702 249.725 201.227 249.62 201.717 249.41C202.207 249.19 202.632 248.89 202.992 248.51C203.352 248.13 203.637 247.695 203.847 247.205C204.057 246.705 204.162 246.165 204.162 245.585C204.162 245.015 204.057 244.48 203.847 243.98C203.637 243.47 203.347 243.025 202.977 242.645C202.607 242.265 202.177 241.97 201.687 241.76C201.197 241.54 200.672 241.43 200.112 241.43C199.542 241.43 199.012 241.54 198.522 241.76C198.032 241.98 197.602 242.28 197.232 242.66C196.862 243.04 196.577 243.485 196.377 243.995C196.177 244.495 196.077 245.03 196.077 245.6ZM209.419 247.16C209.419 247.65 209.534 248.09 209.764 248.48C210.004 248.86 210.319 249.16 210.709 249.38C211.099 249.6 211.539 249.71 212.029 249.71C212.539 249.71 212.994 249.6 213.394 249.38C213.794 249.16 214.109 248.86 214.339 248.48C214.569 248.09 214.684 247.65 214.684 247.16V240.155H216.109V247.205C216.109 247.995 215.924 248.685 215.554 249.275C215.194 249.865 214.704 250.32 214.084 250.64C213.474 250.96 212.789 251.12 212.029 251.12C211.269 251.12 210.584 250.96 209.974 250.64C209.364 250.32 208.879 249.865 208.519 249.275C208.159 248.685 207.979 247.995 207.979 247.205V240.155H209.419V247.16ZM221.965 240.155C222.515 240.155 223.02 240.23 223.48 240.38C223.95 240.52 224.355 240.735 224.695 241.025C225.045 241.305 225.315 241.655 225.505 242.075C225.705 242.485 225.805 242.965 225.805 243.515C225.805 243.945 225.74 244.365 225.61 244.775C225.49 245.185 225.285 245.56 224.995 245.9C224.705 246.23 224.325 246.5 223.855 246.71C223.395 246.91 222.825 247.01 222.145 247.01H220.54V251H219.085V240.155H221.965ZM222.115 245.615C222.545 245.615 222.9 245.55 223.18 245.42C223.47 245.29 223.695 245.125 223.855 244.925C224.015 244.715 224.13 244.49 224.2 244.25C224.27 244.01 224.305 243.785 224.305 243.575C224.305 243.355 224.265 243.13 224.185 242.9C224.115 242.66 223.995 242.44 223.825 242.24C223.665 242.04 223.45 241.875 223.18 241.745C222.92 241.615 222.6 241.55 222.22 241.55H220.54V245.615H222.115ZM223.9 246.44L226.735 251H225.055L222.175 246.485L223.9 246.44ZM236.704 250.19C236.524 250.31 236.279 250.445 235.969 250.595C235.659 250.745 235.294 250.87 234.874 250.97C234.464 251.07 234.014 251.12 233.524 251.12C232.684 251.11 231.924 250.96 231.244 250.67C230.574 250.38 230.004 249.985 229.534 249.485C229.064 248.985 228.699 248.41 228.439 247.76C228.189 247.1 228.064 246.4 228.064 245.66C228.064 244.85 228.194 244.105 228.454 243.425C228.724 242.735 229.099 242.14 229.579 241.64C230.059 241.13 230.624 240.735 231.274 240.455C231.934 240.175 232.654 240.035 233.434 240.035C234.084 240.035 234.674 240.125 235.204 240.305C235.734 240.475 236.189 240.68 236.569 240.92L235.984 242.27C235.684 242.07 235.319 241.88 234.889 241.7C234.469 241.52 233.999 241.43 233.479 241.43C232.949 241.43 232.449 241.535 231.979 241.745C231.509 241.955 231.094 242.25 230.734 242.63C230.374 243.01 230.089 243.455 229.879 243.965C229.679 244.465 229.579 245.005 229.579 245.585C229.579 246.175 229.669 246.725 229.849 247.235C230.039 247.735 230.304 248.17 230.644 248.54C230.994 248.91 231.414 249.2 231.904 249.41C232.394 249.62 232.944 249.725 233.554 249.725C234.104 249.725 234.594 249.64 235.024 249.47C235.454 249.3 235.809 249.11 236.089 248.9L236.704 250.19ZM239.154 240.155H246.204V241.55H240.609V244.85H245.604V246.245H240.609V249.605H246.414V251H239.154V240.155ZM254.549 242.09C254.179 241.9 253.774 241.735 253.334 241.595C252.894 241.455 252.464 241.385 252.044 241.385C251.464 241.385 250.999 241.52 250.649 241.79C250.309 242.06 250.139 242.42 250.139 242.87C250.139 243.21 250.249 243.5 250.469 243.74C250.689 243.97 250.979 244.17 251.339 244.34C251.699 244.51 252.074 244.67 252.464 244.82C252.804 244.95 253.139 245.095 253.469 245.255C253.799 245.415 254.094 245.615 254.354 245.855C254.624 246.095 254.834 246.39 254.984 246.74C255.144 247.09 255.224 247.525 255.224 248.045C255.224 248.615 255.079 249.135 254.789 249.605C254.509 250.075 254.104 250.445 253.574 250.715C253.044 250.985 252.414 251.12 251.684 251.12C251.204 251.12 250.744 251.065 250.304 250.955C249.874 250.845 249.474 250.705 249.104 250.535C248.734 250.355 248.404 250.17 248.114 249.98L248.759 248.84C248.999 249.01 249.274 249.175 249.584 249.335C249.894 249.485 250.219 249.61 250.559 249.71C250.899 249.8 251.229 249.845 251.549 249.845C251.889 249.845 252.224 249.785 252.554 249.665C252.894 249.535 253.174 249.34 253.394 249.08C253.614 248.82 253.724 248.475 253.724 248.045C253.724 247.675 253.624 247.37 253.424 247.13C253.234 246.88 252.979 246.67 252.659 246.5C252.339 246.32 251.999 246.16 251.639 246.02C251.299 245.89 250.954 245.75 250.604 245.6C250.254 245.44 249.929 245.25 249.629 245.03C249.329 244.8 249.089 244.52 248.909 244.19C248.729 243.86 248.639 243.46 248.639 242.99C248.639 242.42 248.774 241.925 249.044 241.505C249.324 241.075 249.704 240.74 250.184 240.5C250.664 240.25 251.214 240.115 251.834 240.095C252.534 240.095 253.149 240.18 253.679 240.35C254.219 240.52 254.694 240.73 255.104 240.98L254.549 242.09ZM256.619 250.205C256.619 249.985 256.699 249.8 256.859 249.65C257.029 249.49 257.214 249.41 257.414 249.41C257.594 249.41 257.764 249.49 257.924 249.65C258.094 249.8 258.179 249.985 258.179 250.205C258.179 250.445 258.094 250.64 257.924 250.79C257.764 250.93 257.594 251 257.414 251C257.214 251 257.029 250.93 256.859 250.79C256.699 250.64 256.619 250.445 256.619 250.205Z" fill="white"/>
</g>
<defs>
<linearGradient id="paint0_linear_385_19191" x1="148.58" y1="2.00016" x2="148.58" y2="368.59" gradientUnits="userSpaceOnUse">
<stop stop-color="#FFEED6"/>
<stop offset="0.65" stop-color="#DFC28D"/>
<stop offset="1" stop-color="#D0AD6A"/>
</linearGradient>
<linearGradient id="paint1_linear_385_19191" x1="-nan" y1="-nan" x2="-nan" y2="-nan" gradientUnits="userSpaceOnUse">
<stop stop-color="#FFEED6"/>
<stop offset="0.65" stop-color="#DFC28D"/>
<stop offset="1" stop-color="#D0AD6A"/>
</linearGradient>
<linearGradient id="paint2_linear_385_19191" x1="-nan" y1="-nan" x2="-nan" y2="-nan" gradientUnits="userSpaceOnUse">
<stop stop-color="#FFEED6"/>
<stop offset="0.65" stop-color="#DFC28D"/>
<stop offset="1" stop-color="#D0AD6A"/>
</linearGradient>
<radialGradient id="paint3_radial_385_19191" cx="0" cy="0" r="1" gradientUnits="userSpaceOnUse" gradientTransform="translate(148.98 359.5) scale(271.7 271.7)">
<stop stop-color="#A2743D"/>
<stop offset="1"/>
</radialGradient>
<linearGradient id="paint4_linear_385_19191" x1="148.58" y1="22.1999" x2="148.58" y2="348.39" gradientUnits="userSpaceOnUse">
<stop stop-color="#FFEED6"/>
<stop offset="0.65" stop-color="#DFC28D"/>
<stop offset="1" stop-color="#D0AD6A"/>
</linearGradient>
<linearGradient id="paint5_linear_385_19191" x1="148.58" y1="33.8601" x2="148.58" y2="336.73" gradientUnits="userSpaceOnUse">
<stop stop-color="#FFEED6"/>
<stop offset="0.65" stop-color="#DFC28D"/>
<stop offset="1" stop-color="#D0AD6A"/>
</linearGradient>
<linearGradient id="paint6_linear_385_19191" x1="-nan" y1="-nan" x2="-nan" y2="-nan" gradientUnits="userSpaceOnUse">
<stop stop-color="#FFEED6"/>
<stop offset="0.65" stop-color="#DFC28D"/>
<stop offset="1" stop-color="#D0AD6A"/>
</linearGradient>
<linearGradient id="paint7_linear_385_19191" x1="-nan" y1="-nan" x2="-nan" y2="-nan" gradientUnits="userSpaceOnUse">
<stop stop-color="#FFEED6"/>
<stop offset="0.65" stop-color="#DFC28D"/>
<stop offset="1" stop-color="#D0AD6A"/>
</linearGradient>
<linearGradient id="paint8_linear_385_19191" x1="131.695" y1="165.31" x2="131.695" y2="79.0033" gradientUnits="userSpaceOnUse">
<stop stop-color="#CDA25F"/>
<stop offset="0.0146738" stop-color="#CEA462"/>
<stop offset="0.2168" stop-color="#D8BA81"/>
<stop offset="0.4135" stop-color="#DFCA97"/>
<stop offset="0.6008" stop-color="#E4D4A4"/>
<stop offset="0.7684" stop-color="#E5D7A9"/>
</linearGradient>
<linearGradient id="paint9_linear_385_19191" x1="166.305" y1="165.732" x2="166.305" y2="79.3327" gradientUnits="userSpaceOnUse">
<stop stop-color="#CDA25F"/>
<stop offset="0.0146738" stop-color="#CEA462"/>
<stop offset="0.2168" stop-color="#D8BA81"/>
<stop offset="0.4135" stop-color="#DFCA97"/>
<stop offset="0.6008" stop-color="#E4D4A4"/>
<stop offset="0.7684" stop-color="#E5D7A9"/>
</linearGradient>
<linearGradient id="paint10_linear_385_19191" x1="149" y1="165.52" x2="149" y2="79.171" gradientUnits="userSpaceOnUse">
<stop stop-color="#CDA25F"/>
<stop offset="0.0146738" stop-color="#CEA462"/>
<stop offset="0.2168" stop-color="#D8BA81"/>
<stop offset="0.4135" stop-color="#DFCA97"/>
<stop offset="0.6008" stop-color="#E4D4A4"/>
<stop offset="0.7684" stop-color="#E5D7A9"/>
</linearGradient>
<linearGradient id="paint11_linear_385_19191" x1="149" y1="164.694" x2="149" y2="81.3187" gradientUnits="userSpaceOnUse">
<stop stop-color="#CDA25F"/>
<stop offset="0.0146738" stop-color="#CEA462"/>
<stop offset="0.2168" stop-color="#D8BA81"/>
<stop offset="0.4135" stop-color="#DFCA97"/>
<stop offset="0.6008" stop-color="#E4D4A4"/>
<stop offset="0.7684" stop-color="#E5D7A9"/>
</linearGradient>
<linearGradient id="paint12_linear_385_19191" x1="149" y1="161.82" x2="149" y2="79.9602" gradientUnits="userSpaceOnUse">
<stop stop-color="#CDA25F"/>
<stop offset="0.0146738" stop-color="#CEA462"/>
<stop offset="0.2168" stop-color="#D8BA81"/>
<stop offset="0.4135" stop-color="#DFCA97"/>
<stop offset="0.6008" stop-color="#E4D4A4"/>
<stop offset="0.7684" stop-color="#E5D7A9"/>
</linearGradient>
<linearGradient id="paint13_linear_385_19191" x1="149" y1="161.558" x2="149" y2="79.698" gradientUnits="userSpaceOnUse">
<stop stop-color="#CDA25F"/>
<stop offset="0.0146738" stop-color="#CEA462"/>
<stop offset="0.2168" stop-color="#D8BA81"/>
<stop offset="0.4135" stop-color="#DFCA97"/>
<stop offset="0.6008" stop-color="#E4D4A4"/>
<stop offset="0.7684" stop-color="#E5D7A9"/>
</linearGradient>
<linearGradient id="paint14_linear_385_19191" x1="149" y1="165.482" x2="149" y2="79.1814" gradientUnits="userSpaceOnUse">
<stop stop-color="#CDA25F"/>
<stop offset="0.0146738" stop-color="#CEA462"/>
<stop offset="0.2168" stop-color="#D8BA81"/>
<stop offset="0.4135" stop-color="#DFCA97"/>
<stop offset="0.6008" stop-color="#E4D4A4"/>
<stop offset="0.7684" stop-color="#E5D7A9"/>
</linearGradient>
<linearGradient id="paint15_linear_385_19191" x1="136.939" y1="165.378" x2="136.939" y2="79.0566" gradientUnits="userSpaceOnUse">
<stop stop-color="#CDA25F"/>
<stop offset="0.0146738" stop-color="#CEA462"/>
<stop offset="0.2168" stop-color="#D8BA81"/>
<stop offset="0.4135" stop-color="#DFCA97"/>
<stop offset="0.6008" stop-color="#E4D4A4"/>
<stop offset="0.7684" stop-color="#E5D7A9"/>
</linearGradient>
<linearGradient id="paint16_linear_385_19191" x1="161.062" y1="165.629" x2="161.062" y2="79.3078" gradientUnits="userSpaceOnUse">
<stop stop-color="#CDA25F"/>
<stop offset="0.0146738" stop-color="#CEA462"/>
<stop offset="0.2168" stop-color="#D8BA81"/>
<stop offset="0.4135" stop-color="#DFCA97"/>
<stop offset="0.6008" stop-color="#E4D4A4"/>
<stop offset="0.7684" stop-color="#E5D7A9"/>
</linearGradient>
<clipPath id="clip0_385_19191">
<rect width="297" height="370" fill="white"/>
</clipPath>
</defs>
</svg>
