<svg width="297" height="370" viewBox="0 0 297 370" fill="none" xmlns="http://www.w3.org/2000/svg">
<g clip-path="url(#clip0_385_19229)">
<path d="M219.53 326.96V43.6302L148.58 2.66016L77.6299 43.6302V326.96L148.58 367.93L219.53 326.96Z" stroke="url(#paint0_linear_385_19229)" stroke-width="1.15" stroke-miterlimit="10"/>
<path d="M211.09 331.43V39.1602" stroke="url(#paint1_linear_385_19229)" stroke-width="1.01" stroke-miterlimit="10"/>
<path d="M86.0703 39.1602V331.43" stroke="url(#paint2_linear_385_19229)" stroke-width="1.01" stroke-miterlimit="10"/>
<path d="M287.72 265.63V104.96L148.58 24.6299L9.44043 104.96V265.63L148.58 345.96L287.72 265.63Z" fill="url(#paint3_radial_385_19229)" stroke="url(#paint4_linear_385_19229)" stroke-width="4.21" stroke-miterlimit="10"/>
<path d="M278.68 260.4V110.19L148.58 35.0801L18.4902 110.19V260.4L148.58 335.52L278.68 260.4Z" stroke="url(#paint5_linear_385_19229)" stroke-width="2.11" stroke-miterlimit="10"/>
<path d="M1.58008 140.99V229.6" stroke="url(#paint6_linear_385_19229)" stroke-width="1.16" stroke-miterlimit="10"/>
<path d="M295.58 140.99V229.6" stroke="url(#paint7_linear_385_19229)" stroke-width="1.16" stroke-miterlimit="10"/>
<path d="M146.759 105.469C144.879 105.469 143.04 106.025 141.479 107.071C139.918 108.117 138.7 109.605 137.981 111.346C137.261 113.087 137.073 114.999 137.441 116.846C137.809 118.693 138.716 120.385 140.04 121.717C141.373 123.05 143.064 123.957 144.911 124.316C146.759 124.676 148.663 124.496 150.404 123.777C152.136 123.058 153.624 121.84 154.67 120.271C155.716 118.701 156.272 116.863 156.272 114.983C156.272 112.457 155.267 110.046 153.485 108.256C151.695 106.475 149.276 105.469 146.759 105.469ZM146.759 122.24C146.407 116.83 144.911 115.326 139.509 114.983C144.911 114.631 146.415 113.136 146.759 107.725C147.11 113.127 148.606 114.639 154.008 114.983C148.606 115.334 147.11 116.83 146.759 122.24Z" fill="url(#paint8_linear_385_19229)"/>
<path d="M184.862 127.61C184.159 125.174 182.688 123.025 180.661 121.505C178.634 119.976 176.174 119.159 173.632 119.159C171.76 119.159 169.913 119.609 168.254 120.475C166.595 121.341 165.164 122.592 164.086 124.12L157.653 120.311C158.659 118.268 159.076 115.98 158.83 113.708C158.593 111.436 157.719 109.286 156.305 107.496L161.552 103.581C162.778 104.562 164.331 105.044 165.9 104.93C167.469 104.815 168.932 104.112 170.003 102.96C171.074 101.808 171.67 100.296 171.678 98.7264C171.687 97.1571 171.098 95.6369 170.036 94.4764C168.973 93.3158 167.51 92.6047 165.949 92.4821C164.38 92.3595 162.827 92.8254 161.593 93.798C160.359 94.7706 159.541 96.1764 159.296 97.7293C159.051 99.2821 159.402 100.868 160.277 102.175L155.013 106.09C152.954 104.161 150.281 103.017 147.47 102.854C144.658 102.682 141.871 103.508 139.591 105.175C137.319 106.842 135.692 109.253 134.998 111.991C134.303 114.729 134.589 117.623 135.799 120.173L124.716 127.479C123.735 125.967 122.215 124.888 120.466 124.463C118.717 124.03 116.878 124.284 115.309 125.166C113.739 126.049 112.563 127.487 112.015 129.204C111.467 130.92 111.598 132.775 112.366 134.402C113.135 136.028 114.5 137.303 116.175 137.957C117.851 138.619 119.714 138.619 121.381 137.949C123.057 137.287 124.413 136.012 125.182 134.386C125.95 132.759 126.073 130.896 125.525 129.187L136.722 121.823C137.826 123.45 139.313 124.782 141.046 125.706C142.778 126.629 144.707 127.12 146.677 127.128C148.638 127.136 150.576 126.67 152.325 125.771C154.065 124.872 155.569 123.556 156.697 121.946L163.138 125.747C162.034 128.027 161.699 130.61 162.189 133.102C162.68 135.595 163.963 137.851 165.851 139.551C167.739 141.243 170.126 142.281 172.651 142.493C175.176 142.706 177.702 142.101 179.851 140.752C182.001 139.404 183.652 137.393 184.551 135.023C185.45 132.645 185.556 130.046 184.862 127.61ZM154.384 122.608C152.365 124.635 149.619 125.771 146.759 125.779C144.626 125.779 142.541 125.15 140.76 123.965C138.986 122.78 137.605 121.088 136.788 119.118C135.97 117.148 135.758 114.974 136.175 112.874C136.591 110.782 137.621 108.853 139.125 107.341C140.637 105.829 142.558 104.799 144.65 104.382C146.742 103.965 148.916 104.178 150.886 104.995C152.856 105.812 154.539 107.194 155.725 108.975C156.91 110.757 157.539 112.841 157.539 114.974C157.539 117.843 156.403 120.589 154.384 122.608Z" fill="url(#paint9_linear_385_19229)"/>
<path d="M135.994 134.108C135.97 134.075 135.945 134.05 135.913 134.026C135.864 134.001 135.814 133.993 135.757 133.993C135.716 133.993 135.667 134.001 135.627 134.026C135.586 134.042 135.553 134.075 135.528 134.108C135.504 134.14 135.496 134.173 135.488 134.206C135.479 134.238 135.479 134.279 135.488 134.312C135.496 134.345 135.504 134.385 135.528 134.41C135.545 134.443 135.577 134.467 135.602 134.484C135.659 134.524 135.733 134.541 135.806 134.524C135.88 134.516 135.937 134.475 135.986 134.426C136.011 134.394 136.027 134.361 136.035 134.32C136.043 134.279 136.043 134.247 136.035 134.206C136.027 134.173 136.011 134.14 135.994 134.108Z" fill="url(#paint10_linear_385_19229)"/>
<path d="M139.101 129.678C139.052 129.637 138.995 129.612 138.929 129.612C138.888 129.612 138.839 129.629 138.798 129.645C138.758 129.661 138.725 129.694 138.692 129.727L136.6 132.645C136.559 132.71 136.543 132.783 136.551 132.857C136.559 132.931 136.6 133.004 136.665 133.045C136.723 133.086 136.796 133.094 136.87 133.086C136.943 133.07 137 133.037 137.049 132.98L139.158 130.078C139.183 130.045 139.199 130.013 139.207 129.98C139.215 129.947 139.215 129.907 139.215 129.866C139.207 129.792 139.166 129.727 139.101 129.678Z" fill="url(#paint11_linear_385_19229)"/>
<path d="M146.922 131.639C146.849 131.639 146.775 131.672 146.718 131.729C146.661 131.786 146.636 131.852 146.628 131.933V135.53C146.628 135.603 146.661 135.677 146.71 135.734C146.767 135.791 146.832 135.816 146.914 135.816C146.996 135.816 147.061 135.783 147.118 135.734C147.176 135.677 147.2 135.611 147.2 135.53L147.216 131.925C147.216 131.852 147.184 131.778 147.135 131.721C147.077 131.664 147.004 131.639 146.922 131.639Z" fill="url(#paint12_linear_385_19229)"/>
<path d="M147.053 137.091C147.004 137.058 146.947 137.042 146.898 137.05C146.857 137.05 146.824 137.058 146.791 137.074C146.759 137.091 146.726 137.107 146.701 137.14C146.677 137.164 146.652 137.197 146.644 137.23C146.628 137.262 146.628 137.303 146.628 137.336C146.628 137.393 146.644 137.45 146.677 137.491C146.71 137.54 146.751 137.573 146.808 137.598C146.857 137.622 146.914 137.622 146.971 137.614C147.028 137.606 147.077 137.573 147.118 137.532C147.159 137.491 147.184 137.442 147.192 137.385C147.2 137.328 147.192 137.271 147.176 137.222C147.135 137.164 147.102 137.123 147.053 137.091Z" fill="url(#paint13_linear_385_19229)"/>
<path d="M157.874 134.345C157.85 134.304 157.817 134.271 157.776 134.255C157.735 134.23 157.694 134.222 157.645 134.222C157.588 134.222 157.531 134.247 157.482 134.279C157.449 134.304 157.425 134.328 157.408 134.361C157.392 134.394 157.376 134.426 157.367 134.467C157.359 134.5 157.359 134.541 157.367 134.582C157.376 134.614 157.392 134.655 157.416 134.68C157.457 134.737 157.523 134.778 157.596 134.786C157.67 134.794 157.743 134.786 157.801 134.745C157.833 134.729 157.858 134.704 157.882 134.672C157.899 134.639 157.915 134.606 157.915 134.565C157.923 134.533 157.923 134.492 157.915 134.451C157.915 134.41 157.899 134.377 157.874 134.345Z" fill="url(#paint14_linear_385_19229)"/>
<path d="M154.785 129.931C154.76 129.89 154.728 129.857 154.695 129.833C154.654 129.808 154.613 129.8 154.564 129.792C154.507 129.792 154.45 129.808 154.401 129.841C154.335 129.89 154.295 129.964 154.286 130.037C154.278 130.07 154.278 130.111 154.286 130.152C154.295 130.184 154.311 130.225 154.335 130.25L156.403 133.2C156.444 133.257 156.509 133.298 156.583 133.306C156.657 133.315 156.73 133.306 156.787 133.266C156.845 133.225 156.885 133.159 156.902 133.086C156.918 133.012 156.902 132.939 156.861 132.881L154.785 129.931Z" fill="url(#paint15_linear_385_19229)"/>
<path d="M141.454 128.967L141.487 129.024C140.939 128.803 140.408 128.542 139.893 128.256C139.378 127.969 138.879 127.659 138.397 127.316C138.348 127.283 138.291 127.267 138.234 127.267C138.193 127.267 138.144 127.275 138.103 127.299C138.062 127.316 138.029 127.348 138.005 127.381C137.972 127.446 137.956 127.512 137.972 127.585C137.989 127.659 138.021 127.716 138.078 127.765C138.569 128.125 139.084 128.444 139.615 128.738C140.146 129.024 140.694 129.285 141.25 129.506C141.323 129.531 141.397 129.539 141.47 129.506C141.544 129.482 141.601 129.424 141.634 129.351C141.658 129.277 141.658 129.195 141.626 129.13C141.585 129.057 141.528 128.999 141.454 128.967Z" fill="url(#paint16_linear_385_19229)"/>
<path d="M136.657 126.654C136.714 126.694 136.788 126.719 136.853 126.711C136.927 126.703 136.992 126.67 137.041 126.621C137.09 126.564 137.115 126.498 137.115 126.425C137.107 126.359 137.074 126.294 137.033 126.237C137.008 126.212 136.976 126.196 136.943 126.188C136.91 126.18 136.878 126.171 136.837 126.171C136.796 126.171 136.755 126.18 136.722 126.196C136.69 126.212 136.657 126.229 136.624 126.261C136.575 126.319 136.551 126.392 136.551 126.474C136.559 126.539 136.592 126.605 136.657 126.654Z" fill="url(#paint17_linear_385_19229)"/>
<path d="M156.713 126.891C156.746 126.866 156.77 126.834 156.795 126.801C156.811 126.768 156.828 126.728 156.828 126.687C156.828 126.654 156.828 126.613 156.819 126.58C156.811 126.548 156.787 126.515 156.762 126.482C156.738 126.45 156.705 126.425 156.664 126.409C156.631 126.392 156.591 126.384 156.55 126.384C156.517 126.384 156.476 126.384 156.443 126.401C156.411 126.409 156.378 126.433 156.354 126.458C156.329 126.482 156.305 126.507 156.288 126.548C156.272 126.58 156.264 126.613 156.264 126.654C156.264 126.728 156.28 126.801 156.329 126.866C156.378 126.916 156.443 126.948 156.517 126.948C156.582 126.948 156.656 126.932 156.713 126.891Z" fill="url(#paint18_linear_385_19229)"/>
<path d="M150.387 129.711C150.338 129.67 150.273 129.645 150.207 129.653C150.191 129.653 150.167 129.653 150.15 129.662C150.109 129.67 150.077 129.686 150.044 129.702C150.011 129.727 149.987 129.751 149.962 129.784C149.946 129.817 149.93 129.85 149.921 129.89C149.913 129.931 149.921 129.964 149.93 130.005C149.938 130.038 149.954 130.078 149.97 130.103C149.995 130.136 150.019 130.16 150.052 130.176C150.085 130.193 150.118 130.209 150.158 130.217C150.191 130.226 150.232 130.217 150.265 130.209C150.305 130.201 150.338 130.185 150.371 130.168C150.404 130.144 150.428 130.119 150.444 130.087C150.461 130.054 150.477 130.021 150.485 129.98C150.493 129.939 150.485 129.907 150.477 129.866C150.477 129.809 150.436 129.751 150.387 129.711Z" fill="url(#paint19_linear_385_19229)"/>
<path d="M155.365 127.929C155.381 127.896 155.397 127.863 155.405 127.822C155.414 127.782 155.414 127.749 155.405 127.708C155.397 127.675 155.381 127.634 155.356 127.61C155.332 127.569 155.299 127.545 155.258 127.52C155.218 127.495 155.177 127.487 155.128 127.487C155.07 127.487 155.013 127.504 154.964 127.536C154.474 127.871 153.959 128.174 153.428 128.444C152.905 128.713 152.365 128.95 151.809 129.155C151.777 129.163 151.744 129.187 151.719 129.212C151.695 129.236 151.67 129.269 151.662 129.302C151.646 129.334 151.638 129.375 151.638 129.408C151.638 129.449 151.646 129.482 151.662 129.514C151.679 129.547 151.695 129.588 151.719 129.612C151.744 129.637 151.777 129.661 151.817 129.678C151.85 129.694 151.891 129.702 151.932 129.702C151.973 129.702 152.014 129.694 152.046 129.686C153.191 129.261 154.286 128.697 155.291 128.002C155.316 127.986 155.348 127.961 155.365 127.929Z" fill="url(#paint20_linear_385_19229)"/>
<path d="M148.622 130.029C148.59 130.005 148.557 129.989 148.524 129.98C148.492 129.972 148.451 129.964 148.41 129.972C147.887 130.021 147.356 130.054 146.824 130.046H146.653C146.064 130.046 145.468 129.997 144.887 129.915H144.855C144.797 129.915 144.748 129.931 144.699 129.956C144.65 129.98 144.618 130.021 144.593 130.07C144.568 130.119 144.56 130.177 144.568 130.226C144.577 130.283 144.593 130.332 144.626 130.373C144.675 130.43 144.74 130.471 144.814 130.479C145.418 130.553 146.031 130.602 146.636 130.61C147.249 130.626 147.854 130.602 148.459 130.52C148.532 130.503 148.598 130.471 148.647 130.414C148.696 130.356 148.72 130.283 148.72 130.209C148.712 130.168 148.704 130.136 148.688 130.103C148.68 130.078 148.655 130.046 148.622 130.029Z" fill="url(#paint21_linear_385_19229)"/>
<path d="M143.171 129.572C143.146 129.563 143.122 129.563 143.097 129.563C143.032 129.563 142.974 129.588 142.925 129.621C142.876 129.662 142.836 129.711 142.819 129.776C142.811 129.809 142.803 129.85 142.811 129.882C142.819 129.915 142.827 129.956 142.844 129.988C142.885 130.054 142.95 130.103 143.032 130.119C143.064 130.127 143.105 130.136 143.146 130.127C143.187 130.119 143.22 130.111 143.252 130.095C143.285 130.078 143.31 130.054 143.334 130.021C143.359 129.988 143.375 129.956 143.383 129.923C143.399 129.85 143.391 129.776 143.35 129.711C143.301 129.637 143.244 129.596 143.171 129.572Z" fill="url(#paint22_linear_385_19229)"/>
<path d="M141.16 94.517C141.12 94.5824 141.103 94.656 141.111 94.7295L141.708 98.2848C141.716 98.3257 141.724 98.3584 141.741 98.3911C141.757 98.4238 141.782 98.4483 141.814 98.4728C141.88 98.5137 141.953 98.53 142.027 98.5218C142.092 98.5137 142.141 98.481 142.19 98.4401C142.223 98.4074 142.239 98.3666 142.256 98.3257C142.272 98.2848 142.272 98.2358 142.272 98.1949L141.675 94.6396C141.659 94.5661 141.618 94.5007 141.553 94.4517C141.487 94.4026 141.414 94.3863 141.34 94.4026C141.267 94.4108 141.201 94.4517 141.16 94.517Z" fill="url(#paint23_linear_385_19229)"/>
<path d="M140.866 93.054C140.882 93.0867 140.915 93.1113 140.948 93.1358C140.981 93.1603 141.013 93.1766 141.054 93.1766C141.095 93.1848 141.128 93.1848 141.169 93.1766C141.218 93.1603 141.267 93.1358 141.299 93.0949C141.332 93.0622 141.357 93.0214 141.373 92.9805C141.389 92.9396 141.389 92.8906 141.381 92.8497C141.373 92.8089 141.365 92.7762 141.34 92.7435C141.324 92.7108 141.291 92.6863 141.267 92.6617C141.234 92.6372 141.201 92.629 141.16 92.6209C141.12 92.6127 141.087 92.6127 141.046 92.6209C140.972 92.6372 140.915 92.6781 140.874 92.7353C140.833 92.7925 140.817 92.8661 140.825 92.9396C140.833 92.9805 140.842 93.0214 140.866 93.054Z" fill="url(#paint24_linear_385_19229)"/>
<path d="M134.744 102.707C134.769 102.739 134.802 102.764 134.834 102.78C134.867 102.797 134.908 102.813 134.949 102.813C135.022 102.813 135.096 102.78 135.153 102.731C135.202 102.674 135.235 102.601 135.235 102.527C135.235 102.453 135.202 102.38 135.153 102.323L132.595 99.7808C132.57 99.7563 132.538 99.7318 132.505 99.7154C132.472 99.6991 132.431 99.6909 132.399 99.6909C132.358 99.6909 132.325 99.6991 132.292 99.7154C132.26 99.7318 132.227 99.7481 132.202 99.7808C132.153 99.8299 132.129 99.9034 132.129 99.9688C132.129 100.042 132.153 100.108 132.202 100.157L134.744 102.707Z" fill="url(#paint25_linear_385_19229)"/>
<path d="M131.009 98.9796C131.066 99.0041 131.123 99.0041 131.172 98.9878C131.23 98.9714 131.279 98.9469 131.319 98.9061C131.369 98.857 131.393 98.7835 131.393 98.7181C131.393 98.6445 131.369 98.5791 131.319 98.5301C131.279 98.4892 131.23 98.4565 131.172 98.4484C131.115 98.432 131.058 98.4402 131.009 98.4565C130.952 98.4811 130.911 98.5137 130.878 98.5628C130.845 98.6118 130.829 98.669 130.829 98.7262C130.829 98.7835 130.845 98.8407 130.878 98.8897C130.903 98.9224 130.952 98.9633 131.009 98.9796Z" fill="url(#paint26_linear_385_19229)"/>
<path d="M127.127 108.837C127.151 108.869 127.176 108.894 127.209 108.91C127.241 108.927 127.274 108.943 127.315 108.943L130.854 109.54C130.895 109.548 130.944 109.548 130.985 109.531C131.025 109.515 131.066 109.491 131.099 109.458C131.14 109.417 131.164 109.368 131.181 109.311C131.189 109.237 131.172 109.155 131.123 109.09C131.099 109.057 131.074 109.033 131.042 109.008C131.009 108.992 130.976 108.976 130.935 108.967L127.388 108.379C127.315 108.371 127.241 108.387 127.184 108.428C127.127 108.469 127.086 108.534 127.07 108.608C127.061 108.641 127.061 108.681 127.07 108.722C127.094 108.771 127.102 108.804 127.127 108.837Z" fill="url(#paint27_linear_385_19229)"/>
<path d="M145.95 99.4457C146.023 99.4376 146.08 99.4049 146.13 99.3558C146.187 99.2986 146.219 99.2251 146.219 99.1433C146.211 99.0698 146.179 98.9962 146.121 98.939C146.064 98.89 145.991 98.8654 145.917 98.8736C145.843 98.8818 145.778 98.9145 145.729 98.9717C145.68 99.0289 145.655 99.1025 145.664 99.176C145.672 99.2496 145.705 99.3231 145.754 99.3722C145.811 99.4212 145.876 99.4457 145.95 99.4457Z" fill="url(#paint28_linear_385_19229)"/>
<path d="M134.793 104.709C134.793 104.75 134.793 104.783 134.809 104.824C134.809 104.856 134.817 104.897 134.834 104.93C134.85 104.962 134.875 104.987 134.899 105.012C134.956 105.052 135.03 105.069 135.104 105.061C135.177 105.052 135.242 105.012 135.283 104.962C135.61 104.546 135.962 104.145 136.338 103.769C136.379 103.728 136.419 103.696 136.46 103.655C136.877 103.238 137.318 102.846 137.784 102.478V102.453C137.833 102.404 137.866 102.339 137.874 102.265C137.882 102.192 137.858 102.126 137.809 102.069C137.784 102.037 137.76 102.012 137.727 101.996C137.694 101.979 137.662 101.963 137.621 101.963C137.547 101.955 137.466 101.979 137.408 102.028C136.926 102.404 136.468 102.813 136.035 103.238C135.594 103.663 135.185 104.112 134.817 104.603C134.809 104.636 134.801 104.668 134.793 104.709Z" fill="url(#paint29_linear_385_19229)"/>
<path d="M140.531 100.614C140.564 100.639 140.596 100.655 140.629 100.671C140.695 100.696 140.76 100.696 140.817 100.671C141.357 100.434 141.904 100.23 142.468 100.058C143.032 99.8868 143.612 99.7478 144.193 99.6498C144.25 99.6334 144.299 99.6089 144.34 99.568C144.372 99.5353 144.397 99.4945 144.413 99.4536C144.43 99.4127 144.43 99.3637 144.421 99.3228C144.405 99.2493 144.364 99.1839 144.299 99.143C144.233 99.1022 144.16 99.0776 144.086 99.094C143.49 99.2002 142.893 99.3392 142.313 99.519C141.732 99.6906 141.169 99.9031 140.621 100.148C140.547 100.181 140.498 100.238 140.466 100.312C140.441 100.385 140.441 100.467 140.466 100.532C140.482 100.549 140.507 100.581 140.531 100.614Z" fill="url(#paint30_linear_385_19229)"/>
<path d="M138.872 101.382C138.888 101.415 138.913 101.44 138.945 101.464C138.978 101.489 139.011 101.505 139.044 101.513C139.076 101.521 139.117 101.521 139.158 101.521C139.199 101.513 139.232 101.505 139.264 101.481C139.289 101.472 139.305 101.456 139.33 101.432C139.37 101.382 139.395 101.325 139.403 101.26C139.411 101.194 139.395 101.137 139.37 101.08C139.354 101.047 139.33 101.023 139.297 100.998C139.264 100.974 139.232 100.957 139.199 100.949C139.125 100.933 139.044 100.941 138.97 100.982C138.937 100.998 138.913 101.023 138.888 101.056C138.864 101.088 138.847 101.121 138.839 101.154C138.831 101.186 138.831 101.227 138.831 101.268C138.839 101.317 138.847 101.35 138.872 101.382Z" fill="url(#paint31_linear_385_19229)"/>
<path d="M131.745 113.258C131.769 113.283 131.794 113.307 131.827 113.323C131.859 113.34 131.892 113.348 131.933 113.348C131.974 113.348 132.015 113.348 132.047 113.332C132.088 113.315 132.121 113.291 132.145 113.266C132.194 113.217 132.227 113.152 132.235 113.078C132.235 113.005 132.211 112.931 132.162 112.874C132.113 112.817 132.039 112.784 131.965 112.776C131.892 112.776 131.818 112.8 131.761 112.849C131.704 112.898 131.671 112.972 131.663 113.046C131.663 113.086 131.663 113.119 131.679 113.16C131.696 113.201 131.72 113.234 131.745 113.258Z" fill="url(#paint32_linear_385_19229)"/>
<path d="M132.104 111.566C132.154 111.574 132.203 111.574 132.243 111.558C132.292 111.542 132.333 111.517 132.366 111.484C132.407 111.444 132.44 111.394 132.448 111.337C132.66 110.177 133.004 109.049 133.486 107.97C133.502 107.937 133.51 107.905 133.51 107.864C133.51 107.823 133.502 107.79 133.486 107.757C133.478 107.717 133.453 107.684 133.429 107.659C133.404 107.635 133.371 107.61 133.33 107.594C133.257 107.561 133.183 107.561 133.11 107.586C133.036 107.61 132.979 107.668 132.946 107.733C132.693 108.289 132.48 108.869 132.292 109.449C132.121 110.03 131.974 110.626 131.867 111.231C131.851 111.305 131.867 111.386 131.916 111.444C131.957 111.509 132.023 111.55 132.104 111.566Z" fill="url(#paint33_linear_385_19229)"/>
<path d="M134.213 106.025C134.181 106.009 134.148 105.992 134.115 105.984C134.083 105.976 134.042 105.976 134.009 105.984C133.976 105.992 133.944 106.009 133.911 106.033C133.878 106.058 133.854 106.082 133.837 106.115C133.813 106.148 133.797 106.18 133.788 106.221C133.78 106.262 133.78 106.295 133.788 106.336C133.805 106.385 133.829 106.426 133.862 106.466C133.895 106.499 133.944 106.524 133.993 106.54C134.042 106.556 134.091 106.548 134.14 106.54C134.189 106.524 134.23 106.499 134.271 106.466C134.287 106.458 134.295 106.442 134.303 106.417C134.32 106.385 134.336 106.352 134.344 106.319C134.352 106.287 134.352 106.246 134.344 106.213C134.336 106.18 134.32 106.139 134.295 106.115C134.271 106.074 134.246 106.05 134.213 106.025Z" fill="url(#paint34_linear_385_19229)"/>
<path d="M101.695 178.4C101.175 178.133 100.621 177.907 100.035 177.72C99.448 177.52 98.888 177.42 98.3547 177.42C97.6347 177.42 97.0614 177.58 96.6347 177.9C96.2214 178.22 96.0147 178.66 96.0147 179.22C96.0147 179.62 96.1547 179.973 96.4347 180.28C96.728 180.573 97.1014 180.833 97.5547 181.06C98.0214 181.273 98.508 181.48 99.0147 181.68C99.4547 181.84 99.888 182.033 100.315 182.26C100.755 182.473 101.148 182.74 101.495 183.06C101.841 183.38 102.115 183.78 102.315 184.26C102.515 184.727 102.615 185.307 102.615 186C102.615 186.76 102.421 187.46 102.035 188.1C101.661 188.727 101.115 189.227 100.395 189.6C99.6747 189.973 98.8014 190.16 97.7747 190.16C97.1614 190.16 96.5614 190.093 95.9747 189.96C95.4014 189.827 94.8547 189.647 94.3347 189.42C93.8147 189.18 93.3347 188.913 92.8947 188.62L93.9347 186.8C94.2547 187.04 94.6214 187.26 95.0347 187.46C95.448 187.66 95.8747 187.82 96.3147 187.94C96.7547 188.06 97.168 188.12 97.5547 188.12C97.968 188.12 98.3747 188.053 98.7747 187.92C99.188 187.773 99.528 187.547 99.7947 187.24C100.075 186.933 100.215 186.527 100.215 186.02C100.215 185.607 100.095 185.253 99.8547 184.96C99.628 184.667 99.3214 184.413 98.9347 184.2C98.548 183.973 98.128 183.773 97.6747 183.6C97.2214 183.427 96.7614 183.233 96.2947 183.02C95.828 182.807 95.388 182.547 94.9747 182.24C94.5747 181.92 94.248 181.533 93.9947 181.08C93.7414 180.627 93.6147 180.067 93.6147 179.4C93.6147 178.6 93.8014 177.907 94.1747 177.32C94.548 176.733 95.0614 176.267 95.7147 175.92C96.3814 175.573 97.148 175.387 98.0147 175.36C99.0414 175.36 99.9147 175.487 100.635 175.74C101.368 175.98 102.015 176.273 102.575 176.62L101.695 178.4ZM109.535 185.28L104.155 175.44H107.015L111.115 183.28L110.415 183.32L114.455 175.44H117.315L111.855 185.28V190H109.535V185.28ZM132.577 190.52L121.397 179.68L122.077 179.96L122.137 190H119.777V174.94H119.897L130.897 185.78L130.357 185.62L130.317 175.44H132.637V190.52H132.577ZM135.612 175.44H145.352V177.68H141.592V190H139.272V177.68H135.612V175.44ZM160.133 175.44V190H157.813V183.8H150.653V190H148.313V175.44H150.653V181.58H157.813V175.44H160.133ZM164.152 175.44H173.812V177.68H166.492V181.56H173.012V183.8H166.492V187.76H174.092V190H164.152V175.44ZM184.956 178.4C184.436 178.133 183.883 177.907 183.296 177.72C182.71 177.52 182.15 177.42 181.616 177.42C180.896 177.42 180.323 177.58 179.896 177.9C179.483 178.22 179.276 178.66 179.276 179.22C179.276 179.62 179.416 179.973 179.696 180.28C179.99 180.573 180.363 180.833 180.816 181.06C181.283 181.273 181.77 181.48 182.276 181.68C182.716 181.84 183.15 182.033 183.576 182.26C184.016 182.473 184.41 182.74 184.756 183.06C185.103 183.38 185.376 183.78 185.576 184.26C185.776 184.727 185.876 185.307 185.876 186C185.876 186.76 185.683 187.46 185.296 188.1C184.923 188.727 184.376 189.227 183.656 189.6C182.936 189.973 182.063 190.16 181.036 190.16C180.423 190.16 179.823 190.093 179.236 189.96C178.663 189.827 178.116 189.647 177.596 189.42C177.076 189.18 176.596 188.913 176.156 188.62L177.196 186.8C177.516 187.04 177.883 187.26 178.296 187.46C178.71 187.66 179.136 187.82 179.576 187.94C180.016 188.06 180.43 188.12 180.816 188.12C181.23 188.12 181.636 188.053 182.036 187.92C182.45 187.773 182.79 187.547 183.056 187.24C183.336 186.933 183.476 186.527 183.476 186.02C183.476 185.607 183.356 185.253 183.116 184.96C182.89 184.667 182.583 184.413 182.196 184.2C181.81 183.973 181.39 183.773 180.936 183.6C180.483 183.427 180.023 183.233 179.556 183.02C179.09 182.807 178.65 182.547 178.236 182.24C177.836 181.92 177.51 181.533 177.256 181.08C177.003 180.627 176.876 180.067 176.876 179.4C176.876 178.6 177.063 177.907 177.436 177.32C177.81 176.733 178.323 176.267 178.976 175.92C179.643 175.573 180.41 175.387 181.276 175.36C182.303 175.36 183.176 175.487 183.896 175.74C184.63 175.98 185.276 176.273 185.836 176.62L184.956 178.4ZM188.957 175.44H191.297V190H188.957V175.44ZM202.945 178.4C202.425 178.133 201.871 177.907 201.285 177.72C200.698 177.52 200.138 177.42 199.605 177.42C198.885 177.42 198.311 177.58 197.885 177.9C197.471 178.22 197.265 178.66 197.265 179.22C197.265 179.62 197.405 179.973 197.685 180.28C197.978 180.573 198.351 180.833 198.805 181.06C199.271 181.273 199.758 181.48 200.265 181.68C200.705 181.84 201.138 182.033 201.565 182.26C202.005 182.473 202.398 182.74 202.745 183.06C203.091 183.38 203.365 183.78 203.565 184.26C203.765 184.727 203.865 185.307 203.865 186C203.865 186.76 203.671 187.46 203.285 188.1C202.911 188.727 202.365 189.227 201.645 189.6C200.925 189.973 200.051 190.16 199.025 190.16C198.411 190.16 197.811 190.093 197.225 189.96C196.651 189.827 196.105 189.647 195.585 189.42C195.065 189.18 194.585 188.913 194.145 188.62L195.185 186.8C195.505 187.04 195.871 187.26 196.285 187.46C196.698 187.66 197.125 187.82 197.565 187.94C198.005 188.06 198.418 188.12 198.805 188.12C199.218 188.12 199.625 188.053 200.025 187.92C200.438 187.773 200.778 187.547 201.045 187.24C201.325 186.933 201.465 186.527 201.465 186.02C201.465 185.607 201.345 185.253 201.105 184.96C200.878 184.667 200.571 184.413 200.185 184.2C199.798 183.973 199.378 183.773 198.925 183.6C198.471 183.427 198.011 183.233 197.545 183.02C197.078 182.807 196.638 182.547 196.225 182.24C195.825 181.92 195.498 181.533 195.245 181.08C194.991 180.627 194.865 180.067 194.865 179.4C194.865 178.6 195.051 177.907 195.425 177.32C195.798 176.733 196.311 176.267 196.965 175.92C197.631 175.573 198.398 175.387 199.265 175.36C200.291 175.36 201.165 175.487 201.885 175.74C202.618 175.98 203.265 176.273 203.825 176.62L202.945 178.4Z" fill="white"/>
<path d="M52.4718 212.09C52.1018 211.9 51.6968 211.735 51.2568 211.595C50.8168 211.455 50.3868 211.385 49.9668 211.385C49.3868 211.385 48.9218 211.52 48.5718 211.79C48.2318 212.06 48.0618 212.42 48.0618 212.87C48.0618 213.21 48.1718 213.5 48.3918 213.74C48.6118 213.97 48.9018 214.17 49.2618 214.34C49.6218 214.51 49.9968 214.67 50.3868 214.82C50.7268 214.95 51.0618 215.095 51.3918 215.255C51.7218 215.415 52.0168 215.615 52.2768 215.855C52.5468 216.095 52.7568 216.39 52.9068 216.74C53.0668 217.09 53.1468 217.525 53.1468 218.045C53.1468 218.615 53.0018 219.135 52.7118 219.605C52.4318 220.075 52.0268 220.445 51.4968 220.715C50.9668 220.985 50.3368 221.12 49.6068 221.12C49.1268 221.12 48.6668 221.065 48.2268 220.955C47.7968 220.845 47.3968 220.705 47.0268 220.535C46.6568 220.355 46.3268 220.17 46.0368 219.98L46.6818 218.84C46.9218 219.01 47.1968 219.175 47.5068 219.335C47.8168 219.485 48.1418 219.61 48.4818 219.71C48.8218 219.8 49.1518 219.845 49.4718 219.845C49.8118 219.845 50.1468 219.785 50.4768 219.665C50.8168 219.535 51.0968 219.34 51.3168 219.08C51.5368 218.82 51.6468 218.475 51.6468 218.045C51.6468 217.675 51.5468 217.37 51.3468 217.13C51.1568 216.88 50.9018 216.67 50.5818 216.5C50.2618 216.32 49.9218 216.16 49.5618 216.02C49.2218 215.89 48.8768 215.75 48.5268 215.6C48.1768 215.44 47.8518 215.25 47.5518 215.03C47.2518 214.8 47.0118 214.52 46.8318 214.19C46.6518 213.86 46.5618 213.46 46.5618 212.99C46.5618 212.42 46.6968 211.925 46.9668 211.505C47.2468 211.075 47.6268 210.74 48.1068 210.5C48.5868 210.25 49.1368 210.115 49.7568 210.095C50.4568 210.095 51.0718 210.18 51.6018 210.35C52.1418 210.52 52.6168 210.73 53.0268 210.98L52.4718 212.09ZM58.4722 217.385L54.4522 210.155H56.2372L59.4622 216.14L59.0122 216.17L62.2072 210.155H63.9772L59.9272 217.385V221H58.4722V217.385ZM75.3533 221.345L66.9683 212.84L67.3883 212.945L67.4183 221H65.9633V209.825H66.0383L74.3333 218.36L73.9883 218.285L73.9583 210.155H75.3983V221.345H75.3533ZM77.722 210.155H84.922V211.55H82.012V221H80.557V211.55H77.722V210.155ZM95.8129 210.155V221H94.3729V216.245H88.6879V221H87.2329V210.155H88.6879V214.865H94.3729V210.155H95.8129ZM98.937 210.155H105.987V211.55H100.392V214.85H105.387V216.245H100.392V219.605H106.197V221H98.937V210.155ZM114.332 212.09C113.962 211.9 113.557 211.735 113.117 211.595C112.677 211.455 112.247 211.385 111.827 211.385C111.247 211.385 110.782 211.52 110.432 211.79C110.092 212.06 109.922 212.42 109.922 212.87C109.922 213.21 110.032 213.5 110.252 213.74C110.472 213.97 110.762 214.17 111.122 214.34C111.482 214.51 111.857 214.67 112.247 214.82C112.587 214.95 112.922 215.095 113.252 215.255C113.582 215.415 113.877 215.615 114.137 215.855C114.407 216.095 114.617 216.39 114.767 216.74C114.927 217.09 115.007 217.525 115.007 218.045C115.007 218.615 114.862 219.135 114.572 219.605C114.292 220.075 113.887 220.445 113.357 220.715C112.827 220.985 112.197 221.12 111.467 221.12C110.987 221.12 110.527 221.065 110.087 220.955C109.657 220.845 109.257 220.705 108.887 220.535C108.517 220.355 108.187 220.17 107.897 219.98L108.542 218.84C108.782 219.01 109.057 219.175 109.367 219.335C109.677 219.485 110.002 219.61 110.342 219.71C110.682 219.8 111.012 219.845 111.332 219.845C111.672 219.845 112.007 219.785 112.337 219.665C112.677 219.535 112.957 219.34 113.177 219.08C113.397 218.82 113.507 218.475 113.507 218.045C113.507 217.675 113.407 217.37 113.207 217.13C113.017 216.88 112.762 216.67 112.442 216.5C112.122 216.32 111.782 216.16 111.422 216.02C111.082 215.89 110.737 215.75 110.387 215.6C110.037 215.44 109.712 215.25 109.412 215.03C109.112 214.8 108.872 214.52 108.692 214.19C108.512 213.86 108.422 213.46 108.422 212.99C108.422 212.42 108.557 211.925 108.827 211.505C109.107 211.075 109.487 210.74 109.967 210.5C110.447 210.25 110.997 210.115 111.617 210.095C112.317 210.095 112.932 210.18 113.462 210.35C114.002 210.52 114.477 210.73 114.887 210.98L114.332 212.09ZM117.453 210.155H118.908V221H117.453V210.155ZM127.633 212.09C127.263 211.9 126.858 211.735 126.418 211.595C125.978 211.455 125.548 211.385 125.128 211.385C124.548 211.385 124.083 211.52 123.733 211.79C123.393 212.06 123.223 212.42 123.223 212.87C123.223 213.21 123.333 213.5 123.553 213.74C123.773 213.97 124.063 214.17 124.423 214.34C124.783 214.51 125.158 214.67 125.548 214.82C125.888 214.95 126.223 215.095 126.553 215.255C126.883 215.415 127.178 215.615 127.438 215.855C127.708 216.095 127.918 216.39 128.068 216.74C128.228 217.09 128.308 217.525 128.308 218.045C128.308 218.615 128.163 219.135 127.873 219.605C127.593 220.075 127.188 220.445 126.658 220.715C126.128 220.985 125.498 221.12 124.768 221.12C124.288 221.12 123.828 221.065 123.388 220.955C122.958 220.845 122.558 220.705 122.188 220.535C121.818 220.355 121.488 220.17 121.198 219.98L121.843 218.84C122.083 219.01 122.358 219.175 122.668 219.335C122.978 219.485 123.303 219.61 123.643 219.71C123.983 219.8 124.313 219.845 124.633 219.845C124.973 219.845 125.308 219.785 125.638 219.665C125.978 219.535 126.258 219.34 126.478 219.08C126.698 218.82 126.808 218.475 126.808 218.045C126.808 217.675 126.708 217.37 126.508 217.13C126.318 216.88 126.063 216.67 125.743 216.5C125.423 216.32 125.083 216.16 124.723 216.02C124.383 215.89 124.038 215.75 123.688 215.6C123.338 215.44 123.013 215.25 122.713 215.03C122.413 214.8 122.173 214.52 121.993 214.19C121.813 213.86 121.723 213.46 121.723 212.99C121.723 212.42 121.858 211.925 122.128 211.505C122.408 211.075 122.788 210.74 123.268 210.5C123.748 210.25 124.298 210.115 124.918 210.095C125.618 210.095 126.233 210.18 126.763 210.35C127.303 210.52 127.778 210.73 128.188 210.98L127.633 212.09ZM144.079 210.155V221H142.639V216.245H136.954V221H135.499V210.155H136.954V214.865H142.639V210.155H144.079ZM146.529 215.585C146.529 214.835 146.669 214.13 146.949 213.47C147.239 212.8 147.639 212.21 148.149 211.7C148.659 211.18 149.244 210.775 149.904 210.485C150.574 210.185 151.294 210.035 152.064 210.035C152.824 210.035 153.534 210.185 154.194 210.485C154.864 210.775 155.454 211.18 155.964 211.7C156.484 212.21 156.889 212.8 157.179 213.47C157.469 214.13 157.614 214.835 157.614 215.585C157.614 216.355 157.469 217.075 157.179 217.745C156.889 218.415 156.484 219.005 155.964 219.515C155.454 220.015 154.864 220.41 154.194 220.7C153.534 220.98 152.824 221.12 152.064 221.12C151.294 221.12 150.574 220.98 149.904 220.7C149.244 220.42 148.659 220.03 148.149 219.53C147.639 219.03 147.239 218.445 146.949 217.775C146.669 217.105 146.529 216.375 146.529 215.585ZM148.029 215.6C148.029 216.17 148.134 216.705 148.344 217.205C148.554 217.695 148.844 218.13 149.214 218.51C149.584 218.89 150.014 219.19 150.504 219.41C150.994 219.62 151.524 219.725 152.094 219.725C152.654 219.725 153.179 219.62 153.669 219.41C154.159 219.19 154.584 218.89 154.944 218.51C155.304 218.13 155.589 217.695 155.799 217.205C156.009 216.705 156.114 216.165 156.114 215.585C156.114 215.015 156.009 214.48 155.799 213.98C155.589 213.47 155.299 213.025 154.929 212.645C154.559 212.265 154.129 211.97 153.639 211.76C153.149 211.54 152.624 211.43 152.064 211.43C151.494 211.43 150.964 211.54 150.474 211.76C149.984 211.98 149.554 212.28 149.184 212.66C148.814 213.04 148.529 213.485 148.329 213.995C148.129 214.495 148.029 215.03 148.029 215.6ZM158.329 210.215H160.009L162.949 218.495L162.694 218.39L164.839 212.84L165.514 214.805L162.649 221.495L158.329 210.215ZM163.534 210.215H164.989L168.169 218.375L167.869 218.315L170.674 210.215H172.219L167.959 221.48L163.534 210.215ZM187.102 220.19C186.922 220.31 186.677 220.445 186.367 220.595C186.057 220.745 185.692 220.87 185.272 220.97C184.862 221.07 184.412 221.12 183.922 221.12C183.082 221.11 182.322 220.96 181.642 220.67C180.972 220.38 180.402 219.985 179.932 219.485C179.462 218.985 179.097 218.41 178.837 217.76C178.587 217.1 178.462 216.4 178.462 215.66C178.462 214.85 178.592 214.105 178.852 213.425C179.122 212.735 179.497 212.14 179.977 211.64C180.457 211.13 181.022 210.735 181.672 210.455C182.332 210.175 183.052 210.035 183.832 210.035C184.482 210.035 185.072 210.125 185.602 210.305C186.132 210.475 186.587 210.68 186.967 210.92L186.382 212.27C186.082 212.07 185.717 211.88 185.287 211.7C184.867 211.52 184.397 211.43 183.877 211.43C183.347 211.43 182.847 211.535 182.377 211.745C181.907 211.955 181.492 212.25 181.132 212.63C180.772 213.01 180.487 213.455 180.277 213.965C180.077 214.465 179.977 215.005 179.977 215.585C179.977 216.175 180.067 216.725 180.247 217.235C180.437 217.735 180.702 218.17 181.042 218.54C181.392 218.91 181.812 219.2 182.302 219.41C182.792 219.62 183.342 219.725 183.952 219.725C184.502 219.725 184.992 219.64 185.422 219.47C185.852 219.3 186.207 219.11 186.487 218.9L187.102 220.19ZM198.132 210.155V221H196.692V216.245H191.007V221H189.552V210.155H191.007V214.865H196.692V210.155H198.132ZM200.176 221L204.916 209.705H205.006L209.731 221H208.066L204.526 211.985L205.561 211.31L201.601 221H200.176ZM202.951 216.89H206.986L207.466 218.15H202.531L202.951 216.89ZM221.164 221.345L212.779 212.84L213.199 212.945L213.229 221H211.774V209.825H211.849L220.144 218.36L219.799 218.285L219.769 210.155H221.209V221.345H221.164ZM232.293 220.19C232.113 220.31 231.868 220.445 231.558 220.595C231.248 220.745 230.883 220.87 230.463 220.97C230.053 221.07 229.603 221.12 229.113 221.12C228.273 221.11 227.513 220.96 226.833 220.67C226.163 220.38 225.593 219.985 225.123 219.485C224.653 218.985 224.288 218.41 224.028 217.76C223.778 217.1 223.653 216.4 223.653 215.66C223.653 214.85 223.783 214.105 224.043 213.425C224.313 212.735 224.688 212.14 225.168 211.64C225.648 211.13 226.213 210.735 226.863 210.455C227.523 210.175 228.243 210.035 229.023 210.035C229.673 210.035 230.263 210.125 230.793 210.305C231.323 210.475 231.778 210.68 232.158 210.92L231.573 212.27C231.273 212.07 230.908 211.88 230.478 211.7C230.058 211.52 229.588 211.43 229.068 211.43C228.538 211.43 228.038 211.535 227.568 211.745C227.098 211.955 226.683 212.25 226.323 212.63C225.963 213.01 225.678 213.455 225.468 213.965C225.268 214.465 225.168 215.005 225.168 215.585C225.168 216.175 225.258 216.725 225.438 217.235C225.628 217.735 225.893 218.17 226.233 218.54C226.583 218.91 227.003 219.2 227.493 219.41C227.983 219.62 228.533 219.725 229.143 219.725C229.693 219.725 230.183 219.64 230.613 219.47C231.043 219.3 231.398 219.11 231.678 218.9L232.293 220.19ZM234.743 210.155H241.793V211.55H236.198V214.85H241.193V216.245H236.198V219.605H242.003V221H234.743V210.155ZM250.138 212.09C249.768 211.9 249.363 211.735 248.923 211.595C248.483 211.455 248.053 211.385 247.633 211.385C247.053 211.385 246.588 211.52 246.238 211.79C245.898 212.06 245.728 212.42 245.728 212.87C245.728 213.21 245.838 213.5 246.058 213.74C246.278 213.97 246.568 214.17 246.928 214.34C247.288 214.51 247.663 214.67 248.053 214.82C248.393 214.95 248.728 215.095 249.058 215.255C249.388 215.415 249.683 215.615 249.943 215.855C250.213 216.095 250.423 216.39 250.573 216.74C250.733 217.09 250.813 217.525 250.813 218.045C250.813 218.615 250.668 219.135 250.378 219.605C250.098 220.075 249.693 220.445 249.163 220.715C248.633 220.985 248.003 221.12 247.273 221.12C246.793 221.12 246.333 221.065 245.893 220.955C245.463 220.845 245.063 220.705 244.693 220.535C244.323 220.355 243.993 220.17 243.703 219.98L244.348 218.84C244.588 219.01 244.863 219.175 245.173 219.335C245.483 219.485 245.808 219.61 246.148 219.71C246.488 219.8 246.818 219.845 247.138 219.845C247.478 219.845 247.813 219.785 248.143 219.665C248.483 219.535 248.763 219.34 248.983 219.08C249.203 218.82 249.313 218.475 249.313 218.045C249.313 217.675 249.213 217.37 249.013 217.13C248.823 216.88 248.568 216.67 248.248 216.5C247.928 216.32 247.588 216.16 247.228 216.02C246.888 215.89 246.543 215.75 246.193 215.6C245.843 215.44 245.518 215.25 245.218 215.03C244.918 214.8 244.678 214.52 244.498 214.19C244.318 213.86 244.228 213.46 244.228 212.99C244.228 212.42 244.363 211.925 244.633 211.505C244.913 211.075 245.293 210.74 245.773 210.5C246.253 210.25 246.803 210.115 247.423 210.095C248.123 210.095 248.738 210.18 249.268 210.35C249.808 210.52 250.283 210.73 250.693 210.98L250.138 212.09ZM117.711 232.385L113.691 225.155H115.476L118.701 231.14L118.251 231.17L121.446 225.155H123.216L119.166 232.385V236H117.711V232.385ZM123.662 230.585C123.662 229.835 123.802 229.13 124.082 228.47C124.372 227.8 124.772 227.21 125.282 226.7C125.792 226.18 126.377 225.775 127.037 225.485C127.707 225.185 128.427 225.035 129.197 225.035C129.957 225.035 130.667 225.185 131.327 225.485C131.997 225.775 132.587 226.18 133.097 226.7C133.617 227.21 134.022 227.8 134.312 228.47C134.602 229.13 134.747 229.835 134.747 230.585C134.747 231.355 134.602 232.075 134.312 232.745C134.022 233.415 133.617 234.005 133.097 234.515C132.587 235.015 131.997 235.41 131.327 235.7C130.667 235.98 129.957 236.12 129.197 236.12C128.427 236.12 127.707 235.98 127.037 235.7C126.377 235.42 125.792 235.03 125.282 234.53C124.772 234.03 124.372 233.445 124.082 232.775C123.802 232.105 123.662 231.375 123.662 230.585ZM125.162 230.6C125.162 231.17 125.267 231.705 125.477 232.205C125.687 232.695 125.977 233.13 126.347 233.51C126.717 233.89 127.147 234.19 127.637 234.41C128.127 234.62 128.657 234.725 129.227 234.725C129.787 234.725 130.312 234.62 130.802 234.41C131.292 234.19 131.717 233.89 132.077 233.51C132.437 233.13 132.722 232.695 132.932 232.205C133.142 231.705 133.247 231.165 133.247 230.585C133.247 230.015 133.142 229.48 132.932 228.98C132.722 228.47 132.432 228.025 132.062 227.645C131.692 227.265 131.262 226.97 130.772 226.76C130.282 226.54 129.757 226.43 129.197 226.43C128.627 226.43 128.097 226.54 127.607 226.76C127.117 226.98 126.687 227.28 126.317 227.66C125.947 228.04 125.662 228.485 125.462 228.995C125.262 229.495 125.162 230.03 125.162 230.6ZM138.504 232.16C138.504 232.65 138.619 233.09 138.849 233.48C139.089 233.86 139.404 234.16 139.794 234.38C140.184 234.6 140.624 234.71 141.114 234.71C141.624 234.71 142.079 234.6 142.479 234.38C142.879 234.16 143.194 233.86 143.424 233.48C143.654 233.09 143.769 232.65 143.769 232.16V225.155H145.194V232.205C145.194 232.995 145.009 233.685 144.639 234.275C144.279 234.865 143.789 235.32 143.169 235.64C142.559 235.96 141.874 236.12 141.114 236.12C140.354 236.12 139.669 235.96 139.059 235.64C138.449 235.32 137.964 234.865 137.604 234.275C137.244 233.685 137.064 232.995 137.064 232.205V225.155H138.504V232.16ZM161.406 235.07C161.256 235.2 161.046 235.33 160.776 235.46C160.506 235.58 160.206 235.69 159.876 235.79C159.556 235.89 159.221 235.97 158.871 236.03C158.531 236.09 158.211 236.12 157.911 236.12C157.041 236.12 156.256 235.985 155.556 235.715C154.866 235.445 154.271 235.07 153.771 234.59C153.281 234.11 152.901 233.545 152.631 232.895C152.371 232.245 152.241 231.54 152.241 230.78C152.241 229.88 152.386 229.075 152.676 228.365C152.976 227.645 153.381 227.04 153.891 226.55C154.411 226.05 155.006 225.675 155.676 225.425C156.346 225.165 157.056 225.035 157.806 225.035C158.436 225.035 159.021 225.11 159.561 225.26C160.101 225.41 160.576 225.6 160.986 225.83L160.491 227.165C160.291 227.045 160.041 226.935 159.741 226.835C159.451 226.735 159.151 226.655 158.841 226.595C158.531 226.525 158.241 226.49 157.971 226.49C157.331 226.49 156.751 226.59 156.231 226.79C155.711 226.98 155.266 227.26 154.896 227.63C154.526 227.99 154.241 228.43 154.041 228.95C153.841 229.46 153.741 230.035 153.741 230.675C153.741 231.265 153.841 231.805 154.041 232.295C154.241 232.785 154.526 233.21 154.896 233.57C155.266 233.92 155.706 234.195 156.216 234.395C156.736 234.585 157.306 234.68 157.926 234.68C158.296 234.68 158.661 234.645 159.021 234.575C159.381 234.495 159.691 234.385 159.951 234.245V232.085H157.791V230.69H161.406V235.07ZM163.506 230.585C163.506 229.835 163.646 229.13 163.926 228.47C164.216 227.8 164.616 227.21 165.126 226.7C165.636 226.18 166.221 225.775 166.881 225.485C167.551 225.185 168.271 225.035 169.041 225.035C169.801 225.035 170.511 225.185 171.171 225.485C171.841 225.775 172.431 226.18 172.941 226.7C173.461 227.21 173.866 227.8 174.156 228.47C174.446 229.13 174.591 229.835 174.591 230.585C174.591 231.355 174.446 232.075 174.156 232.745C173.866 233.415 173.461 234.005 172.941 234.515C172.431 235.015 171.841 235.41 171.171 235.7C170.511 235.98 169.801 236.12 169.041 236.12C168.271 236.12 167.551 235.98 166.881 235.7C166.221 235.42 165.636 235.03 165.126 234.53C164.616 234.03 164.216 233.445 163.926 232.775C163.646 232.105 163.506 231.375 163.506 230.585ZM165.006 230.6C165.006 231.17 165.111 231.705 165.321 232.205C165.531 232.695 165.821 233.13 166.191 233.51C166.561 233.89 166.991 234.19 167.481 234.41C167.971 234.62 168.501 234.725 169.071 234.725C169.631 234.725 170.156 234.62 170.646 234.41C171.136 234.19 171.561 233.89 171.921 233.51C172.281 233.13 172.566 232.695 172.776 232.205C172.986 231.705 173.091 231.165 173.091 230.585C173.091 230.015 172.986 229.48 172.776 228.98C172.566 228.47 172.276 228.025 171.906 227.645C171.536 227.265 171.106 226.97 170.616 226.76C170.126 226.54 169.601 226.43 169.041 226.43C168.471 226.43 167.941 226.54 167.451 226.76C166.961 226.98 166.531 227.28 166.161 227.66C165.791 228.04 165.506 228.485 165.306 228.995C165.106 229.495 165.006 230.03 165.006 230.6ZM175.779 225.155H182.979V226.55H180.069V236H178.614V226.55H175.779V225.155Z" fill="white"/>
</g>
<defs>
<linearGradient id="paint0_linear_385_19229" x1="148.58" y1="2.00016" x2="148.58" y2="368.59" gradientUnits="userSpaceOnUse">
<stop stop-color="#FFEED6"/>
<stop offset="0.65" stop-color="#DFC28D"/>
<stop offset="1" stop-color="#D0AD6A"/>
</linearGradient>
<linearGradient id="paint1_linear_385_19229" x1="-nan" y1="-nan" x2="-nan" y2="-nan" gradientUnits="userSpaceOnUse">
<stop stop-color="#FFEED6"/>
<stop offset="0.65" stop-color="#DFC28D"/>
<stop offset="1" stop-color="#D0AD6A"/>
</linearGradient>
<linearGradient id="paint2_linear_385_19229" x1="-nan" y1="-nan" x2="-nan" y2="-nan" gradientUnits="userSpaceOnUse">
<stop stop-color="#FFEED6"/>
<stop offset="0.65" stop-color="#DFC28D"/>
<stop offset="1" stop-color="#D0AD6A"/>
</linearGradient>
<radialGradient id="paint3_radial_385_19229" cx="0" cy="0" r="1" gradientUnits="userSpaceOnUse" gradientTransform="translate(148.98 359.5) scale(271.7 271.7)">
<stop stop-color="#A2743D"/>
<stop offset="1"/>
</radialGradient>
<linearGradient id="paint4_linear_385_19229" x1="148.58" y1="22.1999" x2="148.58" y2="348.39" gradientUnits="userSpaceOnUse">
<stop stop-color="#FFEED6"/>
<stop offset="0.65" stop-color="#DFC28D"/>
<stop offset="1" stop-color="#D0AD6A"/>
</linearGradient>
<linearGradient id="paint5_linear_385_19229" x1="148.58" y1="33.8601" x2="148.58" y2="336.73" gradientUnits="userSpaceOnUse">
<stop stop-color="#FFEED6"/>
<stop offset="0.65" stop-color="#DFC28D"/>
<stop offset="1" stop-color="#D0AD6A"/>
</linearGradient>
<linearGradient id="paint6_linear_385_19229" x1="-nan" y1="-nan" x2="-nan" y2="-nan" gradientUnits="userSpaceOnUse">
<stop stop-color="#FFEED6"/>
<stop offset="0.65" stop-color="#DFC28D"/>
<stop offset="1" stop-color="#D0AD6A"/>
</linearGradient>
<linearGradient id="paint7_linear_385_19229" x1="-nan" y1="-nan" x2="-nan" y2="-nan" gradientUnits="userSpaceOnUse">
<stop stop-color="#FFEED6"/>
<stop offset="0.65" stop-color="#DFC28D"/>
<stop offset="1" stop-color="#D0AD6A"/>
</linearGradient>
<linearGradient id="paint8_linear_385_19229" x1="146.759" y1="176.146" x2="146.759" y2="82.302" gradientUnits="userSpaceOnUse">
<stop stop-color="#CDA25F"/>
<stop offset="0.0146738" stop-color="#CEA462"/>
<stop offset="0.2168" stop-color="#D8BA81"/>
<stop offset="0.4135" stop-color="#DFCA97"/>
<stop offset="0.6008" stop-color="#E4D4A4"/>
<stop offset="0.7684" stop-color="#E5D7A9"/>
</linearGradient>
<linearGradient id="paint9_linear_385_19229" x1="148.5" y1="175.954" x2="148.5" y2="82.2004" gradientUnits="userSpaceOnUse">
<stop stop-color="#CDA25F"/>
<stop offset="0.0146738" stop-color="#CEA462"/>
<stop offset="0.2168" stop-color="#D8BA81"/>
<stop offset="0.4135" stop-color="#DFCA97"/>
<stop offset="0.6008" stop-color="#E4D4A4"/>
<stop offset="0.7684" stop-color="#E5D7A9"/>
</linearGradient>
<linearGradient id="paint10_linear_385_19229" x1="135.757" y1="176.212" x2="135.757" y2="82.3662" gradientUnits="userSpaceOnUse">
<stop stop-color="#CDA25F"/>
<stop offset="0.0146738" stop-color="#CEA462"/>
<stop offset="0.2168" stop-color="#D8BA81"/>
<stop offset="0.4135" stop-color="#DFCA97"/>
<stop offset="0.6008" stop-color="#E4D4A4"/>
<stop offset="0.7684" stop-color="#E5D7A9"/>
</linearGradient>
<linearGradient id="paint11_linear_385_19229" x1="137.89" y1="176.361" x2="137.89" y2="82.1773" gradientUnits="userSpaceOnUse">
<stop stop-color="#CDA25F"/>
<stop offset="0.0146738" stop-color="#CEA462"/>
<stop offset="0.2168" stop-color="#D8BA81"/>
<stop offset="0.4135" stop-color="#DFCA97"/>
<stop offset="0.6008" stop-color="#E4D4A4"/>
<stop offset="0.7684" stop-color="#E5D7A9"/>
</linearGradient>
<linearGradient id="paint12_linear_385_19229" x1="146.93" y1="176.146" x2="146.93" y2="82.2994" gradientUnits="userSpaceOnUse">
<stop stop-color="#CDA25F"/>
<stop offset="0.0146738" stop-color="#CEA462"/>
<stop offset="0.2168" stop-color="#D8BA81"/>
<stop offset="0.4135" stop-color="#DFCA97"/>
<stop offset="0.6008" stop-color="#E4D4A4"/>
<stop offset="0.7684" stop-color="#E5D7A9"/>
</linearGradient>
<linearGradient id="paint13_linear_385_19229" x1="146.901" y1="176.145" x2="146.901" y2="82.3017" gradientUnits="userSpaceOnUse">
<stop stop-color="#CDA25F"/>
<stop offset="0.0146738" stop-color="#CEA462"/>
<stop offset="0.2168" stop-color="#D8BA81"/>
<stop offset="0.4135" stop-color="#DFCA97"/>
<stop offset="0.6008" stop-color="#E4D4A4"/>
<stop offset="0.7684" stop-color="#E5D7A9"/>
</linearGradient>
<linearGradient id="paint14_linear_385_19229" x1="157.651" y1="176.084" x2="157.651" y2="82.2349" gradientUnits="userSpaceOnUse">
<stop stop-color="#CDA25F"/>
<stop offset="0.0146738" stop-color="#CEA462"/>
<stop offset="0.2168" stop-color="#D8BA81"/>
<stop offset="0.4135" stop-color="#DFCA97"/>
<stop offset="0.6008" stop-color="#E4D4A4"/>
<stop offset="0.7684" stop-color="#E5D7A9"/>
</linearGradient>
<linearGradient id="paint15_linear_385_19229" x1="155.588" y1="175.939" x2="155.588" y2="82.42" gradientUnits="userSpaceOnUse">
<stop stop-color="#CDA25F"/>
<stop offset="0.0146738" stop-color="#CEA462"/>
<stop offset="0.2168" stop-color="#D8BA81"/>
<stop offset="0.4135" stop-color="#DFCA97"/>
<stop offset="0.6008" stop-color="#E4D4A4"/>
<stop offset="0.7684" stop-color="#E5D7A9"/>
</linearGradient>
<linearGradient id="paint16_linear_385_19229" x1="139.797" y1="175.799" x2="139.797" y2="82.7171" gradientUnits="userSpaceOnUse">
<stop stop-color="#CDA25F"/>
<stop offset="0.0146738" stop-color="#CEA462"/>
<stop offset="0.2168" stop-color="#D8BA81"/>
<stop offset="0.4135" stop-color="#DFCA97"/>
<stop offset="0.6008" stop-color="#E4D4A4"/>
<stop offset="0.7684" stop-color="#E5D7A9"/>
</linearGradient>
<linearGradient id="paint17_linear_385_19229" x1="136.832" y1="176.221" x2="136.832" y2="82.3462" gradientUnits="userSpaceOnUse">
<stop stop-color="#CDA25F"/>
<stop offset="0.0146738" stop-color="#CEA462"/>
<stop offset="0.2168" stop-color="#D8BA81"/>
<stop offset="0.4135" stop-color="#DFCA97"/>
<stop offset="0.6008" stop-color="#E4D4A4"/>
<stop offset="0.7684" stop-color="#E5D7A9"/>
</linearGradient>
<linearGradient id="paint18_linear_385_19229" x1="156.546" y1="176.087" x2="156.546" y2="82.2455" gradientUnits="userSpaceOnUse">
<stop stop-color="#CDA25F"/>
<stop offset="0.0146738" stop-color="#CEA462"/>
<stop offset="0.2168" stop-color="#D8BA81"/>
<stop offset="0.4135" stop-color="#DFCA97"/>
<stop offset="0.6008" stop-color="#E4D4A4"/>
<stop offset="0.7684" stop-color="#E5D7A9"/>
</linearGradient>
<linearGradient id="paint19_linear_385_19229" x1="150.213" y1="176.121" x2="150.213" y2="82.2861" gradientUnits="userSpaceOnUse">
<stop stop-color="#CDA25F"/>
<stop offset="0.0146738" stop-color="#CEA462"/>
<stop offset="0.2168" stop-color="#D8BA81"/>
<stop offset="0.4135" stop-color="#DFCA97"/>
<stop offset="0.6008" stop-color="#E4D4A4"/>
<stop offset="0.7684" stop-color="#E5D7A9"/>
</linearGradient>
<linearGradient id="paint20_linear_385_19229" x1="153.523" y1="176.515" x2="153.523" y2="81.8621" gradientUnits="userSpaceOnUse">
<stop stop-color="#CDA25F"/>
<stop offset="0.0146738" stop-color="#CEA462"/>
<stop offset="0.2168" stop-color="#D8BA81"/>
<stop offset="0.4135" stop-color="#DFCA97"/>
<stop offset="0.6008" stop-color="#E4D4A4"/>
<stop offset="0.7684" stop-color="#E5D7A9"/>
</linearGradient>
<linearGradient id="paint21_linear_385_19229" x1="146.648" y1="175.327" x2="146.648" y2="83.1691" gradientUnits="userSpaceOnUse">
<stop stop-color="#CDA25F"/>
<stop offset="0.0146738" stop-color="#CEA462"/>
<stop offset="0.2168" stop-color="#D8BA81"/>
<stop offset="0.4135" stop-color="#DFCA97"/>
<stop offset="0.6008" stop-color="#E4D4A4"/>
<stop offset="0.7684" stop-color="#E5D7A9"/>
</linearGradient>
<linearGradient id="paint22_linear_385_19229" x1="143.089" y1="176.171" x2="143.089" y2="82.3204" gradientUnits="userSpaceOnUse">
<stop stop-color="#CDA25F"/>
<stop offset="0.0146738" stop-color="#CEA462"/>
<stop offset="0.2168" stop-color="#D8BA81"/>
<stop offset="0.4135" stop-color="#DFCA97"/>
<stop offset="0.6008" stop-color="#E4D4A4"/>
<stop offset="0.7684" stop-color="#E5D7A9"/>
</linearGradient>
<linearGradient id="paint23_linear_385_19229" x1="141.695" y1="176.107" x2="141.695" y2="82.3436" gradientUnits="userSpaceOnUse">
<stop stop-color="#CDA25F"/>
<stop offset="0.0146738" stop-color="#CEA462"/>
<stop offset="0.2168" stop-color="#D8BA81"/>
<stop offset="0.4135" stop-color="#DFCA97"/>
<stop offset="0.6008" stop-color="#E4D4A4"/>
<stop offset="0.7684" stop-color="#E5D7A9"/>
</linearGradient>
<linearGradient id="paint24_linear_385_19229" x1="141.103" y1="176.18" x2="141.103" y2="82.3347" gradientUnits="userSpaceOnUse">
<stop stop-color="#CDA25F"/>
<stop offset="0.0146738" stop-color="#CEA462"/>
<stop offset="0.2168" stop-color="#D8BA81"/>
<stop offset="0.4135" stop-color="#DFCA97"/>
<stop offset="0.6008" stop-color="#E4D4A4"/>
<stop offset="0.7684" stop-color="#E5D7A9"/>
</linearGradient>
<linearGradient id="paint25_linear_385_19229" x1="133.672" y1="175.861" x2="133.672" y2="82.4708" gradientUnits="userSpaceOnUse">
<stop stop-color="#CDA25F"/>
<stop offset="0.0146738" stop-color="#CEA462"/>
<stop offset="0.2168" stop-color="#D8BA81"/>
<stop offset="0.4135" stop-color="#DFCA97"/>
<stop offset="0.6008" stop-color="#E4D4A4"/>
<stop offset="0.7684" stop-color="#E5D7A9"/>
</linearGradient>
<linearGradient id="paint26_linear_385_19229" x1="131.11" y1="176.238" x2="131.11" y2="82.3945" gradientUnits="userSpaceOnUse">
<stop stop-color="#CDA25F"/>
<stop offset="0.0146738" stop-color="#CEA462"/>
<stop offset="0.2168" stop-color="#D8BA81"/>
<stop offset="0.4135" stop-color="#DFCA97"/>
<stop offset="0.6008" stop-color="#E4D4A4"/>
<stop offset="0.7684" stop-color="#E5D7A9"/>
</linearGradient>
<linearGradient id="paint27_linear_385_19229" x1="129.131" y1="175.051" x2="129.131" y2="82.8801" gradientUnits="userSpaceOnUse">
<stop stop-color="#CDA25F"/>
<stop offset="0.0146738" stop-color="#CEA462"/>
<stop offset="0.2168" stop-color="#D8BA81"/>
<stop offset="0.4135" stop-color="#DFCA97"/>
<stop offset="0.6008" stop-color="#E4D4A4"/>
<stop offset="0.7684" stop-color="#E5D7A9"/>
</linearGradient>
<linearGradient id="paint28_linear_385_19229" x1="145.938" y1="176.138" x2="145.938" y2="82.3093" gradientUnits="userSpaceOnUse">
<stop stop-color="#CDA25F"/>
<stop offset="0.0146738" stop-color="#CEA462"/>
<stop offset="0.2168" stop-color="#D8BA81"/>
<stop offset="0.4135" stop-color="#DFCA97"/>
<stop offset="0.6008" stop-color="#E4D4A4"/>
<stop offset="0.7684" stop-color="#E5D7A9"/>
</linearGradient>
<linearGradient id="paint29_linear_385_19229" x1="136.339" y1="176.563" x2="136.339" y2="82.2602" gradientUnits="userSpaceOnUse">
<stop stop-color="#CDA25F"/>
<stop offset="0.0146738" stop-color="#CEA462"/>
<stop offset="0.2168" stop-color="#D8BA81"/>
<stop offset="0.4135" stop-color="#DFCA97"/>
<stop offset="0.6008" stop-color="#E4D4A4"/>
<stop offset="0.7684" stop-color="#E5D7A9"/>
</linearGradient>
<linearGradient id="paint30_linear_385_19229" x1="142.44" y1="177.142" x2="142.44" y2="82.1039" gradientUnits="userSpaceOnUse">
<stop stop-color="#CDA25F"/>
<stop offset="0.0146738" stop-color="#CEA462"/>
<stop offset="0.2168" stop-color="#D8BA81"/>
<stop offset="0.4135" stop-color="#DFCA97"/>
<stop offset="0.6008" stop-color="#E4D4A4"/>
<stop offset="0.7684" stop-color="#E5D7A9"/>
</linearGradient>
<linearGradient id="paint31_linear_385_19229" x1="139.112" y1="176.199" x2="139.112" y2="82.3448" gradientUnits="userSpaceOnUse">
<stop stop-color="#CDA25F"/>
<stop offset="0.0146738" stop-color="#CEA462"/>
<stop offset="0.2168" stop-color="#D8BA81"/>
<stop offset="0.4135" stop-color="#DFCA97"/>
<stop offset="0.6008" stop-color="#E4D4A4"/>
<stop offset="0.7684" stop-color="#E5D7A9"/>
</linearGradient>
<linearGradient id="paint32_linear_385_19229" x1="131.953" y1="176.242" x2="131.953" y2="82.3856" gradientUnits="userSpaceOnUse">
<stop stop-color="#CDA25F"/>
<stop offset="0.0146738" stop-color="#CEA462"/>
<stop offset="0.2168" stop-color="#D8BA81"/>
<stop offset="0.4135" stop-color="#DFCA97"/>
<stop offset="0.6008" stop-color="#E4D4A4"/>
<stop offset="0.7684" stop-color="#E5D7A9"/>
</linearGradient>
<linearGradient id="paint33_linear_385_19229" x1="132.687" y1="176.334" x2="132.687" y2="82.3423" gradientUnits="userSpaceOnUse">
<stop stop-color="#CDA25F"/>
<stop offset="0.0146738" stop-color="#CEA462"/>
<stop offset="0.2168" stop-color="#D8BA81"/>
<stop offset="0.4135" stop-color="#DFCA97"/>
<stop offset="0.6008" stop-color="#E4D4A4"/>
<stop offset="0.7684" stop-color="#E5D7A9"/>
</linearGradient>
<linearGradient id="paint34_linear_385_19229" x1="134.061" y1="176.222" x2="134.061" y2="82.3768" gradientUnits="userSpaceOnUse">
<stop stop-color="#CDA25F"/>
<stop offset="0.0146738" stop-color="#CEA462"/>
<stop offset="0.2168" stop-color="#D8BA81"/>
<stop offset="0.4135" stop-color="#DFCA97"/>
<stop offset="0.6008" stop-color="#E4D4A4"/>
<stop offset="0.7684" stop-color="#E5D7A9"/>
</linearGradient>
<clipPath id="clip0_385_19229">
<rect width="297" height="370" fill="white"/>
</clipPath>
</defs>
</svg>
