<svg width="532" height="72" viewBox="0 0 532 72" fill="none" xmlns="http://www.w3.org/2000/svg">
<g clip-path="url(#clip0_2039_135252)">
<path d="M40.8739 49.4396C40.4078 46.8312 38.9826 45.4598 36.8314 45.5046C34.6801 45.5494 33.2997 46.9567 32.9322 49.4396C32.2062 49.4396 31.4622 49.4396 30.7272 49.4396C30.6286 49.4396 30.53 49.332 30.4493 49.2603C29.7197 48.5405 28.7359 48.1369 27.711 48.1369C26.686 48.1369 25.7022 48.5405 24.9726 49.2603C24.8416 49.3717 24.6781 49.4377 24.5065 49.4486C23.6101 49.4486 22.7676 49.4486 21.8891 49.4486C21.7012 49.4608 21.5128 49.4324 21.3368 49.3652C21.1609 49.298 21.0015 49.1936 20.8696 49.0591C20.7377 48.9247 20.6364 48.7633 20.5725 48.5861C20.5087 48.4089 20.4839 48.22 20.4998 48.0323V30.7327C20.4998 30.6341 20.4998 30.5355 20.4998 30.4189H53.2795C53.2795 30.5713 53.2795 30.7058 53.2795 30.8402C53.2795 36.5112 53.2795 42.1881 53.2795 47.871C53.2795 48.9556 52.7955 49.4396 51.7109 49.4396C50.9131 49.4396 50.1243 49.4396 49.3266 49.4396C49.1315 49.4275 48.9458 49.3519 48.7977 49.2245C48.0656 48.5164 47.0869 48.1205 46.0683 48.1205C45.0497 48.1205 44.0711 48.5164 43.3389 49.2245C43.1958 49.3402 43.0205 49.409 42.8369 49.4217C42.1916 49.4396 41.5283 49.4396 40.8739 49.4396ZM32.6454 40.9422C32.6454 41.3276 32.6454 41.6323 32.6454 41.9371C32.6101 42.1838 32.6413 42.4354 32.7359 42.6659C32.8305 42.8964 32.9849 43.0975 33.1832 43.2483C33.3816 43.3991 33.6166 43.4942 33.864 43.5237C34.1114 43.5532 34.3622 43.516 34.5905 43.4161C35.2627 43.183 35.935 42.9231 36.6162 42.699C36.8037 42.6452 37.0025 42.6452 37.1899 42.699C37.8711 42.9231 38.5434 43.183 39.2157 43.4161C39.4387 43.506 39.6813 43.5365 39.9196 43.5046C40.158 43.4727 40.384 43.3794 40.5755 43.234C40.767 43.0885 40.9175 42.8959 41.0122 42.6748C41.107 42.4538 41.1427 42.212 41.1159 41.973C41.1159 41.3186 41.0442 40.6732 41.0442 40.0189C41.0423 39.8219 41.1053 39.6297 41.2235 39.4721C41.5821 39.006 41.9764 38.5758 42.3529 38.1097C42.546 37.9119 42.6817 37.6654 42.7455 37.3965C42.8092 37.1275 42.7986 36.8463 42.7148 36.583C42.631 36.3196 42.4772 36.084 42.2697 35.9013C42.0623 35.7187 41.8091 35.5959 41.5372 35.5461C40.9456 35.3848 40.3451 35.2503 39.7445 35.071C39.5434 35.0076 39.3656 34.8859 39.2336 34.7214C38.8213 34.1836 38.4538 33.61 38.0594 33.0632C37.9353 32.8512 37.7579 32.6754 37.5448 32.5532C37.3318 32.431 37.0904 32.3667 36.8448 32.3667C36.5992 32.3667 36.3579 32.431 36.1448 32.5532C35.9317 32.6754 35.7543 32.8512 35.6303 33.0632C35.2359 33.6189 34.8684 34.1836 34.456 34.7304C34.338 34.8858 34.1754 35.0015 33.9899 35.0621C33.3356 35.2593 32.6723 35.4027 32.0269 35.5999C31.7889 35.6697 31.5718 35.7968 31.3944 35.9701C31.2171 36.1435 31.085 36.3577 31.0097 36.594C30.9345 36.8303 30.9184 37.0814 30.963 37.3254C31.0075 37.5693 31.1112 37.7986 31.265 37.9931C31.4325 38.2203 31.6152 38.4359 31.8118 38.6385C32.5289 39.3018 33.0487 40.0099 32.6454 40.9422Z" fill="url(#paint0_linear_2039_135252)"/>
<path d="M20.4995 29.0566C20.4995 28.5367 20.4995 28.0347 20.4995 27.5417C20.5456 27.2339 20.7038 26.9538 20.9436 26.7553C21.1835 26.5568 21.4881 26.4539 21.7992 26.4661C22.5163 26.4661 23.2334 26.4661 23.9505 26.4661H24.4076V25.2381C24.4076 24.772 24.6676 24.4941 25.062 24.4941C25.1555 24.4947 25.2479 24.5151 25.3331 24.5539C25.4182 24.5927 25.4942 24.6491 25.556 24.7194C25.6178 24.7896 25.664 24.8722 25.6917 24.9616C25.7193 25.051 25.7277 25.1452 25.7163 25.2381C25.7163 25.4263 25.7163 25.6235 25.7163 25.8118V26.4213H30.3594C30.3594 26.0179 30.3594 25.6235 30.3594 25.2292C30.3594 24.8348 30.5925 24.5121 30.9779 24.5031C31.0712 24.4975 31.1645 24.5121 31.2516 24.5461C31.3386 24.5801 31.4173 24.6325 31.482 24.6999C31.5468 24.7672 31.5962 24.8478 31.6268 24.9361C31.6573 25.0244 31.6684 25.1182 31.6591 25.2112C31.6591 25.6056 31.6591 26 31.6591 26.4213H36.2395V25.2829C36.2395 24.7899 36.4905 24.5121 36.9028 24.5121C37.3151 24.5121 37.5482 24.7899 37.5572 25.2829C37.5661 25.7759 37.5572 26.0269 37.5572 26.4303H42.1465V25.758C42.1465 24.8616 42.3078 24.5121 42.7919 24.5121C43.2759 24.5121 43.4552 24.8079 43.4552 25.7759V26.4392H48.0535V25.2829C48.0535 24.7989 48.3044 24.5121 48.7078 24.5031C49.1112 24.4941 49.3622 24.7899 49.3622 25.2829C49.3622 25.7759 49.3622 26.0269 49.3622 26.4392H49.7476H51.9347C52.1147 26.429 52.2949 26.4567 52.4637 26.5204C52.6324 26.5841 52.7859 26.6825 52.9142 26.8092C53.0426 26.9359 53.143 27.0881 53.209 27.2559C53.2749 27.4238 53.305 27.6036 53.2971 27.7838C53.2971 28.1961 53.2971 28.5994 53.2971 29.0297L20.4995 29.0566Z" fill="url(#paint1_linear_2039_135252)"/>
<path d="M32.3581 61.8808L32.3133 61.827C32.3133 60.339 32.2505 58.8511 32.367 57.3452C32.4979 56.2354 33.0315 55.2121 33.8667 54.4696C34.7019 53.7271 35.7806 53.3169 36.8981 53.3169C38.0157 53.3169 39.0943 53.7271 39.9295 54.4696C40.7647 55.2121 41.2984 56.2354 41.4292 57.3452C41.5457 58.8242 41.4292 60.3301 41.4292 61.827L32.3581 61.8808Z" fill="url(#paint2_linear_2039_135252)"/>
<path d="M23.1889 61.8812C23.0581 61.1246 23.0879 60.349 23.2763 59.6047C23.4647 58.8604 23.8075 58.164 24.2824 57.5607C24.6854 57.1036 25.1749 56.7308 25.7226 56.4638C26.2703 56.1968 26.8655 56.0409 27.4738 56.0051C28.0822 55.9692 28.6915 56.0542 29.2668 56.255C29.8421 56.4559 30.372 56.7687 30.8258 57.1753C30.9361 57.2731 31.0089 57.4062 31.032 57.5518C31.032 58.9501 31.032 60.3484 31.032 61.7377C31.0347 61.7855 31.0347 61.8334 31.032 61.8812H23.1889Z" fill="url(#paint3_linear_2039_135252)"/>
<path d="M50.7164 61.8903H42.8105V61.478C42.8105 60.1872 42.8105 58.8965 42.8105 57.6057C42.8187 57.459 42.8829 57.3211 42.9898 57.2203C43.5783 56.6488 44.3151 56.2535 45.1167 56.0792C45.9183 55.905 46.7527 55.9587 47.5254 56.2343C48.3058 56.463 49.0059 56.9074 49.545 57.5163C50.0841 58.1252 50.4405 58.8739 50.573 59.6763C50.6719 60.4101 50.7198 61.1499 50.7164 61.8903Z" fill="url(#paint4_linear_2039_135252)"/>
<path d="M36.8936 46.813C37.4138 46.8095 37.9233 46.9605 38.3576 47.2469C38.7918 47.5333 39.1312 47.9423 39.3328 48.4218C39.5343 48.9014 39.5889 49.43 39.4896 49.9407C39.3903 50.4513 39.1416 50.9209 38.775 51.29C38.4084 51.6591 37.9405 51.911 37.4305 52.0138C36.9206 52.1166 36.3916 52.0657 35.9107 51.8674C35.4297 51.6692 35.0185 51.3326 34.7291 50.9003C34.4397 50.468 34.2852 49.9596 34.2852 49.4394C34.2829 49.0953 34.3486 48.7542 34.4786 48.4357C34.6086 48.1171 34.8004 47.8275 35.0428 47.5834C35.2853 47.3392 35.5736 47.1455 35.8913 47.0133C36.2089 46.8811 36.5496 46.813 36.8936 46.813Z" fill="url(#paint5_linear_2039_135252)"/>
<path d="M27.6706 49.4395C28.1882 49.4395 28.6943 49.593 29.1247 49.8806C29.5551 50.1682 29.8906 50.5769 30.0887 51.0552C30.2868 51.5334 30.3386 52.0597 30.2376 52.5674C30.1367 53.0751 29.8874 53.5415 29.5213 53.9076C29.1553 54.2736 28.6889 54.5229 28.1812 54.6239C27.6735 54.7249 27.1472 54.673 26.669 54.4749C26.1907 54.2768 25.7819 53.9414 25.4943 53.5109C25.2067 53.0805 25.0532 52.5745 25.0532 52.0568C25.0556 51.3634 25.3321 50.699 25.8224 50.2087C26.3128 49.7183 26.9771 49.4418 27.6706 49.4395Z" fill="url(#paint6_linear_2039_135252)"/>
<path d="M46.0997 49.4395C46.6173 49.4431 47.1223 49.6 47.5507 49.8906C47.9792 50.1811 48.3118 50.5922 48.5067 51.0718C48.7015 51.5514 48.7497 52.078 48.6452 52.585C48.5407 53.092 48.2883 53.5567 47.9197 53.9202C47.5512 54.2837 47.0831 54.5298 46.5748 54.6273C46.0664 54.7248 45.5405 54.6694 45.0636 54.468C44.5867 54.2667 44.1802 53.9284 43.8956 53.496C43.6109 53.0637 43.4609 52.5566 43.4644 52.0389C43.4668 51.6952 43.5368 51.3553 43.6705 51.0387C43.8042 50.722 43.999 50.4348 44.2437 50.1934C44.4884 49.952 44.7782 49.7612 45.0967 49.6319C45.4152 49.5025 45.756 49.4372 46.0997 49.4395Z" fill="url(#paint7_linear_2039_135252)"/>
<path d="M39.7445 42.2058C38.9467 41.919 38.1311 41.6053 37.3064 41.3095C37.0429 41.2333 36.7632 41.2333 36.4997 41.3095C35.7916 41.5246 35.1014 41.7935 34.4022 42.0445L33.9451 42.2686C33.9451 41.5694 33.9451 40.9241 34.0526 40.2966C34.1071 39.9707 34.08 39.6363 33.9736 39.3235C33.8673 39.0106 33.685 38.729 33.4431 38.5039C33.0967 38.1453 32.7734 37.7651 32.4751 37.3655C32.2241 37.0518 32.2599 36.9532 32.6543 36.8456C33.3176 36.6664 33.9899 36.4781 34.6622 36.3168C34.8245 36.2827 34.9783 36.2158 35.1139 36.1203C35.2495 36.0247 35.3642 35.9025 35.451 35.761C35.9081 35.0709 36.3921 34.3986 36.9031 33.6636L37.3692 34.309C37.7277 34.8288 38.0773 35.3756 38.4717 35.8776C38.6101 36.0532 38.7971 36.1841 39.0095 36.254C39.6997 36.4692 40.3988 36.6305 41.089 36.8098C41.5731 36.9442 41.6089 37.0428 41.2952 37.4193C40.9815 37.7958 40.4616 38.4322 40.0313 38.9162C39.9285 39.0296 39.85 39.1629 39.8007 39.3078C39.7513 39.4527 39.7322 39.6062 39.7445 39.7588C39.7624 40.5386 39.7445 41.3722 39.7445 42.2058Z" fill="url(#paint8_linear_2039_135252)"/>
<path d="M36.9032 10C35.7686 10 34.6594 10.3364 33.7161 10.9668C32.7727 11.5972 32.0374 12.4931 31.6032 13.5413C31.169 14.5896 31.0554 15.743 31.2767 16.8558C31.4981 17.9686 32.0445 18.9908 32.8467 19.7931C33.649 20.5954 34.6712 21.1418 35.784 21.3631C36.8968 21.5845 38.0503 21.4709 39.0985 21.0367C40.1467 20.6025 41.0427 19.8672 41.673 18.9238C42.3034 17.9804 42.6399 16.8713 42.6399 15.7367C42.6399 14.2152 42.0355 12.7561 40.9596 11.6802C39.8838 10.6044 38.4246 10 36.9032 10V10ZM36.5805 14.6342L37.9071 15.3154C38.2889 15.5087 38.5985 15.8194 38.7905 16.2018C38.9825 16.5842 39.0468 17.0181 38.9738 17.4397C38.932 17.7717 38.8042 18.0871 38.6029 18.3544C38.4017 18.6217 38.134 18.8317 37.8264 18.9636V19.1428C37.8384 19.2565 37.8263 19.3715 37.791 19.4802C37.7557 19.5889 37.6979 19.689 37.6214 19.774C37.5449 19.8589 37.4515 19.9269 37.347 19.9734C37.2426 20.0199 37.1295 20.0439 37.0152 20.0439C36.9009 20.0439 36.7879 20.0199 36.6834 19.9734C36.579 19.9269 36.4855 19.8589 36.409 19.774C36.3325 19.689 36.2747 19.5889 36.2394 19.4802C36.2041 19.3715 36.1921 19.2565 36.204 19.1428V18.9636C35.8849 18.8599 35.5909 18.6907 35.3408 18.4669C35.0908 18.2431 34.8902 17.9696 34.7519 17.6638C34.7096 17.5661 34.6868 17.461 34.6851 17.3546C34.6833 17.2481 34.7025 17.1423 34.7417 17.0433C34.7808 16.9442 34.839 16.8538 34.9131 16.7773C34.9871 16.7008 35.0755 16.6396 35.1732 16.5972C35.2709 16.5548 35.376 16.5321 35.4825 16.5303C35.589 16.5286 35.6947 16.5478 35.7938 16.5869C35.8928 16.626 35.9832 16.6843 36.0598 16.7583C36.1363 16.8324 36.1975 16.9208 36.2399 17.0185C36.3065 17.1686 36.4183 17.2942 36.5597 17.3778C36.7011 17.4613 36.865 17.4987 37.0287 17.4846C37.2886 17.4846 37.3514 17.3053 37.3693 17.1888C37.3845 17.1057 37.3727 17.02 37.3356 16.9441C37.2985 16.8683 37.2381 16.8064 37.1631 16.7675L35.8365 16.0863C35.4492 15.8855 35.137 15.5651 34.9464 15.1726C34.7558 14.7801 34.6971 14.3367 34.7788 13.9081C34.8429 13.5393 35.0112 13.1965 35.2637 12.9202C35.5162 12.6439 35.8425 12.4455 36.204 12.3485V12.2319C36.1921 12.1182 36.2041 12.0033 36.2394 11.8946C36.2747 11.7858 36.3325 11.6857 36.409 11.6008C36.4855 11.5158 36.579 11.4479 36.6834 11.4014C36.7879 11.3549 36.9009 11.3309 37.0152 11.3309C37.1295 11.3309 37.2426 11.3549 37.347 11.4014C37.4515 11.4479 37.5449 11.5158 37.6214 11.6008C37.6979 11.6857 37.7557 11.7858 37.791 11.8946C37.8263 12.0033 37.8384 12.1182 37.8264 12.2319V12.5277C38.3458 12.7761 38.7591 13.2022 38.9917 13.7288C39.0611 13.8272 39.1079 13.9398 39.1287 14.0584C39.1495 14.177 39.1438 14.2987 39.112 14.4149C39.0801 14.531 39.023 14.6386 38.9446 14.7301C38.8662 14.8215 38.7686 14.8944 38.6587 14.9437C38.5488 14.9929 38.4294 15.0172 38.309 15.0147C38.1886 15.0123 38.0702 14.9833 37.9624 14.9297C37.8545 14.8761 37.7599 14.7993 37.6852 14.7048C37.6106 14.6103 37.5578 14.5005 37.5306 14.3832C37.4666 14.2305 37.3556 14.1022 37.2138 14.0168C37.072 13.9314 36.9067 13.8933 36.7418 13.9081C36.6611 13.9137 36.5848 13.9471 36.5259 14.0027C36.4671 14.0583 36.4293 14.1326 36.4191 14.2129C36.3937 14.2909 36.3959 14.3754 36.4253 14.4521C36.4546 14.5287 36.5094 14.593 36.5805 14.6342Z" fill="url(#paint9_linear_2039_135252)"/>
</g>
<rect x="1" y="0.5" width="71" height="71" rx="15.5" stroke="url(#paint10_linear_2039_135252)"/>
<path d="M98.1 0.351999H105.828V2.144H99.972V5.248H105.188V7.056H99.972V10.208H106.052V12H98.1V0.351999ZM111.159 12.176L107.271 5.232H109.399L111.847 10.32L110.743 10.272L112.951 5.232H114.951L111.239 12.176H111.159ZM119.464 12.176C118.664 12.176 117.981 12.0213 117.416 11.712C116.851 11.4027 116.419 10.976 116.12 10.432C115.821 9.87733 115.672 9.25333 115.672 8.56C115.672 7.87733 115.843 7.264 116.184 6.72C116.525 6.176 116.984 5.744 117.56 5.424C118.147 5.09333 118.792 4.928 119.496 4.928C120.424 4.928 121.187 5.2 121.784 5.744C122.392 6.27733 122.797 7.03467 123 8.016L117.544 9.856L117.128 8.848L121.384 7.328L121.016 7.536C120.899 7.216 120.707 6.93867 120.44 6.704C120.184 6.46933 119.821 6.352 119.352 6.352C118.979 6.352 118.648 6.44267 118.36 6.624C118.072 6.79467 117.843 7.04 117.672 7.36C117.512 7.66933 117.432 8.03733 117.432 8.464C117.432 8.90133 117.523 9.28533 117.704 9.616C117.885 9.94667 118.131 10.2027 118.44 10.384C118.749 10.5547 119.101 10.64 119.496 10.64C119.773 10.64 120.04 10.592 120.296 10.496C120.552 10.4 120.792 10.272 121.016 10.112L121.832 11.44C121.48 11.664 121.091 11.8453 120.664 11.984C120.248 12.112 119.848 12.176 119.464 12.176ZM126.379 5.232L126.539 6.688L126.475 6.496C126.71 6.02667 127.057 5.65333 127.515 5.376C127.985 5.088 128.539 4.944 129.179 4.944C129.819 4.944 130.347 5.13067 130.763 5.504C131.179 5.87733 131.393 6.368 131.403 6.976V12H129.611V7.616C129.601 7.27467 129.505 7.00267 129.323 6.8C129.142 6.58667 128.854 6.47467 128.459 6.464C128.097 6.464 127.771 6.576 127.483 6.8C127.195 7.01333 126.966 7.312 126.795 7.696C126.635 8.06933 126.555 8.50133 126.555 8.992V12H124.763V5.232H126.379ZM134.513 2.256H136.321V5.232H138.081V6.64H136.321V12H134.513V6.64H133.361V5.232H134.513V2.256ZM145.334 0.351999H152.406V2.144H147.206V5.424H151.734V7.216H147.206V12H145.334V0.351999ZM156.902 12.176C156.102 12.176 155.419 12.0213 154.854 11.712C154.288 11.4027 153.856 10.976 153.558 10.432C153.259 9.87733 153.11 9.25333 153.11 8.56C153.11 7.87733 153.28 7.264 153.622 6.72C153.963 6.176 154.422 5.744 154.998 5.424C155.584 5.09333 156.23 4.928 156.934 4.928C157.862 4.928 158.624 5.2 159.222 5.744C159.83 6.27733 160.235 7.03467 160.438 8.016L154.982 9.856L154.566 8.848L158.822 7.328L158.454 7.536C158.336 7.216 158.144 6.93867 157.878 6.704C157.622 6.46933 157.259 6.352 156.79 6.352C156.416 6.352 156.086 6.44267 155.798 6.624C155.51 6.79467 155.28 7.04 155.11 7.36C154.95 7.66933 154.87 8.03733 154.87 8.464C154.87 8.90133 154.96 9.28533 155.142 9.616C155.323 9.94667 155.568 10.2027 155.878 10.384C156.187 10.5547 156.539 10.64 156.934 10.64C157.211 10.64 157.478 10.592 157.734 10.496C157.99 10.4 158.23 10.272 158.454 10.112L159.27 11.44C158.918 11.664 158.528 11.8453 158.102 11.984C157.686 12.112 157.286 12.176 156.902 12.176ZM165.433 12.176C164.633 12.176 163.95 12.0213 163.385 11.712C162.819 11.4027 162.387 10.976 162.089 10.432C161.79 9.87733 161.641 9.25333 161.641 8.56C161.641 7.87733 161.811 7.264 162.153 6.72C162.494 6.176 162.953 5.744 163.529 5.424C164.115 5.09333 164.761 4.928 165.465 4.928C166.393 4.928 167.155 5.2 167.753 5.744C168.361 6.27733 168.766 7.03467 168.969 8.016L163.513 9.856L163.097 8.848L167.353 7.328L166.985 7.536C166.867 7.216 166.675 6.93867 166.409 6.704C166.153 6.46933 165.79 6.352 165.321 6.352C164.947 6.352 164.617 6.44267 164.329 6.624C164.041 6.79467 163.811 7.04 163.641 7.36C163.481 7.66933 163.401 8.03733 163.401 8.464C163.401 8.90133 163.491 9.28533 163.673 9.616C163.854 9.94667 164.099 10.2027 164.409 10.384C164.718 10.5547 165.07 10.64 165.465 10.64C165.742 10.64 166.009 10.592 166.265 10.496C166.521 10.4 166.761 10.272 166.985 10.112L167.801 11.44C167.449 11.664 167.059 11.8453 166.633 11.984C166.217 12.112 165.817 12.176 165.433 12.176Z" fill="url(#paint11_linear_2039_135252)"/>
<path d="M99.556 31.904C99.556 32.4267 99.6787 32.896 99.924 33.312C100.18 33.7173 100.516 34.0373 100.932 34.272C101.348 34.5067 101.817 34.624 102.34 34.624C102.884 34.624 103.369 34.5067 103.796 34.272C104.223 34.0373 104.559 33.7173 104.804 33.312C105.049 32.896 105.172 32.4267 105.172 31.904V24.432H106.692V31.952C106.692 32.7947 106.495 33.5307 106.1 34.16C105.716 34.7893 105.193 35.2747 104.532 35.616C103.881 35.9573 103.151 36.128 102.34 36.128C101.529 36.128 100.799 35.9573 100.148 35.616C99.4973 35.2747 98.98 34.7893 98.596 34.16C98.212 33.5307 98.02 32.7947 98.02 31.952V24.432H99.556V31.904ZM111.355 36.128C110.886 36.128 110.427 36.048 109.979 35.888C109.542 35.7173 109.179 35.4667 108.891 35.136L109.515 34.272C109.792 34.5387 110.075 34.7413 110.363 34.88C110.662 35.008 110.955 35.072 111.243 35.072C111.456 35.072 111.654 35.0453 111.835 34.992C112.016 34.9387 112.16 34.8533 112.267 34.736C112.384 34.608 112.443 34.4373 112.443 34.224C112.443 33.9893 112.363 33.8027 112.203 33.664C112.054 33.5253 111.856 33.4133 111.611 33.328C111.376 33.2427 111.126 33.1627 110.859 33.088C110.315 32.9067 109.899 32.656 109.611 32.336C109.323 32.016 109.179 31.6267 109.179 31.168C109.179 30.816 109.264 30.4907 109.435 30.192C109.616 29.8827 109.878 29.632 110.219 29.44C110.571 29.248 111.003 29.152 111.515 29.152C111.974 29.152 112.384 29.2107 112.747 29.328C113.11 29.4347 113.451 29.616 113.771 29.872L113.179 30.8C112.987 30.5973 112.758 30.448 112.491 30.352C112.224 30.256 111.984 30.2027 111.771 30.192C111.59 30.1813 111.414 30.208 111.243 30.272C111.083 30.336 110.95 30.4267 110.843 30.544C110.736 30.6613 110.683 30.8 110.683 30.96C110.683 31.184 110.758 31.3653 110.907 31.504C111.056 31.6427 111.248 31.7547 111.483 31.84C111.728 31.9147 111.968 31.9947 112.203 32.08C112.534 32.176 112.827 32.304 113.083 32.464C113.339 32.624 113.542 32.8213 113.691 33.056C113.851 33.2907 113.931 33.584 113.931 33.936C113.931 34.3307 113.835 34.6987 113.643 35.04C113.462 35.3707 113.179 35.6373 112.795 35.84C112.422 36.032 111.942 36.128 111.355 36.128ZM119.087 36.16C118.329 36.16 117.679 36.0107 117.135 35.712C116.591 35.4027 116.169 34.9867 115.871 34.464C115.583 33.9307 115.439 33.3227 115.439 32.64C115.439 31.9893 115.604 31.3973 115.935 30.864C116.265 30.3307 116.708 29.904 117.263 29.584C117.817 29.264 118.436 29.104 119.119 29.104C119.993 29.104 120.719 29.36 121.295 29.872C121.871 30.384 122.26 31.088 122.463 31.984L117.007 33.904L116.655 33.024L121.135 31.392L120.815 31.6C120.687 31.248 120.473 30.944 120.175 30.688C119.876 30.4213 119.487 30.288 119.007 30.288C118.601 30.288 118.239 30.3893 117.919 30.592C117.599 30.784 117.348 31.0507 117.167 31.392C116.985 31.7333 116.895 32.1227 116.895 32.56C116.895 33.0187 116.991 33.424 117.183 33.776C117.375 34.1173 117.636 34.3893 117.967 34.592C118.308 34.784 118.692 34.88 119.119 34.88C119.407 34.88 119.684 34.8267 119.951 34.72C120.228 34.6133 120.484 34.4747 120.719 34.304L121.407 35.408C121.076 35.632 120.703 35.8133 120.287 35.952C119.881 36.0907 119.481 36.16 119.087 36.16ZM127.015 36.16C126.407 36.16 125.853 36.016 125.351 35.728C124.861 35.4293 124.471 35.0133 124.183 34.48C123.895 33.936 123.751 33.312 123.751 32.608C123.751 31.872 123.901 31.2427 124.199 30.72C124.509 30.1973 124.925 29.7973 125.447 29.52C125.97 29.2427 126.557 29.104 127.207 29.104C127.73 29.104 128.226 29.216 128.695 29.44C129.175 29.664 129.549 29.9733 129.815 30.368L129.751 30.896V23.616H131.223V36H129.735V34.352L129.895 34.768C129.586 35.1733 129.186 35.5093 128.695 35.776C128.205 36.032 127.645 36.16 127.015 36.16ZM127.479 34.896C127.874 34.896 128.226 34.8267 128.535 34.688C128.845 34.5387 129.101 34.336 129.303 34.08C129.506 33.824 129.65 33.52 129.735 33.168V31.92C129.65 31.6 129.495 31.3227 129.271 31.088C129.058 30.8427 128.797 30.6507 128.487 30.512C128.189 30.3627 127.853 30.288 127.479 30.288C127.074 30.288 126.701 30.3893 126.359 30.592C126.029 30.784 125.762 31.0507 125.559 31.392C125.357 31.7333 125.255 32.128 125.255 32.576C125.255 33.0133 125.357 33.408 125.559 33.76C125.762 34.1013 126.034 34.3787 126.375 34.592C126.717 34.7947 127.085 34.896 127.479 34.896ZM139.242 24.432H146.762V25.92H140.794V29.44H146.122V30.928H140.794V34.512H146.986V36H139.242V24.432ZM152 36.192L148.32 29.376H150.08L152.576 34.64L151.664 34.608L153.952 29.376H155.616L152.08 36.192H152ZM160.134 36.16C159.376 36.16 158.726 36.0107 158.182 35.712C157.638 35.4027 157.216 34.9867 156.918 34.464C156.63 33.9307 156.486 33.3227 156.486 32.64C156.486 31.9893 156.651 31.3973 156.982 30.864C157.312 30.3307 157.755 29.904 158.31 29.584C158.864 29.264 159.483 29.104 160.166 29.104C161.04 29.104 161.766 29.36 162.342 29.872C162.918 30.384 163.307 31.088 163.51 31.984L158.054 33.904L157.702 33.024L162.182 31.392L161.862 31.6C161.734 31.248 161.52 30.944 161.222 30.688C160.923 30.4213 160.534 30.288 160.054 30.288C159.648 30.288 159.286 30.3893 158.966 30.592C158.646 30.784 158.395 31.0507 158.214 31.392C158.032 31.7333 157.942 32.1227 157.942 32.56C157.942 33.0187 158.038 33.424 158.23 33.776C158.422 34.1173 158.683 34.3893 159.014 34.592C159.355 34.784 159.739 34.88 160.166 34.88C160.454 34.88 160.731 34.8267 160.998 34.72C161.275 34.6133 161.531 34.4747 161.766 34.304L162.454 35.408C162.123 35.632 161.75 35.8133 161.334 35.952C160.928 36.0907 160.528 36.16 160.134 36.16ZM166.702 29.376L166.846 31.296L166.766 31.04C166.937 30.6347 167.182 30.2933 167.502 30.016C167.833 29.728 168.174 29.5093 168.526 29.36C168.889 29.2 169.203 29.12 169.47 29.12L169.39 30.592C168.889 30.56 168.446 30.656 168.062 30.88C167.689 31.104 167.39 31.4027 167.166 31.776C166.953 32.1493 166.846 32.5493 166.846 32.976V36H165.374V29.376H166.702ZM173.246 36.128C172.776 36.128 172.318 36.048 171.87 35.888C171.432 35.7173 171.07 35.4667 170.782 35.136L171.406 34.272C171.683 34.5387 171.966 34.7413 172.254 34.88C172.552 35.008 172.846 35.072 173.134 35.072C173.347 35.072 173.544 35.0453 173.726 34.992C173.907 34.9387 174.051 34.8533 174.158 34.736C174.275 34.608 174.334 34.4373 174.334 34.224C174.334 33.9893 174.254 33.8027 174.094 33.664C173.944 33.5253 173.747 33.4133 173.502 33.328C173.267 33.2427 173.016 33.1627 172.75 33.088C172.206 32.9067 171.79 32.656 171.502 32.336C171.214 32.016 171.07 31.6267 171.07 31.168C171.07 30.816 171.155 30.4907 171.326 30.192C171.507 29.8827 171.768 29.632 172.11 29.44C172.462 29.248 172.894 29.152 173.406 29.152C173.864 29.152 174.275 29.2107 174.638 29.328C175 29.4347 175.342 29.616 175.662 29.872L175.07 30.8C174.878 30.5973 174.648 30.448 174.382 30.352C174.115 30.256 173.875 30.2027 173.662 30.192C173.48 30.1813 173.304 30.208 173.134 30.272C172.974 30.336 172.84 30.4267 172.734 30.544C172.627 30.6613 172.574 30.8 172.574 30.96C172.574 31.184 172.648 31.3653 172.798 31.504C172.947 31.6427 173.139 31.7547 173.374 31.84C173.619 31.9147 173.859 31.9947 174.094 32.08C174.424 32.176 174.718 32.304 174.974 32.464C175.23 32.624 175.432 32.8213 175.582 33.056C175.742 33.2907 175.822 33.584 175.822 33.936C175.822 34.3307 175.726 34.6987 175.534 35.04C175.352 35.3707 175.07 35.6373 174.686 35.84C174.312 36.032 173.832 36.128 173.246 36.128ZM178.545 26.464H180.033V29.408H181.857V30.576H180.033V36H178.545V30.576H177.329V29.408H178.545V26.464ZM183.079 32.624C183.079 31.9627 183.234 31.3653 183.543 30.832C183.863 30.2987 184.301 29.8773 184.855 29.568C185.41 29.2587 186.039 29.104 186.743 29.104C187.469 29.104 188.103 29.2587 188.647 29.568C189.191 29.8773 189.613 30.2987 189.911 30.832C190.21 31.3653 190.359 31.9627 190.359 32.624C190.359 33.2853 190.21 33.888 189.911 34.432C189.613 34.9653 189.186 35.3867 188.631 35.696C188.087 36.0053 187.453 36.16 186.727 36.16C186.023 36.16 185.394 36.016 184.839 35.728C184.295 35.4293 183.863 35.0187 183.543 34.496C183.234 33.9627 183.079 33.3387 183.079 32.624ZM184.567 32.64C184.567 33.0667 184.663 33.456 184.855 33.808C185.047 34.1493 185.303 34.4213 185.623 34.624C185.954 34.8267 186.317 34.928 186.711 34.928C187.127 34.928 187.495 34.8267 187.815 34.624C188.146 34.4213 188.402 34.1493 188.583 33.808C188.765 33.456 188.855 33.0667 188.855 32.64C188.855 32.2133 188.765 31.8293 188.583 31.488C188.402 31.136 188.146 30.8587 187.815 30.656C187.495 30.4427 187.127 30.336 186.711 30.336C186.306 30.336 185.938 30.4427 185.607 30.656C185.287 30.8693 185.031 31.152 184.839 31.504C184.658 31.8453 184.567 32.224 184.567 32.64ZM193.702 29.376L193.83 30.992L193.766 30.736C193.979 30.2453 194.326 29.856 194.806 29.568C195.286 29.2693 195.841 29.12 196.47 29.12C197.099 29.12 197.611 29.3067 198.006 29.68C198.411 30.0427 198.619 30.5173 198.63 31.104V36H197.126V31.632C197.115 31.2693 197.009 30.976 196.806 30.752C196.614 30.5173 196.31 30.4 195.894 30.4C195.51 30.4 195.163 30.5067 194.854 30.72C194.545 30.9333 194.299 31.2267 194.118 31.6C193.947 31.9733 193.862 32.4053 193.862 32.896V36H192.374V29.376H193.702ZM204.29 36.16C203.533 36.16 202.882 36.0107 202.338 35.712C201.794 35.4027 201.373 34.9867 201.074 34.464C200.786 33.9307 200.642 33.3227 200.642 32.64C200.642 31.9893 200.807 31.3973 201.138 30.864C201.469 30.3307 201.911 29.904 202.466 29.584C203.021 29.264 203.639 29.104 204.322 29.104C205.197 29.104 205.922 29.36 206.498 29.872C207.074 30.384 207.463 31.088 207.666 31.984L202.21 33.904L201.858 33.024L206.338 31.392L206.018 31.6C205.89 31.248 205.677 30.944 205.378 30.688C205.079 30.4213 204.69 30.288 204.21 30.288C203.805 30.288 203.442 30.3893 203.122 30.592C202.802 30.784 202.551 31.0507 202.37 31.392C202.189 31.7333 202.098 32.1227 202.098 32.56C202.098 33.0187 202.194 33.424 202.386 33.776C202.578 34.1173 202.839 34.3893 203.17 34.592C203.511 34.784 203.895 34.88 204.322 34.88C204.61 34.88 204.887 34.8267 205.154 34.72C205.431 34.6133 205.687 34.4747 205.922 34.304L206.61 35.408C206.279 35.632 205.906 35.8133 205.49 35.952C205.085 36.0907 204.685 36.16 204.29 36.16ZM217.345 36.16C216.726 36.16 216.161 36.0267 215.649 35.76C215.148 35.4933 214.748 35.104 214.449 34.592C214.161 34.0693 214.017 33.4347 214.017 32.688C214.017 31.952 214.172 31.3173 214.481 30.784C214.79 30.24 215.201 29.824 215.713 29.536C216.236 29.248 216.806 29.104 217.425 29.104C218.044 29.104 218.566 29.248 218.993 29.536C219.42 29.8133 219.745 30.144 219.969 30.528L219.873 30.784L220.017 29.376H221.393V36H219.905V34.272L220.065 34.656C220.022 34.7627 219.926 34.9013 219.777 35.072C219.638 35.232 219.446 35.3973 219.201 35.568C218.966 35.7387 218.694 35.8827 218.385 36C218.076 36.1067 217.729 36.16 217.345 36.16ZM217.745 34.928C218.118 34.928 218.454 34.8587 218.753 34.72C219.052 34.5813 219.297 34.3893 219.489 34.144C219.692 33.888 219.83 33.584 219.905 33.232V31.936C219.82 31.616 219.67 31.3387 219.457 31.104C219.244 30.8587 218.988 30.672 218.689 30.544C218.39 30.4053 218.06 30.336 217.697 30.336C217.302 30.336 216.94 30.432 216.609 30.624C216.278 30.816 216.012 31.0827 215.809 31.424C215.617 31.7653 215.521 32.1653 215.521 32.624C215.521 33.0507 215.622 33.44 215.825 33.792C216.028 34.144 216.3 34.4213 216.641 34.624C216.982 34.8267 217.35 34.928 217.745 34.928ZM225.824 36.128C225.355 36.128 224.896 36.048 224.448 35.888C224.011 35.7173 223.648 35.4667 223.36 35.136L223.984 34.272C224.261 34.5387 224.544 34.7413 224.832 34.88C225.131 35.008 225.424 35.072 225.712 35.072C225.925 35.072 226.123 35.0453 226.304 34.992C226.485 34.9387 226.629 34.8533 226.736 34.736C226.853 34.608 226.912 34.4373 226.912 34.224C226.912 33.9893 226.832 33.8027 226.672 33.664C226.523 33.5253 226.325 33.4133 226.08 33.328C225.845 33.2427 225.595 33.1627 225.328 33.088C224.784 32.9067 224.368 32.656 224.08 32.336C223.792 32.016 223.648 31.6267 223.648 31.168C223.648 30.816 223.733 30.4907 223.904 30.192C224.085 29.8827 224.347 29.632 224.688 29.44C225.04 29.248 225.472 29.152 225.984 29.152C226.443 29.152 226.853 29.2107 227.216 29.328C227.579 29.4347 227.92 29.616 228.24 29.872L227.648 30.8C227.456 30.5973 227.227 30.448 226.96 30.352C226.693 30.256 226.453 30.2027 226.24 30.192C226.059 30.1813 225.883 30.208 225.712 30.272C225.552 30.336 225.419 30.4267 225.312 30.544C225.205 30.6613 225.152 30.8 225.152 30.96C225.152 31.184 225.227 31.3653 225.376 31.504C225.525 31.6427 225.717 31.7547 225.952 31.84C226.197 31.9147 226.437 31.9947 226.672 32.08C227.003 32.176 227.296 32.304 227.552 32.464C227.808 32.624 228.011 32.8213 228.16 33.056C228.32 33.2907 228.4 33.584 228.4 33.936C228.4 34.3307 228.304 34.6987 228.112 35.04C227.931 35.3707 227.648 35.6373 227.264 35.84C226.891 36.032 226.411 36.128 225.824 36.128ZM238.298 36.16C237.679 36.16 237.114 36.0267 236.602 35.76C236.101 35.4933 235.701 35.104 235.402 34.592C235.114 34.0693 234.97 33.4347 234.97 32.688C234.97 31.952 235.125 31.3173 235.434 30.784C235.743 30.24 236.154 29.824 236.666 29.536C237.189 29.248 237.759 29.104 238.378 29.104C238.997 29.104 239.519 29.248 239.946 29.536C240.373 29.8133 240.698 30.144 240.922 30.528L240.826 30.784L240.97 29.376H242.346V36H240.858V34.272L241.018 34.656C240.975 34.7627 240.879 34.9013 240.73 35.072C240.591 35.232 240.399 35.3973 240.154 35.568C239.919 35.7387 239.647 35.8827 239.338 36C239.029 36.1067 238.682 36.16 238.298 36.16ZM238.698 34.928C239.071 34.928 239.407 34.8587 239.706 34.72C240.005 34.5813 240.25 34.3893 240.442 34.144C240.645 33.888 240.783 33.584 240.858 33.232V31.936C240.773 31.616 240.623 31.3387 240.41 31.104C240.197 30.8587 239.941 30.672 239.642 30.544C239.343 30.4053 239.013 30.336 238.65 30.336C238.255 30.336 237.893 30.432 237.562 30.624C237.231 30.816 236.965 31.0827 236.762 31.424C236.57 31.7653 236.474 32.1653 236.474 32.624C236.474 33.0507 236.575 33.44 236.778 33.792C236.981 34.144 237.253 34.4213 237.594 34.624C237.935 34.8267 238.303 34.928 238.698 34.928ZM250.528 36V30.704H249.392V29.376H250.528V26.576C250.528 25.616 250.741 24.88 251.168 24.368C251.605 23.856 252.245 23.6 253.088 23.6C253.312 23.6 253.557 23.632 253.824 23.696C254.101 23.76 254.341 23.8667 254.544 24.016L253.92 25.088C253.824 24.992 253.717 24.928 253.6 24.896C253.482 24.8533 253.365 24.832 253.248 24.832C252.853 24.832 252.549 24.9653 252.336 25.232C252.122 25.4987 252.016 25.952 252.016 26.592V29.376H254.112V30.704H252.016V36H250.528ZM258.759 36.16C258.001 36.16 257.351 36.0107 256.807 35.712C256.263 35.4027 255.841 34.9867 255.543 34.464C255.255 33.9307 255.111 33.3227 255.111 32.64C255.111 31.9893 255.276 31.3973 255.607 30.864C255.937 30.3307 256.38 29.904 256.935 29.584C257.489 29.264 258.108 29.104 258.791 29.104C259.665 29.104 260.391 29.36 260.967 29.872C261.543 30.384 261.932 31.088 262.135 31.984L256.679 33.904L256.327 33.024L260.807 31.392L260.487 31.6C260.359 31.248 260.145 30.944 259.847 30.688C259.548 30.4213 259.159 30.288 258.679 30.288C258.273 30.288 257.911 30.3893 257.591 30.592C257.271 30.784 257.02 31.0507 256.839 31.392C256.657 31.7333 256.567 32.1227 256.567 32.56C256.567 33.0187 256.663 33.424 256.855 33.776C257.047 34.1173 257.308 34.3893 257.639 34.592C257.98 34.784 258.364 34.88 258.791 34.88C259.079 34.88 259.356 34.8267 259.623 34.72C259.9 34.6133 260.156 34.4747 260.391 34.304L261.079 35.408C260.748 35.632 260.375 35.8133 259.959 35.952C259.553 36.0907 259.153 36.16 258.759 36.16ZM267.071 36.16C266.314 36.16 265.663 36.0107 265.119 35.712C264.575 35.4027 264.154 34.9867 263.855 34.464C263.567 33.9307 263.423 33.3227 263.423 32.64C263.423 31.9893 263.588 31.3973 263.919 30.864C264.25 30.3307 264.692 29.904 265.247 29.584C265.802 29.264 266.42 29.104 267.103 29.104C267.978 29.104 268.703 29.36 269.279 29.872C269.855 30.384 270.244 31.088 270.447 31.984L264.991 33.904L264.639 33.024L269.119 31.392L268.799 31.6C268.671 31.248 268.458 30.944 268.159 30.688C267.86 30.4213 267.471 30.288 266.991 30.288C266.586 30.288 266.223 30.3893 265.903 30.592C265.583 30.784 265.332 31.0507 265.151 31.392C264.97 31.7333 264.879 32.1227 264.879 32.56C264.879 33.0187 264.975 33.424 265.167 33.776C265.359 34.1173 265.62 34.3893 265.951 34.592C266.292 34.784 266.676 34.88 267.103 34.88C267.391 34.88 267.668 34.8267 267.935 34.72C268.212 34.6133 268.468 34.4747 268.703 34.304L269.391 35.408C269.06 35.632 268.687 35.8133 268.271 35.952C267.866 36.0907 267.466 36.16 267.071 36.16ZM278.014 26.464H279.502V29.408H281.326V30.576H279.502V36H278.014V30.576H276.798V29.408H278.014V26.464ZM282.548 32.624C282.548 31.9627 282.703 31.3653 283.012 30.832C283.332 30.2987 283.769 29.8773 284.324 29.568C284.879 29.2587 285.508 29.104 286.212 29.104C286.937 29.104 287.572 29.2587 288.116 29.568C288.66 29.8773 289.081 30.2987 289.38 30.832C289.679 31.3653 289.828 31.9627 289.828 32.624C289.828 33.2853 289.679 33.888 289.38 34.432C289.081 34.9653 288.655 35.3867 288.1 35.696C287.556 36.0053 286.921 36.16 286.196 36.16C285.492 36.16 284.863 36.016 284.308 35.728C283.764 35.4293 283.332 35.0187 283.012 34.496C282.703 33.9627 282.548 33.3387 282.548 32.624ZM284.036 32.64C284.036 33.0667 284.132 33.456 284.324 33.808C284.516 34.1493 284.772 34.4213 285.092 34.624C285.423 34.8267 285.785 34.928 286.18 34.928C286.596 34.928 286.964 34.8267 287.284 34.624C287.615 34.4213 287.871 34.1493 288.052 33.808C288.233 33.456 288.324 33.0667 288.324 32.64C288.324 32.2133 288.233 31.8293 288.052 31.488C287.871 31.136 287.615 30.8587 287.284 30.656C286.964 30.4427 286.596 30.336 286.18 30.336C285.775 30.336 285.407 30.4427 285.076 30.656C284.756 30.8693 284.5 31.152 284.308 31.504C284.127 31.8453 284.036 32.224 284.036 32.64ZM299.977 36.16C299.22 36.16 298.569 36.0107 298.025 35.712C297.481 35.4027 297.06 34.9867 296.761 34.464C296.473 33.9307 296.329 33.3227 296.329 32.64C296.329 31.9893 296.495 31.3973 296.825 30.864C297.156 30.3307 297.599 29.904 298.153 29.584C298.708 29.264 299.327 29.104 300.009 29.104C300.884 29.104 301.609 29.36 302.185 29.872C302.761 30.384 303.151 31.088 303.353 31.984L297.897 33.904L297.545 33.024L302.025 31.392L301.705 31.6C301.577 31.248 301.364 30.944 301.065 30.688C300.767 30.4213 300.377 30.288 299.897 30.288C299.492 30.288 299.129 30.3893 298.809 30.592C298.489 30.784 298.239 31.0507 298.057 31.392C297.876 31.7333 297.785 32.1227 297.785 32.56C297.785 33.0187 297.881 33.424 298.073 33.776C298.265 34.1173 298.527 34.3893 298.857 34.592C299.199 34.784 299.583 34.88 300.009 34.88C300.297 34.88 300.575 34.8267 300.841 34.72C301.119 34.6133 301.375 34.4747 301.609 34.304L302.297 35.408C301.967 35.632 301.593 35.8133 301.177 35.952C300.772 36.0907 300.372 36.16 299.977 36.16ZM306.546 29.376L306.674 30.992L306.61 30.736C306.823 30.2453 307.17 29.856 307.65 29.568C308.13 29.2693 308.685 29.12 309.314 29.12C309.943 29.12 310.455 29.3067 310.85 29.68C311.255 30.0427 311.463 30.5173 311.474 31.104V36H309.97V31.632C309.959 31.2693 309.853 30.976 309.65 30.752C309.458 30.5173 309.154 30.4 308.738 30.4C308.354 30.4 308.007 30.5067 307.698 30.72C307.389 30.9333 307.143 31.2267 306.962 31.6C306.791 31.9733 306.706 32.4053 306.706 32.896V36H305.218V29.376H306.546ZM314.702 26.464H316.19V29.408H318.014V30.576H316.19V36H314.702V30.576H313.486V29.408H314.702V26.464ZM322.884 36.16C322.126 36.16 321.476 36.0107 320.932 35.712C320.388 35.4027 319.966 34.9867 319.668 34.464C319.38 33.9307 319.236 33.3227 319.236 32.64C319.236 31.9893 319.401 31.3973 319.732 30.864C320.062 30.3307 320.505 29.904 321.06 29.584C321.614 29.264 322.233 29.104 322.916 29.104C323.79 29.104 324.516 29.36 325.092 29.872C325.668 30.384 326.057 31.088 326.26 31.984L320.804 33.904L320.452 33.024L324.932 31.392L324.612 31.6C324.484 31.248 324.27 30.944 323.972 30.688C323.673 30.4213 323.284 30.288 322.804 30.288C322.398 30.288 322.036 30.3893 321.716 30.592C321.396 30.784 321.145 31.0507 320.964 31.392C320.782 31.7333 320.692 32.1227 320.692 32.56C320.692 33.0187 320.788 33.424 320.98 33.776C321.172 34.1173 321.433 34.3893 321.764 34.592C322.105 34.784 322.489 34.88 322.916 34.88C323.204 34.88 323.481 34.8267 323.748 34.72C324.025 34.6133 324.281 34.4747 324.516 34.304L325.204 35.408C324.873 35.632 324.5 35.8133 324.084 35.952C323.678 36.0907 323.278 36.16 322.884 36.16ZM329.452 29.376L329.596 31.296L329.516 31.04C329.687 30.6347 329.932 30.2933 330.252 30.016C330.583 29.728 330.924 29.5093 331.276 29.36C331.639 29.2 331.953 29.12 332.22 29.12L332.14 30.592C331.639 30.56 331.196 30.656 330.812 30.88C330.439 31.104 330.14 31.4027 329.916 31.776C329.703 32.1493 329.596 32.5493 329.596 32.976V36H328.124V29.376H329.452ZM339.57 24.432H347.09V25.92H341.122V29.44H346.45V30.928H341.122V34.512H347.314V36H339.57V24.432ZM352.328 36.192L348.648 29.376H350.408L352.904 34.64L351.992 34.608L354.28 29.376H355.944L352.408 36.192H352.328ZM360.462 36.16C359.704 36.16 359.054 36.0107 358.51 35.712C357.966 35.4027 357.544 34.9867 357.246 34.464C356.958 33.9307 356.814 33.3227 356.814 32.64C356.814 31.9893 356.979 31.3973 357.31 30.864C357.64 30.3307 358.083 29.904 358.638 29.584C359.192 29.264 359.811 29.104 360.494 29.104C361.368 29.104 362.094 29.36 362.67 29.872C363.246 30.384 363.635 31.088 363.838 31.984L358.382 33.904L358.03 33.024L362.51 31.392L362.19 31.6C362.062 31.248 361.848 30.944 361.55 30.688C361.251 30.4213 360.862 30.288 360.382 30.288C359.976 30.288 359.614 30.3893 359.294 30.592C358.974 30.784 358.723 31.0507 358.542 31.392C358.36 31.7333 358.27 32.1227 358.27 32.56C358.27 33.0187 358.366 33.424 358.558 33.776C358.75 34.1173 359.011 34.3893 359.342 34.592C359.683 34.784 360.067 34.88 360.494 34.88C360.782 34.88 361.059 34.8267 361.326 34.72C361.603 34.6133 361.859 34.4747 362.094 34.304L362.782 35.408C362.451 35.632 362.078 35.8133 361.662 35.952C361.256 36.0907 360.856 36.16 360.462 36.16ZM367.03 29.376L367.174 31.296L367.094 31.04C367.265 30.6347 367.51 30.2933 367.83 30.016C368.161 29.728 368.502 29.5093 368.854 29.36C369.217 29.2 369.532 29.12 369.798 29.12L369.718 30.592C369.217 30.56 368.774 30.656 368.39 30.88C368.017 31.104 367.718 31.4027 367.494 31.776C367.281 32.1493 367.174 32.5493 367.174 32.976V36H365.702V29.376H367.03ZM373.046 29.376L373.174 30.864L373.11 30.736C373.355 30.2347 373.702 29.84 374.15 29.552C374.609 29.264 375.131 29.12 375.718 29.12C376.091 29.12 376.422 29.1787 376.71 29.296C376.998 29.4133 377.233 29.584 377.414 29.808C377.606 30.0213 377.729 30.288 377.782 30.608L377.702 30.656C377.958 30.176 378.31 29.8027 378.758 29.536C379.217 29.2587 379.697 29.12 380.198 29.12C380.849 29.12 381.361 29.3067 381.734 29.68C382.118 30.0427 382.315 30.5173 382.326 31.104V36H380.838V31.632C380.827 31.2907 380.742 31.008 380.582 30.784C380.433 30.5493 380.166 30.4213 379.782 30.4C379.398 30.4 379.051 30.5173 378.742 30.752C378.443 30.9867 378.209 31.2907 378.038 31.664C377.867 32.0267 377.777 32.4213 377.766 32.848V36H376.278V31.632C376.267 31.2907 376.177 31.008 376.006 30.784C375.846 30.5493 375.574 30.4213 375.19 30.4C374.795 30.4 374.449 30.5173 374.15 30.752C373.851 30.9867 373.617 31.2907 373.446 31.664C373.286 32.0373 373.206 32.4373 373.206 32.864V36H371.718V29.376H373.046ZM384.345 32.624C384.345 31.9627 384.5 31.3653 384.809 30.832C385.129 30.2987 385.566 29.8773 386.121 29.568C386.676 29.2587 387.305 29.104 388.009 29.104C388.734 29.104 389.369 29.2587 389.913 29.568C390.457 29.8773 390.878 30.2987 391.177 30.832C391.476 31.3653 391.625 31.9627 391.625 32.624C391.625 33.2853 391.476 33.888 391.177 34.432C390.878 34.9653 390.452 35.3867 389.897 35.696C389.353 36.0053 388.718 36.16 387.993 36.16C387.289 36.16 386.66 36.016 386.105 35.728C385.561 35.4293 385.129 35.0187 384.809 34.496C384.5 33.9627 384.345 33.3387 384.345 32.624ZM385.833 32.64C385.833 33.0667 385.929 33.456 386.121 33.808C386.313 34.1493 386.569 34.4213 386.889 34.624C387.22 34.8267 387.582 34.928 387.977 34.928C388.393 34.928 388.761 34.8267 389.081 34.624C389.412 34.4213 389.668 34.1493 389.849 33.808C390.03 33.456 390.121 33.0667 390.121 32.64C390.121 32.2133 390.03 31.8293 389.849 31.488C389.668 31.136 389.412 30.8587 389.081 30.656C388.761 30.4427 388.393 30.336 387.977 30.336C387.572 30.336 387.204 30.4427 386.873 30.656C386.553 30.8693 386.297 31.152 386.105 31.504C385.924 31.8453 385.833 32.224 385.833 32.64ZM393.064 32.624C393.064 31.9627 393.218 31.3653 393.528 30.832C393.848 30.2987 394.285 29.8773 394.84 29.568C395.394 29.2587 396.024 29.104 396.728 29.104C397.453 29.104 398.088 29.2587 398.632 29.568C399.176 29.8773 399.597 30.2987 399.896 30.832C400.194 31.3653 400.344 31.9627 400.344 32.624C400.344 33.2853 400.194 33.888 399.896 34.432C399.597 34.9653 399.17 35.3867 398.616 35.696C398.072 36.0053 397.437 36.16 396.712 36.16C396.008 36.16 395.378 36.016 394.824 35.728C394.28 35.4293 393.848 35.0187 393.528 34.496C393.218 33.9627 393.064 33.3387 393.064 32.624ZM394.552 32.64C394.552 33.0667 394.648 33.456 394.84 33.808C395.032 34.1493 395.288 34.4213 395.608 34.624C395.938 34.8267 396.301 34.928 396.696 34.928C397.112 34.928 397.48 34.8267 397.8 34.624C398.13 34.4213 398.386 34.1493 398.568 33.808C398.749 33.456 398.84 33.0667 398.84 32.64C398.84 32.2133 398.749 31.8293 398.568 31.488C398.386 31.136 398.13 30.8587 397.8 30.656C397.48 30.4427 397.112 30.336 396.696 30.336C396.29 30.336 395.922 30.4427 395.592 30.656C395.272 30.8693 395.016 31.152 394.824 31.504C394.642 31.8453 394.552 32.224 394.552 32.64ZM403.687 29.376L403.815 30.992L403.751 30.736C403.964 30.2453 404.311 29.856 404.791 29.568C405.271 29.2693 405.825 29.12 406.455 29.12C407.084 29.12 407.596 29.3067 407.991 29.68C408.396 30.0427 408.604 30.5173 408.615 31.104V36H407.111V31.632C407.1 31.2693 406.993 30.976 406.791 30.752C406.599 30.5173 406.295 30.4 405.879 30.4C405.495 30.4 405.148 30.5067 404.839 30.72C404.529 30.9333 404.284 31.2267 404.103 31.6C403.932 31.9733 403.847 32.4053 403.847 32.896V36H402.359V29.376H403.687ZM411.938 24.336C411.928 25.008 411.917 25.68 411.906 26.352C411.896 27.0133 411.885 27.6853 411.874 28.368H410.594V24.336H411.938ZM415.683 36.128C415.214 36.128 414.755 36.048 414.307 35.888C413.87 35.7173 413.507 35.4667 413.219 35.136L413.843 34.272C414.121 34.5387 414.403 34.7413 414.691 34.88C414.99 35.008 415.283 35.072 415.571 35.072C415.785 35.072 415.982 35.0453 416.163 34.992C416.345 34.9387 416.489 34.8533 416.595 34.736C416.713 34.608 416.771 34.4373 416.771 34.224C416.771 33.9893 416.691 33.8027 416.531 33.664C416.382 33.5253 416.185 33.4133 415.939 33.328C415.705 33.2427 415.454 33.1627 415.187 33.088C414.643 32.9067 414.227 32.656 413.939 32.336C413.651 32.016 413.507 31.6267 413.507 31.168C413.507 30.816 413.593 30.4907 413.763 30.192C413.945 29.8827 414.206 29.632 414.547 29.44C414.899 29.248 415.331 29.152 415.843 29.152C416.302 29.152 416.713 29.2107 417.075 29.328C417.438 29.4347 417.779 29.616 418.099 29.872L417.507 30.8C417.315 30.5973 417.086 30.448 416.819 30.352C416.553 30.256 416.313 30.2027 416.099 30.192C415.918 30.1813 415.742 30.208 415.571 30.272C415.411 30.336 415.278 30.4267 415.171 30.544C415.065 30.6613 415.011 30.8 415.011 30.96C415.011 31.184 415.086 31.3653 415.235 31.504C415.385 31.6427 415.577 31.7547 415.811 31.84C416.057 31.9147 416.297 31.9947 416.531 32.08C416.862 32.176 417.155 32.304 417.411 32.464C417.667 32.624 417.87 32.8213 418.019 33.056C418.179 33.2907 418.259 33.584 418.259 33.936C418.259 34.3307 418.163 34.6987 417.971 35.04C417.79 35.3707 417.507 35.6373 417.123 35.84C416.75 36.032 416.27 36.128 415.683 36.128ZM428.477 36.16C427.72 36.16 427.069 36.0107 426.525 35.712C425.981 35.4027 425.56 34.9867 425.261 34.464C424.973 33.9307 424.829 33.3227 424.829 32.64C424.829 31.9893 424.995 31.3973 425.325 30.864C425.656 30.3307 426.099 29.904 426.653 29.584C427.208 29.264 427.827 29.104 428.509 29.104C429.384 29.104 430.109 29.36 430.685 29.872C431.261 30.384 431.651 31.088 431.853 31.984L426.397 33.904L426.045 33.024L430.525 31.392L430.205 31.6C430.077 31.248 429.864 30.944 429.565 30.688C429.267 30.4213 428.877 30.288 428.397 30.288C427.992 30.288 427.629 30.3893 427.309 30.592C426.989 30.784 426.739 31.0507 426.557 31.392C426.376 31.7333 426.285 32.1227 426.285 32.56C426.285 33.0187 426.381 33.424 426.573 33.776C426.765 34.1173 427.027 34.3893 427.357 34.592C427.699 34.784 428.083 34.88 428.509 34.88C428.797 34.88 429.075 34.8267 429.341 34.72C429.619 34.6133 429.875 34.4747 430.109 34.304L430.797 35.408C430.467 35.632 430.093 35.8133 429.677 35.952C429.272 36.0907 428.872 36.16 428.477 36.16ZM436.172 36.192L432.492 29.376H434.252L436.748 34.64L435.836 34.608L438.124 29.376H439.788L436.252 36.192H436.172ZM444.306 36.16C443.548 36.16 442.898 36.0107 442.354 35.712C441.81 35.4027 441.388 34.9867 441.09 34.464C440.802 33.9307 440.658 33.3227 440.658 32.64C440.658 31.9893 440.823 31.3973 441.154 30.864C441.484 30.3307 441.927 29.904 442.482 29.584C443.036 29.264 443.655 29.104 444.338 29.104C445.212 29.104 445.938 29.36 446.514 29.872C447.09 30.384 447.479 31.088 447.682 31.984L442.226 33.904L441.874 33.024L446.354 31.392L446.034 31.6C445.906 31.248 445.692 30.944 445.394 30.688C445.095 30.4213 444.706 30.288 444.226 30.288C443.82 30.288 443.458 30.3893 443.138 30.592C442.818 30.784 442.567 31.0507 442.386 31.392C442.204 31.7333 442.114 32.1227 442.114 32.56C442.114 33.0187 442.21 33.424 442.402 33.776C442.594 34.1173 442.855 34.3893 443.186 34.592C443.527 34.784 443.911 34.88 444.338 34.88C444.626 34.88 444.903 34.8267 445.17 34.72C445.447 34.6133 445.703 34.4747 445.938 34.304L446.626 35.408C446.295 35.632 445.922 35.8133 445.506 35.952C445.1 36.0907 444.7 36.16 444.306 36.16ZM450.874 29.376L451.002 30.992L450.938 30.736C451.151 30.2453 451.498 29.856 451.978 29.568C452.458 29.2693 453.013 29.12 453.642 29.12C454.271 29.12 454.783 29.3067 455.178 29.68C455.583 30.0427 455.791 30.5173 455.802 31.104V36H454.298V31.632C454.287 31.2693 454.181 30.976 453.978 30.752C453.786 30.5173 453.482 30.4 453.066 30.4C452.682 30.4 452.335 30.5067 452.026 30.72C451.717 30.9333 451.471 31.2267 451.29 31.6C451.119 31.9733 451.034 32.4053 451.034 32.896V36H449.546V29.376H450.874ZM459.03 26.464H460.518V29.408H462.342V30.576H460.518V36H459.03V30.576H457.814V29.408H459.03V26.464ZM463.388 35.152C463.388 34.9173 463.473 34.72 463.644 34.56C463.825 34.3893 464.022 34.304 464.236 34.304C464.428 34.304 464.609 34.3893 464.78 34.56C464.961 34.72 465.052 34.9173 465.052 35.152C465.052 35.408 464.961 35.616 464.78 35.776C464.609 35.9253 464.428 36 464.236 36C464.022 36 463.825 35.9253 463.644 35.776C463.473 35.616 463.388 35.408 463.388 35.152Z" fill="white"/>
<defs>
<linearGradient id="paint0_linear_2039_135252" x1="36.9031" y1="-71.2636" x2="36.9031" y2="79.8708" gradientUnits="userSpaceOnUse">
<stop stop-color="#CBA05F"/>
<stop offset="0.25" stop-color="#804E03"/>
<stop offset="0.37" stop-color="#986D05"/>
<stop offset="0.47" stop-color="#CBA05F"/>
<stop offset="0.62" stop-color="#E3D5A7"/>
<stop offset="0.73" stop-color="#E2D4A5"/>
<stop offset="0.77" stop-color="#E0CF9E"/>
<stop offset="0.8" stop-color="#DCC693"/>
<stop offset="0.82" stop-color="#D7B982"/>
<stop offset="0.84" stop-color="#CFAA6C"/>
<stop offset="0.85" stop-color="#CBA05F"/>
<stop offset="1" stop-color="#804E03"/>
</linearGradient>
<linearGradient id="paint1_linear_2039_135252" x1="36.9028" y1="-71.2635" x2="36.9028" y2="79.871" gradientUnits="userSpaceOnUse">
<stop stop-color="#CBA05F"/>
<stop offset="0.25" stop-color="#804E03"/>
<stop offset="0.37" stop-color="#986D05"/>
<stop offset="0.47" stop-color="#CBA05F"/>
<stop offset="0.62" stop-color="#E3D5A7"/>
<stop offset="0.73" stop-color="#E2D4A5"/>
<stop offset="0.77" stop-color="#E0CF9E"/>
<stop offset="0.8" stop-color="#DCC693"/>
<stop offset="0.82" stop-color="#D7B982"/>
<stop offset="0.84" stop-color="#CFAA6C"/>
<stop offset="0.85" stop-color="#CBA05F"/>
<stop offset="1" stop-color="#804E03"/>
</linearGradient>
<linearGradient id="paint2_linear_2039_135252" x1="36.8936" y1="-71.2638" x2="36.8936" y2="79.8706" gradientUnits="userSpaceOnUse">
<stop stop-color="#CBA05F"/>
<stop offset="0.25" stop-color="#804E03"/>
<stop offset="0.37" stop-color="#986D05"/>
<stop offset="0.47" stop-color="#CBA05F"/>
<stop offset="0.62" stop-color="#E3D5A7"/>
<stop offset="0.73" stop-color="#E2D4A5"/>
<stop offset="0.77" stop-color="#E0CF9E"/>
<stop offset="0.8" stop-color="#DCC693"/>
<stop offset="0.82" stop-color="#D7B982"/>
<stop offset="0.84" stop-color="#CFAA6C"/>
<stop offset="0.85" stop-color="#CBA05F"/>
<stop offset="1" stop-color="#804E03"/>
</linearGradient>
<linearGradient id="paint3_linear_2039_135252" x1="27.0522" y1="-71.2635" x2="27.0522" y2="79.871" gradientUnits="userSpaceOnUse">
<stop stop-color="#CBA05F"/>
<stop offset="0.25" stop-color="#804E03"/>
<stop offset="0.37" stop-color="#986D05"/>
<stop offset="0.47" stop-color="#CBA05F"/>
<stop offset="0.62" stop-color="#E3D5A7"/>
<stop offset="0.73" stop-color="#E2D4A5"/>
<stop offset="0.77" stop-color="#E0CF9E"/>
<stop offset="0.8" stop-color="#DCC693"/>
<stop offset="0.82" stop-color="#D7B982"/>
<stop offset="0.84" stop-color="#CFAA6C"/>
<stop offset="0.85" stop-color="#CBA05F"/>
<stop offset="1" stop-color="#804E03"/>
</linearGradient>
<linearGradient id="paint4_linear_2039_135252" x1="46.7635" y1="-71.2632" x2="46.7635" y2="79.8712" gradientUnits="userSpaceOnUse">
<stop stop-color="#CBA05F"/>
<stop offset="0.25" stop-color="#804E03"/>
<stop offset="0.37" stop-color="#986D05"/>
<stop offset="0.47" stop-color="#CBA05F"/>
<stop offset="0.62" stop-color="#E3D5A7"/>
<stop offset="0.73" stop-color="#E2D4A5"/>
<stop offset="0.77" stop-color="#E0CF9E"/>
<stop offset="0.8" stop-color="#DCC693"/>
<stop offset="0.82" stop-color="#D7B982"/>
<stop offset="0.84" stop-color="#CFAA6C"/>
<stop offset="0.85" stop-color="#CBA05F"/>
<stop offset="1" stop-color="#804E03"/>
</linearGradient>
<linearGradient id="paint5_linear_2039_135252" x1="36.9026" y1="-71.2638" x2="36.9026" y2="79.8706" gradientUnits="userSpaceOnUse">
<stop stop-color="#CBA05F"/>
<stop offset="0.25" stop-color="#804E03"/>
<stop offset="0.37" stop-color="#986D05"/>
<stop offset="0.47" stop-color="#CBA05F"/>
<stop offset="0.62" stop-color="#E3D5A7"/>
<stop offset="0.73" stop-color="#E2D4A5"/>
<stop offset="0.77" stop-color="#E0CF9E"/>
<stop offset="0.8" stop-color="#DCC693"/>
<stop offset="0.82" stop-color="#D7B982"/>
<stop offset="0.84" stop-color="#CFAA6C"/>
<stop offset="0.85" stop-color="#CBA05F"/>
<stop offset="1" stop-color="#804E03"/>
</linearGradient>
<linearGradient id="paint6_linear_2039_135252" x1="27.7154" y1="-71.2637" x2="27.7154" y2="79.8707" gradientUnits="userSpaceOnUse">
<stop stop-color="#CBA05F"/>
<stop offset="0.25" stop-color="#804E03"/>
<stop offset="0.37" stop-color="#986D05"/>
<stop offset="0.47" stop-color="#CBA05F"/>
<stop offset="0.62" stop-color="#E3D5A7"/>
<stop offset="0.73" stop-color="#E2D4A5"/>
<stop offset="0.77" stop-color="#E0CF9E"/>
<stop offset="0.8" stop-color="#DCC693"/>
<stop offset="0.82" stop-color="#D7B982"/>
<stop offset="0.84" stop-color="#CFAA6C"/>
<stop offset="0.85" stop-color="#CBA05F"/>
<stop offset="1" stop-color="#804E03"/>
</linearGradient>
<linearGradient id="paint7_linear_2039_135252" x1="46.0907" y1="-71.2636" x2="46.0907" y2="79.8708" gradientUnits="userSpaceOnUse">
<stop stop-color="#CBA05F"/>
<stop offset="0.25" stop-color="#804E03"/>
<stop offset="0.37" stop-color="#986D05"/>
<stop offset="0.47" stop-color="#CBA05F"/>
<stop offset="0.62" stop-color="#E3D5A7"/>
<stop offset="0.73" stop-color="#E2D4A5"/>
<stop offset="0.77" stop-color="#E0CF9E"/>
<stop offset="0.8" stop-color="#DCC693"/>
<stop offset="0.82" stop-color="#D7B982"/>
<stop offset="0.84" stop-color="#CFAA6C"/>
<stop offset="0.85" stop-color="#CBA05F"/>
<stop offset="1" stop-color="#804E03"/>
</linearGradient>
<linearGradient id="paint8_linear_2039_135252" x1="36.9031" y1="-71.2638" x2="36.9031" y2="79.8707" gradientUnits="userSpaceOnUse">
<stop stop-color="#CBA05F"/>
<stop offset="0.25" stop-color="#804E03"/>
<stop offset="0.37" stop-color="#986D05"/>
<stop offset="0.47" stop-color="#CBA05F"/>
<stop offset="0.62" stop-color="#E3D5A7"/>
<stop offset="0.73" stop-color="#E2D4A5"/>
<stop offset="0.77" stop-color="#E0CF9E"/>
<stop offset="0.8" stop-color="#DCC693"/>
<stop offset="0.82" stop-color="#D7B982"/>
<stop offset="0.84" stop-color="#CFAA6C"/>
<stop offset="0.85" stop-color="#CBA05F"/>
<stop offset="1" stop-color="#804E03"/>
</linearGradient>
<linearGradient id="paint9_linear_2039_135252" x1="36.9032" y1="-71.2636" x2="36.9032" y2="79.8709" gradientUnits="userSpaceOnUse">
<stop stop-color="#CBA05F"/>
<stop offset="0.25" stop-color="#804E03"/>
<stop offset="0.37" stop-color="#986D05"/>
<stop offset="0.47" stop-color="#CBA05F"/>
<stop offset="0.62" stop-color="#E3D5A7"/>
<stop offset="0.73" stop-color="#E2D4A5"/>
<stop offset="0.77" stop-color="#E0CF9E"/>
<stop offset="0.8" stop-color="#DCC693"/>
<stop offset="0.82" stop-color="#D7B982"/>
<stop offset="0.84" stop-color="#CFAA6C"/>
<stop offset="0.85" stop-color="#CBA05F"/>
<stop offset="1" stop-color="#804E03"/>
</linearGradient>
<linearGradient id="paint10_linear_2039_135252" x1="36.5" y1="0" x2="36.5" y2="72" gradientUnits="userSpaceOnUse">
<stop stop-color="#F9D390"/>
<stop offset="1" stop-color="#E2B15B"/>
</linearGradient>
<linearGradient id="paint11_linear_2039_135252" x1="314" y1="0" x2="314" y2="16" gradientUnits="userSpaceOnUse">
<stop stop-color="#FFE0AB"/>
<stop offset="1" stop-color="#E9CA94"/>
</linearGradient>
<clipPath id="clip0_2039_135252">
<rect width="32.8066" height="51.89" fill="white" transform="translate(20.5 10)"/>
</clipPath>
</defs>
</svg>
