<svg width="532" height="72" viewBox="0 0 532 72" fill="none" xmlns="http://www.w3.org/2000/svg">
<g clip-path="url(#clip0_2039_135252)">
<path d="M40.8739 49.4396C40.4078 46.8312 38.9826 45.4598 36.8314 45.5046C34.6801 45.5494 33.2997 46.9567 32.9322 49.4396C32.2062 49.4396 31.4622 49.4396 30.7272 49.4396C30.6286 49.4396 30.53 49.332 30.4493 49.2603C29.7197 48.5405 28.7359 48.1369 27.711 48.1369C26.686 48.1369 25.7022 48.5405 24.9726 49.2603C24.8416 49.3717 24.6781 49.4377 24.5065 49.4486C23.6101 49.4486 22.7676 49.4486 21.8891 49.4486C21.7012 49.4608 21.5128 49.4324 21.3368 49.3652C21.1609 49.298 21.0015 49.1936 20.8696 49.0591C20.7377 48.9247 20.6364 48.7633 20.5725 48.5861C20.5087 48.4089 20.4839 48.22 20.4998 48.0323V30.7327C20.4998 30.6341 20.4998 30.5355 20.4998 30.4189H53.2795C53.2795 30.5713 53.2795 30.7058 53.2795 30.8402C53.2795 36.5112 53.2795 42.1881 53.2795 47.871C53.2795 48.9556 52.7955 49.4396 51.7109 49.4396C50.9131 49.4396 50.1243 49.4396 49.3266 49.4396C49.1315 49.4275 48.9458 49.3519 48.7977 49.2245C48.0656 48.5164 47.0869 48.1205 46.0683 48.1205C45.0497 48.1205 44.0711 48.5164 43.3389 49.2245C43.1958 49.3402 43.0205 49.409 42.8369 49.4217C42.1916 49.4396 41.5283 49.4396 40.8739 49.4396ZM32.6454 40.9422C32.6454 41.3276 32.6454 41.6323 32.6454 41.9371C32.6101 42.1838 32.6413 42.4354 32.7359 42.6659C32.8305 42.8964 32.9849 43.0975 33.1832 43.2483C33.3816 43.3991 33.6166 43.4942 33.864 43.5237C34.1114 43.5532 34.3622 43.516 34.5905 43.4161C35.2627 43.183 35.935 42.9231 36.6162 42.699C36.8037 42.6452 37.0025 42.6452 37.1899 42.699C37.8711 42.9231 38.5434 43.183 39.2157 43.4161C39.4387 43.506 39.6813 43.5365 39.9196 43.5046C40.158 43.4727 40.384 43.3794 40.5755 43.234C40.767 43.0885 40.9175 42.8959 41.0122 42.6748C41.107 42.4538 41.1427 42.212 41.1159 41.973C41.1159 41.3186 41.0442 40.6732 41.0442 40.0189C41.0423 39.8219 41.1053 39.6297 41.2235 39.4721C41.5821 39.006 41.9764 38.5758 42.3529 38.1097C42.546 37.9119 42.6817 37.6654 42.7455 37.3965C42.8092 37.1275 42.7986 36.8463 42.7148 36.583C42.631 36.3196 42.4772 36.084 42.2697 35.9013C42.0623 35.7187 41.8091 35.5959 41.5372 35.5461C40.9456 35.3848 40.3451 35.2503 39.7445 35.071C39.5434 35.0076 39.3656 34.8859 39.2336 34.7214C38.8213 34.1836 38.4538 33.61 38.0594 33.0632C37.9353 32.8512 37.7579 32.6754 37.5448 32.5532C37.3318 32.431 37.0904 32.3667 36.8448 32.3667C36.5992 32.3667 36.3579 32.431 36.1448 32.5532C35.9317 32.6754 35.7543 32.8512 35.6303 33.0632C35.2359 33.6189 34.8684 34.1836 34.456 34.7304C34.338 34.8858 34.1754 35.0015 33.9899 35.0621C33.3356 35.2593 32.6723 35.4027 32.0269 35.5999C31.7889 35.6697 31.5718 35.7968 31.3944 35.9701C31.2171 36.1435 31.085 36.3577 31.0097 36.594C30.9345 36.8303 30.9184 37.0814 30.963 37.3254C31.0075 37.5693 31.1112 37.7986 31.265 37.9931C31.4325 38.2203 31.6152 38.4359 31.8118 38.6385C32.5289 39.3018 33.0487 40.0099 32.6454 40.9422Z" fill="url(#paint0_linear_2039_135252)"/>
<path d="M20.4995 29.0566C20.4995 28.5367 20.4995 28.0347 20.4995 27.5417C20.5456 27.2339 20.7038 26.9538 20.9436 26.7553C21.1835 26.5568 21.4881 26.4539 21.7992 26.4661C22.5163 26.4661 23.2334 26.4661 23.9505 26.4661H24.4076V25.2381C24.4076 24.772 24.6676 24.4941 25.062 24.4941C25.1555 24.4947 25.2479 24.5151 25.3331 24.5539C25.4182 24.5927 25.4942 24.6491 25.556 24.7194C25.6178 24.7896 25.664 24.8722 25.6917 24.9616C25.7193 25.051 25.7277 25.1452 25.7163 25.2381C25.7163 25.4263 25.7163 25.6235 25.7163 25.8118V26.4213H30.3594C30.3594 26.0179 30.3594 25.6235 30.3594 25.2292C30.3594 24.8348 30.5925 24.5121 30.9779 24.5031C31.0712 24.4975 31.1645 24.5121 31.2516 24.5461C31.3386 24.5801 31.4173 24.6325 31.482 24.6999C31.5468 24.7672 31.5962 24.8478 31.6268 24.9361C31.6573 25.0244 31.6684 25.1182 31.6591 25.2112C31.6591 25.6056 31.6591 26 31.6591 26.4213H36.2395V25.2829C36.2395 24.7899 36.4905 24.5121 36.9028 24.5121C37.3151 24.5121 37.5482 24.7899 37.5572 25.2829C37.5661 25.7759 37.5572 26.0269 37.5572 26.4303H42.1465V25.758C42.1465 24.8616 42.3078 24.5121 42.7919 24.5121C43.2759 24.5121 43.4552 24.8079 43.4552 25.7759V26.4392H48.0535V25.2829C48.0535 24.7989 48.3044 24.5121 48.7078 24.5031C49.1112 24.4941 49.3622 24.7899 49.3622 25.2829C49.3622 25.7759 49.3622 26.0269 49.3622 26.4392H49.7476H51.9347C52.1147 26.429 52.2949 26.4567 52.4637 26.5204C52.6324 26.5841 52.7859 26.6825 52.9142 26.8092C53.0426 26.9359 53.143 27.0881 53.209 27.2559C53.2749 27.4238 53.305 27.6036 53.2971 27.7838C53.2971 28.1961 53.2971 28.5994 53.2971 29.0297L20.4995 29.0566Z" fill="url(#paint1_linear_2039_135252)"/>
<path d="M32.3581 61.8808L32.3133 61.827C32.3133 60.339 32.2505 58.8511 32.367 57.3452C32.4979 56.2354 33.0315 55.2121 33.8667 54.4696C34.7019 53.7271 35.7806 53.3169 36.8981 53.3169C38.0157 53.3169 39.0943 53.7271 39.9295 54.4696C40.7647 55.2121 41.2984 56.2354 41.4292 57.3452C41.5457 58.8242 41.4292 60.3301 41.4292 61.827L32.3581 61.8808Z" fill="url(#paint2_linear_2039_135252)"/>
<path d="M23.1889 61.8812C23.0581 61.1246 23.0879 60.349 23.2763 59.6047C23.4647 58.8604 23.8075 58.164 24.2824 57.5607C24.6854 57.1036 25.1749 56.7308 25.7226 56.4638C26.2703 56.1968 26.8655 56.0409 27.4738 56.0051C28.0822 55.9692 28.6915 56.0542 29.2668 56.255C29.8421 56.4559 30.372 56.7687 30.8258 57.1753C30.9361 57.2731 31.0089 57.4062 31.032 57.5518C31.032 58.9501 31.032 60.3484 31.032 61.7377C31.0347 61.7855 31.0347 61.8334 31.032 61.8812H23.1889Z" fill="url(#paint3_linear_2039_135252)"/>
<path d="M50.7164 61.8903H42.8105V61.478C42.8105 60.1872 42.8105 58.8965 42.8105 57.6057C42.8187 57.459 42.8829 57.3211 42.9898 57.2203C43.5783 56.6488 44.3151 56.2535 45.1167 56.0792C45.9183 55.905 46.7527 55.9587 47.5254 56.2343C48.3058 56.463 49.0059 56.9074 49.545 57.5163C50.0841 58.1252 50.4405 58.8739 50.573 59.6763C50.6719 60.4101 50.7198 61.1499 50.7164 61.8903Z" fill="url(#paint4_linear_2039_135252)"/>
<path d="M36.8936 46.813C37.4138 46.8095 37.9233 46.9605 38.3576 47.2469C38.7918 47.5333 39.1312 47.9423 39.3328 48.4218C39.5343 48.9014 39.5889 49.43 39.4896 49.9407C39.3903 50.4513 39.1416 50.9209 38.775 51.29C38.4084 51.6591 37.9405 51.911 37.4305 52.0138C36.9206 52.1166 36.3916 52.0657 35.9107 51.8674C35.4297 51.6692 35.0185 51.3326 34.7291 50.9003C34.4397 50.468 34.2852 49.9596 34.2852 49.4394C34.2829 49.0953 34.3486 48.7542 34.4786 48.4357C34.6086 48.1171 34.8004 47.8275 35.0428 47.5834C35.2853 47.3392 35.5736 47.1455 35.8913 47.0133C36.2089 46.8811 36.5496 46.813 36.8936 46.813Z" fill="url(#paint5_linear_2039_135252)"/>
<path d="M27.6706 49.4395C28.1882 49.4395 28.6943 49.593 29.1247 49.8806C29.5551 50.1682 29.8906 50.5769 30.0887 51.0552C30.2868 51.5334 30.3386 52.0597 30.2376 52.5674C30.1367 53.0751 29.8874 53.5415 29.5213 53.9076C29.1553 54.2736 28.6889 54.5229 28.1812 54.6239C27.6735 54.7249 27.1472 54.673 26.669 54.4749C26.1907 54.2768 25.7819 53.9414 25.4943 53.5109C25.2067 53.0805 25.0532 52.5745 25.0532 52.0568C25.0556 51.3634 25.3321 50.699 25.8224 50.2087C26.3128 49.7183 26.9771 49.4418 27.6706 49.4395Z" fill="url(#paint6_linear_2039_135252)"/>
<path d="M46.0997 49.4395C46.6173 49.4431 47.1223 49.6 47.5507 49.8906C47.9792 50.1811 48.3118 50.5922 48.5067 51.0718C48.7015 51.5514 48.7497 52.078 48.6452 52.585C48.5407 53.092 48.2883 53.5567 47.9197 53.9202C47.5512 54.2837 47.0831 54.5298 46.5748 54.6273C46.0664 54.7248 45.5405 54.6694 45.0636 54.468C44.5867 54.2667 44.1802 53.9284 43.8956 53.496C43.6109 53.0637 43.4609 52.5566 43.4644 52.0389C43.4668 51.6952 43.5368 51.3553 43.6705 51.0387C43.8042 50.722 43.999 50.4348 44.2437 50.1934C44.4884 49.952 44.7782 49.7612 45.0967 49.6319C45.4152 49.5025 45.756 49.4372 46.0997 49.4395Z" fill="url(#paint7_linear_2039_135252)"/>
<path d="M39.7445 42.2058C38.9467 41.919 38.1311 41.6053 37.3064 41.3095C37.0429 41.2333 36.7632 41.2333 36.4997 41.3095C35.7916 41.5246 35.1014 41.7935 34.4022 42.0445L33.9451 42.2686C33.9451 41.5694 33.9451 40.9241 34.0526 40.2966C34.1071 39.9707 34.08 39.6363 33.9736 39.3235C33.8673 39.0106 33.685 38.729 33.4431 38.5039C33.0967 38.1453 32.7734 37.7651 32.4751 37.3655C32.2241 37.0518 32.2599 36.9532 32.6543 36.8456C33.3176 36.6664 33.9899 36.4781 34.6622 36.3168C34.8245 36.2827 34.9783 36.2158 35.1139 36.1203C35.2495 36.0247 35.3642 35.9025 35.451 35.761C35.9081 35.0709 36.3921 34.3986 36.9031 33.6636L37.3692 34.309C37.7277 34.8288 38.0773 35.3756 38.4717 35.8776C38.6101 36.0532 38.7971 36.1841 39.0095 36.254C39.6997 36.4692 40.3988 36.6305 41.089 36.8098C41.5731 36.9442 41.6089 37.0428 41.2952 37.4193C40.9815 37.7958 40.4616 38.4322 40.0313 38.9162C39.9285 39.0296 39.85 39.1629 39.8007 39.3078C39.7513 39.4527 39.7322 39.6062 39.7445 39.7588C39.7624 40.5386 39.7445 41.3722 39.7445 42.2058Z" fill="url(#paint8_linear_2039_135252)"/>
<path d="M36.9032 10C35.7686 10 34.6594 10.3364 33.7161 10.9668C32.7727 11.5972 32.0374 12.4931 31.6032 13.5413C31.169 14.5896 31.0554 15.743 31.2767 16.8558C31.4981 17.9686 32.0445 18.9908 32.8467 19.7931C33.649 20.5954 34.6712 21.1418 35.784 21.3631C36.8968 21.5845 38.0503 21.4709 39.0985 21.0367C40.1467 20.6025 41.0427 19.8672 41.673 18.9238C42.3034 17.9804 42.6399 16.8713 42.6399 15.7367C42.6399 14.2152 42.0355 12.7561 40.9596 11.6802C39.8838 10.6044 38.4246 10 36.9032 10V10ZM36.5805 14.6342L37.9071 15.3154C38.2889 15.5087 38.5985 15.8194 38.7905 16.2018C38.9825 16.5842 39.0468 17.0181 38.9738 17.4397C38.932 17.7717 38.8042 18.0871 38.6029 18.3544C38.4017 18.6217 38.134 18.8317 37.8264 18.9636V19.1428C37.8384 19.2565 37.8263 19.3715 37.791 19.4802C37.7557 19.5889 37.6979 19.689 37.6214 19.774C37.5449 19.8589 37.4515 19.9269 37.347 19.9734C37.2426 20.0199 37.1295 20.0439 37.0152 20.0439C36.9009 20.0439 36.7879 20.0199 36.6834 19.9734C36.579 19.9269 36.4855 19.8589 36.409 19.774C36.3325 19.689 36.2747 19.5889 36.2394 19.4802C36.2041 19.3715 36.1921 19.2565 36.204 19.1428V18.9636C35.8849 18.8599 35.5909 18.6907 35.3408 18.4669C35.0908 18.2431 34.8902 17.9696 34.7519 17.6638C34.7096 17.5661 34.6868 17.461 34.6851 17.3546C34.6833 17.2481 34.7025 17.1423 34.7417 17.0433C34.7808 16.9442 34.839 16.8538 34.9131 16.7773C34.9871 16.7008 35.0755 16.6396 35.1732 16.5972C35.2709 16.5548 35.376 16.5321 35.4825 16.5303C35.589 16.5286 35.6947 16.5478 35.7938 16.5869C35.8928 16.626 35.9832 16.6843 36.0598 16.7583C36.1363 16.8324 36.1975 16.9208 36.2399 17.0185C36.3065 17.1686 36.4183 17.2942 36.5597 17.3778C36.7011 17.4613 36.865 17.4987 37.0287 17.4846C37.2886 17.4846 37.3514 17.3053 37.3693 17.1888C37.3845 17.1057 37.3727 17.02 37.3356 16.9441C37.2985 16.8683 37.2381 16.8064 37.1631 16.7675L35.8365 16.0863C35.4492 15.8855 35.137 15.5651 34.9464 15.1726C34.7558 14.7801 34.6971 14.3367 34.7788 13.9081C34.8429 13.5393 35.0112 13.1965 35.2637 12.9202C35.5162 12.6439 35.8425 12.4455 36.204 12.3485V12.2319C36.1921 12.1182 36.2041 12.0033 36.2394 11.8946C36.2747 11.7858 36.3325 11.6857 36.409 11.6008C36.4855 11.5158 36.579 11.4479 36.6834 11.4014C36.7879 11.3549 36.9009 11.3309 37.0152 11.3309C37.1295 11.3309 37.2426 11.3549 37.347 11.4014C37.4515 11.4479 37.5449 11.5158 37.6214 11.6008C37.6979 11.6857 37.7557 11.7858 37.791 11.8946C37.8263 12.0033 37.8384 12.1182 37.8264 12.2319V12.5277C38.3458 12.7761 38.7591 13.2022 38.9917 13.7288C39.0611 13.8272 39.1079 13.9398 39.1287 14.0584C39.1495 14.177 39.1438 14.2987 39.112 14.4149C39.0801 14.531 39.023 14.6386 38.9446 14.7301C38.8662 14.8215 38.7686 14.8944 38.6587 14.9437C38.5488 14.9929 38.4294 15.0172 38.309 15.0147C38.1886 15.0123 38.0702 14.9833 37.9624 14.9297C37.8545 14.8761 37.7599 14.7993 37.6852 14.7048C37.6106 14.6103 37.5578 14.5005 37.5306 14.3832C37.4666 14.2305 37.3556 14.1022 37.2138 14.0168C37.072 13.9314 36.9067 13.8933 36.7418 13.9081C36.6611 13.9137 36.5848 13.9471 36.5259 14.0027C36.4671 14.0583 36.4293 14.1326 36.4191 14.2129C36.3937 14.2909 36.3959 14.3754 36.4253 14.4521C36.4546 14.5287 36.5094 14.593 36.5805 14.6342Z" fill="url(#paint9_linear_2039_135252)"/>
</g>
<rect x="1" y="0.5" width="71" height="71" rx="15.5" stroke="url(#paint10_linear_2039_135252)"/>
<path d="M98.1 0.351999H105.828V2.144H99.972V5.248H105.188V7.056H99.972V10.208H106.052V12H98.1V0.351999ZM111.159 12.176L107.271 5.232H109.399L111.847 10.32L110.743 10.272L112.951 5.232H114.951L111.239 12.176H111.159ZM119.464 12.176C118.664 12.176 117.981 12.0213 117.416 11.712C116.851 11.4027 116.419 10.976 116.12 10.432C115.821 9.87733 115.672 9.25333 115.672 8.56C115.672 7.87733 115.843 7.264 116.184 6.72C116.525 6.176 116.984 5.744 117.56 5.424C118.147 5.09333 118.792 4.928 119.496 4.928C120.424 4.928 121.187 5.2 121.784 5.744C122.392 6.27733 122.797 7.03467 123 8.016L117.544 9.856L117.128 8.848L121.384 7.328L121.016 7.536C120.899 7.216 120.707 6.93867 120.44 6.704C120.184 6.46933 119.821 6.352 119.352 6.352C118.979 6.352 118.648 6.44267 118.36 6.624C118.072 6.79467 117.843 7.04 117.672 7.36C117.512 7.66933 117.432 8.03733 117.432 8.464C117.432 8.90133 117.523 9.28533 117.704 9.616C117.885 9.94667 118.131 10.2027 118.44 10.384C118.749 10.5547 119.101 10.64 119.496 10.64C119.773 10.64 120.04 10.592 120.296 10.496C120.552 10.4 120.792 10.272 121.016 10.112L121.832 11.44C121.48 11.664 121.091 11.8453 120.664 11.984C120.248 12.112 119.848 12.176 119.464 12.176ZM126.379 5.232L126.539 6.688L126.475 6.496C126.71 6.02667 127.057 5.65333 127.515 5.376C127.985 5.088 128.539 4.944 129.179 4.944C129.819 4.944 130.347 5.13067 130.763 5.504C131.179 5.87733 131.393 6.368 131.403 6.976V12H129.611V7.616C129.601 7.27467 129.505 7.00267 129.323 6.8C129.142 6.58667 128.854 6.47467 128.459 6.464C128.097 6.464 127.771 6.576 127.483 6.8C127.195 7.01333 126.966 7.312 126.795 7.696C126.635 8.06933 126.555 8.50133 126.555 8.992V12H124.763V5.232H126.379ZM134.513 2.256H136.321V5.232H138.081V6.64H136.321V12H134.513V6.64H133.361V5.232H134.513V2.256ZM145.334 0.351999H152.406V2.144H147.206V5.424H151.734V7.216H147.206V12H145.334V0.351999ZM156.902 12.176C156.102 12.176 155.419 12.0213 154.854 11.712C154.288 11.4027 153.856 10.976 153.558 10.432C153.259 9.87733 153.11 9.25333 153.11 8.56C153.11 7.87733 153.28 7.264 153.622 6.72C153.963 6.176 154.422 5.744 154.998 5.424C155.584 5.09333 156.23 4.928 156.934 4.928C157.862 4.928 158.624 5.2 159.222 5.744C159.83 6.27733 160.235 7.03467 160.438 8.016L154.982 9.856L154.566 8.848L158.822 7.328L158.454 7.536C158.336 7.216 158.144 6.93867 157.878 6.704C157.622 6.46933 157.259 6.352 156.79 6.352C156.416 6.352 156.086 6.44267 155.798 6.624C155.51 6.79467 155.28 7.04 155.11 7.36C154.95 7.66933 154.87 8.03733 154.87 8.464C154.87 8.90133 154.96 9.28533 155.142 9.616C155.323 9.94667 155.568 10.2027 155.878 10.384C156.187 10.5547 156.539 10.64 156.934 10.64C157.211 10.64 157.478 10.592 157.734 10.496C157.99 10.4 158.23 10.272 158.454 10.112L159.27 11.44C158.918 11.664 158.528 11.8453 158.102 11.984C157.686 12.112 157.286 12.176 156.902 12.176ZM165.433 12.176C164.633 12.176 163.95 12.0213 163.385 11.712C162.819 11.4027 162.387 10.976 162.089 10.432C161.79 9.87733 161.641 9.25333 161.641 8.56C161.641 7.87733 161.811 7.264 162.153 6.72C162.494 6.176 162.953 5.744 163.529 5.424C164.115 5.09333 164.761 4.928 165.465 4.928C166.393 4.928 167.155 5.2 167.753 5.744C168.361 6.27733 168.766 7.03467 168.969 8.016L163.513 9.856L163.097 8.848L167.353 7.328L166.985 7.536C166.867 7.216 166.675 6.93867 166.409 6.704C166.153 6.46933 165.79 6.352 165.321 6.352C164.947 6.352 164.617 6.44267 164.329 6.624C164.041 6.79467 163.811 7.04 163.641 7.36C163.481 7.66933 163.401 8.03733 163.401 8.464C163.401 8.90133 163.491 9.28533 163.673 9.616C163.854 9.94667 164.099 10.2027 164.409 10.384C164.718 10.5547 165.07 10.64 165.465 10.64C165.742 10.64 166.009 10.592 166.265 10.496C166.521 10.4 166.761 10.272 166.985 10.112L167.801 11.44C167.449 11.664 167.059 11.8453 166.633 11.984C166.217 12.112 165.817 12.176 165.433 12.176Z" fill="url(#paint11_linear_2039_135252)"/>
<path d="M98.164 24.432H99.716V34.512H105.588V36H98.164V24.432ZM107.173 32.624C107.173 31.9627 107.328 31.3653 107.637 30.832C107.957 30.2987 108.394 29.8773 108.949 29.568C109.504 29.2587 110.133 29.104 110.837 29.104C111.562 29.104 112.197 29.2587 112.741 29.568C113.285 29.8773 113.706 30.2987 114.005 30.832C114.304 31.3653 114.453 31.9627 114.453 32.624C114.453 33.2853 114.304 33.888 114.005 34.432C113.706 34.9653 113.28 35.3867 112.725 35.696C112.181 36.0053 111.546 36.16 110.821 36.16C110.117 36.16 109.488 36.016 108.933 35.728C108.389 35.4293 107.957 35.0187 107.637 34.496C107.328 33.9627 107.173 33.3387 107.173 32.624ZM108.661 32.64C108.661 33.0667 108.757 33.456 108.949 33.808C109.141 34.1493 109.397 34.4213 109.717 34.624C110.048 34.8267 110.41 34.928 110.805 34.928C111.221 34.928 111.589 34.8267 111.909 34.624C112.24 34.4213 112.496 34.1493 112.677 33.808C112.858 33.456 112.949 33.0667 112.949 32.64C112.949 32.2133 112.858 31.8293 112.677 31.488C112.496 31.136 112.24 30.8587 111.909 30.656C111.589 30.4427 111.221 30.336 110.805 30.336C110.4 30.336 110.032 30.4427 109.701 30.656C109.381 30.8693 109.125 31.152 108.933 31.504C108.752 31.8453 108.661 32.224 108.661 32.64ZM117.796 29.376L117.94 31.296L117.86 31.04C118.031 30.6347 118.276 30.2933 118.596 30.016C118.927 29.728 119.268 29.5093 119.62 29.36C119.983 29.2 120.297 29.12 120.564 29.12L120.484 30.592C119.983 30.56 119.54 30.656 119.156 30.88C118.783 31.104 118.484 31.4027 118.26 31.776C118.047 32.1493 117.94 32.5493 117.94 32.976V36H116.468V29.376H117.796ZM125.274 36.16C124.517 36.16 123.866 36.0107 123.322 35.712C122.778 35.4027 122.357 34.9867 122.058 34.464C121.77 33.9307 121.626 33.3227 121.626 32.64C121.626 31.9893 121.792 31.3973 122.122 30.864C122.453 30.3307 122.896 29.904 123.45 29.584C124.005 29.264 124.624 29.104 125.306 29.104C126.181 29.104 126.906 29.36 127.482 29.872C128.058 30.384 128.448 31.088 128.65 31.984L123.194 33.904L122.842 33.024L127.322 31.392L127.002 31.6C126.874 31.248 126.661 30.944 126.362 30.688C126.064 30.4213 125.674 30.288 125.194 30.288C124.789 30.288 124.426 30.3893 124.106 30.592C123.786 30.784 123.536 31.0507 123.354 31.392C123.173 31.7333 123.082 32.1227 123.082 32.56C123.082 33.0187 123.178 33.424 123.37 33.776C123.562 34.1173 123.824 34.3893 124.154 34.592C124.496 34.784 124.88 34.88 125.306 34.88C125.594 34.88 125.872 34.8267 126.138 34.72C126.416 34.6133 126.672 34.4747 126.906 34.304L127.594 35.408C127.264 35.632 126.89 35.8133 126.474 35.952C126.069 36.0907 125.669 36.16 125.274 36.16ZM131.843 29.376L131.971 30.864L131.907 30.736C132.152 30.2347 132.499 29.84 132.947 29.552C133.405 29.264 133.928 29.12 134.515 29.12C134.888 29.12 135.219 29.1787 135.507 29.296C135.795 29.4133 136.029 29.584 136.211 29.808C136.403 30.0213 136.525 30.288 136.579 30.608L136.499 30.656C136.755 30.176 137.107 29.8027 137.555 29.536C138.013 29.2587 138.493 29.12 138.995 29.12C139.645 29.12 140.157 29.3067 140.531 29.68C140.915 30.0427 141.112 30.5173 141.123 31.104V36H139.635V31.632C139.624 31.2907 139.539 31.008 139.379 30.784C139.229 30.5493 138.963 30.4213 138.579 30.4C138.195 30.4 137.848 30.5173 137.539 30.752C137.24 30.9867 137.005 31.2907 136.835 31.664C136.664 32.0267 136.573 32.4213 136.563 32.848V36H135.075V31.632C135.064 31.2907 134.973 31.008 134.803 30.784C134.643 30.5493 134.371 30.4213 133.987 30.4C133.592 30.4 133.245 30.5173 132.947 30.752C132.648 30.9867 132.413 31.2907 132.243 31.664C132.083 32.0373 132.003 32.4373 132.003 32.864V36H130.515V29.376H131.843Z" fill="white"/>
<defs>
<linearGradient id="paint0_linear_2039_135252" x1="36.9031" y1="-71.2636" x2="36.9031" y2="79.8708" gradientUnits="userSpaceOnUse">
<stop stop-color="#CBA05F"/>
<stop offset="0.25" stop-color="#804E03"/>
<stop offset="0.37" stop-color="#986D05"/>
<stop offset="0.47" stop-color="#CBA05F"/>
<stop offset="0.62" stop-color="#E3D5A7"/>
<stop offset="0.73" stop-color="#E2D4A5"/>
<stop offset="0.77" stop-color="#E0CF9E"/>
<stop offset="0.8" stop-color="#DCC693"/>
<stop offset="0.82" stop-color="#D7B982"/>
<stop offset="0.84" stop-color="#CFAA6C"/>
<stop offset="0.85" stop-color="#CBA05F"/>
<stop offset="1" stop-color="#804E03"/>
</linearGradient>
<linearGradient id="paint1_linear_2039_135252" x1="36.9028" y1="-71.2635" x2="36.9028" y2="79.871" gradientUnits="userSpaceOnUse">
<stop stop-color="#CBA05F"/>
<stop offset="0.25" stop-color="#804E03"/>
<stop offset="0.37" stop-color="#986D05"/>
<stop offset="0.47" stop-color="#CBA05F"/>
<stop offset="0.62" stop-color="#E3D5A7"/>
<stop offset="0.73" stop-color="#E2D4A5"/>
<stop offset="0.77" stop-color="#E0CF9E"/>
<stop offset="0.8" stop-color="#DCC693"/>
<stop offset="0.82" stop-color="#D7B982"/>
<stop offset="0.84" stop-color="#CFAA6C"/>
<stop offset="0.85" stop-color="#CBA05F"/>
<stop offset="1" stop-color="#804E03"/>
</linearGradient>
<linearGradient id="paint2_linear_2039_135252" x1="36.8936" y1="-71.2638" x2="36.8936" y2="79.8706" gradientUnits="userSpaceOnUse">
<stop stop-color="#CBA05F"/>
<stop offset="0.25" stop-color="#804E03"/>
<stop offset="0.37" stop-color="#986D05"/>
<stop offset="0.47" stop-color="#CBA05F"/>
<stop offset="0.62" stop-color="#E3D5A7"/>
<stop offset="0.73" stop-color="#E2D4A5"/>
<stop offset="0.77" stop-color="#E0CF9E"/>
<stop offset="0.8" stop-color="#DCC693"/>
<stop offset="0.82" stop-color="#D7B982"/>
<stop offset="0.84" stop-color="#CFAA6C"/>
<stop offset="0.85" stop-color="#CBA05F"/>
<stop offset="1" stop-color="#804E03"/>
</linearGradient>
<linearGradient id="paint3_linear_2039_135252" x1="27.0522" y1="-71.2635" x2="27.0522" y2="79.871" gradientUnits="userSpaceOnUse">
<stop stop-color="#CBA05F"/>
<stop offset="0.25" stop-color="#804E03"/>
<stop offset="0.37" stop-color="#986D05"/>
<stop offset="0.47" stop-color="#CBA05F"/>
<stop offset="0.62" stop-color="#E3D5A7"/>
<stop offset="0.73" stop-color="#E2D4A5"/>
<stop offset="0.77" stop-color="#E0CF9E"/>
<stop offset="0.8" stop-color="#DCC693"/>
<stop offset="0.82" stop-color="#D7B982"/>
<stop offset="0.84" stop-color="#CFAA6C"/>
<stop offset="0.85" stop-color="#CBA05F"/>
<stop offset="1" stop-color="#804E03"/>
</linearGradient>
<linearGradient id="paint4_linear_2039_135252" x1="46.7635" y1="-71.2632" x2="46.7635" y2="79.8712" gradientUnits="userSpaceOnUse">
<stop stop-color="#CBA05F"/>
<stop offset="0.25" stop-color="#804E03"/>
<stop offset="0.37" stop-color="#986D05"/>
<stop offset="0.47" stop-color="#CBA05F"/>
<stop offset="0.62" stop-color="#E3D5A7"/>
<stop offset="0.73" stop-color="#E2D4A5"/>
<stop offset="0.77" stop-color="#E0CF9E"/>
<stop offset="0.8" stop-color="#DCC693"/>
<stop offset="0.82" stop-color="#D7B982"/>
<stop offset="0.84" stop-color="#CFAA6C"/>
<stop offset="0.85" stop-color="#CBA05F"/>
<stop offset="1" stop-color="#804E03"/>
</linearGradient>
<linearGradient id="paint5_linear_2039_135252" x1="36.9026" y1="-71.2638" x2="36.9026" y2="79.8706" gradientUnits="userSpaceOnUse">
<stop stop-color="#CBA05F"/>
<stop offset="0.25" stop-color="#804E03"/>
<stop offset="0.37" stop-color="#986D05"/>
<stop offset="0.47" stop-color="#CBA05F"/>
<stop offset="0.62" stop-color="#E3D5A7"/>
<stop offset="0.73" stop-color="#E2D4A5"/>
<stop offset="0.77" stop-color="#E0CF9E"/>
<stop offset="0.8" stop-color="#DCC693"/>
<stop offset="0.82" stop-color="#D7B982"/>
<stop offset="0.84" stop-color="#CFAA6C"/>
<stop offset="0.85" stop-color="#CBA05F"/>
<stop offset="1" stop-color="#804E03"/>
</linearGradient>
<linearGradient id="paint6_linear_2039_135252" x1="27.7154" y1="-71.2637" x2="27.7154" y2="79.8707" gradientUnits="userSpaceOnUse">
<stop stop-color="#CBA05F"/>
<stop offset="0.25" stop-color="#804E03"/>
<stop offset="0.37" stop-color="#986D05"/>
<stop offset="0.47" stop-color="#CBA05F"/>
<stop offset="0.62" stop-color="#E3D5A7"/>
<stop offset="0.73" stop-color="#E2D4A5"/>
<stop offset="0.77" stop-color="#E0CF9E"/>
<stop offset="0.8" stop-color="#DCC693"/>
<stop offset="0.82" stop-color="#D7B982"/>
<stop offset="0.84" stop-color="#CFAA6C"/>
<stop offset="0.85" stop-color="#CBA05F"/>
<stop offset="1" stop-color="#804E03"/>
</linearGradient>
<linearGradient id="paint7_linear_2039_135252" x1="46.0907" y1="-71.2636" x2="46.0907" y2="79.8708" gradientUnits="userSpaceOnUse">
<stop stop-color="#CBA05F"/>
<stop offset="0.25" stop-color="#804E03"/>
<stop offset="0.37" stop-color="#986D05"/>
<stop offset="0.47" stop-color="#CBA05F"/>
<stop offset="0.62" stop-color="#E3D5A7"/>
<stop offset="0.73" stop-color="#E2D4A5"/>
<stop offset="0.77" stop-color="#E0CF9E"/>
<stop offset="0.8" stop-color="#DCC693"/>
<stop offset="0.82" stop-color="#D7B982"/>
<stop offset="0.84" stop-color="#CFAA6C"/>
<stop offset="0.85" stop-color="#CBA05F"/>
<stop offset="1" stop-color="#804E03"/>
</linearGradient>
<linearGradient id="paint8_linear_2039_135252" x1="36.9031" y1="-71.2638" x2="36.9031" y2="79.8707" gradientUnits="userSpaceOnUse">
<stop stop-color="#CBA05F"/>
<stop offset="0.25" stop-color="#804E03"/>
<stop offset="0.37" stop-color="#986D05"/>
<stop offset="0.47" stop-color="#CBA05F"/>
<stop offset="0.62" stop-color="#E3D5A7"/>
<stop offset="0.73" stop-color="#E2D4A5"/>
<stop offset="0.77" stop-color="#E0CF9E"/>
<stop offset="0.8" stop-color="#DCC693"/>
<stop offset="0.82" stop-color="#D7B982"/>
<stop offset="0.84" stop-color="#CFAA6C"/>
<stop offset="0.85" stop-color="#CBA05F"/>
<stop offset="1" stop-color="#804E03"/>
</linearGradient>
<linearGradient id="paint9_linear_2039_135252" x1="36.9032" y1="-71.2636" x2="36.9032" y2="79.8709" gradientUnits="userSpaceOnUse">
<stop stop-color="#CBA05F"/>
<stop offset="0.25" stop-color="#804E03"/>
<stop offset="0.37" stop-color="#986D05"/>
<stop offset="0.47" stop-color="#CBA05F"/>
<stop offset="0.62" stop-color="#E3D5A7"/>
<stop offset="0.73" stop-color="#E2D4A5"/>
<stop offset="0.77" stop-color="#E0CF9E"/>
<stop offset="0.8" stop-color="#DCC693"/>
<stop offset="0.82" stop-color="#D7B982"/>
<stop offset="0.84" stop-color="#CFAA6C"/>
<stop offset="0.85" stop-color="#CBA05F"/>
<stop offset="1" stop-color="#804E03"/>
</linearGradient>
<linearGradient id="paint10_linear_2039_135252" x1="36.5" y1="0" x2="36.5" y2="72" gradientUnits="userSpaceOnUse">
<stop stop-color="#F9D390"/>
<stop offset="1" stop-color="#E2B15B"/>
</linearGradient>
<linearGradient id="paint11_linear_2039_135252" x1="314" y1="0" x2="314" y2="16" gradientUnits="userSpaceOnUse">
<stop stop-color="#FFE0AB"/>
<stop offset="1" stop-color="#E9CA94"/>
</linearGradient>
<clipPath id="clip0_2039_135252">
<rect width="32.8066" height="51.89" fill="white" transform="translate(20.5 10)"/>
</clipPath>
</defs>
</svg>
