<svg width="532" height="72" viewBox="0 0 532 72" fill="none" xmlns="http://www.w3.org/2000/svg">
<g clip-path="url(#clip0_2039_134985)">
<path d="M28.518 26.9697H43.693C43.9783 27.1538 44.2544 27.3378 44.5489 27.5127C44.6577 27.6021 44.7876 27.6623 44.9262 27.6875C45.8464 27.6875 46.7667 27.6875 47.6869 27.6875C48.0277 27.6788 48.3593 27.7991 48.6152 28.0243C48.8712 28.2495 49.0326 28.5631 49.0673 28.9023C49.2502 30.2674 49.1879 31.6542 48.8833 32.9974C48.6536 34.1403 48.1921 35.2239 47.5274 36.1815C46.8626 37.1391 46.0086 37.9502 45.0182 38.5649L44.466 38.8962C44.4874 38.9588 44.5119 39.0203 44.5397 39.0803C45.0182 40.157 45.4599 41.2337 45.9937 42.3104C46.073 42.4563 46.1049 42.6232 46.0851 42.7881C46.0654 42.953 45.9948 43.1076 45.8832 43.2306C44.2052 45.1562 42.0456 46.6013 39.6255 47.4178C39.5825 47.4256 39.5415 47.4417 39.5049 47.4654C39.4682 47.489 39.4365 47.5197 39.4117 47.5556C39.3869 47.5915 39.3695 47.632 39.3603 47.6746C39.3512 47.7173 39.3506 47.7614 39.3586 47.8043C39.3624 48.0921 39.2936 48.3762 39.1584 48.6304C39.0233 48.8845 38.8263 49.1005 38.5856 49.2583C38.5185 49.299 38.464 49.3576 38.4283 49.4275C38.3925 49.4973 38.3769 49.5758 38.3831 49.654C38.3646 51.0096 38.5826 52.358 39.0273 53.6387C39.0491 53.7209 39.1008 53.792 39.1723 53.838C39.2439 53.884 39.33 53.9015 39.4138 53.8872C40.1776 53.8872 40.9415 53.8872 41.7053 53.8872C41.8515 53.8777 41.9981 53.8996 42.1353 53.9512C42.2724 54.0029 42.397 54.0833 42.5006 54.1869C42.6043 54.2906 42.6846 54.4151 42.7363 54.5523C42.788 54.6894 42.8098 54.836 42.8004 54.9823C42.8004 55.7308 42.8004 56.4762 42.8004 57.2185C42.8071 57.3645 42.783 57.5103 42.7297 57.6463C42.6763 57.7823 42.5949 57.9056 42.4907 58.0081C42.3865 58.1105 42.2619 58.1899 42.125 58.2409C41.988 58.292 41.8419 58.3136 41.6961 58.3044H30.4782C30.3274 58.3157 30.1761 58.2941 30.0346 58.2409C29.8931 58.1878 29.7649 58.1045 29.6589 57.9967C29.5529 57.889 29.4716 57.7594 29.4208 57.6171C29.37 57.4747 29.3508 57.323 29.3646 57.1725V55.1019C29.3381 54.936 29.3511 54.7661 29.4026 54.6061C29.4541 54.4462 29.5427 54.3006 29.6611 54.1813C29.7794 54.0621 29.9243 53.9724 30.0839 53.9197C30.2435 53.867 30.4132 53.8527 30.5794 53.878C31.3248 53.878 32.0702 53.878 32.8156 53.878C32.8695 53.8746 32.922 53.8597 32.9696 53.8343C33.0172 53.8089 33.0589 53.7736 33.0917 53.7307C33.5947 52.425 33.8415 51.0347 33.8187 49.6356C33.8152 49.583 33.8002 49.5319 33.7748 49.4858C33.7493 49.4396 33.7141 49.3997 33.6714 49.3687C33.412 49.1959 33.2008 48.9599 33.0576 48.6831C32.9143 48.4062 32.8437 48.0975 32.8524 47.7859C32.8576 47.7537 32.8562 47.7209 32.8482 47.6893C32.8402 47.6577 32.8259 47.6281 32.8061 47.6022C32.7863 47.5764 32.7614 47.5549 32.7329 47.539C32.7045 47.5231 32.6731 47.5132 32.6407 47.5098C32.3555 47.4178 32.061 47.3166 31.7849 47.1969C29.7066 46.3305 27.8507 45.0062 26.3554 43.3227C26.2367 43.2046 26.1584 43.0519 26.132 42.8865C26.1055 42.7211 26.1322 42.5516 26.2082 42.4024C26.475 41.8411 26.7419 41.2889 26.9996 40.7183C27.2573 40.1478 27.5057 39.5496 27.745 38.9791C27.745 38.933 27.6898 38.9146 27.6714 38.9054L27.5057 38.8134C25.8476 37.9081 24.5488 36.4632 23.8247 34.7183C23.1036 32.9569 22.85 31.039 23.0885 29.1507C23.0841 28.9477 23.1237 28.7462 23.2045 28.5599C23.2853 28.3736 23.4054 28.207 23.5566 28.0715C23.7078 27.9361 23.8866 27.8349 24.0806 27.7749C24.2746 27.715 24.4792 27.6977 24.6805 27.7243H27.2849C27.3861 27.7243 27.5333 27.7243 27.5793 27.6415C27.805 27.3157 28.1368 27.0782 28.518 26.9697ZM42.782 31.0557C42.69 32.8096 42.9337 34.5649 43.4998 36.2275C44.4477 35.6165 45.2121 34.7597 45.7112 33.7483C46.2104 32.737 46.4257 31.6092 46.3341 30.4851C45.8372 30.4851 45.3403 30.4851 44.8341 30.4851C44.7329 30.4851 44.6133 30.5955 44.5304 30.6784C44.3847 30.8628 44.1936 31.0063 43.9759 31.095C43.7582 31.1837 43.5213 31.2145 43.2881 31.1845C43.1172 31.1506 42.9483 31.1076 42.782 31.0557ZM25.8401 30.4851C25.7848 32.9054 26.8155 35.2336 28.7113 36.2275C29.2736 34.5738 29.5111 32.8271 29.4107 31.0833C29.4107 31.0833 29.337 31.0833 29.3094 31.0833C29.0135 31.2145 28.6809 31.2376 28.3697 31.1484C28.0585 31.0592 27.7885 30.8636 27.607 30.5955C27.5588 30.5356 27.4898 30.4961 27.4137 30.4851H25.8401ZM31.8677 33.117H31.7665C31.7205 33.3287 31.6745 33.5311 31.6469 33.7428C31.2785 36.6297 30.3233 39.4107 28.8401 41.9147C28.7724 42.0119 28.7361 42.1275 28.7361 42.246C28.7361 42.3644 28.7724 42.48 28.8401 42.5773C29.1953 43.1167 29.667 43.5695 30.2205 43.9024C30.6471 44.1974 31.1726 44.3131 31.6837 44.2245C31.2604 43.746 30.8555 43.3043 30.4321 42.8073C30.0088 42.3104 30.0088 42.1171 30.3677 41.7398C30.4008 41.6875 30.4286 41.632 30.4505 41.5742C31.3807 39.6849 31.8864 37.615 31.9322 35.5097C31.9598 34.6999 31.8953 33.8992 31.8677 33.0986V33.117Z" fill="url(#paint0_linear_2039_134985)"/>
<path d="M50.816 42.6323H58.8222L59.2732 42.9176C59.3325 42.9657 59.4016 43.0002 59.4756 43.0188H60.9296C61.1095 43.0156 61.284 43.08 61.4186 43.1993C61.5533 43.3186 61.6382 43.4841 61.6566 43.663C61.7503 44.3838 61.7192 45.1154 61.5646 45.8256C61.4403 46.4276 61.1951 46.9982 60.8439 47.5028C60.4928 48.0073 60.043 48.4355 59.5216 48.7612L59.2272 48.9361V49.0281C59.4848 49.5987 59.7333 50.1692 60.0002 50.7398C60.0475 50.8192 60.0668 50.9122 60.0552 51.0039C60.0435 51.0957 60.0015 51.1809 59.9358 51.2459C59.0677 52.2695 57.9435 53.0443 56.6781 53.4913C56.6307 53.5003 56.5887 53.5275 56.5612 53.5671C56.5336 53.6067 56.5227 53.6555 56.5308 53.703C56.531 53.8537 56.4942 54.0022 56.4236 54.1354C56.353 54.2686 56.2508 54.3824 56.1259 54.4668C56.0899 54.4886 56.0606 54.5199 56.0411 54.5572C56.0216 54.5945 56.0128 54.6365 56.0155 54.6785C56.0226 55.3843 56.147 56.084 56.3836 56.749C56.3836 56.8503 56.4756 56.8779 56.586 56.8779C56.9909 56.8779 57.3959 56.8779 57.7916 56.8779C57.8686 56.871 57.9463 56.881 58.0191 56.9071C58.0919 56.9332 58.1582 56.9748 58.2134 57.0291C58.2685 57.0834 58.3112 57.149 58.3385 57.2214C58.3658 57.2938 58.377 57.3713 58.3713 57.4484C58.3713 57.8441 58.3713 58.2399 58.3713 58.6264C58.3768 58.7039 58.3655 58.7817 58.3383 58.8545C58.3111 58.9273 58.2686 58.9935 58.2136 59.0484C58.1587 59.1034 58.0925 59.1459 58.0197 59.1731C57.9469 59.2003 57.8691 59.2116 57.7916 59.2061H51.8559C51.7772 59.2116 51.6982 59.2001 51.6242 59.1724C51.5503 59.1447 51.4832 59.1015 51.4274 59.0457C51.3715 58.9899 51.3283 58.9228 51.3007 58.8488C51.273 58.7749 51.2615 58.6959 51.267 58.6172V57.476C51.2527 57.3882 51.2595 57.2983 51.2868 57.2136C51.3141 57.1289 51.3612 57.0519 51.4241 56.989C51.487 56.9261 51.564 56.879 51.6487 56.8517C51.7333 56.8244 51.8233 56.8176 51.9111 56.8319H53.0891C53.1173 56.83 53.1448 56.8226 53.1701 56.81C53.1954 56.7973 53.2179 56.7797 53.2363 56.7582C53.5032 56.0692 53.6314 55.3343 53.6136 54.5956C53.6111 54.5689 53.6033 54.5429 53.5907 54.5192C53.578 54.4955 53.5608 54.4746 53.54 54.4576C53.403 54.3659 53.2915 54.241 53.2159 54.0946C53.1402 53.9481 53.1029 53.7849 53.1075 53.6202C53.1075 53.5281 53.1075 53.5005 52.997 53.4729C52.8434 53.4274 52.6927 53.372 52.5461 53.3073C51.4494 52.8523 50.4707 52.1537 49.6841 51.2643C49.6168 51.2006 49.5723 51.1166 49.5573 51.0252C49.5424 50.9338 49.5578 50.84 49.6013 50.7582C49.7393 50.4637 49.8866 50.1692 50.0154 49.8379L50.4111 48.9177L50.2915 48.8901C49.4204 48.4095 48.7389 47.6469 48.3589 46.7275C47.9838 45.7942 47.8509 44.7811 47.9724 43.7826C47.9731 43.6782 47.9957 43.575 48.0388 43.4798C48.0819 43.3846 48.1445 43.2995 48.2226 43.2301C48.3007 43.1607 48.3925 43.1085 48.4921 43.0768C48.5917 43.0452 48.6968 43.0348 48.8007 43.0464H50.1718C50.1718 43.0464 50.3007 43.0464 50.3283 43.0464C50.4361 42.8545 50.6092 42.7076 50.816 42.6323ZM58.3529 44.7857C58.3018 45.7216 58.4299 46.6586 58.7302 47.5465C59.2301 47.2174 59.6306 46.758 59.8885 46.218C60.1463 45.6779 60.2518 45.0777 60.1934 44.482H59.402C59.3387 44.4942 59.2826 44.5305 59.2456 44.5833C59.1663 44.6797 59.0641 44.7546 58.9483 44.8012C58.8326 44.8479 58.7069 44.8647 58.583 44.8501C58.505 44.8337 58.4281 44.8122 58.3529 44.7857ZM49.4172 44.482C49.3695 45.0773 49.4857 45.6742 49.7534 46.208C50.0211 46.7418 50.43 47.192 50.9357 47.5097C51.2329 46.6212 51.3578 45.6842 51.3038 44.7489H51.2485C51.0903 44.8264 50.909 44.843 50.7393 44.7955C50.5696 44.748 50.4233 44.6397 50.3283 44.4912C50.3164 44.4753 50.3012 44.4621 50.2837 44.4526C50.2662 44.443 50.2469 44.4374 50.2271 44.436L49.4172 44.482ZM52.5921 45.8624C52.5921 45.9728 52.5921 46.0833 52.5277 46.1937C52.3178 47.7228 51.7946 49.1921 50.9909 50.5097C50.9521 50.5597 50.931 50.6212 50.931 50.6846C50.931 50.7479 50.9521 50.8094 50.9909 50.8594C51.1733 51.1477 51.4227 51.3877 51.7179 51.5588C51.8283 51.6384 51.9537 51.695 52.0866 51.725C52.2194 51.7551 52.3569 51.758 52.4909 51.7336L51.8283 50.979C51.6535 50.795 51.5982 50.6201 51.8283 50.4177C51.83 50.3901 51.83 50.3624 51.8283 50.3349C52.3157 49.3358 52.5825 48.2436 52.6105 47.1324C52.6381 46.7091 52.6013 46.2857 52.5829 45.8624H52.5921Z" fill="url(#paint1_linear_2039_134985)"/>
<path d="M13.3799 42.6323H21.3861L21.837 42.9176C21.8963 42.9657 21.9654 43.0002 22.0395 43.0188H23.4935C23.6733 43.0156 23.8479 43.08 23.9825 43.1993C24.1171 43.3186 24.2021 43.4841 24.2205 43.663C24.3142 44.3838 24.283 45.1154 24.1285 45.8256C24.0041 46.4276 23.7589 46.9982 23.4078 47.5028C23.0566 48.0073 22.6068 48.4355 22.0855 48.7612L21.791 48.9361V49.0281C22.0487 49.5987 22.2971 50.1692 22.564 50.7398C22.6113 50.8192 22.6307 50.9122 22.619 51.0039C22.6073 51.0957 22.5653 51.1809 22.4996 51.2459C21.6315 52.2695 20.5074 53.0443 19.2419 53.4913C19.1945 53.5003 19.1526 53.5275 19.125 53.5671C19.0975 53.6067 19.0866 53.6555 19.0947 53.703C19.0862 53.8443 19.0453 53.9817 18.975 54.1046C18.9048 54.2275 18.8072 54.3326 18.6897 54.4116C18.6537 54.4334 18.6244 54.4647 18.6049 54.502C18.5855 54.5393 18.5766 54.5812 18.5793 54.6232C18.5864 55.3291 18.7108 56.0288 18.9474 56.6938C18.9602 56.736 18.9876 56.7721 19.0248 56.7958C19.0619 56.8194 19.1063 56.8289 19.1499 56.8227C19.5548 56.8227 19.9597 56.8227 20.3554 56.8227C20.4325 56.8158 20.5101 56.8257 20.583 56.8519C20.6558 56.878 20.7221 56.9196 20.7772 56.9739C20.8324 57.0281 20.8751 57.0938 20.9023 57.1662C20.9296 57.2386 20.9408 57.316 20.9352 57.3932C20.9352 57.7889 20.9352 58.1846 20.9352 58.5711C20.9406 58.6487 20.9294 58.7265 20.9022 58.7993C20.875 58.8721 20.8324 58.9383 20.7775 58.9932C20.7225 59.0482 20.6564 59.0907 20.5836 59.1179C20.5108 59.1451 20.4329 59.1564 20.3554 59.1509H14.4198C14.341 59.1564 14.262 59.1449 14.1881 59.1172C14.1142 59.0895 14.047 59.0463 13.9912 58.9905C13.9354 58.9347 13.8922 58.8675 13.8645 58.7936C13.8368 58.7197 13.8253 58.6407 13.8308 58.5619V57.476C13.8165 57.3882 13.8233 57.2983 13.8506 57.2136C13.878 57.1289 13.925 57.0519 13.9879 56.989C14.0509 56.9261 14.1278 56.879 14.2125 56.8517C14.2972 56.8244 14.3871 56.8176 14.475 56.8319H15.6529C15.6811 56.83 15.7087 56.8226 15.734 56.81C15.7593 56.7973 15.7818 56.7797 15.8001 56.7582C16.067 56.0692 16.1952 55.3343 16.1774 54.5956C16.182 54.5612 16.1776 54.5262 16.1647 54.494C16.1518 54.4618 16.1308 54.4334 16.1038 54.4116C15.9669 54.3199 15.8553 54.195 15.7797 54.0486C15.7041 53.9021 15.6668 53.7389 15.6713 53.5742C15.6713 53.4821 15.6713 53.4545 15.5609 53.4269C15.4049 53.3938 15.2512 53.3507 15.1007 53.2981C14.0074 52.8419 13.0319 52.1434 12.248 51.2551C12.1764 51.1903 12.1291 51.1029 12.1141 51.0074C12.099 50.912 12.117 50.8143 12.1651 50.7306C12.3032 50.4361 12.4504 50.1416 12.5792 49.8103L12.975 48.8901H12.8553C11.9866 48.4067 11.3058 47.6449 10.9228 46.7275C10.5305 45.789 10.3848 44.7657 10.4995 43.755C10.5001 43.6505 10.5227 43.5474 10.5658 43.4522C10.6089 43.357 10.6715 43.2719 10.7496 43.2025C10.8277 43.1331 10.9196 43.0809 11.0191 43.0492C11.1187 43.0176 11.2239 43.0072 11.3277 43.0188H12.7357C12.7357 43.0188 12.8645 43.0188 12.8921 43.0188C13.0049 42.8373 13.1773 42.7006 13.3799 42.6323ZM20.9076 44.7857C20.8564 45.7216 20.9845 46.6586 21.2849 47.5465C21.7871 47.2243 22.1921 46.7713 22.4564 46.2363C22.7207 45.7012 22.8342 45.1043 22.7849 44.5096H21.9935C21.9302 44.5218 21.8741 44.5581 21.837 44.6109C21.7583 44.7079 21.6562 44.7834 21.5403 44.8301C21.4243 44.8767 21.2984 44.8932 21.1744 44.8777C21.0832 44.8539 20.994 44.8232 20.9076 44.7857ZM11.9719 44.482C11.9241 45.0773 12.0404 45.6742 12.3081 46.208C12.5758 46.7418 12.9847 47.192 13.4903 47.5097C13.7875 46.6212 13.9125 45.6842 13.8584 44.7489H13.8032C13.6449 44.8264 13.4637 44.843 13.2939 44.7955C13.1242 44.748 12.9779 44.6397 12.8829 44.4912C12.871 44.4753 12.8558 44.4621 12.8384 44.4526C12.8209 44.443 12.8016 44.4374 12.7817 44.436L11.9719 44.482ZM15.1468 45.8624H15.1007C15.1007 45.9728 15.1007 46.0833 15.0363 46.1937C14.8421 47.7155 14.3379 49.1813 13.5547 50.5005C13.5159 50.5505 13.4949 50.612 13.4949 50.6754C13.4949 50.7387 13.5159 50.8002 13.5547 50.8502C13.7371 51.1385 13.9866 51.3785 14.2817 51.5496C14.3922 51.6292 14.5176 51.6858 14.6504 51.7158C14.7832 51.7459 14.9207 51.7488 15.0547 51.7244L14.3922 50.9698C14.2173 50.7858 14.1621 50.6109 14.3922 50.4085C14.3939 50.3809 14.3939 50.3532 14.3922 50.3257C14.8796 49.3266 15.1464 48.2344 15.1744 47.1232C15.202 46.7091 15.1652 46.2857 15.1468 45.8624Z" fill="url(#paint2_linear_2039_134985)"/>
<path d="M36.1006 13C34.9357 13 33.797 13.3454 32.8285 13.9926C31.8599 14.6397 31.105 15.5596 30.6593 16.6358C30.2135 17.712 30.0969 18.8962 30.3241 20.0386C30.5514 21.1811 31.1123 22.2306 31.936 23.0542C32.7597 23.8779 33.8091 24.4388 34.9516 24.6661C36.094 24.8934 37.2782 24.7767 38.3544 24.3309C39.4306 23.8852 40.3505 23.1303 40.9976 22.1617C41.6448 21.1932 41.9902 20.0545 41.9902 18.8896C41.9878 17.3284 41.3665 15.8317 40.2625 14.7277C39.1585 13.6237 37.6619 13.0024 36.1006 13V13ZM35.7785 17.7577L37.1313 18.4571C37.5259 18.653 37.8466 18.9712 38.0456 19.3642C38.2446 19.7573 38.3113 20.2041 38.2356 20.6381C38.1893 20.9778 38.0567 21.3 37.8505 21.5738C37.6442 21.8477 37.3713 22.0642 37.0576 22.2026V22.3866C37.0576 22.6087 36.9694 22.8217 36.8124 22.9788C36.6553 23.1358 36.4423 23.224 36.2202 23.224C35.9981 23.224 35.7851 23.1358 35.6281 22.9788C35.471 22.8217 35.3828 22.6087 35.3828 22.3866V22.2026C35.0525 22.093 34.7491 21.9152 34.4922 21.6805C34.2353 21.4458 34.0308 21.1596 33.892 20.8406C33.8479 20.7404 33.8241 20.6324 33.822 20.5229C33.8199 20.4134 33.8395 20.3046 33.8797 20.2028C33.92 20.1009 33.98 20.0081 34.0563 19.9296C34.1327 19.8511 34.2238 19.7885 34.3245 19.7455C34.4254 19.7012 34.534 19.6773 34.6441 19.6751C34.7543 19.6728 34.8638 19.6924 34.9664 19.7326C35.069 19.7727 35.1626 19.8328 35.242 19.9092C35.3213 19.9856 35.3848 20.077 35.4288 20.178C35.496 20.333 35.6106 20.4628 35.756 20.5487C35.9015 20.6347 36.0704 20.6724 36.2386 20.6565C36.321 20.6554 36.4003 20.6252 36.4625 20.5714C36.5248 20.5175 36.5661 20.4434 36.5791 20.362C36.598 20.2766 36.5873 20.1874 36.5489 20.1088C36.5104 20.0302 36.4465 19.967 36.3674 19.9295L35.0147 19.2301C34.6139 19.0275 34.2907 18.6991 34.0946 18.2952C33.8984 17.8912 33.8402 17.4341 33.9288 16.9939C33.9931 16.6239 34.1601 16.2793 34.4106 15.9995C34.6612 15.7197 34.9853 15.5158 35.346 15.4111V15.2914C35.346 15.0693 35.4342 14.8563 35.5912 14.6993C35.7483 14.5422 35.9613 14.454 36.1834 14.454C36.4055 14.454 36.6185 14.5422 36.7755 14.6993C36.9326 14.8563 37.0208 15.0693 37.0208 15.2914V15.5951C37.5516 15.8506 37.9728 16.2882 38.208 16.8283C38.2635 16.9301 38.2973 17.0423 38.3072 17.1578C38.3171 17.2734 38.3028 17.3897 38.2654 17.4995C38.228 17.6093 38.1682 17.7101 38.0898 17.7955C38.0114 17.8809 37.916 17.9492 37.8099 17.9959C37.7037 18.0425 37.589 18.0667 37.4731 18.0667C37.3571 18.0667 37.2424 18.0427 37.1362 17.9961C37.03 17.9495 36.9347 17.8813 36.8562 17.7959C36.7777 17.7105 36.7178 17.6098 36.6803 17.5C36.6146 17.3433 36.5007 17.2116 36.3551 17.1239C36.2095 17.0362 36.0398 16.9971 35.8705 17.0123C35.7865 17.0177 35.707 17.0517 35.645 17.1086C35.583 17.1655 35.5425 17.242 35.53 17.3252C35.5117 17.4152 35.5268 17.5088 35.5726 17.5884C35.6183 17.668 35.6915 17.7282 35.7785 17.7577Z" fill="url(#paint3_linear_2039_134985)"/>
</g>
<rect x="1" y="0.5" width="71" height="71" rx="15.5" stroke="url(#paint4_linear_2039_134985)"/>
<path d="M97.268 0.351999H105.06V2.144H102.052V12H100.196V2.144H97.268V0.351999ZM104.828 8.544C104.828 7.86133 104.988 7.248 105.308 6.704C105.628 6.14933 106.076 5.71733 106.652 5.408C107.239 5.088 107.9 4.928 108.636 4.928C109.394 4.928 110.05 5.088 110.604 5.408C111.17 5.71733 111.607 6.14933 111.916 6.704C112.226 7.248 112.38 7.86133 112.38 8.544C112.38 9.22667 112.226 9.84533 111.916 10.4C111.607 10.944 111.17 11.376 110.604 11.696C110.05 12.016 109.388 12.176 108.62 12.176C107.895 12.176 107.244 12.032 106.668 11.744C106.092 11.4453 105.639 11.024 105.308 10.48C104.988 9.936 104.828 9.29067 104.828 8.544ZM106.636 8.56C106.636 8.95467 106.722 9.31733 106.892 9.648C107.063 9.968 107.298 10.224 107.596 10.416C107.895 10.608 108.226 10.704 108.588 10.704C108.983 10.704 109.324 10.608 109.612 10.416C109.911 10.224 110.14 9.968 110.3 9.648C110.471 9.31733 110.556 8.95467 110.556 8.56C110.556 8.15467 110.471 7.792 110.3 7.472C110.14 7.14133 109.911 6.88 109.612 6.688C109.324 6.496 108.983 6.4 108.588 6.4C108.215 6.4 107.879 6.50133 107.58 6.704C107.292 6.896 107.063 7.152 106.892 7.472C106.722 7.792 106.636 8.15467 106.636 8.56ZM116.439 12.288C115.821 12.288 115.309 12.1013 114.903 11.728C114.498 11.344 114.285 10.8533 114.263 10.256V5.232H116.055V9.616C116.077 9.94667 116.173 10.2187 116.343 10.432C116.514 10.6453 116.786 10.752 117.159 10.752C117.511 10.752 117.826 10.6453 118.103 10.432C118.381 10.208 118.594 9.904 118.743 9.52C118.903 9.136 118.983 8.704 118.983 8.224V5.232H120.775V12H119.159L119.015 10.512L119.063 10.752C118.925 11.04 118.727 11.3067 118.471 11.552C118.215 11.7867 117.911 11.968 117.559 12.096C117.218 12.224 116.845 12.288 116.439 12.288ZM124.864 5.232L125.024 7.152L124.96 6.88C125.152 6.47467 125.413 6.128 125.744 5.84C126.085 5.54133 126.432 5.31733 126.784 5.168C127.136 5.008 127.424 4.928 127.648 4.928L127.568 6.72C127.056 6.67733 126.608 6.77333 126.224 7.008C125.85 7.232 125.557 7.53067 125.344 7.904C125.141 8.27733 125.04 8.672 125.04 9.088V12H123.248V5.232H124.864ZM131.098 5.232L131.258 6.688L131.194 6.496C131.429 6.02667 131.775 5.65333 132.234 5.376C132.703 5.088 133.258 4.944 133.898 4.944C134.538 4.944 135.066 5.13067 135.482 5.504C135.898 5.87733 136.111 6.368 136.122 6.976V12H134.33V7.616C134.319 7.27467 134.223 7.00267 134.042 6.8C133.861 6.58667 133.573 6.47467 133.178 6.464C132.815 6.464 132.49 6.576 132.202 6.8C131.914 7.01333 131.685 7.312 131.514 7.696C131.354 8.06933 131.274 8.50133 131.274 8.992V12H129.482V5.232H131.098ZM141.439 12.176C140.799 12.176 140.218 12.0427 139.695 11.776C139.183 11.5093 138.778 11.1147 138.479 10.592C138.181 10.0587 138.031 9.40267 138.031 8.624C138.031 7.856 138.186 7.2 138.495 6.656C138.815 6.10133 139.231 5.67467 139.743 5.376C140.266 5.07733 140.831 4.928 141.439 4.928C142.09 4.928 142.613 5.056 143.007 5.312C143.413 5.568 143.727 5.872 143.951 6.224L143.855 6.48L144.031 5.232H145.679V12H143.887V10.352L144.063 10.784C144.021 10.848 143.935 10.9547 143.807 11.104C143.679 11.2427 143.503 11.3973 143.279 11.568C143.055 11.7387 142.789 11.8827 142.479 12C142.181 12.1173 141.834 12.176 141.439 12.176ZM141.935 10.704C142.255 10.704 142.543 10.6453 142.799 10.528C143.066 10.4107 143.29 10.2453 143.471 10.032C143.663 9.81867 143.802 9.56267 143.887 9.264V7.792C143.802 7.51467 143.663 7.27467 143.471 7.072C143.279 6.85867 143.045 6.69333 142.767 6.576C142.501 6.45867 142.202 6.4 141.871 6.4C141.509 6.4 141.173 6.49067 140.863 6.672C140.554 6.85333 140.303 7.104 140.111 7.424C139.93 7.744 139.839 8.112 139.839 8.528C139.839 8.93333 139.935 9.30133 140.127 9.632C140.319 9.96267 140.575 10.224 140.895 10.416C141.215 10.608 141.562 10.704 141.935 10.704ZM149.77 5.232L149.93 6.608L149.866 6.496C150.122 6.00533 150.469 5.62133 150.906 5.344C151.354 5.06667 151.871 4.928 152.458 4.928C152.831 4.928 153.162 4.98667 153.45 5.104C153.738 5.22133 153.978 5.38667 154.17 5.6C154.373 5.81333 154.506 6.08 154.57 6.4L154.474 6.432C154.751 5.97333 155.109 5.61067 155.546 5.344C155.983 5.06667 156.447 4.928 156.938 4.928C157.599 4.928 158.127 5.12 158.522 5.504C158.917 5.87733 159.119 6.36267 159.13 6.96V12H157.354V7.664C157.343 7.33333 157.274 7.06133 157.146 6.848C157.018 6.624 156.778 6.50133 156.426 6.48C156.042 6.48 155.711 6.60267 155.434 6.848C155.157 7.08267 154.938 7.392 154.778 7.776C154.629 8.14933 154.554 8.54933 154.554 8.976V12H152.746V7.664C152.735 7.33333 152.661 7.06133 152.522 6.848C152.383 6.624 152.138 6.50133 151.786 6.48C151.413 6.48 151.087 6.60267 150.81 6.848C150.533 7.08267 150.319 7.392 150.17 7.776C150.021 8.14933 149.946 8.544 149.946 8.96V12H148.154V5.232H149.77ZM164.823 12.176C164.023 12.176 163.341 12.0213 162.775 11.712C162.21 11.4027 161.778 10.976 161.479 10.432C161.181 9.87733 161.031 9.25333 161.031 8.56C161.031 7.87733 161.202 7.264 161.543 6.72C161.885 6.176 162.343 5.744 162.919 5.424C163.506 5.09333 164.151 4.928 164.855 4.928C165.783 4.928 166.546 5.2 167.143 5.744C167.751 6.27733 168.157 7.03467 168.359 8.016L162.903 9.856L162.487 8.848L166.743 7.328L166.375 7.536C166.258 7.216 166.066 6.93867 165.799 6.704C165.543 6.46933 165.181 6.352 164.711 6.352C164.338 6.352 164.007 6.44267 163.719 6.624C163.431 6.79467 163.202 7.04 163.031 7.36C162.871 7.66933 162.791 8.03733 162.791 8.464C162.791 8.90133 162.882 9.28533 163.063 9.616C163.245 9.94667 163.49 10.2027 163.799 10.384C164.109 10.5547 164.461 10.64 164.855 10.64C165.133 10.64 165.399 10.592 165.655 10.496C165.911 10.4 166.151 10.272 166.375 10.112L167.191 11.44C166.839 11.664 166.45 11.8453 166.023 11.984C165.607 12.112 165.207 12.176 164.823 12.176ZM171.739 5.232L171.899 6.688L171.835 6.496C172.069 6.02667 172.416 5.65333 172.875 5.376C173.344 5.088 173.899 4.944 174.539 4.944C175.179 4.944 175.707 5.13067 176.123 5.504C176.539 5.87733 176.752 6.368 176.763 6.976V12H174.971V7.616C174.96 7.27467 174.864 7.00267 174.683 6.8C174.501 6.58667 174.213 6.47467 173.819 6.464C173.456 6.464 173.131 6.576 172.843 6.8C172.555 7.01333 172.325 7.312 172.155 7.696C171.995 8.06933 171.915 8.50133 171.915 8.992V12H170.123V5.232H171.739ZM179.872 2.256H181.68V5.232H183.44V6.64H181.68V12H179.872V6.64H178.72V5.232H179.872V2.256ZM190.694 0.351999H197.766V2.144H192.566V5.424H197.094V7.216H192.566V12H190.694V0.351999ZM202.261 12.176C201.461 12.176 200.778 12.0213 200.213 11.712C199.648 11.4027 199.216 10.976 198.917 10.432C198.618 9.87733 198.469 9.25333 198.469 8.56C198.469 7.87733 198.64 7.264 198.981 6.72C199.322 6.176 199.781 5.744 200.357 5.424C200.944 5.09333 201.589 4.928 202.293 4.928C203.221 4.928 203.984 5.2 204.581 5.744C205.189 6.27733 205.594 7.03467 205.797 8.016L200.341 9.856L199.925 8.848L204.181 7.328L203.813 7.536C203.696 7.216 203.504 6.93867 203.237 6.704C202.981 6.46933 202.618 6.352 202.149 6.352C201.776 6.352 201.445 6.44267 201.157 6.624C200.869 6.79467 200.64 7.04 200.469 7.36C200.309 7.66933 200.229 8.03733 200.229 8.464C200.229 8.90133 200.32 9.28533 200.501 9.616C200.682 9.94667 200.928 10.2027 201.237 10.384C201.546 10.5547 201.898 10.64 202.293 10.64C202.57 10.64 202.837 10.592 203.093 10.496C203.349 10.4 203.589 10.272 203.813 10.112L204.629 11.44C204.277 11.664 203.888 11.8453 203.461 11.984C203.045 12.112 202.645 12.176 202.261 12.176ZM210.792 12.176C209.992 12.176 209.309 12.0213 208.744 11.712C208.179 11.4027 207.747 10.976 207.448 10.432C207.149 9.87733 207 9.25333 207 8.56C207 7.87733 207.171 7.264 207.512 6.72C207.853 6.176 208.312 5.744 208.888 5.424C209.475 5.09333 210.12 4.928 210.824 4.928C211.752 4.928 212.515 5.2 213.112 5.744C213.72 6.27733 214.125 7.03467 214.328 8.016L208.872 9.856L208.456 8.848L212.712 7.328L212.344 7.536C212.227 7.216 212.035 6.93867 211.768 6.704C211.512 6.46933 211.149 6.352 210.68 6.352C210.307 6.352 209.976 6.44267 209.688 6.624C209.4 6.79467 209.171 7.04 209 7.36C208.84 7.66933 208.76 8.03733 208.76 8.464C208.76 8.90133 208.851 9.28533 209.032 9.616C209.213 9.94667 209.459 10.2027 209.768 10.384C210.077 10.5547 210.429 10.64 210.824 10.64C211.101 10.64 211.368 10.592 211.624 10.496C211.88 10.4 212.12 10.272 212.344 10.112L213.16 11.44C212.808 11.664 212.419 11.8453 211.992 11.984C211.576 12.112 211.176 12.176 210.792 12.176Z" fill="url(#paint5_linear_2039_134985)"/>
<path d="M99.556 31.904C99.556 32.4267 99.6787 32.896 99.924 33.312C100.18 33.7173 100.516 34.0373 100.932 34.272C101.348 34.5067 101.817 34.624 102.34 34.624C102.884 34.624 103.369 34.5067 103.796 34.272C104.223 34.0373 104.559 33.7173 104.804 33.312C105.049 32.896 105.172 32.4267 105.172 31.904V24.432H106.692V31.952C106.692 32.7947 106.495 33.5307 106.1 34.16C105.716 34.7893 105.193 35.2747 104.532 35.616C103.881 35.9573 103.151 36.128 102.34 36.128C101.529 36.128 100.799 35.9573 100.148 35.616C99.4973 35.2747 98.98 34.7893 98.596 34.16C98.212 33.5307 98.02 32.7947 98.02 31.952V24.432H99.556V31.904ZM111.355 36.128C110.886 36.128 110.427 36.048 109.979 35.888C109.542 35.7173 109.179 35.4667 108.891 35.136L109.515 34.272C109.792 34.5387 110.075 34.7413 110.363 34.88C110.662 35.008 110.955 35.072 111.243 35.072C111.456 35.072 111.654 35.0453 111.835 34.992C112.016 34.9387 112.16 34.8533 112.267 34.736C112.384 34.608 112.443 34.4373 112.443 34.224C112.443 33.9893 112.363 33.8027 112.203 33.664C112.054 33.5253 111.856 33.4133 111.611 33.328C111.376 33.2427 111.126 33.1627 110.859 33.088C110.315 32.9067 109.899 32.656 109.611 32.336C109.323 32.016 109.179 31.6267 109.179 31.168C109.179 30.816 109.264 30.4907 109.435 30.192C109.616 29.8827 109.878 29.632 110.219 29.44C110.571 29.248 111.003 29.152 111.515 29.152C111.974 29.152 112.384 29.2107 112.747 29.328C113.11 29.4347 113.451 29.616 113.771 29.872L113.179 30.8C112.987 30.5973 112.758 30.448 112.491 30.352C112.224 30.256 111.984 30.2027 111.771 30.192C111.59 30.1813 111.414 30.208 111.243 30.272C111.083 30.336 110.95 30.4267 110.843 30.544C110.736 30.6613 110.683 30.8 110.683 30.96C110.683 31.184 110.758 31.3653 110.907 31.504C111.056 31.6427 111.248 31.7547 111.483 31.84C111.728 31.9147 111.968 31.9947 112.203 32.08C112.534 32.176 112.827 32.304 113.083 32.464C113.339 32.624 113.542 32.8213 113.691 33.056C113.851 33.2907 113.931 33.584 113.931 33.936C113.931 34.3307 113.835 34.6987 113.643 35.04C113.462 35.3707 113.179 35.6373 112.795 35.84C112.422 36.032 111.942 36.128 111.355 36.128ZM119.087 36.16C118.329 36.16 117.679 36.0107 117.135 35.712C116.591 35.4027 116.169 34.9867 115.871 34.464C115.583 33.9307 115.439 33.3227 115.439 32.64C115.439 31.9893 115.604 31.3973 115.935 30.864C116.265 30.3307 116.708 29.904 117.263 29.584C117.817 29.264 118.436 29.104 119.119 29.104C119.993 29.104 120.719 29.36 121.295 29.872C121.871 30.384 122.26 31.088 122.463 31.984L117.007 33.904L116.655 33.024L121.135 31.392L120.815 31.6C120.687 31.248 120.473 30.944 120.175 30.688C119.876 30.4213 119.487 30.288 119.007 30.288C118.601 30.288 118.239 30.3893 117.919 30.592C117.599 30.784 117.348 31.0507 117.167 31.392C116.985 31.7333 116.895 32.1227 116.895 32.56C116.895 33.0187 116.991 33.424 117.183 33.776C117.375 34.1173 117.636 34.3893 117.967 34.592C118.308 34.784 118.692 34.88 119.119 34.88C119.407 34.88 119.684 34.8267 119.951 34.72C120.228 34.6133 120.484 34.4747 120.719 34.304L121.407 35.408C121.076 35.632 120.703 35.8133 120.287 35.952C119.881 36.0907 119.481 36.16 119.087 36.16ZM127.015 36.16C126.407 36.16 125.853 36.016 125.351 35.728C124.861 35.4293 124.471 35.0133 124.183 34.48C123.895 33.936 123.751 33.312 123.751 32.608C123.751 31.872 123.901 31.2427 124.199 30.72C124.509 30.1973 124.925 29.7973 125.447 29.52C125.97 29.2427 126.557 29.104 127.207 29.104C127.73 29.104 128.226 29.216 128.695 29.44C129.175 29.664 129.549 29.9733 129.815 30.368L129.751 30.896V23.616H131.223V36H129.735V34.352L129.895 34.768C129.586 35.1733 129.186 35.5093 128.695 35.776C128.205 36.032 127.645 36.16 127.015 36.16ZM127.479 34.896C127.874 34.896 128.226 34.8267 128.535 34.688C128.845 34.5387 129.101 34.336 129.303 34.08C129.506 33.824 129.65 33.52 129.735 33.168V31.92C129.65 31.6 129.495 31.3227 129.271 31.088C129.058 30.8427 128.797 30.6507 128.487 30.512C128.189 30.3627 127.853 30.288 127.479 30.288C127.074 30.288 126.701 30.3893 126.359 30.592C126.029 30.784 125.762 31.0507 125.559 31.392C125.357 31.7333 125.255 32.128 125.255 32.576C125.255 33.0133 125.357 33.408 125.559 33.76C125.762 34.1013 126.034 34.3787 126.375 34.592C126.717 34.7947 127.085 34.896 127.479 34.896ZM139.242 24.432H146.762V25.92H140.794V29.44H146.122V30.928H140.794V34.512H146.986V36H139.242V24.432ZM152 36.192L148.32 29.376H150.08L152.576 34.64L151.664 34.608L153.952 29.376H155.616L152.08 36.192H152ZM160.134 36.16C159.376 36.16 158.726 36.0107 158.182 35.712C157.638 35.4027 157.216 34.9867 156.918 34.464C156.63 33.9307 156.486 33.3227 156.486 32.64C156.486 31.9893 156.651 31.3973 156.982 30.864C157.312 30.3307 157.755 29.904 158.31 29.584C158.864 29.264 159.483 29.104 160.166 29.104C161.04 29.104 161.766 29.36 162.342 29.872C162.918 30.384 163.307 31.088 163.51 31.984L158.054 33.904L157.702 33.024L162.182 31.392L161.862 31.6C161.734 31.248 161.52 30.944 161.222 30.688C160.923 30.4213 160.534 30.288 160.054 30.288C159.648 30.288 159.286 30.3893 158.966 30.592C158.646 30.784 158.395 31.0507 158.214 31.392C158.032 31.7333 157.942 32.1227 157.942 32.56C157.942 33.0187 158.038 33.424 158.23 33.776C158.422 34.1173 158.683 34.3893 159.014 34.592C159.355 34.784 159.739 34.88 160.166 34.88C160.454 34.88 160.731 34.8267 160.998 34.72C161.275 34.6133 161.531 34.4747 161.766 34.304L162.454 35.408C162.123 35.632 161.75 35.8133 161.334 35.952C160.928 36.0907 160.528 36.16 160.134 36.16ZM166.702 29.376L166.846 31.296L166.766 31.04C166.937 30.6347 167.182 30.2933 167.502 30.016C167.833 29.728 168.174 29.5093 168.526 29.36C168.889 29.2 169.203 29.12 169.47 29.12L169.39 30.592C168.889 30.56 168.446 30.656 168.062 30.88C167.689 31.104 167.39 31.4027 167.166 31.776C166.953 32.1493 166.846 32.5493 166.846 32.976V36H165.374V29.376H166.702ZM173.246 36.128C172.776 36.128 172.318 36.048 171.87 35.888C171.432 35.7173 171.07 35.4667 170.782 35.136L171.406 34.272C171.683 34.5387 171.966 34.7413 172.254 34.88C172.552 35.008 172.846 35.072 173.134 35.072C173.347 35.072 173.544 35.0453 173.726 34.992C173.907 34.9387 174.051 34.8533 174.158 34.736C174.275 34.608 174.334 34.4373 174.334 34.224C174.334 33.9893 174.254 33.8027 174.094 33.664C173.944 33.5253 173.747 33.4133 173.502 33.328C173.267 33.2427 173.016 33.1627 172.75 33.088C172.206 32.9067 171.79 32.656 171.502 32.336C171.214 32.016 171.07 31.6267 171.07 31.168C171.07 30.816 171.155 30.4907 171.326 30.192C171.507 29.8827 171.768 29.632 172.11 29.44C172.462 29.248 172.894 29.152 173.406 29.152C173.864 29.152 174.275 29.2107 174.638 29.328C175 29.4347 175.342 29.616 175.662 29.872L175.07 30.8C174.878 30.5973 174.648 30.448 174.382 30.352C174.115 30.256 173.875 30.2027 173.662 30.192C173.48 30.1813 173.304 30.208 173.134 30.272C172.974 30.336 172.84 30.4267 172.734 30.544C172.627 30.6613 172.574 30.8 172.574 30.96C172.574 31.184 172.648 31.3653 172.798 31.504C172.947 31.6427 173.139 31.7547 173.374 31.84C173.619 31.9147 173.859 31.9947 174.094 32.08C174.424 32.176 174.718 32.304 174.974 32.464C175.23 32.624 175.432 32.8213 175.582 33.056C175.742 33.2907 175.822 33.584 175.822 33.936C175.822 34.3307 175.726 34.6987 175.534 35.04C175.352 35.3707 175.07 35.6373 174.686 35.84C174.312 36.032 173.832 36.128 173.246 36.128ZM178.545 26.464H180.033V29.408H181.857V30.576H180.033V36H178.545V30.576H177.329V29.408H178.545V26.464ZM183.079 32.624C183.079 31.9627 183.234 31.3653 183.543 30.832C183.863 30.2987 184.301 29.8773 184.855 29.568C185.41 29.2587 186.039 29.104 186.743 29.104C187.469 29.104 188.103 29.2587 188.647 29.568C189.191 29.8773 189.613 30.2987 189.911 30.832C190.21 31.3653 190.359 31.9627 190.359 32.624C190.359 33.2853 190.21 33.888 189.911 34.432C189.613 34.9653 189.186 35.3867 188.631 35.696C188.087 36.0053 187.453 36.16 186.727 36.16C186.023 36.16 185.394 36.016 184.839 35.728C184.295 35.4293 183.863 35.0187 183.543 34.496C183.234 33.9627 183.079 33.3387 183.079 32.624ZM184.567 32.64C184.567 33.0667 184.663 33.456 184.855 33.808C185.047 34.1493 185.303 34.4213 185.623 34.624C185.954 34.8267 186.317 34.928 186.711 34.928C187.127 34.928 187.495 34.8267 187.815 34.624C188.146 34.4213 188.402 34.1493 188.583 33.808C188.765 33.456 188.855 33.0667 188.855 32.64C188.855 32.2133 188.765 31.8293 188.583 31.488C188.402 31.136 188.146 30.8587 187.815 30.656C187.495 30.4427 187.127 30.336 186.711 30.336C186.306 30.336 185.938 30.4427 185.607 30.656C185.287 30.8693 185.031 31.152 184.839 31.504C184.658 31.8453 184.567 32.224 184.567 32.64ZM193.702 29.376L193.83 30.992L193.766 30.736C193.979 30.2453 194.326 29.856 194.806 29.568C195.286 29.2693 195.841 29.12 196.47 29.12C197.099 29.12 197.611 29.3067 198.006 29.68C198.411 30.0427 198.619 30.5173 198.63 31.104V36H197.126V31.632C197.115 31.2693 197.009 30.976 196.806 30.752C196.614 30.5173 196.31 30.4 195.894 30.4C195.51 30.4 195.163 30.5067 194.854 30.72C194.545 30.9333 194.299 31.2267 194.118 31.6C193.947 31.9733 193.862 32.4053 193.862 32.896V36H192.374V29.376H193.702ZM204.29 36.16C203.533 36.16 202.882 36.0107 202.338 35.712C201.794 35.4027 201.373 34.9867 201.074 34.464C200.786 33.9307 200.642 33.3227 200.642 32.64C200.642 31.9893 200.807 31.3973 201.138 30.864C201.469 30.3307 201.911 29.904 202.466 29.584C203.021 29.264 203.639 29.104 204.322 29.104C205.197 29.104 205.922 29.36 206.498 29.872C207.074 30.384 207.463 31.088 207.666 31.984L202.21 33.904L201.858 33.024L206.338 31.392L206.018 31.6C205.89 31.248 205.677 30.944 205.378 30.688C205.079 30.4213 204.69 30.288 204.21 30.288C203.805 30.288 203.442 30.3893 203.122 30.592C202.802 30.784 202.551 31.0507 202.37 31.392C202.189 31.7333 202.098 32.1227 202.098 32.56C202.098 33.0187 202.194 33.424 202.386 33.776C202.578 34.1173 202.839 34.3893 203.17 34.592C203.511 34.784 203.895 34.88 204.322 34.88C204.61 34.88 204.887 34.8267 205.154 34.72C205.431 34.6133 205.687 34.4747 205.922 34.304L206.61 35.408C206.279 35.632 205.906 35.8133 205.49 35.952C205.085 36.0907 204.685 36.16 204.29 36.16ZM217.345 36.16C216.726 36.16 216.161 36.0267 215.649 35.76C215.148 35.4933 214.748 35.104 214.449 34.592C214.161 34.0693 214.017 33.4347 214.017 32.688C214.017 31.952 214.172 31.3173 214.481 30.784C214.79 30.24 215.201 29.824 215.713 29.536C216.236 29.248 216.806 29.104 217.425 29.104C218.044 29.104 218.566 29.248 218.993 29.536C219.42 29.8133 219.745 30.144 219.969 30.528L219.873 30.784L220.017 29.376H221.393V36H219.905V34.272L220.065 34.656C220.022 34.7627 219.926 34.9013 219.777 35.072C219.638 35.232 219.446 35.3973 219.201 35.568C218.966 35.7387 218.694 35.8827 218.385 36C218.076 36.1067 217.729 36.16 217.345 36.16ZM217.745 34.928C218.118 34.928 218.454 34.8587 218.753 34.72C219.052 34.5813 219.297 34.3893 219.489 34.144C219.692 33.888 219.83 33.584 219.905 33.232V31.936C219.82 31.616 219.67 31.3387 219.457 31.104C219.244 30.8587 218.988 30.672 218.689 30.544C218.39 30.4053 218.06 30.336 217.697 30.336C217.302 30.336 216.94 30.432 216.609 30.624C216.278 30.816 216.012 31.0827 215.809 31.424C215.617 31.7653 215.521 32.1653 215.521 32.624C215.521 33.0507 215.622 33.44 215.825 33.792C216.028 34.144 216.3 34.4213 216.641 34.624C216.982 34.8267 217.35 34.928 217.745 34.928ZM225.824 36.128C225.355 36.128 224.896 36.048 224.448 35.888C224.011 35.7173 223.648 35.4667 223.36 35.136L223.984 34.272C224.261 34.5387 224.544 34.7413 224.832 34.88C225.131 35.008 225.424 35.072 225.712 35.072C225.925 35.072 226.123 35.0453 226.304 34.992C226.485 34.9387 226.629 34.8533 226.736 34.736C226.853 34.608 226.912 34.4373 226.912 34.224C226.912 33.9893 226.832 33.8027 226.672 33.664C226.523 33.5253 226.325 33.4133 226.08 33.328C225.845 33.2427 225.595 33.1627 225.328 33.088C224.784 32.9067 224.368 32.656 224.08 32.336C223.792 32.016 223.648 31.6267 223.648 31.168C223.648 30.816 223.733 30.4907 223.904 30.192C224.085 29.8827 224.347 29.632 224.688 29.44C225.04 29.248 225.472 29.152 225.984 29.152C226.443 29.152 226.853 29.2107 227.216 29.328C227.579 29.4347 227.92 29.616 228.24 29.872L227.648 30.8C227.456 30.5973 227.227 30.448 226.96 30.352C226.693 30.256 226.453 30.2027 226.24 30.192C226.059 30.1813 225.883 30.208 225.712 30.272C225.552 30.336 225.419 30.4267 225.312 30.544C225.205 30.6613 225.152 30.8 225.152 30.96C225.152 31.184 225.227 31.3653 225.376 31.504C225.525 31.6427 225.717 31.7547 225.952 31.84C226.197 31.9147 226.437 31.9947 226.672 32.08C227.003 32.176 227.296 32.304 227.552 32.464C227.808 32.624 228.011 32.8213 228.16 33.056C228.32 33.2907 228.4 33.584 228.4 33.936C228.4 34.3307 228.304 34.6987 228.112 35.04C227.931 35.3707 227.648 35.6373 227.264 35.84C226.891 36.032 226.411 36.128 225.824 36.128ZM238.298 36.16C237.679 36.16 237.114 36.0267 236.602 35.76C236.101 35.4933 235.701 35.104 235.402 34.592C235.114 34.0693 234.97 33.4347 234.97 32.688C234.97 31.952 235.125 31.3173 235.434 30.784C235.743 30.24 236.154 29.824 236.666 29.536C237.189 29.248 237.759 29.104 238.378 29.104C238.997 29.104 239.519 29.248 239.946 29.536C240.373 29.8133 240.698 30.144 240.922 30.528L240.826 30.784L240.97 29.376H242.346V36H240.858V34.272L241.018 34.656C240.975 34.7627 240.879 34.9013 240.73 35.072C240.591 35.232 240.399 35.3973 240.154 35.568C239.919 35.7387 239.647 35.8827 239.338 36C239.029 36.1067 238.682 36.16 238.298 36.16ZM238.698 34.928C239.071 34.928 239.407 34.8587 239.706 34.72C240.005 34.5813 240.25 34.3893 240.442 34.144C240.645 33.888 240.783 33.584 240.858 33.232V31.936C240.773 31.616 240.623 31.3387 240.41 31.104C240.197 30.8587 239.941 30.672 239.642 30.544C239.343 30.4053 239.013 30.336 238.65 30.336C238.255 30.336 237.893 30.432 237.562 30.624C237.231 30.816 236.965 31.0827 236.762 31.424C236.57 31.7653 236.474 32.1653 236.474 32.624C236.474 33.0507 236.575 33.44 236.778 33.792C236.981 34.144 237.253 34.4213 237.594 34.624C237.935 34.8267 238.303 34.928 238.698 34.928ZM250.528 36V30.704H249.392V29.376H250.528V26.576C250.528 25.616 250.741 24.88 251.168 24.368C251.605 23.856 252.245 23.6 253.088 23.6C253.312 23.6 253.557 23.632 253.824 23.696C254.101 23.76 254.341 23.8667 254.544 24.016L253.92 25.088C253.824 24.992 253.717 24.928 253.6 24.896C253.482 24.8533 253.365 24.832 253.248 24.832C252.853 24.832 252.549 24.9653 252.336 25.232C252.122 25.4987 252.016 25.952 252.016 26.592V29.376H254.112V30.704H252.016V36H250.528ZM258.759 36.16C258.001 36.16 257.351 36.0107 256.807 35.712C256.263 35.4027 255.841 34.9867 255.543 34.464C255.255 33.9307 255.111 33.3227 255.111 32.64C255.111 31.9893 255.276 31.3973 255.607 30.864C255.937 30.3307 256.38 29.904 256.935 29.584C257.489 29.264 258.108 29.104 258.791 29.104C259.665 29.104 260.391 29.36 260.967 29.872C261.543 30.384 261.932 31.088 262.135 31.984L256.679 33.904L256.327 33.024L260.807 31.392L260.487 31.6C260.359 31.248 260.145 30.944 259.847 30.688C259.548 30.4213 259.159 30.288 258.679 30.288C258.273 30.288 257.911 30.3893 257.591 30.592C257.271 30.784 257.02 31.0507 256.839 31.392C256.657 31.7333 256.567 32.1227 256.567 32.56C256.567 33.0187 256.663 33.424 256.855 33.776C257.047 34.1173 257.308 34.3893 257.639 34.592C257.98 34.784 258.364 34.88 258.791 34.88C259.079 34.88 259.356 34.8267 259.623 34.72C259.9 34.6133 260.156 34.4747 260.391 34.304L261.079 35.408C260.748 35.632 260.375 35.8133 259.959 35.952C259.553 36.0907 259.153 36.16 258.759 36.16ZM267.071 36.16C266.314 36.16 265.663 36.0107 265.119 35.712C264.575 35.4027 264.154 34.9867 263.855 34.464C263.567 33.9307 263.423 33.3227 263.423 32.64C263.423 31.9893 263.588 31.3973 263.919 30.864C264.25 30.3307 264.692 29.904 265.247 29.584C265.802 29.264 266.42 29.104 267.103 29.104C267.978 29.104 268.703 29.36 269.279 29.872C269.855 30.384 270.244 31.088 270.447 31.984L264.991 33.904L264.639 33.024L269.119 31.392L268.799 31.6C268.671 31.248 268.458 30.944 268.159 30.688C267.86 30.4213 267.471 30.288 266.991 30.288C266.586 30.288 266.223 30.3893 265.903 30.592C265.583 30.784 265.332 31.0507 265.151 31.392C264.97 31.7333 264.879 32.1227 264.879 32.56C264.879 33.0187 264.975 33.424 265.167 33.776C265.359 34.1173 265.62 34.3893 265.951 34.592C266.292 34.784 266.676 34.88 267.103 34.88C267.391 34.88 267.668 34.8267 267.935 34.72C268.212 34.6133 268.468 34.4747 268.703 34.304L269.391 35.408C269.06 35.632 268.687 35.8133 268.271 35.952C267.866 36.0907 267.466 36.16 267.071 36.16ZM278.014 26.464H279.502V29.408H281.326V30.576H279.502V36H278.014V30.576H276.798V29.408H278.014V26.464ZM282.548 32.624C282.548 31.9627 282.703 31.3653 283.012 30.832C283.332 30.2987 283.769 29.8773 284.324 29.568C284.879 29.2587 285.508 29.104 286.212 29.104C286.937 29.104 287.572 29.2587 288.116 29.568C288.66 29.8773 289.081 30.2987 289.38 30.832C289.679 31.3653 289.828 31.9627 289.828 32.624C289.828 33.2853 289.679 33.888 289.38 34.432C289.081 34.9653 288.655 35.3867 288.1 35.696C287.556 36.0053 286.921 36.16 286.196 36.16C285.492 36.16 284.863 36.016 284.308 35.728C283.764 35.4293 283.332 35.0187 283.012 34.496C282.703 33.9627 282.548 33.3387 282.548 32.624ZM284.036 32.64C284.036 33.0667 284.132 33.456 284.324 33.808C284.516 34.1493 284.772 34.4213 285.092 34.624C285.423 34.8267 285.785 34.928 286.18 34.928C286.596 34.928 286.964 34.8267 287.284 34.624C287.615 34.4213 287.871 34.1493 288.052 33.808C288.233 33.456 288.324 33.0667 288.324 32.64C288.324 32.2133 288.233 31.8293 288.052 31.488C287.871 31.136 287.615 30.8587 287.284 30.656C286.964 30.4427 286.596 30.336 286.18 30.336C285.775 30.336 285.407 30.4427 285.076 30.656C284.756 30.8693 284.5 31.152 284.308 31.504C284.127 31.8453 284.036 32.224 284.036 32.64ZM299.977 36.16C299.22 36.16 298.569 36.0107 298.025 35.712C297.481 35.4027 297.06 34.9867 296.761 34.464C296.473 33.9307 296.329 33.3227 296.329 32.64C296.329 31.9893 296.495 31.3973 296.825 30.864C297.156 30.3307 297.599 29.904 298.153 29.584C298.708 29.264 299.327 29.104 300.009 29.104C300.884 29.104 301.609 29.36 302.185 29.872C302.761 30.384 303.151 31.088 303.353 31.984L297.897 33.904L297.545 33.024L302.025 31.392L301.705 31.6C301.577 31.248 301.364 30.944 301.065 30.688C300.767 30.4213 300.377 30.288 299.897 30.288C299.492 30.288 299.129 30.3893 298.809 30.592C298.489 30.784 298.239 31.0507 298.057 31.392C297.876 31.7333 297.785 32.1227 297.785 32.56C297.785 33.0187 297.881 33.424 298.073 33.776C298.265 34.1173 298.527 34.3893 298.857 34.592C299.199 34.784 299.583 34.88 300.009 34.88C300.297 34.88 300.575 34.8267 300.841 34.72C301.119 34.6133 301.375 34.4747 301.609 34.304L302.297 35.408C301.967 35.632 301.593 35.8133 301.177 35.952C300.772 36.0907 300.372 36.16 299.977 36.16ZM306.546 29.376L306.674 30.992L306.61 30.736C306.823 30.2453 307.17 29.856 307.65 29.568C308.13 29.2693 308.685 29.12 309.314 29.12C309.943 29.12 310.455 29.3067 310.85 29.68C311.255 30.0427 311.463 30.5173 311.474 31.104V36H309.97V31.632C309.959 31.2693 309.853 30.976 309.65 30.752C309.458 30.5173 309.154 30.4 308.738 30.4C308.354 30.4 308.007 30.5067 307.698 30.72C307.389 30.9333 307.143 31.2267 306.962 31.6C306.791 31.9733 306.706 32.4053 306.706 32.896V36H305.218V29.376H306.546ZM314.702 26.464H316.19V29.408H318.014V30.576H316.19V36H314.702V30.576H313.486V29.408H314.702V26.464ZM322.884 36.16C322.126 36.16 321.476 36.0107 320.932 35.712C320.388 35.4027 319.966 34.9867 319.668 34.464C319.38 33.9307 319.236 33.3227 319.236 32.64C319.236 31.9893 319.401 31.3973 319.732 30.864C320.062 30.3307 320.505 29.904 321.06 29.584C321.614 29.264 322.233 29.104 322.916 29.104C323.79 29.104 324.516 29.36 325.092 29.872C325.668 30.384 326.057 31.088 326.26 31.984L320.804 33.904L320.452 33.024L324.932 31.392L324.612 31.6C324.484 31.248 324.27 30.944 323.972 30.688C323.673 30.4213 323.284 30.288 322.804 30.288C322.398 30.288 322.036 30.3893 321.716 30.592C321.396 30.784 321.145 31.0507 320.964 31.392C320.782 31.7333 320.692 32.1227 320.692 32.56C320.692 33.0187 320.788 33.424 320.98 33.776C321.172 34.1173 321.433 34.3893 321.764 34.592C322.105 34.784 322.489 34.88 322.916 34.88C323.204 34.88 323.481 34.8267 323.748 34.72C324.025 34.6133 324.281 34.4747 324.516 34.304L325.204 35.408C324.873 35.632 324.5 35.8133 324.084 35.952C323.678 36.0907 323.278 36.16 322.884 36.16ZM329.452 29.376L329.596 31.296L329.516 31.04C329.687 30.6347 329.932 30.2933 330.252 30.016C330.583 29.728 330.924 29.5093 331.276 29.36C331.639 29.2 331.953 29.12 332.22 29.12L332.14 30.592C331.639 30.56 331.196 30.656 330.812 30.88C330.439 31.104 330.14 31.4027 329.916 31.776C329.703 32.1493 329.596 32.5493 329.596 32.976V36H328.124V29.376H329.452ZM339.57 24.432H347.09V25.92H341.122V29.44H346.45V30.928H341.122V34.512H347.314V36H339.57V24.432ZM352.328 36.192L348.648 29.376H350.408L352.904 34.64L351.992 34.608L354.28 29.376H355.944L352.408 36.192H352.328ZM360.462 36.16C359.704 36.16 359.054 36.0107 358.51 35.712C357.966 35.4027 357.544 34.9867 357.246 34.464C356.958 33.9307 356.814 33.3227 356.814 32.64C356.814 31.9893 356.979 31.3973 357.31 30.864C357.64 30.3307 358.083 29.904 358.638 29.584C359.192 29.264 359.811 29.104 360.494 29.104C361.368 29.104 362.094 29.36 362.67 29.872C363.246 30.384 363.635 31.088 363.838 31.984L358.382 33.904L358.03 33.024L362.51 31.392L362.19 31.6C362.062 31.248 361.848 30.944 361.55 30.688C361.251 30.4213 360.862 30.288 360.382 30.288C359.976 30.288 359.614 30.3893 359.294 30.592C358.974 30.784 358.723 31.0507 358.542 31.392C358.36 31.7333 358.27 32.1227 358.27 32.56C358.27 33.0187 358.366 33.424 358.558 33.776C358.75 34.1173 359.011 34.3893 359.342 34.592C359.683 34.784 360.067 34.88 360.494 34.88C360.782 34.88 361.059 34.8267 361.326 34.72C361.603 34.6133 361.859 34.4747 362.094 34.304L362.782 35.408C362.451 35.632 362.078 35.8133 361.662 35.952C361.256 36.0907 360.856 36.16 360.462 36.16ZM367.03 29.376L367.174 31.296L367.094 31.04C367.265 30.6347 367.51 30.2933 367.83 30.016C368.161 29.728 368.502 29.5093 368.854 29.36C369.217 29.2 369.532 29.12 369.798 29.12L369.718 30.592C369.217 30.56 368.774 30.656 368.39 30.88C368.017 31.104 367.718 31.4027 367.494 31.776C367.281 32.1493 367.174 32.5493 367.174 32.976V36H365.702V29.376H367.03ZM373.046 29.376L373.174 30.864L373.11 30.736C373.355 30.2347 373.702 29.84 374.15 29.552C374.609 29.264 375.131 29.12 375.718 29.12C376.091 29.12 376.422 29.1787 376.71 29.296C376.998 29.4133 377.233 29.584 377.414 29.808C377.606 30.0213 377.729 30.288 377.782 30.608L377.702 30.656C377.958 30.176 378.31 29.8027 378.758 29.536C379.217 29.2587 379.697 29.12 380.198 29.12C380.849 29.12 381.361 29.3067 381.734 29.68C382.118 30.0427 382.315 30.5173 382.326 31.104V36H380.838V31.632C380.827 31.2907 380.742 31.008 380.582 30.784C380.433 30.5493 380.166 30.4213 379.782 30.4C379.398 30.4 379.051 30.5173 378.742 30.752C378.443 30.9867 378.209 31.2907 378.038 31.664C377.867 32.0267 377.777 32.4213 377.766 32.848V36H376.278V31.632C376.267 31.2907 376.177 31.008 376.006 30.784C375.846 30.5493 375.574 30.4213 375.19 30.4C374.795 30.4 374.449 30.5173 374.15 30.752C373.851 30.9867 373.617 31.2907 373.446 31.664C373.286 32.0373 373.206 32.4373 373.206 32.864V36H371.718V29.376H373.046ZM384.345 32.624C384.345 31.9627 384.5 31.3653 384.809 30.832C385.129 30.2987 385.566 29.8773 386.121 29.568C386.676 29.2587 387.305 29.104 388.009 29.104C388.734 29.104 389.369 29.2587 389.913 29.568C390.457 29.8773 390.878 30.2987 391.177 30.832C391.476 31.3653 391.625 31.9627 391.625 32.624C391.625 33.2853 391.476 33.888 391.177 34.432C390.878 34.9653 390.452 35.3867 389.897 35.696C389.353 36.0053 388.718 36.16 387.993 36.16C387.289 36.16 386.66 36.016 386.105 35.728C385.561 35.4293 385.129 35.0187 384.809 34.496C384.5 33.9627 384.345 33.3387 384.345 32.624ZM385.833 32.64C385.833 33.0667 385.929 33.456 386.121 33.808C386.313 34.1493 386.569 34.4213 386.889 34.624C387.22 34.8267 387.582 34.928 387.977 34.928C388.393 34.928 388.761 34.8267 389.081 34.624C389.412 34.4213 389.668 34.1493 389.849 33.808C390.03 33.456 390.121 33.0667 390.121 32.64C390.121 32.2133 390.03 31.8293 389.849 31.488C389.668 31.136 389.412 30.8587 389.081 30.656C388.761 30.4427 388.393 30.336 387.977 30.336C387.572 30.336 387.204 30.4427 386.873 30.656C386.553 30.8693 386.297 31.152 386.105 31.504C385.924 31.8453 385.833 32.224 385.833 32.64ZM393.064 32.624C393.064 31.9627 393.218 31.3653 393.528 30.832C393.848 30.2987 394.285 29.8773 394.84 29.568C395.394 29.2587 396.024 29.104 396.728 29.104C397.453 29.104 398.088 29.2587 398.632 29.568C399.176 29.8773 399.597 30.2987 399.896 30.832C400.194 31.3653 400.344 31.9627 400.344 32.624C400.344 33.2853 400.194 33.888 399.896 34.432C399.597 34.9653 399.17 35.3867 398.616 35.696C398.072 36.0053 397.437 36.16 396.712 36.16C396.008 36.16 395.378 36.016 394.824 35.728C394.28 35.4293 393.848 35.0187 393.528 34.496C393.218 33.9627 393.064 33.3387 393.064 32.624ZM394.552 32.64C394.552 33.0667 394.648 33.456 394.84 33.808C395.032 34.1493 395.288 34.4213 395.608 34.624C395.938 34.8267 396.301 34.928 396.696 34.928C397.112 34.928 397.48 34.8267 397.8 34.624C398.13 34.4213 398.386 34.1493 398.568 33.808C398.749 33.456 398.84 33.0667 398.84 32.64C398.84 32.2133 398.749 31.8293 398.568 31.488C398.386 31.136 398.13 30.8587 397.8 30.656C397.48 30.4427 397.112 30.336 396.696 30.336C396.29 30.336 395.922 30.4427 395.592 30.656C395.272 30.8693 395.016 31.152 394.824 31.504C394.642 31.8453 394.552 32.224 394.552 32.64ZM403.687 29.376L403.815 30.992L403.751 30.736C403.964 30.2453 404.311 29.856 404.791 29.568C405.271 29.2693 405.825 29.12 406.455 29.12C407.084 29.12 407.596 29.3067 407.991 29.68C408.396 30.0427 408.604 30.5173 408.615 31.104V36H407.111V31.632C407.1 31.2693 406.993 30.976 406.791 30.752C406.599 30.5173 406.295 30.4 405.879 30.4C405.495 30.4 405.148 30.5067 404.839 30.72C404.529 30.9333 404.284 31.2267 404.103 31.6C403.932 31.9733 403.847 32.4053 403.847 32.896V36H402.359V29.376H403.687ZM421.641 35.392C421.342 35.6267 420.985 35.8133 420.569 35.952C420.153 36.0907 419.737 36.16 419.321 36.16C418.595 36.16 417.961 36.016 417.417 35.728C416.873 35.44 416.446 35.04 416.137 34.528C415.838 34.0053 415.689 33.392 415.689 32.688C415.689 31.984 415.849 31.3707 416.169 30.848C416.499 30.3253 416.926 29.9253 417.449 29.648C417.982 29.36 418.553 29.216 419.161 29.216C419.694 29.216 420.169 29.2907 420.585 29.44C421.011 29.5893 421.374 29.792 421.673 30.048L420.937 31.008C420.745 30.8587 420.51 30.7253 420.233 30.608C419.955 30.4907 419.641 30.432 419.289 30.432C418.905 30.432 418.547 30.5333 418.217 30.736C417.897 30.928 417.641 31.1947 417.449 31.536C417.267 31.8773 417.177 32.2613 417.177 32.688C417.177 33.0933 417.273 33.472 417.465 33.824C417.657 34.1653 417.923 34.4373 418.265 34.64C418.606 34.832 418.995 34.928 419.433 34.928C419.721 34.928 419.982 34.8853 420.217 34.8C420.462 34.7147 420.681 34.5973 420.873 34.448L421.641 35.392ZM422.986 32.624C422.986 31.9627 423.14 31.3653 423.45 30.832C423.77 30.2987 424.207 29.8773 424.762 29.568C425.316 29.2587 425.946 29.104 426.65 29.104C427.375 29.104 428.01 29.2587 428.554 29.568C429.098 29.8773 429.519 30.2987 429.818 30.832C430.116 31.3653 430.266 31.9627 430.266 32.624C430.266 33.2853 430.116 33.888 429.818 34.432C429.519 34.9653 429.092 35.3867 428.538 35.696C427.994 36.0053 427.359 36.16 426.634 36.16C425.93 36.16 425.3 36.016 424.746 35.728C424.202 35.4293 423.77 35.0187 423.45 34.496C423.14 33.9627 422.986 33.3387 422.986 32.624ZM424.474 32.64C424.474 33.0667 424.57 33.456 424.762 33.808C424.954 34.1493 425.21 34.4213 425.53 34.624C425.86 34.8267 426.223 34.928 426.618 34.928C427.034 34.928 427.402 34.8267 427.722 34.624C428.052 34.4213 428.308 34.1493 428.49 33.808C428.671 33.456 428.762 33.0667 428.762 32.64C428.762 32.2133 428.671 31.8293 428.49 31.488C428.308 31.136 428.052 30.8587 427.722 30.656C427.402 30.4427 427.034 30.336 426.618 30.336C426.212 30.336 425.844 30.4427 425.514 30.656C425.194 30.8693 424.938 31.152 424.746 31.504C424.564 31.8453 424.474 32.224 424.474 32.64ZM433.608 29.376L433.736 30.864L433.672 30.736C433.918 30.2347 434.264 29.84 434.712 29.552C435.171 29.264 435.694 29.12 436.28 29.12C436.654 29.12 436.984 29.1787 437.272 29.296C437.56 29.4133 437.795 29.584 437.976 29.808C438.168 30.0213 438.291 30.288 438.344 30.608L438.264 30.656C438.52 30.176 438.872 29.8027 439.32 29.536C439.779 29.2587 440.259 29.12 440.76 29.12C441.411 29.12 441.923 29.3067 442.296 29.68C442.68 30.0427 442.878 30.5173 442.888 31.104V36H441.4V31.632C441.39 31.2907 441.304 31.008 441.144 30.784C440.995 30.5493 440.728 30.4213 440.344 30.4C439.96 30.4 439.614 30.5173 439.304 30.752C439.006 30.9867 438.771 31.2907 438.6 31.664C438.43 32.0267 438.339 32.4213 438.328 32.848V36H436.84V31.632C436.83 31.2907 436.739 31.008 436.568 30.784C436.408 30.5493 436.136 30.4213 435.752 30.4C435.358 30.4 435.011 30.5173 434.712 30.752C434.414 30.9867 434.179 31.2907 434.008 31.664C433.848 32.0373 433.768 32.4373 433.768 32.864V36H432.28V29.376H433.608ZM449.388 36.16C448.886 36.16 448.401 36.0427 447.932 35.808C447.473 35.5733 447.116 35.2587 446.86 34.864L446.956 34.4V39.184H445.484V29.28H446.764L446.972 30.976L446.812 30.512C447.132 30.1067 447.537 29.7707 448.028 29.504C448.518 29.2373 449.068 29.104 449.676 29.104C450.294 29.104 450.849 29.2533 451.34 29.552C451.841 29.8507 452.236 30.2667 452.524 30.8C452.812 31.3333 452.956 31.9573 452.956 32.672C452.956 33.3867 452.801 34.0053 452.492 34.528C452.182 35.0507 451.756 35.456 451.212 35.744C450.678 36.0213 450.07 36.16 449.388 36.16ZM449.1 34.976C449.526 34.976 449.916 34.88 450.268 34.688C450.63 34.4853 450.918 34.2133 451.132 33.872C451.345 33.52 451.452 33.1253 451.452 32.688C451.452 32.24 451.35 31.8453 451.148 31.504C450.945 31.152 450.673 30.8747 450.332 30.672C450.001 30.4693 449.628 30.368 449.212 30.368C448.828 30.368 448.481 30.4427 448.172 30.592C447.862 30.7413 447.606 30.9493 447.404 31.216C447.201 31.472 447.057 31.7707 446.972 32.112V33.216C447.025 33.5573 447.153 33.8613 447.356 34.128C447.558 34.3947 447.809 34.6027 448.108 34.752C448.417 34.9013 448.748 34.976 449.1 34.976ZM458.04 36.16C457.283 36.16 456.632 36.0107 456.088 35.712C455.544 35.4027 455.123 34.9867 454.824 34.464C454.536 33.9307 454.392 33.3227 454.392 32.64C454.392 31.9893 454.557 31.3973 454.888 30.864C455.219 30.3307 455.661 29.904 456.216 29.584C456.771 29.264 457.389 29.104 458.072 29.104C458.947 29.104 459.672 29.36 460.248 29.872C460.824 30.384 461.213 31.088 461.416 31.984L455.96 33.904L455.608 33.024L460.088 31.392L459.768 31.6C459.64 31.248 459.427 30.944 459.128 30.688C458.829 30.4213 458.44 30.288 457.96 30.288C457.555 30.288 457.192 30.3893 456.872 30.592C456.552 30.784 456.301 31.0507 456.12 31.392C455.939 31.7333 455.848 32.1227 455.848 32.56C455.848 33.0187 455.944 33.424 456.136 33.776C456.328 34.1173 456.589 34.3893 456.92 34.592C457.261 34.784 457.645 34.88 458.072 34.88C458.36 34.88 458.637 34.8267 458.904 34.72C459.181 34.6133 459.437 34.4747 459.672 34.304L460.36 35.408C460.029 35.632 459.656 35.8133 459.24 35.952C458.835 36.0907 458.435 36.16 458.04 36.16ZM463.92 26.464H465.408V29.408H467.232V30.576H465.408V36H463.92V30.576H462.704V29.408H463.92V26.464ZM469.03 29.376H470.518V36H469.03V29.376ZM468.918 26.976C468.918 26.7413 469.009 26.544 469.19 26.384C469.382 26.224 469.59 26.144 469.814 26.144C470.038 26.144 470.236 26.224 470.406 26.384C470.588 26.544 470.678 26.7413 470.678 26.976C470.678 27.2213 470.588 27.424 470.406 27.584C470.236 27.7333 470.038 27.808 469.814 27.808C469.59 27.808 469.382 27.728 469.19 27.568C469.009 27.408 468.918 27.2107 468.918 26.976ZM473.733 26.464H475.221V29.408H477.045V30.576H475.221V36H473.733V30.576H472.517V29.408H473.733V26.464ZM478.843 29.376H480.331V36H478.843V29.376ZM478.731 26.976C478.731 26.7413 478.822 26.544 479.003 26.384C479.195 26.224 479.403 26.144 479.627 26.144C479.851 26.144 480.048 26.224 480.219 26.384C480.4 26.544 480.491 26.7413 480.491 26.976C480.491 27.2213 480.4 27.424 480.219 27.584C480.048 27.7333 479.851 27.808 479.627 27.808C479.403 27.808 479.195 27.728 479.003 27.568C478.822 27.408 478.731 27.2107 478.731 26.976ZM485.593 36.192L481.913 29.376H483.673L486.169 34.64L485.257 34.608L487.545 29.376H489.209L485.673 36.192H485.593ZM493.727 36.16C492.97 36.16 492.319 36.0107 491.775 35.712C491.231 35.4027 490.81 34.9867 490.511 34.464C490.223 33.9307 490.079 33.3227 490.079 32.64C490.079 31.9893 490.245 31.3973 490.575 30.864C490.906 30.3307 491.349 29.904 491.903 29.584C492.458 29.264 493.077 29.104 493.759 29.104C494.634 29.104 495.359 29.36 495.935 29.872C496.511 30.384 496.901 31.088 497.103 31.984L491.647 33.904L491.295 33.024L495.775 31.392L495.455 31.6C495.327 31.248 495.114 30.944 494.815 30.688C494.517 30.4213 494.127 30.288 493.647 30.288C493.242 30.288 492.879 30.3893 492.559 30.592C492.239 30.784 491.989 31.0507 491.807 31.392C491.626 31.7333 491.535 32.1227 491.535 32.56C491.535 33.0187 491.631 33.424 491.823 33.776C492.015 34.1173 492.277 34.3893 492.607 34.592C492.949 34.784 493.333 34.88 493.759 34.88C494.047 34.88 494.325 34.8267 494.591 34.72C494.869 34.6133 495.125 34.4747 495.359 34.304L496.047 35.408C495.717 35.632 495.343 35.8133 494.927 35.952C494.522 36.0907 494.122 36.16 493.727 36.16ZM98.436 42.464H99.924V45.408H101.748V46.576H99.924V52H98.436V46.576H97.22V45.408H98.436V42.464ZM102.97 48.624C102.97 47.9627 103.125 47.3653 103.434 46.832C103.754 46.2987 104.191 45.8773 104.746 45.568C105.301 45.2587 105.93 45.104 106.634 45.104C107.359 45.104 107.994 45.2587 108.538 45.568C109.082 45.8773 109.503 46.2987 109.802 46.832C110.101 47.3653 110.25 47.9627 110.25 48.624C110.25 49.2853 110.101 49.888 109.802 50.432C109.503 50.9653 109.077 51.3867 108.522 51.696C107.978 52.0053 107.343 52.16 106.618 52.16C105.914 52.16 105.285 52.016 104.73 51.728C104.186 51.4293 103.754 51.0187 103.434 50.496C103.125 49.9627 102.97 49.3387 102.97 48.624ZM104.458 48.64C104.458 49.0667 104.554 49.456 104.746 49.808C104.938 50.1493 105.194 50.4213 105.514 50.624C105.845 50.8267 106.207 50.928 106.602 50.928C107.018 50.928 107.386 50.8267 107.706 50.624C108.037 50.4213 108.293 50.1493 108.474 49.808C108.655 49.456 108.746 49.0667 108.746 48.64C108.746 48.2133 108.655 47.8293 108.474 47.488C108.293 47.136 108.037 46.8587 107.706 46.656C107.386 46.4427 107.018 46.336 106.602 46.336C106.197 46.336 105.829 46.4427 105.498 46.656C105.178 46.8693 104.922 47.152 104.73 47.504C104.549 47.8453 104.458 48.224 104.458 48.64ZM114.361 52.256C113.763 52.256 113.267 52.0747 112.873 51.712C112.489 51.3387 112.286 50.8587 112.265 50.272V45.376H113.753V49.744C113.774 50.1067 113.875 50.4 114.057 50.624C114.249 50.848 114.547 50.9653 114.953 50.976C115.326 50.976 115.657 50.8693 115.945 50.656C116.243 50.432 116.483 50.1333 116.665 49.76C116.846 49.376 116.937 48.944 116.937 48.464V45.376H118.425V52H117.065L116.937 50.368L117.017 50.656C116.889 50.9653 116.691 51.2427 116.425 51.488C116.169 51.7227 115.865 51.9093 115.513 52.048C115.161 52.1867 114.777 52.256 114.361 52.256ZM122.327 45.376L122.471 47.296L122.391 47.04C122.562 46.6347 122.807 46.2933 123.127 46.016C123.458 45.728 123.799 45.5093 124.151 45.36C124.514 45.2 124.828 45.12 125.095 45.12L125.015 46.592C124.514 46.56 124.071 46.656 123.687 46.88C123.314 47.104 123.015 47.4027 122.791 47.776C122.578 48.1493 122.471 48.5493 122.471 48.976V52H120.999V45.376H122.327ZM128.343 45.376L128.471 46.992L128.407 46.736C128.62 46.2453 128.967 45.856 129.447 45.568C129.927 45.2693 130.481 45.12 131.111 45.12C131.74 45.12 132.252 45.3067 132.647 45.68C133.052 46.0427 133.26 46.5173 133.271 47.104V52H131.767V47.632C131.756 47.2693 131.649 46.976 131.447 46.752C131.255 46.5173 130.951 46.4 130.535 46.4C130.151 46.4 129.804 46.5067 129.495 46.72C129.185 46.9333 128.94 47.2267 128.759 47.6C128.588 47.9733 128.503 48.4053 128.503 48.896V52H127.015V45.376H128.343ZM138.611 52.16C137.992 52.16 137.427 52.0267 136.914 51.76C136.413 51.4933 136.013 51.104 135.715 50.592C135.427 50.0693 135.283 49.4347 135.283 48.688C135.283 47.952 135.437 47.3173 135.747 46.784C136.056 46.24 136.467 45.824 136.979 45.536C137.501 45.248 138.072 45.104 138.691 45.104C139.309 45.104 139.832 45.248 140.259 45.536C140.685 45.8133 141.011 46.144 141.235 46.528L141.139 46.784L141.283 45.376H142.659V52H141.171V50.272L141.331 50.656C141.288 50.7627 141.192 50.9013 141.043 51.072C140.904 51.232 140.712 51.3973 140.467 51.568C140.232 51.7387 139.96 51.8827 139.651 52C139.341 52.1067 138.995 52.16 138.611 52.16ZM139.011 50.928C139.384 50.928 139.72 50.8587 140.019 50.72C140.317 50.5813 140.563 50.3893 140.755 50.144C140.957 49.888 141.096 49.584 141.171 49.232V47.936C141.085 47.616 140.936 47.3387 140.723 47.104C140.509 46.8587 140.253 46.672 139.955 46.544C139.656 46.4053 139.325 46.336 138.963 46.336C138.568 46.336 138.205 46.432 137.875 46.624C137.544 46.816 137.277 47.0827 137.075 47.424C136.883 47.7653 136.787 48.1653 136.787 48.624C136.787 49.0507 136.888 49.44 137.091 49.792C137.293 50.144 137.565 50.4213 137.907 50.624C138.248 50.8267 138.616 50.928 139.011 50.928ZM146.562 45.376L146.69 46.864L146.626 46.736C146.871 46.2347 147.218 45.84 147.666 45.552C148.124 45.264 148.647 45.12 149.234 45.12C149.607 45.12 149.938 45.1787 150.226 45.296C150.514 45.4133 150.748 45.584 150.93 45.808C151.122 46.0213 151.244 46.288 151.298 46.608L151.218 46.656C151.474 46.176 151.826 45.8027 152.274 45.536C152.732 45.2587 153.212 45.12 153.714 45.12C154.364 45.12 154.876 45.3067 155.25 45.68C155.634 46.0427 155.831 46.5173 155.842 47.104V52H154.354V47.632C154.343 47.2907 154.258 47.008 154.098 46.784C153.948 46.5493 153.682 46.4213 153.298 46.4C152.914 46.4 152.567 46.5173 152.258 46.752C151.959 46.9867 151.724 47.2907 151.554 47.664C151.383 48.0267 151.292 48.4213 151.282 48.848V52H149.794V47.632C149.783 47.2907 149.692 47.008 149.522 46.784C149.362 46.5493 149.09 46.4213 148.706 46.4C148.311 46.4 147.964 46.5173 147.666 46.752C147.367 46.9867 147.132 47.2907 146.962 47.664C146.802 48.0373 146.722 48.4373 146.722 48.864V52H145.234V45.376H146.562ZM161.509 52.16C160.751 52.16 160.101 52.0107 159.557 51.712C159.013 51.4027 158.591 50.9867 158.293 50.464C158.005 49.9307 157.861 49.3227 157.861 48.64C157.861 47.9893 158.026 47.3973 158.357 46.864C158.687 46.3307 159.13 45.904 159.685 45.584C160.239 45.264 160.858 45.104 161.541 45.104C162.415 45.104 163.141 45.36 163.717 45.872C164.293 46.384 164.682 47.088 164.885 47.984L159.429 49.904L159.077 49.024L163.557 47.392L163.237 47.6C163.109 47.248 162.895 46.944 162.597 46.688C162.298 46.4213 161.909 46.288 161.429 46.288C161.023 46.288 160.661 46.3893 160.341 46.592C160.021 46.784 159.77 47.0507 159.589 47.392C159.407 47.7333 159.317 48.1227 159.317 48.56C159.317 49.0187 159.413 49.424 159.605 49.776C159.797 50.1173 160.058 50.3893 160.389 50.592C160.73 50.784 161.114 50.88 161.541 50.88C161.829 50.88 162.106 50.8267 162.373 50.72C162.65 50.6133 162.906 50.4747 163.141 50.304L163.829 51.408C163.498 51.632 163.125 51.8133 162.709 51.952C162.303 52.0907 161.903 52.16 161.509 52.16ZM168.077 45.376L168.205 46.992L168.141 46.736C168.354 46.2453 168.701 45.856 169.181 45.568C169.661 45.2693 170.216 45.12 170.845 45.12C171.474 45.12 171.986 45.3067 172.381 45.68C172.786 46.0427 172.994 46.5173 173.005 47.104V52H171.501V47.632C171.49 47.2693 171.384 46.976 171.181 46.752C170.989 46.5173 170.685 46.4 170.269 46.4C169.885 46.4 169.538 46.5067 169.229 46.72C168.92 46.9333 168.674 47.2267 168.493 47.6C168.322 47.9733 168.237 48.4053 168.237 48.896V52H166.749V45.376H168.077ZM176.233 42.464H177.721V45.408H179.545V46.576H177.721V52H176.233V46.576H175.017V45.408H176.233V42.464ZM187.045 42.464H188.533V45.408H190.357V46.576H188.533V52H187.045V46.576H185.829V45.408H187.045V42.464ZM191.579 48.624C191.579 47.9627 191.734 47.3653 192.043 46.832C192.363 46.2987 192.801 45.8773 193.355 45.568C193.91 45.2587 194.539 45.104 195.243 45.104C195.969 45.104 196.603 45.2587 197.147 45.568C197.691 45.8773 198.113 46.2987 198.411 46.832C198.71 47.3653 198.859 47.9627 198.859 48.624C198.859 49.2853 198.71 49.888 198.411 50.432C198.113 50.9653 197.686 51.3867 197.131 51.696C196.587 52.0053 195.953 52.16 195.227 52.16C194.523 52.16 193.894 52.016 193.339 51.728C192.795 51.4293 192.363 51.0187 192.043 50.496C191.734 49.9627 191.579 49.3387 191.579 48.624ZM193.067 48.64C193.067 49.0667 193.163 49.456 193.355 49.808C193.547 50.1493 193.803 50.4213 194.123 50.624C194.454 50.8267 194.817 50.928 195.211 50.928C195.627 50.928 195.995 50.8267 196.315 50.624C196.646 50.4213 196.902 50.1493 197.083 49.808C197.265 49.456 197.355 49.0667 197.355 48.64C197.355 48.2133 197.265 47.8293 197.083 47.488C196.902 47.136 196.646 46.8587 196.315 46.656C195.995 46.4427 195.627 46.336 195.211 46.336C194.806 46.336 194.438 46.4427 194.107 46.656C193.787 46.8693 193.531 47.152 193.339 47.504C193.158 47.8453 193.067 48.224 193.067 48.64ZM209.841 52.16C209.339 52.16 208.854 52.0427 208.385 51.808C207.926 51.5733 207.569 51.2587 207.313 50.864L207.409 50.4V55.184H205.937V45.28H207.217L207.425 46.976L207.265 46.512C207.585 46.1067 207.99 45.7707 208.481 45.504C208.971 45.2373 209.521 45.104 210.129 45.104C210.747 45.104 211.302 45.2533 211.793 45.552C212.294 45.8507 212.689 46.2667 212.977 46.8C213.265 47.3333 213.409 47.9573 213.409 48.672C213.409 49.3867 213.254 50.0053 212.945 50.528C212.635 51.0507 212.209 51.456 211.665 51.744C211.131 52.0213 210.523 52.16 209.841 52.16ZM209.553 50.976C209.979 50.976 210.369 50.88 210.721 50.688C211.083 50.4853 211.371 50.2133 211.585 49.872C211.798 49.52 211.905 49.1253 211.905 48.688C211.905 48.24 211.803 47.8453 211.601 47.504C211.398 47.152 211.126 46.8747 210.785 46.672C210.454 46.4693 210.081 46.368 209.665 46.368C209.281 46.368 208.934 46.4427 208.625 46.592C208.315 46.7413 208.059 46.9493 207.857 47.216C207.654 47.472 207.51 47.7707 207.425 48.112V49.216C207.478 49.5573 207.606 49.8613 207.809 50.128C208.011 50.3947 208.262 50.6027 208.561 50.752C208.87 50.9013 209.201 50.976 209.553 50.976ZM216.749 45.376L216.893 47.296L216.813 47.04C216.984 46.6347 217.229 46.2933 217.549 46.016C217.88 45.728 218.221 45.5093 218.573 45.36C218.936 45.2 219.25 45.12 219.517 45.12L219.437 46.592C218.936 46.56 218.493 46.656 218.109 46.88C217.736 47.104 217.437 47.4027 217.213 47.776C217 48.1493 216.893 48.5493 216.893 48.976V52H215.421V45.376H216.749ZM220.579 48.624C220.579 47.9627 220.734 47.3653 221.043 46.832C221.363 46.2987 221.801 45.8773 222.355 45.568C222.91 45.2587 223.539 45.104 224.243 45.104C224.969 45.104 225.603 45.2587 226.147 45.568C226.691 45.8773 227.113 46.2987 227.411 46.832C227.71 47.3653 227.859 47.9627 227.859 48.624C227.859 49.2853 227.71 49.888 227.411 50.432C227.113 50.9653 226.686 51.3867 226.131 51.696C225.587 52.0053 224.953 52.16 224.227 52.16C223.523 52.16 222.894 52.016 222.339 51.728C221.795 51.4293 221.363 51.0187 221.043 50.496C220.734 49.9627 220.579 49.3387 220.579 48.624ZM222.067 48.64C222.067 49.0667 222.163 49.456 222.355 49.808C222.547 50.1493 222.803 50.4213 223.123 50.624C223.454 50.8267 223.817 50.928 224.211 50.928C224.627 50.928 224.995 50.8267 225.315 50.624C225.646 50.4213 225.902 50.1493 226.083 49.808C226.265 49.456 226.355 49.0667 226.355 48.64C226.355 48.2133 226.265 47.8293 226.083 47.488C225.902 47.136 225.646 46.8587 225.315 46.656C224.995 46.4427 224.627 46.336 224.211 46.336C223.806 46.336 223.438 46.4427 223.107 46.656C222.787 46.8693 222.531 47.152 222.339 47.504C222.158 47.8453 222.067 48.224 222.067 48.64ZM232.359 52.192L228.679 45.376H230.439L232.935 50.64L232.023 50.608L234.311 45.376H235.975L232.439 52.192H232.359ZM240.493 52.16C239.736 52.16 239.085 52.0107 238.541 51.712C237.997 51.4027 237.576 50.9867 237.277 50.464C236.989 49.9307 236.845 49.3227 236.845 48.64C236.845 47.9893 237.01 47.3973 237.341 46.864C237.672 46.3307 238.114 45.904 238.669 45.584C239.224 45.264 239.842 45.104 240.525 45.104C241.4 45.104 242.125 45.36 242.701 45.872C243.277 46.384 243.666 47.088 243.869 47.984L238.413 49.904L238.061 49.024L242.541 47.392L242.221 47.6C242.093 47.248 241.88 46.944 241.581 46.688C241.282 46.4213 240.893 46.288 240.413 46.288C240.008 46.288 239.645 46.3893 239.325 46.592C239.005 46.784 238.754 47.0507 238.573 47.392C238.392 47.7333 238.301 48.1227 238.301 48.56C238.301 49.0187 238.397 49.424 238.589 49.776C238.781 50.1173 239.042 50.3893 239.373 50.592C239.714 50.784 240.098 50.88 240.525 50.88C240.813 50.88 241.09 50.8267 241.357 50.72C241.634 50.6133 241.89 50.4747 242.125 50.304L242.813 51.408C242.482 51.632 242.109 51.8133 241.693 51.952C241.288 52.0907 240.888 52.16 240.493 52.16ZM251.356 55.184L255.724 45.376H257.1L252.828 55.184H251.356ZM252.988 52.048L249.804 45.376H251.484L254.156 51.296L252.988 52.048ZM257.923 48.624C257.923 47.9627 258.078 47.3653 258.387 46.832C258.707 46.2987 259.144 45.8773 259.699 45.568C260.254 45.2587 260.883 45.104 261.587 45.104C262.312 45.104 262.947 45.2587 263.491 45.568C264.035 45.8773 264.456 46.2987 264.755 46.832C265.054 47.3653 265.203 47.9627 265.203 48.624C265.203 49.2853 265.054 49.888 264.755 50.432C264.456 50.9653 264.03 51.3867 263.475 51.696C262.931 52.0053 262.296 52.16 261.571 52.16C260.867 52.16 260.238 52.016 259.683 51.728C259.139 51.4293 258.707 51.0187 258.387 50.496C258.078 49.9627 257.923 49.3387 257.923 48.624ZM259.411 48.64C259.411 49.0667 259.507 49.456 259.699 49.808C259.891 50.1493 260.147 50.4213 260.467 50.624C260.798 50.8267 261.16 50.928 261.555 50.928C261.971 50.928 262.339 50.8267 262.659 50.624C262.99 50.4213 263.246 50.1493 263.427 49.808C263.608 49.456 263.699 49.0667 263.699 48.64C263.699 48.2133 263.608 47.8293 263.427 47.488C263.246 47.136 262.99 46.8587 262.659 46.656C262.339 46.4427 261.971 46.336 261.555 46.336C261.15 46.336 260.782 46.4427 260.451 46.656C260.131 46.8693 259.875 47.152 259.683 47.504C259.502 47.8453 259.411 48.224 259.411 48.64ZM269.314 52.256C268.717 52.256 268.221 52.0747 267.826 51.712C267.442 51.3387 267.239 50.8587 267.218 50.272V45.376H268.706V49.744C268.727 50.1067 268.829 50.4 269.01 50.624C269.202 50.848 269.501 50.9653 269.906 50.976C270.279 50.976 270.61 50.8693 270.898 50.656C271.197 50.432 271.437 50.1333 271.618 49.76C271.799 49.376 271.89 48.944 271.89 48.464V45.376H273.378V52H272.018L271.89 50.368L271.97 50.656C271.842 50.9653 271.645 51.2427 271.378 51.488C271.122 51.7227 270.818 51.9093 270.466 52.048C270.114 52.1867 269.73 52.256 269.314 52.256ZM277.28 45.376L277.424 47.296L277.344 47.04C277.515 46.6347 277.76 46.2933 278.08 46.016C278.411 45.728 278.752 45.5093 279.104 45.36C279.467 45.2 279.782 45.12 280.048 45.12L279.968 46.592C279.467 46.56 279.024 46.656 278.64 46.88C278.267 47.104 277.968 47.4027 277.744 47.776C277.531 48.1493 277.424 48.5493 277.424 48.976V52H275.952V45.376H277.28ZM288.886 52.128C288.417 52.128 287.958 52.048 287.51 51.888C287.073 51.7173 286.71 51.4667 286.422 51.136L287.046 50.272C287.324 50.5387 287.606 50.7413 287.894 50.88C288.193 51.008 288.486 51.072 288.774 51.072C288.988 51.072 289.185 51.0453 289.366 50.992C289.548 50.9387 289.692 50.8533 289.798 50.736C289.916 50.608 289.974 50.4373 289.974 50.224C289.974 49.9893 289.894 49.8027 289.734 49.664C289.585 49.5253 289.388 49.4133 289.142 49.328C288.908 49.2427 288.657 49.1627 288.39 49.088C287.846 48.9067 287.43 48.656 287.142 48.336C286.854 48.016 286.71 47.6267 286.71 47.168C286.71 46.816 286.796 46.4907 286.966 46.192C287.148 45.8827 287.409 45.632 287.75 45.44C288.102 45.248 288.534 45.152 289.046 45.152C289.505 45.152 289.916 45.2107 290.278 45.328C290.641 45.4347 290.982 45.616 291.302 45.872L290.71 46.8C290.518 46.5973 290.289 46.448 290.022 46.352C289.756 46.256 289.516 46.2027 289.302 46.192C289.121 46.1813 288.945 46.208 288.774 46.272C288.614 46.336 288.481 46.4267 288.374 46.544C288.268 46.6613 288.214 46.8 288.214 46.96C288.214 47.184 288.289 47.3653 288.438 47.504C288.588 47.6427 288.78 47.7547 289.014 47.84C289.26 47.9147 289.5 47.9947 289.734 48.08C290.065 48.176 290.358 48.304 290.614 48.464C290.87 48.624 291.073 48.8213 291.222 49.056C291.382 49.2907 291.462 49.584 291.462 49.936C291.462 50.3307 291.366 50.6987 291.174 51.04C290.993 51.3707 290.71 51.6373 290.326 51.84C289.953 52.032 289.473 52.128 288.886 52.128ZM293.546 52V39.616H295.034V52H293.546ZM296.634 47.6L299.674 52H297.93L295.642 48.432L296.634 47.6ZM294.57 49.888L294.426 48.464L298.442 45.232L299.354 46.016L294.57 49.888ZM301.515 45.376H303.003V52H301.515V45.376ZM301.403 42.976C301.403 42.7413 301.493 42.544 301.675 42.384C301.867 42.224 302.075 42.144 302.299 42.144C302.523 42.144 302.72 42.224 302.891 42.384C303.072 42.544 303.163 42.7413 303.163 42.976C303.163 43.2213 303.072 43.424 302.891 43.584C302.72 43.7333 302.523 43.808 302.299 43.808C302.075 43.808 301.867 43.728 301.675 43.568C301.493 43.408 301.403 43.2107 301.403 42.976ZM305.577 39.616H307.065V52H305.577V39.616ZM309.64 39.616H311.128V52H309.64V39.616ZM321.517 52.16C320.898 52.16 320.333 52.0267 319.821 51.76C319.319 51.4933 318.919 51.104 318.621 50.592C318.333 50.0693 318.189 49.4347 318.189 48.688C318.189 47.952 318.343 47.3173 318.653 46.784C318.962 46.24 319.373 45.824 319.885 45.536C320.407 45.248 320.978 45.104 321.597 45.104C322.215 45.104 322.738 45.248 323.165 45.536C323.591 45.8133 323.917 46.144 324.141 46.528L324.045 46.784L324.189 45.376H325.565V52H324.077V50.272L324.237 50.656C324.194 50.7627 324.098 50.9013 323.949 51.072C323.81 51.232 323.618 51.3973 323.373 51.568C323.138 51.7387 322.866 51.8827 322.557 52C322.247 52.1067 321.901 52.16 321.517 52.16ZM321.917 50.928C322.29 50.928 322.626 50.8587 322.925 50.72C323.223 50.5813 323.469 50.3893 323.661 50.144C323.863 49.888 324.002 49.584 324.077 49.232V47.936C323.991 47.616 323.842 47.3387 323.629 47.104C323.415 46.8587 323.159 46.672 322.861 46.544C322.562 46.4053 322.231 46.336 321.869 46.336C321.474 46.336 321.111 46.432 320.781 46.624C320.45 46.816 320.183 47.0827 319.981 47.424C319.789 47.7653 319.693 48.1653 319.693 48.624C319.693 49.0507 319.794 49.44 319.997 49.792C320.199 50.144 320.471 50.4213 320.813 50.624C321.154 50.8267 321.522 50.928 321.917 50.928ZM329.468 45.376L329.596 46.992L329.532 46.736C329.745 46.2453 330.092 45.856 330.572 45.568C331.052 45.2693 331.606 45.12 332.236 45.12C332.865 45.12 333.377 45.3067 333.772 45.68C334.177 46.0427 334.385 46.5173 334.396 47.104V52H332.892V47.632C332.881 47.2693 332.774 46.976 332.572 46.752C332.38 46.5173 332.076 46.4 331.66 46.4C331.276 46.4 330.929 46.5067 330.62 46.72C330.31 46.9333 330.065 47.2267 329.884 47.6C329.713 47.9733 329.628 48.4053 329.628 48.896V52H328.14V45.376H329.468ZM339.672 52.16C339.064 52.16 338.509 52.016 338.008 51.728C337.517 51.4293 337.128 51.0133 336.84 50.48C336.552 49.936 336.408 49.312 336.408 48.608C336.408 47.872 336.557 47.2427 336.856 46.72C337.165 46.1973 337.581 45.7973 338.104 45.52C338.626 45.2427 339.213 45.104 339.864 45.104C340.386 45.104 340.882 45.216 341.352 45.44C341.832 45.664 342.205 45.9733 342.472 46.368L342.408 46.896V39.616H343.88V52H342.392V50.352L342.552 50.768C342.242 51.1733 341.842 51.5093 341.352 51.776C340.861 52.032 340.301 52.16 339.672 52.16ZM340.136 50.896C340.53 50.896 340.882 50.8267 341.192 50.688C341.501 50.5387 341.757 50.336 341.96 50.08C342.162 49.824 342.306 49.52 342.392 49.168V47.92C342.306 47.6 342.152 47.3227 341.928 47.088C341.714 46.8427 341.453 46.6507 341.144 46.512C340.845 46.3627 340.509 46.288 340.136 46.288C339.73 46.288 339.357 46.3893 339.016 46.592C338.685 46.784 338.418 47.0507 338.216 47.392C338.013 47.7333 337.912 48.128 337.912 48.576C337.912 49.0133 338.013 49.408 338.216 49.76C338.418 50.1013 338.69 50.3787 339.032 50.592C339.373 50.7947 339.741 50.896 340.136 50.896ZM354.714 55.28C354.224 55.28 353.792 55.2213 353.418 55.104C353.045 54.9973 352.704 54.8427 352.394 54.64C352.096 54.4373 351.808 54.208 351.53 53.952L352.394 52.944C352.746 53.2747 353.104 53.5307 353.466 53.712C353.829 53.8933 354.234 53.984 354.682 53.984C355.184 53.984 355.605 53.8987 355.946 53.728C356.298 53.568 356.565 53.3387 356.746 53.04C356.928 52.752 357.018 52.416 357.018 52.032L357.034 50.24L357.162 50.528C356.97 50.9867 356.624 51.376 356.122 51.696C355.621 52.0053 355.013 52.16 354.298 52.16C353.69 52.16 353.13 52.0053 352.618 51.696C352.117 51.3867 351.712 50.9707 351.402 50.448C351.104 49.9147 350.954 49.3173 350.954 48.656C350.954 47.9627 351.114 47.3547 351.434 46.832C351.754 46.2987 352.176 45.8773 352.698 45.568C353.221 45.2587 353.792 45.104 354.41 45.104C354.997 45.104 355.53 45.2267 356.01 45.472C356.501 45.7067 356.858 46.0107 357.082 46.384L357.002 46.656L357.162 45.376H358.522V52.048C358.522 52.6453 358.368 53.1893 358.058 53.68C357.749 54.1707 357.312 54.56 356.746 54.848C356.181 55.136 355.504 55.28 354.714 55.28ZM352.442 48.624C352.442 49.0507 352.544 49.44 352.746 49.792C352.949 50.144 353.221 50.4213 353.562 50.624C353.914 50.8267 354.304 50.928 354.73 50.928C355.125 50.928 355.477 50.8587 355.786 50.72C356.106 50.5707 356.373 50.3733 356.586 50.128C356.8 49.872 356.949 49.5787 357.034 49.248V47.936C356.938 47.616 356.778 47.3387 356.554 47.104C356.33 46.8587 356.064 46.672 355.754 46.544C355.445 46.4053 355.104 46.336 354.73 46.336C354.304 46.336 353.914 46.432 353.562 46.624C353.221 46.816 352.949 47.088 352.746 47.44C352.544 47.7813 352.442 48.176 352.442 48.624ZM364.165 52.16C363.408 52.16 362.757 52.0107 362.213 51.712C361.669 51.4027 361.248 50.9867 360.949 50.464C360.661 49.9307 360.517 49.3227 360.517 48.64C360.517 47.9893 360.682 47.3973 361.013 46.864C361.344 46.3307 361.786 45.904 362.341 45.584C362.896 45.264 363.514 45.104 364.197 45.104C365.072 45.104 365.797 45.36 366.373 45.872C366.949 46.384 367.338 47.088 367.541 47.984L362.085 49.904L361.733 49.024L366.213 47.392L365.893 47.6C365.765 47.248 365.552 46.944 365.253 46.688C364.954 46.4213 364.565 46.288 364.085 46.288C363.68 46.288 363.317 46.3893 362.997 46.592C362.677 46.784 362.426 47.0507 362.245 47.392C362.064 47.7333 361.973 48.1227 361.973 48.56C361.973 49.0187 362.069 49.424 362.261 49.776C362.453 50.1173 362.714 50.3893 363.045 50.592C363.386 50.784 363.77 50.88 364.197 50.88C364.485 50.88 364.762 50.8267 365.029 50.72C365.306 50.6133 365.562 50.4747 365.797 50.304L366.485 51.408C366.154 51.632 365.781 51.8133 365.365 51.952C364.96 52.0907 364.56 52.16 364.165 52.16ZM370.045 42.464H371.533V45.408H373.357V46.576H371.533V52H370.045V46.576H368.829V45.408H370.045V42.464ZM381.546 45.376L381.69 47.296L381.61 47.04C381.781 46.6347 382.026 46.2933 382.346 46.016C382.677 45.728 383.018 45.5093 383.37 45.36C383.733 45.2 384.047 45.12 384.314 45.12L384.234 46.592C383.733 46.56 383.29 46.656 382.906 46.88C382.533 47.104 382.234 47.4027 382.01 47.776C381.797 48.1493 381.69 48.5493 381.69 48.976V52H380.218V45.376H381.546ZM389.024 52.16C388.267 52.16 387.616 52.0107 387.072 51.712C386.528 51.4027 386.107 50.9867 385.808 50.464C385.52 49.9307 385.376 49.3227 385.376 48.64C385.376 47.9893 385.542 47.3973 385.872 46.864C386.203 46.3307 386.646 45.904 387.2 45.584C387.755 45.264 388.374 45.104 389.056 45.104C389.931 45.104 390.656 45.36 391.232 45.872C391.808 46.384 392.198 47.088 392.4 47.984L386.944 49.904L386.592 49.024L391.072 47.392L390.752 47.6C390.624 47.248 390.411 46.944 390.112 46.688C389.814 46.4213 389.424 46.288 388.944 46.288C388.539 46.288 388.176 46.3893 387.856 46.592C387.536 46.784 387.286 47.0507 387.104 47.392C386.923 47.7333 386.832 48.1227 386.832 48.56C386.832 49.0187 386.928 49.424 387.12 49.776C387.312 50.1173 387.574 50.3893 387.904 50.592C388.246 50.784 388.63 50.88 389.056 50.88C389.344 50.88 389.622 50.8267 389.888 50.72C390.166 50.6133 390.422 50.4747 390.656 50.304L391.344 51.408C391.014 51.632 390.64 51.8133 390.224 51.952C389.819 52.0907 389.419 52.16 389.024 52.16ZM398.317 45.376L400.269 49.84L399.981 49.872L401.805 45.376H403.261L400.221 52.4L398.093 47.856L396.157 52.4L393.085 45.376H394.541L396.605 50.048L396.093 49.952L397.565 46.528L397.037 45.376H398.317ZM407.392 52.16C406.773 52.16 406.208 52.0267 405.696 51.76C405.194 51.4933 404.794 51.104 404.496 50.592C404.208 50.0693 404.064 49.4347 404.064 48.688C404.064 47.952 404.218 47.3173 404.528 46.784C404.837 46.24 405.248 45.824 405.76 45.536C406.282 45.248 406.853 45.104 407.472 45.104C408.09 45.104 408.613 45.248 409.04 45.536C409.466 45.8133 409.792 46.144 410.016 46.528L409.92 46.784L410.064 45.376H411.44V52H409.952V50.272L410.112 50.656C410.069 50.7627 409.973 50.9013 409.824 51.072C409.685 51.232 409.493 51.3973 409.248 51.568C409.013 51.7387 408.741 51.8827 408.432 52C408.122 52.1067 407.776 52.16 407.392 52.16ZM407.792 50.928C408.165 50.928 408.501 50.8587 408.8 50.72C409.098 50.5813 409.344 50.3893 409.536 50.144C409.738 49.888 409.877 49.584 409.952 49.232V47.936C409.866 47.616 409.717 47.3387 409.504 47.104C409.29 46.8587 409.034 46.672 408.736 46.544C408.437 46.4053 408.106 46.336 407.744 46.336C407.349 46.336 406.986 46.432 406.656 46.624C406.325 46.816 406.058 47.0827 405.856 47.424C405.664 47.7653 405.568 48.1653 405.568 48.624C405.568 49.0507 405.669 49.44 405.872 49.792C406.074 50.144 406.346 50.4213 406.688 50.624C407.029 50.8267 407.397 50.928 407.792 50.928ZM415.343 45.376L415.487 47.296L415.407 47.04C415.577 46.6347 415.823 46.2933 416.143 46.016C416.473 45.728 416.815 45.5093 417.167 45.36C417.529 45.2 417.844 45.12 418.111 45.12L418.031 46.592C417.529 46.56 417.087 46.656 416.703 46.88C416.329 47.104 416.031 47.4027 415.807 47.776C415.593 48.1493 415.487 48.5493 415.487 48.976V52H414.015V45.376H415.343ZM422.437 52.16C421.829 52.16 421.274 52.016 420.773 51.728C420.282 51.4293 419.893 51.0133 419.605 50.48C419.317 49.936 419.173 49.312 419.173 48.608C419.173 47.872 419.322 47.2427 419.621 46.72C419.93 46.1973 420.346 45.7973 420.869 45.52C421.392 45.2427 421.978 45.104 422.629 45.104C423.152 45.104 423.648 45.216 424.117 45.44C424.597 45.664 424.97 45.9733 425.237 46.368L425.173 46.896V39.616H426.645V52H425.157V50.352L425.317 50.768C425.008 51.1733 424.608 51.5093 424.117 51.776C423.626 52.032 423.066 52.16 422.437 52.16ZM422.901 50.896C423.296 50.896 423.648 50.8267 423.957 50.688C424.266 50.5387 424.522 50.336 424.725 50.08C424.928 49.824 425.072 49.52 425.157 49.168V47.92C425.072 47.6 424.917 47.3227 424.693 47.088C424.48 46.8427 424.218 46.6507 423.909 46.512C423.61 46.3627 423.274 46.288 422.901 46.288C422.496 46.288 422.122 46.3893 421.781 46.592C421.45 46.784 421.184 47.0507 420.981 47.392C420.778 47.7333 420.677 48.128 420.677 48.576C420.677 49.0133 420.778 49.408 420.981 49.76C421.184 50.1013 421.456 50.3787 421.797 50.592C422.138 50.7947 422.506 50.896 422.901 50.896ZM431.09 52.128C430.62 52.128 430.162 52.048 429.714 51.888C429.276 51.7173 428.914 51.4667 428.626 51.136L429.25 50.272C429.527 50.5387 429.81 50.7413 430.098 50.88C430.396 51.008 430.69 51.072 430.978 51.072C431.191 51.072 431.388 51.0453 431.57 50.992C431.751 50.9387 431.895 50.8533 432.002 50.736C432.119 50.608 432.178 50.4373 432.178 50.224C432.178 49.9893 432.098 49.8027 431.938 49.664C431.788 49.5253 431.591 49.4133 431.346 49.328C431.111 49.2427 430.86 49.1627 430.594 49.088C430.05 48.9067 429.634 48.656 429.346 48.336C429.058 48.016 428.914 47.6267 428.914 47.168C428.914 46.816 428.999 46.4907 429.17 46.192C429.351 45.8827 429.612 45.632 429.954 45.44C430.306 45.248 430.738 45.152 431.25 45.152C431.708 45.152 432.119 45.2107 432.482 45.328C432.844 45.4347 433.186 45.616 433.506 45.872L432.914 46.8C432.722 46.5973 432.492 46.448 432.226 46.352C431.959 46.256 431.719 46.2027 431.506 46.192C431.324 46.1813 431.148 46.208 430.978 46.272C430.818 46.336 430.684 46.4267 430.578 46.544C430.471 46.6613 430.418 46.8 430.418 46.96C430.418 47.184 430.492 47.3653 430.642 47.504C430.791 47.6427 430.983 47.7547 431.218 47.84C431.463 47.9147 431.703 47.9947 431.938 48.08C432.268 48.176 432.562 48.304 432.818 48.464C433.074 48.624 433.276 48.8213 433.426 49.056C433.586 49.2907 433.666 49.584 433.666 49.936C433.666 50.3307 433.57 50.6987 433.378 51.04C433.196 51.3707 432.914 51.6373 432.53 51.84C432.156 52.032 431.676 52.128 431.09 52.128ZM434.997 51.152C434.997 50.9173 435.082 50.72 435.253 50.56C435.434 50.3893 435.632 50.304 435.845 50.304C436.037 50.304 436.218 50.3893 436.389 50.56C436.57 50.72 436.661 50.9173 436.661 51.152C436.661 51.408 436.57 51.616 436.389 51.776C436.218 51.9253 436.037 52 435.845 52C435.632 52 435.434 51.9253 435.253 51.776C435.082 51.616 434.997 51.408 434.997 51.152Z" fill="white"/>
<defs>
<linearGradient id="paint0_linear_2039_134985" x1="36.1009" y1="-89.7278" x2="36.1009" y2="98.722" gradientUnits="userSpaceOnUse">
<stop stop-color="#CBA05F"/>
<stop offset="0.25" stop-color="#804E03"/>
<stop offset="0.37" stop-color="#986D05"/>
<stop offset="0.47" stop-color="#CBA05F"/>
<stop offset="0.62" stop-color="#E3D5A7"/>
<stop offset="0.73" stop-color="#E2D4A5"/>
<stop offset="0.77" stop-color="#E0CF9E"/>
<stop offset="0.8" stop-color="#DCC693"/>
<stop offset="0.82" stop-color="#D7B982"/>
<stop offset="0.84" stop-color="#CFAA6C"/>
<stop offset="0.85" stop-color="#CBA05F"/>
<stop offset="1" stop-color="#804E03"/>
</linearGradient>
<linearGradient id="paint1_linear_2039_134985" x1="54.8191" y1="-89.728" x2="54.8191" y2="98.7219" gradientUnits="userSpaceOnUse">
<stop stop-color="#CBA05F"/>
<stop offset="0.25" stop-color="#804E03"/>
<stop offset="0.37" stop-color="#986D05"/>
<stop offset="0.47" stop-color="#CBA05F"/>
<stop offset="0.62" stop-color="#E3D5A7"/>
<stop offset="0.73" stop-color="#E2D4A5"/>
<stop offset="0.77" stop-color="#E0CF9E"/>
<stop offset="0.8" stop-color="#DCC693"/>
<stop offset="0.82" stop-color="#D7B982"/>
<stop offset="0.84" stop-color="#CFAA6C"/>
<stop offset="0.85" stop-color="#CBA05F"/>
<stop offset="1" stop-color="#804E03"/>
</linearGradient>
<linearGradient id="paint2_linear_2039_134985" x1="17.383" y1="-89.728" x2="17.383" y2="98.7219" gradientUnits="userSpaceOnUse">
<stop stop-color="#CBA05F"/>
<stop offset="0.25" stop-color="#804E03"/>
<stop offset="0.37" stop-color="#986D05"/>
<stop offset="0.47" stop-color="#CBA05F"/>
<stop offset="0.62" stop-color="#E3D5A7"/>
<stop offset="0.73" stop-color="#E2D4A5"/>
<stop offset="0.77" stop-color="#E0CF9E"/>
<stop offset="0.8" stop-color="#DCC693"/>
<stop offset="0.82" stop-color="#D7B982"/>
<stop offset="0.84" stop-color="#CFAA6C"/>
<stop offset="0.85" stop-color="#CBA05F"/>
<stop offset="1" stop-color="#804E03"/>
</linearGradient>
<linearGradient id="paint3_linear_2039_134985" x1="36.1006" y1="-89.7281" x2="36.1006" y2="98.7218" gradientUnits="userSpaceOnUse">
<stop stop-color="#CBA05F"/>
<stop offset="0.25" stop-color="#804E03"/>
<stop offset="0.37" stop-color="#986D05"/>
<stop offset="0.47" stop-color="#CBA05F"/>
<stop offset="0.62" stop-color="#E3D5A7"/>
<stop offset="0.73" stop-color="#E2D4A5"/>
<stop offset="0.77" stop-color="#E0CF9E"/>
<stop offset="0.8" stop-color="#DCC693"/>
<stop offset="0.82" stop-color="#D7B982"/>
<stop offset="0.84" stop-color="#CFAA6C"/>
<stop offset="0.85" stop-color="#CBA05F"/>
<stop offset="1" stop-color="#804E03"/>
</linearGradient>
<linearGradient id="paint4_linear_2039_134985" x1="36.5" y1="0" x2="36.5" y2="72" gradientUnits="userSpaceOnUse">
<stop stop-color="#F9D390"/>
<stop offset="1" stop-color="#E2B15B"/>
</linearGradient>
<linearGradient id="paint5_linear_2039_134985" x1="314" y1="0" x2="314" y2="16" gradientUnits="userSpaceOnUse">
<stop stop-color="#FFE0AB"/>
<stop offset="1" stop-color="#E9CA94"/>
</linearGradient>
<clipPath id="clip0_2039_134985">
<rect width="51.2122" height="46.16" fill="white" transform="translate(10.5 13)"/>
</clipPath>
</defs>
</svg>
