<svg width="532" height="72" viewBox="0 0 532 72" fill="none" xmlns="http://www.w3.org/2000/svg">
<g clip-path="url(#clip0_2039_134985)">
<path d="M28.518 26.9697H43.693C43.9783 27.1538 44.2544 27.3378 44.5489 27.5127C44.6577 27.6021 44.7876 27.6623 44.9262 27.6875C45.8464 27.6875 46.7667 27.6875 47.6869 27.6875C48.0277 27.6788 48.3593 27.7991 48.6152 28.0243C48.8712 28.2495 49.0326 28.5631 49.0673 28.9023C49.2502 30.2674 49.1879 31.6542 48.8833 32.9974C48.6536 34.1403 48.1921 35.2239 47.5274 36.1815C46.8626 37.1391 46.0086 37.9502 45.0182 38.5649L44.466 38.8962C44.4874 38.9588 44.5119 39.0203 44.5397 39.0803C45.0182 40.157 45.4599 41.2337 45.9937 42.3104C46.073 42.4563 46.1049 42.6232 46.0851 42.7881C46.0654 42.953 45.9948 43.1076 45.8832 43.2306C44.2052 45.1562 42.0456 46.6013 39.6255 47.4178C39.5825 47.4256 39.5415 47.4417 39.5049 47.4654C39.4682 47.489 39.4365 47.5197 39.4117 47.5556C39.3869 47.5915 39.3695 47.632 39.3603 47.6746C39.3512 47.7173 39.3506 47.7614 39.3586 47.8043C39.3624 48.0921 39.2936 48.3762 39.1584 48.6304C39.0233 48.8845 38.8263 49.1005 38.5856 49.2583C38.5185 49.299 38.464 49.3576 38.4283 49.4275C38.3925 49.4973 38.3769 49.5758 38.3831 49.654C38.3646 51.0096 38.5826 52.358 39.0273 53.6387C39.0491 53.7209 39.1008 53.792 39.1723 53.838C39.2439 53.884 39.33 53.9015 39.4138 53.8872C40.1776 53.8872 40.9415 53.8872 41.7053 53.8872C41.8515 53.8777 41.9981 53.8996 42.1353 53.9512C42.2724 54.0029 42.397 54.0833 42.5006 54.1869C42.6043 54.2906 42.6846 54.4151 42.7363 54.5523C42.788 54.6894 42.8098 54.836 42.8004 54.9823C42.8004 55.7308 42.8004 56.4762 42.8004 57.2185C42.8071 57.3645 42.783 57.5103 42.7297 57.6463C42.6763 57.7823 42.5949 57.9056 42.4907 58.0081C42.3865 58.1105 42.2619 58.1899 42.125 58.2409C41.988 58.292 41.8419 58.3136 41.6961 58.3044H30.4782C30.3274 58.3157 30.1761 58.2941 30.0346 58.2409C29.8931 58.1878 29.7649 58.1045 29.6589 57.9967C29.5529 57.889 29.4716 57.7594 29.4208 57.6171C29.37 57.4747 29.3508 57.323 29.3646 57.1725V55.1019C29.3381 54.936 29.3511 54.7661 29.4026 54.6061C29.4541 54.4462 29.5427 54.3006 29.6611 54.1813C29.7794 54.0621 29.9243 53.9724 30.0839 53.9197C30.2435 53.867 30.4132 53.8527 30.5794 53.878C31.3248 53.878 32.0702 53.878 32.8156 53.878C32.8695 53.8746 32.922 53.8597 32.9696 53.8343C33.0172 53.8089 33.0589 53.7736 33.0917 53.7307C33.5947 52.425 33.8415 51.0347 33.8187 49.6356C33.8152 49.583 33.8002 49.5319 33.7748 49.4858C33.7493 49.4396 33.7141 49.3997 33.6714 49.3687C33.412 49.1959 33.2008 48.9599 33.0576 48.6831C32.9143 48.4062 32.8437 48.0975 32.8524 47.7859C32.8576 47.7537 32.8562 47.7209 32.8482 47.6893C32.8402 47.6577 32.8259 47.6281 32.8061 47.6022C32.7863 47.5764 32.7614 47.5549 32.7329 47.539C32.7045 47.5231 32.6731 47.5132 32.6407 47.5098C32.3555 47.4178 32.061 47.3166 31.7849 47.1969C29.7066 46.3305 27.8507 45.0062 26.3554 43.3227C26.2367 43.2046 26.1584 43.0519 26.132 42.8865C26.1055 42.7211 26.1322 42.5516 26.2082 42.4024C26.475 41.8411 26.7419 41.2889 26.9996 40.7183C27.2573 40.1478 27.5057 39.5496 27.745 38.9791C27.745 38.933 27.6898 38.9146 27.6714 38.9054L27.5057 38.8134C25.8476 37.9081 24.5488 36.4632 23.8247 34.7183C23.1036 32.9569 22.85 31.039 23.0885 29.1507C23.0841 28.9477 23.1237 28.7462 23.2045 28.5599C23.2853 28.3736 23.4054 28.207 23.5566 28.0715C23.7078 27.9361 23.8866 27.8349 24.0806 27.7749C24.2746 27.715 24.4792 27.6977 24.6805 27.7243H27.2849C27.3861 27.7243 27.5333 27.7243 27.5793 27.6415C27.805 27.3157 28.1368 27.0782 28.518 26.9697ZM42.782 31.0557C42.69 32.8096 42.9337 34.5649 43.4998 36.2275C44.4477 35.6165 45.2121 34.7597 45.7112 33.7483C46.2104 32.737 46.4257 31.6092 46.3341 30.4851C45.8372 30.4851 45.3403 30.4851 44.8341 30.4851C44.7329 30.4851 44.6133 30.5955 44.5304 30.6784C44.3847 30.8628 44.1936 31.0063 43.9759 31.095C43.7582 31.1837 43.5213 31.2145 43.2881 31.1845C43.1172 31.1506 42.9483 31.1076 42.782 31.0557ZM25.8401 30.4851C25.7848 32.9054 26.8155 35.2336 28.7113 36.2275C29.2736 34.5738 29.5111 32.8271 29.4107 31.0833C29.4107 31.0833 29.337 31.0833 29.3094 31.0833C29.0135 31.2145 28.6809 31.2376 28.3697 31.1484C28.0585 31.0592 27.7885 30.8636 27.607 30.5955C27.5588 30.5356 27.4898 30.4961 27.4137 30.4851H25.8401ZM31.8677 33.117H31.7665C31.7205 33.3287 31.6745 33.5311 31.6469 33.7428C31.2785 36.6297 30.3233 39.4107 28.8401 41.9147C28.7724 42.0119 28.7361 42.1275 28.7361 42.246C28.7361 42.3644 28.7724 42.48 28.8401 42.5773C29.1953 43.1167 29.667 43.5695 30.2205 43.9024C30.6471 44.1974 31.1726 44.3131 31.6837 44.2245C31.2604 43.746 30.8555 43.3043 30.4321 42.8073C30.0088 42.3104 30.0088 42.1171 30.3677 41.7398C30.4008 41.6875 30.4286 41.632 30.4505 41.5742C31.3807 39.6849 31.8864 37.615 31.9322 35.5097C31.9598 34.6999 31.8953 33.8992 31.8677 33.0986V33.117Z" fill="url(#paint0_linear_2039_134985)"/>
<path d="M50.816 42.6323H58.8222L59.2732 42.9176C59.3325 42.9657 59.4016 43.0002 59.4756 43.0188H60.9296C61.1095 43.0156 61.284 43.08 61.4186 43.1993C61.5533 43.3186 61.6382 43.4841 61.6566 43.663C61.7503 44.3838 61.7192 45.1154 61.5646 45.8256C61.4403 46.4276 61.1951 46.9982 60.8439 47.5028C60.4928 48.0073 60.043 48.4355 59.5216 48.7612L59.2272 48.9361V49.0281C59.4848 49.5987 59.7333 50.1692 60.0002 50.7398C60.0475 50.8192 60.0668 50.9122 60.0552 51.0039C60.0435 51.0957 60.0015 51.1809 59.9358 51.2459C59.0677 52.2695 57.9435 53.0443 56.6781 53.4913C56.6307 53.5003 56.5887 53.5275 56.5612 53.5671C56.5336 53.6067 56.5227 53.6555 56.5308 53.703C56.531 53.8537 56.4942 54.0022 56.4236 54.1354C56.353 54.2686 56.2508 54.3824 56.1259 54.4668C56.0899 54.4886 56.0606 54.5199 56.0411 54.5572C56.0216 54.5945 56.0128 54.6365 56.0155 54.6785C56.0226 55.3843 56.147 56.084 56.3836 56.749C56.3836 56.8503 56.4756 56.8779 56.586 56.8779C56.9909 56.8779 57.3959 56.8779 57.7916 56.8779C57.8686 56.871 57.9463 56.881 58.0191 56.9071C58.0919 56.9332 58.1582 56.9748 58.2134 57.0291C58.2685 57.0834 58.3112 57.149 58.3385 57.2214C58.3658 57.2938 58.377 57.3713 58.3713 57.4484C58.3713 57.8441 58.3713 58.2399 58.3713 58.6264C58.3768 58.7039 58.3655 58.7817 58.3383 58.8545C58.3111 58.9273 58.2686 58.9935 58.2136 59.0484C58.1587 59.1034 58.0925 59.1459 58.0197 59.1731C57.9469 59.2003 57.8691 59.2116 57.7916 59.2061H51.8559C51.7772 59.2116 51.6982 59.2001 51.6242 59.1724C51.5503 59.1447 51.4832 59.1015 51.4274 59.0457C51.3715 58.9899 51.3283 58.9228 51.3007 58.8488C51.273 58.7749 51.2615 58.6959 51.267 58.6172V57.476C51.2527 57.3882 51.2595 57.2983 51.2868 57.2136C51.3141 57.1289 51.3612 57.0519 51.4241 56.989C51.487 56.9261 51.564 56.879 51.6487 56.8517C51.7333 56.8244 51.8233 56.8176 51.9111 56.8319H53.0891C53.1173 56.83 53.1448 56.8226 53.1701 56.81C53.1954 56.7973 53.2179 56.7797 53.2363 56.7582C53.5032 56.0692 53.6314 55.3343 53.6136 54.5956C53.6111 54.5689 53.6033 54.5429 53.5907 54.5192C53.578 54.4955 53.5608 54.4746 53.54 54.4576C53.403 54.3659 53.2915 54.241 53.2159 54.0946C53.1402 53.9481 53.1029 53.7849 53.1075 53.6202C53.1075 53.5281 53.1075 53.5005 52.997 53.4729C52.8434 53.4274 52.6927 53.372 52.5461 53.3073C51.4494 52.8523 50.4707 52.1537 49.6841 51.2643C49.6168 51.2006 49.5723 51.1166 49.5573 51.0252C49.5424 50.9338 49.5578 50.84 49.6013 50.7582C49.7393 50.4637 49.8866 50.1692 50.0154 49.8379L50.4111 48.9177L50.2915 48.8901C49.4204 48.4095 48.7389 47.6469 48.3589 46.7275C47.9838 45.7942 47.8509 44.7811 47.9724 43.7826C47.9731 43.6782 47.9957 43.575 48.0388 43.4798C48.0819 43.3846 48.1445 43.2995 48.2226 43.2301C48.3007 43.1607 48.3925 43.1085 48.4921 43.0768C48.5917 43.0452 48.6968 43.0348 48.8007 43.0464H50.1718C50.1718 43.0464 50.3007 43.0464 50.3283 43.0464C50.4361 42.8545 50.6092 42.7076 50.816 42.6323ZM58.3529 44.7857C58.3018 45.7216 58.4299 46.6586 58.7302 47.5465C59.2301 47.2174 59.6306 46.758 59.8885 46.218C60.1463 45.6779 60.2518 45.0777 60.1934 44.482H59.402C59.3387 44.4942 59.2826 44.5305 59.2456 44.5833C59.1663 44.6797 59.0641 44.7546 58.9483 44.8012C58.8326 44.8479 58.7069 44.8647 58.583 44.8501C58.505 44.8337 58.4281 44.8122 58.3529 44.7857ZM49.4172 44.482C49.3695 45.0773 49.4857 45.6742 49.7534 46.208C50.0211 46.7418 50.43 47.192 50.9357 47.5097C51.2329 46.6212 51.3578 45.6842 51.3038 44.7489H51.2485C51.0903 44.8264 50.909 44.843 50.7393 44.7955C50.5696 44.748 50.4233 44.6397 50.3283 44.4912C50.3164 44.4753 50.3012 44.4621 50.2837 44.4526C50.2662 44.443 50.2469 44.4374 50.2271 44.436L49.4172 44.482ZM52.5921 45.8624C52.5921 45.9728 52.5921 46.0833 52.5277 46.1937C52.3178 47.7228 51.7946 49.1921 50.9909 50.5097C50.9521 50.5597 50.931 50.6212 50.931 50.6846C50.931 50.7479 50.9521 50.8094 50.9909 50.8594C51.1733 51.1477 51.4227 51.3877 51.7179 51.5588C51.8283 51.6384 51.9537 51.695 52.0866 51.725C52.2194 51.7551 52.3569 51.758 52.4909 51.7336L51.8283 50.979C51.6535 50.795 51.5982 50.6201 51.8283 50.4177C51.83 50.3901 51.83 50.3624 51.8283 50.3349C52.3157 49.3358 52.5825 48.2436 52.6105 47.1324C52.6381 46.7091 52.6013 46.2857 52.5829 45.8624H52.5921Z" fill="url(#paint1_linear_2039_134985)"/>
<path d="M13.3799 42.6323H21.3861L21.837 42.9176C21.8963 42.9657 21.9654 43.0002 22.0395 43.0188H23.4935C23.6733 43.0156 23.8479 43.08 23.9825 43.1993C24.1171 43.3186 24.2021 43.4841 24.2205 43.663C24.3142 44.3838 24.283 45.1154 24.1285 45.8256C24.0041 46.4276 23.7589 46.9982 23.4078 47.5028C23.0566 48.0073 22.6068 48.4355 22.0855 48.7612L21.791 48.9361V49.0281C22.0487 49.5987 22.2971 50.1692 22.564 50.7398C22.6113 50.8192 22.6307 50.9122 22.619 51.0039C22.6073 51.0957 22.5653 51.1809 22.4996 51.2459C21.6315 52.2695 20.5074 53.0443 19.2419 53.4913C19.1945 53.5003 19.1526 53.5275 19.125 53.5671C19.0975 53.6067 19.0866 53.6555 19.0947 53.703C19.0862 53.8443 19.0453 53.9817 18.975 54.1046C18.9048 54.2275 18.8072 54.3326 18.6897 54.4116C18.6537 54.4334 18.6244 54.4647 18.6049 54.502C18.5855 54.5393 18.5766 54.5812 18.5793 54.6232C18.5864 55.3291 18.7108 56.0288 18.9474 56.6938C18.9602 56.736 18.9876 56.7721 19.0248 56.7958C19.0619 56.8194 19.1063 56.8289 19.1499 56.8227C19.5548 56.8227 19.9597 56.8227 20.3554 56.8227C20.4325 56.8158 20.5101 56.8257 20.583 56.8519C20.6558 56.878 20.7221 56.9196 20.7772 56.9739C20.8324 57.0281 20.8751 57.0938 20.9023 57.1662C20.9296 57.2386 20.9408 57.316 20.9352 57.3932C20.9352 57.7889 20.9352 58.1846 20.9352 58.5711C20.9406 58.6487 20.9294 58.7265 20.9022 58.7993C20.875 58.8721 20.8324 58.9383 20.7775 58.9932C20.7225 59.0482 20.6564 59.0907 20.5836 59.1179C20.5108 59.1451 20.4329 59.1564 20.3554 59.1509H14.4198C14.341 59.1564 14.262 59.1449 14.1881 59.1172C14.1142 59.0895 14.047 59.0463 13.9912 58.9905C13.9354 58.9347 13.8922 58.8675 13.8645 58.7936C13.8368 58.7197 13.8253 58.6407 13.8308 58.5619V57.476C13.8165 57.3882 13.8233 57.2983 13.8506 57.2136C13.878 57.1289 13.925 57.0519 13.9879 56.989C14.0509 56.9261 14.1278 56.879 14.2125 56.8517C14.2972 56.8244 14.3871 56.8176 14.475 56.8319H15.6529C15.6811 56.83 15.7087 56.8226 15.734 56.81C15.7593 56.7973 15.7818 56.7797 15.8001 56.7582C16.067 56.0692 16.1952 55.3343 16.1774 54.5956C16.182 54.5612 16.1776 54.5262 16.1647 54.494C16.1518 54.4618 16.1308 54.4334 16.1038 54.4116C15.9669 54.3199 15.8553 54.195 15.7797 54.0486C15.7041 53.9021 15.6668 53.7389 15.6713 53.5742C15.6713 53.4821 15.6713 53.4545 15.5609 53.4269C15.4049 53.3938 15.2512 53.3507 15.1007 53.2981C14.0074 52.8419 13.0319 52.1434 12.248 51.2551C12.1764 51.1903 12.1291 51.1029 12.1141 51.0074C12.099 50.912 12.117 50.8143 12.1651 50.7306C12.3032 50.4361 12.4504 50.1416 12.5792 49.8103L12.975 48.8901H12.8553C11.9866 48.4067 11.3058 47.6449 10.9228 46.7275C10.5305 45.789 10.3848 44.7657 10.4995 43.755C10.5001 43.6505 10.5227 43.5474 10.5658 43.4522C10.6089 43.357 10.6715 43.2719 10.7496 43.2025C10.8277 43.1331 10.9196 43.0809 11.0191 43.0492C11.1187 43.0176 11.2239 43.0072 11.3277 43.0188H12.7357C12.7357 43.0188 12.8645 43.0188 12.8921 43.0188C13.0049 42.8373 13.1773 42.7006 13.3799 42.6323ZM20.9076 44.7857C20.8564 45.7216 20.9845 46.6586 21.2849 47.5465C21.7871 47.2243 22.1921 46.7713 22.4564 46.2363C22.7207 45.7012 22.8342 45.1043 22.7849 44.5096H21.9935C21.9302 44.5218 21.8741 44.5581 21.837 44.6109C21.7583 44.7079 21.6562 44.7834 21.5403 44.8301C21.4243 44.8767 21.2984 44.8932 21.1744 44.8777C21.0832 44.8539 20.994 44.8232 20.9076 44.7857ZM11.9719 44.482C11.9241 45.0773 12.0404 45.6742 12.3081 46.208C12.5758 46.7418 12.9847 47.192 13.4903 47.5097C13.7875 46.6212 13.9125 45.6842 13.8584 44.7489H13.8032C13.6449 44.8264 13.4637 44.843 13.2939 44.7955C13.1242 44.748 12.9779 44.6397 12.8829 44.4912C12.871 44.4753 12.8558 44.4621 12.8384 44.4526C12.8209 44.443 12.8016 44.4374 12.7817 44.436L11.9719 44.482ZM15.1468 45.8624H15.1007C15.1007 45.9728 15.1007 46.0833 15.0363 46.1937C14.8421 47.7155 14.3379 49.1813 13.5547 50.5005C13.5159 50.5505 13.4949 50.612 13.4949 50.6754C13.4949 50.7387 13.5159 50.8002 13.5547 50.8502C13.7371 51.1385 13.9866 51.3785 14.2817 51.5496C14.3922 51.6292 14.5176 51.6858 14.6504 51.7158C14.7832 51.7459 14.9207 51.7488 15.0547 51.7244L14.3922 50.9698C14.2173 50.7858 14.1621 50.6109 14.3922 50.4085C14.3939 50.3809 14.3939 50.3532 14.3922 50.3257C14.8796 49.3266 15.1464 48.2344 15.1744 47.1232C15.202 46.7091 15.1652 46.2857 15.1468 45.8624Z" fill="url(#paint2_linear_2039_134985)"/>
<path d="M36.1006 13C34.9357 13 33.797 13.3454 32.8285 13.9926C31.8599 14.6397 31.105 15.5596 30.6593 16.6358C30.2135 17.712 30.0969 18.8962 30.3241 20.0386C30.5514 21.1811 31.1123 22.2306 31.936 23.0542C32.7597 23.8779 33.8091 24.4388 34.9516 24.6661C36.094 24.8934 37.2782 24.7767 38.3544 24.3309C39.4306 23.8852 40.3505 23.1303 40.9976 22.1617C41.6448 21.1932 41.9902 20.0545 41.9902 18.8896C41.9878 17.3284 41.3665 15.8317 40.2625 14.7277C39.1585 13.6237 37.6619 13.0024 36.1006 13V13ZM35.7785 17.7577L37.1313 18.4571C37.5259 18.653 37.8466 18.9712 38.0456 19.3642C38.2446 19.7573 38.3113 20.2041 38.2356 20.6381C38.1893 20.9778 38.0567 21.3 37.8505 21.5738C37.6442 21.8477 37.3713 22.0642 37.0576 22.2026V22.3866C37.0576 22.6087 36.9694 22.8217 36.8124 22.9788C36.6553 23.1358 36.4423 23.224 36.2202 23.224C35.9981 23.224 35.7851 23.1358 35.6281 22.9788C35.471 22.8217 35.3828 22.6087 35.3828 22.3866V22.2026C35.0525 22.093 34.7491 21.9152 34.4922 21.6805C34.2353 21.4458 34.0308 21.1596 33.892 20.8406C33.8479 20.7404 33.8241 20.6324 33.822 20.5229C33.8199 20.4134 33.8395 20.3046 33.8797 20.2028C33.92 20.1009 33.98 20.0081 34.0563 19.9296C34.1327 19.8511 34.2238 19.7885 34.3245 19.7455C34.4254 19.7012 34.534 19.6773 34.6441 19.6751C34.7543 19.6728 34.8638 19.6924 34.9664 19.7326C35.069 19.7727 35.1626 19.8328 35.242 19.9092C35.3213 19.9856 35.3848 20.077 35.4288 20.178C35.496 20.333 35.6106 20.4628 35.756 20.5487C35.9015 20.6347 36.0704 20.6724 36.2386 20.6565C36.321 20.6554 36.4003 20.6252 36.4625 20.5714C36.5248 20.5175 36.5661 20.4434 36.5791 20.362C36.598 20.2766 36.5873 20.1874 36.5489 20.1088C36.5104 20.0302 36.4465 19.967 36.3674 19.9295L35.0147 19.2301C34.6139 19.0275 34.2907 18.6991 34.0946 18.2952C33.8984 17.8912 33.8402 17.4341 33.9288 16.9939C33.9931 16.6239 34.1601 16.2793 34.4106 15.9995C34.6612 15.7197 34.9853 15.5158 35.346 15.4111V15.2914C35.346 15.0693 35.4342 14.8563 35.5912 14.6993C35.7483 14.5422 35.9613 14.454 36.1834 14.454C36.4055 14.454 36.6185 14.5422 36.7755 14.6993C36.9326 14.8563 37.0208 15.0693 37.0208 15.2914V15.5951C37.5516 15.8506 37.9728 16.2882 38.208 16.8283C38.2635 16.9301 38.2973 17.0423 38.3072 17.1578C38.3171 17.2734 38.3028 17.3897 38.2654 17.4995C38.228 17.6093 38.1682 17.7101 38.0898 17.7955C38.0114 17.8809 37.916 17.9492 37.8099 17.9959C37.7037 18.0425 37.589 18.0667 37.4731 18.0667C37.3571 18.0667 37.2424 18.0427 37.1362 17.9961C37.03 17.9495 36.9347 17.8813 36.8562 17.7959C36.7777 17.7105 36.7178 17.6098 36.6803 17.5C36.6146 17.3433 36.5007 17.2116 36.3551 17.1239C36.2095 17.0362 36.0398 16.9971 35.8705 17.0123C35.7865 17.0177 35.707 17.0517 35.645 17.1086C35.583 17.1655 35.5425 17.242 35.53 17.3252C35.5117 17.4152 35.5268 17.5088 35.5726 17.5884C35.6183 17.668 35.6915 17.7282 35.7785 17.7577Z" fill="url(#paint3_linear_2039_134985)"/>
</g>
<rect x="1" y="0.5" width="71" height="71" rx="15.5" stroke="url(#paint4_linear_2039_134985)"/>
<path d="M97.268 0.351999H105.06V2.144H102.052V12H100.196V2.144H97.268V0.351999ZM104.828 8.544C104.828 7.86133 104.988 7.248 105.308 6.704C105.628 6.14933 106.076 5.71733 106.652 5.408C107.239 5.088 107.9 4.928 108.636 4.928C109.394 4.928 110.05 5.088 110.604 5.408C111.17 5.71733 111.607 6.14933 111.916 6.704C112.226 7.248 112.38 7.86133 112.38 8.544C112.38 9.22667 112.226 9.84533 111.916 10.4C111.607 10.944 111.17 11.376 110.604 11.696C110.05 12.016 109.388 12.176 108.62 12.176C107.895 12.176 107.244 12.032 106.668 11.744C106.092 11.4453 105.639 11.024 105.308 10.48C104.988 9.936 104.828 9.29067 104.828 8.544ZM106.636 8.56C106.636 8.95467 106.722 9.31733 106.892 9.648C107.063 9.968 107.298 10.224 107.596 10.416C107.895 10.608 108.226 10.704 108.588 10.704C108.983 10.704 109.324 10.608 109.612 10.416C109.911 10.224 110.14 9.968 110.3 9.648C110.471 9.31733 110.556 8.95467 110.556 8.56C110.556 8.15467 110.471 7.792 110.3 7.472C110.14 7.14133 109.911 6.88 109.612 6.688C109.324 6.496 108.983 6.4 108.588 6.4C108.215 6.4 107.879 6.50133 107.58 6.704C107.292 6.896 107.063 7.152 106.892 7.472C106.722 7.792 106.636 8.15467 106.636 8.56ZM116.439 12.288C115.821 12.288 115.309 12.1013 114.903 11.728C114.498 11.344 114.285 10.8533 114.263 10.256V5.232H116.055V9.616C116.077 9.94667 116.173 10.2187 116.343 10.432C116.514 10.6453 116.786 10.752 117.159 10.752C117.511 10.752 117.826 10.6453 118.103 10.432C118.381 10.208 118.594 9.904 118.743 9.52C118.903 9.136 118.983 8.704 118.983 8.224V5.232H120.775V12H119.159L119.015 10.512L119.063 10.752C118.925 11.04 118.727 11.3067 118.471 11.552C118.215 11.7867 117.911 11.968 117.559 12.096C117.218 12.224 116.845 12.288 116.439 12.288ZM124.864 5.232L125.024 7.152L124.96 6.88C125.152 6.47467 125.413 6.128 125.744 5.84C126.085 5.54133 126.432 5.31733 126.784 5.168C127.136 5.008 127.424 4.928 127.648 4.928L127.568 6.72C127.056 6.67733 126.608 6.77333 126.224 7.008C125.85 7.232 125.557 7.53067 125.344 7.904C125.141 8.27733 125.04 8.672 125.04 9.088V12H123.248V5.232H124.864ZM131.098 5.232L131.258 6.688L131.194 6.496C131.429 6.02667 131.775 5.65333 132.234 5.376C132.703 5.088 133.258 4.944 133.898 4.944C134.538 4.944 135.066 5.13067 135.482 5.504C135.898 5.87733 136.111 6.368 136.122 6.976V12H134.33V7.616C134.319 7.27467 134.223 7.00267 134.042 6.8C133.861 6.58667 133.573 6.47467 133.178 6.464C132.815 6.464 132.49 6.576 132.202 6.8C131.914 7.01333 131.685 7.312 131.514 7.696C131.354 8.06933 131.274 8.50133 131.274 8.992V12H129.482V5.232H131.098ZM141.439 12.176C140.799 12.176 140.218 12.0427 139.695 11.776C139.183 11.5093 138.778 11.1147 138.479 10.592C138.181 10.0587 138.031 9.40267 138.031 8.624C138.031 7.856 138.186 7.2 138.495 6.656C138.815 6.10133 139.231 5.67467 139.743 5.376C140.266 5.07733 140.831 4.928 141.439 4.928C142.09 4.928 142.613 5.056 143.007 5.312C143.413 5.568 143.727 5.872 143.951 6.224L143.855 6.48L144.031 5.232H145.679V12H143.887V10.352L144.063 10.784C144.021 10.848 143.935 10.9547 143.807 11.104C143.679 11.2427 143.503 11.3973 143.279 11.568C143.055 11.7387 142.789 11.8827 142.479 12C142.181 12.1173 141.834 12.176 141.439 12.176ZM141.935 10.704C142.255 10.704 142.543 10.6453 142.799 10.528C143.066 10.4107 143.29 10.2453 143.471 10.032C143.663 9.81867 143.802 9.56267 143.887 9.264V7.792C143.802 7.51467 143.663 7.27467 143.471 7.072C143.279 6.85867 143.045 6.69333 142.767 6.576C142.501 6.45867 142.202 6.4 141.871 6.4C141.509 6.4 141.173 6.49067 140.863 6.672C140.554 6.85333 140.303 7.104 140.111 7.424C139.93 7.744 139.839 8.112 139.839 8.528C139.839 8.93333 139.935 9.30133 140.127 9.632C140.319 9.96267 140.575 10.224 140.895 10.416C141.215 10.608 141.562 10.704 141.935 10.704ZM149.77 5.232L149.93 6.608L149.866 6.496C150.122 6.00533 150.469 5.62133 150.906 5.344C151.354 5.06667 151.871 4.928 152.458 4.928C152.831 4.928 153.162 4.98667 153.45 5.104C153.738 5.22133 153.978 5.38667 154.17 5.6C154.373 5.81333 154.506 6.08 154.57 6.4L154.474 6.432C154.751 5.97333 155.109 5.61067 155.546 5.344C155.983 5.06667 156.447 4.928 156.938 4.928C157.599 4.928 158.127 5.12 158.522 5.504C158.917 5.87733 159.119 6.36267 159.13 6.96V12H157.354V7.664C157.343 7.33333 157.274 7.06133 157.146 6.848C157.018 6.624 156.778 6.50133 156.426 6.48C156.042 6.48 155.711 6.60267 155.434 6.848C155.157 7.08267 154.938 7.392 154.778 7.776C154.629 8.14933 154.554 8.54933 154.554 8.976V12H152.746V7.664C152.735 7.33333 152.661 7.06133 152.522 6.848C152.383 6.624 152.138 6.50133 151.786 6.48C151.413 6.48 151.087 6.60267 150.81 6.848C150.533 7.08267 150.319 7.392 150.17 7.776C150.021 8.14933 149.946 8.544 149.946 8.96V12H148.154V5.232H149.77ZM164.823 12.176C164.023 12.176 163.341 12.0213 162.775 11.712C162.21 11.4027 161.778 10.976 161.479 10.432C161.181 9.87733 161.031 9.25333 161.031 8.56C161.031 7.87733 161.202 7.264 161.543 6.72C161.885 6.176 162.343 5.744 162.919 5.424C163.506 5.09333 164.151 4.928 164.855 4.928C165.783 4.928 166.546 5.2 167.143 5.744C167.751 6.27733 168.157 7.03467 168.359 8.016L162.903 9.856L162.487 8.848L166.743 7.328L166.375 7.536C166.258 7.216 166.066 6.93867 165.799 6.704C165.543 6.46933 165.181 6.352 164.711 6.352C164.338 6.352 164.007 6.44267 163.719 6.624C163.431 6.79467 163.202 7.04 163.031 7.36C162.871 7.66933 162.791 8.03733 162.791 8.464C162.791 8.90133 162.882 9.28533 163.063 9.616C163.245 9.94667 163.49 10.2027 163.799 10.384C164.109 10.5547 164.461 10.64 164.855 10.64C165.133 10.64 165.399 10.592 165.655 10.496C165.911 10.4 166.151 10.272 166.375 10.112L167.191 11.44C166.839 11.664 166.45 11.8453 166.023 11.984C165.607 12.112 165.207 12.176 164.823 12.176ZM171.739 5.232L171.899 6.688L171.835 6.496C172.069 6.02667 172.416 5.65333 172.875 5.376C173.344 5.088 173.899 4.944 174.539 4.944C175.179 4.944 175.707 5.13067 176.123 5.504C176.539 5.87733 176.752 6.368 176.763 6.976V12H174.971V7.616C174.96 7.27467 174.864 7.00267 174.683 6.8C174.501 6.58667 174.213 6.47467 173.819 6.464C173.456 6.464 173.131 6.576 172.843 6.8C172.555 7.01333 172.325 7.312 172.155 7.696C171.995 8.06933 171.915 8.50133 171.915 8.992V12H170.123V5.232H171.739ZM179.872 2.256H181.68V5.232H183.44V6.64H181.68V12H179.872V6.64H178.72V5.232H179.872V2.256ZM190.694 0.351999H197.766V2.144H192.566V5.424H197.094V7.216H192.566V12H190.694V0.351999ZM202.261 12.176C201.461 12.176 200.778 12.0213 200.213 11.712C199.648 11.4027 199.216 10.976 198.917 10.432C198.618 9.87733 198.469 9.25333 198.469 8.56C198.469 7.87733 198.64 7.264 198.981 6.72C199.322 6.176 199.781 5.744 200.357 5.424C200.944 5.09333 201.589 4.928 202.293 4.928C203.221 4.928 203.984 5.2 204.581 5.744C205.189 6.27733 205.594 7.03467 205.797 8.016L200.341 9.856L199.925 8.848L204.181 7.328L203.813 7.536C203.696 7.216 203.504 6.93867 203.237 6.704C202.981 6.46933 202.618 6.352 202.149 6.352C201.776 6.352 201.445 6.44267 201.157 6.624C200.869 6.79467 200.64 7.04 200.469 7.36C200.309 7.66933 200.229 8.03733 200.229 8.464C200.229 8.90133 200.32 9.28533 200.501 9.616C200.682 9.94667 200.928 10.2027 201.237 10.384C201.546 10.5547 201.898 10.64 202.293 10.64C202.57 10.64 202.837 10.592 203.093 10.496C203.349 10.4 203.589 10.272 203.813 10.112L204.629 11.44C204.277 11.664 203.888 11.8453 203.461 11.984C203.045 12.112 202.645 12.176 202.261 12.176ZM210.792 12.176C209.992 12.176 209.309 12.0213 208.744 11.712C208.179 11.4027 207.747 10.976 207.448 10.432C207.149 9.87733 207 9.25333 207 8.56C207 7.87733 207.171 7.264 207.512 6.72C207.853 6.176 208.312 5.744 208.888 5.424C209.475 5.09333 210.12 4.928 210.824 4.928C211.752 4.928 212.515 5.2 213.112 5.744C213.72 6.27733 214.125 7.03467 214.328 8.016L208.872 9.856L208.456 8.848L212.712 7.328L212.344 7.536C212.227 7.216 212.035 6.93867 211.768 6.704C211.512 6.46933 211.149 6.352 210.68 6.352C210.307 6.352 209.976 6.44267 209.688 6.624C209.4 6.79467 209.171 7.04 209 7.36C208.84 7.66933 208.76 8.03733 208.76 8.464C208.76 8.90133 208.851 9.28533 209.032 9.616C209.213 9.94667 209.459 10.2027 209.768 10.384C210.077 10.5547 210.429 10.64 210.824 10.64C211.101 10.64 211.368 10.592 211.624 10.496C211.88 10.4 212.12 10.272 212.344 10.112L213.16 11.44C212.808 11.664 212.419 11.8453 211.992 11.984C211.576 12.112 211.176 12.176 210.792 12.176Z" fill="url(#paint5_linear_2039_134985)"/>
<path d="M98.164 24.432H99.716V34.512H105.588V36H98.164V24.432ZM107.173 32.624C107.173 31.9627 107.328 31.3653 107.637 30.832C107.957 30.2987 108.394 29.8773 108.949 29.568C109.504 29.2587 110.133 29.104 110.837 29.104C111.562 29.104 112.197 29.2587 112.741 29.568C113.285 29.8773 113.706 30.2987 114.005 30.832C114.304 31.3653 114.453 31.9627 114.453 32.624C114.453 33.2853 114.304 33.888 114.005 34.432C113.706 34.9653 113.28 35.3867 112.725 35.696C112.181 36.0053 111.546 36.16 110.821 36.16C110.117 36.16 109.488 36.016 108.933 35.728C108.389 35.4293 107.957 35.0187 107.637 34.496C107.328 33.9627 107.173 33.3387 107.173 32.624ZM108.661 32.64C108.661 33.0667 108.757 33.456 108.949 33.808C109.141 34.1493 109.397 34.4213 109.717 34.624C110.048 34.8267 110.41 34.928 110.805 34.928C111.221 34.928 111.589 34.8267 111.909 34.624C112.24 34.4213 112.496 34.1493 112.677 33.808C112.858 33.456 112.949 33.0667 112.949 32.64C112.949 32.2133 112.858 31.8293 112.677 31.488C112.496 31.136 112.24 30.8587 111.909 30.656C111.589 30.4427 111.221 30.336 110.805 30.336C110.4 30.336 110.032 30.4427 109.701 30.656C109.381 30.8693 109.125 31.152 108.933 31.504C108.752 31.8453 108.661 32.224 108.661 32.64ZM117.796 29.376L117.94 31.296L117.86 31.04C118.031 30.6347 118.276 30.2933 118.596 30.016C118.927 29.728 119.268 29.5093 119.62 29.36C119.983 29.2 120.297 29.12 120.564 29.12L120.484 30.592C119.983 30.56 119.54 30.656 119.156 30.88C118.783 31.104 118.484 31.4027 118.26 31.776C118.047 32.1493 117.94 32.5493 117.94 32.976V36H116.468V29.376H117.796ZM125.274 36.16C124.517 36.16 123.866 36.0107 123.322 35.712C122.778 35.4027 122.357 34.9867 122.058 34.464C121.77 33.9307 121.626 33.3227 121.626 32.64C121.626 31.9893 121.792 31.3973 122.122 30.864C122.453 30.3307 122.896 29.904 123.45 29.584C124.005 29.264 124.624 29.104 125.306 29.104C126.181 29.104 126.906 29.36 127.482 29.872C128.058 30.384 128.448 31.088 128.65 31.984L123.194 33.904L122.842 33.024L127.322 31.392L127.002 31.6C126.874 31.248 126.661 30.944 126.362 30.688C126.064 30.4213 125.674 30.288 125.194 30.288C124.789 30.288 124.426 30.3893 124.106 30.592C123.786 30.784 123.536 31.0507 123.354 31.392C123.173 31.7333 123.082 32.1227 123.082 32.56C123.082 33.0187 123.178 33.424 123.37 33.776C123.562 34.1173 123.824 34.3893 124.154 34.592C124.496 34.784 124.88 34.88 125.306 34.88C125.594 34.88 125.872 34.8267 126.138 34.72C126.416 34.6133 126.672 34.4747 126.906 34.304L127.594 35.408C127.264 35.632 126.89 35.8133 126.474 35.952C126.069 36.0907 125.669 36.16 125.274 36.16ZM131.843 29.376L131.971 30.864L131.907 30.736C132.152 30.2347 132.499 29.84 132.947 29.552C133.405 29.264 133.928 29.12 134.515 29.12C134.888 29.12 135.219 29.1787 135.507 29.296C135.795 29.4133 136.029 29.584 136.211 29.808C136.403 30.0213 136.525 30.288 136.579 30.608L136.499 30.656C136.755 30.176 137.107 29.8027 137.555 29.536C138.013 29.2587 138.493 29.12 138.995 29.12C139.645 29.12 140.157 29.3067 140.531 29.68C140.915 30.0427 141.112 30.5173 141.123 31.104V36H139.635V31.632C139.624 31.2907 139.539 31.008 139.379 30.784C139.229 30.5493 138.963 30.4213 138.579 30.4C138.195 30.4 137.848 30.5173 137.539 30.752C137.24 30.9867 137.005 31.2907 136.835 31.664C136.664 32.0267 136.573 32.4213 136.563 32.848V36H135.075V31.632C135.064 31.2907 134.973 31.008 134.803 30.784C134.643 30.5493 134.371 30.4213 133.987 30.4C133.592 30.4 133.245 30.5173 132.947 30.752C132.648 30.9867 132.413 31.2907 132.243 31.664C132.083 32.0373 132.003 32.4373 132.003 32.864V36H130.515V29.376H131.843Z" fill="white"/>
<defs>
<linearGradient id="paint0_linear_2039_134985" x1="36.1009" y1="-89.7278" x2="36.1009" y2="98.722" gradientUnits="userSpaceOnUse">
<stop stop-color="#CBA05F"/>
<stop offset="0.25" stop-color="#804E03"/>
<stop offset="0.37" stop-color="#986D05"/>
<stop offset="0.47" stop-color="#CBA05F"/>
<stop offset="0.62" stop-color="#E3D5A7"/>
<stop offset="0.73" stop-color="#E2D4A5"/>
<stop offset="0.77" stop-color="#E0CF9E"/>
<stop offset="0.8" stop-color="#DCC693"/>
<stop offset="0.82" stop-color="#D7B982"/>
<stop offset="0.84" stop-color="#CFAA6C"/>
<stop offset="0.85" stop-color="#CBA05F"/>
<stop offset="1" stop-color="#804E03"/>
</linearGradient>
<linearGradient id="paint1_linear_2039_134985" x1="54.8191" y1="-89.728" x2="54.8191" y2="98.7219" gradientUnits="userSpaceOnUse">
<stop stop-color="#CBA05F"/>
<stop offset="0.25" stop-color="#804E03"/>
<stop offset="0.37" stop-color="#986D05"/>
<stop offset="0.47" stop-color="#CBA05F"/>
<stop offset="0.62" stop-color="#E3D5A7"/>
<stop offset="0.73" stop-color="#E2D4A5"/>
<stop offset="0.77" stop-color="#E0CF9E"/>
<stop offset="0.8" stop-color="#DCC693"/>
<stop offset="0.82" stop-color="#D7B982"/>
<stop offset="0.84" stop-color="#CFAA6C"/>
<stop offset="0.85" stop-color="#CBA05F"/>
<stop offset="1" stop-color="#804E03"/>
</linearGradient>
<linearGradient id="paint2_linear_2039_134985" x1="17.383" y1="-89.728" x2="17.383" y2="98.7219" gradientUnits="userSpaceOnUse">
<stop stop-color="#CBA05F"/>
<stop offset="0.25" stop-color="#804E03"/>
<stop offset="0.37" stop-color="#986D05"/>
<stop offset="0.47" stop-color="#CBA05F"/>
<stop offset="0.62" stop-color="#E3D5A7"/>
<stop offset="0.73" stop-color="#E2D4A5"/>
<stop offset="0.77" stop-color="#E0CF9E"/>
<stop offset="0.8" stop-color="#DCC693"/>
<stop offset="0.82" stop-color="#D7B982"/>
<stop offset="0.84" stop-color="#CFAA6C"/>
<stop offset="0.85" stop-color="#CBA05F"/>
<stop offset="1" stop-color="#804E03"/>
</linearGradient>
<linearGradient id="paint3_linear_2039_134985" x1="36.1006" y1="-89.7281" x2="36.1006" y2="98.7218" gradientUnits="userSpaceOnUse">
<stop stop-color="#CBA05F"/>
<stop offset="0.25" stop-color="#804E03"/>
<stop offset="0.37" stop-color="#986D05"/>
<stop offset="0.47" stop-color="#CBA05F"/>
<stop offset="0.62" stop-color="#E3D5A7"/>
<stop offset="0.73" stop-color="#E2D4A5"/>
<stop offset="0.77" stop-color="#E0CF9E"/>
<stop offset="0.8" stop-color="#DCC693"/>
<stop offset="0.82" stop-color="#D7B982"/>
<stop offset="0.84" stop-color="#CFAA6C"/>
<stop offset="0.85" stop-color="#CBA05F"/>
<stop offset="1" stop-color="#804E03"/>
</linearGradient>
<linearGradient id="paint4_linear_2039_134985" x1="36.5" y1="0" x2="36.5" y2="72" gradientUnits="userSpaceOnUse">
<stop stop-color="#F9D390"/>
<stop offset="1" stop-color="#E2B15B"/>
</linearGradient>
<linearGradient id="paint5_linear_2039_134985" x1="314" y1="0" x2="314" y2="16" gradientUnits="userSpaceOnUse">
<stop stop-color="#FFE0AB"/>
<stop offset="1" stop-color="#E9CA94"/>
</linearGradient>
<clipPath id="clip0_2039_134985">
<rect width="51.2122" height="46.16" fill="white" transform="translate(10.5 13)"/>
</clipPath>
</defs>
</svg>
