<?xml version="1.0" encoding="utf-8"?>
<!-- Generator: Adobe Illustrator 24.0.2, SVG Export Plug-In . SVG Version: 6.00 Build 0)  -->
<svg version="1.1" id="Слой_1" xmlns="http://www.w3.org/2000/svg" xmlns:xlink="http://www.w3.org/1999/xlink" x="0px" y="0px"
	 viewBox="0 0 841.89 595.28" style="enable-background:new 0 0 841.89 595.28;" xml:space="preserve">
<style type="text/css">
	.st0{fill:#FFFFFF;}
	.st1{fill:#D1A565;}
</style>
<g>
	<path class="st0" d="M508.37,433.4h9.21v26.28c0,4.03,3.48,7.3,7.77,7.3h14.25v7.36h-17.69c-7.48,0-13.54-5.7-13.54-12.73V433.4z"
		/>
	<path class="st0" d="M373.06,438.69c-7.13-6.53-17.8-6.79-19.47-6.78v0h-9.15v40.94h9.15v-32.43c0.18,0,8.33-0.02,13.1,4.36
		c2.2,2.01,3.36,4.67,3.55,8.1h-0.01v19.97h9.15c0,0,0-14.98,0-19.97C379.38,447.16,377.02,442.32,373.06,438.69z"/>
	<g>
		<g>
			<path class="st0" d="M430.57,459.65c-3.81,6.4-3.85,12.81-3.85,13.08l4.87,0.01v0.07h7.54h18.35v-7.19h-20.2
				c2.26-5.02,7.59-10.78,20.2-10.78v-8.36C441.72,446.48,434.15,453.64,430.57,459.65z"/>
			<polygon class="st1" points="426.03,431.84 426.03,439.04 435.18,439.04 457.47,439.04 457.47,431.84 			"/>
		</g>
	</g>
	<g>
		<g>
			<path class="st0" d="M414.01,457.9c-5.84-5.38-14.08-6.57-17.88-6.83l-2.06-0.03h-7.09v22.01h9.15v-13.59
				c2.81,0.26,8.13,1.17,11.65,4.4c2.43,2.24,3.61,5.24,3.61,9.18h8.9C420.28,466.83,418.17,461.74,414.01,457.9z"/>
			<path class="st0" d="M398.71,439.22H401c8.09,0,10.09,7.43,10.09,11.85h9.15c0-0.02,0-0.04,0-0.06c0-8.61-4.23-18.9-16.63-18.9
				h-16.63v7.11h9.15H398.71z"/>
		</g>
	</g>
	<g>
		<g>
			<polygon class="st1" points="328.02,431.86 328.02,453.87 337.17,453.87 337.17,439.15 337.17,431.86 			"/>
			<path class="st0" d="M310.54,452.83v-20.97h-8.89v21.03c0.01,0.51,0.16,5.07,2.7,9.77c3.56,6.6,10.19,10.23,18.65,10.23h13.81
				v-8.36h-13.81C311.47,464.54,310.59,454.71,310.54,452.83z"/>
		</g>
	</g>
	<g>
		<g>
			<polygon class="st0" points="488.53,431.9 478.32,431.9 492.56,472.81 502.54,472.81 			"/>
			<path class="st0" d="M475.87,453.62c-6.13,2.99-11.61,8.8-11.61,19.23h8.89c0-5.97,2.54-9.32,5.52-11.21L475.87,453.62z"/>
		</g>
	</g>
	<g>
		<path class="st1" d="M304.6,497.26c-0.92-0.51-1.65-1.21-2.17-2.1c-0.52-0.89-0.79-1.89-0.79-3c0-1.11,0.26-2.12,0.79-3.01
			c0.52-0.89,1.25-1.59,2.18-2.1c0.93-0.51,1.97-0.76,3.11-0.76c0.9,0,1.71,0.15,2.46,0.45c0.74,0.3,1.38,0.75,1.9,1.34l-1.07,1.03
			c-0.86-0.91-1.94-1.36-3.23-1.36c-0.85,0-1.62,0.19-2.31,0.57c-0.69,0.38-1.23,0.91-1.61,1.58c-0.39,0.67-0.58,1.42-0.58,2.25
			c0,0.83,0.19,1.58,0.58,2.25c0.39,0.67,0.93,1.2,1.61,1.58c0.69,0.38,1.46,0.57,2.31,0.57c1.28,0,2.35-0.46,3.23-1.37l1.07,1.03
			c-0.52,0.59-1.16,1.04-1.91,1.34c-0.75,0.31-1.57,0.46-2.46,0.46C306.56,498.02,305.52,497.76,304.6,497.26z"/>
		<path class="st1" d="M349.39,495.02h-6.09l-1.26,2.87h-1.69l5.19-11.47h1.62l5.21,11.47h-1.72L349.39,495.02z M348.81,493.71
			l-2.47-5.62l-2.47,5.62H348.81z"/>
		<path class="st1" d="M389.99,487.49c0.85,0.71,1.28,1.69,1.28,2.93s-0.43,2.22-1.28,2.93c-0.85,0.71-2.02,1.06-3.51,1.06h-2.83
			v3.47h-1.64v-11.47h4.47C387.97,486.42,389.14,486.78,389.99,487.49z M388.81,492.33c0.55-0.44,0.82-1.08,0.82-1.91
			c0-0.83-0.27-1.47-0.82-1.91c-0.55-0.44-1.34-0.66-2.38-0.66h-2.78v5.14h2.78C387.48,492.99,388.27,492.77,388.81,492.33z"/>
		<path class="st1" d="M421.62,486.42h1.64v11.47h-1.64V486.42z"/>
		<path class="st1" d="M456.92,487.85h-3.93v-1.43h9.48v1.43h-3.93v10.04h-1.62V487.85z"/>
		<path class="st1" d="M498.93,495.02h-6.09l-1.26,2.87h-1.69l5.19-11.47h1.62l5.21,11.47h-1.72L498.93,495.02z M498.36,493.71
			l-2.47-5.62l-2.47,5.62H498.36z"/>
		<path class="st1" d="M531.56,486.42h1.64v10.04h6.21v1.42h-7.85V486.42z"/>
	</g>
</g>
</svg>
